<svg version="1.1" xmlns="http://www.w3.org/2000/svg" xmlns:xlink="http://www.w3.org/1999/xlink" width="295.56867" height="403.16702" viewBox="0,0,295.56867,403.16702"><g transform="translate(-170.57574,44.09344)"><g data-paper-data="{&quot;isPaintingLayer&quot;:true}" fill-rule="nonzero" stroke-linejoin="miter" stroke-miterlimit="10" stroke-dasharray="" stroke-dashoffset="0" style="mix-blend-mode: normal"><path d="M262.32103,242.18551c2.58991,-2.29643 2.86926,-3.4355 5.5246,-5.47777c13.84285,-10.64679 21.42991,-16.81864 34.39086,-28.15751c3.1209,-2.73031 12.60784,-8.25063 15.89908,-10.50501c17.38095,-11.90534 33.25578,-22.8042 53.36873,-29.64859c4.15231,-1.41302 7.06791,-6.67254 9.88151,-9.5613c5.24707,-5.38725 6.47769,-12.20291 11.3404,-17.96188c2.57343,-3.04774 6.76941,-8.77772 10.38779,-10.85229c5.79072,-3.32007 15.3172,-3.22946 20.797,0.72074c2.7934,2.01367 3.84066,5.26466 5.75442,7.86332c2.15855,2.93107 3.68264,6.12381 4.48399,9.69193c0.71957,3.20399 0.12709,8.34597 -1.41251,11.60664c-0.5244,1.11062 -1.48371,2.13185 -1.64143,3.30872c-0.13868,1.03479 2.33825,-0.33564 3.44632,-0.13363c2.21583,0.40397 4.45098,0.64018 6.65545,1.01489c2.73088,0.46418 5.4066,1.35655 8.05865,2.00868c8.69776,2.13876 13.21979,0.41944 16.1052,9.62399c5.24902,16.74451 -16.96012,34.97669 -34.45562,34.9348c-4.57785,-0.01096 -10.18753,-0.54406 -14.51029,-1.6908c-1.69793,-0.45043 -3.49417,-0.70224 -4.93482,-1.53853c-0.60854,-0.35325 -1.03602,-1.73912 -1.62773,-1.28742c-0.76975,0.58762 -0.5729,1.71448 -0.9336,2.55203c-1.14491,2.65853 -3.38816,7.54442 -5.44301,9.79162c-4.01162,4.38713 -8.25352,8.66942 -12.46829,12.92392c-6.60286,6.6651 -15.68354,11.7131 -23.77069,16.62135c-13.18785,8.00395 -27.73426,14.58903 -42.32544,20.18658c-11.6934,4.48589 -24.0955,8.61987 -36.3592,11.32043c-3.59313,0.79124 -7.66073,1.62682 -11.34674,1.39669c-1.77268,-0.11067 -3.85793,-0.76214 -5.65352,-0.10153c-6.0319,2.21917 -10.88796,5.40368 -17.58196,5.37401c-8.15969,-0.03617 -8.60477,-8.6135 -10.15379,-13.42719c-0.60526,-0.60886 -1.13311,-1.29086 -1.56705,-2.03866c-0.25314,-0.29203 -0.4691,-0.65264 -0.59364,-1.20717c-0.10423,-0.25485 -0.19842,-0.51578 -0.28205,-0.78257c-1.0576,-3.37378 -0.19455,-6.94186 2.00738,-9.74402c3.22224,-6.41154 9.38147,-7.76476 13.96001,-11.82447z" fill="#230800" stroke="none" stroke-width="0.5" stroke-linecap="butt"/><g stroke-width="2.5" stroke-linecap="butt"><path d="M261.40001,334.49584v-54.4h15.4v54.4z" fill="#ffed9e" stroke="#ffe571"/><path d="M259.60001,332.49584v-14.4h19.2v14.4z" fill="#ffffff" stroke="#fbc4ff"/><path d="M255.20001,352.49584v-18.8h29v18.8z" fill="#ffe15d" stroke="#c3ac46"/></g><path d="M262.52573,340.18334c0.38875,0.6911 0.54207,1.24137 0.59692,1.75059c0.05949,0.32409 0.09058,0.65812 0.09058,0.99941c0,0.31669 -0.02677,0.62712 -0.07815,0.92917c0.01004,0.23406 0.03282,0.48271 0.07815,0.75304c0.15731,0.93806 7.19866,-0.39218 9.25,0.83863c1.53559,0.92135 4.84503,3.46797 6.63731,2.80299c3.61457,-1.34109 -3.74942,-12.49049 5.94603,-12.49049c1.8476,0 3.50605,1.44355 4.8125,2.75c0.66813,0.66813 0.60271,1.80894 0.6875,2.75c0.22231,2.46715 1.80579,10.02011 0.77855,12.07459c-0.67149,1.34299 -3.26012,2.4573 -4.43931,3.18608c-6.29407,3.88995 -9.18174,2.65742 -15.71144,0.69056c-0.93947,-0.28298 -2.56154,-1.38541 -3.45973,-1.45122c-5.02754,-0.36838 -8.86134,0.0566 -12.89049,-3.27758c-2.54932,-2.1096 -4.72186,-10.70664 -1.8509,-12.34719c0.95674,-1.62108 2.72136,-2.70857 4.73998,-2.70857c1.78986,0 3.38002,0.85497 4.38439,2.17879c0.16393,0.16933 0.30824,0.35812 0.42811,0.57121z" fill="#130500" stroke="none" stroke-width="0.5" stroke-linecap="butt"/><path d="M282.80506,299.69581c0.64933,5.45855 -0.23607,20.98913 -10.23767,10.98753c-2.34007,-2.34008 -0.43152,-8.09228 -0.92896,-11.07693c-0.06034,-0.32628 -0.09186,-0.66266 -0.09186,-1.0064c0,-1.67703 0.75058,-3.17876 1.93413,-4.18757c1.00894,-0.99349 2.27205,-1.40811 3.54186,-1.31238c0.008,-0.00004 0.016,-0.00005 0.024,-0.00005c2.94146,0 5.34361,2.30908 5.49267,5.21348c0.11826,0.43664 0.20819,0.89778 0.26583,1.38232z" fill="#130500" stroke="none" stroke-width="0.5" stroke-linecap="butt"/><g data-paper-data="{&quot;index&quot;:null}" stroke-linecap="butt"><path d="M292.65988,183.04505l-30.55509,-83.58872l11.53342,-4.16642l30.55509,83.58872z" data-paper-data="{&quot;index&quot;:null}" fill="#fbc7ff" stroke="#000000" stroke-width="3"/><path d="M317.22658,196.49097c0.31437,2.40442 -5.20067,-5.92472 -5.34458,-3.67709c-0.22719,3.5482 3.37665,6.46502 -2.25553,9.64677c-13.17077,7.44047 -13.97293,-1.82826 -18.95504,-9.99984c-4.98211,-8.17157 -4.65952,-17.45501 0.72053,-20.73517c5.38005,-3.28016 13.78022,0.68513 18.76234,8.8567c1.08055,1.77228 8.77114,9.48913 7.07228,15.90863z" data-paper-data="{&quot;index&quot;:null}" fill="#ffe15d" stroke="#c3ac46" stroke-width="2.5"/><path d="M289.89775,175.19837l-11.68406,-24.00023l14.32271,-6.97275l10.81429,26.29538z" data-paper-data="{&quot;index&quot;:null}" fill="#ffe15d" stroke="#c3ac46" stroke-width="2.5"/><path d="M272.5462,153.30637l-2.41968,-5.50057l21.66048,-10.13064l2.41968,5.50057z" data-paper-data="{&quot;index&quot;:null}" fill="#ffffff" stroke="#fbc4ff" stroke-width="2.5"/></g><path d="M301.33294,173.87083c1.25997,-2.28443 4.01041,-3.41228 6.57007,-2.54978c1.0451,0.35216 1.91472,0.98771 2.55208,1.79221c1.59064,0.63627 2.50379,5.956 3.62571,7.29879c3.4155,4.0879 16.46594,15.16401 1.53159,16.35948c-2.10352,0.16839 -4.63624,-2.84936 -5.91575,-4.4884c-3.19398,-4.09144 -10.84911,-12.28753 -8.69625,-17.8086c0.08718,-0.22358 0.19921,-0.4237 0.33255,-0.60371z" data-paper-data="{&quot;index&quot;:null}" fill="#130500" stroke="none" stroke-width="0.5" stroke-linecap="butt"/><path d="M286.41711,166.02852c1.3745,-0.9338 3.15443,-1.23623 4.85059,-0.66469c2.68783,0.9057 4.21489,3.68583 3.61577,6.39372c-0.0098,0.04426 -0.02016,0.0885 -0.03109,0.13272c-0.45634,1.90842 -1.39477,4.19304 -1.4405,4.33432c-0.90339,2.79113 2.96615,10.31249 -0.3881,12.90383c-0.97512,0.75333 -2.38272,0.62967 -3.56955,0.96102c-0.56215,0.15695 -0.50404,0.79954 -1.78267,0.47994c-7.46453,-1.86584 -6.0364,-20.35744 -1.84253,-24.13625c0.18163,-0.16366 0.37869,-0.29649 0.5881,-0.4046z" data-paper-data="{&quot;index&quot;:null}" fill="#130500" stroke="none" stroke-width="0.5" stroke-linecap="butt"/><path d="" fill="#032b00" stroke="#000000" stroke-width="1.5" stroke-linecap="butt"/><path d="" fill="#032b00" stroke="#000000" stroke-width="1.5" stroke-linecap="butt"/><path d="" fill="#ffe15d" stroke="#c3ac46" stroke-width="1.5" stroke-linecap="butt"/><path d="" fill="#ffe15d" stroke="#c3ac46" stroke-width="1.5" stroke-linecap="butt"/><g stroke-linecap="butt"><path d="M195.86694,178.87863l30.55508,-83.58872l11.53342,4.16642l-30.55509,83.58872z" data-paper-data="{&quot;index&quot;:null}" fill="#fbc7ff" stroke="#000000" stroke-width="3"/><path d="M189.90594,180.58234c4.98211,-8.17158 13.38229,-12.13686 18.76234,-8.85671c5.38005,3.28015 5.70264,12.56359 0.72053,20.73517c-4.98211,8.17158 -5.78427,17.44031 -18.95504,9.99984c-5.63218,-3.18175 -2.02833,-6.09856 -2.25552,-9.64677c-0.14391,-2.24763 -5.65895,6.0815 -5.34458,3.67709c-1.69885,-6.41949 5.99174,-14.13635 7.07228,-15.90863z" data-paper-data="{&quot;index&quot;:null}" fill="#ffe15d" stroke="#c3ac46" stroke-width="2.5"/><path d="M196.70955,170.52077l10.81429,-26.29538l14.32271,6.97275l-11.68406,24.00023z" data-paper-data="{&quot;index&quot;:null}" fill="#ffe15d" stroke="#c3ac46" stroke-width="2.5"/><path d="M205.85354,143.17572l2.41968,-5.50057l21.66049,10.13065l-2.41968,5.50057z" data-paper-data="{&quot;index&quot;:null}" fill="#ffffff" stroke="#fbc4ff" stroke-width="2.5"/></g><g stroke-width="2.5" stroke-linecap="butt"><path d="M223.4,334.49583v-54.4h15.4v54.4z" fill="#ffed9e" stroke="#ffe571"/><path d="M221.6,332.49583v-14.4h19.2v14.4z" fill="#ffffff" stroke="#fbc4ff"/><path d="M217.2,352.49583v-18.8h29v18.8z" fill="#ffe15d" stroke="#c3ac46"/></g><path d="M248.58585,109.49742c0.60665,1.47062 2.27921,5.70779 4.55245,2.50345c1.67332,-2.3587 8.56493,-2.52655 10.96224,-0.3472c0.63935,0.58123 0.62284,1.95894 1.14371,2.72929c0.49454,0.7314 1.45913,0.79176 1.82109,1.65552c0.67873,1.61968 0.2399,8.73865 -0.4202,10.31386c-0.42532,1.01495 -4.15449,3.87485 -3.9592,6.12683c0.12851,1.48187 1.87506,1.68138 2.49253,2.91332c1.05503,2.10496 0.69113,7.66614 0.4202,10.31386c-0.15905,1.55435 -3.74313,4.77509 -3.93152,4.93295c-0.48372,0.40532 -1.83031,0.17562 -1.57922,0.86998c1.48323,4.1017 1.2335,6.0981 0.37737,10.19707c-0.11466,0.54895 -0.85721,1.4142 -0.77965,1.96876c0.2618,1.87193 1.45198,1.4515 2.10029,2.8223c0.00489,0.01033 0.88815,4.71483 0.93959,5.125c0.50836,4.05363 -1.23062,6.26453 -2.68339,8.59249c-0.56587,0.90677 -0.17135,2.37537 -0.35857,3.53834c-0.08254,0.51274 0.82137,0.06409 1.11695,0.40042c0.48961,0.55711 0.83729,1.32593 1.15367,2.08091c0.93988,2.24287 2.23317,4.35477 2.60469,6.88784c0.14235,0.97059 -1.19013,2.93056 -1.60853,3.83852c-0.76849,1.66766 -1.20368,3.64206 -2.14982,5.13023c-0.3195,0.50254 -0.97249,0.21799 -1.41954,0.48393c-0.99172,0.58994 -0.86915,3.10167 -1.26172,4.17232c-0.26857,0.73246 -1.69421,2.35148 -1.66352,3.07964c0.04508,1.0696 2.45168,3.42217 2.85603,4.06543c1.00082,1.5922 1.26173,4.77427 1.58043,6.72992c1.35871,8.33748 -2.01577,8.26708 -4.84597,12.46909c-0.20673,0.30694 0.39574,0.63527 0.59669,0.94927c0.56818,0.88782 1.56102,1.28977 1.93552,2.35172c0.33301,0.94431 -0.08537,2.13195 0.12787,3.13862c0.20246,0.95577 1.04542,1.59799 1.08589,2.59131c0.03518,0.86339 -1.30649,1.64682 -0.88681,2.29508c0.17474,0.26992 1.22894,2.82928 1.23442,2.96359c0.47281,11.60528 -4.9991,15.19346 -12.99769,13.99133c-1.28357,-0.19291 -2.63716,-0.40759 -3.75836,-1.28125c-0.59792,-0.46591 -0.53805,-1.782 -1.02501,-2.44602c-0.48695,-0.66402 -1.45209,-0.58239 -1.79376,-1.39773c-0.69967,-1.66965 -0.27595,-3.92821 -0.93959,-5.625c-0.92743,-2.37125 -2.50816,-4.37587 -2.93335,-7c-0.18807,-1.16067 0.98807,-1.98487 1.29744,-3.09615c0.10069,-0.36167 -1.20305,-2.0839 -1.45786,-2.77885c-0.69033,-1.8827 -0.96477,-4.02949 -1.30626,-6.125c-0.86124,-5.28485 2.2018,-9.39214 4.44613,-12.73668c0.33981,-0.50639 -2.12623,-3.50128 -2.40653,-4.13832c-0.75256,-1.71035 -1.19886,-5.15891 -0.93959,-7.125c0.22855,-1.73311 0.45444,-3.49309 0.93959,-5.125c0.13822,-0.46493 1.01675,-0.58159 0.82079,-1.00617c-0.28807,-0.62415 -1.31341,-2.5459 -1.37464,-3.12749c-0.3247,-3.08404 1.70233,-4.50963 0.52357,-7.93049c-0.05022,-0.14574 -0.86452,-1.79472 -0.76334,-2.30065c0.46291,-2.31452 2.43034,-7.77925 2.45074,-9.83536c0.01317,-1.32815 -1.076,-2.3486 -1.13003,-3.67483c-0.03083,-0.7568 1.22164,-4.4868 1.32951,-5.07117c0.28638,-1.55134 -2.07366,-5.74891 -1.74302,-8.00183c0.13243,-0.90235 0.75864,-1.5225 1.12302,-2.29707c0.37828,-0.80411 -0.21408,-2.0336 0.13757,-2.85986c0.58869,-1.3832 2.88158,-2.06763 2.39071,-3.52008c-1.02491,-3.03263 -1.57992,-5.32672 -2.13779,-8.75c-0.11941,-0.73273 0.61968,-1.35607 0.56049,-1.81524c-0.12173,-0.94445 -0.86973,-1.5541 -1.08541,-2.46682c-0.0895,-0.37874 0.27708,-0.75891 0.23034,-1.15169c-0.24387,-2.04928 -1.28696,-5.90751 -1.21894,-8.13925c0.05679,-1.86315 1.70669,-1.8421 1.44872,-4.06643c-0.16934,-1.4601 -2.72285,-4.1919 -3.39565,-5.73558c-0.93416,-2.14336 -1.78814,-9.85666 0.0991,-11.32722c1.30754,-3.0211 3.71922,-5.04778 6.47803,-5.04778c2.44616,0 4.61941,1.59335 5.99204,4.06047c0.22403,0.31556 0.42127,0.66741 0.58508,1.06453z" fill="#230800" stroke="none" stroke-width="0.5" stroke-linecap="butt"/><path d="M281.00833,285.23614l-61.09149,-1.45895l5.14789,-23.97046c3.93689,-0.18234 8.30269,-1.27981 11.65303,-2.2472c2.94192,-0.84946 5.61541,-1.78913 8.48244,-2.76389c1.15987,-0.39434 2.49367,-0.33109 3.5498,-0.95189c0.4812,-0.28286 0.98007,-1.55273 1.27874,-1.08118c4.17309,6.58864 13.24944,8.46042 20.34649,6.68617c1.38778,-0.34695 2.53199,-0.95703 3.67349,-1.54258z" fill="#ce59d6" stroke="#d076d6" stroke-width="3" stroke-linecap="butt"/><g stroke-linecap="butt"><path d="M177.32885,113.42974c-3.02707,-0.38941 -4.88323,-5.35187 -4.14584,-11.08397c0.73739,-5.7321 9.73994,-10.24606 12.767,-9.85666c0.80143,0.1031 7.04623,6.32029 9.60807,10.6971c3.02903,5.17498 0.73985,11.29191 -4.38669,12.2633c-5.12654,0.97138 -6.71507,-14.11373 -7.0264,-11.69357c-0.73738,5.7321 -3.78908,10.06321 -6.81614,9.67381z" fill="#f99cff" stroke="#ce59d6" stroke-width="1.5"/><path d="M184.77631,97.9457c0,0 -7.40962,-32.08252 5.46543,-55.68263c12.87504,-23.60011 29.88274,-37.54005 37.2934,-33.49716c5.19587,2.83461 17.10671,29.03711 11.83153,44.0092c-2.2486,6.38199 -25.61433,0.25441 -30.58394,6.56771c-17.45419,22.17344 -24.00641,38.60289 -24.00641,38.60289z" fill="#f99cff" stroke="#ce59d6" stroke-width="3"/><path d="M207.18876,42.13294l-2.2524,4.12867l-11.35385,-6.19409l2.2524,-4.12867z" fill="#ffffff" stroke="#af4c00" stroke-width="0"/><path d="M202.38371,49.95861l-2.2524,4.12867l-11.35385,-6.19409l2.2524,-4.12867z" fill="#ffffff" stroke="#af4c00" stroke-width="0"/><path d="M199.75853,56.80576l-1.59374,4.42485l-12.16833,-4.38277l1.59373,-4.42484z" fill="#ffffff" stroke="#af4c00" stroke-width="0"/><path d="M197.93806,63.86382l-0.65572,4.65718l-12.80723,-1.80324l0.65572,-4.65717z" fill="#ffffff" stroke="#af4c00" stroke-width="0"/></g><g stroke-linecap="butt"><path d="M321.49224,104.82539c-0.31133,-2.42015 -1.89986,12.66495 -7.0264,11.69357c-5.12655,-0.97138 -7.41571,-7.08832 -4.38669,-12.26329c2.56184,-4.37681 8.80664,-10.594 9.60807,-10.6971c3.02706,-0.38941 12.02961,4.12455 12.767,9.85665c0.73739,5.7321 -1.11877,10.69457 -4.14584,11.08398c-3.02706,0.38941 -6.07876,-3.9417 -6.81615,-9.67381z" fill="#f99cff" stroke="#cf5ad5" stroke-width="1.5"/><path d="M296.8545,60.41227c-4.96962,-6.31329 -28.33534,-0.18571 -30.58394,-6.56771c-5.27518,-14.97209 6.63567,-41.17459 11.83154,-44.0092c7.41066,-4.04288 24.41835,9.89706 37.29339,33.49717c12.87505,23.60011 5.46543,55.68263 5.46543,55.68263c0,0 -6.55223,-16.42944 -24.00642,-38.60288z" fill="#f99cff" stroke="#ce59d6" stroke-width="3"/><path d="M309.80232,37.00831l2.25241,4.12868l-11.35385,6.19409l-2.25241,-4.12867z" fill="#ffffff" stroke="#af4c00" stroke-width="0"/><path d="M314.60737,44.83398l2.2524,4.12867l-11.35385,6.1941l-2.25241,-4.12867z" fill="#ffffff" stroke="#af4c00" stroke-width="0"/><path d="M318.04703,53.49247l1.59373,4.42484l-12.16833,4.38277l-1.59373,-4.42485z" fill="#ffffff" stroke="#af4c00" stroke-width="0"/><path d="M320.5064,63.13006l0.65572,4.65717l-12.80723,1.80324l-0.65572,-4.65718z" fill="#ffffff" stroke="#af4c00" stroke-width="0"/></g><path d="M248.15307,100.57261v-13.35683h7.90123v13.35683z" fill="#fbc7ff" stroke="#000000" stroke-width="3" stroke-linecap="butt"/><path d="M293.1148,45.29931c0,10.05157 0.44481,17.90029 -5.13247,25.28671c-1.57852,2.09055 -7.10053,5.44199 -9.01707,7.20792c-4.07737,3.75696 -4.63262,10.48628 -9.90035,12.42693c-4.53246,1.66978 -13.65284,-1.18263 -18.74841,-1.18263c-5.39013,0 -11.01784,1.33322 -15.76835,-0.52545c-4.39372,-1.71908 -7.96907,-6.50857 -11.52888,-9.52455c-5.83481,-4.94343 -12.24561,-6.7367 -14.86315,-14.16595c-1.63055,-4.62792 -0.63792,-14.32095 -0.63792,-19.52297c0,-4.85677 -1.10667,-15.69593 0.32311,-20.13161c2.81964,-8.74747 10.06869,-10.2552 17.06924,-15.54091c4.21992,-3.18622 8.56281,-9.66575 13.76877,-10.96512c3.56,-0.88854 7.77397,2.89871 11.63718,2.89871c6.54691,0 16.51296,-1.78985 22.06112,0.89587c5.50529,2.66497 6.60278,9.7873 10.51256,14.47105c3.02695,3.62615 7.83591,6.82332 9.5823,11.32815c1.93206,4.98377 0.64232,11.3574 0.64232,17.04386z" fill="#fbc7ff" stroke="#000000" stroke-width="3" stroke-linecap="butt"/><path d="M223.74393,33.96775l12.46324,10.582l-14.10933,5.40858" fill="none" stroke="#000000" stroke-width="5" stroke-linecap="round"/><path d="M228.68219,25.99934l1.1489,-2.04249l0.76594,1.91484z" fill="none" stroke="#000000" stroke-width="1.5" stroke-linecap="round"/><path d="M270.20394,21.17082l1.22953,-2.18583l0.81969,2.04921z" fill="none" stroke="#000000" stroke-width="1.5" stroke-linecap="round"/><path d="M233.66749,95.117h36.11989v27.67549c-6.50426,-2.11815 -15.41179,-8.89971 -22.59332,-7.10433c-5.58498,1.39624 -8.46035,5.30225 -12.976,7.78279z" fill="#ce59d6" stroke="#d076d6" stroke-width="3" stroke-linecap="butt"/><path d="M237.78957,115.34487l-6.24197,-19.40072l5.07404,-1.63252l6.24197,19.40072z" fill="#ffe15d" stroke="#c3ac46" stroke-width="1.5" stroke-linecap="butt"/><path d="M259.14666,114.54007l7.61062,-18.90579l4.94459,1.99047l-7.61062,18.90579z" fill="#ffe15d" stroke="#c3ac46" stroke-width="1.5" stroke-linecap="butt"/><path d="M236.10821,111.56937h33.23531v11.07278c-6.46146,-2.26945 -15.12997,-8.70887 -22.14947,-6.954c-4.76792,1.19198 -7.56106,4.2131 -11.08584,6.61491z" fill="#ffe15d" stroke="#c3ac46" stroke-width="1.5" stroke-linecap="butt"/><g fill="#ffe15d" stroke="#c3ac46" stroke-width="2.5"><path d="M224.53729,8.54567l-0.0516,-29.05858l50.59075,-1.27172l1.08576,29.74802c0,0 -21.42322,-5.13297 -29.49473,-4.93007c-8.73898,0.21967 -22.13018,5.51235 -22.13018,5.51235z" stroke-linecap="butt"/><path d="M212.67148,-19.06402l-0.46226,-12.37148c0,0 3.61561,-6.7144 30.197,-7.0946c13.21219,-0.18898 20.18488,1.78158 28.35686,2.57449c8.91827,0.86533 18.3675,-1.44519 18.3675,-1.44519l1.008,16.38947z" stroke-linecap="butt"/><path d="M224.54768,-29.44182l0.35475,9.49439" stroke-linecap="round"/><path d="M247.79412,-21.3868l-0.35476,-9.49439" stroke-linecap="round"/><path d="M274.29672,-21.47705l-0.32251,-8.63126" stroke-linecap="round"/></g><path d="M270.85,71.1625c0,5.74376 -11.55756,0 -19.4,0c-7.84244,0 -16,6.54376 -16,0.8c0,-5.74376 8.55756,-12.8 16.4,-12.8c7.84244,0 19,6.25624 19,12z" fill="#ffffff" stroke="#000000" stroke-width="2" stroke-linecap="butt"/><path d="M267.05,65.5625l-8.2,2.2l-5.8,-4l-3.6,3.4l-10,-2" fill="none" stroke="#000000" stroke-width="2" stroke-linecap="round"/><path d="M280.00717,48.35833l-14.10933,-5.40858l12.46324,-10.582" data-paper-data="{&quot;index&quot;:null}" fill="none" stroke="#000000" stroke-width="5" stroke-linecap="round"/><path d="M235.71323,128.26501c-1.39189,-0.79537 -3.30954,-1.06852 -4.38439,-2.17879c-0.16392,-0.16933 -0.30824,-0.35812 -0.42811,-0.57121c-0.16532,-0.29389 -0.29183,-0.60828 -0.38267,-0.93983c-0.1975,-0.56687 -0.30483,-1.17599 -0.30483,-1.81017c0,-0.96478 0.24841,-1.87154 0.68476,-2.65981c1.61138,-4.78353 6.33388,-10.12381 9.35557,-10.92621c2.02818,-0.53858 4.32232,-1.02557 6.20967,0.10685c0.31135,0.18681 1.42019,1.6248 1.83921,1.64583c4.34974,0.2183 10.54248,0.37834 14.49413,2.35417c1.1375,0.56875 1.79977,2.04827 2.74131,2.57567c1.63347,0.91497 4.16874,-0.33228 5.59202,1.091c3.66667,3.66667 3.66667,5.95833 0,9.625c-4.17883,4.17883 -11.96788,-2.83474 -14.8092,-3.64583c-4.12892,-1.17865 -9.11383,0.02728 -13.00472,-1.82218c-0.94275,-0.44812 -2.47189,4.2236 -2.86276,4.44695z" fill="#130500" stroke="none" stroke-width="0.5" stroke-linecap="butt"/><path d="M222.21323,261.76501c0.73379,-1.95979 1.8245,-3.6066 3.18052,-4.98843c6.83297,-6.96304 20.40243,-7.19775 28.98615,-6.8449c3.96172,0.16286 6.21848,4.77952 10.98437,5c2.97504,0.13763 12.76005,-2.87505 14.43508,-1.75836c4.31455,2.87637 4.76399,5.12353 1.88762,9.43809c-0.70228,1.05341 -3.20116,1.33667 -4.38453,1.53937c-4.6376,0.79439 -7.76699,1.81517 -12.61508,1.81517c-4.46206,0 -11.28102,-4.95508 -13.25638,-5.03427c-7.85558,-0.3149 -10.52965,0.11325 -16.74675,2.97384c-1.549,0.71272 -5.99741,5.13837 -8.11988,3.23932z" fill="#130500" stroke="none" stroke-width="0.5" stroke-linecap="butt"/><path d="M179.02068,89.23074c2.01386,0.11188 3.06361,2.51417 4.54933,3.00161c0.5719,0.18763 0.90298,-0.94732 1.50242,-1.00161c2.068,-0.1873 4.88057,1.34592 6.68344,2.42765c6.74645,4.04787 12.8427,18.3958 8.76985,25.52329c-2.74942,4.81148 -9.63475,2.25177 -13.09334,0.05086c-0.4895,-0.3115 -1.07188,-1.82786 -1.51241,-1.93588c-4.73835,-1.16189 -8.60674,0.96204 -12.76251,-2.30922c-3.70842,-2.91912 -2.35587,-9.95669 -2.27758,-13.55575c0.027,-1.24114 0.41042,-3.02698 0.66854,-4.1885c-0.00124,-0.04813 -0.00187,-0.09641 -0.00187,-0.14484c0,-1.24367 0.41278,-2.39092 1.10882,-3.31224c1.16425,-2.57633 3.0848,-4.73761 6.36531,-4.55536z" fill="#130500" stroke="none" stroke-width="0.5" stroke-linecap="butt"/><path d="M330.12115,90.81979c4.68521,4.91852 6.09323,19.53002 0.48116,23.83431c-1.87032,1.43448 -3.24701,1.59468 -5.60841,1.34775c-0.22579,-0.02361 -0.53215,-0.22643 -0.67899,-0.05328c-0.46529,0.54864 -1.36011,2.29454 -2.18502,2.62895c-1.66862,0.67644 -10.23141,1.90282 -11.87634,1.44018c-2.09689,-0.58975 -3.33364,-4.06801 -3.37366,-6.25268c-0.13685,-7.47063 -1.0689,-11.67363 5.11423,-16.19856c1.40354,-1.02714 2.00968,-7.03557 5.34037,-6.1272c0.4406,-0.11373 0.9026,-0.17424 1.37873,-0.17424c0.17065,0 0.33949,0.00777 0.50618,0.02298c3.20988,-0.0731 7.56352,-3.97267 10.90175,-0.46821z" fill="#130500" stroke="none" stroke-width="0.5" stroke-linecap="butt"/><path d="M314.19239,26.81137c2.02692,5.42129 3.814,14.48448 -6.55376,11.02856c-2.22796,-0.74265 -3.24972,-5.47546 -4.18267,-7.30759c-0.34966,-0.68667 -1.70102,-1.28949 -2.26375,-1.74575c-0.46783,-0.37931 -2.8526,-2.21284 -4.71141,-4.34615c-0.24491,-0.24617 -0.46666,-0.51539 -0.66172,-0.80414c-1.68302,-2.17943 -2.54545,-4.51421 -0.17918,-5.86636c0.95673,-1.62108 2.72136,-2.70856 4.73999,-2.70856c2.05227,0 3.842,1.12404 4.78715,2.79006c3.82784,2.3708 7.65597,5.29731 9.02535,8.95994z" fill="#130500" stroke="none" stroke-width="0.5" stroke-linecap="butt"/><path d="M196.768,47.82011c0.43568,-0.37344 0.85536,-0.71274 1.26108,-1.01509c1.0037,-1.07302 2.43227,-1.74365 4.01747,-1.74365c3.03757,0 5.5,2.46243 5.5,5.5c0.00616,0.01231 0.00568,0.04385 -0.00076,0.09265c-0.01552,0.93945 -0.26658,1.82159 -0.69668,2.58995c-0.63718,2.16652 -1.49143,4.92626 -1.5848,5.38998c-0.18273,0.90759 -0.25339,1.88894 -0.73859,2.67741c-0.50955,0.82805 -1.21808,1.58057 -2.0625,2.0625c-3.58892,2.04828 -8.58051,-0.7915 -8.91667,-4.8125c-0.04874,-0.583 1.30699,-4.75662 1.55919,-5.57011c0.27495,-0.88687 0.94712,-4.55255 1.6502,-4.95431z" fill="#130500" stroke="none" stroke-width="0.5" stroke-linecap="butt"/><path d="M208.87989,-32.43863c0.62139,-2.1036 2.08378,-3.85703 4.05253,-5.30754c5.88035,-4.33244 16.27813,-5.96258 22.27709,-6.14986c2.49595,-0.07792 7.65359,-0.5992 10.83766,0.45496c4.64664,1.53838 8.56091,5.10678 13.72121,4.50245c2.36267,-0.27669 5.01155,-4.22877 7.48643,-4.8475c2.58696,-0.64674 5.51221,-0.01011 8.18261,0.18083c5.87329,0.41994 17.16019,2.90654 19.86181,9.37366c1.10401,2.64278 0.92983,5.68427 -2.45967,7.37902c-4.63446,2.31723 -6.08247,-1.94057 -9.29079,-3.35983c-7.35638,-3.25424 -12.18184,-3.93603 -18.54356,1.22116c-7.77598,6.30368 -16.59538,-3.92946 -22.30241,-3.94734c-10.45911,-0.03277 -14.13409,0.61386 -23.25171,4.26283c-0.92912,0.37184 -4.51967,2.3441 -5.44925,1.72438z" fill="#130500" stroke="none" stroke-width="0.5" stroke-linecap="butt"/><path d="M199.05984,174.47454c2.15286,5.52107 -5.50227,13.71716 -8.69625,17.8086c-1.27951,1.63903 -3.81223,4.65678 -5.91575,4.4884c-14.93434,-1.19547 -1.8839,-12.27158 1.53159,-16.35949c1.12192,-1.34279 2.03507,-6.66251 3.62572,-7.29878c0.63736,-0.8045 1.50697,-1.44005 2.55208,-1.79221c2.55966,-0.86251 5.3101,0.26534 6.57007,2.54977c0.13334,0.18001 0.24537,0.38014 0.33255,0.60371z" fill="#130500" stroke="none" stroke-width="0.5" stroke-linecap="butt"/><path d="M214.23122,166.43312c4.19386,3.77881 5.622,22.27041 -1.84253,24.13625c-1.27863,0.31961 -1.22052,-0.32299 -1.78267,-0.47994c-1.18683,-0.33135 -2.59444,-0.20768 -3.56956,-0.96101c-3.35425,-2.59134 0.51528,-10.1127 -0.38811,-12.90383c-0.04573,-0.14128 -0.98416,-2.42589 -1.4405,-4.33431c-0.01093,-0.04422 -0.02129,-0.08846 -0.03109,-0.13272c-0.59912,-2.70788 0.92794,-5.48802 3.61577,-6.39372c1.69615,-0.57154 3.47608,-0.26911 4.85059,0.66469c0.20941,0.10812 0.40646,0.24094 0.58809,0.4046z" fill="#130500" stroke="none" stroke-width="0.5" stroke-linecap="butt"/><path d="M224.52573,340.18333c0.38875,0.6911 0.54207,1.24138 0.59692,1.7506c0.05949,0.32409 0.09058,0.65812 0.09058,0.9994c0,0.31669 -0.02677,0.62712 -0.07816,0.92917c0.01003,0.23407 0.03282,0.4827 0.07816,0.75304c0.1573,0.93806 7.19866,-0.39217 9.25,0.83863c1.53558,0.92135 4.84503,3.46797 6.6373,2.80299c3.61458,-1.34108 -3.74942,-12.49049 5.94603,-12.49049c1.8476,0 3.50605,1.44355 4.8125,2.75c0.66813,0.66813 0.6027,1.80893 0.6875,2.75c0.22231,2.46715 1.8058,10.02011 0.77856,12.07459c-0.67149,1.34299 -3.26012,2.4573 -4.43931,3.18607c-6.29407,3.88995 -9.18175,2.65742 -15.71145,0.69055c-0.93948,-0.28299 -2.56154,-1.38541 -3.45973,-1.45122c-5.02754,-0.36838 -8.86134,0.0566 -12.89049,-3.27758c-2.54932,-2.1096 -4.72185,-10.70665 -1.8509,-12.34719c0.95673,-1.62108 2.72136,-2.70856 4.73999,-2.70856c1.78986,0 3.38003,0.85497 4.38439,2.17879c0.16392,0.16933 0.30824,0.35812 0.42811,0.57121z" fill="#130500" stroke="none" stroke-width="0.5" stroke-linecap="butt"/><path d="M244.80506,299.69581c0.64933,5.45855 -0.23607,20.98912 -10.23767,10.98753c-2.34007,-2.34007 -0.43152,-8.09228 -0.92897,-11.07693c-0.06033,-0.32628 -0.09187,-0.66266 -0.09187,-1.0064c0,-1.67703 0.75058,-3.17876 1.93413,-4.18757c1.00894,-0.9935 2.27205,-1.40811 3.54186,-1.31238c0.008,-0.00003 0.016,-0.00005 0.02401,-0.00005c2.94146,0 5.34361,2.30908 5.49267,5.21348c0.11826,0.43664 0.2082,0.89778 0.26583,1.38233z" fill="#130500" stroke="none" stroke-width="0.5" stroke-linecap="butt"/></g></g></svg>