<svg version="1.1" xmlns="http://www.w3.org/2000/svg" xmlns:xlink="http://www.w3.org/1999/xlink" width="487.32972" height="214.60417" viewBox="0,0,487.32972,214.60417"><g transform="translate(1.69665,-133.75)"><g data-paper-data="{&quot;isPaintingLayer&quot;:true}" fill-rule="nonzero" stroke-linejoin="miter" stroke-miterlimit="10" stroke-dasharray="" stroke-dashoffset="0" style="mix-blend-mode: normal"><g data-paper-data="{&quot;index&quot;:null}" stroke-linecap="butt"><path d="M444.22259,189.06842l-153.89876,-2.12909l-1.27048,-13.6449l153.89876,2.1291z" data-paper-data="{&quot;index&quot;:null}" fill="#ce0000" stroke="#950000" stroke-width="3.5"/><g data-paper-data="{&quot;index&quot;:null}" fill="#820000" stroke="none" stroke-width="0"><path d="M411.09948,181.26467c1.5468,0.00856 2.86005,0.96354 2.93321,2.13301c0.07317,1.16948 -1.12145,2.11058 -2.66825,2.10203c-1.5468,-0.00856 -2.86005,-0.96353 -2.93322,-2.133c-0.07316,-1.16948 1.12146,-2.11059 2.66825,-2.10204z"/><path d="M415.67348,178.76112c1.17343,0.00649 2.16969,0.73096 2.22519,1.61814c0.0555,0.88718 -0.85076,1.60113 -2.0242,1.59464c-1.17343,-0.00649 -2.16969,-0.73095 -2.22519,-1.61814c-0.0555,-0.88718 0.85076,-1.60114 2.0242,-1.59465z"/><path d="M408.11845,178.51685c0.74157,0.0041 1.37527,0.52731 1.41539,1.16864c0.04013,0.64132 -0.52852,1.1579 -1.27008,1.1538c-0.74157,-0.0041 -1.37526,-0.52733 -1.41539,-1.16865c-0.04012,-0.64132 0.52851,-1.15789 1.27008,-1.15379z"/></g><g data-paper-data="{&quot;index&quot;:null}" fill="#820000" stroke="none" stroke-width="0"><path d="M325.43222,181.89217c1.44228,0.00414 2.66409,0.95526 2.72898,2.12439c0.06489,1.16913 -1.05171,2.11353 -2.49399,2.10939c-1.44229,-0.00414 -2.6641,-0.95527 -2.72899,-2.12439c-0.06489,-1.16913 1.05171,-2.11353 2.494,-2.10939z"/><path d="M329.70438,179.37588c1.09414,0.00314 2.02104,0.72469 2.07026,1.61161c0.04923,0.88692 -0.79785,1.60337 -1.892,1.60022c-1.09415,-0.00314 -2.02104,-0.72469 -2.07027,-1.61161c-0.04922,-0.88692 0.79786,-1.60337 1.892,-1.60022z"/><path d="M322.66041,179.15317c0.69146,0.00198 1.28086,0.52334 1.31644,1.16447c0.03558,0.64113 -0.49611,1.15926 -1.18758,1.15728c-0.69146,-0.00198 -1.28085,-0.52334 -1.31644,-1.16447c-0.03559,-0.64113 0.49611,-1.15927 1.18757,-1.15728z"/></g><path d="M438.52599,181.38762c0.17361,-12.72634 11.06317,-23.25673 24.32253,-23.52029c9.18411,-0.18256 17.09624,4.60845 21.03455,11.79981c1.74754,3.191 -19.81074,1.98613 -19.8641,5.89755c-0.01712,1.25523 -17.24518,7.44326 -13.62386,9.47781c6.24907,3.51089 34.75353,3.1558 33.84599,5.02162c-3.89862,8.01528 -12.32649,13.69665 -22.02126,13.88935c-13.25936,0.26356 -23.86744,-9.83952 -23.69384,-22.56586z" fill="#ce0000" stroke="#950000" stroke-width="3.5"/></g><g stroke-linecap="butt"><path d="M41.36353,175.42351l153.89876,-2.1291l-1.27047,13.6449l-153.89876,2.1291z" data-paper-data="{&quot;index&quot;:null}" fill="#ce0000" stroke="#950000" stroke-width="3.5"/><g data-paper-data="{&quot;index&quot;:null}" fill="#820000" stroke="none" stroke-width="0"><path d="M75.88443,183.3667c-0.07317,1.16947 -1.38641,2.12445 -2.93321,2.13301c-1.5468,0.00855 -2.74142,-0.93256 -2.66825,-2.10203c0.07317,-1.16947 1.38641,-2.12446 2.93321,-2.13301c1.5468,-0.00855 2.74142,0.93256 2.66825,2.10204z"/><path d="M70.66636,180.35577c-0.05551,0.88719 -1.05176,1.61165 -2.2252,1.61814c-1.17343,0.00649 -2.0797,-0.70746 -2.02419,-1.59464c0.05551,-0.88719 1.05176,-1.61166 2.2252,-1.61815c1.17343,-0.00649 2.0797,0.70746 2.02419,1.59465z"/><path d="M77.46728,179.67064c-0.04012,0.64132 -0.67381,1.16455 -1.41538,1.16865c-0.74157,0.0041 -1.31021,-0.51247 -1.27008,-1.1538c0.04012,-0.64132 0.67382,-1.16454 1.41539,-1.16864c0.74157,-0.0041 1.3102,0.51247 1.27008,1.15379z"/></g><g data-paper-data="{&quot;index&quot;:null}" fill="#820000" stroke="none" stroke-width="0"><path d="M161.37743,184.00155c-0.06489,1.16912 -1.2867,2.12025 -2.72899,2.12439c-1.44228,0.00414 -2.55889,-0.94026 -2.494,-2.10939c0.06489,-1.16912 1.2867,-2.12025 2.72899,-2.12439c1.44228,-0.00414 2.55889,0.94026 2.494,2.10938z"/><path d="M156.50327,180.9761c-0.04923,0.88692 -0.97612,1.60846 -2.07027,1.61161c-1.09415,0.00314 -1.94123,-0.7133 -1.892,-1.60023c0.04923,-0.88692 0.97612,-1.60846 2.07027,-1.61161c1.09415,-0.00314 1.94123,0.7133 1.892,1.60023z"/><path d="M162.84281,180.31045c-0.03559,0.64114 -0.62497,1.16249 -1.31644,1.16447c-0.69146,0.00199 -1.22316,-0.51614 -1.18758,-1.15728c0.03559,-0.64114 0.62498,-1.16249 1.31644,-1.16447c0.69146,-0.00199 1.22316,0.51614 1.18757,1.15728z"/></g><path d="M22.09582,203.95348c-9.69477,-0.19271 -18.12265,-5.87408 -22.02127,-13.88935c-0.90753,-1.86582 27.59693,-1.51073 33.846,-5.02162c3.62132,-2.03455 -13.60674,-8.22258 -13.62386,-9.47781c-0.05336,-3.91142 -21.61164,-2.70655 -19.8641,-5.89756c3.93831,-7.19136 11.85044,-11.98237 21.03455,-11.79981c13.25935,0.26356 24.14892,10.79395 24.32252,23.52029c0.17361,12.72634 -10.43449,22.82942 -23.69384,22.56586z" fill="#ce0000" stroke="#950000" stroke-width="3.5"/></g><path d="M252.16667,313.60417v-115.33333h16.33333v115.33333z" data-paper-data="{&quot;index&quot;:null}" fill="#ce0000" stroke="#950000" stroke-width="3.5" stroke-linecap="butt"/><g data-paper-data="{&quot;index&quot;:null}" fill="#820000" stroke="none" stroke-width="0" stroke-linecap="butt"><path d="M262.17032,278.58078c1.4017,0 2.53801,1.21485 2.53801,2.71345c0,1.4986 -1.1363,2.71345 -2.53801,2.71345c-1.4017,0 -2.53802,-1.21485 -2.53802,-2.71345c0,-1.4986 1.13631,-2.71345 2.53802,-2.71345z"/><path d="M258.52564,283.82054c1.06336,0 1.92539,0.92162 1.92539,2.05848c0,1.13687 -0.86203,2.05848 -1.92539,2.05848c-1.06336,0 -1.92539,-0.92161 -1.92539,-2.05848c0,-1.13687 0.86203,-2.05848 1.92539,-2.05848z"/><path d="M257.74926,277.27083c0.76867,0 1.39182,0.58243 1.39182,1.30089c0,0.71846 -0.62314,1.30089 -1.39182,1.30089c-0.76867,0 -1.39181,-0.58243 -1.39181,-1.30089c0,-0.71846 0.62313,-1.30089 1.39181,-1.30089z"/></g><g data-paper-data="{&quot;index&quot;:null}" fill="#820000" stroke="none" stroke-width="0" stroke-linecap="butt"><path d="M264.79532,217.58078c1.4017,0 2.53801,1.21486 2.53801,2.71345c0,1.49859 -1.13631,2.71345 -2.53801,2.71345c-1.4017,0 -2.53801,-1.21485 -2.53801,-2.71345c0,-1.49859 1.13631,-2.71345 2.53801,-2.71345z"/><path d="M261.15063,222.82054c1.06336,0 1.92539,0.92162 1.92539,2.05848c0,1.13687 -0.86203,2.05848 -1.92539,2.05848c-1.06336,0 -1.92539,-0.92162 -1.92539,-2.05848c0,-1.13687 0.86203,-2.05848 1.92539,-2.05848z"/><path d="M260.37426,216.27084c0.76868,0 1.39182,0.58243 1.39182,1.30088c0,0.71846 -0.62313,1.30089 -1.39182,1.30089c-0.76868,0 -1.39182,-0.58243 -1.39182,-1.30089c0,-0.71846 0.62313,-1.30088 1.39182,-1.30088z"/></g><path d="M249.83333,333.9375v-26.33333h20.33334v26.33333z" data-paper-data="{&quot;index&quot;:null}" fill="#d3d3d3" stroke="#a0a0a0" stroke-width="3.5" stroke-linecap="butt"/><path d="M265.5,324.27084v-15.66667" data-paper-data="{&quot;index&quot;:null}" fill="none" stroke="#a0a0a0" stroke-width="3.5" stroke-linecap="round"/><path d="M259.83333,308.27084v10.33333" data-paper-data="{&quot;index&quot;:null}" fill="none" stroke="#a0a0a0" stroke-width="3.5" stroke-linecap="round"/><path d="M254.16667,322.60417l-0.33334,-14" data-paper-data="{&quot;index&quot;:null}" fill="none" stroke="#a0a0a0" stroke-width="3.5" stroke-linecap="round"/><path d="M248.83333,346.60417v-16.33333h30.33334v16.33333z" data-paper-data="{&quot;index&quot;:null}" fill="#393939" stroke="#2b2b2b" stroke-width="3.5" stroke-linecap="butt"/><path d="M212.83334,313.60417v-115.33333h16.33333v115.33333z" fill="#ce0000" stroke="#950000" stroke-width="3.5" stroke-linecap="butt"/><g fill="#820000" stroke="none" stroke-width="0" stroke-linecap="butt"><path d="M221.70103,281.29423c0,1.4986 -1.13631,2.71345 -2.53801,2.71345c-1.4017,0 -2.53801,-1.21485 -2.53801,-2.71345c0,-1.4986 1.13631,-2.71345 2.53801,-2.71345c1.4017,0 2.53801,1.21485 2.53801,2.71345z"/><path d="M224.73309,285.87902c0,1.13687 -0.86203,2.05848 -1.92539,2.05848c-1.06336,0 -1.92539,-0.92161 -1.92539,-2.05848c0,-1.13687 0.86203,-2.05848 1.92539,-2.05848c1.06336,0 1.92539,0.92162 1.92539,2.05848z"/><path d="M224.97588,278.57172c0,0.71846 -0.62313,1.30089 -1.39181,1.30089c-0.76868,0 -1.39182,-0.58243 -1.39182,-1.30089c0,-0.71846 0.62314,-1.30089 1.39182,-1.30089c0.76868,0 1.39181,0.58243 1.39181,1.30089z"/></g><g fill="#820000" stroke="none" stroke-width="0" stroke-linecap="butt"><path d="M219.07603,220.29423c0,1.49859 -1.1363,2.71345 -2.53801,2.71345c-1.4017,0 -2.53802,-1.21485 -2.53802,-2.71345c0,-1.49859 1.13631,-2.71345 2.53802,-2.71345c1.4017,0 2.53801,1.21486 2.53801,2.71345z"/><path d="M222.10809,224.87902c0,1.13687 -0.86203,2.05848 -1.92539,2.05848c-1.06336,0 -1.92539,-0.92162 -1.92539,-2.05848c0,-1.13687 0.86203,-2.05848 1.92539,-2.05848c1.06336,0 1.92539,0.92162 1.92539,2.05848z"/><path d="M222.35088,217.57172c0,0.71846 -0.62313,1.30089 -1.39181,1.30089c-0.76868,0 -1.39182,-0.58243 -1.39182,-1.30089c0,-0.71846 0.62314,-1.30088 1.39182,-1.30088c0.76868,0 1.39181,0.58243 1.39181,1.30088z"/></g><path d="M294,173.5c0,20.71068 -28.6619,39 -56,39c-27.3381,0 -52,-17.78932 -52,-38.5c0,-20.71068 25.6619,-38.5 53,-38.5c27.3381,0 55,17.28932 55,38z" fill="#ce0000" stroke="#950000" stroke-width="3.5" stroke-linecap="butt"/><path d="M211.16667,333.9375v-26.33333h20.33334v26.33333z" fill="#d3d3d3" stroke="#a0a0a0" stroke-width="3.5" stroke-linecap="butt"/><path d="M215.83334,308.60417v15.66667" fill="none" stroke="#a0a0a0" stroke-width="3.5" stroke-linecap="round"/><path d="M221.5,308.27083v10.33333" fill="none" stroke="#a0a0a0" stroke-width="3.5" stroke-linecap="round"/><path d="M227.5,308.60417l-0.33334,14" fill="none" stroke="#a0a0a0" stroke-width="3.5" stroke-linecap="round"/><path d="M202.16667,346.60417v-16.33333h30.33334v16.33333z" fill="#393939" stroke="#2b2b2b" stroke-width="3.5" stroke-linecap="butt"/><g data-paper-data="{&quot;index&quot;:null}" fill="#820000" stroke="none" stroke-width="0" stroke-linecap="butt"><path d="M210.60371,189.86062c0,1.83371 -1.40367,3.32024 -3.13519,3.32024c-1.73151,0 -3.13519,-1.48652 -3.13519,-3.32024c0,-1.83371 1.40367,-3.32024 3.13519,-3.32024c1.73152,0 3.13519,1.48652 3.13519,3.32024z"/><path d="M214.3492,195.47069c0,1.3911 -1.06486,2.51881 -2.37842,2.51881c-1.31356,0 -2.37842,-1.12771 -2.37842,-2.51881c0,-1.3911 1.06486,-2.51881 2.37842,-2.51881c1.31356,0 2.37842,1.12771 2.37842,2.51881z"/><path d="M214.64912,186.52929c0,0.87912 -0.76975,1.5918 -1.7193,1.5918c-0.94955,0 -1.7193,-0.71268 -1.7193,-1.5918c0,-0.87912 0.76975,-1.59179 1.7193,-1.59179c0.94955,0 1.7193,0.71267 1.7193,1.59179z"/></g><g data-paper-data="{&quot;index&quot;:null}" fill="#820000" stroke="none" stroke-width="0" stroke-linecap="butt"><path d="M279.46853,169.20705c1.73152,0 3.13519,1.48652 3.13519,3.32024c0,1.83372 -1.40367,3.32024 -3.13519,3.32024c-1.73152,0 -3.1352,-1.48652 -3.1352,-3.32024c0,-1.83372 1.40368,-3.32025 3.1352,-3.32025z"/><path d="M286.3492,178.13736c0,1.39109 -1.06486,2.5188 -2.37842,2.5188c-1.31356,0 -2.37842,-1.1277 -2.37842,-2.5188c0,-1.3911 1.06486,-2.51881 2.37842,-2.51881c1.31356,0 2.37842,1.12771 2.37842,2.51881z"/><path d="M286.64912,169.19596c0,0.87912 -0.76975,1.5918 -1.7193,1.5918c-0.94954,0 -1.7193,-0.71268 -1.7193,-1.5918c0,-0.87912 0.76976,-1.59179 1.7193,-1.59179c0.94955,0 1.7193,0.71267 1.7193,1.59179z"/></g><g stroke-linecap="butt"><path d="M230.05269,163.54167c0,8.00813 -6.21265,14.5 -13.87634,14.5c-7.66369,0 -13.87634,-6.49187 -13.87634,-14.5c0,-8.00813 6.21265,-14.5 13.87634,-14.5c7.66369,0 13.87634,6.49187 13.87634,14.5z" fill="#ffffff" stroke="#000000" stroke-width="1.5"/><path d="M221.16393,163.89356c0,0 6.51523,3.87994 5.61377,5.36295c-1.5627,2.57084 -4.05793,4.47007 -7.12222,4.47007c-4.83195,0 -8.74902,-4.2223 -8.74902,-9.43077c0,-5.20847 3.91707,-9.43077 8.74902,-9.43077c3.01815,0 5.67935,1.64735 7.25198,4.1534c0.9451,1.50605 -5.74353,4.87511 -5.74353,4.87511z" fill="#000000" stroke="none" stroke-width="0"/></g><g stroke-linecap="butt"><path d="M271.45269,163.94166c0,8.00813 -6.21265,14.5 -13.87634,14.5c-7.66369,0 -13.87634,-6.49187 -13.87634,-14.5c0,-8.00813 6.21265,-14.5 13.87634,-14.5c7.6637,0 13.87634,6.49187 13.87634,14.5z" fill="#ffffff" stroke="#000000" stroke-width="1.5"/><path d="M262.56393,164.29356c0,0 6.51522,3.87995 5.61377,5.36295c-1.56271,2.57084 -4.05793,4.47007 -7.12223,4.47007c-4.83195,0 -8.74902,-4.2223 -8.74902,-9.43077c0,-5.20847 3.91707,-9.43077 8.74902,-9.43077c3.01815,0 5.67935,1.64735 7.25198,4.1534c0.9451,1.50605 -5.74353,4.87511 -5.74353,4.87511z" fill="#000000" stroke="none" stroke-width="0"/></g><path d="M244.3,183.46666c0,0 -4.77009,2.05228 -7.1938,1.98303c-2.22614,-0.0636 -6.8062,-2.38303 -6.8062,-2.38303" fill="none" stroke="#000000" stroke-width="1.5" stroke-linecap="round"/><g fill="#3c3c3c" stroke="#2c2c2c" stroke-width="3.5" stroke-linecap="butt"><path d="M247.44086,214.99383l-0.13683,-7.43934l10.15279,-7.54303l3.69869,18.91885z" data-paper-data="{&quot;index&quot;:null}"/><path d="M222.06127,218.02026l4.27027,-17.14944l9.11884,7.38792l-0.45293,6.80594z"/><path d="M247.36673,205.38938c2.62331,3.40144 1.95009,8.31821 -1.50368,10.98188c-3.45378,2.66367 -8.38024,2.06558 -11.00355,-1.33586c-2.62331,-3.40144 -1.95009,-8.31821 1.50369,-10.98188c3.45378,-2.66367 8.38023,-2.06558 11.00355,1.33586z"/></g></g></g></svg>