<svg version="1.1" xmlns="http://www.w3.org/2000/svg" xmlns:xlink="http://www.w3.org/1999/xlink" width="170.95356" height="262.32366" viewBox="0,0,170.95356,262.32366"><g transform="translate(-210.08332,-31.044)"><g data-paper-data="{&quot;isPaintingLayer&quot;:true}" fill-rule="nonzero" stroke-linejoin="miter" stroke-miterlimit="10" stroke-dasharray="" stroke-dashoffset="0" style="mix-blend-mode: normal"><path d="M214.09997,281.53797l2.42407,-118.58248l19.39255,3.49629l26.66475,-2.39021l3.30154,18.7814l7.84523,98.93382l-22.43687,-1.02405l-3.33238,-96.99941l-12.04227,1.28598v96.49867z" fill="#444444" stroke="#3c3c3c" stroke-width="3" stroke-linecap="butt"/><path d="M255.78426,131.91362l26.37242,-17.24986l9.39897,14.36959l-26.37242,17.24986z" fill="#d1ad7f" stroke="#ae916a" stroke-width="2" stroke-linecap="butt"/><path d="M240.34288,165.99978l-0.1164,-2.21149" fill="none" stroke="#292929" stroke-width="3" stroke-linecap="round"/><path d="M281.76639,88.97692c0,0 6.23424,-11.02702 7.76414,-17.50508c0.85496,-3.62015 -0.5495,-14.36978 -9.17187,-21.3668c-12.79566,-10.38364 -34.80679,-17.08638 -34.80679,-17.08638c0,0 26.64044,1.08408 35.98486,4.63499c9.15964,3.4807 19.53837,16.46403 19.53837,16.46403l46.2927,87.52777l-29.37275,17.17508l-15.52513,-29.9302l-9.44098,5.42143l-10.52244,-20.04687l9.61334,-5.32802z" fill="#737373" stroke="#585858" stroke-width="3" stroke-linecap="butt"/><path d="M304.84302,159.65918l52.17109,-27.28733l10.29477,19.68273l-52.1711,27.28734z" fill="#737373" stroke="#585858" stroke-width="3" stroke-linecap="butt"/><path d="M215.1018,160.87641c0,0 -0.85679,-9.77084 5.14399,-14.69415c11.6339,-9.54498 59.78333,-38.57519 59.78333,-38.57519l3.39022,5.42766c0,0 -2.59855,7.1793 -1.15941,9.28868c0.61555,0.9022 1.58055,4.13751 4.2827,5.52c2.89218,1.47971 7.17954,0.57211 7.17954,0.57211l3.84281,4.89415l-51.8007,41.84773z" fill="#00d12e" stroke="#00ac25" stroke-width="2" stroke-linecap="butt"/><path d="M214.908,165.98557v-6.66618h49.49141v6.66618z" fill="#00d12e" stroke="#00ac25" stroke-width="2" stroke-linecap="butt"/><path d="M305.99124,123.32344c0,0 -3.63664,-5.40963 -4.77065,-8.35058c-0.94353,-2.44697 -1.56766,-8.08721 -1.56766,-8.08721" fill="none" stroke="#000000" stroke-width="2" stroke-linecap="round"/><path d="M307.96534,121.40787l-2.81451,4.20772" fill="none" stroke="#000000" stroke-width="2" stroke-linecap="round"/><text transform="translate(262.19561,122.74533) rotate(49.7595) scale(0.22875,0.22875)" font-size="40" xml:space="preserve" fill="#000000" fill-rule="nonzero" stroke="none" stroke-width="1" stroke-linecap="butt" stroke-linejoin="miter" stroke-miterlimit="10" stroke-dasharray="" stroke-dashoffset="0" font-family="Sans Serif" font-weight="normal" text-anchor="start" style="mix-blend-mode: normal"><tspan x="0" dy="0">  I'M</tspan><tspan x="0" dy="46.15px">COOL</tspan></text><g><path d="M257.99348,156.54478c-3.98068,2.60371 -9.23613,1.61318 -11.7384,-2.2124c-2.50227,-3.82559 -1.30378,-9.03756 2.67689,-11.64127c3.98068,-2.60371 9.23614,-1.61319 11.73841,2.21241c2.50227,3.82559 1.30378,9.03755 -2.6769,11.64127z" fill="#ffea00" stroke="#dcca00" stroke-width="1.5" stroke-linecap="butt"/><path d="M246.4901,142.55885l5.22351,-3.41663l4.50599,6.88898l-5.22351,3.41663z" fill="#5a5a5a" stroke="#393939" stroke-width="1.5" stroke-linecap="butt"/><path d="M252.98978,152.72616l5.22351,-3.41663l4.50599,6.88898l-5.22351,3.41663z" fill="#5a5a5a" stroke="#393939" stroke-width="1.5" stroke-linecap="butt"/><path d="M254.58033,146.99533l1.58976,-1.03984l2.27775,3.48234l-1.58976,1.03984z" fill="#5a5a5a" stroke="#393939" stroke-width="1.5" stroke-linecap="butt"/><path d="M251.45126,154.77085c0,0 -2.06255,-1.27412 -2.65983,-2.1586c-0.54565,-0.80804 -0.78299,-2.9397 -0.78299,-2.9397" fill="none" stroke="#000000" stroke-width="1.5" stroke-linecap="round"/><path d="M252.72616,144.49112c0.51793,-0.33877 1.21242,-0.19353 1.55119,0.3244c0.33877,0.51793 0.19353,1.21241 -0.32439,1.55118c-0.51793,0.33877 -1.21242,0.19354 -1.55119,-0.32439c-0.33877,-0.51793 -0.19353,-1.21243 0.3244,-1.5512z" fill="#ffffff" stroke="none" stroke-width="0.5" stroke-linecap="butt"/><path d="M259.08759,154.38204c0.51793,-0.33877 1.21242,-0.19354 1.55119,0.32439c0.33877,0.51793 0.19353,1.21243 -0.3244,1.5512c-0.51793,0.33877 -1.21242,0.19353 -1.55119,-0.3244c-0.33877,-0.51793 -0.19353,-1.21241 0.32439,-1.55118z" fill="#ffffff" stroke="none" stroke-width="0.5" stroke-linecap="butt"/></g><path d="M376.37113,157.68446c-5.67916,4.04563 -9.94347,-3.68754 -16.31938,-12.63787c-6.37591,-8.95034 -12.44898,-15.72854 -6.76983,-19.77417c5.67916,-4.04563 15.45171,-0.06958 21.82761,8.88077c6.3759,8.95034 6.94074,19.48565 1.26159,23.53128z" fill="#6499ff" stroke="#517dd0" stroke-width="1.5" stroke-linecap="butt"/><path d="M375.77734,164.23183c-1.53024,1.22151 -9.02252,-6.42642 -16.73446,-17.08214c-7.71195,-10.65572 -12.72319,-20.28412 -11.19295,-21.50564c1.53024,-1.22151 9.02251,6.42642 16.73446,17.08214c7.71195,10.65572 12.7232,20.28413 11.19296,21.50564z" fill="#6499ff" stroke="#517dd0" stroke-width="1.5" stroke-linecap="butt"/><path d="M375.64481,135.3783c-0.94258,0.69555 -2.6196,0.02226 -3.74573,-1.50383c-1.12612,-1.52609 -1.2749,-3.32707 -0.33232,-4.02262c0.94258,-0.69555 2.61961,-0.02225 3.74572,1.50383c1.12612,1.52609 1.2749,3.32707 0.33233,4.02262z" fill="#6499ff" stroke="#517dd0" stroke-width="1.5" stroke-linecap="butt"/><text transform="translate(358.36197,129.8268) rotate(54.82852) scale(0.15771,0.15771)" font-size="40" xml:space="preserve" fill="#000000" fill-rule="nonzero" stroke="none" stroke-width="1" stroke-linecap="butt" stroke-linejoin="miter" stroke-miterlimit="10" stroke-dasharray="" stroke-dashoffset="0" font-family="Sans Serif" font-weight="normal" text-anchor="start" style="mix-blend-mode: normal"><tspan x="0" dy="0">LET'S GO!</tspan></text><path d="M240.92486,174.03099l0.23278,2.21149" fill="none" stroke="#292929" stroke-width="3" stroke-linecap="round"/><path d="M240.45928,171.35392l-0.11639,-2.21149" fill="none" stroke="#292929" stroke-width="3" stroke-linecap="round"/><path d="M219.2755,170.77195l8.96237,-0.23279" fill="none" stroke="#292929" stroke-width="3" stroke-linecap="round"/><path d="M252.02812,169.18823l8.96237,-0.23279" fill="none" stroke="#292929" stroke-width="3" stroke-linecap="round"/><g stroke-linecap="butt"><path d="M265.22961,195.5932l1.71253,-56.77423l10.07285,0.30384l-1.71253,56.77423z" fill="#d1ad7f" stroke="#ae916a" stroke-width="2"/><path d="M264.15357,140.10968l0.6399,-21.21403l10.43653,-11.75305l5.268,2.60302l-0.92992,30.82902z" fill="#00d12e" stroke="#00ac25" stroke-width="2"/><path d="M277.2826,201.15053c-0.06949,2.30374 0.3372,7.50654 -0.57468,9.22553c-0.74967,1.4132 -2.61421,-4.41091 -4.32065,-4.3153c-0.80674,0.0452 0.29425,2.96588 -0.92816,4.34767c-1.10203,1.24572 -4.54189,0.96972 -5.10117,0.95285c-4.08802,-0.12331 -4.05735,-4.75707 -3.87937,-10.6573c0.17797,-5.90024 3.63625,-10.58336 7.72426,-10.46005c4.08802,0.12331 7.25774,5.00636 7.07976,10.90659z" fill="#d1ad7f" stroke="#ae916a" stroke-width="2"/><path d="M277.47204,196.86276c-0.10551,3.498 0.01027,7.2563 0.01027,7.2563c0,0 -1.66292,-0.18786 -2.35004,0.12463c-0.63538,0.28897 -1.34814,2.53867 -1.34814,2.53867l-1.78595,0.23335c0,0 -2.33585,-4.14118 -3.74933,-4.51585c-1.8942,-0.50209 -6.34165,0.78146 -6.34165,0.78146c0,0 0.70384,-4.9762 0.76082,-6.86512c0.10551,-3.498 3.50505,-6.23373 7.59306,-6.11042c4.08802,0.12331 7.31648,3.05895 7.21096,6.55696z" fill="#333333" stroke="#282828" stroke-width="2"/><path d="M264.44108,192.4227l0.38655,-12.81491l11.5104,0.3472l-0.38655,12.81491z" fill="#333333" stroke="#282828" stroke-width="2"/><path d="M266.30618,189.72252c0.99424,-1.09155 2.77251,-3.4158 4.67684,-2.33026c1.51019,0.86085 6.2503,5.40288 3.73049,8.11438c-1.44514,1.55508 -6.65692,3.29248 -8.10016,1.57282c-1.2985,-1.54718 -3.03483,-5.68687 -0.34494,-7.28676z" fill="#333333" stroke="none" stroke-width="0.5"/></g><g data-paper-data="{&quot;index&quot;:null}" stroke-linecap="butt"><path d="M299.25481,215.60508l-5.61186,-56.52213l10.02812,-0.99565l5.61186,56.52213z" fill="#d1ad7f" stroke="#ae916a" stroke-width="2"/><path d="M291.19571,160.70688l-3.0473,-30.69213l5.07658,-2.95906l11.21989,11.00771l2.09691,21.11984z" fill="#00d12e" stroke="#00ac25" stroke-width="2"/><path d="M303.95369,209.61475c4.06987,-0.40408 7.84193,4.03019 8.42514,9.90423c0.58321,5.87404 0.93239,10.49472 -3.13748,10.8988c-0.55679,0.05528 -3.96954,0.56712 -5.1546,-0.59988c-1.31453,-1.29448 -0.41695,-4.28395 -1.22488,-4.27357c-1.70897,0.02193 -3.16868,5.96046 -4.01373,4.60215c-1.02791,-1.65223 -0.97989,-6.87067 -1.2076,-9.16419c-0.58321,-5.87404 2.24328,-10.96345 6.31315,-11.36753z" fill="#d1ad7f" stroke="#ae916a" stroke-width="2"/><path d="M303.89984,209.68047c4.06987,-0.40408 7.64944,2.09144 7.9952,5.57391c0.18671,1.88053 1.23104,6.79656 1.23104,6.79656c0,0 -4.52519,-0.97474 -6.38039,-0.34361c-1.38437,0.47095 -3.42998,4.76294 -3.42998,4.76294l-1.79776,-0.11001c0,0 -0.86575,-2.19537 -1.51949,-2.43996c-0.70697,-0.26452 -2.35304,0.03723 -2.35304,0.03723c0,0 -0.14289,-3.75737 -0.48865,-7.23983c-0.34576,-3.48247 2.67322,-6.63314 6.74309,-7.03722z" fill="#333333" stroke="#282828" stroke-width="2"/><path d="M298.39232,212.52998l-1.26669,-12.75801l11.4593,-1.13775l1.26669,12.75801z" fill="#333333" stroke="#282828" stroke-width="2"/><path d="M307.84779,208.89407c2.79351,1.41117 1.34592,5.66045 0.15686,7.29324c-1.3216,1.81481 -6.64049,0.43985 -8.18913,-1.01219c-2.70029,-2.53185 1.71634,-7.38903 3.16376,-8.35167c1.8252,-1.2139 3.75906,0.9826 4.826,2.0032z" fill="#333333" stroke="none" stroke-width="0.5"/></g><g stroke-width="2"><path d="M213.36789,289.36402l-1.16937,-4.33684c0,0 1.98494,0.74238 5.07516,1.23591c2.94669,0.4706 6.95143,0.69244 9.06831,0.73145c2.30697,0.04251 6.08185,0.04589 8.69421,-0.33289c2.6095,-0.37836 4.05772,-1.13884 4.05772,-1.13884l0.11694,3.96511c0,0 -9.72693,0.80024 -14.26362,0.71323c-4.01332,-0.07697 -11.57934,-0.83714 -11.57934,-0.83714z" fill="#cfcfcf" stroke="#b1b1b1" stroke-linecap="butt"/><path d="M238.83912,283.54026c0,3.83228 -14.50253,3.09774 -20.01143,3.09774c-5.50889,0 -7.74436,-2.61103 -7.74436,-6.44331c0,-3.83228 4.46584,-6.93895 9.97474,-6.93895c3.30039,0 11.01085,-0.16233 15.07301,2.51858c2.71824,1.79397 2.70804,6.22958 2.70804,7.76593z" fill="#323232" stroke="#292929" stroke-linecap="butt"/><path d="M223.47431,277.34477l2.72601,-4.58466c0,0 7.56232,1.09967 9.79459,2.37525c1.33981,0.7656 2.7203,4.56369 2.7203,4.56369l-2.23038,1.36301z" fill="#dfdfdf" stroke="#bcbcbc" stroke-linecap="butt"/><path d="M221.47069,277.47659l-1.06313,-6.18655l4.0791,-2.99861l1.80659,4.08008z" fill="#323232" stroke="#292929" stroke-linecap="butt"/><path d="M225.33296,276.97304l4.08902,-2.23038l1.73474,4.33684l3.34556,-3.22165l2.23038,4.83248" fill="none" stroke="#292929" stroke-linecap="round"/></g><g stroke-width="2"><path d="M251.20122,291.53069l-1.16937,-4.33684c0,0 1.98494,0.74239 5.07516,1.23591c2.94669,0.4706 6.95143,0.69244 9.0683,0.73145c2.30696,0.04251 6.08186,0.04589 8.69421,-0.33288c2.6095,-0.37835 4.05772,-1.13884 4.05772,-1.13884l0.11694,3.96511c0,0 -9.72694,0.80024 -14.26362,0.71324c-4.01332,-0.07697 -11.57934,-0.83714 -11.57934,-0.83714z" fill="#cfcfcf" stroke="#b1b1b1" stroke-linecap="butt"/><path d="M276.67245,285.70693c0,3.83227 -14.50253,3.09774 -20.01143,3.09774c-5.50889,0 -7.74436,-2.61103 -7.74436,-6.44331c0,-3.83227 4.46584,-6.93895 9.97473,-6.93895c3.3004,0 11.01085,-0.16233 15.07301,2.51858c2.71824,1.79397 2.70805,6.22959 2.70805,7.76593z" fill="#323232" stroke="#292929" stroke-linecap="butt"/><path d="M261.30764,279.51144l2.72602,-4.58466c0,0 7.56232,1.09967 9.79459,2.37525c1.33981,0.7656 2.7203,4.56369 2.7203,4.56369l-2.23038,1.363z" fill="#dfdfdf" stroke="#bcbcbc" stroke-linecap="butt"/><path d="M259.30402,279.64327l-1.06313,-6.18654l4.0791,-2.99862l1.80659,4.08008z" fill="#323232" stroke="#292929" stroke-linecap="butt"/><path d="M263.16629,279.13971l4.08902,-2.23037l1.73474,4.33684l3.34557,-3.22165l2.23037,4.83249" fill="none" stroke="#292929" stroke-linecap="round"/></g><g stroke="#585858" stroke-width="3"><path d="M314.26006,98.61616c-7.66172,4.00735 -17.20465,0.88564 -21.31475,-6.97253c-4.1101,-7.85817 -1.23095,-17.47709 6.43075,-21.48443c7.66172,-4.00735 17.20467,-0.88564 21.31477,6.97254c4.1101,7.85817 1.23095,17.47708 -6.43077,21.48443z" fill="#737373" stroke-linecap="butt"/><path d="M302.06392,71.9777l10.61535,24.07154" fill="none" stroke-linecap="round"/></g><g stroke="#585858" stroke-width="3"><path d="M337.01445,138.34478c-7.66172,4.00735 -17.20465,0.88564 -21.31475,-6.97253c-4.1101,-7.85817 -1.23095,-17.47709 6.43075,-21.48443c7.66172,-4.00735 17.20467,-0.88564 21.31477,6.97254c4.1101,7.85817 1.23095,17.47708 -6.43077,21.48443z" fill="#737373" stroke-linecap="butt"/><path d="M324.81831,111.70632l10.61535,24.07154" fill="none" stroke-linecap="round"/></g></g></g></svg>