<svg version="1.1" xmlns="http://www.w3.org/2000/svg" xmlns:xlink="http://www.w3.org/1999/xlink" width="283.3502" height="313.52761" viewBox="0,0,283.3502,313.52761"><g transform="translate(-70.63411,-3.88489)"><g data-paper-data="{&quot;isPaintingLayer&quot;:true}" fill-rule="nonzero" stroke-linejoin="miter" stroke-miterlimit="10" stroke-dasharray="" stroke-dashoffset="0" style="mix-blend-mode: normal"><path d="M73.88411,98.93564v-91.80075h92.74714v91.80075l0.07361,20.10873l-24.77163,-20.10873z" fill="#2e2e2e" stroke="#161616" stroke-width="6.5" stroke-linecap="butt"/><text transform="translate(79.38209,21.75568) scale(0.26236,0.26236)" font-size="40" xml:space="preserve" fill="#ffffff" fill-rule="nonzero" stroke="none" stroke-width="1" stroke-linecap="butt" stroke-linejoin="miter" stroke-miterlimit="10" stroke-dasharray="" stroke-dashoffset="0" font-family="Sans Serif" font-weight="normal" text-anchor="start" style="mix-blend-mode: normal"><tspan x="0" dy="0">I CNA'T WAIT </tspan><tspan x="0" dy="48px">TO GO HOME</tspan><tspan x="0" dy="48px">AND BAKE WHIT</tspan><tspan x="0" dy="48px">GEGE!!!</tspan></text><path d="M258.9,300.5625v-54.4h15.4v54.4z" fill="#ffed9e" stroke="#ffe571" stroke-width="2.5" stroke-linecap="butt"/><path d="M223.9,298.1625v-54.4h15.4v54.4z" fill="#ffed9e" stroke="#ffe571" stroke-width="2.5" stroke-linecap="butt"/><path d="M293.67322,256.06403c-4.03694,-8.67751 -2.6781,-17.86664 3.03505,-20.5245c5.71314,-2.65786 13.61714,2.22203 17.65408,10.89954c4.03694,8.67751 11.30493,14.48519 -2.19068,21.3188c-5.7711,2.92223 -6.19969,-1.69424 -9.27827,-3.47291c-1.95014,-1.12672 1.92235,8.08164 0.09589,6.48663c-6.28403,-2.14638 -8.44052,-12.82555 -9.31607,-14.70756z" data-paper-data="{&quot;index&quot;:null}" fill="#ffe15d" stroke="#c3ac46" stroke-width="2.5" stroke-linecap="butt"/><g stroke-linecap="butt"><path d="M171.32885,175.42974c-3.02707,-0.38941 -4.88323,-5.35187 -4.14584,-11.08397c0.73739,-5.7321 9.73994,-10.24606 12.767,-9.85666c0.80143,0.1031 7.04623,6.32029 9.60807,10.6971c3.02903,5.17498 0.73985,11.29191 -4.38669,12.2633c-5.12654,0.97138 -6.71507,-14.11373 -7.0264,-11.69357c-0.73738,5.7321 -3.78908,10.06321 -6.81614,9.67381z" fill="#f99cff" stroke="#ce59d6" stroke-width="1.5"/><path d="M178.77631,159.9457c0,0 -7.40962,-32.08252 5.46543,-55.68263c12.87504,-23.60011 29.88274,-37.54005 37.2934,-33.49716c5.19587,2.83461 17.10671,29.03711 11.83153,44.0092c-2.2486,6.38199 -25.61433,0.25441 -30.58394,6.56771c-17.45419,22.17344 -24.00641,38.60289 -24.00641,38.60289z" fill="#f99cff" stroke="#ce59d6" stroke-width="3"/><path d="M201.18876,104.13294l-2.2524,4.12867l-11.35385,-6.19409l2.2524,-4.12867z" fill="#ffffff" stroke="#af4c00" stroke-width="0"/><path d="M196.38371,111.95861l-2.2524,4.12867l-11.35385,-6.19409l2.2524,-4.12867z" fill="#ffffff" stroke="#af4c00" stroke-width="0"/><path d="M193.75853,118.80576l-1.59374,4.42485l-12.16833,-4.38277l1.59373,-4.42484z" fill="#ffffff" stroke="#af4c00" stroke-width="0"/><path d="M191.93806,125.86382l-0.65572,4.65718l-12.80723,-1.80324l0.65572,-4.65717z" fill="#ffffff" stroke="#af4c00" stroke-width="0"/></g><g stroke-linecap="butt"><path d="M315.49224,166.82539c-0.31133,-2.42015 -1.89986,12.66495 -7.0264,11.69357c-5.12655,-0.97138 -7.41571,-7.08832 -4.38669,-12.26329c2.56184,-4.37681 8.80664,-10.594 9.60807,-10.6971c3.02706,-0.38941 12.02961,4.12455 12.767,9.85665c0.73739,5.7321 -1.11877,10.69457 -4.14584,11.08398c-3.02706,0.38941 -6.07876,-3.9417 -6.81615,-9.67381z" fill="#f99cff" stroke="#cf5ad5" stroke-width="1.5"/><path d="M290.8545,122.41227c-4.96962,-6.31329 -28.33534,-0.18571 -30.58394,-6.56771c-5.27518,-14.97209 6.63567,-41.17459 11.83154,-44.0092c7.41066,-4.04288 24.41835,9.89706 37.29339,33.49717c12.87505,23.60011 5.46543,55.68263 5.46543,55.68263c0,0 -6.55223,-16.42944 -24.00642,-38.60288z" fill="#f99cff" stroke="#ce59d6" stroke-width="3"/><path d="M303.80232,99.00831l2.25241,4.12868l-11.35385,6.19409l-2.25241,-4.12867z" fill="#ffffff" stroke="#af4c00" stroke-width="0"/><path d="M308.60737,106.83398l2.2524,4.12867l-11.35385,6.1941l-2.25241,-4.12867z" fill="#ffffff" stroke="#af4c00" stroke-width="0"/><path d="M312.04703,115.49247l1.59373,4.42484l-12.16833,4.38277l-1.59373,-4.42485z" fill="#ffffff" stroke="#af4c00" stroke-width="0"/><path d="M314.5064,125.13006l0.65572,4.65717l-12.80723,1.80324l-0.65572,-4.65718z" fill="#ffffff" stroke="#af4c00" stroke-width="0"/></g><path d="M351.96856,178.01561c2.36479,1.92938 1.32007,7.12361 -2.33345,11.60162c-3.65352,4.47801 -13.68209,3.55645 -16.04689,1.62707c-0.62609,-0.51081 -2.64534,-9.08832 -2.50917,-14.15793c0.161,-5.99411 5.33547,-9.97935 10.20174,-8.09667c4.86626,1.88268 -1.7519,15.53127 -0.20935,13.6406c3.65352,-4.47801 8.53232,-6.54408 10.89712,-4.61469z" fill="#f99cff" stroke="#ce59d6" stroke-width="1.5" stroke-linecap="butt"/><path d="M337.46672,187.23067c0,0 -10.65218,31.15641 -34.0493,44.39675c-23.39711,13.24035 -45.20157,16.09507 -49.35916,8.74816c-2.91503,-5.15118 0.80942,-33.69181 13.19625,-43.61942c5.28001,-4.23174 21.88494,13.31194 29.43923,10.57563c26.53205,-9.61044 40.77298,-20.10112 40.77298,-20.10112z" fill="#f99cff" stroke="#ce59d6" stroke-width="3" stroke-linecap="butt"/><path d="M288.95803,222.7875l4.09316,-2.3163l6.36984,11.2562l-4.09316,2.3163z" fill="#f99cff" stroke="#ce59d6" stroke-width="0" stroke-linecap="butt"/><path d="M297.17132,218.68002l4.09316,-2.3163l6.36984,11.2562l-4.09317,2.3163z" fill="#ffffff" stroke="#ce59d6" stroke-width="0" stroke-linecap="butt"/><path d="M303.01678,214.25219l3.69027,-2.91567l8.0181,10.14825l-3.69027,2.91567z" fill="#ffffff" stroke="#ce59d6" stroke-width="0" stroke-linecap="butt"/><path d="M308.29031,209.22026l3.01646,-3.60836l9.92298,8.29526l-3.01646,3.60836z" fill="#ffffff" stroke="#ce59d6" stroke-width="0" stroke-linecap="butt"/><path d="M202.53494,244.48024l17.42473,-87.27581l12.01638,2.44651l-17.42473,87.27581z" fill="#fbc7ff" stroke="#000000" stroke-width="3" stroke-linecap="butt"/><path d="M242.15307,162.57261v-13.35683h7.90123v13.35683z" fill="#fbc7ff" stroke="#000000" stroke-width="3" stroke-linecap="butt"/><path d="M287.1148,107.29931c0,10.05157 0.44481,17.90029 -5.13247,25.28671c-1.57852,2.09055 -7.10053,5.44199 -9.01707,7.20792c-4.07737,3.75696 -4.63262,10.48628 -9.90035,12.42693c-4.53246,1.66978 -13.65284,-1.18263 -18.74841,-1.18263c-5.39013,0 -11.01784,1.33322 -15.76835,-0.52545c-4.39372,-1.71908 -7.96907,-6.50857 -11.52888,-9.52455c-5.83481,-4.94343 -12.24561,-6.7367 -14.86315,-14.16595c-1.63055,-4.62792 -0.63792,-14.32095 -0.63792,-19.52297c0,-4.85677 -1.10667,-15.69593 0.32311,-20.13161c2.81964,-8.74747 10.06869,-10.2552 17.06924,-15.54091c4.21992,-3.18622 8.56281,-9.66575 13.76877,-10.96512c3.56,-0.88854 7.77397,2.89871 11.63718,2.89871c6.54691,0 16.51296,-1.78985 22.06112,0.89587c5.50529,2.66497 6.60278,9.7873 10.51256,14.47105c3.02695,3.62615 7.83591,6.82332 9.5823,11.32815c1.93206,4.98377 0.64232,11.3574 0.64232,17.04386z" fill="#fbc7ff" stroke="#000000" stroke-width="3" stroke-linecap="butt"/><g stroke="#000000" stroke-linecap="butt"><path d="M276.25062,103.98154c0,10.27017 -4.9167,18.59578 -10.98176,18.59578c-6.06506,0 -10.98176,-8.32562 -10.98176,-18.59578c0,-10.27017 4.9167,-18.59578 10.98176,-18.59578c6.06506,0 10.98176,8.32562 10.98176,18.59578z" fill="#ffffff" stroke-width="1.5"/><path d="M275.95777,101.35346c0,6.71616 -3.41521,12.16069 -7.62807,12.16069c-2.94399,0 -5.49845,-2.65875 -6.77015,-6.55223c-0.54811,-1.67812 4.44856,-5.82956 4.44856,-5.82956c0,0 -4.82165,-4.65941 -3.99199,-6.60567c1.37231,-3.21924 3.68803,-5.33392 6.31358,-5.33392c4.21287,0 7.62807,5.44453 7.62807,12.16069z" fill="#000000" stroke-width="0"/></g><path d="M217.74393,95.96775l12.46324,10.582l-14.10933,5.40858" fill="none" stroke="#000000" stroke-width="5" stroke-linecap="round"/><path d="M222.68219,87.99934l1.1489,-2.04249l0.76594,1.91484z" fill="none" stroke="#000000" stroke-width="1.5" stroke-linecap="round"/><path d="M267.01572,126.11343l-2.01562,-2.95624" fill="none" stroke="#000000" stroke-width="1" stroke-linecap="round"/><path d="M270.18694,123.85594l-1.61249,-2.14999" fill="none" stroke="#000000" stroke-width="1" stroke-linecap="round"/><path d="M264.20394,83.17082l1.22953,-2.18583l0.81969,2.04921z" fill="none" stroke="#000000" stroke-width="1.5" stroke-linecap="round"/><path d="M228.41999,195.87063l-0.7525,-38.75363h36.11989v29.34741l15.22095,59.77173l-61.09149,-1.45895z" fill="#ce59d6" stroke="#d076d6" stroke-width="3" stroke-linecap="butt"/><path d="M231.78957,177.34487l-6.24197,-19.40072l5.07404,-1.63252l6.24197,19.40072z" fill="#ffe15d" stroke="#c3ac46" stroke-width="1.5" stroke-linecap="butt"/><path d="M253.14666,176.54007l7.61062,-18.90579l4.94459,1.99047l-7.61062,18.90579z" fill="#ffe15d" stroke="#c3ac46" stroke-width="1.5" stroke-linecap="butt"/><path d="M230.10821,270.45344v-96.88407h33.23531v96.88407z" fill="#ffe15d" stroke="#c3ac46" stroke-width="1.5" stroke-linecap="butt"/><path d="M221.32907,202.82153v-11.91455h9.71976v11.91455z" fill="#ffe15d" stroke="#c3ac46" stroke-width="1.5" stroke-linecap="butt"/><path d="M263.02997,202.19444v-11.91454h9.71976v11.91454z" fill="#ffe15d" stroke="#c3ac46" stroke-width="1.5" stroke-linecap="butt"/><path d="M292.31,241.7443l-34.66238,-83.38749l11.27641,-4.90216l34.66239,83.38748z" data-paper-data="{&quot;index&quot;:null}" fill="#fab4ff" stroke="#000000" stroke-width="3" stroke-linecap="butt"/><g fill="#ffe15d" stroke="#c3ac46" stroke-width="2.5"><path d="M218.53729,70.54567l-0.0516,-29.05858l50.59075,-1.27172l1.08576,29.74802c0,0 -21.42322,-5.13297 -29.49473,-4.93007c-8.73898,0.21967 -22.13018,5.51235 -22.13018,5.51235z" stroke-linecap="butt"/><path d="M206.67148,42.93598l-0.46226,-12.37148c0,0 3.61561,-6.7144 30.197,-7.0946c13.21219,-0.18898 20.18488,1.78158 28.35686,2.57449c8.91827,0.86533 18.3675,-1.44519 18.3675,-1.44519l1.008,16.38947z" stroke-linecap="butt"/><path d="M218.54768,32.55818l0.35475,9.49439" stroke-linecap="round"/><path d="M241.43936,31.11881l0.35476,9.49439" stroke-linecap="round"/><path d="M267.97421,31.89169l0.32251,8.63126" stroke-linecap="round"/></g><path d="M218.75406,251.48449c0,2.07571 2.54928,12.66798 -2.243,17.26472c-0.98324,2.21659 -1.35625,-7.76594 -2.64916,-5.92178c-2.04105,2.91127 -0.48239,7.27774 -6.94758,7.06248c-15.11874,-0.5034 -10.97867,-8.83483 -10.97867,-18.40541c0,-9.57058 5.10807,-17.32907 11.4092,-17.32907c6.30113,0 11.40921,7.75849 11.40921,17.32907z" fill="#ffe15d" stroke="#c3ac46" stroke-width="2.5" stroke-linecap="butt"/><path d="M201.75095,235.89739l2.51756,-26.57424l15.85882,1.50241l-4.45497,28.08112z" fill="#ffe15d" stroke="#c3ac46" stroke-width="2.5" stroke-linecap="butt"/><path d="M249.94643,128.56027c0,0 -5.29096,1.77181 -7.89858,1.72975c-2.5581,-0.04126 -7.60142,-1.97975 -7.60142,-1.97975" fill="none" stroke="#000000" stroke-width="2" stroke-linecap="round"/><path d="M248.79195,133.27527l-1.91637,-2.89267l2.72426,-0.73451l-0.61573,3.73773z" fill="#ffffff" stroke="#000000" stroke-width="0.5" stroke-linecap="butt"/><path d="M200.84235,208.61822l0.79743,-5.95611l23.76786,2.62592l-0.79743,5.95611z" fill="#ffffff" stroke="#fbc4ff" stroke-width="2.5" stroke-linecap="butt"/><path d="M291.90521,243.35098l-11.06381,-26.19137l15.03482,-5.26438l8.82139,25.19348z" data-paper-data="{&quot;index&quot;:null}" fill="#ffe15d" stroke="#c3ac46" stroke-width="2.5" stroke-linecap="butt"/><path d="M278.89763,219.38519l-2.34352,-5.53345l21.79826,-9.83068l2.34352,5.53345z" fill="#ffffff" stroke="#fbc4ff" stroke-width="2.5" stroke-linecap="butt"/><path d="M264.49265,104.3166c1.53907,-0.86574 3.10407,0.22623 4.46691,0.53033c0.96609,0.21557 1.6272,-1.12737 2.78387,-1.11972c0.81522,0.00539 1.98406,1.31237 2.00233,2.00948c0.11381,4.34214 -7.58738,5.43242 -9.27006,2.48774c-0.66317,-0.39139 -1.10805,-1.11328 -1.10805,-1.93909c0,-0.73222 0.34976,-1.38274 0.89132,-1.79361c0.06927,-0.06706 0.1465,-0.1261 0.23368,-0.17514z" fill="#98d7ff" stroke="none" stroke-width="0.5" stroke-linecap="butt"/><path d="M272.92866,98.64392c-2.27035,5.32229 -5.20807,-1.61871 -5.20807,-3.95928c-0.36538,-0.40004 -0.58824,-0.93246 -0.58824,-1.51694c0,-1.24264 1.00736,-2.25 2.25,-2.25c0.04075,0 0.08125,0.00108 0.12147,0.00322c2.57029,-0.45073 4.32051,5.62328 3.42483,7.723z" fill="#ffffff" stroke="none" stroke-width="0.5" stroke-linecap="butt"/><path d="M222.1,296.1625v-14.4h19.2v14.4z" fill="#ffffff" stroke="#fbc4ff" stroke-width="2.5" stroke-linecap="butt"/><path d="M256.9,298.9625v-16h19.2v16z" fill="#ffffff" stroke="#fbc4ff" stroke-width="2.5" stroke-linecap="butt"/><path d="M252.5,316.1625v-18.8h29v18.8z" fill="#ffe15d" stroke="#c3ac46" stroke-width="2.5" stroke-linecap="butt"/><path d="M217.7,316.1625v-18.8h29v18.8z" fill="#ffe15d" stroke="#c3ac46" stroke-width="2.5" stroke-linecap="butt"/></g></g></svg>