<svg version="1.1" xmlns="http://www.w3.org/2000/svg" xmlns:xlink="http://www.w3.org/1999/xlink" width="66.5" height="59.62675" viewBox="0,0,66.5,59.62675"><defs><linearGradient x1="220.47487" y1="175.88842" x2="242.04193" y2="175.88842" gradientUnits="userSpaceOnUse" id="color-1"><stop offset="0" stop-color="#1e84e4"/><stop offset="1" stop-color="#16649c"/></linearGradient><linearGradient x1="218.42439" y1="176.64026" x2="238.1774" y2="176.64026" gradientUnits="userSpaceOnUse" id="color-2"><stop offset="0" stop-color="#2195ff"/><stop offset="1" stop-color="#1974b5"/></linearGradient></defs><g transform="translate(-212,-144.53034)"><g data-paper-data="{&quot;isPaintingLayer&quot;:true}" fill-rule="nonzero" stroke-linejoin="miter" stroke-miterlimit="10" stroke-dasharray="" stroke-dashoffset="0" style="mix-blend-mode: normal"><path d="M213.5,196.42788v-43.61538h63.5v43.61538z" fill="#2e2e2e" stroke="#161616" stroke-width="3" stroke-linecap="butt"/><path d="M245.625,195.9375l0.5,-43" fill="none" stroke="#161616" stroke-width="3" stroke-linecap="round"/><text transform="translate(250.875,161.49024) scale(0.15483,0.15483)" font-size="40" xml:space="preserve" fill="#ffffff" fill-rule="nonzero" stroke="none" stroke-width="1" stroke-linecap="butt" stroke-linejoin="miter" stroke-miterlimit="10" stroke-dasharray="" stroke-dashoffset="0" font-family="Sans Serif" font-weight="normal" text-anchor="start" style="mix-blend-mode: normal"><tspan x="0" dy="0">Medkit</tspan></text><text transform="translate(249.39286,161.02902) scale(1.4326,0.37928)" font-size="40" xml:space="preserve" fill="#ffffff" fill-rule="nonzero" stroke="none" stroke-width="1" stroke-linecap="butt" stroke-linejoin="miter" stroke-miterlimit="10" stroke-dasharray="" stroke-dashoffset="0" font-family="Sans Serif" font-weight="normal" text-anchor="start" style="mix-blend-mode: normal"><tspan x="0" dy="0">_</tspan></text><g><path d="M220.47487,183.20182l-2.17883,-13.32849l2.11048,-2.32355l20.88357,-0.06835l0.34175,13.25981l-3.34454,2.52966z" fill="url(#color-1)" stroke="#1a76cb" stroke-width="1.5" stroke-linecap="butt"/><path d="M218.42439,183.33852v-13.3965h19.75301v13.3965z" fill="url(#color-2)" stroke="#1a76cb" stroke-width="1.5" stroke-linecap="butt"/><path d="M241.18725,167.65228l-3.28572,2.11889" fill="none" stroke="#1a76cb" stroke-width="1.5" stroke-linecap="round"/><path d="M222.16226,169.0252l0.86176,-0.6763l2.46337,-0.00043l0.76359,0.75815z" fill="#151515" stroke="#000000" stroke-width="0.5" stroke-linecap="butt"/><path d="M231.34844,168.88167l0.86175,-0.6763l2.46337,-0.00043l0.76359,0.75815z" fill="#151515" stroke="#000000" stroke-width="0.5" stroke-linecap="butt"/><path d="M225.23542,168.26446c0,0 -0.60343,-2.37249 0.05368,-3.15148c0.75099,-0.89027 2.7031,-1.64448 3.28926,-1.66512c0.57315,-0.02018 3.00951,0.49834 3.50296,1.32024c0.44818,0.74651 -0.05195,3.25713 -0.05195,3.25713l-0.66983,0.66983c0,0 0.61503,-2.00838 -0.05328,-3.15458c-0.53738,-0.92163 -2.32727,-1.03217 -2.7207,-1.02082c-0.40036,0.01155 -1.47238,0.36014 -2.22945,1.25699c-0.70495,0.83512 0.02758,3.30116 0.02758,3.30116z" fill="#151515" stroke="#000000" stroke-width="0.5" stroke-linecap="butt"/><g stroke="none" stroke-width="0.5" stroke-linecap="butt"><g><path d="M221.68129,174.91718c0.07409,0.15584 0.04919,0.63704 0.14848,0.49591c0.25333,-0.36004 0.31845,-0.73876 0.70647,-0.97157c0.11862,-0.07117 2.22083,-0.20422 2.44028,-0.14577c0.7862,0.20942 1.6188,0.17994 2.34907,0.4538c0.31413,0.1178 0.54278,0.31383 0.8186,0.5014c0.12077,0.08213 0.34863,0.37488 0.37242,0.23079c0.14243,-0.86268 0.64716,-1.75762 1.62666,-0.77811c0.17947,0.17947 0.07465,0.77235 0.10844,0.95097c0.04875,0.25769 0.51393,-0.11556 0.75737,-0.21311c0.0201,-0.00806 -0.08271,-0.15597 -0.09223,-0.17943c-0.07583,-0.18685 -0.10998,-0.40929 -0.10998,-0.61004c0,-0.47781 0.30072,-0.83202 0.6787,-1.03169c0.49347,-0.26068 1.10722,-0.14856 1.52846,0.15619c0.21099,0.15264 0.39503,0.48862 0.44175,0.72337c0.0007,0.00352 -0.00469,0.07567 0.01645,0.06519c0.20982,-0.10408 0.37631,-0.36315 0.61007,-0.34861c0.29087,0.01809 0.53697,0.24512 0.75911,0.43378c0.43505,0.36947 0.068,0.86284 0.13291,1.27385c0.01053,0.06665 0.13596,-0.01082 0.20243,0.00079c0.45686,0.07983 0.86756,0.1732 0.86756,0.86756c0,0.40897 -0.52466,0.64467 -0.86756,0.86755c-0.0746,0.04849 0.17802,-0.00332 0.26694,0c0.10507,0.00392 0.37094,0.05854 0.43378,0.10844c0.1587,0.12603 0.46297,0.5499 0.43378,0.75911c-0.09565,0.68546 -0.98972,1.23832 -1.69507,1.16119c-0.28156,-0.03079 -0.44676,-0.14748 -0.68474,-0.26605c-0.02002,-0.00997 -0.1964,-0.13762 -0.20016,-0.13172c-0.11376,0.17863 -0.53646,0.64249 -0.79682,0.58463c-0.94026,-0.20895 -1.76651,-1.01511 -2.737,-1.18439c-0.06845,-0.01194 -0.05121,0.1292 -0.0753,0.19438c-0.10737,0.29055 -0.71862,0.69882 -1.0018,0.537c-0.38897,-0.22227 -0.42892,-0.58157 -0.64222,-0.78198c-0.48568,-0.45631 -1.78789,0.1683 -2.27545,0.35949c-0.2218,0.08698 -0.72227,-0.2139 -0.82935,-0.41468c-0.05384,-0.10095 -0.02891,-0.38097 -0.12542,-0.3195c-0.55853,0.35571 -0.86267,0.37605 -1.53285,0.31152c-0.0605,-0.00583 -0.35797,-0.12109 -0.40498,-0.08344c-0.13266,0.10625 -0.29638,0.21876 -0.46594,0.20706c-0.52319,-0.03608 -0.87352,-0.54301 -1.44386,-0.4603c-0.21999,0.0319 -0.52601,0.99897 -1.12617,0.65602c-0.94762,-0.5415 -0.42424,-1.24721 -0.40635,-2.0928c0.013,-0.61448 -0.41375,-1.53501 0.11988,-1.83994c0.15091,-0.2557 0.42926,-0.42724 0.74767,-0.42724c0.0355,0 0.07051,0.00213 0.1049,0.00628c0.28681,0.02097 0.70481,0.08754 0.84107,0.37411z" fill="#000000"/><path d="M221.34183,175.09788c0.20267,0.22971 0.2992,0.66879 0.44884,0.94277c0.07399,0.13546 0.1536,0.5248 0.2393,0.39642c0.24852,-0.37228 1.1209,-1.89005 1.6571,-1.37619c0.48774,0.46742 0.62572,2.53022 0.29656,2.85937c-0.68293,0.68293 -1.04262,0.04961 -1.12615,-0.55738c-0.00353,-0.02563 -0.13679,0.2474 -0.14513,0.26808c-0.07309,0.18121 -0.47556,0.60379 -0.74821,0.46617c-0.1613,-0.08141 -0.45198,-0.39159 -0.75034,-0.76866c-0.11282,0.61814 -0.33444,1.13233 -0.71873,1.13233c-0.99537,0 -0.41861,-1.4986 -0.41376,-2.00925c0.00378,-0.39824 -0.26279,-0.99429 0.08299,-1.19188c0.00432,-0.00732 0.00878,-0.01453 0.0134,-0.02164c0.06294,-0.26438 0.30066,-0.461 0.5843,-0.461c0.04942,0 0.09744,0.00597 0.14338,0.01722c0.12146,0.01074 0.25749,0.10079 0.43644,0.30362z" fill="#d80000"/><path d="M224.00533,175.48443c0.09911,-0.26469 0.27771,-0.46 0.50368,-0.59283c1.09482,-0.64354 3.30156,0.17968 2.96653,1.68728c-0.15212,0.68455 -1.67114,1.65256 -2.38385,1.42826c-0.1402,0.03635 -0.28917,0.0279 -0.42109,-0.04373c-0.45383,-0.24639 -0.50544,-1.65889 -0.4868,-2.25831zM226.27432,176.37422c-0.01684,-0.53442 -0.39237,-0.52512 -0.80216,-0.4267c0.04181,0.25956 0.08197,0.55328 0.11008,0.8175c0.36165,-0.09257 0.69915,-0.16632 0.69208,-0.39079z" fill="#d80000"/></g><path d="M231.31385,177.20132c-0.17837,0.14879 0.48744,0.14813 0.60269,0.34981c0.13815,0.24176 0.13194,0.66709 -0.14994,0.86129c-0.4148,0.28579 -1.18367,0.00785 -1.72398,-0.44996c0.06977,0.12737 0.13451,0.25343 0.15571,0.35152c0.04968,0.22985 -0.3177,0.69641 -0.60062,0.6807c-1.11143,-0.06175 -0.96223,-2.23066 -0.90643,-2.79417c0.02159,-0.21799 -0.02543,-0.88336 0.12187,-0.96753l0.51762,-0.29578c0.36034,0.20591 0.51377,0.48242 0.56715,0.79881c0.03244,0.19228 0.02792,0.3993 0.01044,0.61416c0.23692,-0.07765 0.5313,-0.1153 0.69584,-0.16151c0.05591,-0.0157 0.20589,-0.10036 0.34566,-0.18266c0.07608,-0.08041 0.17416,-0.1398 0.2846,-0.16856c0.04847,-0.01262 0.09933,-0.01934 0.15175,-0.01934c0.33171,0 0.60061,0.26891 0.60061,0.60062c0.22719,0.29344 -0.50878,0.64563 -0.67298,0.7826z" fill="#d80000"/><path d="M235.6706,178.84787c0,0.76869 -1.03291,0.70185 -1.47025,0.42355c-0.34254,-0.21798 -0.62367,-0.87116 -0.71447,-1.36319c0.02342,0.64287 -0.14558,1.16624 -0.63149,1.19324c-0.72066,0.04004 -0.80236,-1.89924 -0.85305,-2.41116c-0.01977,-0.19968 -0.20342,-0.77188 0.0151,-0.89675l0.51762,-0.29578c0.20537,0.11735 0.40666,0.41299 0.57101,0.78739c0.09237,0.21044 0.17308,0.44576 0.23627,0.6883c0.00425,-0.02008 0.00951,-0.04013 0.01576,-0.06009c-0.13896,-0.67545 -0.32422,-1.39175 0.1809,-1.68039c0.10448,-0.17703 0.29718,-0.29578 0.51762,-0.29578c0.27872,0 0.51309,0.18985 0.58087,0.44728c0.19406,0.26223 0.13593,0.54691 0.07709,1.09849c0.02097,0.0016 0.04189,0.00248 0.06274,0.00248c0.10958,-0.14588 0.28404,-0.24024 0.48054,-0.24024c0.33028,0 0.59829,0.26659 0.6006,0.59632c0.10808,0.42354 -0.52174,0.7358 -1.19334,0.81387c0.09446,0.65275 1.0065,0.63666 1.0065,1.19247zM233.43239,177.39878c0.00702,0.042 0.01343,0.08391 0.01919,0.12565c-0.00229,-0.03749 -0.00565,-0.0757 -0.00991,-0.11453c-0.00316,-0.00367 -0.00626,-0.00738 -0.00928,-0.01112z" fill="#d80000"/><path d="M231.47964,174.79038c0,-0.33171 0.2689,-0.60062 0.60061,-0.60062c0.33171,0 0.60062,0.26891 0.60062,0.60062c0,0.33171 -0.26891,0.60061 -0.60062,0.60061c-0.33171,0 -0.60061,-0.2689 -0.60061,-0.60061z" fill="#d80000"/></g></g><text transform="translate(218.48972,202.62062) scale(0.11819,0.11819)" font-size="40" xml:space="preserve" fill="#ff4040" fill-rule="nonzero" stroke="#820000" stroke-width="2" stroke-linecap="butt" stroke-linejoin="miter" stroke-miterlimit="10" stroke-dasharray="" stroke-dashoffset="0" font-family="Sans Serif" font-weight="normal" text-anchor="start" style="mix-blend-mode: normal"><tspan x="0" dy="0">You don't have enough!</tspan></text><text transform="translate(247.83571,167.14414) scale(0.07553,0.07553)" font-size="40" xml:space="preserve" fill="#ffffff" fill-rule="nonzero" stroke="none" stroke-width="1" stroke-linecap="butt" stroke-linejoin="miter" stroke-miterlimit="10" stroke-dasharray="" stroke-dashoffset="0" font-family="Sans Serif" font-weight="normal" text-anchor="start" style="mix-blend-mode: normal"><tspan x="0" dy="0">Refulls your health </tspan><tspan x="0" dy="46.150000000000006px">(don't use it when</tspan><tspan x="0" dy="46.150000000000006px">you have 3 hearts)</tspan></text><text transform="translate(219.78973,194.00402) scale(0.17931,0.17931)" font-size="40" xml:space="preserve" fill="#ffffff" fill-rule="nonzero" stroke="none" stroke-width="1" stroke-linecap="butt" stroke-linejoin="miter" stroke-miterlimit="10" stroke-dasharray="" stroke-dashoffset="0" font-family="Sans Serif" font-weight="normal" text-anchor="start" style="mix-blend-mode: normal"><tspan x="0" dy="0">100 C.</tspan></text></g></g></svg>