<svg version="1.1" xmlns="http://www.w3.org/2000/svg" xmlns:xlink="http://www.w3.org/1999/xlink" width="140.8293" height="319.83137" viewBox="0,0,140.8293,319.83137"><g transform="translate(-173.80515,-35.28186)"><g data-paper-data="{&quot;isPaintingLayer&quot;:true}" fill-rule="nonzero" stroke-linejoin="miter" stroke-miterlimit="10" stroke-dasharray="" stroke-dashoffset="0" style="mix-blend-mode: normal"><path d="M214.64901,201.36359v-87.96104h59.9932v87.96104z" fill="#2f2f2f" stroke="#1b1b1b" stroke-width="2.5" stroke-linecap="butt"/><path d="M245.05383,174.41012l-10.18088,-28.54748c0,0 -7.9065,-3.25295 -7.9065,-5.36172c0,-2.46284 4.71845,-4.57845 4.71845,-7.24555c0,-8.24968 0,-16.23004 0,-16.23004h28.46796c0,0 0,11.64279 0,18.83844c0,1.16868 5.50486,2.91345 5.50486,4.34733c0,2.61771 -8.40308,5.79645 -8.40308,5.79645l-11.25712,28.40258z" fill="#d0d0d0" stroke="none" stroke-width="0" stroke-linecap="butt"/><path d="M246.38454,163.59658l-4.21612,-19.26353l0.15861,-27.45264h8.40484l-0.46535,26.95386l-3.73707,20.43207z" fill="#262626" stroke="none" stroke-width="0" stroke-linecap="butt"/><path d="M214.21427,212.81156v-14.20128h61.15249v14.20128z" fill="#222222" stroke="#1b1b1b" stroke-width="2.5" stroke-linecap="butt"/><path d="M214.21427,343.43081v-130.93724h21.01211v130.93724z" fill="#222222" stroke="#1b1b1b" stroke-width="2.5" stroke-linecap="butt"/><path d="M215.44602,218.27618v-15.61311h19.12827v15.61311z" fill="#222222" stroke="none" stroke-width="0" stroke-linecap="butt"/><path d="M209.43221,352.55903v-14.3462h30.43133v14.3462z" fill="#151515" stroke="#131313" stroke-width="2.5" stroke-linecap="butt"/><path d="M254.20974,344.73501v-130.93724h21.01211v130.93724z" fill="#222222" stroke="#1b1b1b" stroke-width="2.5" stroke-linecap="butt"/><path d="M255.44148,219.58037v-15.61311h19.12827v15.61311z" fill="#222222" stroke="none" stroke-width="0" stroke-linecap="butt"/><path d="M249.42767,353.86323v-14.3462h30.43133v14.3462z" fill="#151515" stroke="#131313" stroke-width="2.5" stroke-linecap="butt"/><g stroke-linecap="butt"><path d="M219.86581,274.00815c0,4.75159 3.83659,21.26113 -3.43785,21.77333c-1.23835,0.0872 -1.25083,-12.70693 -2.60273,-11.14207c-2.6017,3.01153 0.65838,12.01838 -9.39245,12.62697c-17.64192,1.06824 -15.43303,-10.41307 -15.43303,-23.25824c0,-12.84517 6.9096,-23.25823 15.43303,-23.25823c8.52343,0 15.43303,10.41306 15.43303,23.25823z" fill="#575757" stroke="#383838" stroke-width="2"/><path d="M191.60814,256.04823v-117.34058c0,0 4.08838,-11.97304 7.67016,-15.35411c3.92258,-3.70277 17.54437,-5.98523 17.54437,-5.98523h0.43474v138.67992z" fill="#2f2f2f" stroke="#1b1b1b" stroke-width="2.5"/><path d="M186.39134,263.00397v-12.17253h35.21339v12.17253z" fill="#d0d0d0" stroke="#9c9c9c" stroke-width="2"/></g><g stroke-linecap="butt"><path d="M302.0304,278.79022c0,4.75159 3.83659,21.26113 -3.43784,21.77334c-1.23834,0.0872 -1.25084,-12.70693 -2.60274,-11.14207c-2.6017,3.01153 0.65837,12.01837 -9.39245,12.62696c-17.64191,1.06824 -15.43303,-10.41307 -15.43303,-23.25824c0,-12.84517 6.9096,-23.25823 15.43303,-23.25823c8.52343,0 15.43303,10.41306 15.43303,23.25823z" fill="#575757" stroke="#383838" stroke-width="2"/><path d="M272.46853,260.83029l2.6084,-129.11579l-0.43473,-15.21567c0,0 23.4756,16.22007 23.4756,25.68668c0,23.03682 0,118.64478 0,118.64478z" fill="#2f2f2f" stroke="#1b1b1b" stroke-width="2.5"/><path d="M268.55593,267.78603v-12.17253h35.2134v12.17253z" fill="#d0d0d0" stroke="#9c9c9c" stroke-width="2"/></g><path d="M181.73705,121.36487l-6.84243,-72.56486l131.80795,-12.42869l6.84243,72.56486z" fill="#575757" stroke="#383838" stroke-width="2" stroke-linecap="butt"/><path d="M306.26124,73.59112c1.39746,14.82024 -9.58075,27.97643 -24.52051,29.38516c-14.93976,1.40873 -28.18371,-9.46346 -29.58117,-24.2837c-1.39746,-14.82024 9.58075,-27.97643 24.52052,-29.38516c14.93976,-1.40873 28.1837,9.46346 29.58116,24.2837z" fill="#2b2b2b" stroke="none" stroke-width="0" stroke-linecap="butt"/><path d="M297.10795,76.0826c0.86402,9.16306 -6.18664,17.32206 -15.74809,18.22365c-9.56145,0.90159 -18.01296,-5.79565 -18.87698,-14.95871c-0.86402,-9.16306 6.18663,-17.32206 15.74809,-18.22365c9.56145,-0.90159 18.01297,5.79565 18.87699,14.95871z" fill="#ffffff" stroke="#000000" stroke-width="2" stroke-linecap="butt"/><path d="M282.6548,78.66144c0.16033,1.70033 9.54538,2.83991 8.93557,4.33132c-1.47315,3.60289 -4.94414,6.30611 -9.20819,6.70819c-6.02915,0.56851 -11.3607,-3.67885 -11.90835,-9.48674c-0.54765,-5.8079 3.89598,-10.97699 9.92513,-11.5455c4.67621,-0.44094 8.93278,2.01514 10.86317,5.84941c0.5585,1.10934 -8.73023,2.84004 -8.60734,4.14333z" fill="#000000" stroke="none" stroke-width="0" stroke-linecap="butt"/><path d="M263.34476,74.94632c0,0 1.44297,-4.92308 2.94641,-7.43976c1.65026,-2.76244 6.62601,-6.85618 6.62601,-6.85618l0.7969,-0.34774c0,0 5.39159,-1.7311 7.9798,-1.31025c1.29239,0.21015 2.91873,0.47365 4.56641,1.00586c2.70997,0.87534 5.30671,2.08583 5.30671,2.08583z" fill="#2b2b2b" stroke="#000000" stroke-width="1.5" stroke-linecap="butt"/><path d="M297.13066,51.62551c0.21094,2.23702 -1.62043,4.23929 -4.09047,4.4722c-2.47004,0.23291 -4.6434,-1.39174 -4.85434,-3.62876c-0.21094,-2.23702 1.62043,-4.23929 4.09047,-4.4722c2.47004,-0.23291 4.6434,1.39174 4.85434,3.62876z" fill="#ffa221" stroke="#bb7718" stroke-width="1" stroke-linecap="butt"/><path d="M188.83555,47.73466l-0.32649,-3.46251l25.53599,-2.40789l0.32649,3.46251z" fill="#343434" stroke="#252525" stroke-width="2" stroke-linecap="butt"/><path d="M225.32262,102.80682c0,0 4.58235,-5.35854 8.96479,-5.82179c4.10192,-0.4336 16.544,3.12535 16.544,3.12535" fill="none" stroke="#000000" stroke-width="2.5" stroke-linecap="round"/><g fill="#1d1d1d" stroke="none" stroke-width="0" stroke-linecap="butt"><path d="M249.16254,181.10102c0,1.96865 -1.63137,3.56456 -3.64377,3.56456c-2.01239,0 -3.64377,-1.59591 -3.64377,-3.56456c0,-1.96865 1.63137,-3.56455 3.64377,-3.56455c2.01239,0 3.64377,1.5959 3.64377,3.56455z"/><path d="M249.28008,192.38495c0,1.96865 -1.63137,3.56456 -3.64377,3.56456c-2.01239,0 -3.64377,-1.59591 -3.64377,-3.56456c0,-1.96865 1.63138,-3.56455 3.64377,-3.56455c2.01239,0 3.64377,1.5959 3.64377,3.56455z"/></g></g></g></svg>