<svg version="1.1" xmlns="http://www.w3.org/2000/svg" xmlns:xlink="http://www.w3.org/1999/xlink" width="206.47222" height="267.48914" viewBox="0,0,206.47222,267.48914"><defs><radialGradient cx="381.26219" cy="127.53803" r="45.61247" gradientUnits="userSpaceOnUse" id="color-1"><stop offset="0" stop-color="#484848" stop-opacity="0"/><stop offset="1" stop-color="#484848"/></radialGradient><radialGradient cx="381.47533" cy="134.78487" r="50.51474" gradientUnits="userSpaceOnUse" id="color-2"><stop offset="0" stop-color="#484848" stop-opacity="0"/><stop offset="1" stop-color="#484848"/></radialGradient></defs><g transform="translate(-226.26785,-84.58585)"><g data-paper-data="{&quot;isPaintingLayer&quot;:true}" fill-rule="nonzero" stroke-linejoin="miter" stroke-miterlimit="10" stroke-dasharray="" stroke-dashoffset="0" style="mix-blend-mode: normal"><path d="M360.25903,259.79468v-14.49659h46.25102v14.49659l11.06259,81.13328l-18.47087,-0.25812l-9.28994,-82.27972c0,0 -2.88845,0.02394 -3.80487,0.02394c-1.05843,0 -7.91598,0.51286 -7.91598,0.51286l1.90108,84.21191l-17.6364,-0.82504z" fill="#454545" stroke="#1a1a1a" stroke-width="1" stroke-linecap="butt"/><path d="M376.36635,191.60707v-22.55025h13.11596v22.55025z" fill="#00a7dc" stroke="#00779c" stroke-width="1" stroke-linecap="butt"/><path d="M361.07575,248.72997v-75.0183l14.36923,0.1817c0,0 -0.69871,4.03564 6.9041,4.19029c11.31242,0.23011 9.59047,-3.41869 9.59047,-3.41869l13.66898,-0.95331v75.01831z" fill="#005771" stroke="#003849" stroke-width="2.5" stroke-linecap="butt"/><path d="M426.87466,127.53803c0,23.30763 -20.4214,42.20219 -45.61247,42.20219c-25.19107,0 -45.61247,-18.89456 -45.61247,-42.20219c0,-23.30762 20.4214,-42.20218 45.61247,-42.20218c25.19107,0 45.61247,18.89456 45.61247,42.20219z" fill="url(#color-1)" stroke="#2f2f2f" stroke-width="1.5" stroke-linecap="butt"/><path d="M330.96059,141.17914v-12.78854h101.02948v12.78854z" fill="url(#color-2)" stroke="#2f2f2f" stroke-width="1.5" stroke-linecap="butt"/><path d="M378.08202,171.053c0,0 -6.89324,-0.66278 -12.07651,-2.31267c-6.96033,-2.21554 -13.28523,-6.30161 -16.57724,-8.97395c-6.28558,-5.10241 -11.64711,-18.58724 -11.64711,-18.58724h86.96208c0,0 -7.68055,18.05786 -18.40046,23.30214c-3.89436,1.90516 -9.22383,4.4548 -14.86362,5.41258c-6.70323,1.13837 -13.00477,1.19306 -13.00477,1.19306z" fill="#00a7dc" stroke="#00779c" stroke-width="1" stroke-linecap="butt"/><path d="M418.37477,121.99466c0,7.87629 -6.84871,14.26129 -15.29703,14.26129c-8.44832,0 -15.29702,-6.385 -15.29702,-14.26128c0,-7.87629 6.84871,-14.26129 15.29702,-14.26129c8.44831,0 15.29703,6.385 15.29703,14.26129z" fill="#505050" stroke="#000000" stroke-width="2" stroke-linecap="butt"/><path d="M375.44656,122.50887c0,7.74869 -6.73777,14.03024 -15.04921,14.03024c-8.31144,0 -15.0492,-6.28155 -15.0492,-14.03024c0,-7.74869 6.73776,-14.03025 15.04921,-14.03025c8.31144,0 15.04921,6.28156 15.04921,14.03025z" fill="#505050" stroke="#000000" stroke-width="2" stroke-linecap="butt"/><g stroke-linecap="butt"><path d="M350.36454,259.71802v-57.75625h9.20418v57.75625z" fill="#00a7dc" stroke="#00779c" stroke-width="1"/><path d="M349.21401,204.95313v-23.01046l5.98272,-8.51387h6.44293v31.52433z" fill="#005771" stroke="#003849" stroke-width="2.5"/><path d="M363.44595,263.00218c0.10539,1.47052 1.15427,12.272 -1.55116,12.13062c-1.69092,-0.08837 -1.94527,-5.74668 -2.67574,-4.51122c-1.21721,2.05869 -0.42287,4.36393 -4.46733,4.65379c-8.6312,0.61858 -7.14263,-4.70402 -7.60139,-11.1053c-0.45877,-6.40129 2.81723,-11.85199 7.31715,-12.17449c4.49991,-0.3225 8.51972,4.60533 8.97849,11.00661z" fill="#00a7dc" stroke="#00779c" stroke-width="1"/></g><g data-paper-data="{&quot;index&quot;:null}" stroke-linecap="butt"><path d="M408.04559,259.19551v-57.75625h9.20418v57.75625z" fill="#00a7dc" stroke="#00779c" stroke-width="1"/><path d="M405.97465,204.43062v-31.52433h6.44293l5.98272,8.51387v23.01046z" fill="#005771" stroke="#003849" stroke-width="2.5"/><path d="M413.14684,251.47305c4.49991,0.3225 7.77591,5.7732 7.31714,12.17449c-0.45877,6.40128 1.02981,11.72389 -7.60139,11.10531c-4.04446,-0.28986 -3.25013,-2.5951 -4.46733,-4.65379c-0.73047,-1.23546 -0.98482,4.42285 -2.67574,4.51122c-2.70544,0.14139 -1.65656,-10.66009 -1.55117,-12.13061c0.45877,-6.40129 4.47857,-11.32912 8.97849,-11.00662z" fill="#00a7dc" stroke="#00779c" stroke-width="1"/></g><path d="M350.36454,104.70419l19.78899,-0.92042" fill="none" stroke="#000000" stroke-width="2" stroke-linecap="round"/><path d="M391.95117,107.17304c0,0 5.32487,-3.63852 8.34601,-4.08056c7.39928,-1.08262 11.44298,3.16015 11.44298,3.16015" fill="none" stroke="#000000" stroke-width="2" stroke-linecap="round"/><path d="M397.50031,349.10304v-14.74991h32.27879v14.74991z" fill="#232323" stroke="#191919" stroke-width="1" stroke-linecap="butt"/><path d="M362.01479,351.57499v-14.74992h32.27879v14.74992z" fill="#232323" stroke="#191919" stroke-width="1" stroke-linecap="butt"/><g data-paper-data="{&quot;index&quot;:null}" stroke-linecap="butt"><path d="M240.49775,149.0606l134.72767,-8.00384l22.5732,-1.21223c0,0 2.41915,2.31585 -2.00318,5.01297c-5.32674,3.24871 -20.09977,4.0506 -26.27945,5.02488c-11.31012,1.78315 -126.9033,14.42868 -126.9033,14.42868z" fill="#404040" stroke="#232323" stroke-width="2"/><path d="M227.82717,136.86891l13.90921,-1.92894l5.58269,40.25576l-13.90921,1.92894z" fill="#404040" stroke="#232323" stroke-width="2"/><path d="M226.26785,137.75344l4.71499,-0.65388l5.3966,38.9139l-4.71499,0.65388z" fill="#000000" stroke="none" stroke-width="0"/></g><path d="M377.45887,155.16522c0,0 6.01322,-3.56145 9.43031,-4.13802c3.65132,-0.61609 11.82155,0.55218 11.82155,0.55218" fill="none" stroke="#000000" stroke-width="2.5" stroke-linecap="round"/><path d="M348.7509,121.8764l23,0.75" fill="none" stroke="#2e2e2e" stroke-width="5" stroke-linecap="round"/><path d="M392.2509,122.6264l23,0.75" fill="none" stroke="#2e2e2e" stroke-width="5" stroke-linecap="round"/></g></g></svg>