<svg version="1.1" xmlns="http://www.w3.org/2000/svg" xmlns:xlink="http://www.w3.org/1999/xlink" width="58.14406" height="49.23183" viewBox="0,0,58.14406,49.23183"><defs><linearGradient x1="214.07937" y1="185.36517" x2="266.37625" y2="185.36517" gradientUnits="userSpaceOnUse" id="color-1"><stop offset="0" stop-color="#1e84e4"/><stop offset="1" stop-color="#16649c"/></linearGradient><linearGradient x1="209.10727" y1="187.18827" x2="257.00534" y2="187.18827" gradientUnits="userSpaceOnUse" id="color-2"><stop offset="0" stop-color="#2195ff"/><stop offset="1" stop-color="#1974b5"/></linearGradient></defs><g transform="translate(-207.99746,-154.94869)"><g data-paper-data="{&quot;isPaintingLayer&quot;:true}" fill-rule="nonzero" stroke-linejoin="miter" stroke-miterlimit="10" stroke-dasharray="" stroke-dashoffset="0" style="mix-blend-mode: normal"><g><path d="M214.07937,203.09906l-5.28333,-32.31958l5.1176,-5.63426l50.63951,-0.16574l0.82869,32.15304l-8.11001,6.13404z" fill="url(#color-1)" stroke="#1a76cb" stroke-width="1.5" stroke-linecap="butt"/><path d="M209.10727,203.43052v-32.48449h47.89807v32.48449z" fill="url(#color-2)" stroke="#1a76cb" stroke-width="1.5" stroke-linecap="butt"/><path d="M264.30378,165.39375l-7.96738,5.13799" fill="none" stroke="#1a76cb" stroke-width="1.5" stroke-linecap="round"/><path d="M218.17104,168.72289l2.08964,-1.63993l5.9733,-0.00104l1.85159,1.8384z" fill="#151515" stroke="#000000" stroke-width="0.5" stroke-linecap="butt"/><path d="M240.44614,168.37486l2.08961,-1.63993l5.9733,-0.00104l1.85159,1.8384z" fill="#151515" stroke="#000000" stroke-width="0.5" stroke-linecap="butt"/><path d="M225.62299,166.87821c0,0 -1.46323,-5.75293 0.13017,-7.64186c1.82104,-2.15877 6.55461,-3.98762 7.97596,-4.03767c1.3898,-0.04893 7.29761,1.2084 8.49415,3.20138c1.08677,1.81017 -0.12597,7.89805 -0.12597,7.89805l-1.62424,1.62424c0,0 1.49136,-4.87002 -0.1292,-7.64938c-1.30307,-2.23481 -5.64328,-2.50286 -6.59729,-2.47533c-0.97081,0.02801 -3.5703,0.87329 -5.40608,3.04801c-1.7094,2.02504 0.06688,8.00482 0.06688,8.00482z" fill="#151515" stroke="#000000" stroke-width="0.5" stroke-linecap="butt"/><g stroke="none" stroke-width="0.5" stroke-linecap="butt"><g><path d="M217.00476,183.01006c0.17966,0.37789 0.11928,1.54473 0.36004,1.20251c0.61429,-0.87304 0.77219,-1.79138 1.71308,-2.35591c0.28764,-0.17258 5.38518,-0.4952 5.91731,-0.35347c1.90642,0.50781 3.92535,0.43633 5.69614,1.1004c0.76172,0.28565 1.31616,0.76099 1.98498,1.21582c0.29285,0.19915 0.84538,0.90903 0.90306,0.55963c0.34537,-2.09187 1.56927,-4.26196 3.94441,-1.8868c0.43519,0.43519 0.18102,1.87283 0.26295,2.30596c0.11821,0.62486 1.2462,-0.28022 1.83651,-0.51676c0.04874,-0.01954 -0.20056,-0.3782 -0.22364,-0.43509c-0.18388,-0.45308 -0.26668,-0.99247 -0.26668,-1.47926c0,-1.15862 0.7292,-2.01752 1.64575,-2.50169c1.19659,-0.63211 2.68484,-0.36024 3.70629,0.37874c0.51162,0.37013 0.95789,1.18483 1.07118,1.75406c0.0017,0.00854 -0.01137,0.18349 0.03989,0.15808c0.50878,-0.25238 0.9125,-0.88058 1.47933,-0.84533c0.70532,0.04387 1.30207,0.59438 1.84073,1.05185c1.05493,0.89591 0.16489,2.09226 0.32229,3.08889c0.02553,0.16162 0.32968,-0.02624 0.49086,0.00192c1.10782,0.19358 2.1037,0.41998 2.1037,2.1037c0,0.99169 -1.27222,1.56323 -2.1037,2.10368c-0.18089,0.11758 0.43167,-0.00805 0.64729,0c0.25478,0.00951 0.89947,0.14195 1.05185,0.26295c0.38482,0.3056 1.12263,1.33342 1.05185,1.84073c-0.23194,1.66214 -2.39992,3.00274 -4.11029,2.81571c-0.68274,-0.07466 -1.08333,-0.35762 -1.66039,-0.64513c-0.04855,-0.02418 -0.47624,-0.33371 -0.48536,-0.3194c-0.27585,0.43315 -1.30083,1.55794 -1.93217,1.41764c-2.27999,-0.50667 -4.28352,-2.46149 -6.63681,-2.87197c-0.16598,-0.02895 -0.12418,0.31329 -0.18259,0.47134c-0.26036,0.70454 -1.74255,1.69453 -2.42921,1.30214c-0.94319,-0.53897 -1.04007,-1.41022 -1.55729,-1.89618c-1.1777,-1.10648 -4.33536,0.4081 -5.51762,0.87171c-0.53783,0.21091 -1.7514,-0.51868 -2.01105,-1.00554c-0.13055,-0.24479 -0.0701,-0.92379 -0.30412,-0.77474c-1.35435,0.86254 -2.09184,0.91186 -3.71693,0.75539c-0.1467,-0.01414 -0.86802,-0.29363 -0.98202,-0.20233c-0.32168,0.25764 -0.71868,0.53046 -1.12983,0.50209c-1.26866,-0.08749 -2.11815,-1.31672 -3.50114,-1.11616c-0.53344,0.07735 -1.2755,2.42235 -2.73079,1.59075c-2.29784,-1.31306 -1.02872,-3.0243 -0.98534,-5.07472c0.03152,-1.49002 -1.00328,-3.72217 0.29069,-4.46158c0.36593,-0.62003 1.04089,-1.03599 1.81299,-1.03599c0.08608,0 0.17098,0.00516 0.25437,0.01523c0.69547,0.05085 1.70906,0.21227 2.03947,0.90716z" fill="#000000"/><path d="M216.18162,183.44823c0.49144,0.55701 0.72551,1.62172 1.08837,2.28608c0.17941,0.32847 0.37246,1.27256 0.58027,0.96126c0.60262,-0.90272 2.71801,-4.58309 4.01822,-3.33705c1.1827,1.13342 1.51728,6.1354 0.71911,6.93354c-1.656,1.656 -2.5282,0.1203 -2.73074,-1.35156c-0.00856,-0.06215 -0.3317,0.59991 -0.35192,0.65005c-0.17723,0.43941 -1.15316,1.4641 -1.8143,1.13039c-0.39113,-0.19741 -1.09598,-0.94955 -1.81946,-1.86388c-0.27357,1.4989 -0.81097,2.74573 -1.74281,2.74573c-2.41362,0 -1.01507,-3.63388 -1.00331,-4.87213c0.00917,-0.96567 -0.63723,-2.411 0.20124,-2.89013c0.01048,-0.01775 0.02129,-0.03523 0.03249,-0.05247c0.15262,-0.64108 0.72906,-1.11786 1.41684,-1.11786c0.11984,0 0.23628,0.01448 0.34767,0.04176c0.29452,0.02604 0.62437,0.2444 1.0583,0.73623z" fill="#d80000"/><path d="M222.64021,184.38555c0.24033,-0.64183 0.6734,-1.11543 1.22135,-1.43752c2.65477,-1.56049 8.00579,0.4357 7.19339,4.0914c-0.36887,1.65993 -4.05226,4.00721 -5.78048,3.46332c-0.33996,0.08814 -0.70119,0.06765 -1.02108,-0.10604c-1.10047,-0.59746 -1.22562,-4.02256 -1.18042,-5.47606zM228.14217,186.54316c-0.04083,-1.29589 -0.95144,-1.27334 -1.94512,-1.03468c0.10138,0.62939 0.19876,1.34162 0.26693,1.98231c0.87695,-0.22447 1.69533,-0.4033 1.67819,-0.94761z" fill="#d80000"/></g><path d="M240.36227,188.54875c-0.43252,0.36079 1.18197,0.35919 1.46143,0.84824c0.33499,0.58623 0.31993,1.61759 -0.36358,2.0885c-1.00583,0.693 -2.87022,0.01904 -4.18039,-1.09109c0.16918,0.30885 0.32617,0.61453 0.37757,0.85238c0.12047,0.55735 -0.77037,1.68869 -1.45641,1.65059c-2.69505,-0.14973 -2.33326,-5.40901 -2.19796,-6.77544c0.05235,-0.52859 -0.06166,-2.14201 0.29552,-2.34611l1.25515,-0.71722c0.87377,0.4993 1.24581,1.1698 1.37525,1.93699c0.07866,0.46625 0.0677,0.96824 0.02532,1.48925c0.5745,-0.18829 1.28832,-0.27959 1.68731,-0.39164c0.13557,-0.03807 0.49925,-0.24336 0.83817,-0.44292c0.18448,-0.19498 0.42231,-0.33899 0.69011,-0.40873c0.11753,-0.0306 0.24086,-0.0469 0.36797,-0.0469c0.80435,0 1.45639,0.65207 1.45639,1.45641c0.5509,0.71155 -1.23371,1.56556 -1.63188,1.89769z" fill="#d80000"/><path d="M250.92673,192.54139c0,1.86396 -2.50465,1.70188 -3.56513,1.02704c-0.83061,-0.52857 -1.51231,-2.11243 -1.73248,-3.30553c0.05679,1.55886 -0.35301,2.82796 -1.53127,2.89343c-1.74749,0.09709 -1.9456,-4.60537 -2.06852,-5.8467c-0.04794,-0.48419 -0.49326,-1.87169 0.03662,-2.17448l1.25515,-0.71722c0.49799,0.28456 0.98609,1.00144 1.38461,1.9093c0.22398,0.51029 0.41969,1.0809 0.57292,1.66902c0.01031,-0.04869 0.02306,-0.09731 0.03822,-0.14571c-0.33696,-1.63786 -0.78618,-3.37478 0.43866,-4.07469c0.25335,-0.42927 0.72062,-0.71722 1.25515,-0.71722c0.67585,0 1.24417,0.46036 1.40852,1.08459c0.47057,0.63587 0.32961,1.32617 0.18693,2.66367c0.05085,0.00388 0.10158,0.00601 0.15214,0.00601c0.26571,-0.35374 0.68875,-0.58255 1.16524,-0.58255c0.80088,0 1.45076,0.64644 1.45636,1.44599c0.26208,1.02702 -1.26514,1.7842 -2.89367,1.97351c0.22905,1.58282 2.44061,1.5438 2.44061,2.89156zM245.49941,189.02754c0.01702,0.10184 0.03257,0.20347 0.04653,0.30468c-0.00555,-0.09091 -0.0137,-0.18356 -0.02403,-0.27772c-0.00766,-0.0089 -0.01518,-0.0179 -0.0225,-0.02696z" fill="#d80000"/><path d="M240.76428,182.70259c0,-0.80435 0.65204,-1.45641 1.45639,-1.45641c0.80435,0 1.45641,0.65207 1.45641,1.45641c0,0.80435 -0.65207,1.45639 -1.45641,1.45639c-0.80435,0 -1.45639,-0.65204 -1.45639,-1.45639z" fill="#d80000"/></g></g></g></g></svg>