<svg version="1.1" xmlns="http://www.w3.org/2000/svg" xmlns:xlink="http://www.w3.org/1999/xlink" width="108.08371" height="200.76243" viewBox="0,0,108.08371,200.76243"><g transform="translate(-181.28233,-145.95075)"><g data-paper-data="{&quot;isPaintingLayer&quot;:true}" fill-rule="nonzero" stroke-linejoin="miter" stroke-miterlimit="10" stroke-dasharray="" stroke-dashoffset="0" style="mix-blend-mode: normal"><path d="M265.98334,155.099c1.3952,-2.79307 8.16109,-8.03168 11.43466,-2.52866c6.86014,11.53222 14.58503,39.91675 8.48462,49.44017c-9.01144,14.06787 -24.41416,20.24597 -32.5526,15.03274c-8.13843,-5.21323 6.06928,-15.84365 15.08072,-29.91151c9.01144,-14.06787 -7.58583,-21.74596 -2.4474,-32.03273z" fill="#c00000" stroke="#a30000" stroke-width="2.5" stroke-linecap="butt"/><path d="M276.27014,180.12314c0,15.05077 -3.64778,22.9707 -14.35775,35.83391c-2.29611,2.75773 11.46042,61.11794 0.26986,61.5716c-10.29764,0.41746 -18.30739,0.82701 -25.64,0.62839c-10.22821,-0.27705 -19.62226,-1.30383 -27.31426,-1.30383c-8.55337,0 0.39228,-48.6373 -6.05205,-56.83441c-10.03589,-12.76552 -20.6436,-22.26694 -20.6436,-39.89567c0,-26.32872 21.48392,-32.92237 47.3689,-32.92237c25.88498,0 46.3689,6.59365 46.3689,32.92237z" fill="#c00000" stroke="#a30000" stroke-width="2.5" stroke-linecap="butt"/><path d="M208.87501,278.45313c0,0 -4.23209,-1.95869 -4.89817,-5.97543c-1.39111,-8.389 0.16529,-23.23356 -0.11509,-30.27404c-0.2893,-7.2647 -1.48675,-19.25053 -1.48675,-19.25053l59.75,-1.5c0,0 0.80023,4.63554 2.04656,10.63648c1.23617,5.95203 2.91932,13.23919 2.72816,20.64641c-0.19103,7.40199 0.04552,17.24125 -0.31514,20.37617c-0.45173,3.92653 -5.20957,6.34094 -5.20957,6.34094c0,0 -15.2764,0.91904 -26.01673,0.73701c-5.98597,-0.10145 -26.48327,-1.73701 -26.48327,-1.73701z" fill="#ededed" stroke="#e0e0e0" stroke-width="2.5" stroke-linecap="butt"/><path d="M232.33785,201.818l-24.71284,-42.36487h47.5l-22.78716,42.68581z" fill="#ffffff" stroke="none" stroke-width="0" stroke-linecap="butt"/><text transform="translate(223.62501,184.24013) scale(0.62386,0.62386)" font-size="40" xml:space="preserve" fill="#c00000" fill-rule="nonzero" stroke="none" stroke-width="1" stroke-linecap="butt" stroke-linejoin="miter" stroke-miterlimit="10" stroke-dasharray="" stroke-dashoffset="0" font-family="Sans Serif" font-weight="normal" text-anchor="start" style="mix-blend-mode: normal"><tspan x="0" dy="0">B</tspan></text><g stroke-linecap="butt"><g><path d="M220.29002,193.84657c0.34322,8.34625 -6.48002,15.40427 -15.24014,15.76451c-8.76012,0.36024 -16.13983,-6.1137 -16.48305,-14.45995c-0.34322,-8.34625 6.48002,-15.40426 15.24014,-15.7645c8.76012,-0.36024 16.13983,6.1137 16.48305,14.45995z" fill="#ffffff" stroke="#000000" stroke-width="2"/><path d="M219.67304,193.01976c0.23089,5.61452 -4.27454,10.35896 -10.06315,10.597c-4.35579,0.17912 -7.85582,-1.62692 -9.5889,-5.22982c-0.57009,-1.18516 8.46159,-4.907 8.46159,-4.907c0,0 -8.94984,-3.58871 -8.37004,-4.92433c1.53087,-3.52648 4.46275,-5.09816 8.66123,-5.27081c5.78861,-0.23804 10.66839,4.12044 10.89927,9.73496z" fill="#000000" stroke="none" stroke-width="0"/></g><path d="M188.80458,189.77744c0,0 1.87882,-5.06023 3.98636,-6.70799c2.42639,-1.89705 10.58324,-4.06641 10.58324,-4.06641l0.3262,-0.18022c0,0 7.93615,0.76793 10.87757,2.42831c2.7361,1.54449 5.74111,8.23119 5.74111,8.23119z" fill="#c00000" stroke="#a30000" stroke-width="2.5"/></g><g stroke-linecap="butt"><path d="M274.62334,192.34657c0.34323,8.34625 -6.48002,15.40427 -15.24013,15.76451c-8.76012,0.36024 -16.13983,-6.1137 -16.48305,-14.45995c-0.34322,-8.34625 6.48002,-15.40426 15.24013,-15.7645c8.76011,-0.36024 16.13982,6.1137 16.48305,14.45995z" fill="#ffffff" stroke="#000000" stroke-width="2"/><path d="M274.00637,191.51976c0.23089,5.61452 -4.27454,10.35896 -10.06315,10.597c-4.35579,0.17912 -7.85582,-1.62692 -9.58889,-5.22982c-0.57009,-1.18516 8.46159,-4.907 8.46159,-4.907c0,0 -8.94984,-3.58871 -8.37004,-4.92433c1.53087,-3.52648 4.46276,-5.09816 8.66123,-5.27081c5.78861,-0.23804 10.66838,4.12044 10.89927,9.73496z" fill="#000000" stroke="none" stroke-width="0"/></g><path d="M243.03826,191.78042c0,0 0.00171,-3.62238 1.28145,-5.57712c0.59824,-0.91378 1.53158,-3.1122 2.97409,-4.4849c2.11013,-2.00801 4.78704,-3.1285 4.78704,-3.1285l0.22181,-0.2634c0,0 7.87518,-1.6881 11.31809,-0.72568c3.35227,0.80633 7.43316,4.44533 7.43316,4.44533z" fill="#c00000" stroke="#a30000" stroke-width="2.5" stroke-linecap="butt"/><path d="M241.66668,210.8021l-13.83333,3.66666" fill="none" stroke="#000000" stroke-width="2.5" stroke-linecap="round"/><path d="M243.16668,212.96876l-2.33333,-5.66666" fill="none" stroke="#000000" stroke-width="2.5" stroke-linecap="round"/><path d="M217.93573,178.40308l-25.70477,-7.70199" fill="none" stroke="#000000" stroke-width="3" stroke-linecap="round"/><path d="M244.66914,177.44738c0,0 7.85502,-6.90481 12.00925,-7.96039c4.48894,-1.14063 13.99814,1.35196 13.99814,1.35196" fill="none" stroke="#000000" stroke-width="3" stroke-linecap="round"/><path d="M201.54039,224.42432c0,0 10.80915,17.46814 18.45499,22.5053c7.11783,4.68929 27.44947,-4.75124 27.44947,-4.75124" fill="none" stroke="#000000" stroke-width="3" stroke-linecap="round"/><path d="M252.28625,234.23626c1.3962,-0.59428 4.18717,-1.26229 5.44912,-1.18326c0.96399,0.06037 -2.60468,1.53744 -1.91963,2.96672c0.63303,1.32073 4.72545,0.28431 5.00805,0.94825c0.98879,2.32305 -1.50857,4.21308 -4.95685,5.6808c-3.44828,1.46773 -7.04522,0.77434 -8.03401,-1.54871c-0.98879,-2.32305 1.00503,-5.39609 4.45331,-6.86381z" fill="#000000" stroke="#000000" stroke-width="3" stroke-linecap="butt"/><path d="M214.83772,278.82032l1.28571,59.85714l-5,2.71429" fill="none" stroke="#000000" stroke-width="3.5" stroke-linecap="round"/><path d="M260.55201,344.96319l-6.85714,-2.71429l0.28571,-63.71429" fill="none" stroke="#000000" stroke-width="3.5" stroke-linecap="round"/><path d="M262.04438,220.06881c0,0 5.99026,20.84916 -0.30406,27.22815c-4.04937,4.10384 -19.75695,-4.58808 -31.53417,-8.35789c-6.04882,-1.93619 -17.44535,5.5815 -17.44535,5.5815" fill="none" stroke="#000000" stroke-width="3" stroke-linecap="round"/><path d="M216.87247,242.36154c2.01578,1.52016 1.82066,5.17813 -0.43581,8.17031c-2.25648,2.99218 -4.6933,4.95963 -6.70909,3.43948c-0.57612,-0.43446 1.41723,-4.15586 0.2883,-5.08889c-1.22173,-1.00972 -3.51632,2.09704 -3.34227,1.14698c0.22784,-1.24373 1.54963,-3.79101 2.46326,-5.00253c2.25648,-2.99218 5.71983,-4.1855 7.73562,-2.66535z" fill="#000000" stroke="#000000" stroke-width="3" stroke-linecap="butt"/></g></g></svg>