<svg version="1.1" xmlns="http://www.w3.org/2000/svg" xmlns:xlink="http://www.w3.org/1999/xlink" width="283.35021" height="314.07123" viewBox="0,0,283.35021,314.07123"><g transform="translate(-70.63411,-3.88489)"><g data-paper-data="{&quot;isPaintingLayer&quot;:true}" fill-rule="nonzero" stroke-linejoin="miter" stroke-miterlimit="10" stroke-dasharray="" stroke-dashoffset="0" style="mix-blend-mode: normal"><path d="M73.88411,98.93564v-91.80075h92.74714v91.80075l0.07361,20.10873l-24.77163,-20.10873z" fill="#2e2e2e" stroke="#161616" stroke-width="6.5" stroke-linecap="butt"/><text transform="translate(79.38209,21.75568) scale(0.26236,0.26236)" font-size="40" xml:space="preserve" fill="#ffffff" fill-rule="nonzero" stroke="none" stroke-width="1" stroke-linecap="butt" stroke-linejoin="miter" stroke-miterlimit="10" stroke-dasharray="" stroke-dashoffset="0" font-family="Sans Serif" font-weight="normal" text-anchor="start" style="mix-blend-mode: normal"><tspan x="0" dy="0">I CNA'T WAIT </tspan><tspan x="0" dy="48px">TO GO HOME</tspan><tspan x="0" dy="48px">AND BAKE WHIT</tspan><tspan x="0" dy="48px">GEGE!!!</tspan></text><g data-paper-data="{&quot;index&quot;:null}" stroke-linecap="butt"><path d="M315.49225,166.82539c-0.31133,-2.42015 -1.89986,12.66495 -7.0264,11.69357c-5.12655,-0.97138 -7.41571,-7.08832 -4.38669,-12.26329c2.56184,-4.37681 8.80664,-10.594 9.60807,-10.6971c3.02706,-0.38941 12.02961,4.12455 12.767,9.85665c0.73739,5.7321 -1.11877,10.69457 -4.14584,11.08398c-3.02706,0.38941 -6.07876,-3.9417 -6.81615,-9.67381z" fill="#d00000" stroke="#000000" stroke-width="1.5"/><g stroke="#af4c00"><path d="M290.85451,122.41228c-4.96962,-6.31329 -28.33534,-0.18571 -30.58394,-6.56771c-5.27518,-14.97209 6.63567,-41.17459 11.83154,-44.0092c7.41066,-4.04288 24.41835,9.89706 37.29339,33.49717c12.87505,23.60011 5.46543,55.68263 5.46543,55.68263c0,0 -6.55223,-16.42944 -24.00642,-38.60288z" fill="#ff6f00" stroke-width="3"/><path d="M303.80233,99.00832l2.25241,4.12868l-11.35385,6.19409l-2.25241,-4.12867z" fill="#ffffff" stroke-width="0"/><path d="M308.60738,106.83399l2.2524,4.12867l-11.35385,6.1941l-2.25241,-4.12867z" fill="#ffffff" stroke-width="0"/><path d="M312.04704,115.49248l1.59373,4.42484l-12.16833,4.38277l-1.59373,-4.42485z" fill="#ffffff" stroke-width="0"/><path d="M314.50642,125.13007l0.65572,4.65717l-12.80723,1.80324l-0.65572,-4.65718z" fill="#ffffff" stroke-width="0"/></g></g><g data-paper-data="{&quot;index&quot;:null}" stroke-linecap="butt"><path d="M351.96857,178.01562c2.36479,1.92938 1.32007,7.12361 -2.33345,11.60162c-3.65352,4.47801 -13.68209,3.55645 -16.04689,1.62707c-0.62609,-0.51081 -2.64534,-9.08832 -2.50917,-14.15793c0.161,-5.99411 5.33547,-9.97935 10.20174,-8.09667c4.86626,1.88268 -1.7519,15.53127 -0.20935,13.6406c3.65352,-4.47801 8.53232,-6.54408 10.89712,-4.61469z" fill="#d00000" stroke="#000000" stroke-width="1.5"/><g stroke="#af4c00"><path d="M337.46673,187.23068c0,0 -10.65218,31.15641 -34.0493,44.39675c-23.39711,13.24035 -45.20157,16.09507 -49.35916,8.74816c-2.91503,-5.15118 0.80942,-33.69181 13.19625,-43.61942c5.28001,-4.23174 21.88494,13.31194 29.43923,10.57563c26.53205,-9.61044 40.77298,-20.10112 40.77298,-20.10112z" fill="#ff6f00" stroke-width="3"/><path d="M288.95804,222.78751l4.09316,-2.3163l6.36984,11.2562l-4.09316,2.3163z" fill="#ffffff" stroke-width="0"/><path d="M297.17133,218.68003l4.09316,-2.3163l6.36984,11.2562l-4.09317,2.3163z" fill="#ffffff" stroke-width="0"/><path d="M303.01679,214.2522l3.69027,-2.91567l8.0181,10.14825l-3.69027,2.91567z" fill="#ffffff" stroke-width="0"/><path d="M308.29032,209.22027l3.01646,-3.60836l9.92298,8.29526l-3.01646,3.60836z" fill="#ffffff" stroke-width="0"/></g></g><g stroke="#000000" stroke-linecap="butt"><path d="M195.2823,235.69628l1.93288,-2.91099l-1.7671,-3.04237l8.03099,-0.23129l-0.16578,5.95337z" fill="#032b00" stroke-width="1.5"/><path d="M202.53495,244.48025l17.42473,-87.27581l12.01638,2.44651l-17.42473,87.27581z" fill="#ffffff" stroke-width="3"/><path d="M218.29902,248.70558c0.54207,2.06155 -0.32549,8.82027 -1.94345,13.02964c-1.26004,3.27818 -3.04156,8.17198 -3.78307,6.08777c-2.55325,-7.17653 -2.10461,-9.76131 -4.36898,-12.32321c-0.86814,-0.98221 1.18478,11.07195 -0.85763,13.39719c-1.18278,1.34658 -4.79175,0.64424 -7.60464,-1.58478c-2.35239,-1.8641 -4.07361,-5.18978 -4.06354,-5.51871c0.2712,-8.86056 -0.02378,-7.61003 1.45398,-15.01169c1.47776,-7.40167 7.74284,-12.37024 13.99346,-11.09763c6.25062,1.27261 5.04868,4.93916 7.17387,13.02144z" fill="#ffffff" stroke-width="3"/><path d="M201.52091,236.45005l1.69679,-8.49877l17.04649,3.47063l-1.69679,8.49877z" fill="#032b00" stroke-width="1.5"/></g><path d="M257.18674,291.12041v-58.84957h12.19001v58.84957c0,0 -0.83747,-1.11492 1.04495,10.71162c0.25284,1.58846 4.5549,8.34048 2.96234,10.66778c-0.77524,1.1329 -3.89978,-2.99295 -5.01302,-1.76985c-1.06805,1.17345 -3.11179,5.39577 -3.80528,5.72616c-2.18556,1.04122 -3.48887,-3.97679 -4.61868,-3.94819c-1.68988,0.04276 -3.53459,3.90577 -5.47303,1.03971c-2.17747,-3.21947 -1.10886,-9.06086 -0.77015,-9.45252c3.60661,-4.17044 3.48286,-12.9747 3.48286,-12.9747z" fill="#ffffff" stroke="#000000" stroke-width="3" stroke-linecap="butt"/><path d="M226.18674,289.12041v-58.84957h12.19001v58.84957c0,0 -0.83747,-1.11492 1.04495,10.71163c0.25283,1.58847 4.5549,8.34048 2.96234,10.66778c-0.77524,1.13291 -3.89978,-2.99294 -5.01301,-1.76984c-1.06805,1.17345 -3.11179,5.39577 -3.80528,5.72615c-2.18556,1.04122 -3.48887,-3.97678 -4.61868,-3.94819c-1.68988,0.04276 -3.53459,3.90577 -5.47303,1.0397c-2.17747,-3.21947 -1.10886,-9.06086 -0.77015,-9.45252c3.60661,-4.17044 3.48286,-12.97471 3.48286,-12.97471z" fill="#ffffff" stroke="#000000" stroke-width="3" stroke-linecap="butt"/><path d="M242.15308,162.57262v-13.35683h7.90123v13.35683z" fill="#ffffff" stroke="#000000" stroke-width="3" stroke-linecap="butt"/><g data-paper-data="{&quot;index&quot;:null}" stroke-linecap="butt"><path d="M171.7594,174.99921c-3.02707,-0.38941 -4.88323,-5.35187 -4.14584,-11.08397c0.73739,-5.7321 9.73994,-10.24606 12.767,-9.85666c0.80143,0.1031 7.04623,6.32029 9.60807,10.6971c3.02903,5.17498 0.73985,11.29191 -4.38669,12.2633c-5.12654,0.97138 -6.71507,-14.11373 -7.0264,-11.69357c-0.73738,5.7321 -3.78908,10.06321 -6.81614,9.67381z" fill="#d00000" stroke="#000000" stroke-width="1.5"/><g stroke="#af4c00"><path d="M179.20686,159.51517c0,0 -7.40962,-32.08252 5.46543,-55.68263c12.87504,-23.60011 29.88274,-37.54005 37.2934,-33.49716c5.19587,2.83461 17.10671,29.03711 11.83153,44.0092c-2.2486,6.38199 -25.61433,0.25441 -30.58394,6.56771c-17.45419,22.17344 -24.00641,38.60289 -24.00641,38.60289z" fill="#ff6f00" stroke-width="3"/><path d="M201.61931,103.70241l-2.2524,4.12867l-11.35385,-6.19409l2.2524,-4.12867z" fill="#ffffff" stroke-width="0"/><path d="M196.81426,111.52808l-2.2524,4.12867l-11.35385,-6.19409l2.2524,-4.12867z" fill="#ffffff" stroke-width="0"/><path d="M194.18908,118.37523l-1.59374,4.42485l-12.16833,-4.38277l1.59373,-4.42484z" fill="#ffffff" stroke-width="0"/><path d="M192.36861,125.43329l-0.65572,4.65718l-12.80723,-1.80324l0.65572,-4.65717z" fill="#ffffff" stroke-width="0"/></g></g><path d="M287.11481,107.29932c0,10.05157 0.44481,17.90029 -5.13247,25.28671c-1.57852,2.09055 -7.10053,5.44199 -9.01707,7.20792c-4.07737,3.75696 -4.63262,10.48628 -9.90035,12.42693c-4.53246,1.66978 -13.65284,-1.18263 -18.74841,-1.18263c-5.39013,0 -11.01784,1.33322 -15.76835,-0.52545c-4.39372,-1.71908 -7.96907,-6.50857 -11.52888,-9.52455c-5.83481,-4.94343 -12.24561,-6.7367 -14.86315,-14.16595c-1.63055,-4.62792 -0.63792,-14.32095 -0.63792,-19.52297c0,-4.85677 -1.10667,-15.69593 0.32311,-20.13161c2.81964,-8.74747 10.06869,-10.2552 17.06924,-15.54091c4.21992,-3.18622 8.56281,-9.66575 13.76877,-10.96512c3.56,-0.88854 7.77397,2.89871 11.63718,2.89871c6.54691,0 16.51296,-1.78985 22.06112,0.89587c5.50529,2.66497 6.60278,9.7873 10.51256,14.47105c3.02695,3.62615 7.83591,6.82332 9.5823,11.32815c1.93206,4.98377 0.64232,11.3574 0.64232,17.04386z" fill="#ffffff" stroke="#000000" stroke-width="3" stroke-linecap="butt"/><g stroke="#000000" stroke-linecap="butt"><path d="M276.25063,103.98155c0,10.27017 -4.9167,18.59578 -10.98176,18.59578c-6.06506,0 -10.98176,-8.32562 -10.98176,-18.59578c0,-10.27017 4.9167,-18.59578 10.98176,-18.59578c6.06506,0 10.98176,8.32562 10.98176,18.59578z" fill="#ffffff" stroke-width="1.5"/><path d="M275.95778,101.35347c0,6.71616 -3.41521,12.16069 -7.62807,12.16069c-2.94399,0 -5.49845,-2.65875 -6.77015,-6.55223c-0.54811,-1.67812 4.44856,-5.82956 4.44856,-5.82956c0,0 -4.82165,-4.65941 -3.99199,-6.60567c1.37231,-3.21924 3.68803,-5.33392 6.31358,-5.33392c4.21287,0 7.62807,5.44453 7.62807,12.16069z" fill="#000000" stroke-width="0"/></g><path d="M217.74394,95.96776l12.46324,10.582l-14.10933,5.40858" fill="none" stroke="#000000" stroke-width="5" stroke-linecap="round"/><path d="M222.6822,87.99935l1.1489,-2.04249l0.76594,1.91484z" fill="none" stroke="#000000" stroke-width="1.5" stroke-linecap="round"/><path d="M267.01572,126.11344l-2.01562,-2.95624" fill="none" stroke="#000000" stroke-width="1" stroke-linecap="round"/><path d="M268.57446,121.70596l1.61249,2.14999" fill="none" stroke="#000000" stroke-width="1" stroke-linecap="round"/><path d="M237.841,126.46031c0.93148,-0.63634 3.06506,-0.87075 3.85736,-0.84307c2.44411,0.08539 4.96903,1.30732 7.41954,0.95213c1.54047,-0.22329 5.34736,-1.25942 6.77737,-0.35507c0.11619,0.07348 0.22586,0.15454 0.33021,0.24177l0.04356,-0.06535l1.19116,0.79411c0.389,0.25122 0.6465,0.68859 0.6465,1.18611c0,0.74106 -0.57132,1.34868 -1.29752,1.40644l-1.3876,0.12615c-2.51831,0.57377 -3.53114,3.28178 -6.15866,3.99703c-1.74237,0.4743 -3.28526,-0.13728 -4.98549,-0.36908c-3.58355,-0.48856 -7.31143,-1.9254 -10.31602,-4.09009l-0.09583,0.23957l-1.31323,-0.52529c-0.53586,-0.20008 -0.91744,-0.71659 -0.91744,-1.32222c0,-0.77924 0.6317,-1.41093 1.41093,-1.41093c0.04907,0 0.09755,0.0025 0.14532,0.00739l1.41255,0.12841c1.10546,-0.00135 2.17094,-0.02552 3.23728,-0.098z" fill="#000000" stroke="none" stroke-width="0.5" stroke-linecap="butt"/><path d="M250.19253,130.42983l-1.41671,-3.16748l2.80778,-0.2784l-1.21961,3.5864z" fill="#ffffff" stroke="none" stroke-width="0" stroke-linecap="butt"/><path d="M264.20394,83.17082l1.22953,-2.18583l0.81969,2.04921z" fill="none" stroke="#000000" stroke-width="1.5" stroke-linecap="round"/><path d="M228.42,195.87064l-0.7525,-38.75363h36.11989v29.34741l15.22095,59.77173l-61.09149,-1.45895z" fill="#39ff2b" stroke="#000000" stroke-width="3" stroke-linecap="butt"/><path d="M231.78958,177.34488l-6.24197,-19.40072l5.07404,-1.63252l6.24197,19.40072z" fill="#032b00" stroke="#000000" stroke-width="1.5" stroke-linecap="butt"/><path d="M253.14667,176.54008l7.61062,-18.90579l4.94459,1.99047l-7.61062,18.90579z" fill="#032b00" stroke="#000000" stroke-width="1.5" stroke-linecap="butt"/><path d="M230.10822,270.45345v-96.88407h33.23531v96.88407z" fill="#032b00" stroke="#000000" stroke-width="1.5" stroke-linecap="butt"/><path d="M221.32908,202.82154v-11.91455h9.71976v11.91455z" fill="#032b00" stroke="#000000" stroke-width="1.5" stroke-linecap="butt"/><path d="M263.02997,202.19445v-11.91454h9.71976v11.91454z" fill="#032b00" stroke="#000000" stroke-width="1.5" stroke-linecap="butt"/><g stroke="#000000" stroke-linecap="butt"><path d="M301.25651,228.50221l-1.36262,-5.79769l7.91272,-1.39257l-1.11746,3.33617l2.48007,2.46153z" data-paper-data="{&quot;index&quot;:null}" fill="#032b00" stroke-width="1.5"/><path d="M292.56001,241.99431l-34.66238,-81.97078l11.27641,-4.81887l34.66239,81.97077z" data-paper-data="{&quot;index&quot;:null}" fill="#ffffff" stroke-width="3"/><path d="M293.64926,230.2918c5.86571,-2.50665 13.00385,1.09681 15.9435,8.04857c2.93964,6.95176 2.39859,5.78637 4.45058,14.41033c0.07617,0.32013 -0.93923,3.92454 -2.86748,6.22462c-2.30575,2.75034 -5.69901,4.16586 -7.12899,3.08538c-2.46926,-1.86574 -2.88869,-14.08627 -3.54097,-12.94919c-1.70138,2.96583 -0.74084,5.40707 -1.79482,12.95101c-0.30609,2.19091 -3.03766,-2.24323 -4.93273,-5.20007c-2.43338,-3.79675 -4.64575,-10.24178 -4.53043,-12.37028c0.45211,-8.34478 -1.46436,-11.69371 4.40135,-14.20036z" data-paper-data="{&quot;index&quot;:null}" fill="#ffffff" stroke-width="3"/><path d="M287.21394,235.94176l-3.37536,-7.98217l15.99676,-6.83607l3.37536,7.98217z" data-paper-data="{&quot;index&quot;:null}" fill="#032b00" stroke-width="1.5"/></g></g></g></svg>