<svg version="1.1" xmlns="http://www.w3.org/2000/svg" xmlns:xlink="http://www.w3.org/1999/xlink" width="246.61152" height="234.25561" viewBox="0,0,246.61152,234.25561"><g transform="translate(-66.6775,-81.28951)"><g data-paper-data="{&quot;isPaintingLayer&quot;:true}" fill-rule="nonzero" stroke-linejoin="miter" stroke-miterlimit="10" stroke-dasharray="" stroke-dashoffset="0" style="mix-blend-mode: normal"><g stroke-linecap="butt"><path d="M258.51844,272.14047c5.69682,-1.57091 11.87412,2.80966 13.79738,9.78429c1.92326,6.97462 -1.13581,13.90213 -6.83264,15.47304c-5.69682,1.57091 -11.87413,-2.80966 -13.79739,-9.78428c-1.92326,-6.97462 1.13582,-13.90213 6.83265,-15.47304z" fill="#ffb867" stroke="#a57642" stroke-width="3.5"/><path d="M250.38177,280.81557c-0.77077,-2.79517 0.87034,-5.68594 3.66551,-6.45671c1.88537,-0.5199 3.81423,0.05753 5.10667,1.34628c0.64652,-0.08064 1.28754,-0.03823 1.89561,0.11169c0.65105,-1.24354 1.79614,-2.22443 3.25605,-2.627c2.79517,-0.77078 5.68593,0.87033 6.45671,3.6655c0.49757,1.8044 -0.00997,3.64864 -1.18421,4.9367c0.87138,0.67092 1.54003,1.62018 1.85489,2.76202c0.04129,0.14973 0.07565,0.29972 0.1033,0.44966c1.44072,0.59945 2.60059,1.83227 3.04756,3.45317c0.77078,2.79517 -0.87033,5.68594 -3.6655,6.45671c-0.92856,0.25604 -1.86766,0.24593 -2.73609,0.01576c-0.65905,0.77877 -1.55153,1.37402 -2.60926,1.66569c-1.58594,0.43733 -3.20267,0.09821 -4.44547,-0.78762c-0.58326,0.52013 -1.29205,0.9175 -2.09642,1.1393c-2.79517,0.77078 -5.68594,-0.87033 -6.45671,-3.6655c-0.26174,-0.94921 -0.24536,-1.90943 -0.00009,-2.79393c-1.28679,-0.64213 -2.30603,-1.80728 -2.71841,-3.30278c-0.49572,-1.79772 0.00621,-3.63498 1.17119,-4.92236c-0.28029,-0.43577 -0.50033,-0.92076 -0.64533,-1.44659z" fill="#000000" stroke="none" stroke-width="0.5"/><path d="M252.32988,295.21582c2.66207,-0.73407 5.42709,0.87205 6.17584,3.58736c0.74875,2.71531 -0.8023,5.51158 -3.46437,6.24565c-2.66207,0.73407 -5.42708,-0.87205 -6.17583,-3.58735c-0.74875,-2.71531 0.8023,-5.51159 3.46437,-6.24565z" fill="#ffb867" stroke="#a57642" stroke-width="3.5"/><path d="M265.29389,295.58281c2.66206,-0.73407 5.42708,0.87205 6.17583,3.58735c0.74875,2.71531 -0.80231,5.51159 -3.46437,6.24565c-2.66206,0.73407 -5.42708,-0.87205 -6.17583,-3.58736c-0.74875,-2.71531 0.8023,-5.51158 3.46437,-6.24565z" fill="#ffb867" stroke="#a57642" stroke-width="3.5"/><path d="M275.72578,287.51959c2.66206,-0.73407 5.42708,0.87205 6.17583,3.58735c0.74875,2.71531 -0.8023,5.51158 -3.46436,6.24565c-2.66206,0.73407 -5.42709,-0.87205 -6.17584,-3.58736c-0.74875,-2.71531 0.8023,-5.51158 3.46437,-6.24565z" fill="#ffb867" stroke="#a57642" stroke-width="3.5"/><path d="M255.74171,305.66791l-5.41485,9.87722v0l-0.83996,-11.23274z" fill="#000000" stroke="none" stroke-width="0"/><path d="M270.57759,303.83568l0.26825,11.2609v0l-6.35952,-9.29712z" fill="#000000" stroke="none" stroke-width="0"/><path d="M282.26566,292.62246l6.77465,8.99912v0l-10.58356,-3.85594z" fill="#000000" stroke="none" stroke-width="0"/></g><g stroke-linecap="butt"><path d="M220.26757,273.39918c5.54542,2.04201 8.01421,9.20117 5.51417,15.99043c-2.50003,6.78926 -9.02217,10.63767 -14.56759,8.59566c-5.54542,-2.04201 -8.01421,-9.20118 -5.51417,-15.99044c2.50003,-6.78926 9.02217,-10.63766 14.56759,-8.59565z" fill="#ffb867" stroke="#a57642" stroke-width="3.5"/><path d="M208.60039,275.70992c1.00192,-2.72089 4.01986,-4.11438 6.74075,-3.11246c1.83526,0.67581 3.06661,2.26883 3.36629,4.06923c0.57246,0.3111 1.06876,0.71902 1.47565,1.19511c1.25361,-0.63144 2.75575,-0.76159 4.17686,-0.23829c2.72089,1.00192 4.11438,4.01986 3.11246,6.74074c-0.64678,1.75645 -2.1337,2.95974 -3.83849,3.32256c0.31737,1.05295 0.30783,2.21402 -0.10146,3.32551c-0.05367,0.14575 -0.11313,0.28769 -0.17801,0.42566c0.82176,1.32655 1.04628,3.00426 0.46527,4.58208c-1.00192,2.72089 -4.01985,4.11438 -6.74074,3.11246c-0.90387,-0.33284 -1.66127,-0.88815 -2.23302,-1.58115c-0.98935,0.24902 -2.06151,0.2129 -3.09113,-0.16625c-1.54379,-0.56847 -2.66027,-1.78596 -3.15434,-3.22997c-0.77707,0.08297 -1.58466,-0.00699 -2.36766,-0.29532c-2.72089,-1.00192 -4.11438,-4.01986 -3.11246,-6.74074c0.34024,-0.92398 0.91297,-1.69488 1.6276,-2.27089c-0.67178,-1.27156 -0.82142,-2.81235 -0.28536,-4.2681c0.64439,-1.74995 2.12269,-2.95081 3.81954,-3.31849c0.02605,-0.51748 0.12976,-1.03984 0.31824,-1.5517z" fill="#000000" stroke="none" stroke-width="0.5"/><path d="M201.79459,288.54906c2.59132,0.95421 3.90299,3.87045 2.92969,6.5136c-0.9733,2.64315 -3.86299,4.0123 -6.45431,3.05809c-2.59132,-0.95421 -3.90299,-3.87045 -2.9297,-6.5136c0.9733,-2.64315 3.86299,-4.0123 6.45431,-3.05809z" fill="#ffb867" stroke="#a57642" stroke-width="3.5"/><path d="M212.11766,296.39981c2.59132,0.95421 3.90299,3.87045 2.92969,6.51359c-0.9733,2.64315 -3.86299,4.0123 -6.45431,3.05809c-2.59132,-0.95421 -3.90299,-3.87045 -2.9297,-6.5136c0.9733,-2.64315 3.86299,-4.01229 6.45431,-3.05809z" fill="#ffb867" stroke="#a57642" stroke-width="3.5"/><path d="M225.29389,295.92353c2.59132,0.95421 3.90299,3.87045 2.9297,6.51359c-0.9733,2.64315 -3.86299,4.0123 -6.45431,3.05809c-2.59132,-0.95421 -3.90299,-3.87045 -2.92969,-6.5136c0.9733,-2.64315 3.86299,-4.01229 6.45431,-3.05809z" fill="#ffb867" stroke="#a57642" stroke-width="3.5"/><path d="M198.47855,299.03193l-10.15527,4.87347v0l5.86118,-9.61908z" fill="#000000" stroke="none" stroke-width="0"/><path d="M211.60425,306.18571l-6.34226,9.3089v0l0.24737,-11.26138z" fill="#000000" stroke="none" stroke-width="0"/><path d="M227.63658,303.88098l0.26366,11.26101v0l-6.35573,-9.29971z" fill="#000000" stroke="none" stroke-width="0"/></g><path d="M270.66667,180c0,16.66059 -13.72994,30.16666 -30.66667,30.16666c-16.93673,0 -30.66666,-13.50607 -30.66666,-30.16666c0,-16.66059 13.72993,-30.16666 30.66666,-30.16666c16.93673,0 30.66667,13.50607 30.66667,30.16666z" fill="#ffb867" stroke="#a57642" stroke-width="3.5" stroke-linecap="butt"/><path d="M261.95923,188.90361c0,0 -14.56481,3.13402 -22.1455,2.88689c-7.54503,-0.24597 -23.23216,-4.3662 -23.23216,-4.3662" fill="none" stroke="#a57642" stroke-width="3.5" stroke-linecap="round"/><path d="M251.85002,199.34389l-3.88198,-6.22336l6.3639,-0.67882l-2.28305,6.88096z" fill="#ffffff" stroke="#000000" stroke-width="1" stroke-linecap="butt"/><g stroke="#000000" stroke-width="1" stroke-linecap="butt"><path d="M238.5,171.0625c0,6.13036 -4.8801,11.1 -10.9,11.1c-6.0199,0 -10.9,-4.96964 -10.9,-11.1c0,-6.13036 4.8801,-11.1 10.9,-11.1c6.0199,0 10.9,4.96964 10.9,11.1z" fill="#ffffff"/><path d="M235.3,174.1625c0,4.30782 -3.58172,7.8 -8,7.8c-4.41828,0 -8,-3.49218 -8,-7.8c0,-4.30782 3.58172,-7.8 8,-7.8c4.41828,0 8,3.49218 8,7.8z" fill="#000000"/></g><g stroke="#000000" stroke-width="1" stroke-linecap="butt"><path d="M264.9,172.2625c0,6.13036 -4.88009,11.1 -10.9,11.1c-6.0199,0 -10.9,-4.96964 -10.9,-11.1c0,-6.13036 4.8801,-11.1 10.9,-11.1c6.0199,0 10.9,4.96964 10.9,11.1z" fill="#ffffff"/><path d="M261.7,175.3625c0,4.30782 -3.58172,7.8 -8,7.8c-4.41828,0 -8,-3.49218 -8,-7.8c0,-4.30782 3.58172,-7.8 8,-7.8c4.41828,0 8,3.49218 8,7.8z" fill="#000000"/></g><path d="M274.9,244.0625c0,20.3793 -15.4014,36.9 -34.4,36.9c-18.99859,0 -34.4,-16.52069 -34.4,-36.9c0,-20.3793 15.40141,-36.9 34.4,-36.9c18.9986,0 34.4,16.5207 34.4,36.9z" fill="#ffb867" stroke="#a57642" stroke-width="3.5" stroke-linecap="butt"/><path d="M224.1,211.5125c2.8995,0 5.25,2.3505 5.25,5.25c0,1.95574 -1.0694,3.66171 -2.65534,4.56506c-0.09412,0.6447 -0.30542,1.25137 -0.61158,1.79771c1.02572,0.95819 1.66692,2.32283 1.66692,3.83723c0,2.8995 -2.3505,5.25 -5.25,5.25c-1.87175,0 -3.51472,-0.97952 -4.44428,-2.45392c-0.87842,0.66168 -1.97126,1.05392 -3.15572,1.05392c-0.15532,0 -0.30906,-0.00675 -0.46095,-0.01996c-0.96087,1.22953 -2.45765,2.01996 -4.13905,2.01996c-2.8995,0 -5.25,-2.3505 -5.25,-5.25c0,-0.96321 0.25939,-1.86584 0.71213,-2.64183c-0.57555,-0.84236 -0.91214,-1.86096 -0.91214,-2.95817c0,-1.64514 0.75669,-3.11354 1.94102,-4.07614c-0.34637,-0.70054 -0.54102,-1.48946 -0.54102,-2.32386c0,-2.8995 2.3505,-5.25 5.25,-5.25c0.98463,0 1.90596,0.27106 2.69342,0.74263c0.9611,-1.06978 2.35527,-1.74263 3.90658,-1.74263c1.86481,0 3.50254,0.97227 4.43392,2.43756c0.49461,-0.15437 1.02062,-0.23756 1.56608,-0.23756z" fill="#000000" stroke="none" stroke-width="0.5" stroke-linecap="butt"/><path d="M220.3,227.3125c2.8995,0 5.25,2.3505 5.25,5.25c0,1.95574 -1.0694,3.66171 -2.65535,4.56506c-0.09412,0.6447 -0.30542,1.25138 -0.61158,1.79772c1.02572,0.95819 1.66692,2.32283 1.66692,3.83722c0,2.8995 -2.3505,5.25 -5.25,5.25c-1.87175,0 -3.51472,-0.97952 -4.44428,-2.45392c-0.87842,0.66168 -1.97126,1.05392 -3.15572,1.05392c-0.15532,0 -0.30905,-0.00675 -0.46094,-0.01996c-0.96087,1.22953 -2.45766,2.01996 -4.13906,2.01996c-2.8995,0 -5.25,-2.3505 -5.25,-5.25c0,-0.96321 0.25939,-1.86584 0.71213,-2.64184c-0.57555,-0.84236 -0.91213,-1.86096 -0.91213,-2.95817c0,-1.64514 0.75669,-3.11354 1.94102,-4.07614c-0.34637,-0.70054 -0.54102,-1.48946 -0.54102,-2.32385c0,-2.8995 2.3505,-5.25 5.25,-5.25c0.98463,0 1.90596,0.27106 2.69342,0.74263c0.9611,-1.06978 2.35527,-1.74263 3.90658,-1.74263c1.86481,0 3.50254,0.97227 4.43392,2.43755c0.49461,-0.15437 1.02062,-0.23755 1.56608,-0.23755z" fill="#000000" stroke="none" stroke-width="0.5" stroke-linecap="butt"/><path d="M236.7,206.3125c2.8995,0 5.25,2.3505 5.25,5.25c0,1.95574 -1.0694,3.66171 -2.65534,4.56506c-0.09412,0.6447 -0.30542,1.25138 -0.61158,1.79772c1.02572,0.95819 1.66692,2.32283 1.66692,3.83722c0,2.8995 -2.3505,5.25 -5.25,5.25c-1.87175,0 -3.51472,-0.97952 -4.44428,-2.45392c-0.87842,0.66168 -1.97126,1.05392 -3.15572,1.05392c-0.15532,0 -0.30906,-0.00675 -0.46095,-0.01996c-0.96087,1.22953 -2.45765,2.01996 -4.13905,2.01996c-2.8995,0 -5.25,-2.3505 -5.25,-5.25c0,-0.96321 0.25939,-1.86584 0.71213,-2.64184c-0.57555,-0.84236 -0.91214,-1.86096 -0.91214,-2.95817c0,-1.64514 0.75669,-3.11354 1.94102,-4.07614c-0.34637,-0.70054 -0.54102,-1.48946 -0.54102,-2.32385c0,-2.8995 2.3505,-5.25 5.25,-5.25c0.98463,0 1.90596,0.27106 2.69342,0.74263c0.9611,-1.06978 2.35527,-1.74263 3.90658,-1.74263c1.86481,0 3.50254,0.97227 4.43392,2.43755c0.49461,-0.15437 1.02062,-0.23755 1.56608,-0.23755z" fill="#000000" stroke="none" stroke-width="0.5" stroke-linecap="butt"/><path d="M241.3,222.7125c2.8995,0 5.25,2.3505 5.25,5.25c0,1.95574 -1.0694,3.66171 -2.65535,4.56506c-0.09412,0.6447 -0.30542,1.25138 -0.61158,1.79772c1.02572,0.95819 1.66692,2.32283 1.66692,3.83722c0,2.8995 -2.3505,5.25 -5.25,5.25c-1.87175,0 -3.51472,-0.97952 -4.44428,-2.45392c-0.87842,0.66168 -1.97126,1.05392 -3.15572,1.05392c-0.15532,0 -0.30905,-0.00674 -0.46094,-0.01995c-0.96087,1.22953 -2.45766,2.01995 -4.13906,2.01995c-2.8995,0 -5.25,-2.3505 -5.25,-5.25c0,-0.96321 0.25939,-1.86584 0.71213,-2.64183c-0.57555,-0.84236 -0.91213,-1.86096 -0.91213,-2.95817c0,-1.64514 0.75669,-3.11354 1.94102,-4.07614c-0.34637,-0.70054 -0.54102,-1.48946 -0.54102,-2.32386c0,-2.8995 2.3505,-5.25 5.25,-5.25c0.98463,0 1.90596,0.27106 2.69342,0.74263c0.9611,-1.06978 2.35527,-1.74263 3.90658,-1.74263c1.86481,0 3.50254,0.97227 4.43392,2.43756c0.49461,-0.15437 1.02062,-0.23755 1.56608,-0.23755z" fill="#000000" stroke="none" stroke-width="0.5" stroke-linecap="butt"/><path d="M251.9,206.7125c2.8995,0 5.25,2.3505 5.25,5.25c0,1.95574 -1.0694,3.66171 -2.65534,4.56506c-0.09412,0.6447 -0.30542,1.25138 -0.61158,1.79772c1.02572,0.95819 1.66693,2.32283 1.66693,3.83722c0,2.8995 -2.3505,5.25 -5.25,5.25c-1.87175,0 -3.51472,-0.97952 -4.44428,-2.45392c-0.87842,0.66168 -1.97126,1.05392 -3.15572,1.05392c-0.15532,0 -0.30905,-0.00674 -0.46094,-0.01995c-0.96087,1.22953 -2.45766,2.01995 -4.13906,2.01995c-2.8995,0 -5.25,-2.3505 -5.25,-5.25c0,-0.96321 0.25939,-1.86584 0.71214,-2.64183c-0.57555,-0.84236 -0.91214,-1.86096 -0.91214,-2.95817c0,-1.64514 0.75669,-3.11354 1.94102,-4.07614c-0.34637,-0.70054 -0.54102,-1.48946 -0.54102,-2.32386c0,-2.8995 2.3505,-5.25 5.25,-5.25c0.98463,0 1.90595,0.27106 2.69342,0.74263c0.9611,-1.06978 2.35527,-1.74263 3.90658,-1.74263c1.86481,0 3.50254,0.97227 4.43392,2.43756c0.49461,-0.15437 1.02062,-0.23755 1.56608,-0.23755z" fill="#000000" stroke="none" stroke-width="0.5" stroke-linecap="butt"/><path d="M246.1,203.3125c2.8995,0 5.25,2.3505 5.25,5.25c0,1.95574 -1.0694,3.66171 -2.65534,4.56506c-0.09412,0.6447 -0.30542,1.25138 -0.61158,1.79772c1.02572,0.95819 1.66692,2.32283 1.66692,3.83722c0,2.8995 -2.3505,5.25 -5.25,5.25c-1.87175,0 -3.51472,-0.97952 -4.44428,-2.45392c-0.87842,0.66168 -1.97126,1.05392 -3.15572,1.05392c-0.15532,0 -0.30906,-0.00675 -0.46095,-0.01996c-0.96087,1.22953 -2.45765,2.01996 -4.13905,2.01996c-2.8995,0 -5.25,-2.3505 -5.25,-5.25c0,-0.96321 0.25939,-1.86584 0.71213,-2.64184c-0.57555,-0.84236 -0.91214,-1.86096 -0.91214,-2.95817c0,-1.64514 0.75669,-3.11354 1.94102,-4.07614c-0.34637,-0.70054 -0.54102,-1.48946 -0.54102,-2.32385c0,-2.8995 2.3505,-5.25 5.25,-5.25c0.98463,0 1.90596,0.27106 2.69342,0.74263c0.9611,-1.06978 2.35527,-1.74263 3.90658,-1.74263c1.86481,0 3.50254,0.97227 4.43392,2.43755c0.49461,-0.15437 1.02062,-0.23755 1.56608,-0.23755z" fill="#000000" stroke="none" stroke-width="0.5" stroke-linecap="butt"/><path d="M257.7,224.1125c2.8995,0 5.25,2.3505 5.25,5.25c0,1.95574 -1.0694,3.66171 -2.65535,4.56506c-0.09413,0.6447 -0.30542,1.25138 -0.61158,1.79772c1.02573,0.95819 1.66693,2.32283 1.66693,3.83722c0,2.8995 -2.3505,5.25 -5.25,5.25c-1.87175,0 -3.51472,-0.97952 -4.44428,-2.45392c-0.87842,0.66168 -1.97126,1.05392 -3.15572,1.05392c-0.15532,0 -0.30906,-0.00674 -0.46095,-0.01995c-0.96087,1.22953 -2.45765,2.01995 -4.13905,2.01995c-2.8995,0 -5.25,-2.3505 -5.25,-5.25c0,-0.96321 0.25939,-1.86584 0.71213,-2.64183c-0.57555,-0.84236 -0.91214,-1.86096 -0.91214,-2.95817c0,-1.64514 0.75669,-3.11354 1.94102,-4.07614c-0.34637,-0.70054 -0.54102,-1.48946 -0.54102,-2.32386c0,-2.8995 2.3505,-5.25 5.25,-5.25c0.98463,0 1.90596,0.27106 2.69342,0.74263c0.9611,-1.06978 2.35527,-1.74263 3.90658,-1.74263c1.86481,0 3.50254,0.97227 4.43392,2.43756c0.4946,-0.15437 1.02062,-0.23755 1.56608,-0.23755z" fill="#000000" stroke="none" stroke-width="0.5" stroke-linecap="butt"/><path d="M263.9,211.7125c2.8995,0 5.25,2.3505 5.25,5.25c0,1.95574 -1.0694,3.66171 -2.65534,4.56506c-0.09413,0.6447 -0.30542,1.25138 -0.61158,1.79772c1.02573,0.95819 1.66692,2.32283 1.66692,3.83722c0,2.8995 -2.3505,5.25 -5.25,5.25c-1.87175,0 -3.51472,-0.97952 -4.44428,-2.45392c-0.87842,0.66168 -1.97127,1.05392 -3.15572,1.05392c-0.15532,0 -0.30905,-0.00674 -0.46094,-0.01995c-0.96087,1.22953 -2.45766,2.01995 -4.13906,2.01995c-2.8995,0 -5.25,-2.3505 -5.25,-5.25c0,-0.96321 0.25939,-1.86584 0.71214,-2.64183c-0.57555,-0.84236 -0.91214,-1.86096 -0.91214,-2.95817c0,-1.64514 0.75669,-3.11354 1.94102,-4.07614c-0.34637,-0.70054 -0.54102,-1.48946 -0.54102,-2.32386c0,-2.8995 2.3505,-5.25 5.25,-5.25c0.98463,0 1.90595,0.27106 2.69342,0.74263c0.9611,-1.06978 2.35527,-1.74263 3.90658,-1.74263c1.86482,0 3.50254,0.97227 4.43392,2.43756c0.4946,-0.15437 1.02062,-0.23755 1.56608,-0.23755z" fill="#000000" stroke="none" stroke-width="0.5" stroke-linecap="butt"/><path d="M274.7,216.7125c2.8995,0 5.25,2.3505 5.25,5.25c0,1.95574 -1.0694,3.66171 -2.65535,4.56506c-0.09413,0.6447 -0.30542,1.25138 -0.61158,1.79772c1.02573,0.95819 1.66693,2.32283 1.66693,3.83722c0,2.8995 -2.3505,5.25 -5.25,5.25c-1.87175,0 -3.51472,-0.97952 -4.44428,-2.45392c-0.87842,0.66168 -1.97126,1.05392 -3.15572,1.05392c-0.15531,0 -0.30906,-0.00674 -0.46094,-0.01995c-0.96087,1.22953 -2.45766,2.01995 -4.13906,2.01995c-2.8995,0 -5.25,-2.3505 -5.25,-5.25c0,-0.96321 0.25939,-1.86584 0.71214,-2.64183c-0.57555,-0.84236 -0.91214,-1.86096 -0.91214,-2.95817c0,-1.64514 0.75669,-3.11354 1.94102,-4.07614c-0.34637,-0.70054 -0.54102,-1.48946 -0.54102,-2.32386c0,-2.8995 2.3505,-5.25 5.25,-5.25c0.98464,0 1.90596,0.27106 2.69342,0.74263c0.9611,-1.06978 2.35526,-1.74263 3.90658,-1.74263c1.86482,0 3.50254,0.97227 4.43392,2.43756c0.4946,-0.15437 1.02062,-0.23755 1.56608,-0.23755z" fill="#000000" stroke="none" stroke-width="0.5" stroke-linecap="butt"/><path d="M272.9,235.1125c2.8995,0 5.25,2.3505 5.25,5.25c0,1.95574 -1.0694,3.66171 -2.65534,4.56506c-0.09413,0.6447 -0.30542,1.25138 -0.61158,1.79772c1.02573,0.95819 1.66692,2.32283 1.66692,3.83722c0,2.8995 -2.3505,5.25 -5.25,5.25c-1.87175,0 -3.51472,-0.97952 -4.44428,-2.45392c-0.87842,0.66168 -1.97127,1.05392 -3.15572,1.05392c-0.15531,0 -0.30906,-0.00674 -0.46094,-0.01995c-0.96087,1.22953 -2.45765,2.01996 -4.13905,2.01996c-2.8995,0 -5.25,-2.35051 -5.25,-5.25c0,-0.96321 0.25939,-1.86584 0.71214,-2.64183c-0.57555,-0.84236 -0.91214,-1.86096 -0.91214,-2.95817c0,-1.64514 0.75669,-3.11354 1.94102,-4.07614c-0.34637,-0.70054 -0.54102,-1.48946 -0.54102,-2.32386c0,-2.8995 2.3505,-5.25 5.25,-5.25c0.98464,0 1.90596,0.27106 2.69342,0.74263c0.9611,-1.06978 2.35526,-1.74263 3.90658,-1.74263c1.86482,0 3.50254,0.97227 4.43392,2.43756c0.4946,-0.15437 1.02062,-0.23755 1.56608,-0.23755z" fill="#000000" stroke="none" stroke-width="0.5" stroke-linecap="butt"/><path d="M275.7,242.5125c2.8995,0 5.25,2.3505 5.25,5.25c0,1.95574 -1.0694,3.66171 -2.65535,4.56506c-0.09413,0.6447 -0.30542,1.25137 -0.61158,1.79771c1.02573,0.95819 1.66693,2.32283 1.66693,3.83722c0,2.8995 -2.3505,5.25 -5.25,5.25c-1.87175,0 -3.51472,-0.97952 -4.44428,-2.45392c-0.87842,0.66168 -1.97126,1.05392 -3.15572,1.05392c-0.15531,0 -0.30906,-0.00674 -0.46094,-0.01995c-0.96087,1.22953 -2.45766,2.01995 -4.13906,2.01995c-2.8995,0 -5.25,-2.3505 -5.25,-5.25c0,-0.96321 0.25939,-1.86584 0.71214,-2.64183c-0.57555,-0.84236 -0.91214,-1.86096 -0.91214,-2.95817c0,-1.64514 0.75669,-3.11354 1.94102,-4.07614c-0.34637,-0.70054 -0.54102,-1.48946 -0.54102,-2.32386c0,-2.8995 2.3505,-5.25 5.25,-5.25c0.98464,0 1.90596,0.27106 2.69342,0.74263c0.9611,-1.06978 2.35526,-1.74263 3.90658,-1.74263c1.86482,0 3.50254,0.97227 4.43392,2.43756c0.4946,-0.15437 1.02062,-0.23756 1.56608,-0.23756z" fill="#000000" stroke="none" stroke-width="0.5" stroke-linecap="butt"/><path d="M268.3,257.5125c2.8995,0 5.25,2.3505 5.25,5.25c0,1.95574 -1.0694,3.66171 -2.65535,4.56506c-0.09413,0.6447 -0.30542,1.25137 -0.61158,1.79771c1.02573,0.95819 1.66692,2.32283 1.66692,3.83722c0,2.8995 -2.3505,5.25 -5.25,5.25c-1.87175,0 -3.51472,-0.97952 -4.44428,-2.45392c-0.87842,0.66168 -1.97126,1.05392 -3.15572,1.05392c-0.15531,0 -0.30906,-0.00674 -0.46095,-0.01995c-0.96087,1.22953 -2.45765,2.01995 -4.13905,2.01995c-2.8995,0 -5.25,-2.3505 -5.25,-5.25c0,-0.96321 0.25939,-1.86584 0.71213,-2.64184c-0.57555,-0.84236 -0.91213,-1.86095 -0.91213,-2.95817c0,-1.64513 0.75669,-3.11354 1.94102,-4.07614c-0.34637,-0.70054 -0.54102,-1.48946 -0.54102,-2.32385c0,-2.8995 2.3505,-5.25 5.25,-5.25c0.98464,0 1.90596,0.27106 2.69342,0.74263c0.9611,-1.06978 2.35527,-1.74263 3.90658,-1.74263c1.86482,0 3.50254,0.97227 4.43392,2.43755c0.4946,-0.15437 1.02062,-0.23755 1.56608,-0.23755z" fill="#000000" stroke="none" stroke-width="0.5" stroke-linecap="butt"/><path d="M260.3,243.7125c2.8995,0 5.25,2.3505 5.25,5.25c0,1.95574 -1.0694,3.66171 -2.65535,4.56506c-0.09413,0.6447 -0.30542,1.25138 -0.61158,1.79772c1.02573,0.9582 1.66692,2.32283 1.66692,3.83723c0,2.8995 -2.3505,5.25 -5.25,5.25c-1.87175,0 -3.51472,-0.97952 -4.44428,-2.45392c-0.87842,0.66168 -1.97126,1.05392 -3.15572,1.05392c-0.15532,0 -0.30905,-0.00674 -0.46094,-0.01995c-0.96087,1.22953 -2.45766,2.01995 -4.13906,2.01995c-2.8995,0 -5.25,-2.3505 -5.25,-5.25c0,-0.96321 0.25939,-1.86584 0.71213,-2.64184c-0.57555,-0.84236 -0.91213,-1.86095 -0.91213,-2.95816c0,-1.64514 0.75669,-3.11354 1.94102,-4.07614c-0.34637,-0.70054 -0.54102,-1.48946 -0.54102,-2.32386c0,-2.8995 2.3505,-5.25 5.25,-5.25c0.98463,0 1.90596,0.27106 2.69342,0.74263c0.9611,-1.06978 2.35527,-1.74263 3.90658,-1.74263c1.86482,0 3.50254,0.97227 4.43392,2.43756c0.4946,-0.15437 1.02062,-0.23755 1.56608,-0.23755z" fill="#000000" stroke="none" stroke-width="0.5" stroke-linecap="butt"/><path d="M256.9,237.5125c2.8995,0 5.25,2.3505 5.25,5.25c0,1.95574 -1.0694,3.66171 -2.65534,4.56506c-0.09413,0.6447 -0.30542,1.25137 -0.61158,1.79771c1.02573,0.95819 1.66692,2.32283 1.66692,3.83723c0,2.8995 -2.3505,5.25 -5.25,5.25c-1.87175,0 -3.51472,-0.97952 -4.44428,-2.45392c-0.87842,0.66168 -1.97126,1.05392 -3.15572,1.05392c-0.15532,0 -0.30905,-0.00674 -0.46094,-0.01995c-0.96087,1.22953 -2.45766,2.01995 -4.13906,2.01995c-2.8995,0 -5.25,-2.3505 -5.25,-5.25c0,-0.96321 0.25939,-1.86584 0.71214,-2.64183c-0.57555,-0.84236 -0.91214,-1.86096 -0.91214,-2.95817c0,-1.64514 0.75669,-3.11354 1.94102,-4.07614c-0.34637,-0.70054 -0.54102,-1.48946 -0.54102,-2.32386c0,-2.8995 2.3505,-5.25 5.25,-5.25c0.98463,0 1.90595,0.27106 2.69342,0.74263c0.9611,-1.06978 2.35527,-1.74263 3.90658,-1.74263c1.86481,0 3.50254,0.97227 4.43392,2.43756c0.49461,-0.15437 1.02062,-0.23756 1.56608,-0.23756z" fill="#000000" stroke="none" stroke-width="0.5" stroke-linecap="butt"/><path d="M239.7,238.5125c2.8995,0 5.25,2.3505 5.25,5.25c0,1.95574 -1.0694,3.66171 -2.65534,4.56506c-0.09412,0.6447 -0.30542,1.25137 -0.61158,1.79771c1.02572,0.95819 1.66692,2.32283 1.66692,3.83723c0,2.89949 -2.3505,5.25 -5.25,5.25c-1.87175,0 -3.51472,-0.97952 -4.44428,-2.45392c-0.87842,0.66168 -1.97126,1.05392 -3.15572,1.05392c-0.15532,0 -0.30906,-0.00674 -0.46095,-0.01995c-0.96087,1.22953 -2.45765,2.01995 -4.13905,2.01995c-2.8995,0 -5.25,-2.3505 -5.25,-5.25c0,-0.96321 0.25939,-1.86584 0.71213,-2.64183c-0.57555,-0.84236 -0.91214,-1.86096 -0.91214,-2.95817c0,-1.64514 0.75669,-3.11354 1.94102,-4.07614c-0.34637,-0.70054 -0.54102,-1.48946 -0.54102,-2.32386c0,-2.8995 2.3505,-5.25 5.25,-5.25c0.98463,0 1.90596,0.27106 2.69342,0.74263c0.9611,-1.06978 2.35527,-1.74263 3.90658,-1.74263c1.86481,0 3.50254,0.97227 4.43392,2.43756c0.49461,-0.15437 1.02062,-0.23756 1.56608,-0.23756z" fill="#000000" stroke="none" stroke-width="0.5" stroke-linecap="butt"/><path d="M220.5,243.1125c2.8995,0 5.25,2.3505 5.25,5.25c0,1.95574 -1.0694,3.66171 -2.65535,4.56506c-0.09412,0.6447 -0.30542,1.25138 -0.61158,1.79772c1.02572,0.95819 1.66692,2.32283 1.66692,3.83722c0,2.8995 -2.3505,5.25 -5.25,5.25c-1.87175,0 -3.51472,-0.97952 -4.44428,-2.45392c-0.87842,0.66168 -1.97126,1.05392 -3.15572,1.05392c-0.15532,0 -0.30906,-0.00675 -0.46095,-0.01996c-0.96087,1.22953 -2.45766,2.01996 -4.13906,2.01996c-2.8995,0 -5.25,-2.3505 -5.25,-5.25c0,-0.96321 0.25939,-1.86584 0.71214,-2.64184c-0.57555,-0.84236 -0.91214,-1.86096 -0.91214,-2.95817c0,-1.64514 0.75669,-3.11354 1.94102,-4.07614c-0.34637,-0.70054 -0.54102,-1.48946 -0.54102,-2.32386c0,-2.8995 2.3505,-5.25 5.25,-5.25c0.98463,0 1.90596,0.27106 2.69342,0.74263c0.9611,-1.06978 2.35527,-1.74263 3.90658,-1.74263c1.86481,0 3.50254,0.97227 4.43392,2.43756c0.49461,-0.15437 1.02062,-0.23755 1.56608,-0.23755z" fill="#000000" stroke="none" stroke-width="0.5" stroke-linecap="butt"/><path d="M255.5,264.1125c2.8995,0 5.25,2.3505 5.25,5.25c0,1.95574 -1.0694,3.66171 -2.65535,4.56506c-0.09413,0.6447 -0.30542,1.25137 -0.61158,1.79771c1.02573,0.95819 1.66692,2.32283 1.66692,3.83722c0,2.8995 -2.3505,5.25 -5.25,5.25c-1.87175,0 -3.51472,-0.97952 -4.44428,-2.45392c-0.87842,0.66168 -1.97126,1.05392 -3.15572,1.05392c-0.15532,0 -0.30906,-0.00675 -0.46095,-0.01996c-0.96087,1.22953 -2.45766,2.01996 -4.13906,2.01996c-2.8995,0 -5.25,-2.3505 -5.25,-5.25c0,-0.96321 0.25939,-1.86584 0.71214,-2.64184c-0.57555,-0.84236 -0.91214,-1.86095 -0.91214,-2.95817c0,-1.64513 0.75669,-3.11354 1.94102,-4.07614c-0.34637,-0.70054 -0.54102,-1.48946 -0.54102,-2.32385c0,-2.8995 2.3505,-5.25 5.25,-5.25c0.98463,0 1.90596,0.27106 2.69342,0.74263c0.9611,-1.06979 2.35527,-1.74263 3.90658,-1.74263c1.86481,0 3.50254,0.97227 4.43392,2.43755c0.49461,-0.15437 1.02062,-0.23755 1.56608,-0.23755z" fill="#000000" stroke="none" stroke-width="0.5" stroke-linecap="butt"/><path d="M242.5,267.9125c2.8995,0 5.25,2.3505 5.25,5.25c0,1.95574 -1.0694,3.66171 -2.65535,4.56506c-0.09412,0.6447 -0.30542,1.25138 -0.61158,1.79772c1.02572,0.95819 1.66692,2.32283 1.66692,3.83722c0,2.8995 -2.3505,5.25 -5.25,5.25c-1.87175,0 -3.51472,-0.97952 -4.44428,-2.45392c-0.87842,0.66168 -1.97126,1.05392 -3.15572,1.05392c-0.15532,0 -0.30906,-0.00674 -0.46095,-0.01995c-0.96087,1.22953 -2.45766,2.01995 -4.13906,2.01995c-2.8995,0 -5.25,-2.3505 -5.25,-5.25c0,-0.96321 0.25939,-1.86584 0.71214,-2.64183c-0.57555,-0.84236 -0.91214,-1.86095 -0.91214,-2.95817c0,-1.64513 0.75669,-3.11354 1.94102,-4.07614c-0.34637,-0.70054 -0.54102,-1.48946 -0.54102,-2.32386c0,-2.8995 2.3505,-5.25 5.25,-5.25c0.98463,0 1.90596,0.27106 2.69342,0.74263c0.9611,-1.06979 2.35527,-1.74263 3.90658,-1.74263c1.86481,0 3.50254,0.97228 4.43392,2.43756c0.49461,-0.15437 1.02062,-0.23755 1.56608,-0.23755z" fill="#000000" stroke="none" stroke-width="0.5" stroke-linecap="butt"/><path d="M247.7,254.7125c2.8995,0 5.25,2.3505 5.25,5.25c0,1.95574 -1.0694,3.66171 -2.65534,4.56506c-0.09412,0.6447 -0.30542,1.25137 -0.61158,1.79771c1.02572,0.95819 1.66692,2.32283 1.66692,3.83723c0,2.8995 -2.3505,5.25 -5.25,5.25c-1.87175,0 -3.51472,-0.97952 -4.44428,-2.45392c-0.87842,0.66168 -1.97126,1.05392 -3.15572,1.05392c-0.15532,0 -0.30906,-0.00674 -0.46095,-0.01995c-0.96087,1.22953 -2.45765,2.01995 -4.13905,2.01995c-2.8995,0 -5.25,-2.3505 -5.25,-5.25c0,-0.96321 0.25939,-1.86584 0.71213,-2.64184c-0.57555,-0.84236 -0.91214,-1.86095 -0.91214,-2.95816c0,-1.64513 0.75669,-3.11354 1.94102,-4.07614c-0.34637,-0.70054 -0.54102,-1.48946 -0.54102,-2.32386c0,-2.8995 2.3505,-5.25 5.25,-5.25c0.98463,0 1.90596,0.27106 2.69342,0.74263c0.9611,-1.06978 2.35527,-1.74263 3.90658,-1.74263c1.86481,0 3.50254,0.97227 4.43392,2.43756c0.49461,-0.15437 1.02062,-0.23755 1.56608,-0.23755z" fill="#000000" stroke="none" stroke-width="0.5" stroke-linecap="butt"/><path d="M236.1,256.3125c2.8995,0 5.25,2.3505 5.25,5.25c0,1.95574 -1.0694,3.66171 -2.65534,4.56506c-0.09412,0.6447 -0.30542,1.25137 -0.61158,1.79771c1.02572,0.95819 1.66692,2.32283 1.66692,3.83722c0,2.8995 -2.3505,5.25 -5.25,5.25c-1.87175,0 -3.51472,-0.97952 -4.44428,-2.45392c-0.87842,0.66168 -1.97126,1.05392 -3.15572,1.05392c-0.15532,0 -0.30906,-0.00675 -0.46095,-0.01996c-0.96087,1.22953 -2.45765,2.01996 -4.13905,2.01996c-2.8995,0 -5.25,-2.3505 -5.25,-5.25c0,-0.96321 0.25939,-1.86584 0.71213,-2.64184c-0.57555,-0.84236 -0.91214,-1.86095 -0.91214,-2.95817c0,-1.64513 0.75669,-3.11354 1.94102,-4.07614c-0.34637,-0.70054 -0.54102,-1.48946 -0.54102,-2.32385c0,-2.8995 2.3505,-5.25 5.25,-5.25c0.98463,0 1.90596,0.27106 2.69342,0.74263c0.9611,-1.06978 2.35527,-1.74263 3.90658,-1.74263c1.86481,0 3.50254,0.97227 4.43392,2.43755c0.49461,-0.15437 1.02062,-0.23755 1.56608,-0.23755z" fill="#000000" stroke="none" stroke-width="0.5" stroke-linecap="butt"/><path d="M224.5,260.3125c2.8995,0 5.25,2.3505 5.25,5.25c0,1.95574 -1.0694,3.66171 -2.65535,4.56506c-0.09412,0.6447 -0.30542,1.25137 -0.61158,1.79771c1.02572,0.95819 1.66692,2.32283 1.66692,3.83722c0,2.8995 -2.3505,5.25 -5.25,5.25c-1.87175,0 -3.51472,-0.97952 -4.44428,-2.45392c-0.87842,0.66168 -1.97126,1.05392 -3.15572,1.05392c-0.15532,0 -0.30906,-0.00675 -0.46095,-0.01996c-0.96087,1.22953 -2.45766,2.01996 -4.13906,2.01996c-2.8995,0 -5.25,-2.3505 -5.25,-5.25c0,-0.96321 0.25939,-1.86584 0.71214,-2.64184c-0.57555,-0.84236 -0.91214,-1.86095 -0.91214,-2.95817c0,-1.64513 0.75669,-3.11354 1.94102,-4.07614c-0.34637,-0.70054 -0.54102,-1.48946 -0.54102,-2.32385c0,-2.8995 2.3505,-5.25 5.25,-5.25c0.98463,0 1.90596,0.27106 2.69342,0.74263c0.9611,-1.06979 2.35527,-1.74263 3.90658,-1.74263c1.86481,0 3.50254,0.97227 4.43392,2.43755c0.49461,-0.15437 1.02062,-0.23755 1.56608,-0.23755z" fill="#000000" stroke="none" stroke-width="0.5" stroke-linecap="butt"/><path d="M246.7,143.9125c2.8995,0 5.25,2.3505 5.25,5.25c0,1.95574 -1.0694,3.66171 -2.65534,4.56506c-0.09412,0.6447 -0.30542,1.25137 -0.61158,1.79771c1.02572,0.95819 1.66692,2.32283 1.66692,3.83723c0,2.8995 -2.3505,5.25 -5.25,5.25c-1.87175,0 -3.51472,-0.97952 -4.44428,-2.45392c-0.87842,0.66168 -1.97126,1.05392 -3.15572,1.05392c-0.15532,0 -0.30906,-0.00675 -0.46095,-0.01996c-0.96087,1.22953 -2.45765,2.01996 -4.13905,2.01996c-2.8995,0 -5.25,-2.3505 -5.25,-5.25c0,-0.96321 0.25939,-1.86584 0.71213,-2.64184c-0.57555,-0.84236 -0.91214,-1.86095 -0.91214,-2.95816c0,-1.64514 0.75669,-3.11354 1.94102,-4.07615c-0.34637,-0.70054 -0.54102,-1.48946 -0.54102,-2.32385c0,-2.8995 2.3505,-5.25 5.25,-5.25c0.98463,0 1.90596,0.27106 2.69342,0.74263c0.9611,-1.06978 2.35527,-1.74263 3.90658,-1.74263c1.86481,0 3.50254,0.97227 4.43392,2.43756c0.49461,-0.15437 1.02062,-0.23756 1.56608,-0.23756z" fill="#000000" stroke="none" stroke-width="0.5" stroke-linecap="butt"/><path d="M276.15107,183.37548c2.45531,0 4.44574,1.99043 4.44574,4.44574c0,1.65614 -0.90558,3.10077 -2.24857,3.86573c-0.0797,0.54593 -0.25863,1.05967 -0.51789,1.52232c0.8686,0.81141 1.41156,1.96699 1.41156,3.2494c0,2.45532 -1.99043,4.44574 -4.44574,4.44574c-1.58501,0 -2.9763,-0.82946 -3.76346,-2.078c-0.74385,0.56031 -1.66929,0.89247 -2.67229,0.89247c-0.13152,0 -0.26171,-0.00571 -0.39033,-0.0169c-0.81367,1.04118 -2.08116,1.71051 -3.50499,1.71051c-2.45531,0 -4.44574,-1.99043 -4.44574,-4.44574c0,-0.81565 0.21965,-1.58001 0.60305,-2.23713c-0.48738,-0.71332 -0.7724,-1.57587 -0.7724,-2.505c0,-1.39311 0.64077,-2.63657 1.64367,-3.45171c-0.29331,-0.59322 -0.45814,-1.26129 -0.45814,-1.96786c0,-2.45532 1.99043,-4.44575 4.44574,-4.44575c0.8338,0 1.61399,0.22954 2.28082,0.62887c0.81387,-0.9059 1.99446,-1.47568 3.30813,-1.47568c1.57914,0 2.96598,0.82333 3.75468,2.06414c0.41884,-0.13072 0.86427,-0.20116 1.32617,-0.20116z" fill="#000000" stroke="none" stroke-width="0.5" stroke-linecap="butt"/><path d="M268.55107,195.17548c2.45531,0 4.44574,1.99043 4.44574,4.44575c0,1.65614 -0.90558,3.10076 -2.24857,3.86573c-0.0797,0.54593 -0.25863,1.05967 -0.51789,1.52232c0.8686,0.81141 1.41156,1.96699 1.41156,3.24939c0,2.45532 -1.99043,4.44575 -4.44574,4.44575c-1.58501,0 -2.9763,-0.82946 -3.76346,-2.078c-0.74385,0.56031 -1.66929,0.89247 -2.67229,0.89247c-0.13152,0 -0.26171,-0.00572 -0.39033,-0.0169c-0.81367,1.04118 -2.08116,1.71052 -3.50499,1.71052c-2.45532,0 -4.44575,-1.99043 -4.44575,-4.44575c0,-0.81565 0.21965,-1.58001 0.60304,-2.23713c-0.48738,-0.71332 -0.7724,-1.57587 -0.7724,-2.505c0,-1.39311 0.64077,-2.63657 1.64367,-3.45172c-0.29331,-0.59322 -0.45814,-1.26129 -0.45814,-1.96786c0,-2.45532 1.99043,-4.44574 4.44575,-4.44574c0.8338,0 1.61398,0.22953 2.28081,0.62886c0.81387,-0.9059 1.99446,-1.47567 3.30813,-1.47567c1.57914,0 2.96598,0.82333 3.75468,2.06414c0.41884,-0.13072 0.86427,-0.20116 1.32617,-0.20116z" fill="#000000" stroke="none" stroke-width="0.5" stroke-linecap="butt"/><path d="M261.95107,204.37548c2.45531,0 4.44574,1.99043 4.44574,4.44574c0,1.65614 -0.90558,3.10077 -2.24857,3.86573c-0.0797,0.54593 -0.25863,1.05967 -0.51789,1.52232c0.8686,0.81141 1.41156,1.96699 1.41156,3.2494c0,2.45532 -1.99043,4.44574 -4.44575,4.44574c-1.58501,0 -2.97629,-0.82946 -3.76345,-2.078c-0.74385,0.56031 -1.66929,0.89247 -2.67229,0.89247c-0.13152,0 -0.26171,-0.00571 -0.39033,-0.0169c-0.81367,1.04118 -2.08116,1.71051 -3.50499,1.71051c-2.45532,0 -4.44575,-1.99043 -4.44575,-4.44574c0,-0.81565 0.21966,-1.58001 0.60305,-2.23713c-0.48738,-0.71332 -0.7724,-1.57587 -0.7724,-2.505c0,-1.39311 0.64077,-2.63657 1.64367,-3.45171c-0.29331,-0.59322 -0.45814,-1.26129 -0.45814,-1.96786c0,-2.45532 1.99043,-4.44575 4.44574,-4.44575c0.8338,0 1.61399,0.22954 2.28082,0.62887c0.81387,-0.9059 1.99446,-1.47568 3.30812,-1.47568c1.57914,0 2.96598,0.82333 3.75468,2.06414c0.41884,-0.13072 0.86428,-0.20116 1.32617,-0.20116z" fill="#000000" stroke="none" stroke-width="0.5" stroke-linecap="butt"/><path d="M212.35107,174.77548c2.45532,0 4.44574,1.99043 4.44574,4.44575c0,1.65614 -0.90558,3.10076 -2.24857,3.86573c-0.0797,0.54593 -0.25863,1.05967 -0.51789,1.52232c0.86859,0.81141 1.41156,1.96699 1.41156,3.24939c0,2.45532 -1.99043,4.44575 -4.44574,4.44575c-1.58501,0 -2.97629,-0.82946 -3.76345,-2.078c-0.74385,0.56031 -1.66929,0.89247 -2.67229,0.89247c-0.13152,0 -0.26171,-0.00571 -0.39033,-0.0169c-0.81367,1.04118 -2.08116,1.71051 -3.50499,1.71051c-2.45532,0 -4.44575,-1.99043 -4.44575,-4.44574c0,-0.81565 0.21966,-1.58001 0.60305,-2.23713c-0.48738,-0.71332 -0.7724,-1.57587 -0.7724,-2.505c0,-1.39311 0.64077,-2.63657 1.64367,-3.45172c-0.29331,-0.59322 -0.45814,-1.26129 -0.45814,-1.96786c0,-2.45532 1.99043,-4.44574 4.44574,-4.44574c0.8338,0 1.61398,0.22953 2.28081,0.62886c0.81387,-0.9059 1.99446,-1.47567 3.30813,-1.47567c1.57914,0 2.96598,0.82333 3.75468,2.06414c0.41884,-0.13072 0.86428,-0.20116 1.32617,-0.20116z" fill="#000000" stroke="none" stroke-width="0.5" stroke-linecap="butt"/><path d="M217.55107,187.97548c2.45532,0 4.44575,1.99043 4.44575,4.44574c0,1.65614 -0.90558,3.10077 -2.24857,3.86573c-0.0797,0.54593 -0.25863,1.05967 -0.51789,1.52232c0.86859,0.81141 1.41157,1.96699 1.41157,3.24939c0,2.45532 -1.99043,4.44574 -4.44575,4.44574c-1.58501,0 -2.97629,-0.82946 -3.76345,-2.078c-0.74385,0.56031 -1.66929,0.89247 -2.67229,0.89247c-0.13152,0 -0.26171,-0.00571 -0.39033,-0.0169c-0.81367,1.04118 -2.08116,1.71051 -3.50499,1.71051c-2.45532,0 -4.44574,-1.99043 -4.44574,-4.44574c0,-0.81565 0.21965,-1.58001 0.60304,-2.23713c-0.48738,-0.71332 -0.7724,-1.57587 -0.7724,-2.50499c0,-1.39311 0.64077,-2.63657 1.64367,-3.45172c-0.29331,-0.59322 -0.45814,-1.26129 -0.45814,-1.96786c0,-2.45532 1.99043,-4.44575 4.44574,-4.44575c0.8338,0 1.61399,0.22954 2.28082,0.62887c0.81387,-0.9059 1.99446,-1.47567 3.30812,-1.47567c1.57914,0 2.96599,0.82333 3.75468,2.06414c0.41884,-0.13072 0.86427,-0.20116 1.32617,-0.20116z" fill="#000000" stroke="none" stroke-width="0.5" stroke-linecap="butt"/><path d="M229.35107,197.37548c2.45532,0 4.44574,1.99043 4.44574,4.44574c0,1.65614 -0.90558,3.10077 -2.24857,3.86573c-0.0797,0.54593 -0.25863,1.05967 -0.51789,1.52232c0.86859,0.81141 1.41156,1.96699 1.41156,3.2494c0,2.45532 -1.99043,4.44574 -4.44574,4.44574c-1.58501,0 -2.97629,-0.82946 -3.76345,-2.078c-0.74385,0.56031 -1.66929,0.89247 -2.67229,0.89247c-0.13152,0 -0.26171,-0.00571 -0.39033,-0.0169c-0.81367,1.04118 -2.08116,1.71051 -3.50499,1.71051c-2.45532,0 -4.44575,-1.99043 -4.44575,-4.44574c0,-0.81565 0.21966,-1.58001 0.60305,-2.23713c-0.48738,-0.71332 -0.7724,-1.57587 -0.7724,-2.505c0,-1.39311 0.64077,-2.63657 1.64367,-3.45171c-0.29331,-0.59322 -0.45814,-1.26129 -0.45814,-1.96786c0,-2.45532 1.99043,-4.44575 4.44574,-4.44575c0.8338,0 1.61398,0.22954 2.28081,0.62887c0.81387,-0.9059 1.99446,-1.47568 3.30813,-1.47568c1.57914,0 2.96598,0.82333 3.75468,2.06414c0.41884,-0.13072 0.86428,-0.20116 1.32617,-0.20116z" fill="#000000" stroke="none" stroke-width="0.5" stroke-linecap="butt"/><path d="M213.56456,149.43797c0.70365,0.41529 1.30199,0.99003 1.74527,1.67454c0.16727,0.0003 0.3327,0.00844 0.49595,0.02404c-0.12854,-0.32378 -0.19919,-0.67683 -0.19919,-1.04639c0,-1.56696 1.27027,-2.83723 2.83723,-2.83723c0.53212,0 1.03003,0.14648 1.4556,0.40133c0.51941,-0.57814 1.27284,-0.94176 2.11121,-0.94176c1.00779,0 1.89287,0.52544 2.39621,1.31732c0.26729,-0.08343 0.55157,-0.12838 0.84634,-0.12838c1.56696,0 2.83724,1.27028 2.83724,2.83724c0,1.05693 -0.57793,1.97888 -1.43502,2.46707c-0.05086,0.34841 -0.16506,0.67628 -0.33051,0.97153c0.55433,0.51783 0.90085,1.25531 0.90085,2.07373c0,1.56696 -1.27027,2.83723 -2.83723,2.83723c-1.01154,0 -1.89944,-0.52935 -2.4018,-1.32616c-0.2474,0.18635 -0.52626,0.33315 -0.8272,0.43102c-0.21686,0.68752 -0.68846,1.26197 -1.30409,1.61264c-0.05086,0.34841 -0.16506,0.67628 -0.33052,0.97153c0.55433,0.51783 0.90085,1.25531 0.90085,2.07373c0,1.56696 -1.27027,2.83723 -2.83723,2.83723c-0.59223,0 -1.14209,-0.18145 -1.597,-0.4918c0.3801,0.50647 0.6053,1.13586 0.6053,1.81784c0,1.12929 -0.6175,2.11435 -1.53325,2.63596c-0.05435,0.37226 -0.17636,0.72257 -0.35314,1.03804c0.59228,0.55328 0.96251,1.34124 0.96251,2.21569c0,1.67423 -1.35723,3.03146 -3.03146,3.03146c-1.08079,0 -2.02947,-0.5656 -2.56622,-1.41694c-0.50722,0.38207 -1.13824,0.60856 -1.82217,0.60856c-0.08968,0 -0.17846,-0.0039 -0.26616,-0.01153c-0.55483,0.70996 -1.41911,1.16637 -2.38998,1.16637c-1.67423,0 -3.03145,-1.35724 -3.03145,-3.03146c0,-0.55618 0.14978,-1.07738 0.4112,-1.52545c-0.33234,-0.4864 -0.52669,-1.07455 -0.52669,-1.7081c0,-0.94994 0.43693,-1.79782 1.12079,-2.35365c-0.04666,-0.09437 -0.08855,-0.19153 -0.12536,-0.29114c-0.20181,-0.0251 -0.40006,-0.06165 -0.59408,-0.10898c-0.23899,-0.05309 -0.47501,-0.12044 -0.70619,-0.20146c-0.12832,0.11001 -0.26773,0.20886 -0.42015,0.2946c-1.6968,0.95446 -4.07621,1.12452 -6.09664,0.47747c0.07966,0.36359 0.12165,0.74128 0.12165,1.12878c0,2.8995 -2.3505,5.25 -5.25,5.25c-2.8995,0 -5.25,-2.3505 -5.25,-5.25c0,-0.92482 0.23913,-1.7938 0.65894,-2.54846c-1.01226,-1.61185 -1.27304,-3.32205 0.46653,-4.31609c0.3942,-0.66793 0.93209,-1.24096 1.57114,-1.67657c-0.65944,-1.45334 -0.63728,-2.88564 0.82886,-3.72343c0.84805,-1.43692 2.36109,-2.43464 4.11575,-2.56977c0.15648,-1.30576 0.83165,-2.28781 2.35396,-2.37238c0.82176,-0.53346 1.80211,-0.8433 2.85482,-0.8433c0.07896,0 0.15751,0.00175 0.23562,0.0052c2.43508,-1.84631 6.27639,-3.32607 7.55698,-1.39649c2.83665,-1.57506 6.65789,-1.85783 7.67195,-0.08324zM215.18671,164.36209c-0.02211,0.01665 -0.04446,0.03298 -0.06706,0.04899c0.06127,0.03666 0.12114,0.07542 0.17951,0.11619c-0.03936,-0.05365 -0.07686,-0.10874 -0.11245,-0.16518z" fill="#000000" stroke="none" stroke-width="0.5" stroke-linecap="butt"/><path d="M231.65319,148.10144c1.56696,0 2.83723,1.27027 2.83723,2.83723c0,1.05693 -0.57793,1.97888 -1.43501,2.46707c-0.05086,0.34841 -0.16506,0.67628 -0.33051,0.97153c0.55433,0.51783 0.90085,1.25531 0.90085,2.07373c0,1.56696 -1.27027,2.83723 -2.83723,2.83723c-1.01154,0 -1.89944,-0.52935 -2.4018,-1.32616c-0.47472,0.35759 -1.06533,0.56957 -1.70543,0.56957c-0.08393,0 -0.16702,-0.00365 -0.2491,-0.01079c-0.51928,0.66447 -1.32818,1.09164 -2.23685,1.09164c-1.56696,0 -2.83724,-1.27028 -2.83724,-2.83724c0,-0.52054 0.14018,-1.00834 0.38486,-1.42771c-0.31104,-0.45523 -0.49294,-1.00571 -0.49294,-1.59867c0,-0.88907 0.40894,-1.68264 1.04898,-2.20285c-0.18719,-0.37859 -0.29238,-0.80494 -0.29238,-1.25587c0,-1.56696 1.27027,-2.83723 2.83723,-2.83723c0.53212,0 1.03003,0.14649 1.4556,0.40134c0.51941,-0.57814 1.27284,-0.94176 2.11121,-0.94176c1.00779,0 1.89287,0.52544 2.39621,1.31732c0.26729,-0.08343 0.55157,-0.12838 0.84634,-0.12838z" fill="#000000" stroke="none" stroke-width="0.5" stroke-linecap="butt"/><path d="M284.1,149.7125c0.272,0 0.53915,0.02068 0.8,0.06056c0.26085,-0.03988 0.52801,-0.06056 0.8,-0.06056c0.89641,0 1.74035,0.22466 2.47858,0.62075c0.43592,0.32102 0.85849,0.6686 1.23373,0.91694c0.45859,0.30349 0.81878,0.75588 1.08467,1.29656c0.19788,-0.02263 0.39909,-0.03426 0.60303,-0.03426c2.21495,-1.71489 6.4203,4.37231 5.88271,6.34349c-0.0555,0.2035 -0.1402,0.39333 -0.24376,0.57444c1.22445,0.96113 2.01105,2.45474 2.01105,4.13207c0,2.8995 -2.3505,5.25 -5.25,5.25c-1.94466,0 -3.64236,-1.05731 -4.54962,-2.62842c-0.3403,-0.0354 -0.67093,-0.10331 -0.98875,-0.20057c-0.32675,-0.09999 -0.63997,-0.231 -0.93618,-0.3896c-0.00139,-0.00036 -0.00277,-0.00073 -0.00416,-0.00109c-0.61555,-0.15958 -1.1498,-0.51497 -1.59002,-0.98933c-1.25387,0.55631 -2.77579,0.72581 -4.22573,0.50417c-0.09398,0.06017 -0.18849,0.11874 -0.28334,0.1756c-0.12048,0.16273 -0.25015,0.31825 -0.38823,0.4658c0.01063,0.13641 0.01604,0.27429 0.01604,0.41343c0,2.41203 -1.6266,4.44414 -3.84271,5.05925c0.21019,-0.03049 0.42514,-0.04627 0.64377,-0.04627c2.45531,0 4.44574,1.99043 4.44574,4.44575c0,1.65614 -0.90558,3.10076 -2.24857,3.86573c-0.0797,0.54593 -0.25863,1.05967 -0.51789,1.52232c0.8686,0.81141 1.41156,1.96699 1.41156,3.24939c0,2.45532 -1.99043,4.44575 -4.44574,4.44575c-1.58501,0 -2.9763,-0.82946 -3.76346,-2.078c-0.74385,0.56031 -1.66929,0.89247 -2.67229,0.89247c-0.13152,0 -0.26171,-0.00572 -0.39033,-0.0169c-0.81367,1.04118 -2.08116,1.71052 -3.50499,1.71052c-2.45531,0 -4.44574,-1.99043 -4.44574,-4.44575c0,-0.81565 0.21965,-1.58001 0.60305,-2.23713c-0.48738,-0.71332 -0.7724,-1.57587 -0.7724,-2.505c0,-1.39311 0.64077,-2.63657 1.64367,-3.45172c-0.29331,-0.59322 -0.45814,-1.26129 -0.45814,-1.96786c0,-0.90342 0.26947,-1.7439 0.73242,-2.44545c-0.35741,0.16243 -0.75445,0.2529 -1.17263,0.2529c-1.56696,0 -2.83724,-1.27027 -2.83724,-2.83723c0,-0.52054 0.14018,-1.00835 0.38486,-1.42772c-0.31104,-0.45523 -0.49294,-1.0057 -0.49294,-1.59866c0,-0.26695 0.03687,-0.52531 0.1058,-0.77023c-1.35825,-0.21123 -2.39771,-1.38592 -2.39771,-2.80339c0,-0.52054 0.14018,-1.00835 0.38486,-1.42772c-0.29305,-0.4289 -0.47146,-0.94232 -0.49113,-1.49617c-0.5229,-0.22889 -0.96349,-0.61089 -1.26511,-1.08929c-0.47472,0.35759 -1.06533,0.56957 -1.70543,0.56957c-0.08393,0 -0.16702,-0.00365 -0.24911,-0.01079c-0.51928,0.66447 -1.32818,1.09164 -2.23685,1.09164c-1.56696,0 -2.83723,-1.27028 -2.83723,-2.83724c0,-0.52054 0.14018,-1.00834 0.38485,-1.42771c-0.31104,-0.45523 -0.49294,-1.00571 -0.49294,-1.59867c0,-0.88907 0.40893,-1.68264 1.04897,-2.20285c-0.18719,-0.37859 -0.29238,-0.80494 -0.29238,-1.25587c0,-1.56696 1.27028,-2.83723 2.83724,-2.83723c0.53212,0 1.03003,0.14649 1.45559,0.40134c0.51941,-0.57814 1.27285,-0.94176 2.11122,-0.94176c1.00779,0 1.89287,0.52544 2.39621,1.31732c0.26729,-0.08343 0.55157,-0.12838 0.84634,-0.12838c1.56696,0 2.83724,1.27027 2.83724,2.83723c0,0.08712 -0.00393,0.17331 -0.01161,0.25842c0.6219,-0.73265 1.3743,-1.36621 1.88108,-1.82692l0.1151,-0.20143c0.90529,-0.22632 3.13182,-1.2875 3.72733,-0.89314c1.86861,-1.33044 4.11992,-2.13975 5.7046,-1.6298c2.89965,-1.44736 7.91344,-0.74861 10.04476,1.95331c0.15859,0.05605 0.31464,0.11839 0.46758,0.18693c0.28636,-0.04837 0.58061,-0.07355 0.88074,-0.07355zM276.0249,171.37664c0.02978,-0.0093 0.05969,-0.01829 0.08973,-0.02697c-0.03251,0.00507 -0.06511,0.00984 -0.09782,0.0143c0.0027,0.00422 0.0054,0.00843 0.00808,0.01266z" fill="#000000" stroke="none" stroke-width="0.5" stroke-linecap="butt"/><g stroke-linecap="butt"><path d="M205.31372,237.91919c4.9172,3.27759 5.6504,10.8149 1.63764,16.83503c-4.01276,6.02013 -11.25192,8.24339 -16.16913,4.9658c-4.9172,-3.2776 -5.6504,-10.8149 -1.63764,-16.83503c4.01276,-6.02013 11.25193,-8.24339 16.16913,-4.96579z" fill="#ffb867" stroke="#a57642" stroke-width="3.5"/><path d="M193.42923,237.4486c1.60817,-2.41264 4.86769,-3.06481 7.28033,-1.45664c1.62735,1.08472 2.45375,2.92076 2.3258,4.74144c0.48424,0.43589 0.87187,0.9482 1.15666,1.50597c1.36621,-0.32205 2.85734,-0.09871 4.11746,0.74123c2.41264,1.60817 3.06481,4.86768 1.45664,7.28033c-1.03814,1.55747 -2.76445,2.38129 -4.50686,2.33702c0.06337,1.09792 -0.21637,2.22482 -0.87332,3.2104c-0.08614,0.12924 -0.17703,0.25342 -0.27226,0.37248c0.49015,1.48147 0.31769,3.16533 -0.61488,4.56441c-1.60817,2.41264 -4.86768,3.0648 -7.28033,1.45664c-0.80148,-0.53424 -1.40868,-1.2507 -1.80328,-2.05782c-1.02014,0.01171 -2.05439,-0.27318 -2.96737,-0.88173c-1.36891,-0.91245 -2.17107,-2.35653 -2.31517,-3.8759c-0.77502,-0.10033 -1.53944,-0.37593 -2.23373,-0.83871c-2.41264,-1.60817 -3.06481,-4.86769 -1.45664,-7.28033c0.54611,-0.81931 1.28266,-1.4356 2.1118,-1.82928c-0.3571,-1.39307 -0.14371,-2.92632 0.71671,-4.21716c1.0343,-1.5517 2.75166,-2.37518 4.48748,-2.33747c0.14587,-0.49717 0.36841,-0.98101 0.67094,-1.43488z" fill="#000000" stroke="none" stroke-width="0.5"/><path d="M183.81988,248.34918c2.29776,1.53159 2.89404,4.67315 1.33182,7.01686c-1.56222,2.34371 -4.69135,3.00207 -6.98911,1.47048c-2.29776,-1.53159 -2.89404,-4.67314 -1.33182,-7.01685c1.56222,-2.34372 4.69135,-3.00208 6.98911,-1.47049z" fill="#ffb867" stroke="#a57642" stroke-width="3.5"/><path d="M192.0302,258.38864c2.29776,1.53159 2.89404,4.67314 1.33182,7.01685c-1.56222,2.34371 -4.69136,3.00207 -6.98912,1.47048c-2.29776,-1.53159 -2.89403,-4.67314 -1.33181,-7.01685c1.56222,-2.34371 4.69135,-3.00207 6.98911,-1.47048z" fill="#ffb867" stroke="#a57642" stroke-width="3.5"/><path d="M204.95491,260.99475c2.29776,1.53159 2.89403,4.67314 1.33181,7.01685c-1.56222,2.34371 -4.69135,3.00208 -6.98911,1.47049c-2.29776,-1.53159 -2.89404,-4.67315 -1.33182,-7.01686c1.56222,-2.34371 4.69135,-3.00207 6.98911,-1.47048z" fill="#ffb867" stroke="#a57642" stroke-width="3.5"/><path d="M178.15317,257.77124l-11.01113,2.37382v0l7.94063,-7.98915z" fill="#000000" stroke="none" stroke-width="0"/><path d="M189.25137,267.78574l-8.33623,7.57544v0l2.86381,-10.89397z" fill="#000000" stroke="none" stroke-width="0"/><path d="M205.37953,269.27901l-2.36675,11.01265v0l-4.0146,-10.5244z" fill="#000000" stroke="none" stroke-width="0"/></g><g stroke-linecap="butt"><path d="M275.58966,235.01251c5.00624,-3.13993 12.18094,-0.71669 16.02515,5.41244c3.8442,6.12913 2.90219,13.64319 -2.10404,16.78311c-5.00624,3.13993 -12.18095,0.71669 -16.02515,-5.41245c-3.8442,-6.12913 -2.90218,-13.64318 2.10405,-16.78311z" fill="#ffb867" stroke="#a57642" stroke-width="3.5"/><path d="M270.2853,245.65798c-1.54062,-2.45633 -0.79827,-5.6965 1.65805,-7.23712c1.65682,-1.03916 3.67026,-1.03966 5.27822,-0.1761c0.59618,-0.26281 1.2224,-0.40617 1.84791,-0.43709c0.26673,-1.37807 1.08209,-2.64636 2.36503,-3.45102c2.45633,-1.54062 5.69651,-0.79828 7.23712,1.65805c0.99453,1.58568 1.0377,3.49799 0.28256,5.06888c1.02728,0.39258 1.94025,1.10998 2.5696,2.11341c0.08253,0.13158 0.1585,0.2654 0.22801,0.40109c1.55216,0.16071 3.01707,1.00874 3.91047,2.43315c1.54062,2.45633 0.79827,5.69651 -1.65806,7.23712c-0.81599,0.51179 -1.71848,0.77165 -2.61643,0.80042c-0.4078,0.93516 -1.09187,1.76152 -2.02138,2.34452c-1.39369,0.87412 -3.03972,1.01331 -4.48449,0.52146c-0.40942,0.66566 -0.97434,1.24974 -1.6812,1.69308c-2.45633,1.54062 -5.69651,0.79828 -7.23712,-1.65805c-0.52317,-0.83414 -0.78308,-1.75867 -0.802,-2.67634c-1.41695,-0.24579 -2.72773,-1.06936 -3.552,-2.38357c-0.99085,-1.5798 -1.03737,-3.48381 -0.29092,-5.0514c-0.39358,-0.33698 -0.74354,-0.73841 -1.03337,-1.2005z" fill="#000000" stroke="none" stroke-width="0.5"/><path d="M276.28463,258.89318c2.33936,-1.46726 5.44903,-0.72233 6.94563,1.66381c1.4966,2.38615 0.8134,5.50995 -1.52596,6.97721c-2.33936,1.46726 -5.44903,0.72234 -6.94563,-1.66381c-1.4966,-2.38615 -0.8134,-5.50996 1.52596,-6.97722z" fill="#ffb867" stroke="#a57642" stroke-width="3.5"/><path d="M288.8085,255.52378c2.33936,-1.46725 5.44903,-0.72234 6.94563,1.66381c1.4966,2.38615 0.8134,5.50995 -1.52596,6.97721c-2.33936,1.46726 -5.44903,0.72234 -6.94563,-1.66381c-1.4966,-2.38615 -0.8134,-5.50995 1.52596,-6.97721z" fill="#ffb867" stroke="#a57642" stroke-width="3.5"/><path d="M296.48714,244.80564c2.33936,-1.46725 5.44902,-0.72234 6.94562,1.66381c1.4966,2.38615 0.8134,5.50996 -1.52596,6.97721c-2.33936,1.46725 -5.44903,0.72233 -6.94563,-1.66381c-1.4966,-2.38615 -0.81339,-5.50995 1.52597,-6.9772z" fill="#ffb867" stroke="#a57642" stroke-width="3.5"/><path d="M282.55289,267.92622l-2.35203,11.01581v0l-4.02866,-10.51903z" fill="#000000" stroke="none" stroke-width="0"/><path d="M296.23864,261.91286l3.48909,10.71009v0l-8.76042,-7.08061z" fill="#000000" stroke="none" stroke-width="0"/><path d="M304.21648,247.81671l9.07254,6.676v0l-11.24498,-0.65598z" fill="#000000" stroke="none" stroke-width="0"/></g><path d="M267.7,210.9625l-4.8,4.2l-7.4,4.8l-13.2,0.8l-10,-1l-8.4,-3.6l-10.2,-8.4" fill="none" stroke="#ffb22f" stroke-width="4.5" stroke-linecap="round"/><path d="M249.7,224.0625c0,4.36305 -3.76081,7.9 -8.4,7.9c-4.63919,0 -8.4,-3.53695 -8.4,-7.9c0,-4.36305 3.76081,-7.9 8.4,-7.9c4.63919,0 8.4,3.53695 8.4,7.9z" fill="#f3a217" stroke="#e08e00" stroke-width="3" stroke-linecap="butt"/><path d="M241.3,231.3625v-6.8" fill="none" stroke="#c87e00" stroke-width="3" stroke-linecap="round"/><path d="M69.92751,189.53952v-105h106.08247v105l0.08419,23l-28.33333,-23z" fill="#2e2e2e" stroke="#161616" stroke-width="6.5" stroke-linecap="butt"/><text transform="translate(76.216,106.60975) scale(0.38108,0.38108)" font-size="40" xml:space="preserve" fill="#ffffff" fill-rule="nonzero" stroke="none" stroke-width="1" stroke-linecap="butt" stroke-linejoin="miter" stroke-miterlimit="10" stroke-dasharray="" stroke-dashoffset="0" font-family="Sans Serif" font-weight="normal" text-anchor="start" style="mix-blend-mode: normal"><tspan x="0" dy="0">Let's do this!</tspan></text></g></g></svg>