<svg version="1.1" xmlns="http://www.w3.org/2000/svg" xmlns:xlink="http://www.w3.org/1999/xlink" width="134.33894" height="222.88149" viewBox="0,0,134.33894,222.88149"><g transform="translate(-240.77444,-97.31141)"><g stroke-miterlimit="10"><path d="M343.86893,313.93393c0.61531,4 -8.06731,5.96044 -11.81744,3.52107c-4.13714,-2.6911 -4.89684,-13.80678 -4.89684,-13.80678c0,0 -0.57143,-16.98858 -0.57143,-26.28571c0,-10.50689 0.57143,-33.57143 0.57143,-33.57143h12.85715c0,0 -0.71428,24.31403 -0.71428,35c0,8.96127 0.71428,24.85715 0.71428,24.85715c0,0 3.51532,8.06358 3.85714,10.28571z" fill="#ffb8c1" stroke="#d17b86" stroke-width="2" stroke-linecap="butt"/><path d="M306.32857,304.31488c0,0 0.71428,-15.89587 0.71428,-24.85714c0,-10.68597 -0.71428,-35 -0.71428,-35h12.85715c0,0 0.57143,23.06453 0.57143,33.57142c0,9.29714 -0.57143,26.28572 -0.57143,26.28572c0,0 -0.7597,11.11568 -4.89684,13.80678c-3.75013,2.43937 -12.43276,0.47893 -11.81745,-3.52107c0.34182,-2.22213 3.85714,-10.28571 3.85714,-10.28571z" fill="#ffb8c1" stroke="#d17b86" stroke-width="2" stroke-linecap="butt"/><path d="M352.86667,153.34482c-2.41233,7.33899 -7.86925,57.86763 -14.10343,76.91021c-4.98406,15.22403 -11.22086,0.41202 -11.22086,0.41202c0,0 -8.63746,25.37015 -14.09858,26.80114c-6.51286,1.70658 -10.68613,-20.30372 -20.29509,-17.74097c-9.18267,2.44905 -15.53485,2.21896 -21.69848,1.35146c-9.62567,-1.35476 2.69564,-18.87131 -6.50854,-19.01015c-9.38059,-0.14151 -19.24601,12.64046 -22.53719,11.62464c-4.89621,-1.51121 7.70306,-26.92626 7.70306,-26.92626c0,0 -11.01991,10.314 -5.50434,-3.11112c6.46191,-15.72854 29.86505,-56.33905 33.94923,-68.7643c7.57024,-23.03083 34.16406,-34.97682 51.37249,-29.3204c17.20843,5.65642 30.51197,24.7429 22.94173,47.77373z" fill="#ff8acf" stroke="#a94f88" stroke-width="1" stroke-linecap="butt"/><path d="M322.70916,178.16946c-21.50574,0 -38.93959,-17.18655 -38.93959,-38.38725c0,-21.20069 17.43385,-38.38725 38.93959,-38.38725c4.39623,0 8.6223,0.7182 12.56408,2.04206c-0.50139,0.71702 -0.87045,1.4857 -1.07342,2.29756c-0.93111,3.72445 -1.33122,5.90393 -1.05573,9.82483c0.08946,1.27327 0.37268,3.78526 1.25,5c0.42333,0.58615 1.38555,1.05835 1.25464,1.76944c-1.15482,6.27299 0.96719,10.58893 5.41501,14.6324c1.69509,1.54099 5.2,0.93505 7.43304,1.49331h1.43273c3.64682,2.32071 7.73009,3.85068 11.64839,3.66241c-1.22406,20.1135 -18.15824,36.0525 -38.86874,36.0525z" fill="#ffbb66" stroke="#c18d4d" stroke-width="2" stroke-linecap="butt"/><path d="M294.82558,142.3027c0.97828,0.65219 1.88584,1.76122 1.95656,2.93484c0.07377,1.22425 -0.74309,3.53691 -0.72504,4.82802c0.02167,1.55021 1.52528,2.48566 1.31824,5.09032c-0.15455,1.94431 -4.41055,2.14287 -5.72436,1.35661c-2.79951,-1.67539 -3.26162,-4.04608 -3.84282,-6.95207c-0.53607,-0.61494 -0.86073,-1.41897 -0.86073,-2.29883c0,-1.74685 1.27972,-3.19479 2.9528,-3.45747c1.52774,-1.46544 3.34255,-2.55662 4.92536,-1.50141z" fill="#a97b43" stroke="none" stroke-width="0.5" stroke-linecap="butt"/><path d="M316.10296,147.67993c0,4.94201 -3.96937,8.9483 -8.86583,8.9483c-4.89646,0 -8.86582,-4.00629 -8.86582,-8.9483c0,-4.94201 3.82651,-7.51972 8.72297,-7.51972c4.89646,0 9.00869,2.57771 9.00869,7.51972z" fill="#ff77cd" stroke="#a94f88" stroke-width="1" stroke-linecap="butt"/><path d="M329.6644,160.46163c0,0 -4.6398,-0.05694 -6.65224,0.48611c-1.92401,0.51919 -6.85623,4.50992 -6.85623,4.50992" fill="none" stroke="#000000" stroke-width="1" stroke-linecap="round"/><path d="M294.02883,160.59542c0,-2.33068 1.88939,-4.22006 4.22006,-4.22006c2.33068,0 4.22007,1.88938 4.22007,4.22006c0,2.33068 -1.88939,4.22007 -4.22007,4.22007c-2.33068,0 -4.22006,-1.88939 -4.22006,-4.22007z" fill="#fea8ff" stroke="none" stroke-width="0.5" stroke-linecap="butt"/><path d="M343.763,158.39475c0,-2.33068 1.88939,-4.22006 4.22007,-4.22006c2.33068,0 4.22007,1.88938 4.22007,4.22006c0,2.33068 -1.88939,4.22007 -4.22007,4.22007c-2.33068,0 -4.22007,-1.88939 -4.22007,-4.22007z" fill="#fea8ff" stroke="none" stroke-width="0.5" stroke-linecap="butt"/><path d="M360.1814,112.04124c-1.50337,5.02155 -10.9414,9.28716 -19.94913,6.59039c-9.00773,-2.69676 -14.17412,-11.33468 -12.67075,-16.35623c1.50337,-5.02155 7.89153,0.21772 16.89926,2.91448c9.00773,2.69676 17.22399,1.82981 15.72062,6.85136z" fill="#ff8acf" stroke="#a94f88" stroke-width="1" stroke-linecap="butt"/><path d="M277.51277,114.5182c-0.68657,6.50255 14.86199,6.74682 24.76566,5.86174c10.09365,-0.90206 29.38298,-13.64094 30.06955,-20.14349c0.68657,-6.50255 -22.66427,1.83776 -32.94285,4.49131c-9.62749,2.48546 -21.20579,3.28789 -21.89236,9.79044z" fill="#ff8acf" stroke="#a94f88" stroke-width="1" stroke-linecap="butt"/><path d="M330.40889,117.40845c3.82355,3.27733 2.52713,6.83856 0.81841,10.83072c-0.61077,1.42698 -0.96339,5.02887 -3.50882,4.51979c-3.20506,-0.64101 -5.01828,-4.86167 -5.28724,-8.79121c-0.29461,-0.51278 -0.46308,-1.10724 -0.46308,-1.74106c0,-0.83346 0.29132,-1.59888 0.77769,-2.19998c0.21082,-0.79 0.51779,-1.4789 0.92317,-2.00963c1.50781,-1.97405 4.65868,-3.80281 6.38155,-0.7878z" fill="#a97b43" stroke="none" stroke-width="0.5" stroke-linecap="butt"/><path d="M340.6406,169.65797c-1.90915,2.71544 -8.7746,4.32937 -11.21566,1.78217c-1.6877,-1.76108 0.6447,-3.63981 1.01038,-4.89556c1.75158,-6.01502 10.77363,-11.52485 11.45225,-2.70272c0.16737,0.29979 0.29194,0.62672 0.36543,0.97254c0.97179,1.08613 -0.96161,3.91795 -1.61239,4.84357z" fill="#a97b43" stroke="none" stroke-width="0.5" stroke-linecap="butt"/><path d="M352.91403,147.12594c-0.81985,3.2794 -0.79736,4.5976 -4.39838,5.98765c-2.08322,0.80416 -5.77242,-0.72794 -5.45067,-3.17974c0.32688,-2.49089 4.12898,-8.70389 6.45355,-8.70389c3.17487,0 3.96758,3.17678 3.3955,5.4651z" fill="#a97b43" stroke="none" stroke-width="0.5" stroke-linecap="butt"/><path d="M317.02942,182.70425v-4.50065h8.29808v4.50065z" fill="#ffbb66" stroke="#c18d4d" stroke-width="2" stroke-linecap="butt"/><path d="M286.3687,259.35604c0,0 18.67425,-26.94657 20.97451,-39.48062c1.03198,-5.62324 0.4385,-14.26332 1.17543,-20.67543c0.90131,-7.84233 2.32237,-15.51122 2.32237,-15.51122c0,0 6.80343,-0.1402 10.12099,-0.22212c4.10735,-0.10142 12.66357,-0.34046 12.66357,-0.34046c0,0 1.4933,5.70702 2.38222,13.87604c0.84236,7.74114 0.21205,18.07483 1.13572,24.03255c1.85093,11.93852 15.89113,36.91482 15.89113,36.91482c0,0 3.22184,5.98075 -38.97645,5.77336c-18.07712,-0.08884 -27.6895,-4.36691 -27.6895,-4.36691z" fill="#ff6478" stroke="#d24457" stroke-width="2" stroke-linecap="butt"/><path d="M281.49644,242.75089l27.5385,-57.36954l-1.13137,14.79276l-18.7385,47.36954z" fill="#ffbb66" stroke="#c18d4d" stroke-width="2" stroke-linecap="butt"/><path d="M276.84064,245.29207l3.79979,-7.93735l13.89037,6.64964l-3.7998,7.93735z" fill="#ffb8c1" stroke="#d17b86" stroke-width="2" stroke-linecap="butt"/><path d="M271.54462,262.45736l7.6173,-16.78062l8.58543,3.89722c0,0 -2.66387,14.50878 -4.06999,17.60642c-0.94267,2.07666 -2.83959,-4.11295 -2.83959,-4.11295c0,0 -2.90556,2.38961 -4.36042,2.2941c-1.62417,-0.10663 -4.93272,-2.90418 -4.93272,-2.90418z" fill="#ffb8c1" stroke="#d17b86" stroke-width="2" stroke-linecap="butt"/><path d="M355.93774,250.11508l-18.7385,-47.36954l-1.13137,-14.79276l27.5385,57.36954z" fill="#ffbb66" stroke="#c18d4d" stroke-width="2" stroke-linecap="butt"/><path d="M354.49758,254.51314l-3.79979,-7.93735l13.89036,-6.64965l3.7998,7.93735z" fill="#ffb8c1" stroke="#d17b86" stroke-width="2" stroke-linecap="butt"/><path d="M368.95748,268.07582c-1.45486,0.09551 -4.36042,-2.2941 -4.36042,-2.2941c0,0 -1.89692,6.18961 -2.83959,4.11294c-1.40612,-3.09764 -4.06999,-17.60642 -4.06999,-17.60642l8.58543,-3.89722l7.6173,16.78062c0,0 -3.30855,2.79755 -4.93272,2.90418z" fill="#ffb8c1" stroke="#d17b86" stroke-width="2" stroke-linecap="butt"/><path d="M298.81947,142.53521c0,0 5.09896,-3.19713 8.4841,-3.11141c3.2874,0.08325 8.96744,3.55741 8.96744,3.55741" fill="none" stroke="#000000" stroke-width="1" stroke-linecap="round"/><path d="M303.5,139.67758l-3,-2.55556" fill="none" stroke="#000000" stroke-width="1" stroke-linecap="round"/><path d="M300.38889,141.23313l-3,-1.66667" fill="none" stroke="#000000" stroke-width="1" stroke-linecap="round"/></g></g></svg>