<svg version="1.1" xmlns="http://www.w3.org/2000/svg" xmlns:xlink="http://www.w3.org/1999/xlink" width="309.38377" height="250.65894" viewBox="0,0,309.38377,250.65894"><g transform="translate(-61.2027,-87.47045)"><g data-paper-data="{&quot;isPaintingLayer&quot;:true}" fill-rule="nonzero" stroke-linecap="butt" stroke-linejoin="miter" stroke-miterlimit="10" stroke-dasharray="" stroke-dashoffset="0" style="mix-blend-mode: normal"><path d="M260.43392,138.96257c0,27.36283 -16.77172,49.54479 -37.46071,49.54479c-20.68897,0 -37.46071,-22.18196 -37.46071,-49.54479c0,-27.36283 16.77172,-43.50275 37.46071,-43.50275c20.68897,0 37.46071,16.13991 37.46071,43.50275z" fill="#ff7474" stroke="#bb5454" stroke-width="2"/><path d="M264.16423,183.74669c0,27.0755 -14.61195,55.46938 -40.58681,55.46938c-25.97487,0 -38.5728,-32.01911 -38.5728,-59.09461c0,-27.0755 13.40354,-29.28718 39.3784,-29.28718c25.97487,0 39.78121,5.8369 39.78121,32.9124z" fill="#c85b5b" stroke="#bb5454" stroke-width="2"/><g data-paper-data="{&quot;index&quot;:null}"><path d="M226.91737,133.63491c2.75305,0 4.98484,2.13035 4.98484,4.75825c0,2.6279 -2.23179,4.75825 -4.98484,4.75825c-2.75305,0 -4.98484,-2.13035 -4.98484,-4.75825c0,-2.6279 2.23179,-4.75825 4.98484,-4.75825z" fill="#00a9ff" stroke="#0081c1" stroke-width="1.5"/><path d="M225.14934,141.74044c-0.94524,0 -1.71153,-0.76627 -1.71153,-1.71153c0,-0.94524 0.76627,-1.71153 1.71153,-1.71153c0.94524,0 1.71153,0.76627 1.71153,1.71153c0,0.94524 -0.76627,1.71153 -1.71153,1.71153z" fill="#003e5d" stroke="none" stroke-width="0.5"/></g><g><path d="M222.56557,138.35144c0,2.6279 -2.23179,4.75825 -4.98484,4.75825c-2.75305,0 -4.98484,-2.13035 -4.98484,-4.75825c0,-2.6279 2.23179,-4.75825 4.98484,-4.75825c2.75305,0 4.98484,2.13035 4.98484,4.75825z" fill="#00a9ff" stroke="#0081c1" stroke-width="1.5"/><path d="M217.63721,139.9872c0,-0.94524 0.76627,-1.71153 1.71153,-1.71153c0.94524,0 1.71153,0.76627 1.71153,1.71153c0,0.94524 -0.76627,1.71153 -1.71153,1.71153c-0.94524,0 -1.71153,-0.76627 -1.71153,-1.71153z" fill="#003e5d" stroke="none" stroke-width="0.5"/></g><path d="M196.11761,150.75336c-2.84987,0 -2.84987,-2.84987 -2.84987,-2.84987l0.07299,-0.28407c-0.23123,-1.00198 -0.46244,-2.00394 -0.69367,-3.00592c0,0 -0.64081,-2.77688 2.13606,-3.41771c2.77688,-0.64081 3.41771,2.13606 3.41771,2.13606c0.23123,1.00198 0.46244,2.00394 0.69367,3.00592l0.07299,1.56572c0,0 0,2.84987 -2.84987,2.84987z" fill="#000000" stroke="none" stroke-width="0.5"/><path d="M205.30195,142.57121c0.46863,0.42054 0.83353,1.07539 0.83353,2.09512c0,2.84987 -2.84987,2.84987 -2.84987,2.84987l-2.89113,-1.82683c-0.38537,-1.00198 -0.77075,-2.00394 -1.15612,-3.00592c0,0 -1.02304,-2.6599 1.63687,-3.68295c2.6599,-1.02304 3.68295,1.63687 3.68295,1.63687c0.24792,0.64461 0.49586,1.28923 0.74378,1.93384z" fill="#000000" stroke="none" stroke-width="0.5"/><path d="M242.76606,148.5594c-1.04242,-1.56362 -0.36638,-2.78354 0.21504,-3.43314c0,-0.69283 0,-1.38567 0,-2.0785c0,0 0,-2.84987 2.84987,-2.84987c2.84987,0 2.84987,2.84987 2.84987,2.84987c0,1.15612 0,2.31225 0,3.46837l-1.96273,2.83368c0,0 -2.37123,1.58083 -3.95205,-0.79041z" fill="#000000" stroke="none" stroke-width="0.5"/><path d="M252.76772,151.21579c-2.84987,0 -2.84987,-2.84987 -2.84987,-2.84987c0,-1.00198 0,-2.4664 0,-3.46837c0,0 0,-2.84987 2.84987,-2.84987c2.84987,0 2.84987,2.84987 2.84987,2.84987c0,1.00198 0,2.00394 0,3.00592v0.46244c0,0 0,2.84987 -2.84987,2.84987z" fill="#000000" stroke="none" stroke-width="0.5"/><path d="M200.34071,137.67725c0.28357,2.83573 -2.55214,3.1193 -2.55214,3.1193l-2.39278,0.23812l-3.20781,0.22913c-0.07665,0.00619 -0.15415,0.00933 -0.23239,0.00933c-1.57394,0 -2.84987,-1.27593 -2.84987,-2.84987c0,-0.89766 0.41502,-1.69839 1.06367,-2.22076l2.52503,-2.06592c0,0 2.20568,-1.80465 4.01031,0.40103c0.16646,0.20346 0.29881,0.40351 0.40191,0.59903l0.11478,-0.01153c0,0 2.83573,-0.28357 3.1193,2.55214z" fill="#0084ff" stroke="none" stroke-width="0.5"/><path d="M257.63076,140.42882c-0.61823,2.78201 -3.40023,2.16378 -3.40023,2.16378l-2.364,-0.54084c-1.53295,-0.93179 -3.94125,-1.12633 -4.59885,-2.79538c-0.19461,-0.49391 0.11139,-0.88882 0.58388,-1.25081c-0.77466,-0.31832 -1.63328,-1.02398 -1.63328,-2.58825c0,-2.84987 2.84987,-2.84987 2.84987,-2.84987h3.23715c1.57394,0 2.84987,1.27593 2.84987,2.84987c0,0.53319 -0.14642,1.03217 -0.40126,1.45895l0.71309,0.15231c0,0 2.78201,0.61823 2.16378,3.40023z" fill="#0084ff" stroke="none" stroke-width="0.5"/><path d="M225.94563,234.19147c0,7.42942 -7.03956,13.45215 -15.7233,13.45215c-8.68374,0 -15.7233,-6.02273 -15.7233,-13.45215c0,-7.42942 7.03956,-13.45215 15.7233,-13.45215c8.68374,0 15.7233,6.02273 15.7233,13.45215z" fill="#ff7474" stroke="#bb5454" stroke-width="1.5"/><path d="M261.60384,234.4723c0,7.42942 -7.03956,13.45215 -15.7233,13.45215c-8.68374,0 -15.7233,-6.02273 -15.7233,-13.45215c0,-7.42942 7.03956,-13.45215 15.7233,-13.45215c8.68374,0 15.7233,6.02273 15.7233,13.45215z" fill="#ff7474" stroke="#bb5454" stroke-width="1.5"/><path d="M161.62088,129.38739c-14.65631,-9.34139 -34.86041,12.2247 -32.75603,8.923c2.10437,-3.30169 22.60797,-26.7627 37.26428,-17.42131c14.65631,9.34139 28.28985,39.99393 26.18546,43.29562c-2.10437,3.30169 -16.03742,-25.45593 -30.69372,-34.79732z" fill="#c85b5b" stroke="#bb5454" stroke-width="2"/><path d="M258.45343,164.37334c-2.10439,-3.30171 11.52917,-33.95423 26.18548,-43.29562c14.65631,-9.34139 35.15989,14.1196 37.26428,17.42131c2.10437,3.30171 -18.09973,-18.26438 -32.75603,-8.92301c-14.65631,9.34139 -28.58933,38.09901 -30.69372,34.7973z" data-paper-data="{&quot;index&quot;:null}" fill="#c85b5b" stroke="#bb5454" stroke-width="2"/><g><path d="M249.57488,123.90889c0,5.0364 -4.35054,9.11921 -9.71718,9.11921c-5.36666,0 -9.71718,-4.08282 -9.71718,-9.11921c0,-5.0364 4.35054,-9.11921 9.71718,-9.11921c5.36666,0 9.71718,4.08282 9.71718,9.11921z" fill="#960000" stroke="#000000" stroke-width="0.5"/><path d="M244.10828,124.46009c0,2.69018 -2.21544,4.87099 -4.94831,4.87099c-2.73287,0 -4.94831,-2.18082 -4.94831,-4.87099c0,-2.69018 2.21544,-4.87099 4.94831,-4.87099c2.73287,0 4.94831,2.18082 4.94831,4.87099z" fill="#000000" stroke="none" stroke-width="0"/></g><g data-paper-data="{&quot;index&quot;:null}"><path d="M206.59649,112.79249c5.36666,0 9.71718,4.08282 9.71718,9.11921c0,5.0364 -4.35052,9.1192 -9.71718,9.1192c-5.36666,0 -9.7172,-4.0828 -9.7172,-9.1192c0,-5.0364 4.35054,-9.11921 9.7172,-9.11921z" fill="#960000" stroke="#000000" stroke-width="0.5"/><path d="M207.2942,117.59191c2.73287,0 4.9483,2.18082 4.9483,4.87099c0,2.69018 -2.21542,4.87099 -4.9483,4.87099c-2.73287,0 -4.94831,-2.18082 -4.94831,-4.87099c0,-2.69018 2.21544,-4.87099 4.94831,-4.87099z" fill="#000000" stroke="none" stroke-width="0"/></g><path d="M186.93166,181.60496c-4.41047,1.35206 -14.43001,-2.50169 -14.05692,-8.38201c0.39629,-6.24612 12.85589,-10.63848 15.3704,-6.2381c1.79994,1.0623 3.00742,3.02162 3.00742,5.26299c0,0.93645 -0.21078,1.82365 -0.58748,2.61678c-0.59621,2.74952 -1.47486,6.04795 -3.73342,6.74034z" fill="#5cc600" stroke="none" stroke-width="0.5"/><path d="M263.30664,186.59863c0.54007,0.04091 1.08821,0.17537 1.63498,0.38854c0.47832,0.17122 0.92906,0.4004 1.34374,0.6791c4.57044,2.82687 8.48048,10.44914 5.94347,13.76707c-6.12373,8.00863 -21.69346,0.79622 -15.45116,-8.56723c-0.00086,-0.04245 -0.0013,-0.08502 -0.0013,-0.12769c0,-3.25824 2.55166,-5.92051 5.76569,-6.09749c0.24357,-0.04682 0.49791,-0.0625 0.76461,-0.04231z" fill="#5cc600" stroke="none" stroke-width="0.5"/><path d="M218.84389,171.83272c2.2918,2.60917 2.85132,4.87759 1.04225,7.75128c-2.16249,3.43511 -7.23835,11.86787 -12.65593,5.82332c-1.80118,-2.00961 -5.26991,-10.19477 -0.9421,-12.6678c1.0623,-1.79994 3.02162,-3.00742 5.26299,-3.00742c0.72317,0 1.41697,0.1257 2.06076,0.35644c2.05482,0.20775 3.8006,0.11448 5.23204,1.74417z" fill="#5cc600" stroke="none" stroke-width="0.5"/><path d="M243.41786,179.44579c4.42521,5.083 6.97196,16.0729 -3.56018,14.32966c-4.43648,-0.7343 -13.25704,-11.09474 -11.84847,-15.32046c1.01297,-3.03892 5.52242,-9.48841 9.86628,-4.42057c1.94094,0.3115 3.57621,1.53766 4.44972,3.2224c0.15033,0.28994 0.2781,0.59347 0.38099,0.90826c0.21731,0.50602 0.44282,0.97189 0.71167,1.28071z" fill="#5cc600" stroke="none" stroke-width="0.5"/><path d="M248.3311,160.19726c5.93143,-1.61543 15.54833,4.30986 15.23245,9.99544c-0.42085,7.57522 -16.20318,6.13692 -17.85008,0.28132c-1.12527,-1.1077 -1.82297,-2.6485 -1.82297,-4.35225c0,-2.5286 1.53679,-4.69826 3.72733,-5.62591c0.21897,-0.12722 0.45557,-0.22843 0.71325,-0.29862z" fill="#5cc600" stroke="none" stroke-width="0.5"/><path d="M235.21035,150.50899c1.17506,0.4066 2.47219,0.79031 3.73386,1.2741c1.5264,0.5853 3.00091,1.31706 4.14455,2.41305c5.23138,5.0134 -4.64859,13.50032 -9.27602,13.42319c-5.69091,-0.09484 -6.67437,-12.4978 -3.86538,-14.10293z" fill="#5cc600" stroke="none" stroke-width="0.5"/><path d="M203.8855,207.43537c1.81222,6.6448 0.82988,8.30954 -5.13481,11.71156c-1.33199,0.75973 -3.28352,2.75385 -5.15526,2.9351c-8.67258,0.83981 -6.4809,-15.86887 -2.47578,-16.09137c0.95588,-0.62052 2.09623,-0.98092 3.32075,-0.98092c0.44013,0 0.8694,0.04656 1.28312,0.13503c2.68242,0.13191 7.52495,-0.04511 8.16197,2.29061z" fill="#5cc600" stroke="none" stroke-width="0.5"/><path d="M233.28996,213.86274c-0.55263,2.21055 0.49506,6.87834 -1.18584,8.75699c-7.78456,8.7004 -14.4668,-4.59457 -13.56279,-11.92565c0.14314,-1.16081 0.46813,-2.24965 0.92966,-3.2404c2.9755,-6.38733 11.6267,-8.69733 13.81897,0.07175z" fill="#5cc600" stroke="none" stroke-width="0.5"/><path d="M218.02258,103.77011c-8.11028,-5.40685 -2.63446,-21.46907 7.14142,-14.63418c9.1021,6.36382 6.4861,25.54659 -5.22221,15.51089z" fill="#cbcb00" stroke="none" stroke-width="0.5"/><path d="M246.09897,98.67279c4.74926,-2.67151 17.22592,-0.41769 14.48328,6.75158c-1.30711,3.41676 -6.27843,6.538 -9.73747,6.84012c-3.08507,0.26945 -8.34236,-1.1129 -7.1223,-5.45085c-0.43263,-0.83807 -0.67693,-1.78918 -0.67693,-2.79735c0,-1.98735 0.9493,-3.75298 2.41919,-4.86816c0.18801,-0.18202 0.39763,-0.34226 0.63423,-0.47534z" fill="#cbcb00" stroke="none" stroke-width="0.5"/><path d="M224.36631,110.96461c3.45731,1.8439 6.67908,4.67666 5.96623,9.10617c-0.4187,2.60176 -2.53065,8.1504 -6.62431,5.81117c-0.74732,0.32607 -1.57251,0.50693 -2.43996,0.50693c-3.37273,0 -6.10686,-2.73413 -6.10686,-6.10686c-0.53516,-4.65399 3.31509,-12.45864 9.20489,-9.31742z" fill="#cbcb00" stroke="none" stroke-width="0.5"/><path d="M195.26617,114.15597c-0.73102,1.36429 -1.22505,2.9365 -1.86013,4.38852c-0.59388,1.35784 -1.31108,2.61057 -2.46075,3.4899c-0.98674,0.75471 -4.32903,0.93537 -5.58834,0.76336c-1.47825,-0.20192 -2.8312,-1.16569 -3.88617,-2.22068c-4.38909,-4.38909 -1.96068,-11.5856 4.21306,-12.34562c1.27793,-0.15731 5.7473,-0.78682 6.57493,0.66154z" fill="#cbcb00" stroke="none" stroke-width="0.5"/><path d="M184.72079,140.35983c-6.22531,-1.16786 -6.76322,-12.39644 -0.57216,-12.7404c0.95588,-0.62052 2.09623,-0.98092 3.32075,-0.98092c1.63916,0 3.12749,0.64581 4.22441,1.69686c7.1835,4.52064 1.6547,13.64301 -6.973,12.02446z" fill="#cbcb00" stroke="none" stroke-width="0.5"/><path d="M309.56793,124.52608c0.96234,0.25004 1.82979,0.41947 2.64748,0.60215c1.51722,0.33897 2.86315,0.72354 4.32621,1.75322c10.16248,7.15225 -10.49296,23.82932 -12.84244,9.35121c-0.13249,-0.81646 -1.122,-7.71185 0.60578,-8.69916z" fill="#cbcb00" stroke="none" stroke-width="0.5"/><path d="M180.46817,141.63266c4.15348,5.05999 -7.12346,14.08742 -11.40692,12.11568c-2.6612,-1.225 -6.15273,-12.38097 -2.27561,-14.59648c1.0623,-1.79994 3.02162,-3.00742 5.26299,-3.00742c2.30211,0 4.3067,1.27382 5.34737,3.15508c1.37093,0.87716 2.5902,1.74599 3.07217,2.33314z" fill="#cbcb00" stroke="none" stroke-width="0.5"/><path d="M227.85527,145.56401c0,3.44166 -2.55358,6.23168 -5.70356,6.23168c-3.15,0 -5.70356,-2.79002 -5.70356,-6.23168c0,-3.44166 2.55358,-6.23168 5.70356,-6.23168c3.15,0 5.70356,2.79002 5.70356,6.23168z" fill="#000000" stroke="none" stroke-width="0"/><path d="M228.21209,143.65433c0,0.6862 -1.3081,-3.55621 -2.37832,-3.13383c-0.91585,0.36144 -2.33284,1.84842 -3.65394,1.84842c-0.90992,0 -1.55388,-1.58285 -2.29733,-1.76576c-1.59728,-0.393 -4.36865,3.92013 -4.36865,3.05118c0,-1.27342 4.01237,-7.16432 6.87723,-7.16432c0.62915,0 1.26269,0.28411 1.86837,0.74101c2.15232,1.62367 3.95265,5.42955 3.95265,6.4233z" fill="#ff9f09" stroke="#c57d08" stroke-width="1.5"/><path d="M227.90482,142.92457c0,1.27342 -2.11118,11.60044 -4.97603,11.60044c-2.86486,0 -6.2435,-9.48204 -6.2435,-10.75546c0,-0.95653 1.48384,3.45083 3.6468,5.17791c0.71657,0.57217 1.88379,-0.09012 2.5967,-0.09012c0.99423,0 2.32017,-0.65666 3.07611,-1.73684c1.42229,-2.03235 1.89992,-5.02741 1.89992,-4.19591z" fill="#ff9f09" stroke="#c57d08" stroke-width="1.5"/><path d="M205.77379,196.15521c-0.25036,0.51981 -0.72707,0.95887 -1.35339,1.31134c-0.30258,1.62124 -1.20569,3.03116 -2.4697,3.99015c-0.20054,0.19414 -0.42414,0.36507 -0.67652,0.50703c-6.51366,3.664 -14.60992,-4.62811 -10.8266,-11.01359c0.3924,-0.6623 1.14465,-1.22623 2.08457,-1.65559c0.31762,-0.44313 0.68945,-0.84477 1.1058,-1.19521c1.15565,-1.81784 3.18755,-3.02402 5.50117,-3.02402c3.38589,-3.20294 8.75903,6.66918 6.63467,11.07988z" fill="#7c0000" stroke="none" stroke-width="0.5"/><path d="M184.67292,188.43428c1.44578,-2.89157 4.8397,-2.99303 7.01781,-1.53384l0.34639,-0.51959l0.01681,-0.03362l0.31737,-0.79343l0.09103,-0.12605l0.03373,-0.15178l0.56096,-1.12193l0.38332,-0.44721l0.08749,-0.14581c-2.8338,-2.27724 -4.62595,-5.17875 0.91876,-6.69094c1.31284,-0.35805 4.02992,1.13237 5.8965,2.95543c0.17946,0.12924 0.34676,0.27432 0.49985,0.43318h0.72702l0.57142,0.14286l0.58727,0.04517l0.55784,0.18595h0.34033l0.43761,0.1094h0.45107l0.74795,0.18699l0.01838,0.0098l0.06454,-0.0176l0.78037,0.46822l0.80299,0.42826l0.01811,0.0644l0.01786,0.01071l0.37398,0.37398l0.18777,0.31294l0.27004,0.24549l0.37398,0.56096l0.16461,0.4609l0.26275,0.41289l0.08327,0.24981l0.15602,0.10401l0.24549,0.27004l0.31294,0.18777l0.37398,0.37398l0.18777,0.31294l0.27004,0.24549l0.74795,1.12193l0.2109,0.59052l0.29508,0.55328l0.18699,0.74795v0.45107l0.1094,0.43761v3.36578l-0.14286,0.57142l-0.0018,0.02344c0.77581,0.67186 1.26658,1.66408 1.26658,2.77092c0,0.27403 -0.03008,0.54104 -0.08713,0.7979c1.49304,2.9515 1.77031,6.23199 -3.01602,6.23199c-0.40757,0 -1.08909,-0.49974 -1.80933,-1.26779l-0.00362,0.01014l-0.28658,0.42986l0.01116,0.14502l0.14286,0.57142v2.9918l-0.39098,1.56393l0.00415,0.07472l-0.0274,0.01826l-0.04379,0.17515l-1.53258,0.87576l-1.46869,0.97913l-0.17624,-0.03917l-0.02859,0.01634l-0.06497,-0.03713l-1.57367,-0.3497l-0.37398,-0.18699l-1.43381,-1.22898l-0.00803,-0.14446l-0.12562,-0.07178l-0.25656,-1.02624l-0.01342,-0.02109l-0.08335,-0.25004l-0.30313,-0.16167l-0.39391,-0.08754l-0.34826,-0.17413h-0.09902l-0.24184,0.10993l-0.8754,0.5836l-0.13883,0.04958l-0.06159,0.10779l-0.80072,0.20018l-0.77728,0.2776l-0.11104,-0.05552l-0.14302,0.03576h-0.56096l-0.43761,-0.1094h-0.45107l-0.31035,-0.07759h-1.04483l-0.29023,-0.07256l-0.1347,0.05825l-0.17385,0.30424l-1.83206,0.45801h-0.56096l-1.83206,-0.45801l-0.49965,-0.87439l-0.87439,-0.49965l-0.45801,-1.83206v-1.30891l0.17532,-0.70128l-0.05502,-0.20175l-0.32005,-0.17069l-0.15478,-0.55034l-0.49637,-0.28364l-0.45801,-1.83206v-0.37398l0.09391,-0.37565l-0.07782,-0.19659l0.27932,-0.60944l0.1626,-0.65038l0.18358,-0.1049l0.16133,-0.352l0.73227,-0.91534l0.73067,-0.93944c0.0382,-0.34833 0.12523,-0.68197 0.25409,-0.99394c-2.27867,-1.34136 -3.81753,-4.12425 -3.03773,-5.68385zM200.31359,197.94481l0.43599,-0.07032l0.405,-0.17609l1.11734,-0.18622l1.0391,-2.07821l0.82729,-1.82004l0.31212,-0.93635v-2.12924l-0.06265,-0.09397l-0.1756,-0.11707l-0.24549,-0.27004l-0.31294,-0.18777l-0.37398,-0.37398l-0.18777,-0.31294l-0.27004,-0.24549l-0.37398,-0.56096l-0.07787,-0.21805l-0.15068,-0.1758l-0.08543,-0.17087l-0.01352,-0.00338l-0.58727,-0.04517l-0.55784,-0.18595h-0.11222l-1.19537,0.14942l-0.11434,0.01906l-0.20776,0.20776l-0.22689,0.45378l-0.31737,0.79343l-0.09103,0.12605l-0.03373,0.15178l-0.18699,0.37398l-0.15068,0.1758l-0.07787,0.21805l-0.3959,0.59385l-0.11064,0.44257v0.48387l-0.1094,0.43761v0.45107l-0.07759,0.31035v0.0578l0.02283,0.03424l-0.02283,0.10273v0.1021l-0.20419,0.81678l-0.18264,0.82187l-0.04566,0.09132l-0.02552,0.1021l-0.00441,0.00252l0.00063,0.00504l-0.06636,0.08168l-0.04566,0.09132l-0.54791,0.63923l-0.5309,0.65342l-0.08168,0.06126l-0.06849,0.0799l-0.04109,0.00228l-0.34837,0.26128l-0.20778,0.20778l-0.00668,0.03339l0.67884,0.38791l0.97948,0.3673l1.43192,0.3182l0.40345,0.20173l0.24176,0.05373z" fill="#a40000" stroke="none" stroke-width="0.5"/><path d="M250.87078,182.02121c0.76473,0.81149 0.84306,1.48578 0.64049,2.07265c-0.12266,0.55811 -0.48018,1.0721 -1.01139,1.50544c-0.32933,0.41757 -0.5679,0.80346 -0.42048,1.19389c0.48791,1.29224 1.16447,2.08869 -0.02521,3.54771c-0.80857,0.99162 -3.03,1.3513 -4.8125,1.64148c-1.4984,0.24393 -2.73971,-0.8779 -4.04548,-1.37986c-4.44203,-1.70758 -1.71751,-4.9886 -0.62458,-7.17031c0.02163,-0.18616 0.06926,-0.36805 0.14074,-0.54439c0.26899,-0.66354 0.87569,-1.24837 1.70539,-1.68602c-2.75613,-1.41984 -4.16896,-3.8053 -2.12942,-5.86003c0.3924,-0.39533 1.14465,-0.73194 2.08457,-0.98822c0.31761,-0.2645 0.68945,-0.50424 1.1058,-0.71342c1.15565,-1.08507 3.18755,-1.80504 5.50117,-1.80504c3.38589,-1.91184 8.75903,3.98084 6.63467,6.6136h-0.00001c-0.25036,0.31028 -0.72707,0.57235 -1.35339,0.78274c-0.30258,0.96772 -1.20568,1.80931 -2.46969,2.38173c-0.20054,0.11588 -0.42414,0.21791 -0.67652,0.30265c-0.08778,0.02947 -0.17585,0.05765 -0.26417,0.08455c0.00674,0.00691 0.01341,0.01387 0.02001,0.02087z" fill="#7c0000" stroke="none" stroke-width="0.5"/><path d="M232.83076,174.13822c1.44579,-2.89156 4.83971,-2.99303 7.01781,-1.53384l0.34639,-0.51959l0.01681,-0.03363l0.31738,-0.79343l0.09103,-0.12605l0.03373,-0.15178l0.56096,-1.12193l0.38332,-0.44721l0.08748,-0.14582c-2.8338,-2.27724 -4.62595,-5.17874 0.91876,-6.69094c1.31284,-0.35805 4.02993,1.13237 5.89651,2.95543c0.17947,0.12924 0.34676,0.27431 0.49985,0.43318h0.72702l0.57142,0.14285l0.58728,0.04517l0.55783,0.18595h0.34033l0.43761,0.1094h0.45108l0.74794,0.18698l0.01838,0.0098l0.06455,-0.0176l0.78037,0.46822l0.80299,0.42826l0.01811,0.0644l0.01786,0.01072l0.37398,0.37398l0.18777,0.31295l0.27005,0.24549l0.37398,0.56097l0.16461,0.4609l0.26275,0.41289l0.08326,0.24981l0.15603,0.10401l0.24549,0.27005l0.31295,0.18777l0.37398,0.37398l0.18777,0.31294l0.27004,0.24549l0.74795,1.12193l0.21091,0.59052l0.29508,0.55328l0.18698,0.74795v0.45108l0.1094,0.4376v3.36578l-0.14285,0.57142l-0.00181,0.02343c0.77581,0.67186 1.26659,1.66408 1.26659,2.77092c0,0.27403 -0.03008,0.54104 -0.08712,0.79791c1.49304,2.9515 1.77031,6.23199 -3.01602,6.23199c-0.40756,0 -1.0891,-0.49974 -1.80934,-1.26779l-0.00362,0.01014l-0.28658,0.42986l0.01116,0.14503l0.14286,0.57142v2.99181l-0.39099,1.56392l0.00415,0.07472l-0.02739,0.01826l-0.04379,0.17515l-1.53258,0.87576l-1.46869,0.97913l-0.17624,-0.03917l-0.02859,0.01633l-0.06497,-0.03713l-1.57367,-0.3497l-0.37398,-0.18698l-1.43381,-1.22898l-0.00803,-0.14446l-0.12562,-0.07178l-0.25656,-1.02624l-0.01343,-0.02109l-0.08334,-0.25004l-0.30313,-0.16167l-0.39392,-0.08753l-0.34826,-0.17413h-0.09903l-0.24184,0.10993l-0.8754,0.5836l-0.13884,0.04959l-0.06159,0.10778l-0.80072,0.20018l-0.77728,0.2776l-0.11104,-0.05552l-0.14301,0.03575h-0.56097l-0.4376,-0.10939h-0.45108l-0.31034,-0.07759h-1.04483l-0.29022,-0.07256l-0.13471,0.05825l-0.17385,0.30424l-1.83206,0.45801h-0.56097l-1.83206,-0.45801l-0.49965,-0.87439l-0.8744,-0.49965l-0.45801,-1.83206v-1.30892l0.17532,-0.70128l-0.05502,-0.20175l-0.32005,-0.17069l-0.15479,-0.55034l-0.49637,-0.28363l-0.45801,-1.83206v-0.37398l0.09392,-0.37564l-0.07782,-0.19659l0.27932,-0.60944l0.1626,-0.65038l0.18357,-0.1049l0.16133,-0.352l0.73228,-0.91534l0.73067,-0.93944c0.0382,-0.34833 0.12522,-0.68197 0.25409,-0.99394c-2.27866,-1.34136 -3.81753,-4.12425 -3.03773,-5.68385zM248.47144,183.64876l0.43599,-0.07032l0.405,-0.17609l1.11733,-0.18623l1.03911,-2.0782l0.82728,-1.82004l0.31212,-0.93635v-2.12924l-0.06264,-0.09396l-0.17561,-0.11707l-0.24549,-0.27004l-0.31295,-0.18777l-0.37398,-0.37398l-0.18777,-0.31295l-0.27004,-0.24549l-0.37398,-0.56097l-0.07787,-0.21805l-0.15068,-0.1758l-0.08543,-0.17087l-0.01352,-0.00338l-0.58727,-0.04517l-0.55784,-0.18594h-0.11221l-1.19538,0.14942l-0.11434,0.01905l-0.20776,0.20776l-0.22689,0.45378l-0.31737,0.79344l-0.09103,0.12605l-0.03373,0.15178l-0.18698,0.37398l-0.15068,0.1758l-0.07787,0.21805l-0.3959,0.59385l-0.11064,0.44257v0.48387l-0.1094,0.43761v0.45107l-0.07759,0.31035v0.0578l0.02283,0.03424l-0.02283,0.10273v0.1021l-0.20419,0.81678l-0.18264,0.82186l-0.04565,0.09132l-0.02553,0.1021l-0.00441,0.00252l0.00064,0.00504l-0.06637,0.08168l-0.04565,0.09132l-0.54791,0.63923l-0.53091,0.65342l-0.08168,0.06126l-0.06849,0.07991l-0.04109,0.00228l-0.34838,0.26128l-0.20778,0.20778l-0.00668,0.03339l0.67884,0.38791l0.97947,0.36731l1.43192,0.3182l0.40345,0.20173l0.24177,0.05372z" fill="#a40000" stroke="none" stroke-width="0.5"/><path d="M220.44367,217.84904c0.17109,-0.17859 4.06289,-1.10492 4.565,-1.244c5.53138,-1.5321 10.5639,-2.9603 16.42224,-2.70988c3.61145,0.15438 6.98631,2.02584 9.79475,3.8741c6.66556,4.38667 16.35009,7.92065 16.66447,17.95776c0.06249,1.99514 0.15656,3.99838 0,5.98835c-0.2261,2.87383 -1.83705,7.65471 -3.70947,9.84688c-0.87297,1.02204 -3.3192,0.60089 -3.36767,2.6116c-0.38185,15.84253 1.4687,32.43027 4.62736,47.89347c0.21226,1.03914 0.73643,7.16036 1.66487,7.7166c5.13922,3.07894 8.05252,7.50314 10.95353,12.5487c0.72149,1.25485 3.19533,3.81531 2.38674,5.43248c-2.27588,4.55176 -2.9319,4.93246 -8.01308,4.65017c-1.05912,-0.05884 -2.72113,-2.69023 -3.45845,-3.53997c-0.44957,-0.51812 -1.04651,-2.43433 -1.08383,-1.74937c-0.21158,3.88318 1.37409,11.00347 -5.5,11.00347c-6.59502,0 -5.18366,-6.74421 -6.0444,-10.67176c-0.12201,-0.55674 -0.02851,-4.71586 -1.18969,-4.68008c-1.11083,0.03423 -2.22232,2.67646 -2.77916,3.34813c-3.35038,4.04135 -9.0124,11.39663 -13.8531,4.89854c-2.99192,-4.01632 5.28136,-14.3144 8.30331,-17.06162c1.60136,-1.45578 4.31707,-1.68138 4.96721,-3.95716c2.05252,-7.18476 -0.31853,-16.92248 -0.62033,-24.60576c-0.40794,-10.38554 -7.8881,-20.99582 -11.94044,-30.06453c-0.49434,-1.10627 -2.02868,-3.78219 -2.73965,-6.22933c-3.66338,-1.23568 -7.05686,-2.96955 -8.69981,-5.20021c-0.15936,0.15667 -0.33074,0.31481 -0.51283,0.47382l-0.25702,1.1566l-0.44674,0.89348l-0.12572,0.75434l-0.26315,1.84208l-0.18862,0.46298l-0.03834,0.49846l-0.37218,1.11653l-0.20465,1.63718l-0.15486,0.40004l-0.01429,0.42873l-0.44119,1.54415l-0.15614,1.09297l0.02202,0.04403l-0.04718,0.1321l-0.03777,0.26436l-0.45915,1.12699l-0.31521,0.8826l-0.09376,0.46881l-0.14878,0.31409l-0.02666,0.34652l-0.2722,0.81659l-0.19666,0.30904l-0.09298,0.3719l-0.00877,0.03949l-0.00219,0.00439l-0.12577,0.50307l-0.10149,0.19029l-0.01654,0.21502l-0.2722,0.81659l-0.47467,0.7459l-0.34309,0.81484l-0.47853,0.63804l-0.12949,0.77692l-0.17395,0.40008l-0.03346,0.43498l-0.81659,2.44978l-0.32519,0.51101l-0.17636,0.57946l-0.50597,0.84328l-0.08128,0.24383l-0.3944,0.61977l-0.16404,0.45932l-0.01022,0.04086l-0.27415,1.23366l-0.06854,0.13707l-0.03831,0.15325l-0.05364,0.03065l-0.2091,0.41821l-0.03511,0.10533l0.01625,0.0596l-0.08127,0.13546l-0.04846,0.14539l-0.67848,1.06618l-0.12807,0.21345v0.24749l-0.16422,0.65686v0.67708l-0.10798,0.43193v3.13369l-0.13286,0.53145l0.02606,0.54719l-0.16539,0.82696v2.17737l-0.16422,0.65686v0.67708l-0.10798,0.43193v1.7727l-0.05367,0.21468l0.08334,0.16668l-0.41669,1.16673l-0.30048,1.20191l-0.1618,0.09245l-0.07443,0.2084l-0.00606,0.00909l1.17396,0.29349l0.55101,0.96426l0.5269,0.45163l0.4124,0.08248l0.23716,0.37269l0.33503,0.19144l0.06279,0.25114l0.281,0.24086l0.01149,0.2069l0.26853,0.42198l0.53657,0.45992l0.02333,0.41992l0.58254,0.91542l0.92807,2.78422l0.02766,0.0158l0.03831,0.15325l0.06854,0.13707l0.27415,1.23366l0.20586,0.82344l0.33659,0.39269l0.2722,0.5444l0.06951,0.31282l0.08643,0.14405l-0.02999,0.10995l0.00544,0.02446l0.28504,0.53445l0.05188,0.20752l0.58522,0.50161l0.00907,0.16332l0.18139,0.15548l0.01015,0.0058l0.00092,0.00369l0.88726,0.76051l0.00468,0.08418l0.20201,0.30302l0.1593,0.1593l0.23457,0.39094l0.01599,0.01066l0.3685,0.40534l0.46974,0.28184l0.81659,0.81659l0.21771,0.36284l0.05659,0.00314l1.84476,2.15222l0.5444,1.08879l0.08588,0.38644l0.21253,0.33398l0.11148,0.33444l0.02766,0.0158l0.03831,0.15325l0.06854,0.13707l0.27415,1.23366l0.3065,1.22602v0.15325l0.03427,0.15421l-0.03427,0.0514v0.32505l0.10798,0.43193v0.67708l0.16422,0.65686v2.17737l0.16539,0.82696l-0.02606,0.54719l0.13286,0.53145v1.08879l-0.6875,2.75l-4.8125,2.75l-4.8125,-2.75l-0.6875,-2.75v-0.54418l-0.16539,-0.82696l0.02606,-0.54719l-0.13286,-0.53145v-2.0449l-0.10798,-0.43193v-0.67708l-0.16422,-0.65686v-0.12313l-1.05254,-1.22796l-0.09534,-0.19068l-0.15331,-0.1022l-0.08418,-0.00468l-0.92595,-1.08028l-0.26181,-0.28799l-0.44332,-0.44332l-0.07823,-0.13039l-0.17372,-0.19109l0.00329,-0.04772l-2.10733,-1.80628l-0.01205,-0.21684l-0.18856,-0.10775l-0.06279,-0.25114l-0.281,-0.24086l-0.01522,-0.27397l-0.29224,-0.34095l-0.19636,-0.39272v7.15535l0.23856,2.14702l-0.04148,0.30692l0.07511,0.30046v0.42545l0.12184,0.54826l0.25834,0.24758v0.91497l0.19848,0.89318l-0.19848,0.29773v0.72876l-0.2722,1.08879l-0.31863,0.59742l-0.20466,0.81863l-0.33362,0.19064l-0.47704,0.89445l-2.14302,0.60272l-1.85882,1.06218l-0.63258,-0.36148l-0.70136,0.19726l-1.5457,-1.4813l-1.93285,-1.10449l-0.24586,-0.98345l-0.27742,-0.26586v-0.84382l-0.16422,-0.65686v-0.44734l-0.43759,-0.9238l-0.20504,-1.02522l-0.04031,-0.12093l-0.2091,-0.41821l-0.05364,-0.03065l-0.03831,-0.15325l-0.06854,-0.13707l-0.27415,-1.23366l-0.3065,-1.22602v-0.15325l-0.03427,-0.15421l0.03427,-0.0514v-6.44608l0.19908,-0.7963l-0.25621,0.06405l-0.44565,0.26739l-0.24786,0.21245l-0.23813,0.11906l-0.07854,0.05236l-0.1593,0.1593l-0.33946,0.20367l-0.24963,0.30724l-1.08879,0.81659l-0.41386,0.17426l-0.13614,0.23824l-1.05769,0.26442l-0.58378,0.2458l-0.28204,0.14102l-0.11199,0.02489l-0.027,0.01137l-0.0082,-0.00355l-0.44409,0.09869l-0.53445,0.28504l-1.08879,0.2722h-0.3205l-0.05959,0.04304l-1.14858,0.45943l-0.52956,0.26478l-0.69709,0.87136l-0.77559,0.59092l-0.68947,0.68947l-0.22598,0.13559l-0.07565,0.12608l-0.5444,0.5444l-0.24125,0.14475l-0.02885,0.03366l-0.03003,0.00167l-0.39067,0.2344l-0.71948,0.65407l-0.33243,-0.02293l-0.68798,0.41279l-2.25869,-0.61601l-2.25057,-0.15521l-0.26549,-0.53099l-0.57274,-0.1562l-0.59357,-2.17642l-1.04701,-2.09402l0.26985,-0.75557l-0.08768,-0.32148l0.50027,-0.83378l0.27095,-0.75867l0.28754,-0.43131l-0.00098,-0.04625l0.09546,-0.09546l0.16238,-0.24357l0.89309,-0.8119l0.03752,-0.03752l0.84328,-0.98382l0.08418,-0.00468l0.16754,-0.11169l0.15198,-0.22797l0.40534,-0.3685l0.28184,-0.46974l0.29064,-0.29064l0.01212,-0.06058l0.13327,-0.08481l0.10837,-0.10837l0.85091,-0.51055l0.01496,-0.0136l0.00691,0.00048l0.00892,-0.00535l0.54365,-0.63426l0.79691,-0.98081l0.1226,-0.09195l0.1028,-0.11994l0.06168,-0.00343l0.41094,-0.30821l0.20327,-0.30491l0.38688,-0.35171l0.05867,-0.29335l0.88005,-0.56003l0.77186,-0.70169l0.29845,0.02058l0.44111,-0.28071l0.11784,-0.03928l1.38379,-0.92253l0.1593,-0.1593l0.46974,-0.28184l0.3685,-0.40534l0.81659,-0.5444l0.52024,-0.1858l0.11435,-0.10396l0.72639,-0.79903l0.81659,-0.5444l0.8864,-0.31657l0.70107,-0.37391l0.83856,-0.97832l0.21684,-0.01205l0.10775,-0.18856l2.33083,-0.58271l0.13707,-0.06854l0.38644,-0.08588l0.33398,-0.21253l0.09837,-0.03279l-0.04835,-0.1934v-2.22101l-0.2532,-3.03839l0.03761,-0.23033l-0.0566,-0.22642v-3.74055l-0.50192,-4.01539l0.04182,-0.34502l-0.08429,-0.33717v-3.88679l-0.25822,-3.61509l0.03463,-0.19741l-0.04861,-0.19444v-15.51527l0.08429,-0.33717l-0.04182,-0.34502l0.2722,-2.17758l0.00658,-0.017l-0.68538,-1.19941l-0.04231,-0.15044l-0.1017,-0.11865l-0.08158,-0.16317l-0.22121,-0.13273l-0.03003,-0.00167l-0.02885,-0.03366l-0.24125,-0.14475l-0.5444,-0.5444l-0.14475,-0.24125l-0.03366,-0.02885l-0.00167,-0.03003l-0.2748,-0.45801l-0.57538,-0.67128l-0.34073,-0.68147l-0.09961,-0.1226l0.00766,-0.0613l-0.38391,-0.76782l-0.54003,-2.43012c-1.78315,-1.25665 -2.99338,-3.13391 -3.0834,-6.07986c-0.05952,-1.94772 -0.12928,-3.91252 -0.01036,-5.85829l-0.07014,-0.04008l-0.30048,-1.20191l-0.41669,-1.16673l0.08334,-0.16668l-0.05367,-0.21468v-0.8411l-0.0065,-0.08445l-0.10149,-0.19029l-0.02736,-0.10944l-0.12565,-0.10209l-0.09195,-0.1226l-0.54439,-0.46662l-0.75813,-0.45488l-0.5444,-0.5444l-0.14475,-0.24125l-0.03366,-0.02885l-0.00167,-0.03003l-0.10177,-0.16961l-0.40534,-0.3685l-0.04296,-0.06444c-0.19647,-0.12726 -0.3843,-0.2667 -0.56244,-0.41727l-0.0684,-0.04104l-0.2722,-0.2722v0l-0.2722,-0.2722l-0.04104,-0.0684c-0.09977,-0.11803 -0.19465,-0.24032 -0.28434,-0.36656l-0.12522,-0.10733l-0.00466,-0.08384c-0.13791,-0.21245 -0.26156,-0.43501 -0.36958,-0.66634l-0.20542,-0.13694l0.01463,-0.26331l-0.44277,-0.73796l0.1543,-0.56577c-0.02286,-0.20366 -0.03461,-0.41068 -0.03461,-0.62044c0,-0.87272 0.20326,-1.69796 0.56503,-2.43097l0.05088,-0.91582l0.65341,-0.56007l0.06939,-0.25442l0.33358,-0.09098l1.09583,-0.93929l2.72198,-1.36099l0.86307,-0.19179l0.81878,-0.33358l1.90538,-0.2722l0.39377,0.04073l0.38405,-0.09601h8.53962c4.08802,-2.51255 9.10066,-0.38896 12.22324,2.78712l0.05856,-0.02267l2.17758,-0.2722l0.09443,0.01145l0.08981,-0.03133l0.37232,-0.03385c0.12407,-0.13267 0.24781,-0.2627 0.3698,-0.39003z" fill="#7c0000" stroke="none" stroke-width="0.5"/><path d="M335.0768,136.89948c9.22868,6.03402 16.83574,15.09269 23.55152,23.60661c1.91751,2.43092 4.61602,5.34143 5.85303,8.10455c2.30899,5.15758 4.79489,6.46803 5.2107,13.39166c0.08221,1.36893 1.21361,2.77675 0.80621,4.40635c-1.00634,4.02538 -5.46748,5.55698 -8.93659,3.57464c-3.45429,-1.97388 -2.90156,-8.67662 -5.0579,-11.60007c-5.7399,-7.78185 -11.16085,-15.08871 -18.56133,-21.28331c-3.97441,-3.3268 -9.15061,-5.26074 -12.91227,-8.82931c-1.10172,-1.04517 -4.30979,-1.4831 -4.16993,-3.5111c-0.12946,-0.26705 -0.23796,-0.54614 -0.32336,-0.83516c-0.50465,-0.0857 -0.99326,-0.1934 -1.44377,-0.31718c-2.32052,-0.6376 -4.29109,-2.43737 -6.50672,-3.35512c-3.69189,-1.52923 -9.6228,-1.95382 -12.60237,-4.62031c-0.13678,-0.12241 -0.33029,-0.16726 -0.50844,-0.21151c-2.39549,-0.59498 -4.78482,-1.10645 -7.18691,-1.68586c-0.23384,-0.0564 -0.59166,-0.32079 -0.71274,-0.11294c-2.71502,4.66067 -6.05719,7.99868 -9.20499,12.25271c-1.13961,1.54011 -1.84526,4.37688 -3.13386,5.57661c-0.78116,0.72729 -3.22941,2.25693 -3.44967,3.19304c-0.78228,3.32462 -3.72572,7.77898 -6.37325,9.50181c-1.9306,1.25631 -9.42518,2.58283 -11.54903,0.68254c-2.7119,-2.42644 -4.28787,-7.85044 -0.72608,-10.11703l0.15155,-0.34099c1.33273,-5.33093 4.55759,-10.22456 6.86539,-15.20041c1.10736,-2.3876 1.21213,-5.71603 1.97672,-8.29665c1.34459,-4.53823 5.87522,-9.48234 9.6821,-12.23176c3.65327,-2.63847 9.85764,-5.05571 14.4179,-5.3633c8.19701,-0.5529 25.92005,6.02169 31.88356,12.20591c1.57928,1.63773 5.18779,4.61637 7.05711,7.47617c2.17075,1.35114 4.21492,2.83541 5.90341,3.9394z" fill="#7c0000" stroke="none" stroke-width="0.5"/><path d="M68.88952,171.69105c-6.55508,0.50424 -10.6814,-5.5398 -5.00406,-10.22195c3.88814,-3.20658 9.11744,-3.78845 14.06059,-4.69311c1.36436,-1.22338 4.14249,-2.11667 5.38076,-2.4862c4.58204,-1.36738 9.72109,-5.61046 13.25396,-8.85082c2.82034,-2.58682 5.46664,-5.33424 8.33116,-7.88304c5.41523,-4.81839 14.82279,-7.07547 21.40181,-10.25117c4.4898,-2.16723 9.12379,-4.70219 13.14353,-7.64953c1.81296,-1.32929 3.6976,-3.47902 5.71208,-4.48627c8.07236,-4.03618 20.7585,-0.27933 26.34883,6.24089c1.03162,1.20322 5.29069,2.46678 6.78068,3.74392c5.41781,4.64383 5.40632,13.15884 9.31881,18.55002c3.51831,4.84803 8.09374,9.3842 8.55158,15.70651c0.03414,0.47139 0.02045,0.96231 -0.03665,1.4625c0.02423,0.22813 0.03665,0.45979 0.03665,0.69435c0,2.1399 -1.03406,4.03827 -2.62976,5.2227c-2.3712,2.81716 -5.97987,4.02775 -9.3237,0.12662l-0.14951,-0.07477c-6.93654,-5.94561 -5.33525,-6.74958 -7.11849,-15.64381c-0.55562,-2.77124 -5.71956,-7.767 -7.39621,-10.38696c-1.68483,-2.63273 -3.12162,-5.23631 -5.50789,-7.27007c-0.23983,-0.2044 -0.33562,-0.7964 -0.63558,-0.69982c-5.72358,1.84277 -12.33026,3.63506 -17.64726,6.46523c-5.57212,2.96596 -9.9219,7.33551 -15.46398,10.28057c-3.4733,1.84571 -7.09662,3.46879 -10.78336,4.98728c-1.46882,3.19911 -6.58868,6.49297 -8.66396,7.8473c-0.49788,0.32492 0.14805,1.26131 -0.14692,1.7775c-1.13667,1.98917 -5.089,3.23548 -6.85931,3.98434c-3.4238,1.44833 -6.36781,-0.31137 -7.61685,0.00799c-6.5954,1.68634 -12.59245,3.88893 -19.31698,5.1946c-2.58641,0.50219 -7.01702,1.46445 -7.89041,-1.73799z" fill="#7c0000" stroke="none" stroke-width="0.5"/><path d="M146.48818,124.73732c1.07438,0.32467 2.02531,0.52271 2.90287,0.73272c1.42922,0.34202 2.66386,0.71571 3.92028,1.71963c4.23537,3.38426 3.19975,8.02587 -1.05069,11.24031c-1.2913,0.97656 -5.14902,3.90866 -6.74757,2.99521c-1.70186,-0.97249 -3.3712,-2.0042 -5.00212,-3.09147c-1.40344,-0.93562 -0.72777,-9.76496 0.71424,-10.58898z" fill="#cbcb00" stroke="none" stroke-width="0.5"/><path d="M166.74834,117.32461c-0.66957,7.45826 -14.98878,7.58678 -14.98878,1.0646c-0.11911,-0.47601 -0.18234,-0.97417 -0.18234,-1.48709c0,-0.87649 0.18466,-1.70985 0.51718,-2.46331c3.11998,-10.52737 15.61832,-7.85641 14.65395,2.88579z" fill="#cbcb00" stroke="none" stroke-width="0.5"/><path d="M289.07734,127.27224c7.71012,-1.59623 8.65157,16.43187 3.80967,19.65981c-4.55726,3.03817 -16.25609,-2.36179 -15.00414,-6.95226c-0.12629,-0.48922 -0.19347,-1.00219 -0.19347,-1.53085c0,-2.80236 1.88759,-5.16386 4.46069,-5.88242c1.90137,-2.4943 4.00983,-4.69028 6.92724,-5.29427z" fill="#cbcb00" stroke="none" stroke-width="0.5"/><path d="M281.15572,116.1669c2.20212,-3.07349 1.12446,-4.86648 5.45007,-6.0646c1.01046,-0.27989 2.12118,-1.3423 3.03468,-0.82763c3.62374,2.04161 7.97596,7.78645 6.79968,12.4916c-1.00463,4.01854 -4.864,6.59368 -8.45267,4.54303c-0.58864,0.18886 -1.21618,0.29083 -1.86753,0.29083c-3.14172,0 -5.72932,-2.37242 -6.06906,-5.42351c-0.51166,-1.41506 -0.29696,-3.05326 1.10482,-5.00972z" fill="#cbcb00" stroke="none" stroke-width="0.5"/><path d="M258.65833,161.03276c-5.26634,-1.1703 -15.14137,-14.09498 -3.35151,-14.34583c1.0942,-1.03535 2.5712,-1.67027 4.19648,-1.67027c3.37273,0 6.10686,2.73413 6.10686,6.10686c0,0.24618 -0.01456,0.48894 -0.04288,0.7275c1.3945,5.01404 -0.55833,10.59298 -6.90894,9.18173z" fill="#cbcb00" stroke="none" stroke-width="0.5"/></g></g></svg>