<svg version="1.1" xmlns="http://www.w3.org/2000/svg" xmlns:xlink="http://www.w3.org/1999/xlink" width="290.432" height="336.31574" viewBox="0,0,290.432,336.31574"><g transform="translate(-56.67751,-22.28952)"><g data-paper-data="{&quot;isPaintingLayer&quot;:true}" fill-rule="nonzero" stroke-linejoin="miter" stroke-miterlimit="10" stroke-dasharray="" stroke-dashoffset="0" style="mix-blend-mode: normal"><path d="M59.92752,130.53953v-105h106.08247v105l0.08419,23l-28.33333,-23z" fill="#2e2e2e" stroke="#161616" stroke-width="6.5" stroke-linecap="butt"/><text transform="translate(66.21601,47.60975) scale(0.38108,0.38108)" font-size="40" xml:space="preserve" fill="#ffffff" fill-rule="nonzero" stroke="none" stroke-width="1" stroke-linecap="butt" stroke-linejoin="miter" stroke-miterlimit="10" stroke-dasharray="" stroke-dashoffset="0" font-family="Sans Serif" font-weight="normal" text-anchor="start" style="mix-blend-mode: normal"><tspan x="0" dy="0">I could be</tspan><tspan x="0" dy="48px">baking right</tspan><tspan x="0" dy="48px">now...</tspan></text><path d="M166.04549,332.36075l25.06587,-151.85869l13.20648,3.65872l-25.06588,151.85869z" data-paper-data="{&quot;index&quot;:null}" fill="#ce0000" stroke="#950000" stroke-width="3.5" stroke-linecap="butt"/><g data-paper-data="{&quot;index&quot;:null}" fill="#820000" stroke="none" stroke-width="0" stroke-linecap="butt"><path d="M177.41661,302.03902c0.26457,-1.52402 1.40175,-2.53379 2.53996,-2.25538c1.1382,0.27842 1.8464,1.7396 1.58183,3.26363c-0.26458,1.52403 -1.40174,2.53381 -2.53995,2.25538c-1.1382,-0.27841 -1.84641,-1.73959 -1.58184,-3.26362z"/><path d="M174.14509,306.09938c0.20071,-1.15616 1.0634,-1.92219 1.92686,-1.71098c0.86347,0.21121 1.40073,1.31969 1.20002,2.47584c-0.20071,1.15616 -1.0634,1.92219 -1.92686,1.71098c-0.86346,-0.21121 -1.40073,-1.31969 -1.20002,-2.47584z"/><path d="M176.59788,297.57332c0.62417,0.15269 1.02735,0.86877 0.90051,1.59942c-0.12684,0.73064 -0.73568,1.1992 -1.35985,1.04651c-0.62418,-0.15268 -1.02733,-0.86877 -0.90049,-1.59942c0.12685,-0.73066 0.73566,-1.19918 1.35983,-1.04651z"/></g><g data-paper-data="{&quot;index&quot;:null}" fill="#820000" stroke="none" stroke-width="0" stroke-linecap="butt"><path d="M195.67009,215.74472c1.13932,0.27021 1.85988,1.64071 1.60941,3.06109c-0.25047,1.42037 -1.37712,2.35276 -2.51644,2.08255c-1.13932,-0.27021 -1.85988,-1.6407 -1.6094,-3.06107c0.25047,-1.42038 1.37712,-2.35278 2.51644,-2.08257z"/><path d="M189.92287,221.58827c0.19,-1.07752 1.04471,-1.78486 1.90902,-1.57988c0.86431,0.20499 1.41094,1.24468 1.22093,2.3222c-0.19,1.07753 -1.0447,1.78487 -1.90901,1.57988c-0.86431,-0.20498 -1.41095,-1.24468 -1.22093,-2.3222z"/><path d="M190.94684,214.61557c0.12007,-0.68096 0.72393,-1.11287 1.34871,-0.96468c0.62478,0.14819 1.03393,0.82034 0.91385,1.50129c-0.12009,0.68096 -0.72393,1.11286 -1.34871,0.96469c-0.62478,-0.14818 -1.03394,-0.82033 -0.91385,-1.50129z"/></g><path d="M181.57875,330.57191c2.3461,12.50943 -6.37919,24.27688 -19.4885,26.28335c-9.58506,1.46706 -18.85993,-2.69031 -24.07108,-9.92134c-1.21308,-1.68326 26.93268,-6.20508 32.48976,-10.73234c3.22032,-2.62354 -14.81186,-5.77608 -15.04326,-7.00991c-0.72107,-3.84475 -21.75624,1.02691 -20.57978,-2.41581c2.65129,-7.75865 9.62817,-13.83143 18.70836,-15.2212c13.10931,-2.00647 25.6384,6.50785 27.98451,19.01727z" data-paper-data="{&quot;index&quot;:null}" fill="#ce0000" stroke="#950000" stroke-width="3.5" stroke-linecap="butt"/><path d="M300.99343,332.42417l-25.06588,-151.85869l13.20648,-3.65872l25.06587,151.8587z" data-paper-data="{&quot;index&quot;:null}" fill="#ce0000" stroke="#950000" stroke-width="3.5" stroke-linecap="butt"/><g data-paper-data="{&quot;index&quot;:null}" fill="#820000" stroke="none" stroke-width="0" stroke-linecap="butt"><path d="M302.82881,298.44373c0.26457,1.52403 -0.44365,2.98521 -1.58185,3.26362c-1.13821,0.27842 -2.27537,-0.73135 -2.53995,-2.25538c-0.26457,-1.52403 0.44364,-2.98521 1.58183,-3.26363c1.13821,-0.27841 2.27539,0.73136 2.53996,2.25538z"/><path d="M306.10032,302.50408c0.20071,1.15616 -0.33656,2.26464 -1.20002,2.47585c-0.86346,0.21121 -1.72615,-0.55482 -1.92686,-1.71099c-0.20071,-1.15616 0.33655,-2.26464 1.20002,-2.47585c0.86346,-0.21121 1.72616,0.55482 1.92687,1.71099z"/><path d="M305.00737,295.02454c0.12684,0.73065 -0.27631,1.44675 -0.90049,1.59942c-0.62417,0.15269 -1.233,-0.31587 -1.35984,-1.04651c-0.12684,-0.73065 0.27633,-1.44674 0.9005,-1.59943c0.62417,-0.15268 1.23299,0.31586 1.35983,1.04651z"/></g><g data-paper-data="{&quot;index&quot;:null}" fill="#820000" stroke="none" stroke-width="0" stroke-linecap="butt"><path d="M287.09177,214.23198c0.25047,1.42037 -0.47008,2.79086 -1.60941,3.06107c-1.13933,0.27021 -2.26597,-0.66218 -2.51644,-2.08255c-0.25047,-1.42038 0.47009,-2.79088 1.6094,-3.06108c1.13933,-0.27021 2.26597,0.66218 2.51644,2.08256z"/><path d="M290.32255,217.99298c0.19001,1.07752 -0.35662,2.11722 -1.22093,2.32219c-0.86431,0.20499 -1.71901,-0.50235 -1.90902,-1.57988c-0.19002,-1.07753 0.35662,-2.11722 1.22093,-2.3222c0.86431,-0.20498 1.71902,0.50236 1.90902,1.57988z"/><path d="M289.29858,211.02028c0.12009,0.68096 -0.28907,1.35312 -0.91385,1.50129c-0.62479,0.14817 -1.22862,-0.28372 -1.34871,-0.96469c-0.12009,-0.68096 0.28907,-1.35311 0.91385,-1.50129c0.62478,-0.14818 1.22863,0.28372 1.34871,0.96468z"/></g><path d="M298.66665,326.97663c2.34611,-12.50942 14.8752,-21.02374 27.98451,-19.01727c9.08018,1.38978 16.05707,7.46256 18.70836,15.22121c1.17645,3.44272 -19.85871,-1.42894 -20.57978,2.41581c-0.2314,1.23384 -18.26357,4.38638 -15.04326,7.00991c5.55708,4.52726 33.70283,9.04908 32.48976,10.73234c-5.21115,7.23104 -14.48602,11.38841 -24.07108,9.92134c-13.10932,-2.00647 -21.8346,-13.77393 -19.4885,-26.28335z" fill="#ce0000" stroke="#950000" stroke-width="3.5" stroke-linecap="butt"/><path d="M252.16667,313.60417v-115.33333h16.33333v115.33333z" data-paper-data="{&quot;index&quot;:null}" fill="#ce0000" stroke="#950000" stroke-width="3.5" stroke-linecap="butt"/><g data-paper-data="{&quot;index&quot;:null}" fill="#820000" stroke="none" stroke-width="0" stroke-linecap="butt"><path d="M262.17032,278.58078c1.4017,0 2.53801,1.21485 2.53801,2.71345c0,1.4986 -1.1363,2.71345 -2.53801,2.71345c-1.4017,0 -2.53802,-1.21485 -2.53802,-2.71345c0,-1.4986 1.13631,-2.71345 2.53802,-2.71345z"/><path d="M258.52564,283.82054c1.06336,0 1.92539,0.92162 1.92539,2.05848c0,1.13687 -0.86203,2.05848 -1.92539,2.05848c-1.06336,0 -1.92539,-0.92161 -1.92539,-2.05848c0,-1.13687 0.86203,-2.05848 1.92539,-2.05848z"/><path d="M257.74926,277.27083c0.76867,0 1.39182,0.58243 1.39182,1.30089c0,0.71846 -0.62314,1.30089 -1.39182,1.30089c-0.76867,0 -1.39181,-0.58243 -1.39181,-1.30089c0,-0.71846 0.62313,-1.30089 1.39181,-1.30089z"/></g><g data-paper-data="{&quot;index&quot;:null}" fill="#820000" stroke="none" stroke-width="0" stroke-linecap="butt"><path d="M264.79532,217.58078c1.4017,0 2.53801,1.21486 2.53801,2.71345c0,1.49859 -1.13631,2.71345 -2.53801,2.71345c-1.4017,0 -2.53801,-1.21485 -2.53801,-2.71345c0,-1.49859 1.13631,-2.71345 2.53801,-2.71345z"/><path d="M261.15063,222.82054c1.06336,0 1.92539,0.92162 1.92539,2.05848c0,1.13687 -0.86203,2.05848 -1.92539,2.05848c-1.06336,0 -1.92539,-0.92162 -1.92539,-2.05848c0,-1.13687 0.86203,-2.05848 1.92539,-2.05848z"/><path d="M260.37426,216.27084c0.76868,0 1.39182,0.58243 1.39182,1.30088c0,0.71846 -0.62313,1.30089 -1.39182,1.30089c-0.76868,0 -1.39182,-0.58243 -1.39182,-1.30089c0,-0.71846 0.62313,-1.30088 1.39182,-1.30088z"/></g><path d="M249.83333,333.9375v-26.33333h20.33334v26.33333z" data-paper-data="{&quot;index&quot;:null}" fill="#d3d3d3" stroke="#a0a0a0" stroke-width="3.5" stroke-linecap="butt"/><path d="M265.5,324.27084v-15.66667" data-paper-data="{&quot;index&quot;:null}" fill="none" stroke="#a0a0a0" stroke-width="3.5" stroke-linecap="round"/><path d="M259.83333,318.60417v-10.33333" data-paper-data="{&quot;index&quot;:null}" fill="none" stroke="#a0a0a0" stroke-width="3.5" stroke-linecap="round"/><path d="M253.83333,308.60417l0.33334,14" data-paper-data="{&quot;index&quot;:null}" fill="none" stroke="#a0a0a0" stroke-width="3.5" stroke-linecap="round"/><path d="M248.83333,346.60417v-16.33333h30.33334v16.33333z" data-paper-data="{&quot;index&quot;:null}" fill="#393939" stroke="#2b2b2b" stroke-width="3.5" stroke-linecap="butt"/><path d="M212.83334,313.60417v-115.33333h16.33333v115.33333z" fill="#ce0000" stroke="#950000" stroke-width="3.5" stroke-linecap="butt"/><g fill="#820000" stroke="none" stroke-width="0" stroke-linecap="butt"><path d="M221.70103,281.29423c0,1.4986 -1.13631,2.71345 -2.53801,2.71345c-1.4017,0 -2.53801,-1.21485 -2.53801,-2.71345c0,-1.4986 1.13631,-2.71345 2.53801,-2.71345c1.4017,0 2.53801,1.21485 2.53801,2.71345z"/><path d="M224.73309,285.87902c0,1.13687 -0.86203,2.05848 -1.92539,2.05848c-1.06336,0 -1.92539,-0.92161 -1.92539,-2.05848c0,-1.13687 0.86203,-2.05848 1.92539,-2.05848c1.06336,0 1.92539,0.92162 1.92539,2.05848z"/><path d="M224.97588,278.57172c0,0.71846 -0.62313,1.30089 -1.39181,1.30089c-0.76868,0 -1.39182,-0.58243 -1.39182,-1.30089c0,-0.71846 0.62314,-1.30089 1.39182,-1.30089c0.76868,0 1.39181,0.58243 1.39181,1.30089z"/></g><g fill="#820000" stroke="none" stroke-width="0" stroke-linecap="butt"><path d="M219.07603,220.29423c0,1.49859 -1.1363,2.71345 -2.53801,2.71345c-1.4017,0 -2.53802,-1.21485 -2.53802,-2.71345c0,-1.49859 1.13631,-2.71345 2.53802,-2.71345c1.4017,0 2.53801,1.21486 2.53801,2.71345z"/><path d="M222.10809,224.87902c0,1.13687 -0.86203,2.05848 -1.92539,2.05848c-1.06336,0 -1.92539,-0.92162 -1.92539,-2.05848c0,-1.13687 0.86203,-2.05848 1.92539,-2.05848c1.06336,0 1.92539,0.92162 1.92539,2.05848z"/><path d="M222.35088,217.57172c0,0.71846 -0.62313,1.30089 -1.39181,1.30089c-0.76868,0 -1.39182,-0.58243 -1.39182,-1.30089c0,-0.71846 0.62314,-1.30088 1.39182,-1.30088c0.76868,0 1.39181,0.58243 1.39181,1.30088z"/></g><path d="M294,173.5c0,20.71068 -28.6619,39 -56,39c-27.3381,0 -52,-17.78932 -52,-38.5c0,-20.71068 25.6619,-38.5 53,-38.5c27.3381,0 55,17.28932 55,38z" fill="#ce0000" stroke="#950000" stroke-width="3.5" stroke-linecap="butt"/><path d="M211.16667,333.9375v-26.33333h20.33334v26.33333z" fill="#d3d3d3" stroke="#a0a0a0" stroke-width="3.5" stroke-linecap="butt"/><path d="M215.83334,324.27084v-15.66667" fill="none" stroke="#a0a0a0" stroke-width="3.5" stroke-linecap="round"/><path d="M221.5,318.60416v-10.33333" fill="none" stroke="#a0a0a0" stroke-width="3.5" stroke-linecap="round"/><path d="M227.5,308.60417l-0.33334,14" fill="none" stroke="#a0a0a0" stroke-width="3.5" stroke-linecap="round"/><path d="M202.16667,346.60417v-16.33333h30.33334v16.33333z" fill="#393939" stroke="#2b2b2b" stroke-width="3.5" stroke-linecap="butt"/><g data-paper-data="{&quot;index&quot;:null}" fill="#820000" stroke="none" stroke-width="0" stroke-linecap="butt"><path d="M210.60371,189.86062c0,1.83371 -1.40367,3.32024 -3.13519,3.32024c-1.73151,0 -3.13519,-1.48652 -3.13519,-3.32024c0,-1.83371 1.40367,-3.32024 3.13519,-3.32024c1.73152,0 3.13519,1.48652 3.13519,3.32024z"/><path d="M214.3492,195.47069c0,1.3911 -1.06486,2.51881 -2.37842,2.51881c-1.31356,0 -2.37842,-1.12771 -2.37842,-2.51881c0,-1.3911 1.06486,-2.51881 2.37842,-2.51881c1.31356,0 2.37842,1.12771 2.37842,2.51881z"/><path d="M214.64912,186.52929c0,0.87912 -0.76975,1.5918 -1.7193,1.5918c-0.94955,0 -1.7193,-0.71268 -1.7193,-1.5918c0,-0.87912 0.76975,-1.59179 1.7193,-1.59179c0.94955,0 1.7193,0.71267 1.7193,1.59179z"/></g><g data-paper-data="{&quot;index&quot;:null}" fill="#820000" stroke="none" stroke-width="0" stroke-linecap="butt"><path d="M279.46853,169.20705c1.73152,0 3.13519,1.48652 3.13519,3.32024c0,1.83372 -1.40367,3.32024 -3.13519,3.32024c-1.73152,0 -3.1352,-1.48652 -3.1352,-3.32024c0,-1.83372 1.40368,-3.32025 3.1352,-3.32025z"/><path d="M286.3492,178.13736c0,1.39109 -1.06486,2.5188 -2.37842,2.5188c-1.31356,0 -2.37842,-1.1277 -2.37842,-2.5188c0,-1.3911 1.06486,-2.51881 2.37842,-2.51881c1.31356,0 2.37842,1.12771 2.37842,2.51881z"/><path d="M286.64912,169.19596c0,0.87912 -0.76975,1.5918 -1.7193,1.5918c-0.94954,0 -1.7193,-0.71268 -1.7193,-1.5918c0,-0.87912 0.76976,-1.59179 1.7193,-1.59179c0.94955,0 1.7193,0.71267 1.7193,1.59179z"/></g><g stroke-linecap="butt"><path d="M230.05269,163.54167c0,8.00813 -6.21265,14.5 -13.87634,14.5c-7.66369,0 -13.87634,-6.49187 -13.87634,-14.5c0,-8.00813 6.21265,-14.5 13.87634,-14.5c7.66369,0 13.87634,6.49187 13.87634,14.5z" fill="#ffffff" stroke="#000000" stroke-width="1.5"/><path d="M221.16393,163.89356c0,0 6.51523,3.87994 5.61377,5.36295c-1.5627,2.57084 -4.05793,4.47007 -7.12222,4.47007c-4.83195,0 -8.74902,-4.2223 -8.74902,-9.43077c0,-5.20847 3.91707,-9.43077 8.74902,-9.43077c3.01815,0 5.67935,1.64735 7.25198,4.1534c0.9451,1.50605 -5.74353,4.87511 -5.74353,4.87511z" fill="#000000" stroke="none" stroke-width="0"/></g><g stroke-linecap="butt"><path d="M271.45268,163.94166c0,8.00813 -6.21265,14.5 -13.87634,14.5c-7.66369,0 -13.87634,-6.49187 -13.87634,-14.5c0,-8.00813 6.21265,-14.5 13.87634,-14.5c7.6637,0 13.87634,6.49187 13.87634,14.5z" fill="#ffffff" stroke="#000000" stroke-width="1.5"/><path d="M262.56393,164.29356c0,0 6.51522,3.87995 5.61377,5.36295c-1.56271,2.57084 -4.05793,4.47007 -7.12223,4.47007c-4.83195,0 -8.74902,-4.2223 -8.74902,-9.43077c0,-5.20847 3.91707,-9.43077 8.74902,-9.43077c3.01815,0 5.67935,1.64735 7.25198,4.1534c0.9451,1.50605 -5.74353,4.87511 -5.74353,4.87511z" fill="#000000" stroke="none" stroke-width="0"/></g><path d="M244.3,183.46666c0,0 -4.77009,2.05228 -7.1938,1.98303c-2.22614,-0.0636 -6.8062,-2.38303 -6.8062,-2.38303" fill="none" stroke="#000000" stroke-width="1.5" stroke-linecap="round"/><g fill="#3c3c3c" stroke="#2c2c2c" stroke-width="3.5" stroke-linecap="butt"><path d="M247.44086,214.99383l-0.13683,-7.43934l10.15279,-7.54303l3.69869,18.91885z" data-paper-data="{&quot;index&quot;:null}"/><path d="M222.06127,218.02026l4.27027,-17.14944l9.11884,7.38792l-0.45293,6.80594z"/><path d="M247.36673,205.38938c2.62331,3.40144 1.95009,8.31821 -1.50368,10.98188c-3.45378,2.66367 -8.38024,2.06558 -11.00355,-1.33586c-2.62331,-3.40144 -1.95009,-8.31821 1.50369,-10.98188c3.45378,-2.66367 8.38023,-2.06558 11.00355,1.33586z"/></g></g></g></svg>