<svg version="1.1" xmlns="http://www.w3.org/2000/svg" xmlns:xlink="http://www.w3.org/1999/xlink" width="110.33392" height="95.37306" viewBox="0,0,110.33392,95.37306"><g transform="translate(-184.51765,-132.18848)"><g data-paper-data="{&quot;isPaintingLayer&quot;:true}" fill-rule="nonzero" stroke-linejoin="miter" stroke-miterlimit="10" stroke-dasharray="" stroke-dashoffset="0" style="mix-blend-mode: normal"><path d="M262.14572,159.90195c0,16.80253 -10.29891,30.42367 -23.00327,30.42367c-12.70435,0 -23.00327,-13.62114 -23.00327,-30.42367c0,-16.80253 10.29891,-26.71347 23.00327,-26.71347c12.70435,0 23.00327,9.91094 23.00327,26.71347z" fill="#cbcb00" stroke="#a38400" stroke-width="2" stroke-linecap="butt"/><path d="M264.43637,187.40228c0,16.62609 -8.97267,34.06175 -24.9229,34.06175c-15.95023,0 -23.68617,-19.66178 -23.68617,-36.28787c0,-16.62609 8.23063,-17.9842 24.18086,-17.9842c15.95023,0 24.42821,3.58423 24.42821,20.21032z" fill="#5cc600" stroke="#4ca300" stroke-width="2" stroke-linecap="butt"/><g data-paper-data="{&quot;index&quot;:null}" stroke-linecap="butt"><path d="M241.56442,156.63043c1.69055,0 3.06101,1.30817 3.06101,2.92187c0,1.6137 -1.37046,2.92187 -3.06101,2.92187c-1.69055,0 -3.06101,-1.30817 -3.06101,-2.92187c0,-1.6137 1.37046,-2.92187 3.06101,-2.92187z" fill="#00a9ff" stroke="#0081c1" stroke-width="1.5"/><path d="M240.47874,161.60777c-0.58044,0 -1.05099,-0.47054 -1.05099,-1.05099c0,-0.58044 0.47054,-1.05099 1.05099,-1.05099c0.58044,0 1.05099,0.47054 1.05099,1.05099c0,0.58044 -0.47054,1.05099 -1.05099,1.05099z" fill="#003e5d" stroke="none" stroke-width="0.5"/></g><g stroke-linecap="butt"><path d="M238.89213,159.52668c0,1.6137 -1.37046,2.92187 -3.06101,2.92187c-1.69055,0 -3.06101,-1.30817 -3.06101,-2.92187c0,-1.6137 1.37046,-2.92187 3.06101,-2.92187c1.69055,0 3.06101,1.30817 3.06101,2.92187z" fill="#00a9ff" stroke="#0081c1" stroke-width="1.5"/><path d="M235.86581,160.53114c0,-0.58044 0.47054,-1.05099 1.05099,-1.05099c0.58044,0 1.05099,0.47054 1.05099,1.05099c0,0.58044 -0.47054,1.05099 -1.05099,1.05099c-0.58044,0 -1.05099,-0.47054 -1.05099,-1.05099z" fill="#003e5d" stroke="none" stroke-width="0.5"/></g><path d="M242.14033,163.95565c0,2.1134 -1.56806,3.82665 -3.50235,3.82665c-1.9343,0 -3.50235,-1.71325 -3.50235,-3.82665c0,-2.1134 1.56806,-3.82665 3.50235,-3.82665c1.9343,0 3.50235,1.71325 3.50235,3.82665z" fill="#000000" stroke="none" stroke-width="0" stroke-linecap="butt"/><path d="M222.6514,167.14225c-1.75,0 -1.75,-1.75 -1.75,-1.75l0.04482,-0.17444c-0.14199,-0.61528 -0.28397,-1.23055 -0.42596,-1.84583c0,0 -0.3935,-1.70518 1.31168,-2.09869c1.70518,-0.3935 2.09869,1.31168 2.09869,1.31168c0.14199,0.61528 0.28397,1.23055 0.42596,1.84583l0.04482,0.96145c0,0 0,1.75 -1.75,1.75z" fill="#000000" stroke="none" stroke-width="0.5" stroke-linecap="butt"/><path d="M228.29116,162.11789c0.28777,0.25824 0.51184,0.66036 0.51184,1.28654c0,1.75 -1.75,1.75 -1.75,1.75l-1.77534,-1.12179c-0.23664,-0.61528 -0.47329,-1.23055 -0.70993,-1.84583c0,0 -0.62821,-1.63335 1.00514,-2.26157c1.63335,-0.62821 2.26157,1.00514 2.26157,1.00514c0.15224,0.39583 0.30449,0.79167 0.45673,1.1875z" fill="#000000" stroke="none" stroke-width="0.5" stroke-linecap="butt"/><path d="M251.29653,165.79502c-0.64011,-0.96016 -0.22498,-1.70927 0.13205,-2.10817c0,-0.42544 0,-0.85089 0,-1.27633c0,0 0,-1.75 1.75,-1.75c1.75,0 1.75,1.75 1.75,1.75c0,0.70993 0,1.41987 0,2.1298l-1.20524,1.74006c0,0 -1.45609,0.97073 -2.42681,-0.48536z" fill="#000000" stroke="none" stroke-width="0.5" stroke-linecap="butt"/><path d="M257.43818,167.42622c-1.75,0 -1.75,-1.75 -1.75,-1.75c0,-0.61528 0,-1.51453 0,-2.1298c0,0 0,-1.75 1.75,-1.75c1.75,0 1.75,1.75 1.75,1.75c0,0.61528 0,1.23055 0,1.84583v0.28397c0,0 0,1.75 -1.75,1.75z" fill="#000000" stroke="none" stroke-width="0.5" stroke-linecap="butt"/><path d="M225.24464,159.11269c0.17413,1.74132 -1.56718,1.91545 -1.56718,1.91545l-1.46932,0.14622l-1.9698,0.1407c-0.04707,0.0038 -0.09466,0.00573 -0.1427,0.00573c-0.9665,0 -1.75,-0.7835 -1.75,-1.75c0,-0.55122 0.25485,-1.04292 0.65316,-1.36369l1.55053,-1.26861c0,0 1.35443,-1.10817 2.46259,0.24626c0.10222,0.12494 0.18349,0.24778 0.2468,0.36784l0.07048,-0.00708c0,0 1.74132,-0.17413 1.91545,1.56718z" fill="#0084ff" stroke="none" stroke-width="0.5" stroke-linecap="butt"/><path d="M260.4244,160.80234c-0.37963,1.70833 -2.08796,1.3287 -2.08796,1.3287l-1.45165,-0.33211c-0.94133,-0.57218 -2.42018,-0.69164 -2.82399,-1.71654c-0.1195,-0.30329 0.0684,-0.54579 0.35854,-0.76808c-0.47569,-0.19547 -1.00294,-0.62879 -1.00294,-1.58935c0,-1.75 1.75,-1.75 1.75,-1.75h1.98782c0.9665,0 1.75,0.7835 1.75,1.75c0,0.32741 -0.08991,0.63382 -0.2464,0.89589l0.43788,0.09353c0,0 1.70833,0.37963 1.3287,2.08796z" fill="#0084ff" stroke="none" stroke-width="0.5" stroke-linecap="butt"/><g stroke-linecap="butt"><path d="M197.16462,164.15356c-9.02024,-10.90777 -13.80966,-21.83662 -10.69748,-24.41027c3.11218,-2.57364 12.94747,4.18251 21.96771,15.09029c9.02024,10.90777 13.80966,21.83662 10.69748,24.41027c-3.11218,2.57364 -12.94747,-4.18251 -21.96771,-15.09029z" fill="#cbcb00" stroke="#a38400" stroke-width="2"/><path d="M207.25883,174.66565c-1.74803,0.08302 -1.83106,-1.66501 -1.83106,-1.66501l0.13252,-2.31723c1.13337,-2.01601 1.048,-2.61958 3.54353,-3.51671c0.36369,-0.13075 0.94046,0.55972 1.137,0.22695c0.51366,-0.86966 -0.38536,-2.49369 0.49463,-2.98945c2.37592,-1.33851 4.36726,1.51392 5.51943,2.71452c0,0 1.19251,1.28079 -0.08828,2.4733c-1.28079,1.19251 -2.4733,-0.08828 -2.4733,-0.08828c-0.21532,-0.24112 -0.46402,-0.45954 -0.6984,-0.6877c0.04429,0.35699 0.00967,0.69391 -0.19791,0.96843c-1.57012,2.0764 -2.90259,-0.10021 -4.14041,2.53079l0.26724,0.51931c0,0 0.08302,1.74803 -1.66501,1.83106z" fill="#000000" stroke="none" stroke-width="0.5"/><path d="M198.94667,164.94983c-1.71797,0.33327 -2.05125,-1.38469 -2.05125,-1.38469l-0.37031,-2.03641c0.58361,-2.93121 2.3055,-5.6373 5.70493,-6.44634c0.56738,-0.13503 0.88973,1.0491 1.46546,0.95593c0.59226,-0.09585 0.568,-1.25796 1.1554,-1.38009c3.69965,-0.76918 3.53125,0.3567 4.98158,2.75452c0,0 0.78343,1.56484 -0.78142,2.34827c-1.56484,0.78343 -2.34827,-0.78142 -2.34827,-0.78142c-0.65222,-2.47734 -0.68625,0.20188 -2.65884,0.54131c-0.60544,0.10419 -0.97638,-1.05201 -1.58155,-0.94627c-0.82213,0.14365 -2.46011,2.1457 -2.43838,2.86727l0.30733,1.45664c0,0 0.33327,1.71797 -1.38469,2.05125z" fill="#000000" stroke="none" stroke-width="0.5"/><path d="M192.67334,155.89903c-1.65433,0.5707 -2.22503,-1.08363 -2.22503,-1.08363l-0.49102,-1.74842c0.06375,-1.09498 -0.21841,-2.26748 0.19126,-3.28494c1.41056,-3.50321 6.31713,-3.29112 9.25696,-3.9761c0,0 1.70498,-0.39439 2.09937,1.31059c0.39439,1.70498 -1.31059,2.09937 -1.31059,2.09937c-3.15146,0.72415 -6.9376,-0.03774 -6.73753,3.91289l0.30022,0.5452c0,0 0.5707,1.65433 -1.08363,2.22503z" fill="#000000" stroke="none" stroke-width="0.5"/><path d="M187.85408,147.76709c-1.7205,0.31995 -2.04046,-1.40055 -2.04046,-1.40055l-0.07179,-2.61553c0.6449,-1.14458 2.12765,-3.98594 3.12094,-4.47557c0.84379,-0.41593 1.87269,0.18177 2.80902,0.27265c0,0 1.71333,0.3564 1.35692,2.06972c-0.3564,1.71333 -2.06972,1.35692 -2.06972,1.35692c-1.31368,-0.81817 -1.51137,1.32672 -2.1671,2.493l0.46274,0.25889c0,0 0.31995,1.7205 -1.40055,2.04046z" fill="#000000" stroke="none" stroke-width="0.5"/><path d="M213.36649,178.28006c-1.72011,-0.32207 -1.39803,-2.04218 -1.39803,-2.04218l0.25928,-1.30696c1.33713,-3.33887 2.85306,-3.83183 6.36543,-3.39323c0,0 1.73112,0.25636 1.47476,1.98748c-0.25636,1.73112 -1.98748,1.47476 -1.98748,1.47476c-1.58962,-0.29418 -2.26102,-0.72169 -2.52288,1.00904l-0.1489,0.87306c0,0 -0.32207,1.72011 -2.04218,1.39803z" fill="#000000" stroke="none" stroke-width="0.5"/></g><g data-paper-data="{&quot;index&quot;:null}" stroke-linecap="butt"><path d="M262.15156,177.9398c-3.23928,-2.41173 0.98711,-13.57041 9.43989,-24.92359c8.45278,-11.35318 17.93106,-18.60166 21.17034,-16.18993c3.23928,2.41173 -0.98711,13.57041 -9.43989,24.92359c-8.45278,11.35318 -17.93106,18.60166 -21.17034,16.18992z" fill="#cbcb00" stroke="#a38400" stroke-width="2"/><path d="M272.02025,171.01876l0.24044,-0.53225c-1.37026,-2.56451 -2.5901,-0.32285 -4.26397,-2.31656c-0.2213,-0.26359 -0.27305,-0.59832 -0.247,-0.95709c-0.22246,0.2398 -0.4597,0.47061 -0.66246,0.72238c0,0 -1.1257,1.33988 -2.46558,0.21418c-1.33989,-1.1257 -0.21418,-2.46559 -0.21418,-2.46559c1.08951,-1.25774 2.93292,-4.20793 5.37396,-2.99221c0.90411,0.45028 0.089,2.11799 0.6463,2.96037c0.21325,0.32232 0.75408,-0.39664 1.12396,-0.28459c2.538,0.76883 2.48349,1.37596 3.7181,3.3316l0.25041,2.30746c0,0 0.00614,1.74999 -1.74385,1.75613c-1.74999,0.00614 -1.75613,-1.74385 -1.75613,-1.74385z" fill="#000000" stroke="none" stroke-width="0.5"/><path d="M280.09534,160.65789l0.23271,-1.47041c-0.01506,-0.72175 -1.75291,-2.63774 -2.58129,-2.73932c-0.60977,-0.07477 -0.92132,1.09881 -1.53127,1.02561c-1.98731,-0.23849 -2.15782,-2.9125 -2.68297,-0.40515c0,0 -0.70269,1.60273 -2.30541,0.90004c-1.60272,-0.70269 -0.90004,-2.30541 -0.90004,-2.30541c1.32628,-2.4686 1.10074,-3.58444 4.83477,-3.00476c0.59287,0.09204 0.62785,1.25388 1.22422,1.31943c0.57974,0.06373 0.84133,-1.1353 1.41486,-1.02936c3.43625,0.63479 5.29377,3.24964 6.02596,6.1473l-0.26607,2.05264c0,0 -0.24532,1.73271 -1.97804,1.48741c-1.73272,-0.24531 -1.4874,-1.97804 -1.4874,-1.97804z" fill="#000000" stroke="none" stroke-width="0.5"/><path d="M286.1912,151.11031l0.27205,-0.55979c-0.00147,-3.9557 -3.74387,-3.00189 -6.92814,-3.56455c0,0 -1.72286,-0.30701 -1.41585,-2.02986c0.30701,-1.72286 2.02986,-1.41585 2.02986,-1.41585c2.9709,0.5343 7.8603,0.0725 9.44751,3.49929c0.46098,0.99526 0.23892,2.18061 0.35838,3.27092l-0.40131,1.77118c0,0 -0.48567,1.68125 -2.16692,1.19558c-1.68126,-0.48567 -1.19558,-2.16692 -1.19558,-2.16692z" fill="#000000" stroke="none" stroke-width="0.5"/><path d="M290.28275,142.94389l0.44895,-0.28213c-0.7143,-1.13136 -1.02101,-3.26339 -2.29131,-2.37936c0,0 -1.69294,0.44323 -2.13617,-1.2497c-0.44323,-1.69294 1.24972,-2.13617 1.24972,-2.13617c0.93049,-0.13847 1.92759,-0.78783 2.79148,-0.41543c1.01694,0.43838 2.64254,3.20051 3.34491,4.31074l0.06156,2.61579c0,0 -0.23188,1.73457 -1.96644,1.50269c-1.73457,-0.23188 -1.50269,-1.96645 -1.50269,-1.96645z" fill="#000000" stroke="none" stroke-width="0.5"/><path d="M265.75004,175.39135l-0.19319,-0.86434c-0.34971,-1.71514 -0.99844,-1.25398 -2.57101,-0.87919c0,0 -1.71582,0.34422 -2.06004,-1.37159c-0.34423,-1.71581 1.37159,-2.06004 1.37159,-2.06004c3.48546,-0.61697 5.02453,-0.20189 6.53005,3.06451l0.32553,1.29205c0,0 0.40928,1.70146 -1.29217,2.11075c-1.70146,0.40928 -2.11075,-1.29217 -2.11075,-1.29217z" fill="#000000" stroke="none" stroke-width="0.5"/></g><path d="M240.96771,218.37862c0,4.56214 -4.32274,8.26048 -9.65511,8.26048c-5.33237,0 -9.65511,-3.69834 -9.65511,-8.26048c0,-4.56214 4.32274,-8.26048 9.65511,-8.26048c5.33237,0 9.65511,3.69834 9.65511,8.26048z" fill="#ff7474" stroke="#bb5454" stroke-width="1.5" stroke-linecap="butt"/><path d="M262.86415,218.55107c0,4.56214 -4.32274,8.26048 -9.65511,8.26048c-5.33237,0 -9.65511,-3.69834 -9.65511,-8.26048c0,-4.56214 4.32274,-8.26048 9.65511,-8.26048c5.33237,0 9.65511,3.69834 9.65511,8.26048z" fill="#ff7474" stroke="#bb5454" stroke-width="1.5" stroke-linecap="butt"/><path d="M242.35944,162.78299c0,0.42137 -0.80326,-2.18374 -1.46044,-1.92437c-0.56239,0.22195 -1.43251,1.13505 -2.24375,1.13505c-0.55875,0 -0.95418,-0.97197 -1.41071,-1.08429c-0.98083,-0.24133 -2.68263,2.40721 -2.68263,1.87362c0,-0.78196 2.46385,-4.39935 4.22306,-4.39935c0.38634,0 0.77537,0.17446 1.1473,0.45503c1.32166,0.99704 2.42718,3.33409 2.42718,3.94432z" fill="#ff9f09" stroke="#c57d08" stroke-width="1.5" stroke-linecap="butt"/><path d="M242.17077,162.33487c0,0.78196 -1.2964,7.12341 -3.0556,7.12341c-1.75921,0 -3.83391,-5.82258 -3.83391,-6.60454c0,-0.58737 0.91117,2.11903 2.23937,3.17957c0.44002,0.35135 1.15677,-0.05534 1.59454,-0.05534c0.61052,0 1.42473,-0.40323 1.88893,-1.06653c0.87338,-1.24799 1.16667,-3.08715 1.16667,-2.57656z" fill="#ff9f09" stroke="#c57d08" stroke-width="1.5" stroke-linecap="butt"/><path d="M224.488,145.7265l8.7723,2.5675l-7.91647,5.13501" fill="none" stroke="#000000" stroke-width="2.5" stroke-linecap="round"/><path d="M254.09324,153.50796l-7.91647,-5.13501l8.7723,-2.56751" data-paper-data="{&quot;index&quot;:null}" fill="none" stroke="#000000" stroke-width="2.5" stroke-linecap="round"/></g></g></svg>