<svg version="1.1" xmlns="http://www.w3.org/2000/svg" xmlns:xlink="http://www.w3.org/1999/xlink" width="174.04951" height="312.27378" viewBox="0,0,174.04951,312.27378"><g transform="translate(-179.93482,-5.68234)"><g data-paper-data="{&quot;isPaintingLayer&quot;:true}" fill-rule="nonzero" stroke-linejoin="miter" stroke-miterlimit="10" stroke-dasharray="" stroke-dashoffset="0" style="mix-blend-mode: normal"><g data-paper-data="{&quot;index&quot;:null}" stroke-linecap="butt"><path d="M351.96857,178.01562c2.36479,1.92938 1.32007,7.12361 -2.33345,11.60162c-3.65352,4.47801 -13.68209,3.55645 -16.04689,1.62707c-0.62609,-0.51081 -2.64534,-9.08832 -2.50917,-14.15793c0.161,-5.99411 5.33547,-9.97935 10.20174,-8.09667c4.86626,1.88268 -1.7519,15.53127 -0.20935,13.6406c3.65352,-4.47801 8.53232,-6.54408 10.89712,-4.61469z" fill="#d00000" stroke="#000000" stroke-width="1.5"/><g stroke="#af4c00"><path d="M337.46673,187.23068c0,0 -10.65218,31.15641 -34.0493,44.39675c-23.39711,13.24035 -45.20157,16.09507 -49.35916,8.74816c-2.91503,-5.15118 0.80942,-33.69181 13.19625,-43.61942c5.28001,-4.23174 21.88494,13.31194 29.43923,10.57563c26.53205,-9.61044 40.77298,-20.10112 40.77298,-20.10112z" fill="#ff6f00" stroke-width="3"/><path d="M288.95804,222.78751l4.09316,-2.3163l6.36984,11.2562l-4.09316,2.3163z" fill="#ffffff" stroke-width="0"/><path d="M297.17133,218.68003l4.09316,-2.3163l6.36984,11.2562l-4.09317,2.3163z" fill="#ffffff" stroke-width="0"/><path d="M303.01679,214.2522l3.69027,-2.91567l8.0181,10.14825l-3.69027,2.91567z" fill="#ffffff" stroke-width="0"/><path d="M308.29032,209.22027l3.01646,-3.60836l9.92298,8.29526l-3.01646,3.60836z" fill="#ffffff" stroke-width="0"/></g></g><g stroke="#000000" stroke-linecap="butt"><path d="M195.28231,235.69629l1.93288,-2.91099l-1.7671,-3.04237l8.03099,-0.23129l-0.16578,5.95337z" fill="#032b00" stroke-width="1.5"/><path d="M202.53496,244.48025l17.42473,-87.27582l12.01638,2.44652l-17.42473,87.27581z" fill="#ffffff" stroke-width="3"/><path d="M218.29902,248.70559c0.54208,2.06154 -0.3255,8.82026 -1.94345,13.02964c-1.26003,3.27818 -3.04156,8.17198 -3.78307,6.08777c-2.55325,-7.17654 -2.1046,-9.76131 -4.36898,-12.32322c-0.86813,-0.98221 1.18479,11.07194 -0.85762,13.39719c-1.18278,1.34659 -4.79175,0.64424 -7.60464,-1.58478c-2.35238,-1.8641 -4.07361,-5.18978 -4.06354,-5.51871c0.2712,-8.86057 -0.02378,-7.61002 1.45397,-15.01169c1.47776,-7.40167 7.74283,-12.37025 13.99346,-11.09763c6.25063,1.27262 5.04868,4.93916 7.17387,13.02144z" fill="#ffffff" stroke-width="3"/><path d="M201.52091,236.45005l1.69679,-8.49877l17.04649,3.47064l-1.69679,8.49876z" fill="#032b00" stroke-width="1.5"/></g><path d="M257.18674,291.12041v-58.84957h12.19001v58.84957c0,0 -0.83747,-1.11492 1.04495,10.71162c0.25284,1.58846 4.5549,8.34048 2.96234,10.66778c-0.77524,1.1329 -3.89978,-2.99295 -5.01302,-1.76985c-1.06805,1.17345 -3.11179,5.39577 -3.80528,5.72616c-2.18556,1.04122 -3.48887,-3.97679 -4.61868,-3.94819c-1.68988,0.04276 -3.53459,3.90577 -5.47303,1.03971c-2.17747,-3.21947 -1.10886,-9.06086 -0.77015,-9.45252c3.60661,-4.17044 3.48286,-12.9747 3.48286,-12.9747z" fill="#ffffff" stroke="#000000" stroke-width="3" stroke-linecap="butt"/><path d="M226.18674,289.12041v-58.84957h12.19001v58.84957c0,0 -0.83747,-1.11492 1.04495,10.71163c0.25283,1.58847 4.5549,8.34048 2.96234,10.66778c-0.77524,1.13291 -3.89978,-2.99294 -5.01301,-1.76984c-1.06805,1.17345 -3.11179,5.39577 -3.80528,5.72615c-2.18556,1.04122 -3.48887,-3.97678 -4.61868,-3.94819c-1.68988,0.04276 -3.53459,3.90577 -5.47303,1.0397c-2.17747,-3.21947 -1.10886,-9.06086 -0.77015,-9.45252c3.60661,-4.17044 3.48286,-12.97471 3.48286,-12.97471z" fill="#ffffff" stroke="#000000" stroke-width="3" stroke-linecap="butt"/><path d="M242.15308,162.57262v-13.35683h7.90123v13.35683z" fill="#ffffff" stroke="#000000" stroke-width="3" stroke-linecap="butt"/><g data-paper-data="{&quot;index&quot;:null}" stroke-linecap="butt"><path d="M299.80166,6.43715c3.04708,-0.17334 5.78332,4.36366 6.11156,10.13367c0.32823,5.77001 -7.69181,11.86104 -10.73889,12.03438c-0.80673,0.04589 -8.08743,-4.91822 -11.40975,-8.74989c-3.92818,-4.53042 -2.80175,-10.9638 2.05908,-12.86047c4.86083,-1.89667 9.19367,12.63985 9.05509,10.20369c-0.32823,-5.77001 1.87583,-10.58805 4.92291,-10.76138z" fill="#d00000" stroke="#000000" stroke-width="1.5"/><g stroke="#af4c00"><path d="M295.32558,23.02586c0,0 13.17753,30.17521 4.85731,55.73897c-8.32022,25.56376 -22.47747,42.391 -30.50473,39.77837c-5.62819,-1.8318 -22.15009,-25.40012 -19.71529,-41.08652c1.03786,-6.68648 25.13162,-4.95581 28.85681,-12.07464c13.08353,-25.00263 16.5059,-42.35618 16.5059,-42.35618z" fill="#ff6f00" stroke-width="3"/><path d="M283.54822,82.00616l1.45557,-4.4722l12.29855,4.0028l-1.45557,4.4722z" fill="#ffffff" stroke-width="0"/><path d="M286.83378,73.43092l1.45557,-4.4722l12.29855,4.0028l-1.45557,4.4722z" fill="#ffffff" stroke-width="0"/><path d="M288.15638,66.21803l0.7537,-4.64233l12.7664,2.07267l-0.7537,4.64232z" fill="#ffffff" stroke-width="0"/><path d="M288.6492,58.94564l-0.21103,-4.69838l12.92053,-0.58033l0.21103,4.69837z" fill="#ffffff" stroke-width="0"/></g></g><g stroke-linecap="butt"><path d="M191.72907,17.93758c-0.13859,2.43616 4.19426,-12.10036 9.05509,-10.20369c4.86083,1.89667 5.98727,8.33005 2.05908,12.86047c-3.32232,3.83167 -10.60302,8.79578 -11.40975,8.74989c-3.04708,-0.17334 -11.06712,-6.26437 -10.73889,-12.03438c0.32823,-5.77001 3.06447,-10.30701 6.11156,-10.13367c3.04708,0.17334 5.25115,4.99137 4.92291,10.76138z" fill="#d00000" stroke="#000000" stroke-width="1.5"/><g stroke="#af4c00"><path d="M207.78812,66.1211c3.72519,7.11883 27.81895,5.38817 28.85681,12.07464c2.4348,15.68639 -14.0871,39.25471 -19.71529,41.08652c-8.02726,2.61263 -22.18451,-14.21461 -30.50473,-39.77837c-8.32022,-25.56376 4.85731,-55.73897 4.85731,-55.73897c0,0 3.42237,17.35355 16.5059,42.35618z" fill="#ff6f00" stroke-width="3"/><path d="M190.76103,86.74801l-1.45557,-4.4722l12.29855,-4.0028l1.45557,4.4722z" fill="#ffffff" stroke-width="0"/><path d="M187.47546,78.17278l-1.45557,-4.4722l12.29855,-4.0028l1.45557,4.4722z" fill="#ffffff" stroke-width="0"/><path d="M185.68503,69.02975l-0.7537,-4.64232l12.7664,-2.07267l0.7537,4.64233z" fill="#ffffff" stroke-width="0"/><path d="M185.03808,59.10437l0.21103,-4.69837l12.92053,0.58033l-0.21103,4.69838z" fill="#ffffff" stroke-width="0"/></g></g><path d="M287.11481,107.29932c0,10.05157 0.44481,17.90029 -5.13247,25.28671c-1.57852,2.09055 -7.10053,5.44199 -9.01707,7.20792c-4.07737,3.75696 -4.63262,10.48628 -9.90035,12.42693c-4.53246,1.66978 -13.65284,-1.18263 -18.74841,-1.18263c-5.39013,0 -11.01784,1.33322 -15.76835,-0.52545c-4.39372,-1.71908 -7.96907,-6.50857 -11.52888,-9.52455c-5.83481,-4.94343 -12.24561,-6.7367 -14.86315,-14.16595c-1.63055,-4.62792 -0.63792,-14.32095 -0.63792,-19.52297c0,-4.85677 -1.10667,-15.69593 0.32311,-20.13161c2.81964,-8.74747 10.06869,-10.2552 17.06924,-15.54091c4.21992,-3.18622 8.56281,-9.66575 13.76877,-10.96512c3.56,-0.88854 7.77397,2.89871 11.63718,2.89871c6.54691,0 16.51296,-1.78985 22.06112,0.89587c5.50529,2.66497 6.60278,9.7873 10.51256,14.47105c3.02695,3.62615 7.83591,6.82332 9.5823,11.32815c1.93206,4.98377 0.64232,11.3574 0.64232,17.04386z" fill="#ffffff" stroke="#000000" stroke-width="3" stroke-linecap="butt"/><path d="M276.25063,103.98155c0,10.27017 -4.9167,18.59578 -10.98176,18.59578c-6.06506,0 -10.98176,-8.32562 -10.98176,-18.59578c0,-10.27017 4.9167,-18.59578 10.98176,-18.59578c6.06506,0 10.98176,8.32562 10.98176,18.59578z" fill="#ffffff" stroke="#000000" stroke-width="1.5" stroke-linecap="butt"/><path d="M268.19216,104.54862c0,3.02228 -1.53685,5.47232 -3.43264,5.47232c-1.3248,0 -2.47431,-1.19644 -3.04657,-2.94851c-0.24665,-0.75516 2.00186,-2.62331 2.00186,-2.62331c0,0 -2.16975,-2.09674 -1.7964,-2.97256c0.61754,-1.44866 1.65962,-2.40027 2.84112,-2.40027c1.8958,0 3.43264,2.45004 3.43264,5.47232z" fill="#000000" stroke="#000000" stroke-width="0" stroke-linecap="butt"/><path d="M222.46788,82.85576l1.1489,-2.04249l0.76594,1.91484z" fill="none" stroke="#000000" stroke-width="1.5" stroke-linecap="round"/><path d="M267.01572,126.11344l-2.01562,-2.95624" fill="none" stroke="#000000" stroke-width="1" stroke-linecap="round"/><path d="M268.57446,121.70596l1.61249,2.14999" fill="none" stroke="#000000" stroke-width="1" stroke-linecap="round"/><path d="M264.20394,81.88493l1.22953,-2.18583l0.81969,2.04921z" fill="none" stroke="#000000" stroke-width="1.5" stroke-linecap="round"/><path d="M228.42,195.87064l-0.7525,-38.75363h36.11989v29.34741l15.22095,59.77173l-61.09149,-1.45895z" fill="#39ff2b" stroke="#000000" stroke-width="3" stroke-linecap="butt"/><path d="M231.78958,177.34488l-6.24197,-19.40072l5.07404,-1.63252l6.24197,19.40072z" fill="#032b00" stroke="#000000" stroke-width="1.5" stroke-linecap="butt"/><path d="M253.14667,176.54008l7.61062,-18.90579l4.94459,1.99047l-7.61062,18.90579z" fill="#032b00" stroke="#000000" stroke-width="1.5" stroke-linecap="butt"/><path d="M230.10822,270.45345v-96.88407h33.23531v96.88407z" fill="#032b00" stroke="#000000" stroke-width="1.5" stroke-linecap="butt"/><path d="M221.32908,202.82154v-11.91455h9.71976v11.91455z" fill="#032b00" stroke="#000000" stroke-width="1.5" stroke-linecap="butt"/><path d="M263.02997,202.19445v-11.91454h9.71976v11.91454z" fill="#032b00" stroke="#000000" stroke-width="1.5" stroke-linecap="butt"/><g stroke="#000000" stroke-linecap="butt"><path d="M301.25651,228.50221l-1.36262,-5.79769l7.91272,-1.39257l-1.11746,3.33617l2.48007,2.46153z" data-paper-data="{&quot;index&quot;:null}" fill="#032b00" stroke-width="1.5"/><path d="M292.56001,241.99431l-34.66238,-81.97078l11.27641,-4.81886l34.66239,81.97078z" data-paper-data="{&quot;index&quot;:null}" fill="#ffffff" stroke-width="3"/><path d="M293.64926,230.2918c5.8657,-2.50665 13.00386,1.0968 15.9435,8.04856c2.93964,6.95176 2.39859,5.78637 4.45058,14.41033c0.07617,0.32013 -0.93923,3.92454 -2.86748,6.22462c-2.30575,2.75034 -5.69902,4.16586 -7.12899,3.08539c-2.46925,-1.86573 -2.88868,-14.08627 -3.54097,-12.94919c-1.70138,2.96583 -0.74084,5.40707 -1.79483,12.951c-0.3061,2.19091 -3.03766,-2.24323 -4.93273,-5.20007c-2.43338,-3.79675 -4.64575,-10.24178 -4.53043,-12.37028c0.45211,-8.34477 -1.46436,-11.69371 4.40134,-14.20036z" data-paper-data="{&quot;index&quot;:null}" fill="#ffffff" stroke-width="3"/><path d="M287.21394,235.94176l-3.37536,-7.98217l15.99676,-6.83607l3.37536,7.98218z" data-paper-data="{&quot;index&quot;:null}" fill="#032b00" stroke-width="1.5"/></g><path d="M235.60125,105.12386c0,10.27017 -4.9167,18.59578 -10.98176,18.59578c-6.06506,0 -10.98176,-8.32562 -10.98176,-18.59578c0,-10.27017 4.9167,-18.59578 10.98176,-18.59578c6.06506,0 10.98176,8.32562 10.98176,18.59578z" fill="#ffffff" stroke="#000000" stroke-width="1.5" stroke-linecap="butt"/><path d="M227.71927,104.65984c0,2.94019 -1.49511,5.32369 -3.33941,5.32369c-1.28882,0 -2.4071,-1.16394 -2.96383,-2.86843c-0.23995,-0.73465 1.94749,-2.55206 1.94749,-2.55206c0,0 -2.11082,-2.03979 -1.74761,-2.89182c0.60077,-1.40932 1.61454,-2.33508 2.76395,-2.33508c1.84431,0 3.33941,2.3835 3.33941,5.32369z" fill="#000000" stroke="#000000" stroke-width="0" stroke-linecap="butt"/><path d="M224.79424,126.93916l-2.01562,-2.95624" fill="none" stroke="#000000" stroke-width="1" stroke-linecap="round"/><path d="M226.96245,123.70581l1.61249,2.14999" fill="none" stroke="#000000" stroke-width="1" stroke-linecap="round"/><path d="M252.16767,128.90827l-13.76633,-0.70597" fill="none" stroke="#000000" stroke-width="1.5" stroke-linecap="round"/><path d="M249.87851,132.95806l-1.02596,-3.31473l2.82089,0.0609l-1.64159,3.41393z" fill="#ffffff" stroke="#000000" stroke-width="0.5" stroke-linecap="butt"/></g></g></svg>