<svg version="1.1" xmlns="http://www.w3.org/2000/svg" xmlns:xlink="http://www.w3.org/1999/xlink" width="214.0212" height="224.85526" viewBox="0,0,214.0212,224.85526"><g transform="translate(-133.08834,-133.75)"><g data-paper-data="{&quot;isPaintingLayer&quot;:true}" fill-rule="nonzero" stroke-linejoin="miter" stroke-miterlimit="10" stroke-dasharray="" stroke-dashoffset="0" style="mix-blend-mode: normal"><path d="M166.04551,332.36075l25.06587,-151.85869l13.20648,3.65872l-25.06588,151.8587z" data-paper-data="{&quot;index&quot;:null}" fill="#ce0000" stroke="#950000" stroke-width="3.5" stroke-linecap="butt"/><g data-paper-data="{&quot;index&quot;:null}" fill="#820000" stroke="none" stroke-width="0" stroke-linecap="butt"><path d="M177.41662,302.03902c0.26458,-1.52402 1.40175,-2.53379 2.53996,-2.25538c1.1382,0.27842 1.84641,1.7396 1.58184,3.26363c-0.26458,1.52403 -1.40174,2.53381 -2.53995,2.25538c-1.1382,-0.27841 -1.84642,-1.73959 -1.58185,-3.26362z"/><path d="M174.1451,306.09938c0.20071,-1.15616 1.0634,-1.92219 1.92686,-1.71098c0.86347,0.21121 1.40073,1.31969 1.20002,2.47584c-0.20071,1.15616 -1.0634,1.92219 -1.92686,1.71098c-0.86346,-0.21121 -1.40072,-1.31969 -1.20002,-2.47584z"/><path d="M176.59789,297.57332c0.62417,0.15269 1.02735,0.86877 0.90051,1.59942c-0.12684,0.73064 -0.73568,1.19919 -1.35985,1.04651c-0.62418,-0.15268 -1.02733,-0.86877 -0.90049,-1.59942c0.12685,-0.73066 0.73566,-1.19918 1.35983,-1.04651z"/></g><g data-paper-data="{&quot;index&quot;:null}" fill="#820000" stroke="none" stroke-width="0" stroke-linecap="butt"><path d="M195.6701,215.74472c1.13932,0.27021 1.85988,1.6407 1.60941,3.06108c-0.25047,1.42037 -1.37711,2.35276 -2.51644,2.08255c-1.13933,-0.27021 -1.85988,-1.6407 -1.60941,-3.06107c0.25047,-1.42038 1.37711,-2.35277 2.51644,-2.08256z"/><path d="M189.92288,221.58827c0.19001,-1.07752 1.04471,-1.78486 1.90902,-1.57988c0.86431,0.20499 1.41094,1.24468 1.22093,2.3222c-0.19001,1.07753 -1.04471,1.78487 -1.90902,1.57988c-0.86431,-0.20498 -1.41095,-1.24468 -1.22093,-2.32219z"/><path d="M190.94685,214.61557c0.12008,-0.68096 0.72392,-1.11287 1.34871,-0.96468c0.62479,0.14819 1.03393,0.82034 0.91385,1.50129c-0.12009,0.68096 -0.72392,1.11286 -1.34871,0.96469c-0.62479,-0.14818 -1.03393,-0.82033 -0.91385,-1.50129z"/></g><path d="M181.57876,330.57191c2.3461,12.50943 -6.37919,24.27688 -19.4885,26.28335c-9.58506,1.46706 -18.85993,-2.6903 -24.07108,-9.92134c-1.21308,-1.68326 26.93268,-6.20508 32.48976,-10.73235c3.22031,-2.62354 -14.81186,-5.77607 -15.04326,-7.00991c-0.72108,-3.84475 -21.75624,1.02691 -20.57978,-2.41581c2.65129,-7.75865 9.62817,-13.83143 18.70836,-15.2212c13.10932,-2.00647 25.6384,6.50785 27.98451,19.01727z" data-paper-data="{&quot;index&quot;:null}" fill="#ce0000" stroke="#950000" stroke-width="3.5" stroke-linecap="butt"/><path d="M300.99346,332.42418l-25.06588,-151.85869l13.20648,-3.65872l25.06587,151.85869z" data-paper-data="{&quot;index&quot;:null}" fill="#ce0000" stroke="#950000" stroke-width="3.5" stroke-linecap="butt"/><g data-paper-data="{&quot;index&quot;:null}" fill="#820000" stroke="none" stroke-width="0" stroke-linecap="butt"><path d="M302.82882,298.44374c0.26457,1.52403 -0.44365,2.98521 -1.58184,3.26362c-1.13821,0.27843 -2.27537,-0.73135 -2.53995,-2.25538c-0.26457,-1.52403 0.44363,-2.98521 1.58183,-3.26363c1.13821,-0.27841 2.27539,0.73136 2.53996,2.25538z"/><path d="M306.10033,302.50408c0.20071,1.15616 -0.33656,2.26464 -1.20002,2.47584c-0.86346,0.21121 -1.72615,-0.55482 -1.92686,-1.71098c-0.20071,-1.15616 0.33655,-2.26463 1.20002,-2.47584c0.86346,-0.21121 1.72615,0.55482 1.92686,1.71098z"/><path d="M305.00738,295.02454c0.12685,0.73066 -0.27631,1.44675 -0.90049,1.59942c-0.62417,0.15269 -1.233,-0.31587 -1.35985,-1.04651c-0.12685,-0.73066 0.27634,-1.44674 0.90051,-1.59942c0.62417,-0.15267 1.23298,0.31585 1.35983,1.04651z"/></g><g data-paper-data="{&quot;index&quot;:null}" fill="#820000" stroke="none" stroke-width="0" stroke-linecap="butt"><path d="M287.09178,214.23199c0.25047,1.42037 -0.47008,2.79086 -1.6094,3.06107c-1.13932,0.27021 -2.26597,-0.66218 -2.51644,-2.08255c-0.25047,-1.42038 0.47009,-2.79088 1.60941,-3.06109c1.13932,-0.27021 2.26596,0.66219 2.51644,2.08257z"/><path d="M290.32256,217.99298c0.19002,1.07752 -0.35663,2.11722 -1.22093,2.3222c-0.86431,0.20499 -1.71901,-0.50235 -1.90901,-1.57988c-0.19002,-1.07753 0.35662,-2.11721 1.22093,-2.3222c0.86431,-0.20498 1.71902,0.50236 1.90902,1.57988z"/><path d="M289.29859,211.02028c0.12009,0.68096 -0.28907,1.35311 -0.91385,1.50129c-0.62478,0.14818 -1.22862,-0.28373 -1.34871,-0.96469c-0.12009,-0.68096 0.28906,-1.3531 0.91385,-1.50129c0.62478,-0.14819 1.22864,0.28373 1.34871,0.96468z"/></g><path d="M298.66667,326.97663c2.34611,-12.50942 14.8752,-21.02374 27.98451,-19.01727c9.08019,1.38978 16.05707,7.46256 18.70836,15.2212c1.17645,3.44272 -19.85871,-1.42894 -20.57978,2.41581c-0.2314,1.23383 -18.26358,4.38638 -15.04326,7.00991c5.55708,4.52726 33.70283,9.04908 32.48976,10.73234c-5.21115,7.23104 -14.48602,11.38841 -24.07108,9.92134c-13.10931,-2.00647 -21.8346,-13.77393 -19.4885,-26.28335z" fill="#ce0000" stroke="#950000" stroke-width="3.5" stroke-linecap="butt"/><path d="M252.16668,313.60417v-115.33333h16.33333v115.33333z" data-paper-data="{&quot;index&quot;:null}" fill="#ce0000" stroke="#950000" stroke-width="3.5" stroke-linecap="butt"/><g data-paper-data="{&quot;index&quot;:null}" fill="#820000" stroke="none" stroke-width="0" stroke-linecap="butt"><path d="M262.17033,278.58078c1.4017,0 2.53801,1.21485 2.53801,2.71345c0,1.4986 -1.1363,2.71345 -2.53801,2.71345c-1.4017,0 -2.53802,-1.21485 -2.53802,-2.71345c0,-1.4986 1.13631,-2.71345 2.53802,-2.71345z"/><path d="M258.52565,283.82054c1.06336,0 1.92539,0.92162 1.92539,2.05848c0,1.13687 -0.86203,2.05848 -1.92539,2.05848c-1.06336,0 -1.92539,-0.92161 -1.92539,-2.05848c0,-1.13687 0.86203,-2.05848 1.92539,-2.05848z"/><path d="M257.74926,277.27083c0.76867,0 1.39182,0.58243 1.39182,1.30089c0,0.71846 -0.62314,1.30089 -1.39182,1.30089c-0.76867,0 -1.39181,-0.58243 -1.39181,-1.30089c0,-0.71846 0.62313,-1.30089 1.39181,-1.30089z"/></g><g data-paper-data="{&quot;index&quot;:null}" fill="#820000" stroke="none" stroke-width="0" stroke-linecap="butt"><path d="M264.79533,217.58078c1.4017,0 2.53801,1.21486 2.53801,2.71345c0,1.49859 -1.13631,2.71345 -2.53801,2.71345c-1.4017,0 -2.53801,-1.21485 -2.53801,-2.71345c0,-1.49859 1.13631,-2.71345 2.53801,-2.71345z"/><path d="M261.15064,222.82054c1.06336,0 1.92539,0.92162 1.92539,2.05848c0,1.13687 -0.86203,2.05848 -1.92539,2.05848c-1.06336,0 -1.92539,-0.92162 -1.92539,-2.05848c0,-1.13687 0.86203,-2.05848 1.92539,-2.05848z"/><path d="M260.37426,216.27084c0.76868,0 1.39182,0.58243 1.39182,1.30088c0,0.71846 -0.62313,1.30089 -1.39182,1.30089c-0.76868,0 -1.39182,-0.58243 -1.39182,-1.30089c0,-0.71846 0.62313,-1.30088 1.39182,-1.30088z"/></g><path d="M249.83334,333.9375v-26.33333h20.33334v26.33333z" data-paper-data="{&quot;index&quot;:null}" fill="#d3d3d3" stroke="#a0a0a0" stroke-width="3.5" stroke-linecap="butt"/><path d="M265.50001,324.27084v-15.66667" data-paper-data="{&quot;index&quot;:null}" fill="none" stroke="#a0a0a0" stroke-width="3.5" stroke-linecap="round"/><path d="M259.83333,308.27084v10.33333" data-paper-data="{&quot;index&quot;:null}" fill="none" stroke="#a0a0a0" stroke-width="3.5" stroke-linecap="round"/><path d="M253.83334,308.60417l0.33334,14" data-paper-data="{&quot;index&quot;:null}" fill="none" stroke="#a0a0a0" stroke-width="3.5" stroke-linecap="round"/><path d="M248.83334,346.60417v-16.33333h30.33334v16.33333z" data-paper-data="{&quot;index&quot;:null}" fill="#393939" stroke="#2b2b2b" stroke-width="3.5" stroke-linecap="butt"/><path d="M212.83335,313.60417v-115.33333h16.33333v115.33333z" fill="#ce0000" stroke="#950000" stroke-width="3.5" stroke-linecap="butt"/><g fill="#820000" stroke="none" stroke-width="0" stroke-linecap="butt"><path d="M221.70104,281.29423c0,1.4986 -1.13631,2.71345 -2.53801,2.71345c-1.4017,0 -2.53801,-1.21485 -2.53801,-2.71345c0,-1.4986 1.13631,-2.71345 2.53801,-2.71345c1.4017,0 2.53801,1.21485 2.53801,2.71345z"/><path d="M224.7331,285.87902c0,1.13687 -0.86203,2.05848 -1.92539,2.05848c-1.06336,0 -1.92539,-0.92161 -1.92539,-2.05848c0,-1.13687 0.86203,-2.05848 1.92539,-2.05848c1.06336,0 1.92539,0.92162 1.92539,2.05848z"/><path d="M224.97589,278.57172c0,0.71846 -0.62313,1.30089 -1.39181,1.30089c-0.76868,0 -1.39182,-0.58243 -1.39182,-1.30089c0,-0.71846 0.62314,-1.30089 1.39182,-1.30089c0.76868,0 1.39181,0.58243 1.39181,1.30089z"/></g><g fill="#820000" stroke="none" stroke-width="0" stroke-linecap="butt"><path d="M219.07604,220.29423c0,1.49859 -1.1363,2.71345 -2.53801,2.71345c-1.4017,0 -2.53802,-1.21485 -2.53802,-2.71345c0,-1.49859 1.13631,-2.71345 2.53802,-2.71345c1.4017,0 2.53801,1.21486 2.53801,2.71345z"/><path d="M222.1081,224.87902c0,1.13687 -0.86203,2.05848 -1.92539,2.05848c-1.06336,0 -1.92539,-0.92162 -1.92539,-2.05848c0,-1.13687 0.86203,-2.05848 1.92539,-2.05848c1.06336,0 1.92539,0.92162 1.92539,2.05848z"/><path d="M222.35089,217.57172c0,0.71846 -0.62313,1.30089 -1.39181,1.30089c-0.76868,0 -1.39182,-0.58243 -1.39182,-1.30089c0,-0.71846 0.62314,-1.30088 1.39182,-1.30088c0.76868,0 1.39181,0.58243 1.39181,1.30088z"/></g><path d="M293.83335,173.5c0,20.71068 -28.6619,39 -56,39c-27.3381,0 -52,-17.78932 -52,-38.5c0,-20.71068 25.6619,-38.5 53,-38.5c27.3381,0 55,17.28932 55,38z" fill="#ce0000" stroke="#950000" stroke-width="3.5" stroke-linecap="butt"/><path d="M211.16668,333.9375v-26.33333h20.33334v26.33333z" fill="#d3d3d3" stroke="#a0a0a0" stroke-width="3.5" stroke-linecap="butt"/><path d="M215.83335,308.60417v15.66667" fill="none" stroke="#a0a0a0" stroke-width="3.5" stroke-linecap="round"/><path d="M221.50001,318.60416v-10.33333" fill="none" stroke="#a0a0a0" stroke-width="3.5" stroke-linecap="round"/><path d="M227.50001,308.60417l-0.33334,14" fill="none" stroke="#a0a0a0" stroke-width="3.5" stroke-linecap="round"/><path d="M202.16668,346.60417v-16.33333h30.33334v16.33333z" fill="#393939" stroke="#2b2b2b" stroke-width="3.5" stroke-linecap="butt"/><g data-paper-data="{&quot;index&quot;:null}" fill="#820000" stroke="none" stroke-width="0" stroke-linecap="butt"><path d="M210.60372,189.86062c0,1.83371 -1.40367,3.32024 -3.13519,3.32024c-1.73151,0 -3.13519,-1.48652 -3.13519,-3.32024c0,-1.83371 1.40367,-3.32024 3.13519,-3.32024c1.73152,0 3.13519,1.48652 3.13519,3.32024z"/><path d="M214.34921,195.47069c0,1.3911 -1.06486,2.51881 -2.37842,2.51881c-1.31356,0 -2.37842,-1.12771 -2.37842,-2.51881c0,-1.3911 1.06486,-2.51881 2.37842,-2.51881c1.31356,0 2.37842,1.12771 2.37842,2.51881z"/><path d="M214.64913,186.52929c0,0.87912 -0.76975,1.5918 -1.7193,1.5918c-0.94955,0 -1.7193,-0.71268 -1.7193,-1.5918c0,-0.87912 0.76975,-1.59179 1.7193,-1.59179c0.94955,0 1.7193,0.71267 1.7193,1.59179z"/></g><g data-paper-data="{&quot;index&quot;:null}" fill="#820000" stroke="none" stroke-width="0" stroke-linecap="butt"><path d="M279.46853,169.20705c1.73152,0 3.13519,1.48652 3.13519,3.32024c0,1.83372 -1.40367,3.32024 -3.13519,3.32024c-1.73152,0 -3.1352,-1.48652 -3.1352,-3.32024c0,-1.83372 1.40368,-3.32025 3.1352,-3.32025z"/><path d="M286.34921,178.13736c0,1.39109 -1.06486,2.5188 -2.37842,2.5188c-1.31356,0 -2.37842,-1.1277 -2.37842,-2.5188c0,-1.3911 1.06486,-2.51881 2.37842,-2.51881c1.31356,0 2.37842,1.12771 2.37842,2.51881z"/><path d="M286.64913,169.19596c0,0.87912 -0.76975,1.5918 -1.7193,1.5918c-0.94954,0 -1.7193,-0.71268 -1.7193,-1.5918c0,-0.87912 0.76976,-1.59179 1.7193,-1.59179c0.94955,0 1.7193,0.71267 1.7193,1.59179z"/></g><path d="M230.0527,163.54167c0,8.00813 -6.21265,14.5 -13.87634,14.5c-7.66369,0 -13.87634,-6.49187 -13.87634,-14.5c0,-8.00813 6.21265,-14.5 13.87634,-14.5c7.66369,0 13.87634,6.49187 13.87634,14.5z" fill="#ffffff" stroke="#000000" stroke-width="1.5" stroke-linecap="butt"/><path d="M216.75008,163.95141c0,0 5.57823,3.32194 4.80642,4.59167c-1.33796,2.20111 -3.47433,3.8272 -6.09792,3.8272c-4.13703,0 -7.49076,-3.61506 -7.49076,-8.07447c0,-4.4594 3.35373,-8.07447 7.49076,-8.07447c2.58409,0 4.86256,1.41043 6.20902,3.55607c0.80918,1.28945 -4.91751,4.17399 -4.91751,4.17399z" fill="#000000" stroke="none" stroke-width="0" stroke-linecap="butt"/><path d="M271.4527,163.94166c0,8.00813 -6.21265,14.5 -13.87634,14.5c-7.66369,0 -13.87634,-6.49187 -13.87634,-14.5c0,-8.00813 6.21265,-14.5 13.87634,-14.5c7.6637,0 13.87634,6.49187 13.87634,14.5z" fill="#ffffff" stroke="#000000" stroke-width="1.5" stroke-linecap="butt"/><g fill="#3c3c3c" stroke="#2c2c2c" stroke-width="3.5" stroke-linecap="butt"><path d="M247.44087,214.99383l-0.13683,-7.43934l10.15279,-7.54303l3.69869,18.91885z" data-paper-data="{&quot;index&quot;:null}"/><path d="M222.06128,218.02026l4.27027,-17.14944l9.11884,7.38792l-0.45293,6.80594z"/><path d="M247.36674,205.38938c2.62331,3.40144 1.95009,8.31821 -1.50368,10.98188c-3.45378,2.66367 -8.38024,2.06558 -11.00355,-1.33586c-2.62331,-3.40144 -1.95009,-8.31821 1.50369,-10.98188c3.45378,-2.66367 8.38023,-2.06558 11.00355,1.33586z"/></g><path d="M271.74765,163.88446c0,8.00813 -6.21265,14.5 -13.87635,14.5c-7.66369,0 -13.87635,-6.49187 -13.87635,-14.5c0,-8.00813 6.21265,-14.5 13.87635,-14.5c7.6637,0 13.87635,6.49187 13.87635,14.5z" fill="#4e4e4e" stroke="#000000" stroke-width="1.5" stroke-linecap="butt"/><path d="M248.41428,163.76784c0,0 6.31024,-1.99388 9.3423,-1.86576c2.8764,0.12154 8.40771,2.61576 8.40771,2.61576" fill="none" stroke="#000000" stroke-width="3.5" stroke-linecap="round"/><path d="M249.12604,185.52226c3.84831,3.35765 3.17795,9.25455 3.17795,9.25455l-25.49532,0.48872c0,0 -0.74561,-5.41628 1.04811,-7.93531c1.79372,-2.51901 8.40877,-5.1069 10.35538,-5.11355c2.24464,-0.00768 7.06557,-0.05206 10.91388,3.30559z" fill="#000000" stroke="#990000" stroke-width="1.5" stroke-linecap="butt"/><path d="M250.14121,190.86936l0.04312,2.24959l-20.99614,0.40247l-0.04312,-2.24959z" fill="#ffffff" stroke="none" stroke-width="0" stroke-linecap="butt"/><path d="M244.51525,184.35098l0.04073,2.12461l-9.62323,0.18447l-0.04073,-2.12461z" fill="#ffffff" stroke="none" stroke-width="0" stroke-linecap="butt"/></g></g></svg>