<svg version="1.1" xmlns="http://www.w3.org/2000/svg" xmlns:xlink="http://www.w3.org/1999/xlink" width="313.82076" height="280.75752" viewBox="0,0,313.82076,280.75752"><g transform="translate(-70.63411,-45.88489)"><g data-paper-data="{&quot;isPaintingLayer&quot;:true}" fill-rule="nonzero" stroke-linejoin="miter" stroke-miterlimit="10" stroke-dasharray="" stroke-dashoffset="0" style="mix-blend-mode: normal"><path d="M73.88411,140.93564v-91.80075h92.74714v91.80075l0.07361,20.10873l-24.77163,-20.10873z" fill="#2e2e2e" stroke="#161616" stroke-width="6.5" stroke-linecap="butt"/><text transform="translate(79.38209,63.06818) scale(0.29882,0.29882)" font-size="40" xml:space="preserve" fill="#ffffff" fill-rule="nonzero" stroke="none" stroke-width="1" stroke-linecap="butt" stroke-linejoin="miter" stroke-miterlimit="10" stroke-dasharray="" stroke-dashoffset="0" font-family="Sans Serif" font-weight="normal" text-anchor="start" style="mix-blend-mode: normal"><tspan x="0" dy="0">Yang! You</tspan><tspan x="0" dy="48px">doing okey</tspan><tspan x="0" dy="48px">sis?</tspan></text><path d="M249.91233,313.22447v-74.33334h14v74.33334z" fill="#000000" stroke="#000000" stroke-width="1.5" stroke-linecap="butt"/><path d="M228.479,313.0578v-66h14.83334v66z" fill="#ffffff" stroke="#000000" stroke-width="1.5" stroke-linecap="butt"/><path d="M256.27898,169.78559c0,3.54049 -3.08858,7.68877 -5.20204,15.88419c-1.75165,6.79244 -0.6836,6.4085 -0.6836,6.4085c0,0 24.91608,41.76837 23.19071,43.39234c-5.37123,5.05556 -37.08438,5.35387 -57.42878,4.06328c-0.8909,-0.05651 14.64222,-46.90658 14.64222,-46.90658c0,0 1.25263,1.7521 -2.2377,-5.61712c-3.57671,-7.55158 -8.544,-15.1493 -8.544,-17.22461c0,-6.4749 8.1178,-11.72384 18.1316,-11.72384c10.0138,0 18.1316,5.24894 18.1316,11.72384z" fill="#bd0000" stroke="#000000" stroke-width="1.5" stroke-linecap="butt"/><path d="M233.1161,159.86542v-19.36569h9.8727v19.36569z" fill="#ffffff" stroke="#000000" stroke-width="1.5" stroke-linecap="butt"/><path d="M264.6842,115.89848c0,15.41103 -12.62107,27.90415 -28.18995,27.90415c-15.56888,0 -28.18995,-12.49311 -28.18995,-27.90414c0,-15.41103 12.62107,-27.90415 28.18995,-27.90415c15.56888,0 28.18995,12.49312 28.18995,27.90415z" fill="#ffffff" stroke="#000000" stroke-width="1.5" stroke-linecap="butt"/><path d="M264.82899,115.55658c0.25653,6.83595 -3.87985,16.7145 -11.04894,22.69129c-5.20261,4.33736 -13.20221,5.46173 -17.21483,5.46173c-2.20514,0 6.34812,-10.15262 6.34812,-10.15262l-8.34468,-9.60398l5.42488,-9.40154l-7.06096,-9.62703l7.77483,-6.96985c0,0 -7.0379,-6.99576 -6.27572,-9.70578c0.30147,-1.07192 3.91732,-0.49453 6.47499,-0.04784c5.07324,0.88601 11.61048,3.38459 16.47997,9.15887c4.28925,5.08622 7.23488,12.66815 7.44235,18.19675z" fill="#000000" stroke="#000000" stroke-width="1.5" stroke-linecap="butt"/><path d="M225.57867,113.77902c0,6.38577 -3.27262,11.56246 -7.3096,11.56246c-4.03698,0 -7.3096,-5.17669 -7.3096,-11.56245c0,-6.38577 3.27262,-11.56245 7.3096,-11.56245c4.03698,0 7.3096,5.17668 7.3096,11.56245z" fill="#ffffff" stroke="#000000" stroke-width="1.5" stroke-linecap="butt"/><path d="M218.03567,102.57249c0,0 -1.64909,-1.35901 -2.01146,-2.14683c-0.3163,-0.68767 -0.04339,-2.32062 -0.04339,-2.32062" fill="none" stroke="#000000" stroke-width="1.5" stroke-linecap="round"/><path d="M220.35789,102.39778c0,0 -1.86466,-1.78164 -2.04844,-2.64097c-0.16042,-0.75008 1.00629,-2.23198 1.00629,-2.23198" fill="none" stroke="#000000" stroke-width="1.5" stroke-linecap="round"/><path d="M218.66778,112.11809c0,3.92688 -1.63631,7.11024 -3.6548,7.11024c-2.01849,0 -3.6548,-3.18336 -3.6548,-7.11024c0,-3.92688 1.63631,-7.11024 3.6548,-7.11024c2.01849,0 3.6548,3.18336 3.6548,7.11024z" fill="#000000" stroke="#000000" stroke-width="1.5" stroke-linecap="butt"/><g stroke="#000000" stroke-width="1.5"><path d="M258.69336,113.64612c0,6.38577 -3.27262,11.56246 -7.3096,11.56246c-4.03698,0 -7.3096,-5.17669 -7.3096,-11.56245c0,-6.38577 3.27262,-11.56245 7.3096,-11.56245c4.03698,0 7.3096,5.17668 7.3096,11.56245z" fill="#ffffff" stroke-linecap="butt"/><path d="M244.73868,108.46295c0,0 -1.92378,0.93031 -2.79094,0.93031c-0.75692,0 -2.12642,-0.93031 -2.12642,-0.93031" fill="none" stroke-linecap="round"/><path d="M244.07417,112.0513c0,0 -1.92378,0.93031 -2.79094,0.93031c-0.75692,0 -2.12642,-0.93031 -2.12642,-0.93031" fill="none" stroke-linecap="round"/><path d="M251.78247,111.98519c0,3.92688 -1.6363,7.11024 -3.6548,7.11024c-2.01849,0 -3.6548,-3.18336 -3.6548,-7.11024c0,-3.92688 1.63631,-7.11025 3.6548,-7.11025c2.01849,0 3.6548,3.18337 3.6548,7.11025z" fill="#000000" stroke-linecap="butt"/></g><path d="M250.24302,128.64635c0,0 -1.48964,-1.67296 -1.52019,-2.22286c-0.04046,-0.72831 0.85568,-2.20719 0.85568,-2.20719" fill="none" stroke="#ffffff" stroke-width="1.5" stroke-linecap="round"/><path d="M253.78707,128.09259c0,0 -1.48964,-1.67296 -1.52019,-2.22286c-0.04046,-0.72832 0.85568,-2.20719 0.85568,-2.20719" fill="none" stroke="#ffffff" stroke-width="1.5" stroke-linecap="round"/><path d="M222.2229,131.32428c0,1.47897 -1.14046,2.67791 -2.54729,2.67791c-1.40682,0 -2.54728,-1.19894 -2.54728,-2.67791c0,-1.47897 1.14046,-2.67792 2.54728,-2.67792c1.40682,0 2.54729,1.19895 2.54729,2.67792z" fill="#000000" stroke="#000000" stroke-width="1.5" stroke-linecap="butt"/><path d="M256.55586,133.07642c0,1.65149 -1.3388,2.99029 -2.99029,2.99029c-1.65149,0 -2.99029,-1.3388 -2.99029,-2.99029c0,-1.65149 1.3388,-2.99029 2.99029,-2.99029c1.65149,0 2.99029,1.3388 2.99029,2.99029z" fill="#ffffff" stroke="none" stroke-width="1.5" stroke-linecap="butt"/><path d="M241.05065,136.95272c0,0 -4.81438,-1.748 -6.5018,-3.58286c-2.04565,-2.2244 -4.9056,-8.8213 -4.9056,-8.8213c0,0 6.1376,4.17648 8.67799,5.09662c2.03512,0.73713 5.38745,-0.00205 5.38745,-0.00205v6.31283z" fill="#000000" stroke="none" stroke-width="1.5" stroke-linecap="butt"/><path d="M239.38938,136.39896l1.99353,-3.32254l-1.55052,-2.87954l8.30636,-0.55375v0.55375c0,0 -2.18805,2.28573 -3.44488,3.23266c-1.41851,1.06874 -5.30448,2.96942 -5.30448,2.96942z" fill="#ffffff" stroke="none" stroke-width="1.5" stroke-linecap="butt"/><g stroke="#740000" stroke-width="1.5"><path d="M217.64254,95.31314c0,0 -1.92622,-2.91992 -1.8859,-5.12424c0.02543,-1.38993 -1.15857,-4.88565 -0.63145,-7.11608c0.54542,-2.30789 2.80213,-3.32816 2.80213,-3.32816l11.01186,6.45522l0.28479,4.65156z" fill="#af0000" stroke-linecap="butt"/><path d="M228.6544,86.95931l-5.50593,0.28479" fill="none" stroke-linecap="round"/><path d="M224.00284,90.18693l4.36677,-1.80367" fill="none" stroke-linecap="round"/></g><g data-paper-data="{&quot;index&quot;:null}" stroke="#740000" stroke-width="1.5"><path d="M241.19045,91.23116l0.28478,-4.65157l11.01186,-6.45522c0,0 2.25672,1.02027 2.80214,3.32816c0.52712,2.23044 -0.65688,5.72616 -0.63145,7.11608c0.04032,2.20433 -1.8859,5.12424 -1.8859,5.12424z" fill="#af0000" stroke-linecap="butt"/><path d="M247.26596,87.62381l-5.50593,-0.28478" fill="none" stroke-linecap="round"/><path d="M246.41158,90.56664l-4.36677,-1.80366" fill="none" stroke-linecap="round"/></g><path d="M242.51415,87.62382c0,4.29912 -3.50637,7.78424 -7.83171,7.78424c-4.32533,0 -7.83171,-3.48512 -7.83171,-7.78424c0,-4.29912 3.50638,-7.78424 7.83171,-7.78424c4.32533,0 7.83171,3.48512 7.83171,7.78424z" fill="#af0000" stroke="#740000" stroke-width="1.5" stroke-linecap="butt"/><path d="M221.94602,174.19982c0,0 -2.77289,-4.65082 -3.09717,-7.09683c-0.39862,-3.00668 4.86919,-9.38932 4.86919,-9.38932c0,0 12.11625,-2.28372 14.41883,-2.33995c4.78557,-0.11685 12.79439,1.67543 12.79439,1.67543c0,0 7.73415,7.19763 7.22643,10.14354c-0.44338,2.57256 -3.90388,7.00712 -3.90388,7.00712c0,0 -0.56594,-12.11855 -5.92936,-12.13138c-4.10353,-0.00981 -8.65819,11.18209 -8.65819,11.18209c0,0 -7.43435,-11.56105 -11.56279,-11.81308c-2.44274,-0.14913 -5.14784,2.23521 -6.10208,5.69385c-0.81756,2.96324 -0.05536,7.06852 -0.05536,7.06852z" fill="#ffffff" stroke="#000000" stroke-width="1.5" stroke-linecap="butt"/><path d="M233.91233,162.39114v-9h8.33333v9z" fill="#ffffff" stroke="none" stroke-width="1.5" stroke-linecap="butt"/><path d="M237.579,165.0578v-22.5h5.16666l0.70621,12.66177c0,0 6.43749,0.62769 8.60699,2.25409c0.33515,0.25125 4.61514,5.52992 5.33295,8.62752c0.91149,3.93336 -1.77726,5.88096 -2.1043,6.32105c-0.39684,0.53401 -4.57074,-10.25278 -4.37699,-10.07664c1.1621,1.05648 -0.15204,-0.19198 -1.42593,-0.5469c-1.60254,-0.44648 -3.43267,-0.15851 -3.47132,0.25294c-0.31794,3.38506 -6.10094,10.67284 -6.10094,10.67284z" fill="#000000" stroke="#000000" stroke-width="1.5" stroke-linecap="butt"/><path d="M247.91233,172.39114c1.24508,0.71148 2.0145,1.96257 2.3638,3.31601c0.70169,2.71884 -0.29195,5.85066 -2.53047,5.85066c-3.02545,0 -2.9596,-7.38022 -1.98787,-7.9355z" fill="#ffffff" stroke="none" stroke-width="0.5" stroke-linecap="butt"/><path d="M241.34812,189.48745c-1.15126,-0.58325 -2.27218,-4.85647 -1.09033,-5.53181c0.43488,-0.73685 1.23699,-1.23117 2.15454,-1.23117c1.38071,0 2.5,1.11929 2.5,2.5c0,0.21572 -0.02733,0.42506 -0.0787,0.62474c0.66815,2.50437 -0.73302,5.03269 -3.48551,3.63824z" fill="#ffffff" stroke="none" stroke-width="0.5" stroke-linecap="butt"/><path d="M232.41035,214.07846c-0.95423,2.60498 -1.99445,6.31242 -5.38477,5.05947c-3.86902,-1.42986 1.05612,-15.07541 4.17315,-9.62061c0.57857,0.19157 1.06348,0.58875 1.36814,1.10497c0.8992,0.51383 0.05781,2.87106 -0.15652,3.45616z" fill="#ffffff" stroke="none" stroke-width="0.5" stroke-linecap="butt"/><path d="M234.91233,235.72447c0,0.5727 9.48324,-4.35861 12.04806,-0.02846c0.54045,0.91243 7.2986,-3.14952 9.38944,-0.81772c1.08706,1.21233 9.53718,0.11656 8.92944,3.0272c-0.12935,0.61953 5.50284,-5.46076 6.80849,-2.66288c0.39368,0.84362 3.62689,-0.05643 5.5671,2.8252c1.55043,2.30273 1.974,8.34555 1.67909,9.87257c-0.71979,3.72689 -9.36951,3.12552 -10.1332,3.73274c-1.94358,1.54536 -13.92313,-4.67963 -13.99063,-4.35984c-0.23615,1.11882 5.71212,3.55634 4.55076,4.34553c-3.1261,2.1243 -15.08748,1.67387 -14.95041,2.29189c0.71495,3.22357 -6.8935,-3.71042 -7.39173,-3.00628c-0.72724,1.02778 -4.85418,-2.79961 -9.00607,-2.70475c-3.5263,0.08056 -7.11702,4.15148 -8.16702,4.15148c-4.05009,0 -7.33333,-3.80558 -7.33333,-8.5c0,-4.69442 3.28324,-8.5 7.33333,-8.5c4.05009,0 14.66667,-4.36109 14.66667,0.33334z" fill="#ff4e4e" stroke="#e22828" stroke-width="1.5" stroke-linecap="butt"/><path d="M288.79872,230.34047l-37.76279,-67.54999l1.49001,-5.01533c0,0 2.08908,0.58407 5.12533,4.96365c6.17991,8.91409 41.63746,61.25301 41.63746,61.25301c0,0 5.9542,8.35587 -0.10943,11.95634c-1.19765,0.71115 -2.59827,-0.65981 -3.97602,-1.29898c-1.94773,-0.90359 -0.34977,4.07181 -2.23479,4.12263c-1.04536,0.02818 -4.16977,-8.43133 -4.16977,-8.43133z" fill="#000000" stroke="#000000" stroke-width="1.5" stroke-linecap="butt"/><path d="M288.41233,234.39113l-6.5,-13.66667l-7,-11.5l-8.16667,-11.33333l10.33333,-8.5l20.33333,30.5l4.66667,8.5l-6.33333,7.16667l-2.33333,-2.33333l-5,1l-5.83333,-12.16667" fill="#9e0000" stroke="#000000" stroke-width="1.5" stroke-linecap="round"/><path d="M272.09434,205.67925l-5.92805,-7.5654l11.11165,-9.14477l7.0709,8.5654z" fill="#ff7575" stroke="#000000" stroke-width="1.5" stroke-linecap="butt"/><path d="M281.89142,220.98346l-5.33034,-7.99778l11.78029,-8.2656l6.39314,9.08248z" fill="#ff7575" stroke="#000000" stroke-width="1.5" stroke-linecap="butt"/><g stroke="#000000" stroke-width="1.5"><path d="M193.96726,245.65272c-1.87099,0.23513 -1.04463,-4.92483 -2.83312,-3.73681c-1.26512,0.84037 -2.44205,2.40755 -3.73356,1.88591c-6.5388,-2.64106 -1.91814,-11.80198 -1.91814,-11.80198c0,0 27.12579,-57.10336 31.88505,-66.85024c2.33828,-4.78874 4.31486,-5.68233 4.31486,-5.68233l2.23207,4.73197l-27.10179,72.48809c0,0 -1.80778,8.83499 -2.84537,8.96538z" data-paper-data="{&quot;index&quot;:null}" fill="#ffffff" stroke-linecap="butt"/><path d="M202.10222,227.49802l-3.9243,12.90951l-5.09376,-0.23157l-1.95322,2.65966l-7.34525,-6.12532l3.32614,-9.10849l15.48187,-33.22659l11.50099,6.83777l-6.3569,12.439l-5.17844,12.42714l-4.35621,14.49314" data-paper-data="{&quot;index&quot;:null}" fill="#9e0000" stroke-linecap="round"/><path d="M196.67068,203.72294l5.69277,-9.53709l12.36794,7.35728l-4.71447,8.37561z" data-paper-data="{&quot;index&quot;:null}" fill="#ff7575" stroke-linecap="butt"/><path d="M188.37937,223.47379l4.94455,-9.94561l12.89579,6.38703l-4.0582,8.71252z" data-paper-data="{&quot;index&quot;:null}" fill="#ff7575" stroke-linecap="butt"/></g><path d="M221.04844,161.55669c-0.3436,-0.35153 0.00595,-0.70108 0.00595,-0.70108l0.28746,-0.28589c0.00722,-0.00631 0.01489,-0.01315 0.023,-0.02051c0.052,-0.12946 0.1566,-0.23213 0.28734,-0.28157c0.59211,-0.59887 1.6821,-1.74887 1.98768,-1.76192c0.98479,-0.04207 1.15976,0.60756 0.979,1.25877c0.01717,-0.00178 0.03459,-0.0027 0.05223,-0.0027c0.27614,0 0.5,0.22386 0.5,0.5c0,0.10652 -0.03331,0.20526 -0.09008,0.28637l-0.34278,0.50465l-0.01216,-0.00826l-0.01092,0.03955c-0.06366,0.06822 -0.12553,0.13409 -0.18594,0.19779c0.0401,0.07195 0.06294,0.15483 0.06294,0.24305c0,0.11732 -0.04041,0.2252 -0.10806,0.31049l-0.35733,0.45943c-0.3579,0.53686 -0.9855,2.16714 -1.8069,2.09725c-1.09161,-0.09288 -0.56696,-1.1979 -0.97134,-1.69458c-0.16669,-0.20473 -0.5769,-0.26082 -0.59364,-0.52429c-0.00661,-0.10408 0.10767,-0.32991 0.29355,-0.61656z" fill="#ffffff" stroke="none" stroke-width="0.5" stroke-linecap="butt"/><path d="M248.6415,315.40155c0,0 -0.31206,-6.38312 -0.04443,-11.48923c0.21375,-4.07804 1.0236,-6.66252 0.99706,-9.5115c-0.06481,-6.95672 -1.32763,-19.24928 -1.32763,-19.24928h18.625c0,0 -2.625,13.24821 -2.625,20.125c0,2.25403 1.26851,4.41096 1.75082,7.58691c0.76337,5.02678 0.87418,10.91309 0.87418,10.91309c0,0 5.47753,-0.59903 12.8806,2.56286c0.38284,0.16351 3.39562,5.07008 -0.30984,6.38632c-2.67653,0.95075 -10.81781,-0.21167 -13.85501,-0.13288c-3.8802,0.10065 -9.65794,-0.63466 -13.41947,-1.03596c-4.1807,-0.44601 -3.54627,-6.15534 -3.54627,-6.15534z" fill="#ffffff" stroke="#000000" stroke-width="1.5" stroke-linecap="butt"/><path d="M262.329,290.77655c3.4863,0 1.6875,0.96447 1.6875,2c0,1.03553 1.7988,1.75 -1.6875,1.75c-3.4863,0 -6.3125,-0.83947 -6.3125,-1.875c0,-1.03553 2.8262,-1.875 6.3125,-1.875z" fill="#ffffff" stroke="#151515" stroke-width="1.5" stroke-linecap="butt"/><path d="M259.2665,292.46405c0,1.48427 -0.86745,2.6875 -1.9375,2.6875c-1.07005,0 -1.9375,-1.20323 -1.9375,-2.6875c0,-1.48427 0.86745,-2.6875 1.9375,-2.6875c1.07005,0 1.9375,1.20323 1.9375,2.6875z" fill="none" stroke="#cc0000" stroke-width="1.5" stroke-linecap="butt"/><path d="M227.47483,318.56823c0,0 -0.31206,-6.38312 -0.04442,-11.48923c0.21375,-4.07804 1.02361,-6.66251 0.99706,-9.51149c-0.06482,-6.95672 -1.32764,-19.24928 -1.32764,-19.24928h18.625c0,0 -2.625,13.2482 -2.625,20.125c0,2.25403 1.26851,4.41096 1.75082,7.58691c0.76337,5.02679 0.87418,10.91309 0.87418,10.91309c0,0 5.47752,-0.59903 12.88059,2.56286c0.38284,0.16351 3.39562,5.07007 -0.30984,6.38632c-2.67653,0.95075 -10.81781,-0.21167 -13.85501,-0.13289c-3.8802,0.10065 -9.65794,-0.63466 -13.41947,-1.03596c-4.1807,-0.44601 -3.54627,-6.15533 -3.54627,-6.15533z" fill="#000000" stroke="#000000" stroke-width="1.5" stroke-linecap="butt"/><path d="M241.16233,293.94323c3.48629,0 1.6875,0.96447 1.6875,2c0,1.03553 1.79879,1.75 -1.6875,1.75c-3.48629,0 -6.3125,-0.83947 -6.3125,-1.875c0,-1.03553 2.82621,-1.875 6.3125,-1.875z" fill="#000000" stroke="#151515" stroke-width="1.5" stroke-linecap="butt"/><path d="M238.09983,295.63073c0,1.48426 -0.86745,2.6875 -1.9375,2.6875c-1.07005,0 -1.9375,-1.20324 -1.9375,-2.6875c0,-1.48426 0.86745,-2.6875 1.9375,-2.6875c1.07005,0 1.9375,1.20324 1.9375,2.6875z" fill="none" stroke="#cc0000" stroke-width="1.5" stroke-linecap="butt"/><path d="M313.15575,140.93564l-24.77163,20.10873l0.07361,-20.10873v-91.80075h92.74714v91.80075z" data-paper-data="{&quot;index&quot;:null}" fill="#2e2e2e" stroke="#161616" stroke-width="6.5" stroke-linecap="butt"/><text transform="translate(293.35908,63.55216) scale(0.25671,0.25671)" font-size="40" xml:space="preserve" data-paper-data="{&quot;index&quot;:null}" fill="#ffffff" fill-rule="nonzero" stroke="none" stroke-width="1" stroke-linecap="butt" stroke-linejoin="miter" stroke-miterlimit="10" stroke-dasharray="" stroke-dashoffset="0" font-family="Sans Serif" font-weight="normal" text-anchor="start" style="mix-blend-mode: normal"><tspan x="0" dy="0">Pfft! Why would</tspan><tspan x="0" dy="48px">you care about </tspan><tspan x="0" dy="48px">that?</tspan></text></g></g></svg>