<svg version="1.1" xmlns="http://www.w3.org/2000/svg" xmlns:xlink="http://www.w3.org/1999/xlink" width="99.50263" height="127.7365" viewBox="0,0,99.50263,127.7365"><g transform="translate(-176.44176,-116.13816)"><g data-paper-data="{&quot;isPaintingLayer&quot;:true}" fill-rule="nonzero" stroke-linejoin="miter" stroke-miterlimit="10" stroke-dasharray="" stroke-dashoffset="0" style="mix-blend-mode: normal"><path d="M266.88841,149.18127c0,20.15482 -12.35367,36.49353 -27.59269,36.49353c-15.23901,0 -27.59268,-16.33871 -27.59268,-36.49353c0,-20.15482 12.35366,-32.0431 27.59268,-32.0431c15.23901,0 27.59269,11.88828 27.59269,32.0431z" fill="#ffffff" stroke="#d2d2d2" stroke-width="2" stroke-linecap="butt"/><path d="M274.94439,191.47514c0,21.14515 -12.46691,43.31991 -34.62867,43.31991c-22.16176,0 -32.91032,-25.00596 -32.91032,-46.1511c0,-21.14514 11.4359,-22.87239 33.59766,-22.87239c22.16176,0 33.94134,4.55844 33.94134,25.70359z" fill="#00b9ff" stroke="#0095cc" stroke-width="2" stroke-linecap="butt"/><path d="M239.84134,162.23203l-5.45007,-9.53763h11.07047l-5.45008,9.53763z" fill="#ff9f09" stroke="#c57d08" stroke-width="2" stroke-linecap="butt"/><path d="M219.51452,157.86609c-2.09914,0 -2.09914,-2.09915 -2.09914,-2.09915l0.05376,-0.20924c-0.17032,-0.73803 -0.34062,-1.47606 -0.51094,-2.21409c0,0 -0.472,-2.04539 1.57337,-2.51741c2.04538,-0.47201 2.5174,1.57337 2.5174,1.57337c0.17032,0.73803 0.34063,1.47606 0.51095,2.2141l0.05376,1.15327c0,0 -0.00001,2.09915 -2.09915,2.09915z" fill="#000000" stroke="none" stroke-width="0.5" stroke-linecap="butt"/><path d="M226.27949,151.83931c0.34518,0.30976 0.61396,0.79211 0.61396,1.54322c0,2.09914 -2.09914,2.09914 -2.09914,2.09914l-2.12954,-1.3456c-0.28385,-0.73803 -0.56771,-1.47607 -0.85157,-2.2141c0,0 -0.75354,-1.95922 1.20568,-2.71277c1.95922,-0.75355 2.71277,1.20568 2.71277,1.20568c0.18261,0.4748 0.36524,0.94962 0.54785,1.42442z" fill="#000000" stroke="none" stroke-width="0.5" stroke-linecap="butt"/><path d="M249.34153,156.51673c-0.76782,-1.15172 -0.26987,-2.05029 0.15839,-2.52877c0,-0.51032 0,-1.02065 0,-1.53097c0,0 0,-2.09914 2.09914,-2.09914c2.09915,0 2.09914,2.09914 2.09914,2.09914c0,0.85157 0,1.70315 0,2.55472l-1.4457,2.08722c0,0 -1.7466,1.1644 -2.91099,-0.5822z" fill="#000000" stroke="none" stroke-width="0.5" stroke-linecap="butt"/><path d="M258.04179,158.87334c-2.09915,0 -2.09914,-2.09915 -2.09914,-2.09915c0,-0.73803 0,-1.8167 0,-2.55472c0,0 -0.00001,-2.09914 2.09914,-2.09914c2.09915,0 2.09915,2.09914 2.09915,2.09914c0,0.73803 0,1.47606 0,2.2141v0.34062c0,0 0,2.09915 -2.09915,2.09915z" fill="#000000" stroke="none" stroke-width="0.5" stroke-linecap="butt"/><path d="M222.62515,148.23453c0.20887,2.08873 -1.87985,2.29761 -1.87985,2.29761l-1.76247,0.17539l-2.3628,0.16877c-0.05646,0.00456 -0.11354,0.00687 -0.17117,0.00687c-1.15933,0 -2.09914,-0.93981 -2.09914,-2.09914c0,-0.66119 0.30569,-1.251 0.78347,-1.63576l1.85987,-1.52171c0,0 1.62466,-1.32927 2.95391,0.29539c0.12261,0.14987 0.2201,0.29722 0.29604,0.44124l0.08454,-0.0085c0,0 2.08874,-0.20887 2.29761,1.87985z" fill="#0084ff" stroke="none" stroke-width="0.5" stroke-linecap="butt"/><path d="M258.69059,148.92801c-0.45537,2.04916 -2.50453,1.59379 -2.50453,1.59379l-1.74128,-0.39837c-1.12914,-0.68634 -2.90303,-0.82963 -3.38741,-2.05901c-0.14334,-0.3638 0.08204,-0.65468 0.43007,-0.92132c-0.5706,-0.23447 -1.20303,-0.75423 -1.20303,-1.90644c0,-2.09914 2.09915,-2.09915 2.09915,-2.09915h2.38441c1.15933,0 2.09915,0.93982 2.09915,2.09915c0,0.39273 -0.10785,0.76027 -0.29556,1.07463l0.52524,0.11219c0,0 2.04917,0.45537 1.5938,2.50453z" fill="#0084ff" stroke="none" stroke-width="0.5" stroke-linecap="butt"/><path d="M232.67246,233.21613c0,5.47234 -5.18518,9.90854 -11.58142,9.90854c-6.39623,0 -11.5814,-4.4362 -11.5814,-9.90854c0,-5.47234 5.18517,-9.90853 11.5814,-9.90853c6.39623,0 11.58142,4.43619 11.58142,9.90854z" fill="#ff7474" stroke="#bb5454" stroke-width="1.5" stroke-linecap="butt"/><path d="M274.43078,230.66465c0,5.47234 -5.18518,9.90854 -11.58142,9.90854c-6.39623,0 -11.58141,-4.4362 -11.58141,-9.90854c0,-5.47234 5.18518,-9.90853 11.58141,-9.90853c6.39623,0 11.58142,4.43619 11.58142,9.90854z" fill="#ff7474" stroke="#bb5454" stroke-width="1.5" stroke-linecap="butt"/><g stroke-linecap="butt"><path d="M269.79136,174.07127c4.27203,2.28389 1.24606,16.27323 -6.75867,31.24604c-8.00473,14.97281 -17.957,25.25921 -22.22902,22.97532c-4.27203,-2.28389 -1.24606,-16.27323 6.75867,-31.24604c8.00473,-14.97281 17.957,-25.25921 22.22903,-22.9753z" fill="#ffffff" stroke="#d2d2d2" stroke-width="2"/><path d="M259.31767,184.0388l-0.19042,0.67418c2.08218,2.79801 3.12992,-0.07834 5.47057,1.98849c0.30946,0.27326 0.43047,0.6611 0.46346,1.09133c0.22117,-0.32408 0.46148,-0.64012 0.65716,-0.97489c0,0 1.09667,-1.78988 2.88656,-0.6932c1.78989,1.09668 0.69321,2.88657 0.69321,2.88657c-1.06838,1.686 -2.72961,5.51389 -5.84173,4.50655c-1.15267,-0.3731 -0.48281,-2.49655 -1.29392,-3.39653c-0.31037,-0.34437 -0.82386,0.6048 -1.28257,0.53778c-3.14755,-0.45997 -3.19102,-1.18986 -5.00385,-3.28977l-0.70802,-2.69255c0,0 -0.31897,-2.07477 1.75579,-2.39374c2.07477,-0.31897 2.39375,1.7558 2.39375,1.7558z" fill="#000000" stroke="none" stroke-width="0.5"/><path d="M251.58423,197.76725l-0.01415,1.78567c0.14641,0.85347 2.54912,2.81673 3.54985,2.78968c0.73664,-0.01992 0.89718,-1.46752 1.63376,-1.48933c2.39986,-0.07105 3.07837,3.07052 3.25473,0.00274c0,0 0.54808,-2.02634 2.57441,-1.47826c2.02633,0.54808 1.47825,2.57441 1.47825,2.57441c-1.13358,3.16451 -0.66729,4.44796 -5.1999,4.42539c-0.71966,-0.00358 -0.96808,-1.37554 -1.68718,-1.34709c-0.69904,0.02766 -0.7958,1.49656 -1.49499,1.47303c-4.18919,-0.14097 -6.85832,-2.91191 -8.24296,-6.21875l-0.04998,-2.48227c0,0 -0.01761,-2.09906 2.08147,-2.11669c2.09906,-0.01761 2.11668,2.08146 2.11668,2.08146z" fill="#000000" stroke="none" stroke-width="0.5"/><path d="M246.0537,210.17845l-0.22301,0.71248c0.70628,4.69204 4.9757,2.89408 8.85314,2.99437c0,0 2.09836,0.05732 2.04104,2.15568c-0.05732,2.09836 -2.15568,2.04104 -2.15568,2.04104c-3.61929,-0.10466 -9.33692,1.31397 -11.83002,-2.46825c-0.72408,-1.09849 -0.67179,-2.54412 -1.00769,-3.81618l0.16058,-2.17248c0,0 0.27666,-2.08083 2.3575,-1.80416c2.08083,0.27667 1.80415,2.3575 1.80415,2.3575z" fill="#000000" stroke="none" stroke-width="0.5"/><path d="M242.65473,220.59432l-0.4823,0.41462c1.04882,1.21481 1.79238,3.68922 3.14176,2.41433c0,0 1.92926,-0.82729 2.75654,1.10195c0.8273,1.92926 -1.10197,2.75654 -1.10197,2.75654c-1.0791,0.32999 -2.14621,1.27784 -3.2373,0.98996c-1.28438,-0.33889 -3.70465,-3.32584 -4.73556,-4.51771l-0.53892,-3.09192c0,0 -0.03388,-2.09887 2.06499,-2.13274c2.09887,-0.03388 2.13276,2.06499 2.13276,2.06499z" fill="#000000" stroke="none" stroke-width="0.5"/><path d="M265.97668,177.73521l0.38311,0.99088c0.72031,1.97224 1.40771,1.30967 3.20636,0.585c0,0 1.97402,-0.71393 2.68794,1.26009c0.71393,1.97401 -1.26009,2.68793 -1.26009,2.68793c-4.02462,1.35265 -5.92422,1.13438 -8.29186,-2.47212l-0.61628,-1.47467c0,0 -0.78854,-1.94541 1.15686,-2.73395c1.9454,-0.78854 2.73395,1.15685 2.73395,1.15685z" fill="#000000" stroke="none" stroke-width="0.5"/></g><g stroke-linecap="butt"><path d="M207.3597,170.24743c4.31787,2.19597 1.57888,16.24431 -6.11772,31.37782c-7.6966,15.13351 -17.43624,25.62146 -21.75411,23.42548c-4.31788,-2.19598 -1.57888,-16.24432 6.11772,-31.37783c7.6966,-15.13351 17.43625,-25.62145 21.75412,-23.42546z" fill="#ffffff" stroke="#d2d2d2" stroke-width="2"/><path d="M197.09221,180.42725l-0.17658,0.67794c2.13901,2.75481 3.12766,-0.14239 5.51013,1.8761c0.31499,0.26687 0.44391,0.65215 0.4857,1.08161c0.21449,-0.32854 0.44827,-0.64943 0.63706,-0.98814c0,0 1.05981,-1.81195 2.87177,-0.75213c1.81196,1.05982 0.75215,2.87178 0.75215,2.87178c-1.03365,1.70752 -2.61619,5.5686 -5.74827,4.62517c-1.16006,-0.34943 -0.5338,-2.48614 -1.36316,-3.36932c-0.31736,-0.33794 -0.81131,0.62153 -1.2713,0.56391c-3.1563,-0.39545 -3.21471,-1.12429 -5.07013,-3.18666l-0.76298,-2.6775c0,0 -0.36137,-2.0678 1.70643,-2.42917c2.0678,-0.36137 2.42918,1.70643 2.42918,1.70643z" fill="#000000" stroke="none" stroke-width="0.5"/><path d="M189.64138,194.3111l0.0224,1.78559c0.16384,0.85029 2.60625,2.76395 3.60621,2.71643c0.73607,-0.03499 0.86695,-1.48557 1.60292,-1.52245c2.3979,-0.12016 3.14057,3.00688 3.25411,-0.06387c0,0 0.50649,-2.03714 2.54361,-1.53064c2.03712,0.5065 1.53063,2.5436 1.53063,2.5436c-1.06857,3.18705 -0.57611,4.46069 -5.10823,4.5309c-0.71959,0.01115 -0.99604,-1.35544 -1.7144,-1.31228c-0.69833,0.04196 -0.765,1.51254 -1.46453,1.50332c-4.1912,-0.05519 -6.91648,-2.77092 -8.36851,-6.04873l-0.10077,-2.48073c0,0 -0.06057,-2.09825 2.03771,-2.15884c2.09827,-0.06057 2.15884,2.0377 2.15884,2.0377z" fill="#000000" stroke="none" stroke-width="0.5"/><path d="M184.36604,206.8329l-0.20838,0.7169c0.80217,4.67661 5.03389,2.79164 8.91256,2.81254c0,0 2.0991,0.01435 2.08474,2.11345c-0.01436,2.0991 -2.11346,2.08474 -2.11346,2.08474c-3.62067,-0.03056 -9.30806,1.50481 -11.87806,-2.2256c-0.74641,-1.08344 -0.72372,-2.52984 -1.08559,-3.79476l0.11608,-2.17531c0,0 0.23402,-2.08605 2.32008,-1.85203c2.08606,0.23402 1.85203,2.32008 1.85203,2.32008z" fill="#000000" stroke="none" stroke-width="0.5"/><path d="M181.18097,217.31616l-0.47371,0.42441c1.07346,1.19309 1.86751,3.65177 3.19052,2.34952c0,0 1.91192,-0.86661 2.77852,1.0453c0.86661,1.91191 -1.04532,2.77852 -1.04532,2.77852c-1.07212,0.35201 -2.11961,1.32152 -3.21636,1.05602c-1.29105,-0.31253 -3.77194,-3.24932 -4.82703,-4.41985l-0.60209,-3.08024c0,0 -0.07683,-2.09773 2.0209,-2.17456c2.09773,-0.07683 2.17457,2.0209 2.17457,2.0209z" fill="#000000" stroke="none" stroke-width="0.5"/><path d="M203.62081,173.98868l0.40331,0.98284c0.76053,1.95708 1.43422,1.28058 3.21766,0.51924c0,0 1.959,-0.75418 2.71316,1.20481c0.75419,1.95899 -1.20481,2.71316 -1.20481,2.71316c-3.99609,1.43473 -5.89976,1.2554 -8.34072,-2.30189l-0.64633,-1.46175c0,0 -0.82819,-1.92886 1.10065,-2.75706c1.92885,-0.82819 2.75706,1.10065 2.75706,1.10065z" fill="#000000" stroke="none" stroke-width="0.5"/></g><g stroke-linecap="butt"><path d="M242.84494,147.32378c2.02784,0 3.67172,1.56916 3.67172,3.50482c0,1.93565 -1.64388,3.50482 -3.67172,3.50482c-2.02784,0 -3.67172,-1.56916 -3.67172,-3.50482c0,-1.93565 1.64388,-3.50482 3.67172,-3.50482z" fill="#deffff" stroke="#9db5b5" stroke-width="1.5"/><path d="M240.7517,152.17207c0,-0.57363 0.46502,-1.03866 1.03866,-1.03866c0.57363,0 1.03866,0.46502 1.03866,1.03866c0,0.57363 -0.46502,1.03866 -1.03866,1.03866c-0.57363,0 -1.03866,-0.46502 -1.03866,-1.03866z" fill="#444e4e" stroke="none" stroke-width="0.5"/></g><g data-paper-data="{&quot;index&quot;:null}" stroke-linecap="butt"><path d="M239.87974,150.71201c0,1.93565 -1.64388,3.50482 -3.67172,3.50482c-2.02784,0 -3.67172,-1.56916 -3.67172,-3.50482c0,-1.93565 1.64388,-3.50481 3.67172,-3.50481c2.02784,0 3.67172,1.56916 3.67172,3.50481z" fill="#deffff" stroke="#9db5b5" stroke-width="1.5"/><path d="M237.2626,153.09414c-0.57363,0 -1.03866,-0.46502 -1.03866,-1.03866c0,-0.57363 0.46502,-1.03866 1.03866,-1.03866c0.57363,0 1.03866,0.46502 1.03866,1.03866c0,0.57363 -0.46502,1.03866 -1.03866,1.03866z" fill="#444e4e" stroke="none" stroke-width="0.5"/></g><path d="M223.00072,129.4438l9.99958,7.33302l-10.13291,3.19986" fill="none" stroke="#000000" stroke-width="2.5" stroke-linecap="round"/><path d="M253.13278,129.4438l-7.99966,5.46644l9.06628,3.8665" fill="none" stroke="#000000" stroke-width="2.5" stroke-linecap="round"/></g></g></svg>