<svg version="1.1" xmlns="http://www.w3.org/2000/svg" xmlns:xlink="http://www.w3.org/1999/xlink" width="129.36576" height="110.24924" viewBox="0,0,129.36576,110.24924"><defs><linearGradient x1="218.52084" y1="191.62997" x2="218.52084" y2="208.18552" gradientUnits="userSpaceOnUse" id="color-1"><stop offset="0" stop-color="#f3ab1c"/><stop offset="1" stop-color="#b78533"/></linearGradient></defs><g transform="translate(-184.03409,-122.23395)"><g data-paper-data="{&quot;isPaintingLayer&quot;:true}" fill-rule="nonzero" stroke-linejoin="miter" stroke-miterlimit="10" stroke-dasharray="" stroke-dashoffset="0" style="mix-blend-mode: normal"><path d="M266.84881,194.15427l16.37674,-1.16414c3.5501,5.11332 9.84745,6.51197 17.24472,3.87009c3.25962,-1.16415 4.03596,-3.19043 4.4934,-5.41533l7.08653,-0.50374l-2.17007,30.35109l-10.52137,9.57307l-0.21993,-0.16388c-0.1281,-0.34032 -0.27378,-0.67202 -0.43594,-0.994c-0.12652,-0.4816 -0.25813,-0.98768 -0.39149,-1.52111l-0.11336,-0.06478c-0.349,-1.5705 -2.90459,-3.0484 -2.97851,-4.42947c-0.03575,-0.66782 0.68705,-1.339 0.43523,-1.95855c-0.34528,-0.84951 -2.9857,-4.78597 -4.01637,-6.02455c-0.65865,-0.79152 -0.72012,-2.2994 -1.71356,-2.57034c-4.48445,-1.22303 -8.50366,-0.22653 -11.56519,2.07951l-13.03836,-9.71533z" fill="#4a4a4a" stroke="#333333" stroke-width="2.5" stroke-linecap="butt"/><path d="M255.62573,210.04973c0,2.37391 0.07086,5.16847 -0.6031,7.41965c-0.71785,2.39776 -2.20822,4.17908 -3.07768,4.17908c-0.78963,0 -1.96682,-1.15762 -2.61345,-2.89221c-0.73385,-1.96855 -0.88778,-4.68021 -0.88778,-7.28627c0,-2.03369 -0.10848,-8.07699 0.30517,-10.57489c0.5835,-3.52354 1.85051,-3.27256 2.83696,-3.27256c0.85583,0 2.51233,0.04575 3.31719,2.59683c0.78052,2.47394 0.72268,7.41681 0.72268,9.83037z" fill="#353535" stroke="#191919" stroke-width="2" stroke-linecap="butt"/><path d="M275.11514,212.84902c1.72863,2.36123 3.85647,5.07285 4.61197,7.95898c0.80468,3.07408 0.14748,6.27661 -0.99264,7.11128c-1.03544,0.75803 -3.42205,0.73668 -5.53307,-0.36789c-2.39575,-1.25355 -4.57216,-3.80296 -6.46983,-6.3951c-1.48089,-2.02283 -6.02373,-7.9297 -7.30022,-10.81136c-1.80061,-4.06487 0.04356,-5.03154 1.33709,-5.97852c1.12225,-0.82159 3.32772,-2.36632 6.24078,-0.60151c2.82496,1.71143 6.34842,6.68342 8.10591,9.08408z" fill="#353535" stroke="#191919" stroke-width="2" stroke-linecap="butt"/><path d="M231.33604,212.54592c0,2.55181 0.07085,5.5558 -0.6031,7.97567c-0.71784,2.57745 -2.20821,4.49226 -3.07767,4.49226c-0.78963,0 -1.96682,-1.24438 -2.61345,-3.10895c-0.73385,-2.11607 -0.88778,-5.03094 -0.88778,-7.8323c0,-2.18609 -0.10848,-8.68227 0.30518,-11.36737c0.5835,-3.78759 1.85051,-3.51781 2.83695,-3.51781c0.85582,0 2.51233,0.04916 3.31719,2.79142c0.78052,2.65935 0.72269,7.97263 0.72269,10.56707z" fill="#353535" stroke="#191919" stroke-width="2" stroke-linecap="butt"/><path d="M217.4986,221.2541c-1.43128,2.34214 -3.02402,5.15562 -5.25791,6.84098c-2.37936,1.7951 -5.39188,2.36794 -6.52279,1.67685c-1.02708,-0.62765 -1.86028,-2.70547 -1.65556,-4.93082c0.23236,-2.52551 1.66706,-5.32323 3.23831,-7.89442c1.22615,-2.00647 4.72868,-8.05513 6.77276,-10.1908c2.88337,-3.01258 4.38005,-1.75789 5.66313,-0.9738c1.11317,0.68025 3.24021,2.04206 2.74899,5.19877c-0.47637,3.06124 -3.53174,7.89199 -4.98694,10.27327z" fill="#353535" stroke="#191919" stroke-width="2" stroke-linecap="butt"/><path d="M213.93959,209.549c0,0 -7.26951,-14.62574 -7.26951,-24.85362c0,-8.31834 -0.02359,-20.69847 5.51646,-32.49311c2.16728,-0.06929 4.49774,-0.54746 6.93692,-0.97313c3.94115,-0.68778 6.89414,0.48634 10.27783,-1.85969c2.57964,-1.78856 5.1182,-10.01931 6.03521,-14.77081c0.02216,-0.00061 0.04435,-0.00124 0.06658,-0.00189c8.91346,-0.26076 22.33112,1.03397 28.61883,10.76561c0.29355,0.45434 0.58187,0.93004 0.86482,1.42524c-1.32487,1.78683 -2.01509,3.91071 -1.5009,6.28866c0.42017,1.94315 0.24036,4.3332 1.65511,5.72992c0.91711,0.90543 2.13506,1.50609 2.9355,2.51614c0.23719,0.2993 -0.3923,5.50176 -0.38878,5.55997c0.20563,3.39667 1.39658,7.60683 3.96243,10.09922c0.72347,0.70276 1.47951,1.24389 2.25625,1.64296c0.25874,2.48841 0.39288,4.79397 0.39288,6.79786c0,8.84089 -7.99646,24.6113 -7.99646,24.6113c0,0 -18.84963,2.66548 -28.1218,2.66548c-8.10568,0 -24.24136,-3.15012 -24.24136,-3.15012z" fill="#4a4a4a" stroke="#333333" stroke-width="2.5" stroke-linecap="butt"/><path d="M247.0892,185.82664c0,2.00386 -2.80588,3.62832 -6.2671,3.62832c-3.46122,0 -6.2671,-1.62446 -6.2671,-3.62832c0,-2.00386 2.80588,-3.62832 6.2671,-3.62832c3.46122,0 6.2671,1.62446 6.2671,3.62832z" fill="#0a0a0a" stroke="none" stroke-width="0" stroke-linecap="butt"/><path d="M240.65718,188.0531l-0.1367,7.58699c0,0 -2.18558,0.62414 -3.42494,0.7243c-1.30604,0.10554 -4.80543,0.0061 -4.80543,0.0061" fill="none" stroke="#0a0a0a" stroke-width="2" stroke-linecap="round"/><path d="M210.24145,166.95894l2.50727,-1.48989l18.12098,5.3875l-3.49519,1.97353z" data-paper-data="{&quot;index&quot;:null}" fill="#0a0a0a" stroke="none" stroke-width="0" stroke-linecap="butt"/><path d="M250.45979,172.24362l-3.36696,-2.1851l18.41845,-4.26095l2.20633,1.50234c0.00525,0.06337 0.01083,0.12698 0.01675,0.19081z" data-paper-data="{&quot;index&quot;:null}" fill="#0a0a0a" stroke="none" stroke-width="0" stroke-linecap="butt"/><path d="M235.04582,164.58425c-0.36861,-0.89942 -2.43481,0.52124 -2.02612,-1.75339c0.07857,-0.43731 0.49078,-0.76846 0.85556,-1.02213c0.25222,-0.17539 0.69984,0.26159 0.68343,-0.04518c-0.06132,-1.14675 0.39127,-3.20254 2.0177,-2.31502c0.61776,0.33711 0.8549,1.21997 1.4461,1.52525c0.59337,0.30639 1.48065,-0.17387 1.7834,0.77559c0.12048,0.37783 -0.43632,0.94016 -0.12306,1.18334c0.41676,0.32352 0.84444,0.87392 0.75113,1.3932c-0.34403,1.91473 -1.59483,0.80878 -2.51002,0.83854c-0.21732,0.00707 -0.67044,0.86867 -0.96855,1.02068c-1.08089,0.55115 -2.05549,-0.60123 -1.8781,-1.58848z" fill="#8e8e8e" stroke="none" stroke-width="0.5" stroke-linecap="butt"/><path d="M249.38009,154.92466c0.06073,-0.76862 -1.91025,-0.50184 -0.80732,-1.96606c0.21204,-0.2815 0.62233,-0.36852 0.97132,-0.41764c0.2413,-0.03396 0.40191,0.43552 0.50002,0.21246c0.36675,-0.83382 1.42249,-2.1274 2.25653,-0.91732c0.31679,0.45963 0.1689,1.1695 0.47828,1.59709c0.31051,0.42915 1.11047,0.40649 0.98521,1.18698c-0.04984,0.31059 -0.64518,0.50956 -0.51038,0.79377c0.17934,0.37811 0.28527,0.92076 0.03348,1.25503c-0.92842,1.23256 -1.4184,0.00218 -2.07699,-0.3041c-0.15639,-0.07273 -0.78537,0.37521 -1.05079,0.3762c-0.96239,0.0036 -1.24021,-1.16086 -0.76151,-1.79638z" fill="#8e8e8e" stroke="none" stroke-width="0.5" stroke-linecap="butt"/><path d="M206.87604,194.74913l-0.93158,-3.11916c0,0 5.7857,5.20847 9.67976,7.34436c4.42271,2.42586 15.473,6.45193 15.473,6.45193l-0.83842,2.75926c0,0 -11.23156,-4.19849 -15.4549,-6.62533c-3.3829,-1.94391 -7.92785,-6.81106 -7.92785,-6.81106z" fill="url(#color-1)" stroke="#f3ab1c" stroke-width="0.5" stroke-linecap="butt"/><path d="M256.73723,150.8699c-1.26128,1.92597 -3.33693,4.68729 -5.25385,6.04161c-2.04174,1.44251 -5.1378,1.17711 -6.06775,0.5681c-0.84457,-0.5531 -1.48862,-2.31684 -1.25864,-4.17705c0.26099,-2.11112 1.53708,-4.41891 2.9217,-6.53323c1.08051,-1.64994 4.17534,-6.6289 5.94493,-8.36572c2.49618,-2.44996 3.718,-1.35887 4.77309,-0.66792c0.91537,0.59946 2.66284,1.79686 2.16828,4.43033c-0.4796,2.55384 -1.94542,6.74572 -3.22777,8.70387z" fill="#656565" stroke="#595959" stroke-width="2" stroke-linecap="butt"/><g stroke-linecap="butt"><path d="M226.38429,178.31785c0,3.92445 -3.14483,7.10586 -7.02417,7.10586c-3.87935,0 -7.02417,-3.18141 -7.02417,-7.10586c0,-3.92445 3.14482,-7.10584 7.02417,-7.10584c3.87935,0 7.02417,3.18139 7.02417,7.10584z" fill="#ff6363" stroke="#000000" stroke-width="1.5"/><text transform="translate(215.94515,182.9189) scale(0.31033,0.31033)" font-size="40" xml:space="preserve" fill="#000000" fill-rule="nonzero" stroke="none" stroke-width="1" stroke-linecap="butt" stroke-linejoin="miter" stroke-miterlimit="10" stroke-dasharray="" stroke-dashoffset="0" font-family="Sans Serif" font-weight="normal" text-anchor="start" style="mix-blend-mode: normal"><tspan x="0" dy="0">0</tspan></text><path d="M220.20187,174.91853c0,-0.9676 0.78439,-1.75199 1.75199,-1.75199c0.9676,0 1.752,0.78439 1.752,1.75199c0,0.9676 -0.7844,1.75199 -1.752,1.75199c-0.9676,0 -1.75199,-0.78439 -1.75199,-1.75199z" fill="#ffffff" stroke="none" stroke-width="0.5"/><path d="M219.65562,182.93015c0,-0.9676 0.78439,-1.75199 1.75199,-1.75199c0.9676,0 1.75199,0.78439 1.75199,1.75199c0,0.9676 -0.78439,1.75199 -1.75199,1.75199c-0.9676,0 -1.75199,-0.78439 -1.75199,-1.75199z" fill="#ffffff" stroke="none" stroke-width="0.5"/><path d="M220.08916,179.7673c-0.43661,0.87322 -1.20774,0.74284 -1.54445,0.63414c-1.46723,0.52353 -2.6354,0.44849 -4.3053,0.24245c0,0 -1.26434,-0.15804 -1.1063,-1.42238c0.15804,-1.26434 1.42238,-1.1063 1.42238,-1.1063c1.39248,0.17657 2.23117,0.37177 3.4959,-0.25673l1.46794,0.19933c0,0 1.13966,0.56983 0.56983,1.70949z" fill="#ffffff" stroke="none" stroke-width="0.5"/></g><g stroke-linecap="butt"><path d="M264.39459,178.745c0,3.92445 -3.14483,7.10586 -7.02417,7.10586c-3.87935,0 -7.02417,-3.18141 -7.02417,-7.10586c0,-3.92445 3.14482,-7.10584 7.02417,-7.10584c3.87935,0 7.02417,3.18139 7.02417,7.10584z" fill="#ff6363" stroke="#000000" stroke-width="1.5"/><text transform="translate(253.95545,183.34605) scale(0.31033,0.31033)" font-size="40" xml:space="preserve" fill="#000000" fill-rule="nonzero" stroke="none" stroke-width="1" stroke-linecap="butt" stroke-linejoin="miter" stroke-miterlimit="10" stroke-dasharray="" stroke-dashoffset="0" font-family="Sans Serif" font-weight="normal" text-anchor="start" style="mix-blend-mode: normal"><tspan x="0" dy="0">0</tspan></text><path d="M258.21217,175.34568c0,-0.9676 0.78439,-1.75199 1.75199,-1.75199c0.9676,0 1.752,0.78439 1.752,1.75199c0,0.9676 -0.7844,1.75199 -1.752,1.75199c-0.9676,0 -1.75199,-0.78439 -1.75199,-1.75199z" fill="#ffffff" stroke="none" stroke-width="0.5"/><path d="M257.66592,183.3573c0,-0.9676 0.78439,-1.75199 1.75199,-1.75199c0.9676,0 1.752,0.78439 1.752,1.75199c0,0.9676 -0.7844,1.75199 -1.752,1.75199c-0.9676,0 -1.75199,-0.78439 -1.75199,-1.75199z" fill="#ffffff" stroke="none" stroke-width="0.5"/><path d="M258.09946,180.19444c-0.43661,0.87322 -1.20775,0.74284 -1.54446,0.63414c-1.46723,0.52353 -2.6354,0.44849 -4.3053,0.24245c0,0 -1.26434,-0.15804 -1.1063,-1.42238c0.15804,-1.26434 1.42238,-1.1063 1.42238,-1.1063c1.39248,0.17657 2.23117,0.37177 3.4959,-0.25672l1.46794,0.19932c0,0 1.13966,0.56983 0.56983,1.70949z" fill="#ffffff" stroke="none" stroke-width="0.5"/></g><path d="M233.00578,200.0371l-1.71482,-4.28705c0,0 6.23029,0 9.43151,0c3.32027,0 10.14602,0 10.14602,0l-1.42902,5.00156c0,0 -7.04982,-2.33406 -9.43151,-2.28643c-2.3817,0.04763 -7.00218,1.57192 -7.00218,1.57192z" fill="#ffffff" stroke="#0a0a0a" stroke-width="1.5" stroke-linecap="butt"/><path d="M232.27656,197.54895l3.79561,0.22228l2.92804,-1.11138l6.6152,1.4448l4.56844,-2.3662c0,0 -4.31283,-0.06066 -5.47157,-0.04709c-1.16937,0.01369 -3.32577,0.03001 -3.32577,0.03001l0.14516,-6.43134" fill="none" stroke="#0a0a0a" stroke-width="1.5" stroke-linecap="round"/><path d="M211.90882,165.58172c0,4.58597 -2.86663,8.30363 -6.4028,8.30363c-3.53617,0 -6.4028,-3.71766 -6.4028,-8.30363c0,-4.58597 2.86663,-8.30363 6.4028,-8.30363c3.53617,0 6.4028,3.71766 6.4028,8.30363z" fill="#4a4a4a" stroke="#333333" stroke-width="2.5" stroke-linecap="butt"/><path d="M216.10847,148.40328c0,6.59232 -4.12079,11.93647 -9.20402,11.93647c-5.08324,0 -9.20402,-5.34414 -9.20402,-11.93647c0,-6.59232 4.12078,-11.93646 9.20402,-11.93646c5.08324,0 9.20402,5.34414 9.20402,11.93646z" fill="#4a4a4a" stroke="#333333" stroke-width="2.5" stroke-linecap="butt"/><path d="M245.31687,166.80695c0,6.59232 -4.12079,11.93646 -9.20403,11.93646c-5.08324,0 -9.20402,-5.34414 -9.20402,-11.93646c0,-6.59232 4.12078,-11.93646 9.20402,-11.93646c5.08324,0 9.20403,5.34413 9.20403,11.93646z" fill="#4a4a4a" stroke="#333333" stroke-width="2.5" stroke-linecap="butt"/><path d="M277.7891,200.31941c0,4.10596 -2.56659,7.4345 -5.73263,7.4345c-3.16604,0 -5.73262,-3.32854 -5.73262,-7.4345c0,-4.10596 2.56659,-7.43449 5.73262,-7.43449c3.16604,0 5.73263,3.32854 5.73263,7.43449z" fill="#4a4a4a" stroke="#333333" stroke-width="2.5" stroke-linecap="butt"/><path d="M248.35952,125.89179c5.51241,3.61553 7.72108,9.99225 4.93321,14.24278c-2.78788,4.25053 -9.5166,4.76531 -15.02901,1.14978c-5.51241,-3.61553 -7.72108,-9.99224 -4.9332,-14.24277c2.78788,-4.25053 9.5166,-4.76531 15.02901,-1.14979z" fill="#4a4a4a" stroke="#333333" stroke-width="2.5" stroke-linecap="butt"/><path d="M203.69213,155.19533c0,6.59232 -4.12079,11.93646 -9.20403,11.93646c-5.08324,0 -9.20402,-5.34414 -9.20402,-11.93646c0,-6.59232 4.12078,-11.93646 9.20402,-11.93646c5.08324,0 9.20403,5.34413 9.20403,11.93646z" fill="#4a4a4a" stroke="#333333" stroke-width="2.5" stroke-linecap="butt"/><path d="M266.53268,213.30257c0,2.76263 -3.18017,5.00218 -7.1031,5.00218c-3.92294,0 -7.1031,-2.23955 -7.1031,-5.00218c0,-2.76263 3.18017,-5.00218 7.1031,-5.00218c3.92294,0 7.1031,2.23955 7.1031,5.00218z" fill="#4a4a4a" stroke="#333333" stroke-width="2.5" stroke-linecap="butt"/><path d="M223.76564,161.47993c0.6231,-1.10838 1.36245,-2.30363 2.2287,-3.42858c1.87644,-2.43682 4.34832,-4.54378 7.52392,-4.72334c2.46,-0.1391 5.75087,0.04535 5.75087,3.75c0,1.25973 -0.98424,2.39049 -1.875,3.28125c-1.04897,1.04897 -2.40451,0.04582 -3.51041,0.57142c-1.55218,0.7377 -1.22501,3.79363 -2.89025,4.90379c-0.87495,0.5833 -4.9356,-0.34312 -5.38109,-1.12273z" fill="#4a4a4a" stroke="none" stroke-width="0.5" stroke-linecap="butt"/><path d="M238.57737,175.98166c-0.68507,-0.65257 -0.71829,-10.18275 -0.53695,-10.77429c0.89178,-2.90901 6.51808,-4.43852 8.23605,-1.00258c0.2322,0.46441 0.36669,5.99572 0.05344,7.24872c0.93524,0.68192 1.54298,1.78603 1.54298,3.03209c0,2.07107 -1.67893,3.75 -3.75,3.75c-0.05278,0 -0.10531,-0.00109 -0.15757,-0.00325c-1.58418,0.40735 -3.34828,-0.30777 -5.38795,-2.2507z" fill="#4a4a4a" stroke="none" stroke-width="0.5" stroke-linecap="butt"/><path d="M199.02901,153.15611c-1.63622,-2.86339 -3.34781,-2.98184 -2.00651,-7.35721c0.54804,-1.78772 6.26465,-3.74553 7.95747,-2.2066c1.71147,1.55588 3.64118,5.07374 3.67579,7.48309c0.00712,0.49587 0.10106,2.57527 -0.10398,3.39542c-0.06679,0.26717 -1.55336,2.31273 -0.82197,2.50496c1.04055,0.27349 2.21444,-2.22094 2.70419,-2.57874c3.77655,-2.75906 7.80353,3.19419 6.15669,6.55686c-1.49987,3.06256 -13.5547,4.99579 -16.10054,2.8544c-1.96902,-1.6562 0.15053,-3.91001 -0.19625,-5.55354c-0.43251,-2.04983 -1.8757,-2.43175 -1.21227,-5.08548z" fill="#4a4a4a" stroke="none" stroke-width="0.5" stroke-linecap="butt"/><path d="M246.97463,136.61858c3.64882,2.75385 1.6745,10.51649 -3.452,9.60305c-0.11579,-0.02063 -3.52045,-1.66437 -5.93009,-2.91691c-0.60103,-0.15299 -1.14407,-0.45115 -1.5896,-0.85494c-0.43447,-0.24709 -0.71691,-0.42826 -0.76375,-0.5042c-0.46542,-0.7546 -0.83812,-3.67125 0.04944,-4.17843l1.44544,-0.82596l0.03297,-0.14836l0.04673,-0.09346l0.02612,-0.10449l0.03657,-0.0209l0.09066,-0.18133l1.25779,-1.46742l0.14785,-0.00821l0.07347,-0.12857l1.03425,-0.25856c0.21346,-0.07483 0.43574,-0.13089 0.66486,-0.16622l0.17589,-0.04397h0.40017c0.63917,0 1.241,0.15991 1.76765,0.44191l0.10735,0.02684l0.02825,0.04944c0.39997,0.23606 0.7523,0.54424 1.03909,0.90667c1.09993,-0.09282 2.19539,0.03213 3.31088,0.87401z" fill="#4a4a4a" stroke="none" stroke-width="0.5" stroke-linecap="butt"/></g></g></svg>