<svg version="1.1" xmlns="http://www.w3.org/2000/svg" xmlns:xlink="http://www.w3.org/1999/xlink" width="58" height="62.9012" viewBox="0,0,58,62.9012"><g transform="translate(-211,-142.0988)"><g data-paper-data="{&quot;isPaintingLayer&quot;:true}" fill-rule="nonzero" stroke-linecap="butt" stroke-linejoin="miter" stroke-miterlimit="10" stroke-dasharray="" stroke-dashoffset="0" style="mix-blend-mode: normal"><path d="M213,203v-46h54v46z" fill="#2e2e2e" stroke="#161616" stroke-width="4"/><path d="M229.15273,184.69315l26.94988,-15.55552c0,0 0.51652,-0.00835 1.05678,0.21139c0.47174,0.19187 0.96159,0.59159 1.14147,0.88062c0.16546,0.26587 0.40314,0.81718 0.38001,1.33602c-0.02729,0.61193 -0.33359,1.17869 -0.33359,1.17869l-26.61655,15.38885z" fill="#ffffff" stroke="none" stroke-width="0"/><path d="M235.64536,184.08103c1.07846,2.79038 -0.25202,6.4406 -3.38584,7.6518c-1.33671,0.51663 -4.47135,2.40811 -6.72613,1.96614c-3.03138,-0.59419 -2.98532,-2.35939 -3.60377,-3.95955c-1.07846,-2.79038 3.4108,-6.58935 6.54461,-7.80055c3.13382,-1.2112 6.09266,-0.64822 7.17113,2.14216z" fill="#ffffff" stroke="none" stroke-width="0"/><text transform="translate(220.60218,169.69136) scale(0.26067,0.26067)" font-size="40" xml:space="preserve" fill="#ffffff" fill-rule="nonzero" stroke="none" stroke-width="1" stroke-linecap="butt" stroke-linejoin="miter" stroke-miterlimit="10" stroke-dasharray="" stroke-dashoffset="0" font-family="Sans Serif" font-weight="normal" text-anchor="start" style="mix-blend-mode: normal"><tspan x="0" dy="0">BAKE</tspan></text><text transform="translate(237.60218,197.55197) scale(0.20331,0.20331)" font-size="40" xml:space="preserve" fill="#ffffff" fill-rule="nonzero" stroke="none" stroke-width="1" stroke-linecap="butt" stroke-linejoin="miter" stroke-miterlimit="10" stroke-dasharray="" stroke-dashoffset="0" font-family="Sans Serif" font-weight="normal" text-anchor="start" style="mix-blend-mode: normal"><tspan x="0" dy="0">-100 C.</tspan></text><text transform="translate(213.98679,151.9813) scale(0.2246,0.2246)" font-size="40" xml:space="preserve" fill="#ff4444" fill-rule="nonzero" stroke="#ad0000" stroke-width="2" stroke-linecap="butt" stroke-linejoin="miter" stroke-miterlimit="10" stroke-dasharray="" stroke-dashoffset="0" font-family="Sans Serif" font-weight="normal" text-anchor="start" style="mix-blend-mode: normal"><tspan x="0" dy="0">Not enough!</tspan></text></g></g></svg>