<svg version="1.1" xmlns="http://www.w3.org/2000/svg" xmlns:xlink="http://www.w3.org/1999/xlink" width="865.54038" height="572.5" viewBox="0,0,865.54038,572.5"><defs><linearGradient x1="-3.25269" y1="52.13334" x2="111.06178" y2="24.95889" gradientUnits="userSpaceOnUse" id="color-1"><stop offset="0" stop-color="#742e2e"/><stop offset="1" stop-color="#742e2e" stop-opacity="0"/></linearGradient><linearGradient x1="488.49417" y1="279.53305" x2="372.13253" y2="263.21689" gradientUnits="userSpaceOnUse" id="color-2"><stop offset="0" stop-color="#742e2e"/><stop offset="1" stop-color="#742e2e" stop-opacity="0"/></linearGradient><linearGradient x1="428.72496" y1="-54.12744" x2="356.93789" y2="38.89334" gradientUnits="userSpaceOnUse" id="color-3"><stop offset="0" stop-color="#742e2e"/><stop offset="1" stop-color="#742e2e" stop-opacity="0"/></linearGradient><linearGradient x1="48.60598" y1="393.45965" x2="117.30584" y2="298.1361" gradientUnits="userSpaceOnUse" id="color-4"><stop offset="0" stop-color="#742e2e"/><stop offset="1" stop-color="#742e2e" stop-opacity="0"/></linearGradient><linearGradient x1="142.87343" y1="193.75496" x2="257.1879" y2="166.58051" gradientUnits="userSpaceOnUse" id="color-5"><stop offset="0" stop-color="#742e2e"/><stop offset="1" stop-color="#742e2e" stop-opacity="0"/></linearGradient><radialGradient cx="240" cy="180" r="416.5" gradientUnits="userSpaceOnUse" id="color-6"><stop offset="0" stop-color="#000000" stop-opacity="0"/><stop offset="1" stop-color="#000000"/></radialGradient></defs><g transform="translate(179.75,106.25)"><g data-paper-data="{&quot;isPaintingLayer&quot;:true}" fill-rule="nonzero" stroke-linejoin="miter" stroke-miterlimit="10" stroke-dasharray="" stroke-dashoffset="0" style="mix-blend-mode: normal"><path d="M-158.45962,388.05345v-392h841v392z" fill="#303030" stroke="#2a2a2a" stroke-width="6.5" stroke-linecap="butt"/><path d="M374.38438,58.86868c0,57.63332 -48.73777,104.35435 -108.85886,104.35435c-60.12109,0 -108.85886,-46.72104 -108.85886,-104.35435c0,-57.63332 48.73777,-104.35435 108.85886,-104.35435c60.12109,0 108.85886,46.72104 108.85886,104.35435z" fill="#560000" stroke="none" stroke-width="0" stroke-linecap="butt"/><path d="M356.36637,187.24706c0,18.24364 -16.13388,33.03303 -36.03604,33.03303c-19.90215,0 -36.03604,-14.78939 -36.03604,-33.03303c0,-18.24364 16.13388,-33.03303 36.03604,-33.03303c19.90215,0 36.03604,14.78939 36.03604,33.03303z" fill="#560000" stroke="none" stroke-width="0" stroke-linecap="butt"/><path d="M596.60661,198.50832c0,78.36473 -34.16938,180.93093 -113.36336,180.93093c-2.21165,0 -34.54883,-5.98166 -36.93413,-5.94238c-36.02971,0.59345 -89.88973,-28.43598 -101.80875,-53.4027c-15.54701,-32.56623 20.87501,-102.49072 20.87501,-145.60988c0,-53.16373 -33.51557,-123.52256 10.21585,-147.82575c20.72983,-11.52035 68.67083,-37.60969 94.13851,-37.60969c79.19398,0 126.87688,131.09473 126.87688,209.45946z" fill="#560000" stroke="none" stroke-width="0" stroke-linecap="butt"/><g stroke-linecap="butt"><path d="M88.58095,-13.43125c21.81272,-3.72312 61.68041,-2.62469 61.68041,-2.62469c0,0 9.30843,-5.96798 12.53541,-2.03537c4.32835,5.27483 3.21492,22.12627 6.49968,35.58096c5.38551,22.05951 -2.17228,28.74322 -2.17228,28.74322c0,0 -39.37309,24.2637 -66.20813,30.64283c-26.67288,6.34058 -98.53315,4.92137 -98.53315,4.92137l-9.89302,-56.75058c0,0 66.59053,-33.44242 96.09107,-38.47774z" data-paper-data="{&quot;index&quot;:null}" fill="#9a713e" stroke="#74552e" stroke-width="3.5"/><path d="M48.16564,-3.69165c8.42166,-3.42991 36.03514,-12.14237 62.81653,-15.32393c19.28441,-2.29094 41.0921,0.30554 41.0921,0.30554c0,0 19.1286,54.46095 14.07813,64.5429c-8.62651,17.2206 -61.13076,29.38552 -61.13076,29.38552c0,0 -21.79561,4.87469 -36.47377,6.02984c-18.77632,1.47767 -66.94771,2.1093 -66.94771,2.1093l-11.07328,-59.55361c0,0 40.30668,-20.43669 57.63877,-27.49557z" data-paper-data="{&quot;index&quot;:null}" fill="url(#color-1)" stroke="none" stroke-width="0"/></g><g stroke-linecap="butt"><path d="M379.09112,307.15741c-21.67095,-4.47509 -58.40171,-20.01504 -58.40171,-20.01504c0,0 -10.8425,2.16882 -12.41598,-2.66885c-2.11049,-6.48878 5.06257,-21.77792 6.90254,-35.50501c3.01669,-22.50612 12.48935,-25.97898 12.48935,-25.97898c0,0 45.50517,-8.26115 72.82078,-4.43096c27.15054,3.80704 93.56076,31.29513 93.56076,31.29513l-11.4506,56.45692c0,0 -74.19634,6.89912 -103.50514,0.8468z" data-paper-data="{&quot;index&quot;:null}" fill="#9a713e" stroke="#74552e" stroke-width="3.5"/><path d="M420.27834,312.80277c-9.09243,0.12788 -37.98267,-1.8126 -64.08398,-8.6013c-18.79471,-4.88832 -38.15983,-15.24733 -38.15983,-15.24733c0,0 2.01533,-57.68741 10.3902,-65.23821c14.30479,-12.89724 67.63416,-5.10878 67.63416,-5.10878c0,0 22.07433,3.39634 36.16544,7.66522c18.02537,5.46075 63.11974,22.41301 63.11974,22.41301l-11.37202,59.49729c0,0 -44.98115,4.35692 -63.69371,4.62011z" data-paper-data="{&quot;index&quot;:null}" fill="url(#color-2)" stroke="none" stroke-width="0"/></g><g stroke-linecap="butt"><path d="M398.56013,54.60257c-14.61747,16.61283 -46.30463,40.83189 -46.30463,40.83189c0,0 -3.48382,10.49413 -8.46598,9.46607c-6.68259,-1.37895 -16.41491,-15.18086 -27.43049,-23.57581c-18.06051,-13.76385 -16.38791,-23.71345 -16.38791,-23.71345c0,0 15.3522,-43.62657 32.20404,-65.46296c16.75001,-21.70444 73.51252,-65.79446 73.51252,-65.79446l43.38247,37.90068c0,0 -30.74066,67.88008 -50.51001,90.34804z" data-paper-data="{&quot;index&quot;:null}" fill="#9a713e" stroke="#74552e" stroke-width="3.5"/><path d="M423.85694,21.61275c-4.39058,7.96313 -20.3802,32.10321 -39.2013,51.41982c-13.55246,13.90926 -32.14046,25.60556 -32.14046,25.60556c0,0 -49.12299,-30.31221 -51.53696,-41.32701c-4.12321,-18.81395 29.04721,-61.29224 29.04721,-61.29224c0,0 13.87993,-17.49739 24.56544,-27.62669c13.66891,-12.95742 50.72398,-43.74383 50.72398,-43.74383l46.06295,39.33771c0,0 -18.48488,41.23828 -27.52086,57.6267z" data-paper-data="{&quot;index&quot;:null}" fill="url(#color-3)" stroke="none" stroke-width="0"/></g><g stroke-linecap="butt"><path d="M75.19111,283.79943c14.06515,-17.08297 44.94154,-42.32753 44.94154,-42.32753c0,0 3.13801,-10.60267 8.15119,-9.73845c6.72419,1.15919 16.90362,14.63472 28.18842,22.66414c18.5019,13.16455 17.15628,23.16362 17.15628,23.16362c0,0 -13.91414,44.10628 -30.04127,66.48324c-16.02967,22.24174 -71.31669,68.1684 -71.31669,68.1684l-44.60131,-36.45851c0,0 28.49946,-68.85111 47.52183,-91.95491z" data-paper-data="{&quot;index&quot;:null}" fill="#9a713e" stroke="#74552e" stroke-width="3.5"/><path d="M50.98909,317.6006c4.12724,-8.10275 19.3171,-32.7539 37.49502,-52.67697c13.08932,-14.34596 31.28401,-26.64517 31.28401,-26.64517c0,0 50.09005,28.68598 52.86371,39.61575c4.7376,18.66871 -27.02283,62.2113 -27.02283,62.2113c0,0 -13.29902,17.94289 -23.64681,28.41696c-13.2369,13.39844 -49.26308,45.38274 -49.26308,45.38274l-47.32745,-37.80692c0,0 17.12341,-41.82195 25.61743,-58.4977z" data-paper-data="{&quot;index&quot;:null}" fill="url(#color-4)" stroke="none" stroke-width="0"/></g><g stroke-linecap="butt"><path d="M234.70707,128.19037c21.81272,-3.72312 61.68041,-2.62469 61.68041,-2.62469c0,0 9.30843,-5.96798 12.53541,-2.03537c4.32835,5.27483 3.21492,22.12627 6.49968,35.58096c5.38551,22.05951 -2.17228,28.74322 -2.17228,28.74322c0,0 -39.37309,24.2637 -66.20813,30.64283c-26.67288,6.34058 -98.53315,4.92137 -98.53315,4.92137l-9.89302,-56.75058c0,0 66.59053,-33.44242 96.09107,-38.47774z" data-paper-data="{&quot;index&quot;:null}" fill="#9a713e" stroke="#74552e" stroke-width="3.5"/><path d="M194.29176,137.92997c8.42166,-3.42991 36.03514,-12.14237 62.81653,-15.32393c19.28441,-2.29094 41.0921,0.30554 41.0921,0.30554c0,0 19.1286,54.46095 14.07813,64.5429c-8.62651,17.2206 -61.13076,29.38552 -61.13076,29.38552c0,0 -21.79561,4.87469 -36.47377,6.02984c-18.77632,1.47767 -66.94771,2.1093 -66.94771,2.1093l-11.07328,-59.55361c0,0 40.30668,-20.43669 57.63877,-27.49557z" data-paper-data="{&quot;index&quot;:null}" fill="url(#color-5)" stroke="none" stroke-width="0"/></g><path d="M113.12312,181.99181c0,39.38968 -30.92328,71.32132 -69.06907,71.32132c-38.14579,0 -69.06907,-31.93164 -69.06907,-71.32132c0,-39.38968 30.92328,-71.32132 69.06907,-71.32132c38.14579,0 69.06907,31.93164 69.06907,71.32132z" fill="#560000" stroke="none" stroke-width="NaN" stroke-linecap="butt"/><path d="M138.64865,112.17199c0,9.12182 -7.73082,16.51652 -17.26727,16.51652c-9.53645,0 -17.26727,-7.3947 -17.26727,-16.51652c0,-9.12182 7.73082,-16.51652 17.26727,-16.51652c9.53645,0 17.26727,7.3947 17.26727,16.51652z" fill="#560000" stroke="none" stroke-width="0" stroke-linecap="butt"/><g data-paper-data="{&quot;index&quot;:null}" fill="#5c4c3f" stroke="#5c4c3f" stroke-width="2"><path d="M480.92152,293.00325c-2.26297,7.87184 -6.64361,16.32775 -7.29194,16.50154c-0.35725,0.09575 -8.69254,-3.79154 -8.69254,-3.79154c0,0 8.0889,-14.20921 8.52269,-19.33179c0.9643,-11.38739 4.02066,-23.06134 4.02066,-23.06134l-14.18154,-57.45961c0,0 -0.01385,-3.6573 1.3046,-4.01071c1.88813,-0.50611 7.6816,1.11385 7.6816,1.11385l15.44216,57.60984c0,0 -3.04284,19.34049 -6.8057,32.42977z" stroke-linecap="butt"/><path d="M459.56613,310.57863c-0.40045,-0.89339 0.01874,-2.05399 0.23563,-3.11523c0.10021,-0.4903 -1.1509,-0.15792 -1.9254,-0.41871c-0.62643,-0.21094 -0.82579,-1.00962 -0.65036,-1.37911c0.67737,-1.42658 5.08578,-3.47615 6.23061,-4.23965c3.22249,-2.14915 7.85523,-0.86194 10.34753,2.87507c2.49229,3.737 1.90035,8.50868 -1.32214,10.65783c-2.4394,1.62689 -6.16466,1.77877 -8.68006,-0.10473c-0.80748,-0.60462 -0.91744,-1.77889 -2.09235,-2.53441c-0.72805,-0.46816 -1.83008,-1.0419 -2.14346,-1.74102z" stroke-linecap="butt"/><path d="M465.87011,314.24655l4.06585,-3.04237" stroke-linecap="round"/><path d="M466.06844,309.06797l-2.63857,2.90387" stroke-linecap="round"/><path d="M460.90393,308.01162l4.21023,-2.95904" stroke-linecap="round"/></g><path d="M19.38019,331.44952c0,0 9.09711,-13.74418 18.53067,-26.62236c5.72918,-7.82116 12.00315,-14.70686 15.22785,-19.7738c4.244,-6.66854 8.34825,-16.7634 12.09923,-24.12982c4.62441,-9.08169 8.47055,-14.83946 8.47055,-14.83946l10.47429,6.66606c0,0 -1.15325,5.15252 -5.51386,13.3811c-4.77521,9.01096 -12.99831,21.48789 -18.11515,29.52793c-2.88787,4.53769 -5.78616,12.6592 -10.7994,19.56004c-8.73853,12.02877 -19.8999,22.89638 -19.8999,22.89638c0,0 11.22612,14.8708 9.33132,13.66491c-0.22363,-0.14233 0.05097,1.62215 -2.36784,1.85136c-0.13971,0.01324 -1.47571,-1.02619 -2.48134,-0.96772c-0.87915,0.05112 -1.2879,1.29682 -1.69901,1.15529c-1.10112,-0.37908 0.35551,-0.8671 -0.61475,-0.8289c-1.14075,0.04491 -1.46449,1.08893 -2.21811,0.93094c-1.30586,-0.27378 -0.37582,-1.52606 -1.02757,-1.45008c-0.62209,0.07254 -0.15138,0.86404 -0.50832,1.07751c-0.76552,0.45779 -2.03898,0.35636 -2.85015,-0.42457c-0.24826,-0.239 -1.92339,-4.56117 -2.09149,-4.85095c-1.92393,-3.31634 -7.25911,-7.20146 -7.68358,-10.63514c-0.44819,-3.62564 3.73653,-6.1887 3.73653,-6.1887z" fill="#6b5849" stroke="#5c4c3f" stroke-width="2" stroke-linecap="butt"/><g data-paper-data="{&quot;index&quot;:null}" fill="#6b5849" stroke="#5c4c3f" stroke-width="2"><path d="M120.37041,139.71141c0,0 3.04284,-19.34049 6.8057,-32.42977c2.26298,-7.87184 6.64362,-16.32776 7.29194,-16.50154c0.35725,-0.09575 8.69254,3.79154 8.69254,3.79154c0,0 -8.08891,14.20922 -8.5227,19.33179c-0.96429,11.3874 -4.02066,23.06136 -4.02066,23.06136l14.18154,57.45961c0,0 0.01385,3.6573 -1.3046,4.01071c-1.88813,0.5061 -7.6816,-1.11385 -7.6816,-1.11385l-15.44214,-57.60984z" stroke-linecap="butt"/><path d="M146.38804,87.96528c0.72805,0.46816 1.83008,1.04189 2.14346,1.74102c0.40045,0.8934 -0.01874,2.05399 -0.23563,3.11523c-0.10021,0.4903 1.1509,0.15791 1.9254,0.4187c0.62643,0.21092 0.8258,1.00961 0.65036,1.37911c-0.67736,1.42658 -5.08578,3.47614 -6.23061,4.23965c-3.22249,2.14915 -7.85523,0.86194 -10.34753,-2.87507c-2.49229,-3.737 -1.90035,-8.50868 1.32214,-10.65783c2.4394,-1.6269 6.16466,-1.77877 8.68008,0.10472c0.80749,0.60462 0.91744,1.77889 2.09235,2.53441z" stroke-linecap="butt"/><path d="M138.16168,89.08072l4.06585,-3.04238" stroke-linecap="round"/><path d="M142.02919,91.21693l2.63857,-2.90387" stroke-linecap="round"/><path d="M147.1937,92.27327l-4.21022,2.95905" stroke-linecap="round"/></g><path d="M333.33858,0.43489c0,0 10.71592,12.52313 20.50672,25.13186c5.94614,7.65751 10.84314,15.58184 14.82913,20.07455c5.24592,5.91281 13.8247,12.6326 19.87708,18.2631c7.46169,6.94157 11.94118,12.22162 11.94118,12.22162l-9.28726,8.23977c0,0 -4.63739,-2.52449 -11.35128,-8.97802c-7.35225,-7.06714 -17.08981,-18.40174 -23.41464,-25.53061c-3.56965,-4.02343 -10.58234,-9.04151 -15.84028,-15.75778c-9.16504,-11.70706 -16.54794,-25.42472 -16.54794,-25.42472c0,0 -17.38283,6.70848 -15.70277,5.21791c0.19829,-0.17592 -1.57373,-0.39666 -1.12957,-2.78537c0.02565,-0.13797 1.39214,-1.13698 1.6122,-2.11998c0.19239,-0.85936 -0.89308,-1.59463 -0.64404,-1.95104c0.66701,-0.9546 0.73606,0.58006 0.9659,-0.36335c0.27023,-1.10919 -0.64467,-1.70731 -0.2857,-2.38852c0.62201,-1.18039 1.57059,0.05792 1.67659,-0.58963c0.10117,-0.61808 -0.7892,-0.38294 -0.89638,-0.7848c-0.22985,-0.86184 0.21755,-2.05843 1.19129,-2.62383c0.29801,-0.17305 4.91408,-0.59622 5.2389,-0.67825c3.7173,-0.93876 8.91872,-5.00122 12.33688,-4.46597c3.60926,0.56517 4.92397,5.29304 4.92397,5.29304z" data-paper-data="{&quot;index&quot;:null}" fill="#6b5849" stroke="#5c4c3f" stroke-width="2" stroke-linecap="butt"/><path d="M-176.5,463v-566h833v566z" fill="url(#color-6)" stroke="#2a2a2a" stroke-width="6.5" stroke-linecap="butt"/></g></g></svg>