<svg version="1.1" xmlns="http://www.w3.org/2000/svg" xmlns:xlink="http://www.w3.org/1999/xlink" width="136.9399" height="232.80256" viewBox="0,0,136.9399,232.80256"><defs><linearGradient x1="302.20086" y1="152.78663" x2="272.04776" y2="220.3965" gradientUnits="userSpaceOnUse" id="color-1"><stop offset="0" stop-color="#b87e5c"/><stop offset="1" stop-color="#b38d76"/></linearGradient><linearGradient x1="335.32804" y1="152.44304" x2="377.07374" y2="213.57895" gradientUnits="userSpaceOnUse" id="color-2"><stop offset="0" stop-color="#b87e5c"/><stop offset="1" stop-color="#b38d76"/></linearGradient><linearGradient x1="304.02008" y1="208.10806" x2="304.02008" y2="282.13713" gradientUnits="userSpaceOnUse" id="color-3"><stop offset="0" stop-color="#b87e5c"/><stop offset="1" stop-color="#b38d76"/></linearGradient><linearGradient x1="319.76812" y1="113.80186" x2="319.76812" y2="138.75045" gradientUnits="userSpaceOnUse" id="color-4"><stop offset="0" stop-color="#97674b"/><stop offset="1" stop-color="#d8bdad"/></linearGradient><linearGradient x1="321.43105" y1="209.4025" x2="336.93022" y2="281.79089" gradientUnits="userSpaceOnUse" id="color-5"><stop offset="0" stop-color="#b87e5c"/><stop offset="1" stop-color="#b38d76"/></linearGradient></defs><g transform="translate(-255.47034,-54.35517)"><g stroke-miterlimit="10"><g stroke="#7e563f" stroke-width="1.5" stroke-linecap="butt"><path d="M272.44473,220.12432c0,0 -12.03807,-3.90406 -11.16001,-5.87286c0.74919,-1.67985 14.34467,-1.26782 15.24144,-3.27858c1.48669,-3.33347 6.79057,-10.12443 9.97152,-18.15688c3.02539,-7.63963 3.88477,-16.42639 7.0459,-23.51434c4.48572,-10.05795 8.88714,-16.4125 8.88714,-16.4125c0,0 3.24967,0.10583 6.67946,1.63547c3.39637,1.51474 4.354,3.2853 4.354,3.2853c0,0 1.43409,-1.70935 -3.43063,19.74169c-2.59208,5.03045 -8.02229,7.08488 -13.4561,17.7426c-6.90251,13.53841 -13.09926,29.75088 -13.09926,29.75088z" fill="url(#color-1)"/><path d="M256.4608,214.56309l0.16659,-0.37353c0,0 3.18761,-3.01063 7.23667,-3.98126c2.76168,-0.66201 8.73348,-1.31444 10.54206,-1.0318c5.40474,0.84464 14.69606,4.49425 14.69606,4.49425l-6.20704,12.6817z" fill="#9a8172"/></g><g stroke="#7e563f" stroke-width="1.5" stroke-linecap="butt"><path d="M366.65757,220.19467c0,0 -8.99322,-14.84473 -18.20317,-26.93232c-7.25027,-9.51561 -12.96013,-10.56696 -16.40913,-15.05346c-8.61842,-20.23699 -6.90205,-18.8113 -6.90205,-18.8113c0,0 0.62595,-1.91316 3.6971,-4.01025c3.10137,-2.11773 6.27986,-2.80236 6.27986,-2.80236c0,0 5.46579,5.46607 11.67607,14.56094c4.37646,6.40925 6.79165,14.90115 11.1331,21.87745c4.56467,7.33501 10.99636,13.06927 13.05462,16.08354c1.24154,1.81823 14.54473,-1.01582 15.58195,0.50317c1.21564,1.78028 -9.93139,7.77199 -9.93139,7.77199z" fill="url(#color-2)"/><path d="M367.4648,221.37684l-8.37263,-11.36892c0,0 8.48991,-5.25068 13.65684,-7.04721c1.729,-0.60118 7.7213,-1.02603 10.55681,-0.868c4.15733,0.23171 7.83147,2.62448 7.83147,2.62448l0.23064,0.33777z" fill="#9a8172"/></g><path d="M304.27177,281.72686c0,0 -12.58441,1.33775 -12.58441,-0.81799c0,-1.83934 12.58441,-7.00067 12.58441,-9.20235c0,-3.64997 2.07792,-12.01242 1.71131,-20.644c-0.34868,-8.20947 -3.14279,-16.58434 -3.14279,-24.34526c0,-11.0129 1.43148,-18.6092 1.43148,-18.6092h12.08103c0,0 6.95289,-1.94076 5.72591,19.83618c-0.31834,5.65005 -5.25888,9.32914 -5.88047,21.27597c-0.7896,15.17595 0.15456,32.50664 0.15456,32.50664z" fill="url(#color-3)" stroke="#7e563f" stroke-width="1.5" stroke-linecap="butt"/><path d="M287.40866,283.15834v-0.409c0,0 1.68493,-4.04793 4.98755,-6.58364c2.25255,-1.72948 7.44079,-4.75774 9.20767,-5.23627c5.28012,-1.43003 15.25231,-1.88137 15.25231,-1.88137l-0.50338,14.11027z" fill="#9a8172" stroke="#7e563f" stroke-width="1.5" stroke-linecap="butt"/><path d="M330.3253,145.65371c0.76941,-0.40198 1.8828,-0.59801 3.12872,0.39873c2.3426,1.87409 0.46852,4.21669 0.46852,4.21669l-4.31444,1.91763c-1.16582,-0.58309 -2.61792,-0.78722 -3.49747,-1.74926c-1.2963,-1.41787 -2.44279,-7.21287 -2.07581,-8.73003c0.26945,-1.11395 1.76135,-1.52251 2.36165,-2.49879c1.03769,-1.68762 0.33093,-3.95876 1.25101,-5.65336c0.02932,-0.054 0.05899,-0.1078 0.08898,-0.16138l-0.03976,-0.01255l1.20639,-3.82024c0.3627,-1.24893 1.51541,-2.1618 2.88133,-2.1618c0.37829,0 0.74022,0.07002 1.07355,0.1978c0.25065,-0.87979 0.55494,-1.65544 0.79012,-2.1079c0.54282,-1.04432 1.65084,-1.6808 2.41387,-2.57691c0.73582,-0.86416 1.19428,-1.98489 2.07745,-2.69779c0.71536,-0.57743 2.12837,-0.22595 2.55408,-1.04077c0.3641,-0.69688 -1.08533,-1.44074 -0.86349,-2.19506c0.58465,-1.98799 1.34723,-4.07179 2.65564,-5.67517c-0.00014,-1.32249 -0.00025,-4.90662 0.00291,-5.27136l-0.03317,-0.34831c-0.19005,-0.34047 -0.31569,-0.72179 -0.36044,-1.12747l-0.39819,-3.18552c-0.01914,-0.13694 -0.02903,-0.27684 -0.02903,-0.41905c0,-1.65685 1.34314,-3 3,-3c0.07635,0 0.15202,0.00285 0.22694,0.00845l-1.85232,-1.23488c-0.82711,-0.53416 -1.37462,-1.46412 -1.37462,-2.52196c0,-1.06085 0.55063,-1.99309 1.38168,-2.52651c-1.76475,-1.40242 -3.37192,-3.0845 -3.41319,-4.14258c-0.00765,-0.19608 0.04566,-0.35531 0.14484,-0.48679c-1.39738,-2.4727 1.06491,-3.98795 1.06491,-3.98795l2.61806,-1.61111c0.46573,-0.29748 1.01907,-0.46989 1.61269,-0.46989c1.65686,0 3,1.34315 3,3c0,0.68629 -0.23044,1.31876 -0.61818,1.82425l-0.80953,1.07937c0.0043,0.00169 0.00853,0.0035 0.01268,0.00543c1.46303,0.68045 3.04537,1.31802 4.14671,2.49721c1.31793,1.4111 3.60555,3.23671 2.87975,5.02594c-0.33605,0.82842 -1.03983,1.31337 -1.89443,1.65744c1.77215,3.21952 1.27687,8.82581 -1.71479,10.32957c-0.57574,0.28939 -1.19363,0.37338 -1.83391,0.34824c0.20312,1.29997 0.24071,2.79214 0.24071,5.04409v3.68094c0,1.42311 -0.9909,2.61478 -2.32038,2.92269c0.38682,0.91935 0.57396,2.06579 0.02267,3.19047c-0.73674,1.50299 -2.77038,1.90254 -3.98982,3.04915c-1.20488,1.13293 -2.44543,2.29505 -3.27956,3.72315c-1.86138,3.18686 2.03706,10.74148 -5.74792,10.55379c-0.16955,-0.00409 -0.32959,-0.02865 -0.48132,-0.07112c-0.52832,1.74093 -1.13953,3.43318 -1.2429,3.60944c-0.35307,0.60208 -1.47801,0.5306 -1.72827,1.18215c-0.28024,0.72961 0.07393,1.46067 0.60709,2.0229z" fill="#463124" stroke="none" stroke-width="0.5" stroke-linecap="butt"/><path d="M327.67324,195.48244l7.32654,-2.22553c0,0 19.66006,8.53528 25.80956,14.55169c5.49557,5.37663 10.05309,19.74722 10.05309,19.74722c0,0 0.91473,2.23635 1.75282,5.23468c0.86489,3.09422 1.88847,8.22042 1.50054,11.31724c-0.18748,1.49668 -1.8972,-1.40002 -3.09422,-0.87103c-0.54991,0.24302 -0.99985,2.40287 -1.31725,2.96489c-0.49105,0.86951 -1.03619,-0.81086 -1.51233,-1.13807c-0.82044,-0.56384 -1.43298,2.99348 -2.07545,1.00143c-1.0966,-3.40016 -1.98272,-12.79878 -1.98272,-12.79878c0,0 -7.43475,-14.25806 -13.16145,-20.25611c-6.30397,-6.60267 -23.29913,-17.52763 -23.29913,-17.52763z" fill="#463124" stroke="#302219" stroke-width="1.5" stroke-linecap="butt"/><path d="M310.24924,150.50778v-23.19375h18.37757v23.19375z" fill="#b87e5c" stroke="#7e563f" stroke-width="1.5" stroke-linecap="butt"/><path d="M347.2517,101.93643c0,15.89227 -12.4324,32.90192 -27.51627,32.90192c-15.08387,0 -27.10728,-17.00965 -27.10728,-32.90192c0,-15.89227 12.2279,-31.71228 27.31178,-31.71228c15.08387,0 27.31178,15.82001 27.31178,31.71228z" fill="#b87e5c" stroke="#7e563f" stroke-width="1.5" stroke-linecap="butt"/><path d="M333.67389,126.27615c0,6.88936 -6.22582,12.4743 -13.90577,12.4743c-7.67994,0 -13.90578,-5.58493 -13.90578,-12.4743c0,-6.88936 7.11302,-20.20554 14.79296,-20.20554c7.67994,0 13.01858,13.31618 13.01858,20.20555z" fill="url(#color-4)" stroke="#7e563f" stroke-width="1.5" stroke-linecap="butt"/><path d="M330.34797,131.43756c0,3.27527 -6.90869,6.54389 -11.14257,6.54389c-4.23388,0 -9.71109,-3.47312 -9.71109,-6.74839c0,-3.27527 5.47721,-1.63597 9.7111,-1.63597c4.23388,0 11.14257,-1.4348 11.14257,1.84047z" fill="#463124" stroke="#302219" stroke-width="1.5" stroke-linecap="butt"/><path d="M314.17824,133.90461l2.4081,2.02786" fill="none" stroke="#302219" stroke-width="1.5" stroke-linecap="round"/><path d="M322.92343,135.4255l3.0418,-1.64764" fill="none" stroke="#302219" stroke-width="1.5" stroke-linecap="round"/><path d="M300.3144,91.08609l10.26609,-0.25348" fill="none" stroke="#302219" stroke-width="1.5" stroke-linecap="round"/><path d="M329.58321,97.42548l10.39283,-0.38022" fill="none" stroke="#302219" stroke-width="1.5" stroke-linecap="round"/><path d="M313.63845,101.51297c0,4.06417 -3.48978,6.57039 -7.79462,6.57039c-4.30485,0 -7.79462,-2.50622 -7.79462,-6.57039c0,-4.06417 3.48977,-4.73068 7.79462,-4.73068c4.30485,0 7.79462,0.66651 7.79462,4.73068z" fill="#ffffff" stroke="#000000" stroke-width="1" stroke-linecap="butt"/><path d="M310.768,103.53118c0,2.24873 -2.08161,4.07168 -4.64943,4.07168c-2.56781,0 -4.64943,-1.82296 -4.64943,-4.07168c0,-2.24873 2.08161,-4.07168 4.64943,-4.07168c2.56781,0 4.64943,1.82296 4.64943,4.07168z" fill="#000000" stroke="#000000" stroke-width="1" stroke-linecap="butt"/><g stroke-linecap="butt"><path d="M300.86497,83.59777c0,0 -6.60804,0.22082 -9.86495,-2.41229c-2.86291,-2.31457 -8.64734,-12.55432 -8.64734,-12.55432l-1.1205,-5.28969c0,0 10.83483,2.59811 14.35314,4.52296c3.75532,2.05453 7.51414,7.44053 7.51414,7.44053z" fill="#997764" stroke="#4e3527" stroke-width="1.5"/><path d="M288.88003,69.94207c0.20689,-0.21776 0.41379,-0.43554 0.62068,-0.6533c0,0 0.69021,-0.72361 1.41382,-0.0334c0.72361,0.69021 0.0334,1.41382 0.0334,1.41382c-0.04929,0.05145 -0.09859,0.1029 -0.14788,0.15435l0.44219,0.08736l-0.03814,0.19306c0.29142,0.22432 0.57023,0.4936 0.83677,0.78784c0.40336,-0.11051 0.84928,0.04152 1.09492,0.40811c0.18443,0.27525 0.21405,0.60892 0.10917,0.89824l-0.05641,0.16103c0.27846,0.39282 0.53963,0.77698 0.78412,1.11676c0.44915,0.62422 1.64738,-0.26077 2.30269,0.14166c0.32437,0.19919 0.35647,0.68939 0.32271,1.21606c0.26863,0.30978 0.38953,0.63062 0.44219,0.90304l0.05044,-0.02098c0.02095,0.24118 0.06294,0.49739 0.132,0.74661l0.02636,0.01329c0.42808,-0.22289 0.87526,-0.64199 1.15879,-0.34365c0.98949,1.04118 0.77584,1.87711 0.21806,2.5766l0.04722,0.02684l-0.55018,0.96808c-0.07472,0.13814 -0.18317,0.26065 -0.3227,0.35414c-0.45881,0.30743 -1.07997,0.18471 -1.3874,-0.27409c-0.10402,-0.15524 -0.15879,-0.32906 -0.16797,-0.50302l-0.04831,-0.67732c-0.03189,-0.03272 -0.06305,-0.06819 -0.09304,-0.10587c-0.26342,0.00162 -0.50219,-0.05034 -0.68074,-0.23318c-0.10793,-0.11052 -0.15561,-0.27635 -0.16888,-0.46933l-0.4181,0.29856c-0.25093,-0.62367 -0.48341,-1.13333 -0.74223,-1.58577c-1.3148,-0.20121 -1.37839,-0.97225 -1.56508,-1.6578c-0.01784,-0.01549 -0.03533,-0.03121 -0.05247,-0.04718c-0.16525,-0.15393 -0.37256,-0.40461 -0.60138,-0.70225c-0.32286,-0.1597 -0.69669,-0.27312 -0.85897,-0.54408c-0.63214,-0.29348 -1.05837,-0.64683 -1.41777,-1.1043c-0.20527,0.04648 -0.37797,0.04959 -0.44969,-0.11811c-0.07971,-0.18639 -0.06819,-0.37739 -0.00994,-0.57075c-0.01955,-0.03348 -0.03909,-0.06741 -0.05864,-0.10178c-0.1539,0.04712 -0.31489,0.05546 -0.46928,0.02771l-0.79115,0.19493c-0.40276,0.1093 -0.84745,-0.04284 -1.09262,-0.40873c-0.29365,-0.43824 -0.19485,-1.0246 0.21442,-1.3442l1.18554,-0.94601l0.09303,0.11658c0.17013,-0.14355 0.35882,-0.25926 0.57482,-0.33396c0.02886,-0.00998 0.05741,-0.0185 0.08564,-0.0256z" fill="#49392f" stroke="none" stroke-width="0.5"/></g><g stroke-linecap="butt"><path d="M335.67016,80.58728c0,0 -2.4988,-6.07403 -2.19687,-10.34396c0.28287,-4.00044 3.95501,-14.5199 3.95501,-14.5199l3.84416,3.80247c0,0 5.48687,10.40223 5.88619,14.06201c0.45427,4.16346 -3.3041,9.60308 -3.3041,9.60308z" fill="#997764" stroke="#4e3527" stroke-width="1.5"/><path d="M338.91412,65.66755c0.17962,-0.14132 0.37898,-0.2375 0.59172,-0.30302l-0.04778,-0.14129l1.43678,-0.48588c0.49014,-0.17151 1.03683,0.06239 1.24674,0.54635c0.17525,0.40407 0.06283,0.86042 -0.24687,1.14014l-0.59172,0.56017c-0.06013,0.14489 -0.15418,0.27581 -0.27702,0.3798c0.01834,0.03504 0.03632,0.06981 0.05392,0.10437c0.19415,0.05554 0.36106,0.14911 0.47477,0.31693c0.10231,0.151 0.00632,0.29461 -0.14376,0.44216c0.19053,0.54968 0.25735,1.09928 0.16248,1.78974c0.14021,0.28301 0.03351,0.65882 -0.00669,1.01677c0.12668,0.35341 0.22549,0.66334 0.26564,0.88558c0.00417,0.02305 0.00793,0.04627 0.01132,0.06965c0.47578,0.52769 1.09005,0.99804 0.54847,2.2129c0.24069,0.46235 0.54375,0.93346 0.93275,1.48175l-0.47721,0.19032c0.15517,0.1155 0.26889,0.24526 0.30352,0.39581c0.05728,0.24905 -0.0281,0.47801 -0.17187,0.69874c0.01548,0.0456 0.02847,0.09099 0.03875,0.13551l0.54368,0.40683c0.14139,0.10177 0.258,0.24183 0.33236,0.41326c0.21976,0.50668 -0.01283,1.09557 -0.51951,1.31533c-0.15409,0.06683 -0.31578,0.09183 -0.47238,0.08001l-1.11185,-0.06055l0.00295,-0.05423c-0.89002,0.09106 -1.70876,-0.18115 -2.04968,-1.57647c-0.09769,-0.39983 0.49665,-0.54942 0.91559,-0.78904l0.00307,-0.02936c-0.17232,-0.19284 -0.36516,-0.36668 -0.55673,-0.5147l0.04493,-0.0311c-0.2007,-0.19158 -0.40525,-0.46676 -0.52062,-0.86022c-0.46132,-0.25634 -0.85633,-0.54837 -0.84854,-0.92893c0.01575,-0.76885 1.40806,-1.29839 1.12577,-2.01372c-0.15366,-0.38938 -0.33564,-0.81678 -0.51555,-1.26341l-0.16597,-0.0396c-0.30009,-0.06819 -0.56478,-0.27351 -0.69662,-0.57747c-0.17559,-0.40483 -0.0624,-0.86215 0.24864,-1.14174c-0.10343,-0.38331 -0.17923,-0.76344 -0.21038,-1.12987l-0.18303,-0.07229l0.16557,-0.41923c-0.06993,0.01365 -0.13986,0.0273 -0.2098,0.04096c0,0 -0.9819,0.18942 -1.17132,-0.79248c-0.18942,-0.9819 0.79247,-1.17132 0.79247,-1.17132c0.29505,-0.05632 0.59011,-0.11263 0.88516,-0.16894c0.02124,-0.01991 0.04383,-0.03933 0.06783,-0.05821z" fill="#49392f" stroke="none" stroke-width="0.5"/></g><path d="M337.47374,181.11802c0,17.95752 14.72491,30.60997 -20.65416,29.85651c-27.94753,3.29398 -13.70128,-11.89899 -13.70128,-29.85651c0,-17.95752 -4.15767,-31.68016 17.17772,-32.51496c20.32358,-0.79522 17.17772,14.55745 17.17772,32.51496z" fill="#b87e5c" stroke="#7e563f" stroke-width="1.5" stroke-linecap="butt"/><path d="M329.62226,184.46459c0.53728,9.67104 1.85699,17.97516 -10.31212,19.71361c-2.14105,0.30587 -5.48883,0.85227 -6.94587,-0.85358c-1.51829,-1.77757 -4.15304,-7.22052 -4.05253,-9.53132c0.08927,-2.05236 1.42246,-4.6628 1.22698,-6.4677c-0.24388,-2.25177 -1.50694,-4.31115 -1.84047,-6.41558c-0.45758,-2.88714 1.0288,-9.57552 2.14842,-11.31233c0.85478,-1.32597 -0.52443,-5.77389 1.03224,-8.36834c1.0631,-1.77184 2.6293,-2.02272 4.28375,-2.21422c0.51888,-0.22567 1.09159,-0.35081 1.69351,-0.35081c0.15066,0 0.29949,0.00783 0.4461,0.02313c2.78577,-0.68758 4.16794,-4.61031 7.55126,-3.85847c4.48111,0.9958 4.32379,6.6396 5.29388,10.26237c0.68723,2.56642 2.59195,4.70604 3.25147,7.34413c0.44399,1.77598 0.13748,4.85421 -0.94646,6.48011c-0.2427,0.36405 -2.13594,1.59043 -2.14391,1.91437c-0.03044,1.23791 -0.21937,2.4106 -0.84237,3.50084z" fill="#b38d76" stroke="none" stroke-width="0.5" stroke-linecap="butt"/><path d="M324.7655,77.25019l0.09284,-0.01833l0.51205,2.59307c0.13718,0.63812 0.05824,1.28476 -0.19583,1.85233c0.07919,0.26327 0.14175,0.54339 0.18623,0.84139c0.00992,0.06645 -0.11358,0.31399 -0.33729,0.67249c0.78524,2.79005 0.2754,5.55795 -2.8945,7.83924c-2.8222,2.03105 -8.39943,4.00714 -10.02298,-2.23733c-0.08461,-0.32545 -0.00854,-0.7362 0.1865,-1.1951c-0.06102,-0.11718 -0.11502,-0.23973 -0.16126,-0.36735c-0.24822,-0.6851 -0.23152,-1.40163 -0.0024,-2.03746l0.45782,-1.30204l-2.61408,-0.05115c-1.23122,0.0046 -2.38842,-0.75482 -2.83191,-1.97885c-0.47179,-1.30212 0.01345,-2.71785 1.09524,-3.47709c-0.00232,-0.03284 -0.00166,-0.06812 0.0022,-0.10598c0.43014,-4.22653 6.09137,-9.49371 10.79195,-7.79631c0.92845,0.33527 1.42299,0.94741 1.63244,1.6277c1.0732,-0.15583 1.82605,0.28592 2.32063,0.79243c0.72075,0.18993 1.46599,0.69693 1.89471,1.88018c0.37813,1.04363 0.2302,1.84103 -0.10627,2.43152z" fill="#463124" stroke="none" stroke-width="0.5" stroke-linecap="butt"/><g stroke="#7e563f" stroke-width="1.5" stroke-linecap="butt"><path d="M337.09044,281.33701c0,0 -12.02542,3.94285 -12.47676,1.83489c-0.38509,-1.79858 10.83981,-9.48027 10.37885,-11.63315c-0.76418,-3.56907 -0.48312,-12.18123 -2.64877,-20.54476c-2.05973,-7.95452 -6.54534,-15.5588 -8.17021,-23.14772c-2.30573,-10.76883 -2.49638,-18.49647 -2.49638,-18.49647l11.81328,-2.52936c0,0 6.39247,-3.35345 9.75203,18.19775c0.87165,5.59148 -3.18912,10.22342 -1.29568,22.03561c2.40523,15.00493 6.95691,31.75385 6.95691,31.75385z" fill="url(#color-5)"/><path d="M320.90076,286.26733l-0.08563,-0.39993c0,0 0.80009,-4.31099 3.49862,-7.48194c1.84054,-2.16276 6.27977,-6.21015 7.9073,-7.048c4.8637,-2.50381 14.52038,-5.03298 14.52038,-5.03298l2.46198,13.90294z" fill="#9a8172"/></g><g stroke="#373737" stroke-width="1.5" stroke-linecap="butt"><path d="M339.35081,79.98929c0,4.80389 -8.3774,8.69821 -18.71144,8.69821c-10.33405,0 -18.71144,-3.89432 -18.71144,-8.69821c0,-4.80389 8.3774,-8.69821 18.71144,-8.69821c10.33405,0 18.71144,3.89432 18.71144,8.69821z" fill="#505050"/><path d="M308.67631,81.40941v-18.28399l12.0653,5.85798l11.86081,-5.85798v18.28399z" fill="#505050"/><path d="M309.4943,78.21415v-3.01775h22.49463v3.01775z" fill="#fefefe"/></g><g stroke="#3e3e3e" stroke-width="1.5"><path d="M303.01578,117.90231l-0.79851,-8.1408l13.02528,-1.27762l0.79851,8.1408z" fill-opacity="0.60392" fill="#6d6d6d" stroke-linecap="butt"/><path d="M316.07779,112.8363c0,0 3.86086,-1.48175 5.58577,-1.68989c1.79405,-0.21649 4.97928,0.415 4.97928,0.415" fill="none" stroke-linecap="round"/><path d="M327.35525,115.81291l-0.79851,-8.1408l13.02528,-1.27762l0.79851,8.1408z" fill-opacity="0.60392" fill="#6d6d6d" stroke-linecap="butt"/></g><path d="M326.67202,150.95673c0,3.10586 -3.29602,5.62366 -7.36188,5.62366c-4.06585,0 -7.36188,-2.5178 -7.36188,-5.62366c0,-3.10586 3.29602,-5.62366 7.36188,-5.62366c4.06585,0 7.36188,2.5178 7.36188,5.62366z" fill="#616161" stroke="#3e3e3e" stroke-width="1.5" stroke-linecap="butt"/><g stroke="#3e3e3e" stroke-width="1.5"><path d="M298.7891,157.29593v-11.04282l12.88329,3.06745l-0.2045,2.65846z" fill="#616161" stroke-linecap="butt"/><path d="M299.03243,148.92789l4.13221,0.73462" fill="none" stroke-linecap="round"/><path d="M299.67522,151.86635l1.74471,-0.36731" fill="none" stroke-linecap="round"/><path d="M299.67522,153.88654l3.67307,-1.0101" fill="none" stroke-linecap="round"/></g><g stroke="#3e3e3e" stroke-width="1.5"><path d="M327.77676,152.38768l-0.2045,-2.65846l12.88329,-3.06745v11.04282z" fill="#616161" stroke-linecap="butt"/><path d="M340.21223,149.33655l-4.13221,0.73461" fill="none" stroke-linecap="round"/><path d="M337.82473,151.9077l1.74471,0.3673" fill="none" stroke-linecap="round"/><path d="M335.89636,153.2851l3.67307,1.0101" fill="none" stroke-linecap="round"/></g><path d="M328.51652,103.22333c0,0 3.7805,-2.64976 5.76977,-3.05786c1.80913,-0.37114 5.67681,0.70959 5.67681,0.70959" fill="none" stroke="#000000" stroke-width="1" stroke-linecap="round"/></g></g></svg>