<svg version="1.1" xmlns="http://www.w3.org/2000/svg" xmlns:xlink="http://www.w3.org/1999/xlink" width="58" height="50" viewBox="0,0,58,50"><g transform="translate(-211,-155)"><g data-paper-data="{&quot;isPaintingLayer&quot;:true}" fill-rule="nonzero" stroke-linecap="butt" stroke-linejoin="miter" stroke-miterlimit="10" stroke-dasharray="" stroke-dashoffset="0" style="mix-blend-mode: normal"><path d="M213,203v-46h54v46z" fill="#2e2e2e" stroke="#161616" stroke-width="4"/><g fill="#ffffff" stroke="#ffffff" stroke-width="1" font-family="&quot;Helvetica Neue&quot;, Helvetica, Arial, sans-serif" font-weight="400" font-size="16" text-anchor="start"><g data-paper-data="{&quot;index&quot;:null}"/><g/><g/><g data-paper-data="{&quot;index&quot;:null}"/></g><path d="M240.30922,181.65679l0.76031,18.1686l-2.35174,-0.10135l-0.76031,-18.1686z" data-paper-data="{&quot;index&quot;:null}" fill="#ffffff" stroke="#ffffff" stroke-width="3"/><path d="M237.68231,182.04808c-4.15975,-0.94747 -7.47481,-5.48088 -7.40439,-10.12567c0.04877,-3.21722 1.709,-5.64401 4.10725,-6.51699c1.06417,-0.38737 0.41552,7.05072 1.69401,7.34192c0.41028,0.09345 2.23043,6.53586 2.93854,5.4141c1.22195,-1.93574 1.4425,-11.90618 2.04195,-11.45949c2.57513,1.91888 4.33352,5.25544 4.28203,8.65154c-0.07042,4.64478 -3.49965,7.64205 -7.65941,6.69458z" fill="#ffffff" stroke="#ffffff" stroke-width="1"/></g></g></svg>