<svg version="1.1" xmlns="http://www.w3.org/2000/svg" xmlns:xlink="http://www.w3.org/1999/xlink" width="104.66667" height="136.74794" viewBox="0,0,104.66667,136.74794"><g transform="translate(-189.58332,-132.2746)"><g data-paper-data="{&quot;isPaintingLayer&quot;:true}" fill-rule="nonzero" stroke-linejoin="miter" stroke-miterlimit="10" stroke-dasharray="" stroke-dashoffset="0" style="mix-blend-mode: normal"><g data-paper-data="{&quot;index&quot;:null}" fill="#ffaa2b" stroke="#c08021" stroke-width="2" stroke-linecap="butt"><path d="M278.75678,188.35445c-4.00506,-12.25237 -16.99409,-17.71903 -14.09011,-17.71903c1.87831,0 10.11098,2.19481 16.98679,8.17817c6.43375,5.59868 11.59653,14.7011 11.59653,23.15517c0,8.16146 -3.76622,17.00772 -9.93086,22.70005c-7.04543,6.50564 -16.71332,9.29995 -18.65247,9.29995c-2.75322,0 9.11637,-6.29854 13.42322,-18.16429c1.38074,-3.80406 3.99345,-10.92335 3.99345,-15.16905c0,-3.52054 -2.31714,-9.19295 -3.32655,-12.28097z"/><path d="M271.00001,219.13542c5.47683,0 9.91667,4.7036 9.91667,10.50578c0,5.80218 -4.43985,10.50578 -9.91667,10.50578c-5.47682,0 -9.91666,-4.7036 -9.91666,-10.50578c0,-5.80218 4.43984,-10.50577 9.91666,-10.50577z"/></g><g fill="#ffaa2b" stroke="#c08021" stroke-width="2" stroke-linecap="butt"><path d="M201.75001,197.63542c0,4.24569 2.61271,11.36499 3.99344,15.16905c4.30684,11.86575 16.17644,18.16429 13.42322,18.16429c-1.93915,0 -11.60703,-2.79431 -18.65247,-9.29995c-6.16464,-5.69233 -9.93087,-14.53859 -9.93087,-22.70005c0,-8.45407 5.16278,-17.55649 11.59653,-23.15517c6.87581,-5.98336 15.10848,-8.17816 16.9868,-8.17816c2.90397,0 -10.08506,5.46666 -14.09011,17.71903c-1.00941,3.08802 -3.32655,8.76043 -3.32655,12.28097z"/><path d="M222.75001,226.64119c0,5.80218 -4.43984,10.50578 -9.91667,10.50578c-5.47682,0 -9.91667,-4.7036 -9.91667,-10.50578c0,-5.80218 4.43984,-10.50578 9.91667,-10.50578c5.47682,0 9.91667,4.7036 9.91667,10.50578z"/></g><path d="M253.17553,212.80209c4.2802,0 7.58333,0.06598 7.58333,15.43377c0,10.84868 0.68833,27.77693 -1.98095,35.60219c-1.11191,3.25969 -5.01039,3.26388 -6.26905,3.26388c-1.18703,0 -13.93994,2.39642 -14.89001,-0.54354c-0.27519,-0.85159 -0.08351,-5.24319 0.85945,-6.82424c1.35464,-2.27131 6.22785,-1.93361 6.49802,-3.94762c1.23361,-9.19595 0.28254,-19.45287 0.28254,-27.55068c0,-15.36779 3.63646,-15.43377 7.91667,-15.43377z" data-paper-data="{&quot;index&quot;:null}" fill="#ffaa2b" stroke="#c08021" stroke-width="2" stroke-linecap="butt"/><path d="M231.00887,209.80209c4.2802,0 7.58334,0.06598 7.58334,15.43377c0,10.84868 0.68833,27.77693 -1.98095,35.60219c-1.11192,3.25969 -5.01039,3.26388 -6.26905,3.26388c-1.18703,0 -13.93994,2.39642 -14.89001,-0.54354c-0.2752,-0.8516 -0.08351,-5.24319 0.85944,-6.82424c1.35464,-2.27131 6.22785,-1.93361 6.49802,-3.94762c1.2336,-9.19595 0.28254,-19.45287 0.28254,-27.55068c0,-15.36779 3.63646,-15.43377 7.91666,-15.43377z" data-paper-data="{&quot;index&quot;:null}" fill="#ffaa2b" stroke="#c08021" stroke-width="2" stroke-linecap="butt"/><path d="M271.65373,180c0,4.85807 -0.44014,9.31652 -1.26436,13.3613c-0.52297,2.56646 -4.03391,3.13305 -4.85183,5.36284c-0.44509,1.21339 1.9016,4.20974 1.37572,5.3218c-5.42127,11.4641 -15.01289,17.51278 -26.24658,17.51278c-17.48186,0 -32.32038,-14.64844 -32.32038,-41.55873c0,-5.13243 -0.30623,-9.65798 0.33474,-14.06552c0.31504,-2.16637 3.19226,-3.47089 4.1138,-5.63828c0.60297,-1.41813 -0.96571,-3.68224 0.00231,-5.14192c5.45753,-8.22941 15.09964,-21.87967 26.53621,-21.87967c17.48187,0 32.32039,19.8151 32.32039,46.72539z" fill="#ffaa2b" stroke="#c08021" stroke-width="2" stroke-linecap="butt"/><path d="M229.91668,192.05209c0,6.02911 -4.51446,10.91666 -10.08333,10.91666c-5.56887,0 -10.08334,-4.88755 -10.08334,-10.91666c0,-6.02911 4.51447,-10.91667 10.08334,-10.91667c5.56887,0 10.08333,4.88756 10.08333,10.91667z" fill="#cc8823" stroke="#c08021" stroke-width="0" stroke-linecap="butt"/><path d="M235.06426,208.05209c0,3.08359 -2.30892,5.58333 -5.15712,5.58333c-2.8482,0 -5.15713,-2.49974 -5.15713,-5.58333c0,-3.08359 2.30893,-5.58334 5.15713,-5.58334c2.8482,0 5.15712,2.49975 5.15712,5.58334z" fill="#cc8823" stroke="#c08021" stroke-width="0" stroke-linecap="butt"/><path d="M237.71566,187.96875c0,1.933 -1.44739,3.5 -3.23283,3.5c-1.78544,0 -3.23282,-1.567 -3.23282,-3.5c0,-1.933 1.44738,-3.5 3.23282,-3.5c1.78544,0 3.23283,1.567 3.23283,3.5z" fill="#cc8823" stroke="#c08021" stroke-width="0" stroke-linecap="butt"/><path d="M263.3904,149.94146c3.30325,6.37469 2.93343,13.12161 -0.826,15.06968c-3.75943,1.94807 -9.48486,-1.64042 -12.78811,-8.01511c-3.30325,-6.37469 -2.93344,-13.12161 0.82599,-15.06968c3.75943,-1.94807 9.48487,1.64042 12.78812,8.01511z" fill="#cc8823" stroke="none" stroke-width="0" stroke-linecap="butt"/><path d="M258.25001,170.13542c0,2.20914 -1.26853,4 -2.83334,4c-1.56481,0 -2.83333,-1.79086 -2.83333,-4c0,-2.20914 1.26852,-4 2.83333,-4c1.56481,0 2.83334,1.79086 2.83334,4z" fill="#cc8823" stroke="none" stroke-width="0" stroke-linecap="butt"/><path d="M247.25001,155.05209c0,3.26769 -2.61167,5.91666 -5.83334,5.91666c-3.22166,0 -5.83333,-2.64898 -5.83333,-5.91666c0,-3.26768 2.61167,-5.91667 5.83333,-5.91667c3.22166,0 5.83334,2.64899 5.83334,5.91667z" fill="#cc8823" stroke="none" stroke-width="0" stroke-linecap="butt"/><path d="M236.25001,168.80209c0,6.71946 -5.4099,12.16666 -12.08334,12.16666c-6.67344,0 -12.08333,-5.4472 -12.08333,-12.16666c0,-6.71946 5.40989,-12.16667 12.08333,-12.16667c6.67344,0 12.08334,5.44721 12.08334,12.16667z" fill="#fbfbfb" stroke="#000000" stroke-width="1.5" stroke-linecap="butt"/><path d="M269.41668,168.46875c0,6.71947 -5.4099,12.16666 -12.08334,12.16666c-6.67344,0 -12.08333,-5.4472 -12.08333,-12.16666c0,-6.71947 5.40989,-12.16667 12.08333,-12.16667c6.67344,0 12.08334,5.4472 12.08334,12.16667z" fill="#fbfbfb" stroke="#000000" stroke-width="1.5" stroke-linecap="butt"/><path d="M228.75335,170.50419c0,0 4.87773,2.89197 3.98435,4.14453c-1.44941,2.03215 -3.87335,3.36399 -6.61891,3.36399c-4.43785,0 -8.03544,-3.47964 -8.03544,-7.77198c0,-4.29235 3.59759,-7.77197 8.03544,-7.77197c2.99149,0 5.60118,1.58113 6.98448,3.92649c0.66881,1.13395 -4.34992,4.10895 -4.34992,4.10895z" fill="#000000" stroke="none" stroke-width="0" stroke-linecap="butt"/><path d="M257.58668,170.67085c0,0 4.87773,2.89197 3.98435,4.14453c-1.44941,2.03215 -3.87336,3.36399 -6.61891,3.36399c-4.43785,0 -8.03544,-3.47964 -8.03544,-7.77198c0,-4.29235 3.59759,-7.77197 8.03544,-7.77197c2.9915,0 5.60118,1.58113 6.98449,3.92649c0.66881,1.13395 -4.34992,4.10895 -4.34992,4.10895z" fill="#000000" stroke="none" stroke-width="0" stroke-linecap="butt"/><path d="M237.41668,156.30209l-12.83333,-12.66667" fill="none" stroke="#000000" stroke-width="2.5" stroke-linecap="round"/><path d="M244.58335,155.96875l14.33333,-10.66666" fill="none" stroke="#000000" stroke-width="2.5" stroke-linecap="round"/><path d="M228.08335,202.30209c0,0 6.99169,-23.50755 11.19364,-23.60701c5.03534,-0.11918 16.97303,22.94034 16.97303,22.94034" fill="none" stroke="#000000" stroke-width="2.5" stroke-linecap="round"/><path d="M234.75001,203.63542l-12.5,-0.83333" fill="none" stroke="#000000" stroke-width="2.5" stroke-linecap="round"/><path d="M259.58333,201.80209l-8.83333,0.16666" fill="none" stroke="#000000" stroke-width="2.5" stroke-linecap="round"/><path d="M234.25001,234.80208c0,3.31371 -2.16396,6 -4.83333,6c-2.66938,0 -4.83333,-2.68629 -4.83333,-6c0,-3.31371 2.16396,-6 4.83333,-6c2.66938,0 4.83333,2.68629 4.83333,6z" fill="#cc8823" stroke="none" stroke-width="0" stroke-linecap="butt"/><path d="M236.41668,246.55208c0,2.34721 -1.49238,4.25 -3.33333,4.25c-1.84095,0 -3.33333,-1.90279 -3.33333,-4.25c0,-2.34721 1.49238,-4.25 3.33333,-4.25c1.84095,0 3.33333,1.90279 3.33333,4.25z" fill="#cc8823" stroke="none" stroke-width="0" stroke-linecap="butt"/><path d="M236.25001,227.96875c0,1.01252 -0.63426,1.83333 -1.41667,1.83333c-0.7824,0 -1.41667,-0.82081 -1.41667,-1.83333c0,-1.01252 0.63426,-1.83333 1.41667,-1.83333c0.7824,0 1.41667,0.82081 1.41667,1.83333z" fill="#cc8823" stroke="none" stroke-width="0" stroke-linecap="butt"/><path d="M256.41668,260.05208c0,2.7154 -2.08934,4.91667 -4.66667,4.91667c-2.57733,0 -4.66667,-2.20127 -4.66667,-4.91667c0,-2.7154 2.08934,-4.91667 4.66667,-4.91667c2.57733,0 4.66667,2.20127 4.66667,4.91667z" fill="#cc8823" stroke="none" stroke-width="0" stroke-linecap="butt"/><path d="M255.58334,248.96875c0,1.84095 -1.52969,3.33333 -3.41667,3.33333c-1.88697,0 -3.41667,-1.49238 -3.41667,-3.33333c0,-1.84095 1.52969,-3.33333 3.41667,-3.33333c1.88697,0 3.41667,1.49238 3.41667,3.33333z" fill="#cc8823" stroke="none" stroke-width="0" stroke-linecap="butt"/><path d="M259.41668,252.05208c0,0.87445 -0.67157,1.58333 -1.5,1.58333c-0.82843,0 -1.5,-0.70888 -1.5,-1.58333c0,-0.87445 0.67157,-1.58333 1.5,-1.58333c0.82843,0 1.5,0.70888 1.5,1.58333z" fill="#cc8823" stroke="none" stroke-width="0" stroke-linecap="butt"/><g data-paper-data="{&quot;index&quot;:null}" fill="#ffaa2b" stroke="#c08021" stroke-width="2" stroke-linecap="butt"><path d="M278.75678,188.35445c-4.00506,-12.25237 -16.99409,-17.71903 -14.09011,-17.71903c1.87831,0 10.11098,2.19481 16.98679,8.17817c6.43375,5.59868 11.59653,14.7011 11.59653,23.15517c0,8.16146 -3.76622,17.00772 -9.93086,22.70005c-7.04543,6.50564 -16.71332,9.29995 -18.65247,9.29995c-2.75322,0 9.11637,-6.29854 13.42322,-18.16429c1.38074,-3.80406 3.99345,-10.92335 3.99345,-15.16905c0,-3.52054 -2.31714,-9.19295 -3.32655,-12.28097z"/><path d="M271.00002,219.13542c5.47683,0 9.91667,4.7036 9.91667,10.50578c0,5.80218 -4.43985,10.50578 -9.91667,10.50578c-5.47682,0 -9.91666,-4.7036 -9.91666,-10.50578c0,-5.80218 4.43984,-10.50577 9.91666,-10.50577z"/></g><g fill="#ffaa2b" stroke="#c08021" stroke-width="2" stroke-linecap="butt"><path d="M201.75002,197.63542c0,4.24569 2.61271,11.36499 3.99344,15.16905c4.30684,11.86575 16.17644,18.16429 13.42322,18.16429c-1.93915,0 -11.60703,-2.79431 -18.65247,-9.29995c-6.16464,-5.69233 -9.93087,-14.53859 -9.93087,-22.70005c0,-8.45407 5.16278,-17.55649 11.59653,-23.15517c6.87581,-5.98336 15.10848,-8.17816 16.9868,-8.17816c2.90397,0 -10.08506,5.46666 -14.09011,17.71903c-1.00941,3.08802 -3.32655,8.76043 -3.32655,12.28097z"/><path d="M222.75002,226.64119c0,5.80218 -4.43984,10.50578 -9.91667,10.50578c-5.47682,0 -9.91667,-4.7036 -9.91667,-10.50578c0,-5.80218 4.43984,-10.50578 9.91667,-10.50578c5.47682,0 9.91667,4.7036 9.91667,10.50578z"/></g><path d="M253.17554,212.80209c4.2802,0 7.58333,0.06598 7.58333,15.43377c0,10.84868 0.68833,27.77693 -1.98095,35.60219c-1.11191,3.25969 -5.01039,3.26388 -6.26905,3.26388c-1.18703,0 -13.93994,2.39642 -14.89001,-0.54354c-0.27519,-0.85159 -0.08351,-5.24319 0.85945,-6.82424c1.35464,-2.27131 6.22785,-1.93361 6.49802,-3.94762c1.23361,-9.19595 0.28254,-19.45287 0.28254,-27.55068c0,-15.36779 3.63646,-15.43377 7.91667,-15.43377z" data-paper-data="{&quot;index&quot;:null}" fill="#ffaa2b" stroke="#c08021" stroke-width="2" stroke-linecap="butt"/><path d="M231.00888,209.80209c4.2802,0 7.58334,0.06598 7.58334,15.43377c0,10.84868 0.68833,27.77693 -1.98095,35.60219c-1.11192,3.25969 -5.01039,3.26388 -6.26905,3.26388c-1.18703,0 -13.93994,2.39642 -14.89001,-0.54354c-0.2752,-0.8516 -0.08351,-5.24319 0.85944,-6.82424c1.35464,-2.27131 6.22785,-1.93361 6.49802,-3.94762c1.2336,-9.19595 0.28254,-19.45287 0.28254,-27.55068c0,-15.36779 3.63646,-15.43377 7.91666,-15.43377z" data-paper-data="{&quot;index&quot;:null}" fill="#ffaa2b" stroke="#c08021" stroke-width="2" stroke-linecap="butt"/><path d="M271.65374,180c0,4.85807 -0.44014,9.31652 -1.26436,13.3613c-0.52297,2.56646 -4.03391,3.13305 -4.85183,5.36284c-0.44509,1.21339 1.9016,4.20974 1.37572,5.3218c-5.42127,11.4641 -15.01289,17.51278 -26.24658,17.51278c-17.48186,0 -32.32038,-14.64844 -32.32038,-41.55873c0,-5.13243 -0.30623,-9.65798 0.33474,-14.06552c0.31504,-2.16637 3.19226,-3.47089 4.1138,-5.63828c0.60297,-1.41813 -0.96571,-3.68224 0.00231,-5.14192c5.45753,-8.22941 15.09964,-21.87967 26.53621,-21.87967c17.48187,0 32.32039,19.8151 32.32039,46.72539z" fill="#ffaa2b" stroke="#c08021" stroke-width="2" stroke-linecap="butt"/><path d="M229.91669,192.05209c0,6.02911 -4.51446,10.91666 -10.08333,10.91666c-5.56887,0 -10.08334,-4.88755 -10.08334,-10.91666c0,-6.02911 4.51447,-10.91667 10.08334,-10.91667c5.56887,0 10.08333,4.88756 10.08333,10.91667z" fill="#cc8823" stroke="#c08021" stroke-width="0" stroke-linecap="butt"/><path d="M235.06427,208.05209c0,3.08359 -2.30892,5.58333 -5.15712,5.58333c-2.8482,0 -5.15713,-2.49974 -5.15713,-5.58333c0,-3.08359 2.30893,-5.58334 5.15713,-5.58334c2.8482,0 5.15712,2.49975 5.15712,5.58334z" fill="#cc8823" stroke="#c08021" stroke-width="0" stroke-linecap="butt"/><path d="M237.71567,187.96875c0,1.933 -1.44739,3.5 -3.23283,3.5c-1.78544,0 -3.23282,-1.567 -3.23282,-3.5c0,-1.933 1.44738,-3.5 3.23282,-3.5c1.78544,0 3.23283,1.567 3.23283,3.5z" fill="#cc8823" stroke="#c08021" stroke-width="0" stroke-linecap="butt"/><path d="M263.39041,149.94146c3.30325,6.37469 2.93343,13.12161 -0.826,15.06968c-3.75943,1.94807 -9.48486,-1.64042 -12.78811,-8.01511c-3.30325,-6.37469 -2.93344,-13.12161 0.82599,-15.06968c3.75943,-1.94807 9.48487,1.64042 12.78812,8.01511z" fill="#cc8823" stroke="none" stroke-width="0" stroke-linecap="butt"/><path d="M258.25002,170.13542c0,2.20914 -1.26853,4 -2.83334,4c-1.56481,0 -2.83333,-1.79086 -2.83333,-4c0,-2.20914 1.26852,-4 2.83333,-4c1.56481,0 2.83334,1.79086 2.83334,4z" fill="#cc8823" stroke="none" stroke-width="0" stroke-linecap="butt"/><path d="M247.25002,155.05209c0,3.26769 -2.61167,5.91666 -5.83334,5.91666c-3.22166,0 -5.83333,-2.64898 -5.83333,-5.91666c0,-3.26768 2.61167,-5.91667 5.83333,-5.91667c3.22166,0 5.83334,2.64899 5.83334,5.91667z" fill="#cc8823" stroke="none" stroke-width="0" stroke-linecap="butt"/><path d="M236.25002,168.80209c0,6.71946 -5.4099,12.16666 -12.08334,12.16666c-6.67344,0 -12.08333,-5.4472 -12.08333,-12.16666c0,-6.71946 5.40989,-12.16667 12.08333,-12.16667c6.67344,0 12.08334,5.44721 12.08334,12.16667z" fill="#fbfbfb" stroke="#000000" stroke-width="1.5" stroke-linecap="butt"/><path d="M269.41668,168.46875c0,6.71947 -5.4099,12.16666 -12.08334,12.16666c-6.67344,0 -12.08333,-5.4472 -12.08333,-12.16666c0,-6.71947 5.40989,-12.16667 12.08333,-12.16667c6.67344,0 12.08334,5.4472 12.08334,12.16667z" fill="#fbfbfb" stroke="#000000" stroke-width="1.5" stroke-linecap="butt"/><path d="M228.75336,170.50419c0,0 4.87773,2.89197 3.98435,4.14453c-1.44941,2.03215 -3.87335,3.36399 -6.61891,3.36399c-4.43785,0 -8.03544,-3.47964 -8.03544,-7.77198c0,-4.29235 3.59759,-7.77197 8.03544,-7.77197c2.99149,0 5.60118,1.58113 6.98448,3.92649c0.66881,1.13395 -4.34992,4.10895 -4.34992,4.10895z" fill="#000000" stroke="none" stroke-width="0" stroke-linecap="butt"/><path d="M257.58669,170.67085c0,0 4.87773,2.89197 3.98435,4.14453c-1.44941,2.03215 -3.87336,3.36399 -6.61891,3.36399c-4.43785,0 -8.03544,-3.47964 -8.03544,-7.77198c0,-4.29235 3.59759,-7.77197 8.03544,-7.77197c2.9915,0 5.60118,1.58113 6.98449,3.92649c0.66881,1.13395 -4.34992,4.10895 -4.34992,4.10895z" fill="#000000" stroke="none" stroke-width="0" stroke-linecap="butt"/><path d="M224.58336,143.63542l12.83333,12.66667" fill="none" stroke="#000000" stroke-width="2.5" stroke-linecap="round"/><path d="M258.91668,145.30209l-14.33333,10.66666" fill="none" stroke="#000000" stroke-width="2.5" stroke-linecap="round"/><path d="M228.08336,202.30209c0,0 6.99169,-23.50755 11.19364,-23.60701c5.03534,-0.11918 16.97303,22.94034 16.97303,22.94034" fill="none" stroke="#000000" stroke-width="2.5" stroke-linecap="round"/><path d="M222.25002,202.80209l12.5,0.83333" fill="none" stroke="#000000" stroke-width="2.5" stroke-linecap="round"/><path d="M259.58333,201.80209l-8.83333,0.16666" fill="none" stroke="#000000" stroke-width="2.5" stroke-linecap="round"/><path d="M234.25002,234.80208c0,3.31371 -2.16396,6 -4.83333,6c-2.66938,0 -4.83333,-2.68629 -4.83333,-6c0,-3.31371 2.16396,-6 4.83333,-6c2.66938,0 4.83333,2.68629 4.83333,6z" fill="#cc8823" stroke="none" stroke-width="0" stroke-linecap="butt"/><path d="M236.41669,246.55208c0,2.34721 -1.49238,4.25 -3.33333,4.25c-1.84095,0 -3.33333,-1.90279 -3.33333,-4.25c0,-2.34721 1.49238,-4.25 3.33333,-4.25c1.84095,0 3.33333,1.90279 3.33333,4.25z" fill="#cc8823" stroke="none" stroke-width="0" stroke-linecap="butt"/><path d="M236.25002,227.96875c0,1.01252 -0.63426,1.83333 -1.41667,1.83333c-0.7824,0 -1.41667,-0.82081 -1.41667,-1.83333c0,-1.01252 0.63426,-1.83333 1.41667,-1.83333c0.7824,0 1.41667,0.82081 1.41667,1.83333z" fill="#cc8823" stroke="none" stroke-width="0" stroke-linecap="butt"/><path d="M256.41668,260.05208c0,2.7154 -2.08934,4.91667 -4.66667,4.91667c-2.57733,0 -4.66667,-2.20127 -4.66667,-4.91667c0,-2.7154 2.08934,-4.91667 4.66667,-4.91667c2.57733,0 4.66667,2.20127 4.66667,4.91667z" fill="#cc8823" stroke="none" stroke-width="0" stroke-linecap="butt"/><path d="M255.58335,248.96875c0,1.84095 -1.52969,3.33333 -3.41667,3.33333c-1.88697,0 -3.41667,-1.49238 -3.41667,-3.33333c0,-1.84095 1.52969,-3.33333 3.41667,-3.33333c1.88697,0 3.41667,1.49238 3.41667,3.33333z" fill="#cc8823" stroke="none" stroke-width="0" stroke-linecap="butt"/><path d="M259.41668,252.05208c0,0.87445 -0.67157,1.58333 -1.5,1.58333c-0.82843,0 -1.5,-0.70888 -1.5,-1.58333c0,-0.87445 0.67157,-1.58333 1.5,-1.58333c0.82843,0 1.5,0.70888 1.5,1.58333z" fill="#cc8823" stroke="none" stroke-width="0" stroke-linecap="butt"/></g></g></svg>