<svg version="1.1" xmlns="http://www.w3.org/2000/svg" xmlns:xlink="http://www.w3.org/1999/xlink" width="260.77163" height="335.7292" viewBox="0,0,260.77163,335.7292"><g transform="translate(-92.19202,-17.88076)"><g data-paper-data="{&quot;isPaintingLayer&quot;:true}" fill-rule="nonzero" stroke-linejoin="miter" stroke-miterlimit="10" stroke-dasharray="" stroke-dashoffset="0" style="mix-blend-mode: normal"><g><path d="M294.69144,192.07433l1.6948,1.6948l0.95111,1.58519l1.20307,1.40358l0.5,1l0.15348,0.69068l0.24173,0.40288l-0.01018,0.03734l0.17027,0.26756l0.39822,0.13274l0.32579,0.68778l0.57783,0.49528l0.0456,0.82085l1.58803,3.35251l0.5,2.5l-0.01258,0.26421l0.09503,0.42764l0.03348,0.13393l0.3933,0.78661l0.27474,1.23632l0.59599,1.11748l0.58526,2.34106l1.43922,2.39871l-0.05525,0.20257l0.03076,0.05767l0.5,2v0.75462l0.25322,0.39792l0.5,1.5l0.1,1.3l0.4,1.2l0.03458,0.44959l0.2122,0.39787l0.39288,1.57153l0.36034,1.08101l0.02409,0.31316l0.12855,0.07346l0.62827,2.51309l0.20838,0.58347l0.0107,0.01682l0.06575,0.19725l0.58643,1.64199l-0.10927,0.21854l0.01283,0.16677l0.31109,0.65674l0.5,2.5l-0.05448,1.14412l0.2778,1.11122v2.53523l0.05164,0.67134l0.44836,1.79343v1.03523l0.05164,0.67134l0.44836,1.79343v6.53523l0.05164,0.67134l0.44836,1.79343v2.5l0.5,2v0.32044l0.07165,0.32243l-0.07165,0.10748v0.06504l0.68113,1.13521l-0.05525,0.20257l0.03076,0.05767l0.5,2v1.41571l0.34336,1.37344v10l0.5,2v0.32044l0.07165,0.32243l-0.07165,0.10748v6.33394l0.15664,0.62656v1.41571l0.25554,1.02217l0.35127,0.35127h0.23654l2,0.5h0.74965l0.10748,-0.07165l0.32243,0.07165h0.32044l2.56349,0.64087l1.1784,0.26187l0.30751,-0.08387l0.40288,0.24173l0.69068,0.15348l0.28661,0.1433l0.32044,0.08011l0.06409,0.11215l0.32887,0.16443l0.3586,0.30737l1.2876,0.3219l0.36681,0.19563l0.08191,0.02048l0.39874,0.03067l0.82815,0.27605l0.81246,0.20311l0.16027,-0.06931l0.56769,0.23903l2.13776,0.47506l0.28661,0.1433l0.32044,0.08011l0.06409,0.11215l0.32887,0.16443l0.79365,0.68028l0.96339,0.40564l1.74464,1.30848l1.23441,0.82294l0.67509,0.7426l0.37837,0.24078l1.44654,0.51662l1.5,1l0.73539,0.80893l0.61337,0.12267l1.17098,1.84011l1.46717,1.61388l-0.01505,0.21817l1.79213,1.53611l0.02519,0.4534l0.39427,0.2253l1.4375,5.75v8.24965l0.07165,0.10748l-0.07165,0.32243v0.32044l-0.64087,2.56349l-0.57321,2.57946l-0.1433,0.28661l-0.08011,0.32044l-0.11215,0.06409l-0.66443,1.32887l-1.47648,1.72256l-0.17246,0.8623l-1.24663,0.79331l-0.96164,1.12191l-0.87802,0.04878l-1.15749,0.73658l-0.60728,1.21455l-0.61104,0.71289l-0.03183,0.57285l-1.7308,1.48355l-1.48355,1.7308l-0.57285,0.03183l-0.71289,0.61104l-0.33083,0.16541l-0.6804,0.6804l-0.98219,0.58931l-0.77049,0.84754l-1.5,1l-0.43574,0.15562l-0.19331,0.3383l-1.77893,0.44473l-0.09202,0.06135l-0.43574,0.15562l-0.19331,0.3383l-0.41198,0.10299l-0.40933,0.47755l-0.57285,0.03183l-0.71289,0.61104l-0.32887,0.16443l-0.06409,0.11215l-0.32044,0.08011l-0.28661,0.1433l-2.57946,0.57321l-2.56349,0.64087h-0.08429l-0.19809,0.04952l-0.30567,0.10189l-0.269,0.1345l-0.4035,0.08967l-0.10283,0.03428l-0.07864,0.00605l-0.65134,0.14474l-1.11748,0.59599l-2,0.5h-1.31447l-0.56444,0.12543l-0.16025,0.28043l-5.75,1.4375h-2.24965l-0.10748,0.07165l-0.32243,-0.07165h-0.32044l-2,-0.5h-1.5l-5.75,-1.4375l-0.01405,-0.02458l-1.52511,-0.38128l-1.11748,-0.59599l-1.23632,-0.27474l-1,-0.5l-0.71289,-0.61104l-0.57285,-0.03183l-1.48355,-1.7308l-1.7308,-1.48355l-0.03183,-0.57285l-0.61104,-0.71289l-0.16443,-0.32887l-0.11215,-0.06409l-0.08011,-0.32044l-0.1433,-0.28661l-0.52102,-2.3446l-0.10292,-0.16174l-0.5,-1.5l-0.08623,-1.12096l-0.00391,-0.01566v-0.03523l-0.03355,-0.4362l-0.0381,-0.17144l0.02233,-0.0335l-0.00232,-0.0302l-0.44836,-1.79343v-8.25l-5,1.25h-18.24965l-0.10748,0.07165l-0.32243,-0.07165h-0.32044l-2,-0.5h-2.5l-4.67601,-1.169l-0.50697,0.03496l-0.24535,-0.22304l-0.32167,-0.08042l-0.25212,-0.44122l-3.56645,-3.24223l-1,-1.5l-0.15562,-0.43574l-0.3383,-0.19331l-0.62827,-2.51309l-0.87126,-2.43952l0.17425,-0.3485l-0.11222,-0.44888v-5.24965l-0.07165,-0.10748l0.07165,-0.32243v-0.32044l0.64087,-2.56349l0.57321,-2.57946l0.1,-0.2l0.16479,-0.74154l-0.47887,-1.9155v-3.08429l-0.15664,-0.62656v-1.41571l-0.34336,-1.37344v-24.24965l-0.07165,-0.10748l0.07165,-0.32243v-0.32044l0.5,-2v-7.5l0.34336,-1.37344v-1.41571l0.12645,-0.50578l-0.04146,-0.06219l0.07165,-0.32243v-0.32044l0.5,-2v-2.5l0.44836,-1.79343l0.05164,-0.67134v-1.78488l-0.07165,-0.10748l0.07165,-0.32243v-0.32044l0.64087,-2.56349l0.35913,-1.61607v-1.82044l0.44836,-1.79343l0.05164,-0.67134v-4.53523l0.34336,-1.37344v-1.41571l0.15664,-0.62656v-23.55121c-3.16007,0.02909 -6.32028,0.0493 -9.48053,0.05887l-0.01947,0.08762v0.32044l-0.05947,0.23788l-0.03067,0.39874l-0.27605,0.82815l-0.27468,1.09872l-0.09503,0.42764l0.01258,0.26421l-0.5,2.5l-0.65755,1.38817l-0.33321,1.49945l-0.81127,1.62253l-0.19797,0.98985l-0.12004,0.25342v0.28041l-0.5,2l-0.2122,0.39787l-0.03458,0.44959l-0.17209,0.51626l-0.35335,2.47347l-0.39439,0.96805l-0.08017,1.04223l-0.67209,2.01626l-0.35335,2.47347l-0.05185,0.12726l0.01096,0.13698l-0.5,3l-0.07591,0.17459l0.00906,0.19016l-1,5l-0.27668,0.5841v0.16057l-0.05947,0.23788l-0.03067,0.39874l-0.27605,0.82815l-0.13381,0.53523v1l-0.11222,0.44888l0.17425,0.3485l-0.87126,2.43952l-0.62827,2.51309l-0.0625,0.03571v0.21429l-0.44836,1.79343l-0.14178,1.84318l-0.40986,1.22957v0.13381l-0.34336,1.37344v1.41571l-0.15664,0.62656v3.58429l-0.34336,1.37344v1.41571l-0.15664,0.62656v1.08429l-0.34336,1.37344v1.41571l-0.12645,0.50578l0.04146,0.06219l-0.07165,0.32243v0.32044l-0.5,2v4l-0.55025,2.20101l0.23138,0.84839l-0.76024,1.26707l-0.35838,1.43353l-0.0625,0.03571v0.21429l-0.34336,1.37344v1.41571l-0.5,2l-0.19563,0.36681l-0.40937,1.63747l-0.00232,0.0302l0.02233,0.0335l-0.0381,0.17144l-0.03355,0.4362v0.03523l-0.00391,0.01566l-0.08623,1.12096l-0.38396,1.15188l0.04575,0.06863l-0.07165,0.32243v0.32044l-0.64087,2.56349l-0.57321,2.57946l-0.1433,0.28661l-0.08011,0.32044l-0.11215,0.06409l-0.76443,1.52887l-0.18591,0.83661v1.32044l-0.34336,1.37344v1.41571l-0.5,2l-0.2122,0.39787l-0.03458,0.44959l-0.5,1.5l-0.10292,0.16174l-0.30597,1.37688l0.06107,0.12214l-0.23351,0.65382l-0.04261,0.19175l-0.09055,0.1811l-0.08792,0.24618l-0.04494,0.17976l-0.0242,0.01383l-0.06269,0.17554l-0.06575,0.19725l-0.0107,0.01682l-0.20838,0.58347l-0.62827,2.51309l-0.28043,0.16025l-0.12543,0.56444v0.31447l-0.5,2l-0.2122,0.39787l-0.03458,0.44959l-0.5,1.5l-0.44439,0.69832l-0.17956,0.80802l-0.42864,0.85728l1.14272,1.99977l-2.27831,3.98703l0.06422,1.15592l-1.17074,0.78049l-2.36517,4.13905l-5.75,1.4375h-0.24965l-0.10748,0.07165l-0.32243,-0.07165h-4.32044l-4,-1h-10.5l-1.79343,-0.44836l-0.67134,-0.05164h-2.53523l-1.37344,-0.34336h-1.41571l-0.62656,-0.15664h-4.08429l-1.79343,-0.44836l-0.0302,-0.00232l-0.0335,0.02233l-0.17144,-0.0381l-0.4362,-0.03355h-0.03523l-0.01566,-0.00391l-1.12096,-0.08623l-1.22957,-0.40986h-0.88346l-0.10748,0.07165l-0.32243,-0.07165h-0.32044l-2,-0.5h-2.5l-5.75,-1.4375l-1.56818,-2.74432l-2.74432,-1.56818l-1.4375,-5.75v-6l0.34336,-1.37344v-1.41571l0.15664,-0.62656v-2.08429l0.55025,-2.20101l-0.23138,-0.84839l0.68113,-1.13521v-0.31539l0.2778,-1.11122l-0.05448,-1.14412l0.5,-2.5l0.19167,-0.40464l0.03336,-0.13346l0.03681,-0.47847l-0.05682,-0.08522l0.07165,-0.32243v-0.32044l0.05947,-0.23788l0.03067,-0.39874l0.27605,-0.82815l0.27468,-1.09872l0.44322,-1.99449l0.00605,-0.07864l0.03428,-0.10283l0.08967,-0.4035l0.1345,-0.269l0.0176,-0.05281l0.07131,-0.28523l0.02936,-0.01678l0.12328,-0.36984l1.21804,-1.91406l0.04878,-0.87802l1.12191,-0.96164l0.79331,-1.24663l0.8623,-0.17246l1.72256,-1.47648l0.32887,-0.16443l0.06409,-0.11215l0.32044,-0.08011l0.28661,-0.1433l2.57946,-0.57321l2.56349,-0.64087h0.32044l0.32243,-0.07165l0.10748,0.07165h3.74965l1.11122,0.2778l1.14412,-0.05448l1.38339,0.27668h1.36128l1.79343,0.44836l0.67134,0.05164h3.28488l0.10748,-0.07165l0.32243,0.07165h0.32044l2,0.5h0.1889l0.33549,-0.93937l0.06575,-0.19725l0.0107,-0.01682l0.20838,-0.58347l0.62827,-2.51309l0.3383,-0.19331l0.15562,-0.43574l0.60285,-0.90428l0.11526,-0.23051l0.19383,-0.77531l0.2122,-0.39787l0.03458,-0.44959l2,-6l0.82466,-1.29589l0.51662,-1.44654l0.14573,-0.21859l0.51299,-1.53897l0.35426,-0.55669l0.39896,-1.59585l0.59599,-1.11748l0.27474,-1.23632l1.93545,-3.87089l0.19383,-0.77531l0.2122,-0.39787l0.03458,-0.44959l0.36034,-1.08101l0.39288,-1.57153l0.2122,-0.39787l0.03458,-0.44959l1,-3l0.18565,-0.29174l0.04672,-0.34263l0.87449,-2.18623l0.89313,-2.6794l0.44439,-0.69832l0.17956,-0.80802l0.78608,-1.57216l0.82235,-2.05587l0.70431,-0.9752l0.40459,-1.13286l0.14573,-0.21859l0.51299,-1.53897l0.81071,-1.27397l0.04162,-1.2487l1,-3.5l1.04558,-1.81234l0.721,-1.71237l0.01426,-0.07132l0.95656,-2.0194l0.33482,-0.93751l0.20862,-1.04309l0.12004,-0.25342v-0.28041l0.5,-2l0.37227,-0.69801l0.10689,-0.78382l0.48802,-1.22005l0.30504,-2.1353l0.55,-1.35l0.24704,-1.7293l-0.09375,-0.34375l0.1875,-0.3125l0.10921,-0.76445l0.05185,-0.12726l-0.01096,-0.13698l0.30872,-1.85234l-0.02723,-0.05445l0.06806,-0.19058l0.15044,-0.90263l0.9628,-2.21444l0.22409,-0.62745v-0.52743c-8.16072,-2.71278 -18.40325,-9.2283 -23.14404,-12.98656c-1.99362,-1.58044 -3.66021,-3.93877 -5.2679,-5.89461c-0.35082,-0.42679 -0.37013,-1.31932 -0.91937,-1.37905c-3.93328,-0.42774 -7.91272,0.07165 -11.86918,0.07165c-5.11734,0 -17.24842,-3.00698 -22.27949,-5.66179c-6.29295,-3.32068 -13.2793,-6.43563 -18.50035,-11.18204c-18.93488,-17.21353 -21.57284,-45.02156 -27.42506,-68.43043c-1.11062,-4.4425 0.3531,-9.16756 0.06203,-13.73753c-0.05511,-0.86527 -1.75394,-1.38517 -2.13697,-1.83204c-1.71466,-2.00043 -3.97672,-6.32116 -4.92553,-8.97782c-0.60401,-1.69123 -1.42515,-4.04949 -1.4375,-5.75c-0.10941,-15.06213 0.44047,-19.73293 3.69306,-32.79835c0.6369,-2.55836 2.84886,-8.36846 4.89606,-9.53829c2.00044,-3.38952 5.69012,-5.66336 9.91088,-5.66336c3.74243,0 7.06733,1.78766 9.16737,4.55565c0.34275,0.35404 0.64451,0.7488 0.89513,1.19435c0.20946,0.37237 0.36485,0.76712 0.49112,1.17414c0.45902,1.05722 0.76383,2.1969 0.88605,3.39066c0.08125,0.21273 0.20434,-0.41031 0.26414,-0.63004c0.33203,-1.21995 0.23768,-2.74141 1.15315,-3.61345c3.81516,-3.63419 5.18601,-4.57314 10.00017,-5.64296c4.97693,-1.10598 15.67817,6.26725 18.20537,11.32165c0.84596,1.69192 1.44532,4.66018 1.4375,6.50035c-0.02373,5.58317 0.16205,11.16879 0,16.74965c-0.18931,6.51984 -4.21809,11.9952 -6.53453,17.83494c-0.73467,1.8521 -1.94011,4.80677 -3.32243,6.09376c-1.0344,0.96306 -7.25884,6.22374 -7.46983,6.77711c-0.21602,0.56657 2.5236,5.2987 2.73664,5.65758c2.19853,3.70365 3.55445,7.47432 6.4561,10.95364c10.26692,12.31086 23.02463,23.85986 35.36735,34.65283c0.60459,0.52867 3.88193,-5.42844 4.19811,-5.84891c1.52546,-2.02859 4.09384,-4.0064 6.18953,-5.68953c7.70676,-6.1896 16.16326,-10.70344 25.58989,-14.08806c10.72209,-3.84976 21.92934,-4.95173 33.17794,-6.06556c8.49602,-0.84127 17.07488,-0.42337 25.61122,-0.2778c4.19888,0.0716 7.89628,2.45169 11.68703,3.55556c1.43706,0.41847 4.50487,1.13037 5.95593,2.15853c10.3025,7.29989 19.20155,16.59993 24.91954,28.03591c1.43119,2.86239 1.11346,6.17181 1.4375,9.25c0.69241,6.57738 0.90017,12.68591 -0.71409,19.14296c-0.9547,3.81882 -5.198,8.79238 -7.84898,11.68357c-5.68219,6.19706 -10.91843,9.91988 -16.82351,12.88181zM286.75451,261.31658l-0.15664,-0.62656v-1.41571l-0.34336,-1.37344v-1.63381l-0.15141,-0.45423l-0.1345,-0.269l-0.08967,-0.4035l-0.03428,-0.10283l-0.00605,-0.07864l-0.04956,-0.22304l-0.44439,-0.69832l-0.5,-1.5l-0.01211,-0.15746l-0.78963,-1.48055l-1.46953,-2.44921l0.05525,-0.20257l-0.03076,-0.05767l-0.39288,-1.57153l-0.60189,-1.80567l-0.93699,-1.87397l-1.27277,-2.12128l-0.36875,-1.2116l-0.67994,-1.06848l-0.39313,-1.1794l-0.87449,-2.18623l-0.04672,-0.34263l-0.18565,-0.29174l-0.39313,-1.1794l-0.30961,-0.77402l-0.5874,-0.7832l-0.88429,-2.10018l-0.41571,-0.77947v65.2293l0.07165,0.10748l-0.07165,0.32243v0.32044l-0.375,1.5h5.375l5.75,1.4375l1.56818,2.74432l0.18182,0.1039z" fill="#94603a" stroke="#754b2e" stroke-width="4" stroke-linecap="butt"/><g><path d="M192.6292,286.63347l30.97462,-105.27363l14.90869,4.38658l-30.97462,105.27363z" fill="#ce0000" stroke="#950000" stroke-width="3.5" stroke-linecap="butt"/><g fill="#820000" stroke="none" stroke-width="0" stroke-linecap="butt"><path d="M222.96387,204.57787c-0.40247,1.36788 -1.76593,2.17161 -3.04538,1.79515c-1.27944,-0.37645 -1.99038,-1.79051 -1.5879,-3.1584c0.40247,-1.36788 1.76594,-2.1716 3.04538,-1.79515c1.27944,0.37645 1.99036,1.79052 1.58789,3.1584z"/><path d="M224.50015,209.57708c-0.30532,1.0377 -1.33968,1.64743 -2.3103,1.36184c-0.97061,-0.28558 -1.50994,-1.35833 -1.20462,-2.39603c0.30532,-1.0377 1.33968,-1.64743 2.3103,-1.36184c0.97061,0.28558 1.50994,1.35833 1.20462,2.39603z"/><path d="M226.68426,202.97234c-0.19295,0.65579 -0.91815,1.02007 -1.61978,0.81363c-0.70163,-0.20644 -1.114,-0.90542 -0.92105,-1.56121c0.19295,-0.65579 0.91816,-1.02005 1.61979,-0.81361c0.70163,0.20644 1.11399,0.90542 0.92104,1.5612z"/></g><path d="M185.64706,304.74566l7.07224,-24.03646l18.55981,5.46085l-7.07224,24.03646z" fill="#d3d3d3" stroke="#a0a0a0" stroke-width="3.5" stroke-linecap="butt"/><path d="M196.71036,282.87529l-4.20754,14.30018" fill="none" stroke="#a0a0a0" stroke-width="3.5" stroke-linecap="round"/><path d="M174.03022,313.89042l4.38658,-14.90869l27.68758,8.14651l-4.38658,14.90869z" fill="#393939" stroke="#2b2b2b" stroke-width="3.5" stroke-linecap="butt"/></g><g data-paper-data="{&quot;index&quot;:null}" stroke-linecap="butt"><path d="M305.16517,304.74807l-32.2846,-142.84063l12.33968,-4.21231l32.28459,142.84063z" data-paper-data="{&quot;index&quot;:null}" fill="#ce0000" stroke="#950000" stroke-width="3.5"/><g data-paper-data="{&quot;index&quot;:null}" fill="#820000" stroke="none" stroke-width="0"><path d="M305.01177,272.37002c0.33637,1.4328 -0.25476,2.8602 -1.32031,3.18817c-1.06556,0.32799 -2.20204,-0.56765 -2.53841,-2.00045c-0.33637,-1.4328 0.25476,-2.86019 1.32031,-3.18818c1.06556,-0.32797 2.20205,0.56766 2.53841,2.00045z"/><path d="M308.34578,276.04406c0.25517,1.08695 -0.19326,2.16981 -1.00162,2.41862c-0.80834,0.24881 -1.67051,-0.43064 -1.92569,-1.51759c-0.25517,-1.08695 0.19326,-2.1698 1.00162,-2.41861c0.80834,-0.24881 1.67052,0.43063 1.9257,1.51759z"/><path d="M306.89018,269.00077c0.16127,0.68691 -0.18169,1.38958 -0.76603,1.56944c-0.58433,0.17986 -1.18877,-0.23119 -1.35003,-0.9181c-0.16127,-0.68691 0.18172,-1.38958 0.76605,-1.56945c0.58433,-0.17985 1.18875,0.23119 1.35002,0.91811z"/></g><g data-paper-data="{&quot;index&quot;:null}" fill="#820000" stroke="none" stroke-width="0"><path d="M285.36381,193.2617c0.31718,1.33513 -0.29072,2.67708 -1.3578,2.99733c-1.06708,0.32024 -2.18924,-0.50248 -2.50643,-1.8376c-0.31719,-1.33514 0.29073,-2.67709 1.3578,-2.99734c1.06708,-0.32024 2.18923,0.50248 2.50643,1.83761z"/><path d="M288.64243,196.65367c0.24063,1.01286 -0.22055,2.0309 -1.03006,2.27383c-0.80951,0.24295 -1.6608,-0.38119 -1.90143,-1.39406c-0.24063,-1.01287 0.22055,-2.0309 1.03006,-2.27384c0.80951,-0.24294 1.6608,0.38121 1.90143,1.39406z"/><path d="M287.28064,190.08795c0.15208,0.64008 -0.19903,1.30137 -0.78421,1.47698c-0.58517,0.17561 -1.18282,-0.20091 -1.33489,-0.841c-0.15208,-0.64008 0.19904,-1.30136 0.78421,-1.47698c0.58517,-0.17562 1.18282,0.20091 1.33488,0.84099z"/></g><path d="M311.00251,297.76876c11.81137,-2.67198 23.97645,5.05778 27.17147,17.26493c2.21304,8.45529 -0.45792,16.84091 -6.23384,22.08474c-2.56293,2.32684 -6.2467,-17.8842 -9.8769,-17.06297c-1.16499,0.26355 -10.72388,-14.29626 -11.79996,-10.49346c-1.85692,6.56225 4.81597,32.85177 2.88796,32.42752c-8.28242,-1.82248 -15.4139,-8.35429 -17.74999,-17.27972c-3.19502,-12.20715 3.7899,-24.26904 15.60127,-26.94102z" fill="#ce0000" stroke="#950000" stroke-width="3.5"/></g><path d="M128.14144,60.93494c0,0 -3.08142,53.88641 14.50855,70.96375c17.43228,16.92426 90.56243,31.04521 90.56243,31.04521l-10.02697,8.33493c0,0 -71.95064,-8.2281 -90.58985,-26.32412c-15.97039,-15.50497 -14.48113,-75.68484 -14.48113,-75.68484z" data-paper-data="{&quot;index&quot;:null}" fill="#ce0000" stroke="#950000" stroke-width="3.5" stroke-linecap="butt"/><g data-paper-data="{&quot;index&quot;:null}" fill="#820000" stroke="none" stroke-width="0" stroke-linecap="butt"><path d="M137.54982,144.98727c-0.83533,0.73837 -2.36159,0.49879 -3.40901,-0.53512c-1.04741,-1.03392 -1.21933,-2.47065 -0.384,-3.20903c0.83533,-0.73837 2.3616,-0.4988 3.40901,0.53512c1.04741,1.03392 1.21933,2.47065 0.38399,3.20903z"/><path d="M136.05961,139.45231c-0.63371,0.56015 -1.79155,0.37839 -2.58614,-0.40596c-0.79458,-0.78435 -0.92501,-1.87429 -0.29131,-2.43443c0.63371,-0.56015 1.79156,-0.3784 2.58615,0.40595c0.79458,0.78435 0.92501,1.87429 0.29131,2.43444z"/><path d="M141.10006,143.56214c-0.45808,0.40492 -1.23651,0.33134 -1.73866,-0.16434c-0.50215,-0.49568 -0.53788,-1.22577 -0.07978,-1.63068c0.45808,-0.40492 1.23651,-0.33133 1.73866,0.16436c0.50215,0.49568 0.53787,1.22576 0.07979,1.63068z"/></g><g data-paper-data="{&quot;index&quot;:null}" fill="#820000" stroke="none" stroke-width="0" stroke-linecap="butt"><path d="M203.19658,147.37876c-0.82952,0.7437 -2.29162,0.56299 -3.26569,-0.40366c-0.97406,-0.96664 -1.09124,-2.35315 -0.26171,-3.09686c0.82952,-0.7437 2.29162,-0.56299 3.26569,0.40366c0.97406,0.96664 1.09124,2.35315 0.26172,3.09686z"/><path d="M201.94773,142.06517c-0.62929,0.56419 -1.73847,0.42709 -2.47742,-0.30622c-0.73894,-0.73332 -0.82784,-1.78515 -0.19854,-2.34935c0.62929,-0.56419 1.73847,-0.42709 2.47742,0.30622c0.73894,0.73332 0.82784,1.78515 0.19854,2.34935z"/><path d="M206.66438,145.87802c-0.45491,0.40784 -1.20224,0.36278 -1.66923,-0.10065c-0.46699,-0.46342 -0.47679,-1.16973 -0.02189,-1.57758c0.45491,-0.40784 1.20225,-0.36278 1.66923,0.10065c0.46699,0.46342 0.47679,1.16973 0.02188,1.57757z"/></g><path d="M101.89118,57.47184c-0.32401,-9.22039 4.63264,-17.52428 12.04345,-21.64732c1.72511,-0.95977 2.8787,26.13885 6.541,31.89201c2.12229,3.33394 7.09998,-13.35687 8.29159,-13.43879c3.71317,-0.25528 1.4409,-20.67324 4.56386,-19.17993c7.03799,3.36536 12.00343,10.63152 12.31037,19.36623c0.44314,12.61055 -8.99145,23.50674 -21.07275,24.33732c-12.0813,0.83059 -22.23438,-8.71897 -22.67752,-21.32951z" fill="#ce0000" stroke="#950000" stroke-width="3.5" stroke-linecap="butt"/><path d="M256.93544,287.93477v-109.73588h15.54063v109.73588z" data-paper-data="{&quot;index&quot;:null}" fill="#ce0000" stroke="#950000" stroke-width="3.5" stroke-linecap="butt"/><g data-paper-data="{&quot;index&quot;:null}" fill="#820000" stroke="none" stroke-width="0" stroke-linecap="butt"><path d="M266.45358,254.61116c1.33367,0 2.41483,1.15589 2.41483,2.58176c0,1.42587 -1.08115,2.58176 -2.41483,2.58176c-1.33367,0 -2.41484,-1.15589 -2.41484,-2.58176c0,-1.42587 1.08116,-2.58176 2.41484,-2.58176z"/><path d="M262.98579,259.59662c1.01175,0 1.83195,0.87689 1.83195,1.95858c0,1.08169 -0.82019,1.95858 -1.83195,1.95858c-1.01175,0 -1.83195,-0.87688 -1.83195,-1.95858c0,-1.08169 0.82019,-1.95858 1.83195,-1.95858z"/><path d="M262.24709,253.36479c0.73136,0 1.32427,0.55416 1.32427,1.23775c0,0.68359 -0.5929,1.23775 -1.32427,1.23775c-0.73136,0 -1.32426,-0.55416 -1.32426,-1.23775c0,-0.68359 0.59289,-1.23775 1.32426,-1.23775z"/></g><g data-paper-data="{&quot;index&quot;:null}" fill="#820000" stroke="none" stroke-width="0" stroke-linecap="butt"><path d="M268.95119,196.57166c1.33367,0 2.41483,1.1559 2.41483,2.58176c0,1.42586 -1.08116,2.58176 -2.41483,2.58176c-1.33367,0 -2.41483,-1.15589 -2.41483,-2.58176c0,-1.42586 1.08116,-2.58176 2.41483,-2.58176z"/><path d="M265.48339,201.55712c1.01175,0 1.83195,0.87689 1.83195,1.95858c0,1.08169 -0.82019,1.95858 -1.83195,1.95858c-1.01175,0 -1.83195,-0.87689 -1.83195,-1.95858c0,-1.08169 0.82019,-1.95858 1.83195,-1.95858z"/><path d="M264.74469,195.3253c0.73137,0 1.32427,0.55416 1.32427,1.23774c0,0.68359 -0.59289,1.23775 -1.32427,1.23775c-0.73137,0 -1.32427,-0.55416 -1.32427,-1.23775c0,-0.68359 0.59289,-1.23774 1.32427,-1.23774z"/></g><path d="M254.71535,307.28127v-25.0553h19.34651v25.0553z" data-paper-data="{&quot;index&quot;:null}" fill="#d3d3d3" stroke="#a0a0a0" stroke-width="3.5" stroke-linecap="butt"/><path d="M269.62167,283.17743v14.90632" data-paper-data="{&quot;index&quot;:null}" fill="none" stroke="#a0a0a0" stroke-width="3.5" stroke-linecap="round"/><path d="M264.23001,292.69211v-9.83182" data-paper-data="{&quot;index&quot;:null}" fill="none" stroke="#a0a0a0" stroke-width="3.5" stroke-linecap="round"/><path d="M258.83838,296.49798l-0.31716,-13.32054" data-paper-data="{&quot;index&quot;:null}" fill="none" stroke="#a0a0a0" stroke-width="3.5" stroke-linecap="round"/><path d="M253.76388,319.33319v-15.54063h28.86118v15.54063z" data-paper-data="{&quot;index&quot;:null}" fill="#393939" stroke="#2b2b2b" stroke-width="3.5" stroke-linecap="butt"/><g fill="#820000" stroke="none" stroke-width="0" stroke-linecap="butt"><path d="M208.44838,256.19292c0,1.42587 -1.08116,2.58176 -2.41483,2.58176c-1.33367,0 -2.41483,-1.15589 -2.41483,-2.58176c0,-1.42587 1.08116,-2.58176 2.41483,-2.58176c1.33367,0 2.41483,1.15589 2.41483,2.58176z"/><path d="M211.33329,260.5552c0,1.08169 -0.82019,1.95858 -1.83195,1.95858c-1.01175,0 -1.83195,-0.87688 -1.83195,-1.95858c0,-1.08169 0.82019,-1.95858 1.83195,-1.95858c1.01175,0 1.83195,0.87689 1.83195,1.95858z"/><path d="M211.5643,253.60254c0,0.68359 -0.59289,1.23775 -1.32426,1.23775c-0.73137,0 -1.32427,-0.55416 -1.32427,-1.23775c0,-0.68359 0.5929,-1.23775 1.32427,-1.23775c0.73137,0 1.32426,0.55416 1.32426,1.23775z"/></g><path d="M296.73849,154.63024c0,19.70553 -27.27086,37.10722 -53.28217,37.10722c-26.01131,0 -49.4763,-16.92596 -49.4763,-36.63149c0,-19.70553 24.41646,-36.63149 50.42776,-36.63149c26.01131,0 52.3307,16.45022 52.3307,36.15575z" fill="#ce0000" stroke="#950000" stroke-width="3.5" stroke-linecap="butt"/><path d="M200.14691,294.81509l2.22039,-9.57782" fill="none" stroke="#a0a0a0" stroke-width="3.5" stroke-linecap="round"/><path d="M206.57842,286.91527l-3.54219,12.84485" fill="none" stroke="#a0a0a0" stroke-width="3.5" stroke-linecap="round"/><g data-paper-data="{&quot;index&quot;:null}" fill="#820000" stroke="none" stroke-width="0" stroke-linecap="butt"><path d="M217.38965,170.19684c0,1.74471 -1.33555,3.1591 -2.98303,3.1591c-1.64748,0 -2.98303,-1.41438 -2.98303,-3.1591c0,-1.74471 1.33555,-3.1591 2.98303,-3.1591c1.64748,0 2.98303,1.41438 2.98303,3.1591z"/><path d="M220.95336,175.53464c0,1.32359 -1.01318,2.39657 -2.26299,2.39657c-1.24981,0 -2.26299,-1.07298 -2.26299,-2.39657c0,-1.32359 1.01318,-2.39657 2.26299,-2.39657c1.24981,0 2.26299,1.07298 2.26299,2.39657z"/><path d="M221.23872,167.02719c0,0.83645 -0.73239,1.51455 -1.63586,1.51455c-0.90347,0 -1.63586,-0.67809 -1.63586,-1.51455c0,-0.83645 0.73239,-1.51454 1.63586,-1.51454c0.90347,0 1.63586,0.67808 1.63586,1.51454z"/></g><g data-paper-data="{&quot;index&quot;:null}" fill="#820000" stroke="none" stroke-width="0" stroke-linecap="butt"><path d="M282.91226,150.54564c1.64748,0 2.98303,1.41438 2.98303,3.1591c0,1.74472 -1.33555,3.1591 -2.98303,3.1591c-1.64748,0 -2.98304,-1.41438 -2.98304,-3.1591c0,-1.74472 1.33556,-3.15911 2.98304,-3.15911z"/><path d="M289.459,159.04253c0,1.32358 -1.01318,2.39656 -2.26299,2.39656c-1.24981,0 -2.26299,-1.07297 -2.26299,-2.39656c0,-1.32359 1.01318,-2.39657 2.26299,-2.39657c1.24981,0 2.26299,1.07298 2.26299,2.39657z"/><path d="M289.74436,150.53509c0,0.83645 -0.73239,1.51455 -1.63586,1.51455c-0.90346,0 -1.63586,-0.67809 -1.63586,-1.51455c0,-0.83645 0.7324,-1.51454 1.63586,-1.51454c0.90347,0 1.63586,0.67808 1.63586,1.51454z"/></g><path d="M235.89472,145.15522c0,7.61947 -5.91113,13.79627 -13.20288,13.79627c-7.29175,0 -13.20288,-6.1768 -13.20288,-13.79627c0,-7.61947 5.91113,-13.79627 13.20288,-13.79627c7.29175,0 13.20288,6.1768 13.20288,13.79627z" fill="#ffffff" stroke="#000000" stroke-width="1.5" stroke-linecap="butt"/><path d="M225.10401,145.32336c0,0 6.19903,3.69164 5.34132,5.10267c-1.48686,2.44607 -3.86099,4.25313 -6.77656,4.25313c-4.59744,0 -8.32441,-4.01738 -8.32441,-8.97307c0,-4.95569 3.72696,-8.97307 8.32441,-8.97307c2.87167,0 5.40372,1.5674 6.90002,3.95182c0.89923,1.43296 -5.46478,4.63851 -5.46478,4.63851z" fill="#000000" stroke="none" stroke-width="0" stroke-linecap="butt"/><path d="M275.28546,145.5358c0,7.61947 -5.91113,13.79627 -13.20288,13.79627c-7.29175,0 -13.20288,-6.1768 -13.20288,-13.79627c0,-7.61947 5.91113,-13.79627 13.20288,-13.79627c7.29176,0 13.20288,6.1768 13.20288,13.79627z" fill="#ffffff" stroke="#000000" stroke-width="1.5" stroke-linecap="butt"/><path d="M263.8281,145.70395c0,0 6.19902,3.69165 5.34132,5.10267c-1.48687,2.44607 -3.86099,4.25313 -6.77657,4.25313c-4.59744,0 -8.32441,-4.01738 -8.32441,-8.97307c0,-4.95569 3.72696,-8.97307 8.32441,-8.97307c2.87167,0 5.40372,1.5674 6.90002,3.95182c0.89923,1.43296 -5.46478,4.63851 -5.46478,4.63851z" fill="#000000" stroke="none" stroke-width="0" stroke-linecap="butt"/><path d="M249.45056,164.11319c0,0 -4.53858,1.95268 -6.84466,1.88679c-2.1181,-0.06051 -6.47588,-2.26737 -6.47588,-2.26737" fill="none" stroke="#000000" stroke-width="1.5" stroke-linecap="round"/><g fill="#3c3c3c" stroke="#2c2c2c" stroke-width="3.5" stroke-linecap="butt"><path d="M252.43899,194.11026l-0.13019,-7.07829l9.66005,-7.17695l3.51918,18.00067z" data-paper-data="{&quot;index&quot;:null}"/><path d="M228.29114,196.98981l4.06302,-16.31713l8.67628,7.02936l-0.43095,6.47563z"/><path d="M252.36846,184.97194c2.49599,3.23636 1.85545,7.9145 -1.4307,10.4489c-3.28616,2.53439 -7.97352,1.96533 -10.46952,-1.27103c-2.49599,-3.23636 -1.85545,-7.9145 1.43071,-10.4489c3.28616,-2.53439 7.97351,-1.96533 10.46952,1.27103z"/></g><path d="M232.38786,169.76116c-3.78325,-3.43079 -3,-9.31376 -3,-9.31376h25.5c0,0 0.64167,5.42958 -1.2,7.91376c-1.84167,2.48417 -8.5051,4.9448 -10.45148,4.91415c-2.24437,-0.03534 -7.06527,-0.08336 -10.84852,-3.51415z" fill="#000000" stroke="#990000" stroke-width="1.5" stroke-linecap="butt"/><path d="M231.47536,164.39559v-2.25h21v2.25z" fill="#ffffff" stroke="none" stroke-width="0" stroke-linecap="butt"/><path d="M236.97536,171.02059v-2.125h9.625v2.125z" fill="#ffffff" stroke="none" stroke-width="0" stroke-linecap="butt"/></g></g></g></svg>