<svg version="1.1" xmlns="http://www.w3.org/2000/svg" xmlns:xlink="http://www.w3.org/1999/xlink" width="554.5" height="432.5" viewBox="0,0,554.5,432.5"><g transform="translate(33.75,10.4375)"><g data-paper-data="{&quot;isPaintingLayer&quot;:true}" fill-rule="nonzero" stroke-linecap="butt" stroke-linejoin="miter" stroke-miterlimit="10" stroke-dasharray="" stroke-dashoffset="0" style="mix-blend-mode: normal"><path d="M-30.5,281.8125v-289h545v289z" fill="#3c3c3c" stroke="#2a2a2a" stroke-width="6.5"/><path d="M-27.5,418.8125v-150h545v150z" fill="#4d4d4d" stroke="#2a2a2a" stroke-width="6.5"/><path d="M84.75,268.21875v-156.5h87.5v156.5z" fill="#6f6f6f" stroke="#2a2a2a" stroke-width="6.5"/><path d="M336.75,269.21875v-162.5h87.5v162.5z" fill="#6f6f6f" stroke="#2a2a2a" stroke-width="6.5"/><path d="M165.75,201.96875c0,2.62335 -8.05887,4.75 -18,4.75c-9.94113,0 -18,-2.12665 -18,-4.75c0,-2.62335 8.05887,-4.75 18,-4.75c9.94113,0 18,2.12665 18,4.75z" fill="#6f6f6f" stroke="#2a2a2a" stroke-width="5"/><text transform="translate(110.25,88.46875) scale(0.86836,0.86836)" font-size="40" xml:space="preserve" fill="#000000" fill-rule="nonzero" stroke="#000000" stroke-width="22" stroke-linecap="butt" stroke-linejoin="miter" stroke-miterlimit="10" stroke-dasharray="" stroke-dashoffset="0" font-family="Sans Serif" font-weight="normal" text-anchor="start" style="mix-blend-mode: normal"><tspan x="0" dy="0">operations room</tspan></text><path d="M219.66667,65.08333v-9.33333h13.33333v9.33333z" fill="#000000" stroke="none" stroke-width="0"/><text transform="translate(109,90.125) scale(0.89003,0.89003)" font-size="40" xml:space="preserve" fill="#ffffff" fill-rule="nonzero" stroke="#ffffff" stroke-width="1" stroke-linecap="butt" stroke-linejoin="miter" stroke-miterlimit="10" stroke-dasharray="" stroke-dashoffset="0" font-family="Sans Serif" font-weight="normal" text-anchor="start" style="mix-blend-mode: normal"><tspan x="0" dy="0">operations room</tspan></text><path d="M418.25,202.46875c0,2.62336 -8.05887,4.75 -18,4.75c-9.94112,0 -18,-2.12664 -18,-4.75c0,-2.62336 8.05888,-4.75 18,-4.75c9.94113,0 18,2.12664 18,4.75z" fill="#6f6f6f" stroke="#2a2a2a" stroke-width="5"/><path d="M-29.52402,49.37481v-33.03303h515.01502v33.03303z" fill="#515151" stroke="#2a2a2a" stroke-width="6.5"/></g></g></svg>