<svg version="1.1" xmlns="http://www.w3.org/2000/svg" xmlns:xlink="http://www.w3.org/1999/xlink" width="171.27961" height="146.57339" viewBox="0,0,171.27961,146.57339"><g transform="translate(-160.73702,-139.41897)"><g data-paper-data="{&quot;isPaintingLayer&quot;:true}" fill-rule="nonzero" stroke-linecap="butt" stroke-linejoin="miter" stroke-miterlimit="10" stroke-dasharray="" stroke-dashoffset="0" style="mix-blend-mode: normal"><path d="M277.80241,240.96566l-54.73837,-63.46917l28.54694,-24.34923l67.93373,85.24089l4.93387,7.01165l-5.26027,5.34067l-5.50209,-6.93613l-6.5353,4.6349l-16.78766,-17.3363z" fill="#2a96bd" stroke="#1e6b87" stroke-width="2"/><path d="M243.10662,281.0336l-15.39757,-40.02077l-1.70342,-29.79847l5.39118,-9.77537l17.37153,0.27232l6.26507,8.14799l2.50481,29.44572l-8.49756,41.45626z" fill="#2a96bd" stroke="#1e6b87" stroke-width="2"/><path d="M216.22802,203.17768v-46.35536h47.54396v46.35536z" fill="#36c0f3" stroke="#1e6b87" stroke-width="2"/><g data-paper-data="{&quot;index&quot;:null}" stroke="#1e6b87"><path d="M222.07918,188.79115v-17.29238h10.89284v17.29238z" fill="#ffffff" stroke-width="1.5"/><path d="M226.30015,184.16169v-12.11828h6.39954v12.11828z" fill="#2a96bd" stroke-width="2"/><path d="M217.44972,178.03447v-0.40849h3.54017v0.40849z" fill="#ffffff" stroke-width="1.5"/></g><path d="M210.95196,164.59252l0.13616,-10.3482l5.57986,-0.19172l-0.26899,-4.33101l48.81872,0.30353l0.06187,4.12565l5.85532,-0.17877l1.22545,10.62052h-42.20975l-0.18795,12.97548l0.11598,7.465l-9.18999,-0.08567l-1.0858,-7.32914l-9.25936,0.04574z" fill="#2a96bd" stroke="#1e6b87" stroke-width="2"/><g stroke="#1e6b87"><path d="M244.85592,188.82909v-17.29238h10.89284v17.29238z" fill="#ffffff" stroke-width="1.5"/><path d="M245.12824,184.19963v-12.11829h6.39954v12.11829z" fill="#2a96bd" stroke-width="2"/><path d="M256.83804,178.07241v-0.40848h3.54018v0.40848z" fill="#ffffff" stroke-width="1.5"/></g><path d="M234.89972,197.08684v-1.39122h8.88245v1.39122z" fill="#000000" stroke="none" stroke-width="NaN"/><path d="M243.24708,195.80263v-1.39122h3.74561v1.39122z" fill="#000000" stroke="none" stroke-width="0"/><path d="M231.96422,195.69905v-1.39122h3.74561v1.39122z" fill="#000000" stroke="none" stroke-width="0"/><path d="M217.68861,272.57189v-12.68175h14.02453v12.68175z" fill="#86dfff" stroke="#6cb2cc" stroke-width="2"/><path d="M251.96312,259.40606v-9.35741h10.3482v9.35741z" fill="#86dfff" stroke="#6cb2cc" stroke-width="2"/><path d="M233.81583,284.99236v-9.11116h10.07588v9.11116z" fill="#86dfff" stroke="#6cb2cc" stroke-width="2"/><path d="M226.01675,248.20413v-8.98804h9.93972v8.98804z" fill="#86dfff" stroke="#6cb2cc" stroke-width="2"/><path d="M246.40288,243.49472v-14.52861h16.06694v14.52861z" fill="#86dfff" stroke="#6cb2cc" stroke-width="2"/><path d="M185.96981,162.50918l36.26004,51.89196l-9.30306,5.72515l-36.26004,-51.89196z" fill="#2a96bd" stroke="#1e6b87" stroke-width="2"/><path d="M180.01751,150.425l7.97717,9.9605l-12.37876,11.20714l-7.97717,-9.9605l-5.54597,-6.76233l3.76755,-3.66535l6.17681,6.44559l-7.30333,-9.78536l9.14939,-6.99222z" fill="#86dfff" stroke="#6cb2cc" stroke-width="2"/><path d="M313.57787,179.14916l-46.53257,42.92185l-7.861,-7.58478l46.53257,-42.92186z" data-paper-data="{&quot;index&quot;:null}" fill="#2a96bd" stroke="#1e6b87" stroke-width="2"/><path d="M322.15704,153.01839l7.43953,8.78953l-9.22963,7.99411l7.41396,-4.97311l2.8951,4.38721l-6.8656,5.41761l-9.92534,8.02086l-9.69124,-13.5983l9.92534,-8.02086z" data-paper-data="{&quot;index&quot;:null}" fill="#86dfff" stroke="#6cb2cc" stroke-width="2"/><path d="M202.42304,209.36044v-8.98804h9.93972v8.98804z" fill="#86dfff" stroke="#6cb2cc" stroke-width="2"/><path d="M222.67302,224.30016v-8.98804h9.93972v8.98804z" fill="#86dfff" stroke="#6cb2cc" stroke-width="2"/><path d="M251.90959,216.90955v-8.98804h9.93972v8.98804z" fill="#86dfff" stroke="#6cb2cc" stroke-width="2"/><path d="M275.69973,227.21981v-8.98804h9.93972v8.98804z" fill="#86dfff" stroke="#6cb2cc" stroke-width="2"/><text transform="translate(206.23562,175.89179) scale(0.41385,0.41385)" font-size="40" xml:space="preserve" fill="#00dc12" fill-rule="nonzero" stroke="#00930c" stroke-width="1" stroke-linecap="butt" stroke-linejoin="miter" stroke-miterlimit="10" stroke-dasharray="" stroke-dashoffset="0" font-family="Pixel" font-weight="normal" text-anchor="start" style="mix-blend-mode: normal"><tspan x="0" dy="0">succsed</tspan></text></g></g></svg>