<svg version="1.1" xmlns="http://www.w3.org/2000/svg" xmlns:xlink="http://www.w3.org/1999/xlink" width="111.78629" height="142.44469" viewBox="0,0,111.78629,142.44469"><g transform="translate(-185.60399,-130.12599)"><g data-paper-data="{&quot;isPaintingLayer&quot;:true}" fill-rule="nonzero" stroke-linejoin="miter" stroke-miterlimit="10" stroke-dasharray="" stroke-dashoffset="0" style="mix-blend-mode: normal"><path d="M226.17386,163.22541c-1.11306,-0.38817 -2.4604,-0.4971 -3.41918,-1.46303c-0.17189,-0.17317 -1.51239,-1.87824 -1.64703,-1.83635c-5.02023,1.56212 -6.30772,2.218 -9.24663,-4.95644c-0.43551,-1.06317 0.65409,-2.27562 1.04605,-3.37128c1.56851,-4.38451 4.81784,-4.8921 8.09931,-7.14162c2.01469,-1.38111 4.73266,-2.7688 6.5824,-4.75361c0.38981,-0.41827 0.91957,-3.34006 1.18377,-3.95432c0.54919,-1.27685 2.05359,-2.19187 2.93211,-2.84547c0.94058,-0.69978 5.28399,0.26391 5.4444,0.03768c2.12052,-2.99044 2.53053,-2.94501 5.88023,-2.72621c4.02743,0.26307 8.48064,6.1716 6.0271,11.87596c-1.1001,2.55767 -2.85392,3.3893 -4.61702,4.7509c-0.32835,0.25358 -0.19042,1.65771 -0.40376,2.25292c-0.9818,2.73916 -2.14915,5.72758 -3.50211,8.15166c-2.16,3.87004 -6.07122,4.90217 -9.15959,5.97921z" fill="#b78f54" stroke="none" stroke-width="0.5" stroke-linecap="butt"/><g data-paper-data="{&quot;index&quot;:null}" fill="#ffaa2b" stroke="#c08021" stroke-width="2" stroke-linecap="butt"><path d="M278.75678,188.35445c-4.00506,-12.25237 -16.99409,-17.71903 -14.09011,-17.71903c1.87831,0 10.11098,2.19481 16.98679,8.17817c6.43375,5.59868 11.59653,14.7011 11.59653,23.15517c0,8.16146 -3.76622,17.00772 -9.93086,22.70005c-7.04543,6.50564 -16.71332,9.29995 -18.65247,9.29995c-2.75322,0 9.11637,-6.29854 13.42322,-18.16429c1.38074,-3.80406 3.99345,-10.92335 3.99345,-15.16905c0,-3.52054 -2.31714,-9.19295 -3.32655,-12.28097z"/><path d="M271.00002,219.13542c5.47683,0 9.91667,4.7036 9.91667,10.50578c0,5.80218 -4.43985,10.50578 -9.91667,10.50578c-5.47682,0 -9.91666,-4.7036 -9.91666,-10.50578c0,-5.80218 4.43984,-10.50577 9.91666,-10.50577z"/></g><g fill="#ffaa2b" stroke="#c08021" stroke-width="2" stroke-linecap="butt"><path d="M201.75002,197.63542c0,4.24569 2.61271,11.36499 3.99344,15.16905c4.30684,11.86575 16.17644,18.16429 13.42322,18.16429c-1.93915,0 -11.60703,-2.79431 -18.65247,-9.29995c-6.16464,-5.69233 -9.93087,-14.53859 -9.93087,-22.70005c0,-8.45407 5.16278,-17.55649 11.59653,-23.15517c6.87581,-5.98336 15.10848,-8.17816 16.9868,-8.17816c2.90397,0 -10.08506,5.46666 -14.09011,17.71903c-1.00941,3.08802 -3.32655,8.76043 -3.32655,12.28097z"/><path d="M222.75002,226.64119c0,5.80218 -4.43984,10.50578 -9.91667,10.50578c-5.47682,0 -9.91667,-4.7036 -9.91667,-10.50578c0,-5.80218 4.43984,-10.50578 9.91667,-10.50578c5.47682,0 9.91667,4.7036 9.91667,10.50578z"/></g><path d="M253.17554,212.80209c4.2802,0 7.58333,0.06598 7.58333,15.43377c0,10.84868 0.68833,27.77693 -1.98095,35.60219c-1.11191,3.25969 -5.01039,3.26388 -6.26905,3.26388c-1.18703,0 -13.93994,2.39642 -14.89001,-0.54354c-0.27519,-0.85159 -0.08351,-5.24319 0.85945,-6.82424c1.35464,-2.27131 6.22785,-1.93361 6.49802,-3.94762c1.23361,-9.19595 0.28254,-19.45287 0.28254,-27.55068c0,-15.36779 3.63646,-15.43377 7.91667,-15.43377z" data-paper-data="{&quot;index&quot;:null}" fill="#ffaa2b" stroke="#c08021" stroke-width="2" stroke-linecap="butt"/><path d="M231.00888,209.80209c4.2802,0 7.58334,0.06598 7.58334,15.43377c0,10.84868 0.68833,27.77693 -1.98095,35.60219c-1.11192,3.25969 -5.01039,3.26388 -6.26905,3.26388c-1.18703,0 -13.93994,2.39642 -14.89001,-0.54354c-0.2752,-0.8516 -0.08351,-5.24319 0.85944,-6.82424c1.35464,-2.27131 6.22785,-1.93361 6.49802,-3.94762c1.2336,-9.19595 0.28254,-19.45287 0.28254,-27.55068c0,-15.36779 3.63646,-15.43377 7.91666,-15.43377z" data-paper-data="{&quot;index&quot;:null}" fill="#ffaa2b" stroke="#c08021" stroke-width="2" stroke-linecap="butt"/><path d="M229.91669,192.05209c0,6.02911 -4.51446,10.91666 -10.08333,10.91666c-5.56887,0 -10.08334,-4.88755 -10.08334,-10.91666c0,-6.02911 4.51447,-10.91667 10.08334,-10.91667c5.56887,0 10.08333,4.88756 10.08333,10.91667z" fill="#cc8823" stroke="#c08021" stroke-width="0" stroke-linecap="butt"/><path d="M235.06427,208.05209c0,3.08359 -2.30892,5.58333 -5.15712,5.58333c-2.8482,0 -5.15713,-2.49974 -5.15713,-5.58333c0,-3.08359 2.30893,-5.58334 5.15713,-5.58334c2.8482,0 5.15712,2.49975 5.15712,5.58334z" fill="#cc8823" stroke="#c08021" stroke-width="0" stroke-linecap="butt"/><path d="M237.71567,187.96875c0,1.933 -1.44739,3.5 -3.23283,3.5c-1.78544,0 -3.23282,-1.567 -3.23282,-3.5c0,-1.933 1.44738,-3.5 3.23282,-3.5c1.78544,0 3.23283,1.567 3.23283,3.5z" fill="#cc8823" stroke="#c08021" stroke-width="0" stroke-linecap="butt"/><path d="M258.25002,170.13542c0,2.20914 -1.26853,4 -2.83334,4c-1.56481,0 -2.83333,-1.79086 -2.83333,-4c0,-2.20914 1.26852,-4 2.83333,-4c1.56481,0 2.83334,1.79086 2.83334,4z" fill="#cc8823" stroke="none" stroke-width="0" stroke-linecap="butt"/><path d="M236.25002,168.80209c0,6.71946 -5.4099,12.16666 -12.08334,12.16666c-6.67344,0 -12.08333,-5.4472 -12.08333,-12.16666c0,-6.71946 5.40989,-12.16667 12.08333,-12.16667c6.67344,0 12.08334,5.44721 12.08334,12.16667z" fill="#fbfbfb" stroke="#000000" stroke-width="1.5" stroke-linecap="butt"/><path d="M269.41668,168.46875c0,6.71947 -5.4099,12.16666 -12.08334,12.16666c-6.67344,0 -12.08333,-5.4472 -12.08333,-12.16666c0,-6.71947 5.40989,-12.16667 12.08333,-12.16667c6.67344,0 12.08334,5.4472 12.08334,12.16667z" fill="#fbfbfb" stroke="#000000" stroke-width="1.5" stroke-linecap="butt"/><path d="M228.75336,170.50419c0,0 4.87773,2.89197 3.98435,4.14453c-1.44941,2.03215 -3.87335,3.36399 -6.61891,3.36399c-4.43785,0 -8.03544,-3.47964 -8.03544,-7.77198c0,-4.29235 3.59759,-7.77197 8.03544,-7.77197c2.99149,0 5.60118,1.58113 6.98448,3.92649c0.66881,1.13395 -4.34992,4.10895 -4.34992,4.10895z" fill="#000000" stroke="none" stroke-width="0" stroke-linecap="butt"/><path d="M257.58669,170.67085c0,0 4.87773,2.89197 3.98435,4.14453c-1.44941,2.03215 -3.87336,3.36399 -6.61891,3.36399c-4.43785,0 -8.03544,-3.47964 -8.03544,-7.77198c0,-4.29235 3.59759,-7.77197 8.03544,-7.77197c2.9915,0 5.60118,1.58113 6.98449,3.92649c0.66881,1.13395 -4.34992,4.10895 -4.34992,4.10895z" fill="#000000" stroke="none" stroke-width="0" stroke-linecap="butt"/><path d="M228.08336,202.30209c0,0 6.99169,-23.50755 11.19364,-23.60701c5.03534,-0.11918 16.97303,22.94034 16.97303,22.94034" fill="none" stroke="#000000" stroke-width="2.5" stroke-linecap="round"/><path d="M234.75002,203.63542l-12.5,-0.83333" fill="none" stroke="#000000" stroke-width="2.5" stroke-linecap="round"/><path d="M250.75001,201.96875l8.83333,-0.16666" fill="none" stroke="#000000" stroke-width="2.5" stroke-linecap="round"/><path d="M234.25002,234.80208c0,3.31371 -2.16396,6 -4.83333,6c-2.66938,0 -4.83333,-2.68629 -4.83333,-6c0,-3.31371 2.16396,-6 4.83333,-6c2.66938,0 4.83333,2.68629 4.83333,6z" fill="#cc8823" stroke="none" stroke-width="0" stroke-linecap="butt"/><path d="M236.41669,246.55208c0,2.34721 -1.49238,4.25 -3.33333,4.25c-1.84095,0 -3.33333,-1.90279 -3.33333,-4.25c0,-2.34721 1.49238,-4.25 3.33333,-4.25c1.84095,0 3.33333,1.90279 3.33333,4.25z" fill="#cc8823" stroke="none" stroke-width="0" stroke-linecap="butt"/><path d="M236.25002,227.96875c0,1.01252 -0.63426,1.83333 -1.41667,1.83333c-0.7824,0 -1.41667,-0.82081 -1.41667,-1.83333c0,-1.01252 0.63426,-1.83333 1.41667,-1.83333c0.7824,0 1.41667,0.82081 1.41667,1.83333z" fill="#cc8823" stroke="none" stroke-width="0" stroke-linecap="butt"/><path d="M256.41668,260.05208c0,2.7154 -2.08934,4.91667 -4.66667,4.91667c-2.57733,0 -4.66667,-2.20127 -4.66667,-4.91667c0,-2.7154 2.08934,-4.91667 4.66667,-4.91667c2.57733,0 4.66667,2.20127 4.66667,4.91667z" fill="#cc8823" stroke="none" stroke-width="0" stroke-linecap="butt"/><path d="M255.58335,248.96875c0,1.84095 -1.52969,3.33333 -3.41667,3.33333c-1.88697,0 -3.41667,-1.49238 -3.41667,-3.33333c0,-1.84095 1.52969,-3.33333 3.41667,-3.33333c1.88697,0 3.41667,1.49238 3.41667,3.33333z" fill="#cc8823" stroke="none" stroke-width="0" stroke-linecap="butt"/><path d="M259.41668,252.05208c0,0.87445 -0.67157,1.58333 -1.5,1.58333c-0.82843,0 -1.5,-0.70888 -1.5,-1.58333c0,-0.87445 0.67157,-1.58333 1.5,-1.58333c0.82843,0 1.5,0.70888 1.5,1.58333z" fill="#cc8823" stroke="none" stroke-width="0" stroke-linecap="butt"/><g data-paper-data="{&quot;index&quot;:null}" fill="#5d3e10" stroke="#422c0b" stroke-width="2" stroke-linecap="butt"><path d="M278.75678,188.35445c-4.00506,-12.25237 -16.99409,-17.71903 -14.09011,-17.71903c1.87831,0 10.11098,2.19481 16.98679,8.17817c6.43375,5.59868 11.59653,14.7011 11.59653,23.15517c0,8.16146 -3.76622,17.00772 -9.93086,22.70005c-7.04543,6.50564 -16.71332,9.29995 -18.65247,9.29995c-2.75322,0 9.11637,-6.29854 13.42322,-18.16429c1.38074,-3.80406 3.99345,-10.92335 3.99345,-15.16905c0,-3.52054 -2.31714,-9.19295 -3.32655,-12.28097z"/><path d="M271.00003,219.13542c5.47683,0 9.91667,4.7036 9.91667,10.50578c0,5.80218 -4.43985,10.50578 -9.91667,10.50578c-5.47682,0 -9.91666,-4.7036 -9.91666,-10.50578c0,-5.80218 4.43984,-10.50577 9.91666,-10.50577z"/></g><g fill="#7b5215" stroke="#5f3f10" stroke-width="2" stroke-linecap="butt"><path d="M201.75003,197.63542c0,4.24569 2.61271,11.36499 3.99344,15.16905c4.30684,11.86575 16.17644,18.16429 13.42322,18.16429c-1.93915,0 -11.60703,-2.79431 -18.65247,-9.29995c-6.16464,-5.69233 -9.93087,-14.53859 -9.93087,-22.70005c0,-8.45407 5.16278,-17.55649 11.59653,-23.15517c6.87581,-5.98336 15.10848,-8.17816 16.9868,-8.17816c2.90397,0 -10.08506,5.46666 -14.09011,17.71903c-1.00941,3.08802 -3.32655,8.76043 -3.32655,12.28097z"/><path d="M222.75003,226.64119c0,5.80218 -4.43984,10.50578 -9.91667,10.50578c-5.47682,0 -9.91667,-4.7036 -9.91667,-10.50578c0,-5.80218 4.43984,-10.50578 9.91667,-10.50578c5.47682,0 9.91667,4.7036 9.91667,10.50578z"/></g><path d="M253.17555,212.80209c4.2802,0 7.58333,0.06598 7.58333,15.43377c0,10.84868 0.68833,27.77693 -1.98095,35.60219c-1.11191,3.25969 -5.01039,3.26388 -6.26905,3.26388c-1.18703,0 -13.93994,2.39642 -14.89001,-0.54354c-0.27519,-0.85159 -0.08351,-5.24319 0.85945,-6.82424c1.35464,-2.27131 6.22785,-1.93361 6.49802,-3.94762c1.23361,-9.19595 0.28254,-19.45287 0.28254,-27.55068c0,-15.36779 3.63646,-15.43377 7.91667,-15.43377z" data-paper-data="{&quot;index&quot;:null}" fill="#634211" stroke="#271a07" stroke-width="2" stroke-linecap="butt"/><path d="M231.00889,209.80209c4.2802,0 7.58334,0.06598 7.58334,15.43377c0,10.84868 0.68833,27.77693 -1.98095,35.60219c-1.11192,3.25969 -5.01039,3.26388 -6.26905,3.26388c-1.18703,0 -13.93994,2.39642 -14.89001,-0.54354c-0.2752,-0.8516 -0.08351,-5.24319 0.85944,-6.82424c1.35464,-2.27131 6.22785,-1.93361 6.49802,-3.94762c1.2336,-9.19595 0.28254,-19.45287 0.28254,-27.55068c0,-15.36779 3.63646,-15.43377 7.91666,-15.43377z" data-paper-data="{&quot;index&quot;:null}" fill="#734d14" stroke="#271a07" stroke-width="2" stroke-linecap="butt"/><path d="M271.65375,179.529c0,4.91313 -0.44014,9.42211 -1.26436,13.51273c-0.52297,2.59555 -11.53801,-1.58404 -12.35593,0.67102c-0.44509,1.22714 9.4057,9.01005 8.87982,10.13471c-2.42503,5.18622 -5.93466,7.27547 -9.80232,10.21262c-4.77867,3.62899 -10.2356,7.49863 -16.44426,7.49863c-6.39672,0 -12.43953,-1.98347 -17.53099,-5.83216c-1.5507,-1.17219 4.99122,-9.2711 3.63389,-10.786c-0.76242,-0.85093 -9.49603,4.9983 -10.18912,4.04089c-5.09363,-7.03621 -8.23417,-16.93203 -8.23417,-29.45246c0,-5.1906 -0.30623,-9.76744 0.33474,-14.22493c0.31504,-2.19092 3.19226,-3.51023 4.1138,-5.70218c0.60297,-1.4342 -0.96571,-3.72397 0.00231,-5.20019c1.50315,-2.29229 22.83439,1.25295 24.92249,-1.46812c5.49321,-7.15841 3.08241,-20.65952 11.36905,-20.65952c17.48187,0 22.56506,20.03967 22.56506,47.25494z" fill="#734d14" stroke="#442d0c" stroke-width="2" stroke-linecap="butt"/><path d="M258.25003,170.13542c0,2.20914 -1.26853,4 -2.83334,4c-1.56481,0 -2.83333,-1.79086 -2.83333,-4c0,-2.20914 1.26852,-4 2.83333,-4c1.56481,0 2.83334,1.79086 2.83334,4z" fill="#cc8823" stroke="none" stroke-width="0" stroke-linecap="butt"/><path d="M236.25003,168.80209c0,6.71946 -5.4099,12.16666 -12.08334,12.16666c-6.67344,0 -12.08333,-5.4472 -12.08333,-12.16666c0,-6.71946 5.40989,-12.16667 12.08333,-12.16667c6.67344,0 12.08334,5.44721 12.08334,12.16667z" fill="#fbfbfb" stroke="#000000" stroke-width="1.5" stroke-linecap="butt"/><path d="M269.41668,168.46875c0,6.71947 -5.4099,12.16666 -12.08334,12.16666c-6.67344,0 -12.08333,-5.4472 -12.08333,-12.16666c0,-6.71947 5.40989,-12.16667 12.08333,-12.16667c6.67344,0 12.08334,5.4472 12.08334,12.16667z" fill="#fbfbfb" stroke="#000000" stroke-width="1.5" stroke-linecap="butt"/><path d="M225.00132,171.75487c0,0 4.87773,2.89197 3.98435,4.14453c-1.44941,2.03215 -3.87335,3.36399 -6.61891,3.36399c-4.43785,0 -8.03544,-3.47964 -8.03544,-7.77198c0,-4.29235 3.59759,-7.77197 8.03544,-7.77197c2.99149,0 5.60118,1.58113 6.98448,3.92649c0.66881,1.13395 -4.34992,4.10895 -4.34992,4.10895z" fill="#000000" stroke="none" stroke-width="0" stroke-linecap="butt"/><path d="M261.33875,166.9188c0,0 4.87773,2.89197 3.98435,4.14453c-1.44941,2.03215 -3.87336,3.36399 -6.61891,3.36399c-4.43785,0 -8.03544,-3.47964 -8.03544,-7.77198c0,-4.29235 3.59759,-7.77197 8.03544,-7.77197c2.9915,0 5.60118,1.58113 6.98449,3.92649c0.66881,1.13395 -4.34992,4.10895 -4.34992,4.10895z" fill="#000000" stroke="none" stroke-width="0" stroke-linecap="butt"/><path d="M222.83241,148.63815l12.83333,12.66667" fill="none" stroke="#000000" stroke-width="2.5" stroke-linecap="round"/><path d="M243.58281,160.97148l14.33333,-10.66666" fill="none" stroke="#000000" stroke-width="2.5" stroke-linecap="round"/><path d="M265.10105,253.82086c-0.41408,5.00329 -2.73903,17.09379 -8.80347,18.25455c-4.89182,0.93632 -11.85808,0.26361 -15.38554,0.23093c-2.43191,-0.02253 -5.81421,-0.88792 -8.0241,-1.83254c-2.34738,-1.0034 -3.65747,-2.97492 -4.20741,-5.2149c-2.81224,1.08477 -5.57768,1.75663 -7.16087,1.8115c-2.86589,0.09932 -7.8909,0.47926 -9.56129,-2.44392c-2.04077,-3.57135 -3.06468,-10.23529 -0.73995,-13.7877c1.48217,-2.26489 3.91501,-3.0278 5.8147,-4.67758c0.56762,-0.49295 1.55398,-5.30176 1.98238,-6.30136c-0.6122,-0.57703 -1.06263,-1.32379 -1.27609,-2.16507c-2.51967,1.61191 -5.83349,2.23399 -10.13793,1.70409c-1.70395,-0.20977 -3.5945,-0.64796 -4.887,-1.75582c-1.9618,-1.68154 -4.21744,-3.91449 -4.31151,-6.68222c-0.05727,-1.68491 0.51087,-3.50399 -0.1488,-5.05545c-1.08092,-2.54216 -3.75802,-3.68907 -5.41908,-5.71539c-1.91345,-2.33421 -1.76586,-6.98066 -2.9478,-9.83411c-1.43247,-3.45829 -3.15677,-6.52633 -4.12446,-10.39708c-0.10355,-0.37885 -0.15883,-0.77762 -0.15883,-1.18931c0,-2.20683 1.58856,-4.04264 3.68455,-4.4263c0.95508,-0.97474 0.61955,-3.42761 2.25,-4.35929c3.20891,-1.83366 10.39258,1.05725 12.22893,3.94293c1.81298,2.84898 2.10513,7.05945 3.59849,10.20697c0.62301,1.3131 0.57145,4.11068 1.70719,5.06522c1.28505,1.08003 2.49011,0.7101 4.03813,0.60161c-2.43482,-4.17326 -4.25187,-8.38231 -5.80928,-12.9206c-1.83556,-5.34885 -3.12287,-13.24547 0.91576,-17.97375c2.97362,-3.48141 9.1113,-1.14362 13.68974,-1.12032c3.76007,0.01914 7.86416,-0.1619 11.8768,-0.61725c0.70976,-0.4679 1.55986,-0.74021 2.47356,-0.74021c0.47656,0 0.93583,0.07408 1.3669,0.21136c1.6663,-0.27289 3.29043,-0.59999 4.83866,-0.98705h8.53265c7.2518,1.81295 14.92013,-2.01212 19.99743,4.79165c1.48196,1.98588 2.64308,4.82819 2.02486,7.30107c-0.20154,0.80618 -1.65717,1.96402 -1.57105,2.77151c0.14396,1.34987 1.91779,2.28045 1.91779,4.23768c0,6.30969 -2.36716,12.95457 -6.33982,18.25836c1.12596,-0.20525 2.28659,-0.26289 3.4645,-0.15006c1.24732,0.11948 1.01876,-2.28989 1.55517,-3.4223c0.72604,-1.53276 2.93217,-2.32312 2.95792,-4.36444c0.00148,-0.11764 -0.3025,-5.36372 0.00325,-8.41877c0.01067,-0.28271 0.04742,-0.55874 0.10791,-0.82577c0.45417,-2.00474 2.24671,-3.5015 4.38883,-3.5015c1.10358,0 2.11437,0.39726 2.89719,1.05657c0.49448,0.02011 2.65575,-2.40129 3.13931,-2.8218c3.08101,-2.67931 7.48923,-1.6346 10.14799,0.8408c3.1572,2.93946 1.1341,9.68824 0.19282,13.34961c-2.01462,7.83638 -3.95463,13.55139 -9.03817,19.60645c-1.83389,2.18437 -1.88285,5.8709 -3.12029,8.4175c-1.718,3.53557 -3.85902,9.33409 -8.29125,9.85664c-2.70603,0.31904 -5.79539,0.2705 -8.74772,-0.31607c-0.21378,3.87653 -1.29897,8.08469 -1.58171,11.50094zM249.05684,230.53322c0.57675,-0.01991 1.13406,0.03422 1.67767,0.12013c0.333,-0.07856 0.68028,-0.12013 1.03727,-0.12013c0.88652,0 1.71317,0.25635 2.40985,0.69898c0.08685,0.00367 0.17331,0.0071 0.2594,0.01033c-0.5922,-3.17391 0.0028,-6.44361 1.42212,-9.33178c-2.31881,0.93677 -4.79666,1.47906 -7.38807,1.5268c-7.67348,0.14138 -16.37036,-0.27409 -23.61287,-3.36872c-0.0385,2.05661 -0.42754,4.19434 -0.78178,6.11244c-0.37429,2.0267 -0.88548,3.85393 -1.5594,5.46038c4.86472,-1.28439 13.07031,-1.40756 16.93113,2.0037c1.9281,-1.96454 4.8773,-2.94896 9.60468,-3.11212z" fill="#476400" stroke="none" stroke-width="0.5" stroke-linecap="butt"/><path d="M246.62495,190.49398c0,6.07845 -3.13572,11.00601 -7.00382,11.00601c-3.86811,0 -7.00382,-4.92756 -7.00382,-11.00601c0,-6.07845 3.13572,-11.00601 7.00382,-11.00601c3.86811,0 7.00382,4.92756 7.00382,11.00601z" fill="#ffffff" stroke="#000000" stroke-width="2.5" stroke-linecap="butt"/><path d="M236.61949,199.4989v-17.50956" fill="none" stroke="#000000" stroke-width="2.5" stroke-linecap="round"/><path d="M241.37208,180.98879l0.75041,18.51011" fill="none" stroke="#000000" stroke-width="2.5" stroke-linecap="round"/><path d="M236.31168,139.00014c0.93492,-0.88624 0.30876,-3.08941 0.30876,-4.53675c0,0 0,-1.75 1.75,-1.75c1.75,0 1.75,1.75 1.75,1.75c0,1.47839 0.47376,4.82224 -0.20707,6.07862c-0.4189,0.77301 -1.38202,1.08726 -2.07302,1.63088l-1.22086,0.29391c0,0 -0.53388,0 -1.01188,-0.29488c-0.05157,0.50758 -0.31585,0.96133 -0.60623,1.40847c0.21184,0.476 0.30365,1.17588 -0.39623,1.87576c-1.23744,1.23744 -2.47487,0 -2.47487,0l-0.78226,-2.60595c0.25761,-0.32754 0.70643,-0.57124 0.77283,-0.98263c0.17985,-1.11438 -1.74117,-1.65422 -1.95988,-2.76163c-0.1848,-0.93569 0.33897,-1.87717 0.50846,-2.81576c0,0 0.42444,-1.69775 2.12219,-1.27331c1.69775,0.42444 1.27331,2.12219 1.27331,2.12219c-0.678,1.63467 0.28026,1.86976 0.96628,2.76595c0.29091,-0.62976 0.9069,-0.8368 1.28048,-0.90487zM235.92041,139.25194l-0.02152,0.00878c0.00722,-0.00288 0.0144,-0.00581 0.02152,-0.00878z" fill="#745b35" stroke="none" stroke-width="0.5" stroke-linecap="butt"/><path d="M220.5975,144.98237c1.23744,1.23744 0,2.47487 0,2.47487l-0.76698,0.71892c-0.89889,0.58423 -1.70032,1.33476 -2.37784,2.1656c0,0 -1.12032,1.34439 -2.46471,0.22406c-1.34439,-1.12032 -0.22406,-2.46471 -0.22406,-2.46471c0.90957,-1.07342 1.96143,-2.0464 3.12516,-2.83713l0.23356,-0.28162c0,0 1.23744,-1.23744 2.47487,0z" fill="#745b35" stroke="none" stroke-width="0.5" stroke-linecap="butt"/><path d="M237.60679,145.98291c1.23744,1.23744 0,2.47487 0,2.47487l-1.81842,1.63004c-0.80688,0.0444 -1.61377,0.08881 -2.42065,0.13321c0,0 -1.75,0 -1.75,-1.75c0,-1.75 1.75,-1.75 1.75,-1.75c0.36042,0.0444 0.72084,0.08881 1.08126,0.13321l0.68294,-0.87133c0,0 1.23744,-1.23744 2.47487,0z" fill="#745b35" stroke="none" stroke-width="0.5" stroke-linecap="butt"/></g></g></svg>