<svg version="1.1" xmlns="http://www.w3.org/2000/svg" xmlns:xlink="http://www.w3.org/1999/xlink" width="1008.75751" height="356.86562" viewBox="0,0,1008.75751,356.86562"><defs><linearGradient x1="28.9074" y1="208.59205" x2="53.61498" y2="208.59205" gradientUnits="userSpaceOnUse" id="color-1"><stop offset="0" stop-color="#ccfaff"/><stop offset="1" stop-color="#5ef7ff"/></linearGradient><linearGradient x1="-3.0926" y1="161.09205" x2="29.11498" y2="161.09205" gradientUnits="userSpaceOnUse" id="color-2"><stop offset="0" stop-color="#ccfaff"/><stop offset="1" stop-color="#5ef7ff"/></linearGradient><linearGradient x1="124.9074" y1="186.59205" x2="161.61498" y2="186.59205" gradientUnits="userSpaceOnUse" id="color-3"><stop offset="0" stop-color="#ccfaff"/><stop offset="1" stop-color="#5ef7ff"/></linearGradient><linearGradient x1="180.41643" y1="186.59205" x2="217.12401" y2="186.59205" gradientUnits="userSpaceOnUse" id="color-4"><stop offset="0" stop-color="#ccfaff"/><stop offset="1" stop-color="#5ef7ff"/></linearGradient><linearGradient x1="235.92545" y1="186.59205" x2="272.63303" y2="186.59205" gradientUnits="userSpaceOnUse" id="color-5"><stop offset="0" stop-color="#ccfaff"/><stop offset="1" stop-color="#5ef7ff"/></linearGradient><linearGradient x1="293.22509" y1="195.54512" x2="326.35144" y2="195.54512" gradientUnits="userSpaceOnUse" id="color-6"><stop offset="0" stop-color="#ccfaff"/><stop offset="1" stop-color="#5ef7ff"/></linearGradient><linearGradient x1="428.9074" y1="187.09205" x2="465.61498" y2="187.09205" gradientUnits="userSpaceOnUse" id="color-7"><stop offset="0" stop-color="#ccfaff"/><stop offset="1" stop-color="#5ef7ff"/></linearGradient><linearGradient x1="484.41643" y1="187.09205" x2="521.12401" y2="187.09205" gradientUnits="userSpaceOnUse" id="color-8"><stop offset="0" stop-color="#ccfaff"/><stop offset="1" stop-color="#5ef7ff"/></linearGradient><linearGradient x1="539.92545" y1="187.09205" x2="576.63303" y2="187.09205" gradientUnits="userSpaceOnUse" id="color-9"><stop offset="0" stop-color="#ccfaff"/><stop offset="1" stop-color="#5ef7ff"/></linearGradient><linearGradient x1="597.22509" y1="196.04512" x2="630.35144" y2="196.04512" gradientUnits="userSpaceOnUse" id="color-10"><stop offset="0" stop-color="#ccfaff"/><stop offset="1" stop-color="#5ef7ff"/></linearGradient><linearGradient x1="116.53813" y1="48.09042" x2="64.21362" y2="48.09042" gradientUnits="userSpaceOnUse" id="color-11"><stop offset="0" stop-color="#f1f1f1"/><stop offset="1" stop-color="#e6e6e6"/></linearGradient><linearGradient x1="97.57594" y1="41.53591" x2="45.25143" y2="41.53591" gradientUnits="userSpaceOnUse" id="color-12"><stop offset="0" stop-color="#f1f1f1"/><stop offset="1" stop-color="#e6e6e6"/></linearGradient><linearGradient x1="97.05986" y1="27.51179" x2="44.73535" y2="27.51179" gradientUnits="userSpaceOnUse" id="color-13"><stop offset="0" stop-color="#f1f1f1"/><stop offset="1" stop-color="#e6e6e6"/></linearGradient><linearGradient x1="61.91546" y1="25.85221" x2="30.06577" y2="25.85221" gradientUnits="userSpaceOnUse" id="color-14"><stop offset="0" stop-color="#f1f1f1"/><stop offset="1" stop-color="#e6e6e6"/></linearGradient><linearGradient x1="130.70681" y1="53.36193" x2="97.34046" y2="53.36193" gradientUnits="userSpaceOnUse" id="color-15"><stop offset="0" stop-color="#f1f1f1"/><stop offset="1" stop-color="#e6e6e6"/></linearGradient><linearGradient x1="228.23445" y1="73.09042" x2="280.55896" y2="73.09042" gradientUnits="userSpaceOnUse" id="color-16"><stop offset="0" stop-color="#f1f1f1"/><stop offset="1" stop-color="#e6e6e6"/></linearGradient><linearGradient x1="247.19664" y1="66.53591" x2="299.52115" y2="66.53591" gradientUnits="userSpaceOnUse" id="color-17"><stop offset="0" stop-color="#f1f1f1"/><stop offset="1" stop-color="#e6e6e6"/></linearGradient><linearGradient x1="247.71272" y1="52.51179" x2="300.03723" y2="52.51179" gradientUnits="userSpaceOnUse" id="color-18"><stop offset="0" stop-color="#f1f1f1"/><stop offset="1" stop-color="#e6e6e6"/></linearGradient><linearGradient x1="282.85712" y1="50.85221" x2="314.70681" y2="50.85221" gradientUnits="userSpaceOnUse" id="color-19"><stop offset="0" stop-color="#f1f1f1"/><stop offset="1" stop-color="#e6e6e6"/></linearGradient><linearGradient x1="214.06577" y1="78.36193" x2="247.43212" y2="78.36193" gradientUnits="userSpaceOnUse" id="color-20"><stop offset="0" stop-color="#f1f1f1"/><stop offset="1" stop-color="#e6e6e6"/></linearGradient><linearGradient x1="439.53813" y1="50.09041" x2="387.21362" y2="50.09041" gradientUnits="userSpaceOnUse" id="color-21"><stop offset="0" stop-color="#f1f1f1"/><stop offset="1" stop-color="#e6e6e6"/></linearGradient><linearGradient x1="420.57594" y1="43.53591" x2="368.25143" y2="43.53591" gradientUnits="userSpaceOnUse" id="color-22"><stop offset="0" stop-color="#f1f1f1"/><stop offset="1" stop-color="#e6e6e6"/></linearGradient><linearGradient x1="420.05986" y1="29.51179" x2="367.73535" y2="29.51179" gradientUnits="userSpaceOnUse" id="color-23"><stop offset="0" stop-color="#f1f1f1"/><stop offset="1" stop-color="#e6e6e6"/></linearGradient><linearGradient x1="384.91546" y1="27.85221" x2="353.06577" y2="27.85221" gradientUnits="userSpaceOnUse" id="color-24"><stop offset="0" stop-color="#f1f1f1"/><stop offset="1" stop-color="#e6e6e6"/></linearGradient><linearGradient x1="453.70681" y1="55.36193" x2="420.34046" y2="55.36193" gradientUnits="userSpaceOnUse" id="color-25"><stop offset="0" stop-color="#f1f1f1"/><stop offset="1" stop-color="#e6e6e6"/></linearGradient><linearGradient x1="482.23445" y1="69.09042" x2="534.55896" y2="69.09042" gradientUnits="userSpaceOnUse" id="color-26"><stop offset="0" stop-color="#f1f1f1"/><stop offset="1" stop-color="#e6e6e6"/></linearGradient><linearGradient x1="501.19664" y1="62.53591" x2="553.52115" y2="62.53591" gradientUnits="userSpaceOnUse" id="color-27"><stop offset="0" stop-color="#f1f1f1"/><stop offset="1" stop-color="#e6e6e6"/></linearGradient><linearGradient x1="501.71272" y1="48.51179" x2="554.03723" y2="48.51179" gradientUnits="userSpaceOnUse" id="color-28"><stop offset="0" stop-color="#f1f1f1"/><stop offset="1" stop-color="#e6e6e6"/></linearGradient><linearGradient x1="536.85712" y1="46.8522" x2="568.70681" y2="46.8522" gradientUnits="userSpaceOnUse" id="color-29"><stop offset="0" stop-color="#f1f1f1"/><stop offset="1" stop-color="#e6e6e6"/></linearGradient><linearGradient x1="468.06577" y1="74.36193" x2="501.43212" y2="74.36193" gradientUnits="userSpaceOnUse" id="color-30"><stop offset="0" stop-color="#f1f1f1"/><stop offset="1" stop-color="#e6e6e6"/></linearGradient></defs><g transform="translate(116.17117,0.21022)"><g data-paper-data="{&quot;isPaintingLayer&quot;:true}" fill-rule="nonzero" stroke-linejoin="miter" stroke-miterlimit="10" stroke-dasharray="" stroke-dashoffset="0" style="mix-blend-mode: normal"><path d="M-114.92117,334.37312v-333.33334h827.32733v333.33334z" fill="#82f9ff" stroke="#62bbbf" stroke-width="2.5" stroke-linecap="butt"/><path d="M-93.90015,287.82658v-79.57958h986.48649v79.57958z" fill="#0ed400" stroke="#262626" stroke-width="0" stroke-linecap="butt"/><path d="M95.03941,259.8125v-143.25l27.5,-13.75l239,-0.5l-1,157.5z" fill="#16b0b8" stroke="#007ea1" stroke-width="6" stroke-linecap="butt"/><path d="M1.34188,249.41075c0,0 -8.62245,-97.99217 -1.15602,-126.4855c6.19844,-23.65439 24.65277,-30.52434 24.65277,-30.52434c0,0 19.97224,-6.99016 29.95836,-6.99016c9.98612,0 36.41997,9.14098 36.41997,9.14098l-2.34968,154.32131z" fill="#dead3c" stroke="#ad872f" stroke-width="3.5" stroke-linecap="butt"/><path d="M0.71697,253.91075c0,0 -7.33927,-91.12077 -0.98398,-117.61609c5.276,-21.9957 20.98398,-28.38391 20.98398,-28.38391c0,0 17,-6.5 25.5,-6.5c8.5,0 31,8.5 31,8.5l-2,143.5z" fill="#ffc846" stroke="#ad872f" stroke-width="3.5" stroke-linecap="butt"/><path d="M339.53941,123.0625l7,-7l15,-14" fill="none" stroke="#007ea1" stroke-width="6" stroke-linecap="round"/><path d="M26.21697,252.91075v-68h30.5v68z" fill="#ffc846" stroke="#ad872f" stroke-width="3.5" stroke-linecap="butt"/><path d="M28.9074,223.79963v-30.41516h24.70758v30.41516z" fill="url(#color-1)" stroke="#0093bb" stroke-width="3.5" stroke-linecap="butt"/><path d="M-3.0926,178.79963c0,0 -0.81605,-12.84544 -0.7296,-18.88228c0.07966,-5.56273 2.2296,-16.03288 2.2296,-16.03288l18.70758,-0.5v36.41516z" fill="url(#color-2)" stroke="#0093bb" stroke-width="3.5" stroke-linecap="butt"/><path d="M47.8003,236.27534c0,3.77395 -2.91015,6.83333 -6.5,6.83333c-3.58985,0 -6.5,-3.05939 -6.5,-6.83333c0,-3.77395 2.91015,-6.83333 6.5,-6.83333c3.58985,0 6.5,3.05939 6.5,6.83333z" fill="#d4a539" stroke="#ad872f" stroke-width="2.5" stroke-linecap="butt"/><path d="M94.46697,253.46028v-135.19134h248v135.19134z" fill="#19c8d1" stroke="#0093bb" stroke-width="6" stroke-linecap="butt"/><path d="M124.9074,223.29963v-73.41516h36.70758v73.41516z" fill="url(#color-3)" stroke="#0093bb" stroke-width="5.5" stroke-linecap="butt"/><path d="M180.41643,223.29963v-73.41516h36.70758v73.41516z" fill="url(#color-4)" stroke="#0093bb" stroke-width="5.5" stroke-linecap="butt"/><path d="M235.92545,223.29963v-73.41516h36.70758v73.41516z" fill="url(#color-5)" stroke="#0093bb" stroke-width="5.5" stroke-linecap="butt"/><path d="M290.53917,253.74006v-86.84477h39.3935v86.84477z" fill="#42ecff" stroke="#0093bb" stroke-width="5.5" stroke-linecap="butt"/><path d="M293.22509,214.34656v-37.60289h33.12635v37.60289z" fill="url(#color-6)" stroke="#0093bb" stroke-width="5.5" stroke-linecap="butt"/><text transform="translate(143.03736,140.70757) scale(0.56405,0.56405)" font-size="40" xml:space="preserve" fill="#ffc846" fill-rule="nonzero" stroke="#ffc846" stroke-width="2" stroke-linecap="butt" stroke-linejoin="miter" stroke-miterlimit="10" stroke-dasharray="" stroke-dashoffset="0" font-family="Sans Serif" font-weight="normal" text-anchor="start" style="mix-blend-mode: normal"><tspan x="0" dy="0">Gege's Factory</tspan></text><path d="M398.03942,261.8125v-143.25l27.5,-13.75l239,-0.5l-1,157.5z" fill="#16b0b8" stroke="#007ea1" stroke-width="6" stroke-linecap="butt"/><g stroke-linecap="butt"><path d="M398.46697,253.96028v-135.19134h248v135.19134z" fill="#19c8d1" stroke="#0093bb" stroke-width="6"/><path d="M428.9074,223.79963v-73.41516h36.70758v73.41516z" fill="url(#color-7)" stroke="#0093bb" stroke-width="5.5"/><path d="M484.41643,223.79963v-73.41516h36.70758v73.41516z" fill="url(#color-8)" stroke="#0093bb" stroke-width="5.5"/><path d="M539.92545,223.79963v-73.41516h36.70758v73.41516z" fill="url(#color-9)" stroke="#0093bb" stroke-width="5.5"/><path d="M594.53917,254.24006v-86.84476h39.39351v86.84476z" fill="#42ecff" stroke="#0093bb" stroke-width="5.5"/><path d="M597.22509,214.84656v-37.60289h33.12635v37.60289z" fill="url(#color-10)" stroke="#0093bb" stroke-width="5.5"/><text transform="translate(447.03736,141.20757) scale(0.56406,0.56406)" font-size="40" xml:space="preserve" fill="#ffc846" fill-rule="nonzero" stroke="#ffc846" stroke-width="2" stroke-linecap="butt" stroke-linejoin="miter" stroke-miterlimit="10" stroke-dasharray="" stroke-dashoffset="0" font-family="Sans Serif" font-weight="normal" text-anchor="start" style="mix-blend-mode: normal"><tspan x="0" dy="0">Gege's Factory</tspan></text></g><path d="M-89.39565,355.4054v-108.11937h786.78679v108.11937z" fill="#464646" stroke="#262626" stroke-width="2.5" stroke-linecap="butt"/><text transform="translate(36.35511,295.46178) scale(0.70541,0.70541)" font-size="40" xml:space="preserve" fill="#ffffff" fill-rule="nonzero" stroke="none" stroke-width="1" stroke-linecap="butt" stroke-linejoin="miter" stroke-miterlimit="10" stroke-dasharray="" stroke-dashoffset="0" font-family="Sans Serif" font-weight="normal" text-anchor="start" style="mix-blend-mode: normal"><tspan x="0" dy="0">GONG FOR THE NEXT STATION!</tspan></text><g data-paper-data="{&quot;index&quot;:null}" stroke="none" stroke-width="0" stroke-linecap="butt"><path d="M111.46747,60.20289c-8.54732,8.85809 -24.91934,10.61605 -36.56791,3.92652c-11.64857,-6.68953 -14.16262,-19.29336 -5.61529,-28.15145c8.54732,-8.85808 24.91934,-10.61605 36.56791,-3.92652c11.64857,6.68953 14.16262,19.29336 5.61529,28.15144z" fill="url(#color-11)"/><path d="M92.50528,53.64837c-8.54732,8.85809 -24.91934,10.61605 -36.56791,3.92652c-11.64857,-6.68953 -14.16262,-19.29336 -5.61529,-28.15144c8.54732,-8.85809 24.91934,-10.61605 36.56791,-3.92652c11.64857,6.68953 14.16262,19.29336 5.61529,28.15144z" fill="url(#color-12)"/><path d="M91.9892,39.62426c-8.54732,8.85809 -24.91934,10.61605 -36.56791,3.92652c-11.64857,-6.68953 -14.16262,-19.29336 -5.61529,-28.15144c8.54732,-8.85809 24.91934,-10.61606 36.56791,-3.92652c11.64857,6.68953 14.16262,19.29336 5.61529,28.15145z" fill="url(#color-13)"/><path d="M58.82898,33.22502c-5.20272,5.39188 -15.16828,6.46194 -22.25872,2.39005c-7.09044,-4.07189 -8.62073,-11.74378 -3.41801,-17.13566c5.20272,-5.39188 15.16829,-6.46194 22.25873,-2.39006c7.09044,4.07189 8.62072,11.74378 3.418,17.13567z" fill="url(#color-14)"/><path d="M127.47335,61.08582c-5.45047,5.64863 -15.89059,6.76966 -23.31866,2.50387c-7.42808,-4.26578 -9.03124,-12.30301 -3.58077,-17.95164c5.45047,-5.64863 15.89059,-6.76965 23.31866,-2.50387c7.42808,4.26579 9.03124,12.30301 3.58077,17.95165z" fill="url(#color-15)"/></g><g data-paper-data="{&quot;index&quot;:null}" stroke="none" stroke-width="0" stroke-linecap="butt"><path d="M233.30511,85.20288c-8.54733,-8.85808 -6.03328,-21.46191 5.61529,-28.15144c11.64857,-6.68953 28.02059,-4.93156 36.56791,3.92652c8.54733,8.85809 6.03328,21.46192 -5.61529,28.15145c-11.64857,6.68953 -28.02059,4.93157 -36.56791,-3.92652z" fill="url(#color-16)"/><path d="M257.88259,50.49693c11.64857,-6.68953 28.02059,-4.93157 36.56791,3.92652c8.54733,8.85808 6.03328,21.46191 -5.61529,28.15144c-11.64857,6.68953 -28.02059,4.93157 -36.56791,-3.92652c-8.54733,-8.85808 -6.03328,-21.46191 5.61529,-28.15144z" fill="url(#color-17)"/><path d="M252.78338,64.62427c-8.54733,-8.85809 -6.03328,-21.46192 5.61529,-28.15145c11.64857,-6.68954 28.02059,-4.93157 36.56791,3.92652c8.54733,8.85808 6.03328,21.46191 -5.61529,28.15144c-11.64857,6.68953 -28.02059,4.93157 -36.56791,-3.92652z" fill="url(#color-18)"/><path d="M289.3616,41.08935c7.09044,-4.07188 17.05601,-3.00182 22.25873,2.39006c5.20272,5.39188 3.67243,13.06377 -3.41801,17.13566c-7.09044,4.07189 -17.056,3.00183 -22.25872,-2.39005c-5.20272,-5.39189 -3.67244,-13.06378 3.418,-17.13567z" fill="url(#color-19)"/><path d="M217.29923,86.08583c-5.45047,-5.64864 -3.84731,-13.68586 3.58077,-17.95165c7.42807,-4.26578 17.86819,-3.14476 23.31866,2.50387c5.45047,5.64863 3.84731,13.68586 -3.58077,17.95164c-7.42807,4.26579 -17.86819,3.14476 -23.31866,-2.50387z" fill="url(#color-20)"/></g><g data-paper-data="{&quot;index&quot;:null}" stroke="none" stroke-width="0" stroke-linecap="butt"><path d="M434.46747,62.20288c-8.54732,8.85809 -24.91934,10.61605 -36.56791,3.92652c-11.64857,-6.68953 -14.16262,-19.29336 -5.61529,-28.15145c8.54732,-8.85808 24.91934,-10.61605 36.56791,-3.92652c11.64857,6.68953 14.16262,19.29336 5.61529,28.15144z" fill="url(#color-21)"/><path d="M415.50528,55.64837c-8.54732,8.85809 -24.91934,10.61605 -36.56791,3.92652c-11.64857,-6.68953 -14.16262,-19.29336 -5.61529,-28.15144c8.54732,-8.85809 24.91934,-10.61605 36.56791,-3.92652c11.64857,6.68953 14.16262,19.29336 5.61529,28.15144z" fill="url(#color-22)"/><path d="M414.9892,41.62426c-8.54732,8.85809 -24.91934,10.61605 -36.56791,3.92652c-11.64857,-6.68953 -14.16262,-19.29336 -5.61529,-28.15144c8.54732,-8.85809 24.91934,-10.61606 36.56791,-3.92652c11.64857,6.68953 14.16262,19.29336 5.61529,28.15145z" fill="url(#color-23)"/><path d="M381.82898,35.22502c-5.20272,5.39188 -15.16828,6.46194 -22.25872,2.39005c-7.09044,-4.07189 -8.62073,-11.74378 -3.41801,-17.13566c5.20272,-5.39188 15.16829,-6.46194 22.25873,-2.39006c7.09044,4.07189 8.62072,11.74378 3.418,17.13567z" fill="url(#color-24)"/><path d="M450.47335,63.08582c-5.45047,5.64863 -15.89059,6.76966 -23.31866,2.50387c-7.42808,-4.26578 -9.03124,-12.30301 -3.58077,-17.95164c5.45047,-5.64863 15.89059,-6.76965 23.31866,-2.50387c7.42808,4.26579 9.03124,12.30301 3.58077,17.95165z" fill="url(#color-25)"/></g><g data-paper-data="{&quot;index&quot;:null}" stroke="none" stroke-width="0" stroke-linecap="butt"><path d="M487.30511,81.20288c-8.54733,-8.85808 -6.03328,-21.46191 5.61529,-28.15144c11.64857,-6.68953 28.02059,-4.93156 36.56791,3.92652c8.54733,8.85809 6.03328,21.46192 -5.61529,28.15145c-11.64857,6.68953 -28.02059,4.93157 -36.56791,-3.92652z" fill="url(#color-26)"/><path d="M511.88259,46.49693c11.64857,-6.68953 28.02059,-4.93157 36.56791,3.92652c8.54733,8.85808 6.03328,21.46191 -5.61529,28.15144c-11.64857,6.68953 -28.02059,4.93157 -36.56791,-3.92652c-8.54733,-8.85808 -6.03328,-21.46191 5.61529,-28.15144z" fill="url(#color-27)"/><path d="M506.78338,60.62427c-8.54733,-8.85809 -6.03328,-21.46192 5.61529,-28.15145c11.64857,-6.68954 28.02059,-4.93157 36.56791,3.92652c8.54733,8.85808 6.03328,21.46191 -5.61529,28.15144c-11.64857,6.68953 -28.02059,4.93157 -36.56791,-3.92652z" fill="url(#color-28)"/><path d="M543.3616,37.08935c7.09044,-4.07188 17.05601,-3.00182 22.25873,2.39006c5.20272,5.39188 3.67243,13.06377 -3.41801,17.13566c-7.09044,4.07189 -17.056,3.00183 -22.25872,-2.39005c-5.20272,-5.39189 -3.67244,-13.06378 3.418,-17.13567z" fill="url(#color-29)"/><path d="M471.29923,82.08583c-5.45047,-5.64864 -3.84731,-13.68586 3.58077,-17.95165c7.42807,-4.26578 17.86819,-3.14476 23.31866,2.50387c5.45047,5.64863 3.84731,13.68586 -3.58077,17.95164c-7.42807,4.26579 -17.86819,3.14476 -23.31866,-2.50387z" fill="url(#color-30)"/></g><path d="M350.28941,230.40625v-19.5h45v19.5z" fill="#464646" stroke="#262626" stroke-width="2.5" stroke-linecap="butt"/><path d="M90.6397,215.36987l-9.51216,-0.02727l0.01159,-16.99998l9.51216,0.02727z" fill="#464646" stroke="#262626" stroke-width="2.5" stroke-linecap="butt"/><path d="M91.78941,94.90625l-14,15" fill="none" stroke="#ad872f" stroke-width="3.5" stroke-linecap="round"/></g></g></svg>