<svg version="1.1" xmlns="http://www.w3.org/2000/svg" xmlns:xlink="http://www.w3.org/1999/xlink" width="67.25" height="59.12677" viewBox="0,0,67.25,59.12677"><defs><radialGradient cx="227.63643" cy="171.22335" r="0.88423" gradientUnits="userSpaceOnUse" id="color-1"><stop offset="0" stop-color="#67d9ff"/><stop offset="1" stop-color="#befffa"/></radialGradient><radialGradient cx="232.60273" cy="177.60159" r="1.51717" gradientUnits="userSpaceOnUse" id="color-2"><stop offset="0" stop-color="#67d9ff"/><stop offset="1" stop-color="#befffa"/></radialGradient><radialGradient cx="231.89593" cy="173.25503" r="1.35204" gradientUnits="userSpaceOnUse" id="color-3"><stop offset="0" stop-color="#67d9ff"/><stop offset="1" stop-color="#befffa"/></radialGradient><radialGradient cx="227.7803" cy="175.55672" r="0.73265" gradientUnits="userSpaceOnUse" id="color-4"><stop offset="0" stop-color="#67d9ff"/><stop offset="1" stop-color="#befffa"/></radialGradient></defs><g transform="translate(-212,-145.03033)"><g data-paper-data="{&quot;isPaintingLayer&quot;:true}" fill-rule="nonzero" stroke-linejoin="miter" stroke-miterlimit="10" stroke-dasharray="" stroke-dashoffset="0" style="mix-blend-mode: normal"><path d="M213.5,196.42789v-43.61538h64.25v43.61538z" fill="#2e2e2e" stroke="#161616" stroke-width="3" stroke-linecap="butt"/><path d="M245.625,195.93755l0.5,-43" fill="none" stroke="#161616" stroke-width="3" stroke-linecap="round"/><text transform="translate(249.64286,161.52901) scale(1.4326,0.37928)" font-size="40" xml:space="preserve" fill="#ffffff" fill-rule="nonzero" stroke="none" stroke-width="1" stroke-linecap="butt" stroke-linejoin="miter" stroke-miterlimit="10" stroke-dasharray="" stroke-dashoffset="0" font-family="Sans Serif" font-weight="normal" text-anchor="start" style="mix-blend-mode: normal"><tspan x="0" dy="0">_</tspan></text><text transform="translate(219.91473,193.87904) scale(0.17931,0.17931)" font-size="40" xml:space="preserve" fill="#ffffff" fill-rule="nonzero" stroke="none" stroke-width="1" stroke-linecap="butt" stroke-linejoin="miter" stroke-miterlimit="10" stroke-dasharray="" stroke-dashoffset="0" font-family="Sans Serif" font-weight="normal" text-anchor="start" style="mix-blend-mode: normal"><tspan x="0" dy="0">70 C.</tspan></text><text transform="translate(249.0625,162.15925) scale(0.09643,0.09643)" font-size="40" xml:space="preserve" fill="#ffffff" fill-rule="nonzero" stroke="none" stroke-width="1" stroke-linecap="butt" stroke-linejoin="miter" stroke-miterlimit="10" stroke-dasharray="" stroke-dashoffset="0" font-family="Sans Serif" font-weight="normal" text-anchor="start" style="mix-blend-mode: normal"><tspan x="0" dy="0">Bottle of soda</tspan></text><text transform="translate(248.9375,168.39954) scale(0.1142,0.1142)" font-size="40" xml:space="preserve" fill="#ffffff" fill-rule="nonzero" stroke="none" stroke-width="1" stroke-linecap="butt" stroke-linejoin="miter" stroke-miterlimit="10" stroke-dasharray="" stroke-dashoffset="0" font-family="Sans Serif" font-weight="normal" text-anchor="start" style="mix-blend-mode: normal"><tspan x="0" dy="0">It gives you </tspan><tspan x="0" dy="46.150000000000006px">100 more </tspan><tspan x="0" dy="46.150000000000006px">stamina</tspan></text><g stroke-linecap="butt"><path d="M228.52494,159.28193v-2.51138h3.69321v2.51138z" fill="#00c1ff" stroke="#0094c5" stroke-width="0.5"/><path d="M234.90805,180.90342c0,2.42717 -0.14383,4.30275 -1.16461,5.26672c-0.8021,0.75746 -2.33405,0.85786 -3.48884,0.85786c-0.95207,0 -2.78732,-0.08788 -3.54727,-0.59507c-1.33488,-0.89091 -1.30315,-2.76753 -1.30315,-5.52951c0,-4.33437 2.12752,-7.84808 4.75194,-7.84808c2.62442,0 4.75194,3.51371 4.75194,7.84808z" fill="#00bfff" stroke="#0094c5" stroke-width="0.5"/><path d="M235.69593,165.98281c0,4.33437 -2.42515,7.84808 -5.41672,7.84808c-2.99157,0 -5.41671,-3.5137 -5.41671,-7.84808c0,-4.33437 2.42514,-7.84808 5.41671,-7.84808c2.99157,0 5.41672,3.51371 5.41672,7.84808z" fill="#00c1ff" stroke="#0094c5" stroke-width="0.5"/><path d="M225.67501,178.00424c0,0 0.45472,-0.4013 0.47133,-0.94153c0.04287,-1.39393 0.11959,-4.04072 0.11959,-5.12534c0,-0.90354 -0.6894,-2.16899 -0.6894,-2.16899l9.34384,0.09849c0,0 -0.88637,1.33904 -0.88637,2.31672c0,1.02304 0.11282,3.30562 0.18572,4.67375c0.0348,0.65299 0.4052,1.09767 0.4052,1.09767z" fill="#b9eeff" stroke="#96c0ce" stroke-width="1"/><g><path d="M228.52066,171.22335c0,0.47593 -0.39588,0.86175 -0.88423,0.86175c-0.48835,0 -0.88423,-0.38582 -0.88423,-0.86175c0,-0.47593 0.39588,-0.86175 0.88423,-0.86175c0.48835,0 0.88423,0.38582 0.88423,0.86175z" fill="url(#color-1)" stroke="#56b8d8" stroke-width="0.25"/><path d="M228.3558,170.9386c0,0.16141 -0.13084,0.29224 -0.29224,0.29224c-0.16141,0 -0.29225,-0.13083 -0.29225,-0.29224c0,-0.16141 0.13084,-0.29225 0.29225,-0.29225c0.16141,0 0.29224,0.13084 0.29224,0.29225z" fill="#ffffff" stroke="none" stroke-width="0"/><path d="M227.42661,171.628c0,0.10346 -0.07717,0.18733 -0.17235,0.18733c-0.09518,0 -0.17235,-0.08387 -0.17235,-0.18733c0,-0.10346 0.07717,-0.18734 0.17235,-0.18734c0.09518,0 0.17235,0.08388 0.17235,0.18734z" fill="#ffffff" stroke="none" stroke-width="0"/></g><g><path d="M234.1199,177.60159c0,0.02061 -0.00044,0.04112 -0.00129,0.06153c-0.7606,-0.00244 -1.52132,0.00611 -2.28191,0.01112c-0.31375,0.00206 -0.55347,-0.0145 -0.74976,-0.00926c-0.00091,-0.02102 -0.00137,-0.04215 -0.00137,-0.06339c0,-0.81661 0.67925,-1.47859 1.51716,-1.47859c0.83791,0 1.51717,0.66198 1.51717,1.47859z" fill="url(#color-2)" stroke="#56b8d8" stroke-width="0.25"/><path d="M233.83703,177.11302c0,0.27694 -0.22449,0.50143 -0.50143,0.50143c-0.27694,0 -0.50144,-0.2245 -0.50144,-0.50143c0,-0.27694 0.2245,-0.50144 0.50144,-0.50144c0.27694,0 0.50143,0.2245 0.50143,0.50144z" fill="#ffffff" stroke="none" stroke-width="0"/><path d="" fill="#ffffff" stroke="none" stroke-width="0"/></g><g><path d="M233.24797,173.25503c0,0.72772 -0.60533,1.31766 -1.35204,1.31766c-0.74671,0 -1.35204,-0.58994 -1.35204,-1.31766c0,-0.72772 0.60532,-1.31767 1.35204,-1.31767c0.74671,0 1.35204,0.58994 1.35204,1.31767z" fill="url(#color-3)" stroke="#56b8d8" stroke-width="0.25"/><path d="M232.9959,172.81962c0,0.24679 -0.20006,0.44685 -0.44686,0.44685c-0.24679,0 -0.44686,-0.20006 -0.44686,-0.44685c0,-0.24679 0.20007,-0.44687 0.44686,-0.44687c0.24679,0 0.44686,0.20007 0.44686,0.44687z" fill="#ffffff" stroke="none" stroke-width="0"/><path d="M231.57511,173.87376c0,0.15821 -0.11799,0.28645 -0.26353,0.28645c-0.14554,0 -0.26353,-0.12824 -0.26353,-0.28645c0,-0.15821 0.11799,-0.28645 0.26353,-0.28645c0.14554,0 0.26353,0.12824 0.26353,0.28645z" fill="#ffffff" stroke="none" stroke-width="0"/></g><g><path d="M228.51295,175.55672c0,0.39434 -0.32802,0.71402 -0.73265,0.71402c-0.40463,0 -0.73265,-0.31968 -0.73265,-0.71402c0,-0.39434 0.32802,-0.71402 0.73265,-0.71402c0.40463,0 0.73265,0.31968 0.73265,0.71402z" fill="url(#color-4)" stroke="#56b8d8" stroke-width="0.25"/><path d="M228.37635,175.32078c0,0.13374 -0.10841,0.24215 -0.24214,0.24215c-0.13374,0 -0.24215,-0.10841 -0.24215,-0.24215c0,-0.13374 0.10842,-0.24215 0.24215,-0.24215c0.13374,0 0.24214,0.10841 0.24214,0.24215z" fill="#ffffff" stroke="none" stroke-width="0"/><path d="M227.60645,175.89198c0,0.08572 -0.06393,0.15522 -0.1428,0.15522c-0.07887,0 -0.14281,-0.0695 -0.14281,-0.15522c0,-0.08572 0.06394,-0.15522 0.14281,-0.15522c0.07887,0 0.1428,0.0695 0.1428,0.15522z" fill="#ffffff" stroke="none" stroke-width="0"/></g><text transform="translate(226.96449,173.99459) rotate(-4.4483) scale(0.04829,0.04829)" font-size="40" xml:space="preserve" fill="#009dd2" fill-rule="nonzero" stroke="none" stroke-width="1" stroke-linecap="butt" stroke-linejoin="miter" stroke-miterlimit="10" stroke-dasharray="" stroke-dashoffset="0" font-family="Marker" font-weight="normal" text-anchor="start" style="mix-blend-mode: normal"><tspan x="0" dy="0">Yummy</tspan><tspan x="0" dy="46.150000000000006px"> soda</tspan></text><path d="M232.56285,156.64744c0,0.36714 -0.97006,0.66477 -2.16669,0.66477c-1.19663,0 -2.16669,-0.29763 -2.16669,-0.66477c0,-0.36714 0.97006,-0.66478 2.16669,-0.66478c1.19663,0 2.16669,0.29764 2.16669,0.66478z" fill="#ffc700" stroke="#cea100" stroke-width="0.5"/><path d="M228.22948,157.31221l0.04925,-0.78788c0,0 1.13768,0.73864 2.01896,0.73864c0.34978,0 0.95714,0.02827 1.37455,-0.1112c0.58531,-0.19556 0.93986,-0.5782 0.93986,-0.5782l0.14773,0.6894c0,0 -0.3722,0.26677 -0.90534,0.43078c-0.50668,0.15587 -1.16348,0.20937 -1.60605,0.20937c-0.80198,0 -2.01896,-0.59091 -2.01896,-0.59091z" fill="#ffc700" stroke="#cea100" stroke-width="0.5"/></g><text transform="translate(218.48972,202.62064) scale(0.11819,0.11819)" font-size="40" xml:space="preserve" fill="#ff4040" fill-rule="nonzero" stroke="#820000" stroke-width="2" stroke-linecap="butt" stroke-linejoin="miter" stroke-miterlimit="10" stroke-dasharray="" stroke-dashoffset="0" font-family="Sans Serif" font-weight="normal" text-anchor="start" style="mix-blend-mode: normal"><tspan x="0" dy="0">You don't have enough!</tspan></text></g></g></svg>