<svg version="1.1" xmlns="http://www.w3.org/2000/svg" xmlns:xlink="http://www.w3.org/1999/xlink" width="223.05861" height="356.77097" viewBox="0,0,223.05861,356.77097"><g transform="translate(-140.25939,-0.19859)"><g data-paper-data="{&quot;isPaintingLayer&quot;:true}" fill-rule="nonzero" stroke-linejoin="miter" stroke-miterlimit="10" stroke-dasharray="" stroke-dashoffset="0" style="mix-blend-mode: normal"><g stroke-linecap="butt"><path d="M215.10081,294.5639c0,17.94675 -0.22681,44.09301 -4.7483,56.16028c-1.83983,4.91024 -6.7941,5.24538 -8.98829,5.24538c-2.0752,0 -6.92317,-0.46425 -8.68694,-4.91165c-4.68421,-11.81142 -5.04965,-38.15128 -5.04965,-56.49399c0,-25.2494 5.48541,-20.61796 13.07194,-20.61796c7.58652,0 14.40127,-4.63143 14.40127,20.61796z" fill="#0077ff" stroke="#000000" stroke-width="2"/><path d="M197.1546,333.35682c1.4099,0.59377 2.73595,1.45964 4.22969,1.78123c1.31159,0.28237 3.03077,-2.98618 4.63262,-2.67766c11.53998,2.22249 4.94492,20.74881 -3.35321,22.84724c-6.4106,1.6211 -10.44175,-6.10071 -10.95449,-11.28162c-0.18867,-1.90653 -1.86653,-6.44283 0.30881,-7.70021z" fill="#002ccd" stroke="none" stroke-width="0.5"/></g><g stroke-linecap="butt"><path d="M281.31746,293.63794c0,17.94675 -0.22683,44.09301 -4.74832,56.16028c-1.83983,4.91024 -6.7941,5.24538 -8.98829,5.24538c-2.0752,0 -6.92317,-0.46424 -8.68696,-4.91165c-4.68421,-11.81142 -5.04965,-38.15128 -5.04965,-56.49402c0,-25.2494 5.48541,-20.61796 13.07192,-20.61796c7.5865,0 14.40128,-4.63145 14.40128,20.61796z" fill="#0077ff" stroke="#000000" stroke-width="2"/><path d="M263.37124,332.43082c1.4099,0.59377 2.73595,1.45965 4.22969,1.78125c1.31159,0.28237 3.03077,-2.98618 4.63262,-2.67768c11.53998,2.22249 4.94492,20.74881 -3.35321,22.84724c-6.4106,1.6211 -10.44175,-6.10071 -10.95448,-11.28164c-0.18867,-1.90653 -1.86653,-6.44283 0.30881,-7.70021z" fill="#002ccd" stroke="none" stroke-width="0.5"/></g><g stroke-linecap="butt"><g><path d="M317.12004,227.66392c32.65763,18.94429 20.97266,85.34638 16.57822,93.09725c-4.39444,7.75088 0.53983,-43.64728 -32.11778,-62.59157c-32.65763,-18.94429 -60.73312,-30.70308 -56.33867,-38.45395c4.39444,-7.75088 39.22062,-10.99601 71.87824,7.94827z" fill="#0046ff" stroke="#000000" stroke-width="2"/><path d="M298.48504,241.34308c-8.80249,4.97668 -21.11041,-1.58278 -29.29988,-6.56102c-2.81822,-1.71315 -7.87434,-6.94719 -4.98885,-10.28782c1.28176,-1.48395 3.73978,-1.52573 5.03975,-2.99339c1.21894,-1.37617 1.52901,-3.61162 3.82154,-4.9733c1.3,-0.77216 5.95665,-0.02085 7.48108,-0.02876c4.59076,-0.02381 10.4258,-1.57335 14.75631,0.87978c4.87312,2.76049 9.79841,5.43825 14.53521,8.43168c0.86839,0.54878 1.94662,1.15368 2.21449,2.15333c1.95887,7.30984 -5.61393,16.43499 -13.21199,12.02742z" fill="#002ccd" stroke="none" stroke-width="0.5"/><path d="M335.08938,279.7612c-0.96913,4.29742 -6.34349,4.84105 -9.5879,3.13625c-4.13901,-2.17486 -10.99477,-13.5553 -9.94885,-18.3993c0.79921,-3.70142 4.49833,-12.24741 9.60574,-7.53621c0.73514,0.10279 1.46349,0.34712 2.14678,0.7435c1.47111,0.85338 2.44637,2.24497 2.8223,3.78867c2.88085,5.47739 5.70293,14.9812 4.96191,18.26708z" fill="#002ccd" stroke="none" stroke-width="0.5"/><path d="M322.79053,249.2141c-8.54415,1.64357 -11.58386,-12.41278 -1.10424,-12.39635c0.27497,-0.06773 0.55474,-0.11584 0.83713,-0.14364c1.73109,-0.62229 3.27795,0.04622 4.36191,1.34687c2.207,1.834 2.8491,5.06382 1.38074,7.65371c-0.64081,1.13029 -1.58867,1.97119 -2.67624,2.47686c-0.76107,0.48019 -1.68807,0.84875 -2.7993,1.0625z" fill="#002ccd" stroke="none" stroke-width="0.5"/></g><g><path d="M309.98377,203.45048c36.67222,8.60875 44.42287,75.59736 42.42592,84.30104c-1.99695,8.7037 -11.93191,-41.94899 -48.60412,-50.55774c-36.67222,-8.60875 -66.90775,-11.67466 -64.91079,-20.37835c1.99695,-8.7037 34.41678,-21.97372 71.08899,-13.36497z" fill="#0046ff" stroke="#000000" stroke-width="2"/><path d="M296.04257,221.98605c-7.0088,7.33381 -20.66424,4.64488 -29.92537,2.26816c-3.187,-0.81788 -9.52096,-4.35394 -7.71095,-8.39456c0.80401,-1.79489 3.1456,-2.55219 3.97169,-4.33678c0.77461,-1.67336 0.43391,-3.90426 2.24061,-5.87703c1.0245,-1.11867 5.69742,-1.75823 7.15478,-2.21066c4.38876,-1.36248 9.53377,-4.54887 14.37981,-3.46377c5.45323,1.22106 10.93284,2.34769 16.32201,3.83157c0.98799,0.27204 2.19291,0.53656 2.73451,1.41554c3.96045,6.42741 -0.68776,17.37442 -9.21986,15.37152z" fill="#002ccd" stroke="none" stroke-width="0.5"/><path d="M342.04793,248.08891c0.29775,4.39751 -4.69304,6.48637 -8.28572,5.80083c-4.5833,-0.87455 -14.39343,-9.77046 -14.77357,-14.71373c-0.29046,-3.77727 0.81394,-13.03934 7.04788,-10.01888c0.73321,-0.1161 1.50029,-0.09471 2.26757,0.08542c1.65194,0.3878 2.98263,1.43561 3.78286,2.80397c4.32061,4.40383 9.73328,12.68001 9.96097,16.04242z" fill="#002ccd" stroke="none" stroke-width="0.5"/><path d="M321.55957,222.42965c-7.7121,4.06702 -14.63161,-8.50464 -4.59291,-11.54704c0.24394,-0.14511 0.49813,-0.27278 0.7606,-0.3818c1.47998,-1.10099 3.15173,-0.91232 4.56058,0.01674c2.63625,1.11198 4.17224,4.0171 3.50497,6.92535c-0.2912,1.26923 -0.9589,2.35101 -1.856,3.15252c-0.59175,0.68187 -1.37424,1.30529 -2.37726,1.83422z" fill="#002ccd" stroke="none" stroke-width="0.5"/></g><g><path d="M304.53049,192.67203c37.62654,1.25083 58.0746,65.44686 57.78447,74.37704c-0.29013,8.93021 -19.74877,-38.81159 -57.37531,-40.0624c-37.62654,-1.25083 -67.87578,1.67317 -67.58563,-7.25702c0.29015,-8.93019 29.54994,-28.30843 67.17648,-27.0576z" fill="#0046ff" stroke="#000000" stroke-width="2"/><path d="M294.40807,213.59065c-5.46951,8.56953 -19.38122,8.61063 -28.92223,8.09592c-3.28332,-0.17714 -10.17503,-2.4034 -9.17415,-6.72239c0.44459,-1.91855 2.59651,-3.12084 3.06473,-5.03363c0.43904,-1.79354 -0.32294,-3.91524 1.07117,-6.205c0.79055,-1.29842 5.25212,-2.84257 6.59504,-3.57232c4.04418,-2.19759 8.48051,-6.33285 13.4426,-6.21907c5.58383,0.12803 11.1754,0.15828 16.74675,0.55671c1.02138,0.07303 2.25415,0.09617 2.954,0.85219c5.11767,5.5284 2.65673,17.17942 -6.09738,16.88841z" fill="#002ccd" stroke="none" stroke-width="0.5"/><path d="M344.54485,230.17243c1.13531,4.2556 -3.36021,7.28387 -7.01611,7.31618c-4.66396,0.04123 -15.99356,-6.76119 -17.3143,-11.53602c-1.00921,-3.64855 -1.70172,-12.95142 4.99299,-11.21131c0.69704,-0.25776 1.45364,-0.38724 2.24089,-0.36106c1.69494,0.05635 3.20125,0.82322 4.24868,2.00859c5.08295,3.47259 11.97979,10.52973 12.84784,13.78364z" fill="#002ccd" stroke="none" stroke-width="0.5"/><path d="M319.52557,209.01983c-6.78584,5.50278 -15.9845,-5.47267 -6.71976,-10.42672c0.21148,-0.19021 0.43637,-0.36533 0.67294,-0.52378c1.24078,-1.37044 2.91697,-1.5133 4.47721,-0.87829c2.7994,0.57366 4.86326,3.1223 4.76631,6.10625c-0.04231,1.30227 -0.48991,2.49447 -1.21629,3.45676c-0.44976,0.785 -1.09787,1.5501 -1.9804,2.26577z" fill="#002ccd" stroke="none" stroke-width="0.5"/></g></g><path d="M207.12471,169.06335v-31.37515h34.11994v31.37515z" fill="#0077ff" stroke="#000000" stroke-width="2" stroke-linecap="butt"/><path d="M194.05279,204.02421l-6.8683,-66.78425h21.048v31.37515l34.3415,0.67233l-1.16017,-30.75211l-0.2078,-0.06059l20.97326,0.48108l-0.37814,63.46727l25.7067,82.57594l-42.02068,0.97276c0,0 -3.43665,-9.94459 -5.9453,-19.94761c-2.66418,-10.62319 -4.53663,-21.34096 -9.15432,-21.29705c-3.64218,0.03465 -2.54605,10.1424 -3.18472,19.75544c-0.69835,10.51131 -2.95077,20.60648 -2.95077,20.60648l-45.70831,0.95877z" fill="#ff77e7" stroke="#000000" stroke-width="2" stroke-linecap="butt"/><path d="M218.86731,210.07511l-1.10779,12.55006l-17.05998,-1.34464l3.10181,-15.23935" fill="none" stroke="#000000" stroke-width="2" stroke-linecap="round"/><path d="M256.94602,207.13217l3.10183,15.23937l-17.05998,1.34464l-1.10779,-12.55006" data-paper-data="{&quot;index&quot;:null}" fill="none" stroke="#000000" stroke-width="2" stroke-linecap="round"/><g><path d="M305.62336,272.27677c-1.34231,0.39859 -5.06989,2.2804 -8.82491,0.13387c-1.53669,-0.87842 -2.73385,-5.25862 -4.31321,-6.26117c-2.78364,-1.76701 -2.67243,11.69223 -4.68813,10.29255c-2.09481,-1.45464 -6.26284,-17.73423 -6.26284,-17.73423l-26.95438,-117.20183l22.43741,-6.6627l26.95438,117.20183c0,0 5.24489,19.1647 1.6517,20.23168z" fill="#0077ff" stroke="#000000" stroke-width="2" stroke-linecap="butt"/><path d="M303.94024,247.8991c0.03282,0.0309 1.0118,8.5604 1.06536,8.78677c1.13713,4.80715 6.54055,13.28133 -1.56486,16.20218c-6.75453,2.43403 -9.33792,-14.45983 -10.34064,-19.87903c-0.13917,-0.7521 -0.30134,-1.50027 -0.48409,-2.24491c-0.06466,-0.18862 -0.1203,-0.38316 -0.16633,-0.58326c-0.02344,-0.10189 -0.04407,-0.20393 -0.06195,-0.30601c-3.24536,-12.11464 -11.70709,-23.3278 -14.59323,-35.37455c-2.06006,-8.59869 -4.28874,-17.04525 -5.06185,-25.84351c-0.36812,-4.18947 3.36949,-6.26153 2.51453,-10.15933c-3.0421,-13.86916 -6.13902,-22.86324 -8.18455,-35.58777c-0.43309,-2.69402 1.88313,-7.36475 5.04331,-7.61456c6.94868,-0.54932 6.65539,10.74108 7.96546,16.08867c3.04669,12.43626 3.96262,18.51591 5.31756,27.04643c1.49824,1.77931 1.51938,4.89797 1.83135,7.63135c0.43945,0.70471 0.90283,1.41324 1.08307,2.15477c1.53535,6.31624 2.59213,11.44278 3.90258,16.969c3.04679,12.84836 5.60529,29.94414 11.49098,41.65564z" fill="#002ccd" stroke="none" stroke-width="0.5" stroke-linecap="butt"/><path d="M255.95066,141.17384l20.57056,-6.10834l30.2043,129.25584l0.63686,4.84638l-0.63016,2.45309l-1.62612,1.23821l-3.3539,0.99592" fill="none" stroke="#000000" stroke-width="2" stroke-linecap="round"/></g><g><path d="M145.47035,249.45423l32.43824,-115.77148l22.09851,7.73529l-32.4382,115.77148c0,0 -4.92928,16.06052 -7.09016,17.41264c-2.07928,1.30107 -1.33491,-12.13756 -4.19854,-10.50657c-1.62475,0.92537 -3.02665,5.24298 -4.60293,6.04643c-3.85176,1.96331 -7.48659,-0.09579 -8.80862,-0.55853c-3.53893,-1.23876 2.60174,-20.12924 2.60174,-20.12924z" fill="#0077ff" stroke="#000000" stroke-width="2" stroke-linecap="butt"/><path d="M145.98965,244.26925c6.43006,-11.41494 9.78999,-28.36814 13.43786,-41.05529c1.56898,-5.45687 2.86576,-10.52673 4.69655,-16.76189c0.21492,-0.732 0.71113,-1.41744 1.18324,-2.1002c0.44019,-2.71526 0.60806,-5.82941 2.18832,-7.53455c1.75476,-8.45563 2.95573,-14.48429 6.58408,-26.75981c1.5602,-5.27847 1.79842,-16.57021 8.71339,-15.68699c3.14486,0.40168 5.23868,5.1786 4.67933,7.84873c-2.64193,12.61164 -6.1585,21.44641 -9.84969,35.15345c-1.03738,3.85223 2.59851,6.10186 2.0337,10.26887c-1.1862,8.75105 -3.80977,17.08077 -6.27208,25.57055c-3.44969,11.89415 -12.4294,22.68727 -16.2411,34.63197c-0.02266,0.10109 -0.04807,0.20202 -0.07628,0.30267c-0.05537,0.19766 -0.12012,0.38931 -0.19359,0.57458c-0.21757,0.735 -0.41478,1.47451 -0.58917,2.21906c-1.25654,5.3648 -4.63188,22.11514 -11.26425,19.3587c-7.9588,-3.30775 -2.16279,-11.51218 -0.80076,-16.25914c0.06413,-0.22352 1.44333,-8.69623 1.47755,-8.72553z" fill="#002ccd" stroke="none" stroke-width="0.5" stroke-linecap="butt"/><path d="M146.66112,271.34619l-3.30324,-1.15625l-1.56603,-1.31507l-0.51402,-2.48065l0.86415,-4.81026l36.25161,-127.65534l20.25985,7.09167" fill="none" stroke="#000000" stroke-width="2" stroke-linecap="round"/></g><path d="M174.47549,137.04026c0,0 3.25555,-3.527 3.03442,-8.16575c-0.52417,-10.99547 -4.3722,-30.7868 -3.82091,-36.69774c1.34041,-14.37173 5.3112,-34.63071 5.3112,-34.63071c0,0 6.91469,-14.64531 14.96072,-22.22172c8.8071,-8.29307 19.11456,-9.58212 26.71812,-9.58212c5.35786,0 20.38968,3.21834 27.86448,9.00272c11.97435,9.26642 16.008,22.8011 16.008,22.8011c0,0 7.17461,20.73228 7.17461,35.8881c0,6.7024 -2.02204,25.58094 -3.05763,35.12467c-0.47732,4.39884 6.79028,7.77259 6.79028,7.77259z" fill="#0077ff" stroke="#000000" stroke-width="2" stroke-linecap="butt"/><path d="M186.59618,82.21899c0,-1.33185 1.06738,-2.4115 2.38406,-2.4115c1.31669,0 2.38406,1.07967 2.38406,2.4115c0,1.33185 -1.06738,2.4115 -2.38406,2.4115c-1.31669,0 -2.38406,-1.07967 -2.38406,-2.4115z" fill="#000000" stroke="none" stroke-width="0.5" stroke-linecap="butt"/><path d="M183.93048,94.1601c0,-1.33185 1.06738,-2.4115 2.38406,-2.4115c1.31669,0 2.38406,1.07967 2.38406,2.4115c0,1.33185 -1.06738,2.4115 -2.38406,2.4115c-1.31669,0 -2.38406,-1.07967 -2.38406,-2.4115z" fill="#000000" stroke="none" stroke-width="0.5" stroke-linecap="butt"/><path d="M194.97408,89.15254c0,-1.33185 1.06738,-2.4115 2.38406,-2.4115c1.31669,0 2.38406,1.07967 2.38406,2.4115c0,1.33185 -1.06738,2.4115 -2.38406,2.4115c-1.31669,0 -2.38406,-1.07967 -2.38406,-2.4115z" fill="#000000" stroke="none" stroke-width="0.5" stroke-linecap="butt"/><path d="M250.57288,79.90781c0,-1.33185 1.06739,-2.4115 2.38406,-2.4115c1.31667,0 2.38406,1.07967 2.38406,2.4115c0,1.33185 -1.06739,2.4115 -2.38406,2.4115c-1.31667,0 -2.38406,-1.07967 -2.38406,-2.4115z" fill="#000000" stroke="none" stroke-width="0.5" stroke-linecap="butt"/><path d="M241.43336,89.53773c0,-1.33185 1.06738,-2.4115 2.38406,-2.4115c1.31669,0 2.38406,1.07967 2.38406,2.4115c0,1.33185 -1.06738,2.4115 -2.38406,2.4115c-1.31669,0 -2.38406,-1.07967 -2.38406,-2.4115z" fill="#000000" stroke="none" stroke-width="0.5" stroke-linecap="butt"/><path d="M255.14262,90.30811c0,-1.33185 1.06739,-2.4115 2.38406,-2.4115c1.31667,0 2.38406,1.07967 2.38406,2.4115c0,1.33185 -1.06739,2.4115 -2.38406,2.4115c-1.31667,0 -2.38406,-1.07967 -2.38406,-2.4115z" fill="#000000" stroke="none" stroke-width="0.5" stroke-linecap="butt"/><path d="M236.96277,101.21068c-2.78141,0 -2.78141,-2.81342 -2.78141,-2.81342v-0.3852c0,-3.79857 1.04514,-8.8189 -2.35209,-10.03722c-0.83898,1.82135 -2.47192,3.28215 -4.84043,3.88108h-8.73502c-1.46083,0.9851 -3.97863,-1.74692 -4.65965,-2.15791c-0.55388,-0.33427 -0.97975,-0.85502 -1.28426,-1.49222c-1.48988,1.10683 -1.50759,3.00001 -1.50759,6.3395v2.31118c0,0 0,2.81342 -2.78141,2.81342c-2.78141,0 -2.78141,-2.81342 -2.78141,-2.81342v-2.31118c0,-1.06863 -0.05222,-6.65088 0.21172,-7.23981c1.3143,-2.93243 3.9887,-4.39508 6.82847,-5.19942c0.5986,-1.63447 1.66718,-2.97352 3.14244,-3.34658c3.14739,-0.79591 12.42585,-2.05898 14.6314,0.28305c0.9731,1.03331 1.64777,2.19889 2.03555,3.39806c2.9868,0.6218 6.02015,2.13922 7.39248,5.13343c1.07384,2.34297 0.26259,7.78933 0.26259,10.43805v0.3852c0,0 0,2.81342 -2.78141,2.81342z" fill="#000000" stroke="none" stroke-width="0.5" stroke-linecap="butt"/><path d="M201.94313,122.12412c-1.0166,-4.04306 -3.79997,-14.19565 2.5946,-15.94459c1.69535,-0.46367 3.09235,1.70629 4.51098,2.75349c2.93375,2.16565 3.71816,4.98033 6.28965,7.33887c9.91724,-3.01827 21.11202,-1.43169 31.34012,-0.69915c0,0 2.77439,0.19968 2.57698,3.00601c-0.19741,2.8063 -2.97181,2.60664 -2.97181,2.60664c-12.22923,-0.88437 -27.27162,-3.83861 -37.66162,4.85174l-1.62728,1.11734c0,0 -2.31117,1.56531 -3.85865,-0.77246c-1.01199,-1.5288 -0.37379,-2.72722 0.18908,-3.37358zM206.53342,114.85081c0.20766,1.74331 0.28791,3.52724 0.65749,5.27144c0.0454,-0.03077 0.09083,-0.06137 0.13632,-0.09182l-0.0055,-0.80581c0,0 0.33958,0.08925 0.74625,0.32633c0.55419,-0.34674 1.11519,-0.67136 1.68249,-0.97513c-1.11397,-1.17332 -2.25583,-2.47138 -3.21704,-3.725z" fill="#000000" stroke="none" stroke-width="0.5" stroke-linecap="butt"/><path d="M215.37638,64.16648c0,7.80857 -4.99383,14.1387 -11.15399,14.1387c-6.16017,0 -11.15396,-6.33011 -11.15396,-14.1387c0,-7.80857 4.9938,-14.13867 11.15396,-14.13867c6.16017,0 11.15399,6.33007 11.15399,14.13867z" fill="#000000" stroke="none" stroke-width="0" stroke-linecap="butt"/><path d="M205.86081,63.35622c-1.50546,0.51547 -2.01507,-1.00734 -2.01507,-1.00734l0.09751,0.14167c-0.22993,-0.36293 -0.5311,-0.72296 -0.84593,-1.0803c-4.852,1.30361 -8.10348,0.23175 -10.36013,-3.49292c-0.55967,-0.63192 -0.93523,-1.34139 -1.02575,-2.03145c-0.25142,-0.59293 -0.48791,-1.23075 -0.7108,-1.9141l0.07161,-0.22673l-0.09757,0.00475l-0.07586,-1.59415c-0.04995,-0.71195 0.37666,-1.39603 1.07625,-1.63558c0.78145,-0.26757 1.62536,0.11474 1.9577,0.8599l0.84108,1.82105l-0.05832,0.02756c0.05355,0.07873 0.10517,0.15894 0.1546,0.24081c0.33435,0.55375 0.12676,1.58822 0.29864,2.3887c0.16358,0.30835 0.33178,0.5901 0.50592,0.8463c0.13924,0.09716 0.31209,0.17087 0.52688,0.2147c0.62469,0.12739 1.88943,-0.11747 3.07172,-0.37753c0.02817,-0.01148 0.0568,-0.0222 0.08592,-0.03219c0.14325,-0.04905 0.28858,-0.07626 0.43248,-0.08341c0.78173,-0.17575 1.47459,-0.33377 1.84674,-0.35958l0.12027,0.73083c1.05752,-0.00968 1.8643,0.32959 2.64128,1.04444c0.43666,0.0649 0.93242,0.31943 1.1845,1.07268c0.05233,0.15638 0.08342,0.30214 0.09707,0.43781c0.29614,0.414 0.60437,0.88007 0.93552,1.39955l0.23958,0.56623c0,0 0.5096,1.52278 -0.99587,2.03825z" fill="#000000" stroke="none" stroke-width="0.5" stroke-linecap="butt"/><path d="M240.32217,48.36426c6.40857,0 11.60374,6.58538 11.60374,14.7088c0,8.12342 -5.19518,14.7088 -11.60374,14.7088c-6.40857,0 -11.60376,-6.58538 -11.60376,-14.7088c0,-8.12342 5.19518,-14.7088 11.60376,-14.7088z" fill="#000000" stroke="none" stroke-width="0" stroke-linecap="butt"/><path d="M236.5531,60.61607l0.23958,-0.56623c0.33117,-0.51951 0.6394,-0.98558 0.93554,-1.39955c0.01365,-0.13567 0.04472,-0.28143 0.09707,-0.43781c0.25208,-0.75326 0.74781,-1.00779 1.18449,-1.07268c0.777,-0.71484 1.58378,-1.05414 2.64128,-1.04444l0.12029,-0.73083c0.37216,0.02579 1.06499,0.18384 1.84674,0.35958c0.1439,0.00715 0.28923,0.03435 0.43248,0.0834c0.02912,0.00997 0.05775,0.02071 0.08592,0.03219c1.18227,0.26005 2.44702,0.5049 3.07172,0.37753c0.21479,-0.04379 0.38765,-0.1175 0.52688,-0.21468c0.17413,-0.2562 0.34234,-0.53796 0.50592,-0.8463c0.17187,-0.80048 -0.03571,-1.83495 0.29864,-2.3887c0.04945,-0.08188 0.10105,-0.16208 0.1546,-0.24081l-0.05832,-0.02756l0.84108,-1.82105c0.33234,-0.74516 1.17624,-1.12744 1.9577,-0.8599c0.69961,0.23954 1.12622,0.92363 1.07626,1.63558l-0.07586,1.59414l-0.09757,-0.00475l0.07163,0.22673c-0.2229,0.68334 -0.45939,1.32117 -0.71081,1.9141c-0.09051,0.69008 -0.46608,1.39955 -1.02575,2.03145c-2.25666,3.72465 -5.50814,4.79652 -10.36013,3.4929c-0.31482,0.35732 -0.61599,0.71736 -0.84593,1.0803l0.09751,-0.14165c0,0 -0.5096,1.52278 -2.01507,1.00734c-1.50546,-0.51547 -0.99587,-2.03825 -0.99587,-2.03825z" fill="#000000" stroke="none" stroke-width="0.5" stroke-linecap="butt"/><path d="M227.67403,26.38295l28.63405,-24.55174l0.12866,0.289l1.01942,42.81102c0,0 -8.14261,-11.42056 -13.47143,-13.46332c-5.87459,-2.25199 -16.31068,-5.08492 -16.31068,-5.08492z" fill="#0046ff" stroke="#000000" stroke-width="2" stroke-linecap="butt"/><path d="M256.80503,13.80872c-0.13634,0.54545 -0.22949,1.06511 -0.23443,1.51638c-0.02276,2.07882 1.09157,3.14286 0.85413,5.47598c-2.51062,6.73727 -8.48204,1.15817 -11.70346,-1.81495c-0.96547,-0.89106 -2.73791,-1.21466 -3.1153,-2.73943c-0.24551,-0.99196 0.17315,-2.10423 0.6783,-2.99c1.13189,-1.98473 4.63424,-2.49946 6.43532,-3.56039c1.60801,-0.94721 2.83297,-3.57117 4.04065,-5.03707c0,0 1.01749,-1.23504 2.23849,-0.20583c0.21743,0.18327 0.36386,0.37306 0.4577,0.56123c-0.10689,2.88786 0.18268,5.86541 0.49507,8.29935c-0.04449,0.16392 -0.09364,0.32912 -0.14646,0.4947z" fill="#002ccd" stroke="none" stroke-width="0.5" stroke-linecap="butt"/><path d="M256.97527,7.48132l-0.44313,17.70454l0.66468,-21.06616v21.73851" fill="none" stroke="#000000" stroke-width="1.5" stroke-linecap="round"/><path d="M256.08904,2.32682l-20.16179,17.70454" fill="none" stroke="#000000" stroke-width="1.5" stroke-linecap="round"/><path d="M193.69873,115.95045c0.53478,2.16374 -0.19445,3.22488 -0.28469,5.40841c-0.04379,1.05936 2.96422,2.85834 3.20528,4.38059c1.2431,7.84997 -6.80258,7.87103 -11.75024,6.24259c-3.50591,-1.15393 -5.4746,-5.51869 -4.98063,-8.88731c0.27811,-1.89658 0.23609,-4.18686 0.37372,-6.48682c-0.09533,-0.42807 -0.14564,-0.87337 -0.14564,-1.33055c0,-1.05526 0.26803,-2.04718 0.739,-2.90992c0.70265,-2.71643 2.18385,-5.068 5.43597,-6.29221c4.85221,-1.82654 11.73573,5.23157 7.24284,9.12692z" fill="#002ccd" stroke="none" stroke-width="0.5" stroke-linecap="butt"/><path d="M252.47392,97.21783c1.65077,-0.41745 3.60802,1.35274 4.78377,1.14236c1.94396,-0.34784 2.47219,-2.91376 4.81343,-2.7822c11.51807,0.64725 5.56678,22.05093 0.78814,26.65528c-2.00391,1.93083 -6.55078,4.73917 -9.2158,1.9092c-1.7732,-1.88293 -3.18032,-3.96792 -3.29301,-6.62403c-0.09605,-2.26363 1.91687,-5.48166 0.09268,-6.79647c-0.25503,0.03368 -0.51515,0.05108 -0.77927,0.05108c-0.22719,0 -0.4514,-0.01286 -0.67198,-0.03789c-2.97537,-0.33769 -5.28818,-2.89108 -5.28818,-5.99086c0,-1.21346 0.35443,-2.34321 0.96431,-3.28906c0.22187,-0.49778 0.52785,-0.91785 0.99918,-1.18342c0.695,-0.63583 1.5389,-1.10826 2.47245,-1.35732c1.37916,-0.71283 2.71899,-1.28816 4.33431,-1.69664z" fill="#002ccd" stroke="none" stroke-width="0.5" stroke-linecap="butt"/><path d="M196.38314,46.9312c-2.28152,0.12822 -4.03845,-6.46598 -2.56543,-8.52981c4.9397,-6.92095 21.81795,-14.9599 28.16493,-6.49915c1.98687,2.64858 0.86156,6.46476 -1.10423,8.79275c-3.02101,3.57759 -8.4367,2.22279 -10.611,3.55898c-5.25287,3.22804 -4.84991,7.1681 -11.63574,3.24583z" fill="#002ccd" stroke="none" stroke-width="0.5" stroke-linecap="butt"/><path d="M241.70279,33.70786c2.07843,-12.95224 20.36192,9.11314 12.27881,11.29684c-2.01968,0.54563 -3.53698,0.13125 -4.79782,-1.61768c-0.76409,-1.05987 -0.96663,-4.04035 -2.06149,-3.33736c-0.05877,0.03773 -0.11579,0.07667 -0.17129,0.1166c-0.57417,1.22146 -1.80531,2.06585 -3.23141,2.06585c-1.97501,0 -3.5761,-1.6195 -3.5761,-3.61726c0,-0.69818 0.19556,-1.35018 0.53428,-1.90298c0.38336,-0.96582 0.84831,-1.90284 1.025,-3.00399z" fill="#0077ff" stroke="none" stroke-width="0.5" stroke-linecap="butt"/><path d="M255.42839,32.04773c-0.3791,6.90213 -15.65883,-3.38305 -16.29587,-4.51069c-1.05401,-0.62923 -1.7611,-1.78979 -1.7611,-3.11742c0,-1.99775 1.60107,-3.61726 3.5761,-3.61726c0.88606,0 1.69687,0.32598 2.3216,0.86581c5.56945,0.48614 12.40207,5.95927 12.1593,10.37955z" fill="#0046ff" stroke="none" stroke-width="0.5" stroke-linecap="butt"/><path d="M206.94444,120.4712c-1.90175,0.47619 -5.65966,4.62007 -8.14456,2.39322c-1.30597,-1.17034 -2.93543,-2.62615 -2.9162,-4.38124c0.02467,-2.25162 5.34942,-13.1645 6.75935,-13.80153c0.3238,-0.14629 0.79314,-0.24053 1.36975,-0.28588c0.59561,-0.23698 1.24511,-0.36724 1.92497,-0.36724c0.9217,0 1.78753,0.23941 2.53896,0.65953c5.01053,0.81042 11.07341,3.08312 10.4571,6.16959c-0.67524,3.38155 -8.23749,8.61679 -11.95127,9.54672z" fill="#0077ff" stroke="none" stroke-width="0.5" stroke-linecap="butt"/><path d="M239.75424,130.36609l-3.3456,-10.91472l8.32492,-0.08922l-4.66862,11.39428z" fill="#ffffff" stroke="#000000" stroke-width="1.5" stroke-linecap="butt"/></g></g></svg>