<svg version="1.1" xmlns="http://www.w3.org/2000/svg" xmlns:xlink="http://www.w3.org/1999/xlink" width="196.5706" height="310.75725" viewBox="0,0,196.5706,310.75725"><g transform="translate(-151.84427,-6.65525)"><g data-paper-data="{&quot;isPaintingLayer&quot;:true}" fill-rule="nonzero" stroke-linejoin="miter" stroke-miterlimit="10" stroke-dasharray="" stroke-dashoffset="0" style="mix-blend-mode: normal"><g stroke-linecap="butt"><path d="M340.28249,153.35234c2.77313,1.27456 3.06464,6.56478 0.6511,11.81603c-2.41354,5.25125 -12.35267,6.87455 -15.12581,5.6c-0.7342,-0.33744 -4.84034,-8.13428 -5.9801,-13.07598c-1.34761,-5.84288 2.66185,-10.9986 7.84478,-10.39668c5.18292,0.60192 2.19971,15.4742 3.21873,13.25706c2.41354,-5.25125 6.61816,-8.47499 9.3913,-7.20043z" fill="#f99cff" stroke="#ce59d6" stroke-width="1.5"/><path d="M328.55559,165.91022c0,0 -2.4969,32.83225 -21.82509,51.51788c-19.32818,18.68564 -39.71958,26.91818 -45.58704,20.84895c-4.11388,-4.25535 -7.66716,-32.8178 1.83362,-45.53496c4.0498,-5.42081 24.52429,7.39713 31.15076,2.8535c23.27337,-15.95809 34.42775,-29.68537 34.42775,-29.68537z" fill="#f99cff" stroke="#ce59d6" stroke-width="3"/><path d="M297.43656,206.46126l3.38133,-3.26892l8.98953,9.29866l-3.38134,3.26892z" fill="#ffffff" stroke="#ce59d6" stroke-width="0"/><path d="M301.98455,200.7088l2.84098,-3.74807l10.3072,7.81271l-2.84098,3.74807z" fill="#ffffff" stroke="#ce59d6" stroke-width="0"/><path d="M305.82737,194.515l2.01497,-4.24961l11.68642,5.54117l-2.01497,4.24961z" fill="#ffffff" stroke="#ce59d6" stroke-width="0"/><path d="M291.45884,212.94019l3.92983,-2.58372l7.10525,10.80705l-3.92984,2.58372z" fill="#ffffff" stroke="#ce59d6" stroke-width="0"/></g><path d="M258.9,300.5625v-54.4h15.4v54.4z" fill="#ffed9e" stroke="#ffe571" stroke-width="2.5" stroke-linecap="butt"/><path d="M223.9,298.1625v-54.4h15.4v54.4z" fill="#ffed9e" stroke="#ffe571" stroke-width="2.5" stroke-linecap="butt"/><g data-paper-data="{&quot;index&quot;:null}" stroke-linecap="butt"><path d="M160.32885,9.47006c3.02706,-0.3894 6.07876,3.94171 6.81614,9.67381c0.31133,2.42016 1.89986,-12.66495 7.0264,-11.69357c5.12654,0.97139 7.41572,7.08832 4.38669,12.2633c-2.56184,4.37681 -8.80664,10.594 -9.60807,10.6971c-3.02706,0.3894 -12.02961,-4.12456 -12.767,-9.85666c-0.73739,-5.7321 1.11877,-10.69456 4.14584,-11.08397z" fill="#f99cff" stroke="#ce59d6" stroke-width="1.5"/><path d="M167.77632,24.9541c0,0 6.55222,16.42945 24.00641,38.60289c4.96961,6.3133 28.33534,0.18572 30.58394,6.56771c5.27518,14.97209 -6.63566,41.17459 -11.83153,44.0092c-7.41066,4.04289 -24.41836,-9.89705 -37.2934,-33.49716c-12.87505,-23.60011 -5.46543,-55.68263 -5.46543,-55.68263z" fill="#f99cff" stroke="#ce59d6" stroke-width="3"/><path d="M178.83491,86.96096l-2.2524,-4.12867l11.35385,-6.19409l2.2524,4.12867z" fill="#ffffff" stroke="#af4c00" stroke-width="0"/><path d="M174.02986,79.13529l-2.2524,-4.12867l11.35385,-6.19409l2.2524,4.12867z" fill="#ffffff" stroke="#af4c00" stroke-width="0"/><path d="M170.59019,70.47681l-1.59373,-4.42484l12.16833,-4.38277l1.59374,4.42485z" fill="#ffffff" stroke="#af4c00" stroke-width="0"/><path d="M168.13083,60.83922l-0.65572,-4.65717l12.80723,-1.80324l0.65572,4.65718z" fill="#ffffff" stroke="#af4c00" stroke-width="0"/></g><g data-paper-data="{&quot;index&quot;:null}" stroke-linecap="butt"><path d="M331.84488,34.16313c1.92909,-5.44788 5.82518,-9.03841 8.70214,-8.01968c2.87697,1.01874 3.64539,6.26097 1.7163,11.70884c-1.92909,5.44787 -11.68086,7.96276 -14.55783,6.94403c-0.76169,-0.26972 -5.55566,-7.66356 -7.13735,-12.48204c-1.87013,-5.69718 1.65699,-11.19415 6.87311,-11.06308c5.21611,0.13107 3.58916,15.21207 4.40364,12.91193z" fill="#f99cff" stroke="#cf5ad5" stroke-width="1.5"/><path d="M298.39888,72.38494c21.73596,-17.99606 31.60413,-32.67521 31.60413,-32.67521c0,0 0.48046,32.92354 -17.07998,53.27946c-17.56042,20.35592 -37.12438,30.39759 -43.51633,24.88346c-4.48162,-3.86616 -10.60162,-31.99061 -2.289,-45.51434c3.54334,-5.76462 25.09243,5.15054 31.28117,0.02665z" fill="#f99cff" stroke="#ce59d6" stroke-width="3"/><path d="M296.32937,89.54412l3.07208,-3.56112l9.79309,8.4482l-3.07209,3.56113z" fill="#ffffff" stroke="#af4c00" stroke-width="0"/><path d="M302.67602,82.90714l3.07208,-3.56112l9.79309,8.44821l-3.07207,3.56112z" fill="#ffffff" stroke="#af4c00" stroke-width="0"/><path d="M306.68553,76.7672l2.49064,-3.98949l10.97108,6.84926l-2.49063,3.98948z" fill="#ffffff" stroke="#af4c00" stroke-width="0"/><path d="M309.95287,70.25146l1.62267,-4.41432l12.13936,4.46236l-1.62267,4.41431z" fill="#ffffff" stroke="#af4c00" stroke-width="0"/></g><path d="M242.15307,162.57261v-13.35683h7.90123v13.35683z" fill="#fbc7ff" stroke="#000000" stroke-width="3" stroke-linecap="butt"/><path d="M287.1148,107.29931c0,10.05157 0.44481,17.90029 -5.13247,25.28671c-1.57852,2.09055 -7.10053,5.44199 -9.01707,7.20792c-4.07737,3.75696 -4.63262,10.48628 -9.90035,12.42693c-4.53246,1.66978 -13.65284,-1.18263 -18.74841,-1.18263c-5.39013,0 -11.01784,1.33322 -15.76835,-0.52545c-4.39372,-1.71908 -7.96907,-6.50857 -11.52888,-9.52455c-5.83481,-4.94343 -12.24561,-6.7367 -14.86315,-14.16595c-1.63055,-4.62792 -0.63792,-14.32095 -0.63792,-19.52297c0,-4.85677 -1.10667,-15.69593 0.32311,-20.13161c2.81964,-8.74747 10.06869,-10.2552 17.06924,-15.54091c4.21992,-3.18622 8.56281,-9.66575 13.76877,-10.96512c3.56,-0.88854 7.77397,2.89871 11.63718,2.89871c6.54691,0 16.51296,-1.78985 22.06112,0.89587c5.50529,2.66497 6.60278,9.7873 10.51256,14.47105c3.02695,3.62615 7.83591,6.82332 9.5823,11.32815c1.93206,4.98377 0.64232,11.3574 0.64232,17.04386z" fill="#fbc7ff" stroke="#000000" stroke-width="3" stroke-linecap="butt"/><g stroke="#000000" stroke-linecap="butt"><path d="M276.25062,103.98154c0,10.27017 -4.9167,18.59578 -10.98176,18.59578c-6.06506,0 -10.98176,-8.32562 -10.98176,-18.59578c0,-10.27017 4.9167,-18.59578 10.98176,-18.59578c6.06506,0 10.98176,8.32562 10.98176,18.59578z" fill="#ffffff" stroke-width="1.5"/><path d="M275.95777,101.35346c0,6.71616 -3.41521,12.16069 -7.62807,12.16069c-2.94399,0 -5.49845,-2.65875 -6.77015,-6.55223c-0.54811,-1.67812 4.44856,-5.82956 4.44856,-5.82956c0,0 -4.82165,-4.65941 -3.99199,-6.60567c1.37231,-3.21924 3.68803,-5.33392 6.31358,-5.33392c4.21287,0 7.62807,5.44453 7.62807,12.16069z" fill="#000000" stroke-width="0"/></g><path d="M217.74393,95.96775l12.46324,10.582l-14.10933,5.40858" fill="none" stroke="#000000" stroke-width="5" stroke-linecap="round"/><path d="M222.68219,87.99934l1.1489,-2.04249l0.76594,1.91484z" fill="none" stroke="#000000" stroke-width="1.5" stroke-linecap="round"/><path d="M265.0001,123.15719l2.01562,2.95624" fill="none" stroke="#000000" stroke-width="1" stroke-linecap="round"/><path d="M270.18694,123.85594l-1.61249,-2.14999" fill="none" stroke="#000000" stroke-width="1" stroke-linecap="round"/><path d="M264.20394,83.17082l1.22953,-2.18583l0.81969,2.04921z" fill="none" stroke="#000000" stroke-width="1.5" stroke-linecap="round"/><path d="M228.41999,195.87063l-0.7525,-38.75363h36.11989v29.34741l15.22095,59.77173l-61.09149,-1.45895z" fill="#ce59d6" stroke="#d076d6" stroke-width="3" stroke-linecap="butt"/><path d="M231.78957,177.34487l-6.24197,-19.40072l5.07404,-1.63252l6.24197,19.40072z" fill="#ffe15d" stroke="#c3ac46" stroke-width="1.5" stroke-linecap="butt"/><path d="M253.14666,176.54007l7.61062,-18.90579l4.94459,1.99047l-7.61062,18.90579z" fill="#ffe15d" stroke="#c3ac46" stroke-width="1.5" stroke-linecap="butt"/><path d="M230.10821,270.45344v-96.88407h33.23531v96.88407z" fill="#ffe15d" stroke="#c3ac46" stroke-width="1.5" stroke-linecap="butt"/><path d="M221.32907,202.82153v-11.91455h9.71976v11.91455z" fill="#ffe15d" stroke="#c3ac46" stroke-width="1.5" stroke-linecap="butt"/><path d="M263.02997,202.19444v-11.91454h9.71976v11.91454z" fill="#ffe15d" stroke="#c3ac46" stroke-width="1.5" stroke-linecap="butt"/><g fill="#ffe15d" stroke="#c3ac46" stroke-width="2.5"><path d="M218.53729,70.54567l-0.0516,-29.05858l50.59075,-1.27172l1.08576,29.74802c0,0 -21.42322,-5.13297 -29.49473,-4.93007c-8.73898,0.21967 -22.13018,5.51235 -22.13018,5.51235z" stroke-linecap="butt"/><path d="M206.67148,42.93598l-0.46226,-12.37148c0,0 3.61561,-6.7144 30.197,-7.0946c13.21219,-0.18898 20.18488,1.78158 28.35686,2.57449c8.91827,0.86533 18.3675,-1.44519 18.3675,-1.44519l1.008,16.38947z" stroke-linecap="butt"/><path d="M218.90243,42.05257l-0.35475,-9.49439" stroke-linecap="round"/><path d="M241.43936,31.11881l0.35476,9.49439" stroke-linecap="round"/><path d="M268.29672,40.52295l-0.32251,-8.63126" stroke-linecap="round"/></g><path d="M249.94643,128.56027c0,0 -5.29096,1.77181 -7.89858,1.72975c-2.5581,-0.04126 -7.60142,-1.97975 -7.60142,-1.97975" fill="none" stroke="#000000" stroke-width="2" stroke-linecap="round"/><path d="M248.79195,133.27527l-1.91637,-2.89267l2.72426,-0.73451l-0.61573,3.73773z" fill="#ffffff" stroke="#000000" stroke-width="0.5" stroke-linecap="butt"/><path d="M264.49265,104.3166c1.53907,-0.86574 3.10407,0.22623 4.46691,0.53033c0.96609,0.21557 1.6272,-1.12737 2.78387,-1.11972c0.81522,0.00539 1.98406,1.31237 2.00233,2.00948c0.11381,4.34214 -7.58738,5.43242 -9.27006,2.48774c-0.66317,-0.39139 -1.10805,-1.11328 -1.10805,-1.93909c0,-0.73222 0.34976,-1.38274 0.89132,-1.79361c0.06927,-0.06706 0.1465,-0.1261 0.23368,-0.17514z" fill="#98d7ff" stroke="none" stroke-width="0.5" stroke-linecap="butt"/><path d="M272.92866,98.64392c-2.27035,5.32229 -5.20807,-1.61871 -5.20807,-3.95928c-0.36538,-0.40004 -0.58824,-0.93246 -0.58824,-1.51694c0,-1.24264 1.00736,-2.25 2.25,-2.25c0.04075,0 0.08125,0.00108 0.12147,0.00322c2.57029,-0.45073 4.32051,5.62328 3.42483,7.723z" fill="#ffffff" stroke="none" stroke-width="0.5" stroke-linecap="butt"/><path d="M222.1,296.1625v-14.4h19.2v14.4z" fill="#ffffff" stroke="#fbc4ff" stroke-width="2.5" stroke-linecap="butt"/><path d="M256.9,298.9625v-16h19.2v16z" fill="#ffffff" stroke="#fbc4ff" stroke-width="2.5" stroke-linecap="butt"/><path d="M252.5,316.1625v-18.8h29v18.8z" fill="#ffe15d" stroke="#c3ac46" stroke-width="2.5" stroke-linecap="butt"/><path d="M217.7,316.1625v-18.8h29v18.8z" fill="#ffe15d" stroke="#c3ac46" stroke-width="2.5" stroke-linecap="butt"/><path d="M333.21435,62.43435c2.14947,-1.1224 -3.77376,6.92156 -1.61384,6.2834c3.40976,-1.00742 4.90861,-5.39477 9.83386,-1.20109c11.51759,9.80688 3.09067,13.74894 -2.86799,21.23829c-5.95866,7.48935 -14.78637,10.38038 -19.71725,6.45729c-4.93089,-3.92309 -4.09771,-13.17471 1.86095,-20.66406c1.29234,-1.62432 5.89219,-11.50038 12.50427,-12.11382z" data-paper-data="{&quot;index&quot;:null}" fill="#ffe15d" stroke="#c3ac46" stroke-width="2.5" stroke-linecap="butt"/><path d="M317.15653,96.34278l3.43611,3.21129l-8.83106,9.4493l-3.43611,-3.21129z" data-paper-data="{&quot;index&quot;:null}" fill="#f99cff" stroke="#ce59d6" stroke-width="0" stroke-linecap="butt"/><path d="M325.84097,95.55833l-53.24449,72.93817l-9.81301,-7.40901l53.24448,-72.93819z" data-paper-data="{&quot;index&quot;:null}" fill="#fab4ff" stroke="#000000" stroke-width="3" stroke-linecap="butt"/><path d="M326.979,95.57911l-14.48152,22.42351l-13.38177,-8.6422l16.89538,-22.86792z" data-paper-data="{&quot;index&quot;:null}" fill="#ffe15d" stroke="#c3ac46" stroke-width="2.5" stroke-linecap="butt"/><path d="M316.63413,121.40796l-3.57539,4.82988l-18.8863,-14.66677l3.57539,-4.82988z" data-paper-data="{&quot;index&quot;:null}" fill="#ffffff" stroke="#fbc4ff" stroke-width="2.5" stroke-linecap="butt"/><path d="M177.83539,95.97132l55.32704,69.71088l-9.57635,7.65978l-55.32704,-69.71088z" data-paper-data="{&quot;index&quot;:null}" fill="#fbc7ff" stroke="#000000" stroke-width="3" stroke-linecap="butt"/><path d="M179.49556,89.99805c4.36683,8.51627 3.36147,17.75076 -2.24552,20.62582c-5.60699,2.87505 -13.69236,-1.69806 -18.05918,-10.21433c-4.36683,-8.51627 -11.85225,-14.04088 1.3713,-21.38714c5.65476,-3.14146 6.26012,1.45517 9.40466,3.11445c1.99193,1.05108 -2.23094,-8.00195 -0.34464,-6.47817c6.36174,1.90375 8.92629,12.49234 9.87338,14.33938z" data-paper-data="{&quot;index&quot;:null}" fill="#ffe15d" stroke="#c3ac46" stroke-width="2.5" stroke-linecap="butt"/><path d="M182.23973,100.87758l18.56053,21.5384l-12.69698,9.62009l-16.12016,-21.27601z" data-paper-data="{&quot;index&quot;:null}" fill="#ffe15d" stroke="#c3ac46" stroke-width="2.5" stroke-linecap="butt"/><path d="M204.40062,119.46678l3.42721,4.93613l-19.95141,13.18135l-3.42721,-4.93613z" data-paper-data="{&quot;index&quot;:null}" fill="#ffffff" stroke="#fbc4ff" stroke-width="2.5" stroke-linecap="butt"/></g></g></svg>