<svg version="1.1" xmlns="http://www.w3.org/2000/svg" xmlns:xlink="http://www.w3.org/1999/xlink" width="828.29879" height="432.5" viewBox="0,0,828.29879,432.5"><g transform="translate(42.86411,10.4375)"><g stroke-miterlimit="10"><path d="M-16.56607,281.8125v-289h701.15616v289z" fill="#3c3c3c" stroke="#2a2a2a" stroke-width="6.5"/><path d="M-36.08859,418.8125v-150h818.27327v150z" fill="#4d4d4d" stroke="#2a2a2a" stroke-width="6.5"/><path d="M164.75,268.21875v-156.5h87.5v156.5z" fill="#6f6f6f" stroke="#2a2a2a" stroke-width="6.5"/><path d="M416.75,269.21875v-162.5h87.5v162.5z" fill="#6f6f6f" stroke="#2a2a2a" stroke-width="6.5"/><path d="M245.75,201.96875c0,2.62335 -8.05887,4.75 -18,4.75c-9.94113,0 -18,-2.12665 -18,-4.75c0,-2.62335 8.05887,-4.75 18,-4.75c9.94113,0 18,2.12665 18,4.75z" fill="#6f6f6f" stroke="#2a2a2a" stroke-width="5"/><text transform="translate(190.25,88.46875) scale(0.86836,0.86836)" font-size="40" xml:space="preserve" fill="#000000" stroke="#000000" stroke-width="22" font-family="Sans Serif" font-weight="normal" text-anchor="start"><tspan x="0" dy="0">operations room</tspan></text><path d="M299.66667,65.08333v-9.33333h13.33333v9.33333z" fill="#000000" stroke="none" stroke-width="0"/><text transform="translate(189,90.125) scale(0.89003,0.89003)" font-size="40" xml:space="preserve" fill="#ffffff" stroke="#ffffff" stroke-width="1" font-family="Sans Serif" font-weight="normal" text-anchor="start"><tspan x="0" dy="0">operations room</tspan></text><path d="M498.25,202.46875c0,2.62336 -8.05887,4.75 -18,4.75c-9.94112,0 -18,-2.12664 -18,-4.75c0,-2.62336 8.05888,-4.75 18,-4.75c9.94113,0 18,2.12664 18,4.75z" fill="#6f6f6f" stroke="#2a2a2a" stroke-width="5"/><path d="M-39.61411,49.37481v-33.03303h732.73274v33.03303z" fill="#515151" stroke="#2a2a2a" stroke-width="6.5"/></g></g></svg>