<svg version="1.1" xmlns="http://www.w3.org/2000/svg" xmlns:xlink="http://www.w3.org/1999/xlink" width="511.42415" height="775.26912" viewBox="0,0,511.42415,775.26912"><g transform="translate(-102.32907,200.12069)"><g data-paper-data="{&quot;isPaintingLayer&quot;:true}" fill-rule="nonzero" stroke-linejoin="miter" stroke-miterlimit="10" stroke-dasharray="" stroke-dashoffset="0" style="mix-blend-mode: normal"><path d="M280.79114,91.90025v-59.5h138.5v59.5z" fill="#ffffff" stroke="#000000" stroke-width="3.5" stroke-linecap="butt"/><path d="M438.68618,460.48636c2.43894,10.801 0.98505,22.0485 2.63076,32.93653c0.54396,3.59884 3.12462,7.19662 3.50275,10.97789c1.58636,15.86355 1.11171,35.82758 -6.63673,50.56523c-1.27005,2.41566 -2.78621,4.72205 -3.77146,7.26718c-0.27328,0.70593 -0.10111,1.61648 -0.59251,2.19229c-8.75408,10.25775 -21.83068,12.48848 -34.50257,9.49706c-4.09963,-0.96779 -9.63364,-1.28425 -12.68885,-3.92284c-2.17915,-1.88199 -4.97487,-5.46595 -6.80519,-7.42884c-2.30615,-2.47318 -5.08195,-4.47897 -7.38711,-6.95308c-5.81047,-6.23638 -7.76818,-14.17594 -9.78402,-22.23925c-0.96031,-3.84126 -2.44179,-7.23379 -2.46509,-11.26164c-0.12476,-21.57172 -2.28001,-43.25109 -0.13351,-64.71611c0.25116,-2.51163 2.10184,-4.92245 2.13351,-7.42088c0.50219,-39.62686 -0.32787,-78.68052 5.38672,-117.7302c0.81948,-5.59976 3.20276,-10.50638 4.90151,-15.77042c1.19526,-0.16467 2.16582,-1.03346 2.47961,-2.17429l0.73064,-2.43544l-0.06367,-0.0191l0.10102,-0.11694c0.15951,-0.79269 0.32072,-1.58389 0.48571,-2.37273c0.05229,-0.10149 0.10672,-0.19961 0.1651,-0.29187c1.76342,-2.78672 3.26113,-5.5574 4.64774,-8.52328c2.03367,-4.34994 4.91649,-8.38758 7.00689,-12.76459c1.65115,-3.45729 3.39766,-6.90198 5.32073,-10.24409c2.34057,-2.49615 3.28468,-6.59161 6.27941,-8.30288c19.41496,-11.09427 37.03626,0.6594 39.0586,20.88281z" fill="#650000" stroke="none" stroke-width="0.5" stroke-linecap="butt"/><path d="M381.04454,145.97518c-2.87775,-11.68026 -4.80115,-27.58078 0.6803,-38.54368c1.36329,-2.7266 3.56432,-4.61255 5.46116,-6.92577c0.72978,-0.88998 0.95649,-2.23079 1.9087,-2.87728c1.76526,-1.19851 3.94761,-1.62066 5.91886,-2.43718c1.97125,-0.81652 3.81292,-2.06117 5.90861,-2.46193c1.13045,-0.21617 2.23885,0.57162 3.3842,0.6849c4.38246,0.43342 8.86381,0.65569 12.97472,2.4985c6.64237,2.97762 11.88124,9.63431 15.23708,15.82522c1.02638,1.89348 2.09704,5.68218 3.34021,7.51806c1.10967,1.63874 3.33112,3.50616 4.48467,5.05755c3.63997,4.89534 5.96072,11.57504 8.1711,17.19375c4.10735,10.44074 12.01647,22.65697 15.34686,33.47254c1.93832,6.29478 2.20546,12.74739 3.72152,19.12498c0.69937,2.942 2.37717,5.93649 2.68207,8.98555c0.32011,3.20112 -1.81072,8.35345 0.39511,10.95647c1.72709,2.03807 4.79393,4.87709 6.37764,7.38464c2.3311,3.69091 2.58737,9.25367 5.20788,12.70102c5.53332,7.27921 7.80071,16.45542 13.36969,23.90602c1.70317,2.27862 7.80661,11.4928 9.25567,12.69759c6.44792,5.36099 12.61805,10.66413 18.9512,15.87158c4.11234,3.38138 7.49044,5.29092 11.10718,9.26431c1.05306,1.1569 3.5139,1.83857 4.80663,2.87277c3.01657,2.41325 6.16006,4.68518 9.13842,7.09976c0.3007,0.24378 5.02511,4.38371 5.51609,4.41438c2.7631,0.17261 7.89664,-2.35663 11.37455,-2.35663c5.79835,0 12.36604,-0.35798 18.05311,1.38356c5.86611,1.79637 11.68445,6.54465 16.97355,8.12475c3.84441,1.14851 7.93699,5.31195 9.24603,9.02089c1.21083,3.43068 2.72554,6.77471 3.57416,10.31244c0.47287,1.97127 -0.38088,4.03782 -0.48041,6.06256c-0.22356,4.54787 -3.04751,16.00459 -5.86718,19.3086c-1.1996,1.40565 -6.05837,6.32705 -8.50782,7.34765c-1.41745,0.5906 -7.01683,1.9162 -7.57602,2.86255c-1.89531,3.20752 -0.93058,7.63736 -2.91616,10.7898c-1.99705,3.17065 -5.28179,5.44136 -8.50782,7.34765c-8.17042,4.82797 -19.36686,3.56556 -27.95588,0.78827c-9.6843,-3.13146 -18.24722,-7.94395 -26.77363,-13.3828c-4.00737,-2.55623 -9.1439,-6.2546 -13.13841,-9.09976c-0.0569,-0.04053 -3.35101,-3.16898 -4.31077,-3.69246c-13.21573,-7.20825 -29.18648,-9.12585 -40.78457,-19.63789c-7.83263,-7.09918 -14.0009,-14.69647 -19.27328,-24.012c-2.1738,-3.8408 -5.7953,-6.90699 -8.72672,-9.988c-2.06588,-2.17128 -3.1255,-5.51495 -4.75263,-7.97071c-0.86571,-1.30659 -2.60619,-2.1819 -3.54192,-3.35229c-0.97128,-1.21486 -1.03064,-2.98901 -2.33483,-4.4012c-0.66924,-0.72466 -5.14148,-5.45718 -6.53586,-7.07173c-1.27338,-1.47444 -1.48783,-3.67084 -2.26555,-5.4373c-3.15349,-7.16273 -7.88848,-12.10566 -10.0581,-19.93945c-0.61513,-2.22105 -1.57869,-12.14889 -1.67285,-14.48441c-0.21926,-5.43849 -2.1542,-10.88153 -2.1542,-16.35807c0,-4.0574 0.43951,-7.49745 -0.61546,-11.31308c-3.7139,-13.43243 -10.3498,-26.34192 -14.96024,-39.47672c-1.9687,-5.60868 -2.17953,-9.54214 -3.27009,-14.98396c-0.39252,-1.95864 -1.73856,-3.87109 -2.26102,-5.83992c-1.32333,-4.98675 -2.26887,-9.20152 -3.25835,-14.14888z" data-paper-data="{&quot;index&quot;:null}" fill="#650000" stroke="none" stroke-width="0.5" stroke-linecap="butt"/><path d="M287.91884,290.33852c-1.30419,1.41219 -1.36355,3.18634 -2.33483,4.4012c-0.93573,1.1704 -2.6762,2.0457 -3.54192,3.3523c-1.62712,2.45577 -2.68676,5.79943 -4.75263,7.97072c-2.93143,3.081 -6.55292,6.14719 -8.72672,9.98799c-5.27237,9.31553 -11.44065,16.91283 -19.27328,24.01201c-11.59809,10.51205 -27.56884,12.42964 -40.78457,19.63789c-0.95976,0.52348 -4.25387,3.65194 -4.31077,3.69246c-3.99451,2.84516 -9.13105,6.54353 -13.13842,9.09977c-8.52641,5.43885 -17.08933,10.25134 -26.77363,13.3828c-8.58902,2.77729 -19.78546,4.03971 -27.95588,-0.78827c-3.22603,-1.90629 -6.51076,-4.17701 -8.50781,-7.34766c-1.98558,-3.15244 -1.02085,-7.58228 -2.91616,-10.7898c-0.55919,-0.94635 -6.15857,-2.27194 -7.57603,-2.86255c-2.44945,-1.0206 -7.30821,-5.942 -8.50781,-7.34766c-2.81968,-3.30401 -5.64363,-14.76073 -5.86719,-19.30859c-0.09953,-2.02474 -0.95327,-4.09129 -0.48041,-6.06256c0.84862,-3.53773 2.36333,-6.88176 3.57416,-10.31244c1.30904,-3.70894 5.40162,-7.87238 9.24603,-9.02089c5.28909,-1.5801 11.10743,-6.32838 16.97355,-8.12475c5.68706,-1.74154 12.25476,-1.38357 18.05311,-1.38357c3.47792,0 8.61145,2.52925 11.37455,2.35664c0.49098,-0.03067 5.21539,-4.17061 5.51609,-4.41439c2.97836,-2.41458 6.12185,-4.68652 9.13842,-7.09977c1.29274,-1.03419 3.75357,-1.71586 4.80663,-2.87276c3.61674,-3.97339 6.99485,-5.88293 11.10718,-9.26431c6.33315,-5.20745 12.50328,-10.51059 18.9512,-15.87158c1.44906,-1.20479 7.55251,-10.41897 9.25567,-12.69758c5.56898,-7.45059 7.83637,-16.62681 13.36969,-23.90602c2.62052,-3.44735 2.87678,-9.01011 5.20788,-12.70102c1.58371,-2.50755 4.65055,-5.34656 6.37764,-7.38463c2.20583,-2.60301 0.07499,-7.75535 0.39511,-10.95647c0.30491,-3.04906 1.98271,-6.04354 2.68207,-8.98555c1.51607,-6.37759 1.7832,-12.8302 3.72152,-19.12498c3.33038,-10.81557 11.23951,-23.0318 15.34686,-33.47254c2.21038,-5.61871 4.53113,-12.29841 8.1711,-17.19375c1.15355,-1.55139 3.375,-3.41882 4.48467,-5.05755c1.24317,-1.83587 2.31383,-5.62457 3.34021,-7.51806c3.35584,-6.1909 8.5947,-12.8476 15.23707,-15.82521c4.11091,-1.84282 8.59226,-2.06508 12.97472,-2.49851c1.14535,-0.11327 2.25374,-0.90107 3.3842,-0.6849c2.09569,0.40075 3.93737,1.6454 5.90862,2.46192c1.97125,0.81652 4.15361,1.23867 5.91887,2.43718c0.95221,0.64649 1.17891,1.9873 1.90869,2.87728c1.89684,2.31321 4.09786,4.19917 5.46116,6.92577c5.48145,10.96289 3.55804,26.86341 0.6803,38.54367l-0.06718,0.6852c-0.98947,4.94736 -1.93502,9.16213 -3.25834,14.14888c-0.52247,1.96884 -1.86851,3.88128 -2.26103,5.83993c-1.09056,5.44182 -1.30138,9.37527 -3.27009,14.98395c-4.61045,13.1348 -11.24635,26.04428 -14.96025,39.47672c-1.05497,3.81563 -0.61546,7.25568 -0.61546,11.31308c0,5.47654 -1.93494,10.91958 -2.15421,16.35807c-0.09416,2.33552 -1.05771,12.26337 -1.67285,14.48441c-0.2372,0.85645 -0.50506,1.67835 -0.79817,2.47238c-0.6539,1.04527 -1.29164,2.09556 -1.9127,3.14671c-1.21318,0.04188 -2.1126,0.9413 -2.1126,0.9413c-6.8613,6.86909 -10.26292,15.29648 -12.54744,24.29788c-0.72131,0.76972 -1.28351,1.36814 -1.4886,1.5902z" fill="#650000" stroke="none" stroke-width="0.5" stroke-linecap="butt"/><path d="M352.6051,452.48335c2.43893,10.80099 0.98505,22.0485 2.63075,32.93654c0.54396,3.59884 3.12462,7.19662 3.50275,10.97789c1.58635,15.86355 1.11171,35.82758 -6.63672,50.56523c-1.27005,2.41566 -2.78621,4.72205 -3.77146,7.26718c-0.27327,0.70593 -0.10111,1.61648 -0.59251,2.19228c-8.75408,10.25775 -21.83067,12.48848 -34.50256,9.49705c-4.09963,-0.96779 -9.63364,-1.28425 -12.68884,-3.92283c-2.17915,-1.882 -4.97487,-5.46595 -6.8052,-7.42884c-2.30615,-2.47318 -5.08195,-4.47897 -7.3871,-6.95308c-5.81047,-6.23638 -7.76819,-14.17594 -9.78402,-22.23926c-0.96031,-3.84125 -2.44179,-7.23379 -2.46509,-11.26164c-0.12476,-21.57172 -2.28001,-43.25108 -0.1335,-64.7161c0.25116,-2.51163 2.10184,-4.92245 2.1335,-7.42088c0.50219,-39.62686 -0.32787,-78.68053 5.38672,-117.7302c0.81948,-5.59977 3.20277,-10.50638 4.90151,-15.77041c1.19526,-0.16467 2.16582,-1.03346 2.47962,-2.17429l0.73063,-2.43544l-0.06367,-0.0191l0.10102,-0.11694c0.15951,-0.79269 0.32072,-1.58389 0.48571,-2.37272c0.05228,-0.10149 0.10672,-0.1996 0.1651,-0.29186c1.76342,-2.78672 3.26114,-5.5574 4.64774,-8.52328c2.03368,-4.34995 4.91649,-8.38758 7.00689,-12.76459c1.65115,-3.45729 3.39765,-6.90198 5.32072,-10.24409c2.34057,-2.49614 3.28469,-6.5916 6.27942,-8.30288c19.41496,-11.09426 37.03625,0.6594 39.05859,20.88281z" fill="#650000" stroke="none" stroke-width="0.5" stroke-linecap="butt"/><path d="M429.0454,-150.84481c-0.14421,0.35604 -0.29097,0.70905 -0.44007,1.05911c0.19433,2.58936 -0.20386,3.07098 -0.80229,6.48784c-0.03231,0.18449 0.15461,-0.70832 0.15014,-0.51545c-0.05773,2.48975 -0.04838,5.00676 -0.31105,7.45541c-0.06319,0.58902 -0.17787,1.18351 -0.34502,1.71997c-0.0063,0.60065 -0.12859,1.26298 -0.12859,1.86029c0,1.83928 0,3.67856 0,5.51784c0,5.15874 -0.35035,9.27683 -0.84126,14.42939c-0.26731,2.80572 0.37051,9.68951 -1.35044,12.71481c-0.0618,2.86186 -0.84786,6.27134 -1.0341,8.46043c-0.17808,2.09321 -0.14929,4.22484 -0.22393,6.33726c-0.26156,0.91964 -0.66997,1.7507 -0.78467,2.75892c-0.15389,1.35267 0.15389,2.78571 0,4.13838c-0.1147,1.00822 -0.68852,1.74472 -0.78467,2.75892c-0.172,1.81425 0.172,3.70358 0,5.51784c-0.09615,1.0142 -0.68852,1.74472 -0.78467,2.75892c-0.172,1.81425 0.20221,3.71324 0,5.51784c-0.204,1.8206 -0.84152,3.40662 -1.19587,5.15453c-0.56875,2.80554 -0.82471,5.82397 -1.57169,8.49724c-0.07609,0.27231 -0.30658,0.55191 -0.52204,0.67658c-0.17995,0.71649 -0.38687,1.42607 -0.47285,2.18249c-0.15569,1.36979 0.07687,2.84819 -0.16091,4.18105c-0.35004,1.96214 -1.28564,3.52286 -1.56934,5.51784c-0.25375,1.78436 0.28423,3.74773 0,5.51784c-0.54492,3.39353 -1.50819,6.54061 -2.40913,9.69394c-0.34498,3.44286 -0.6505,6.90944 -1.37041,10.15089c-0.09442,0.42513 -0.33258,0.60167 -0.6045,0.73001c-1.67741,7.66424 -5.90535,13.10314 -10.85589,13.10314c-3.21088,0 -6.11779,-2.28799 -8.22197,-5.98718l-0.1197,-0.21043c0.14671,1.44588 -0.39465,0.14773 -3.82897,-2.77827c-1.09514,-0.93305 -2.03331,-2.35509 -3.08161,-3.44177c-1.88726,-1.95635 -3.95947,-3.65031 -5.76947,-5.80932c-0.85695,-1.02218 -1.53306,-2.48675 -2.42213,-3.4203c-0.41442,-0.43515 -0.96828,-0.24764 -1.40725,-0.60063c-1.3468,-1.08301 -2.71325,-2.16868 -3.91843,-3.68194c-0.68498,-0.86008 -1.003,-2.42606 -1.66822,-3.3328c-0.1828,-0.24917 -0.47025,0.24055 -0.6907,0.11745c-1.08049,-0.60335 -2.07261,-1.63502 -3.15063,-2.25189c-2.5298,-1.44762 -6.19065,-3.56259 -8.08893,-5.90643c-1.0219,-1.26176 -1.68249,-3.22824 -2.39076,-5.06641c-1.32504,-0.94629 -2.58763,-2.15465 -3.8866,-3.21035c-0.91114,-1.97635 -1.69971,-4.14881 -2.73342,-5.92905c-0.84222,-1.45047 -2.16178,-2.00082 -2.84901,-3.685c-1.43992,-3.52876 -2.93754,-7.31944 -3.38427,-11.59066c-1.38974,-13.28744 0.18646,-14.54446 3.89378,-23.17402c0.94012,-2.18833 1.7745,-4.54457 2.86628,-6.50324c0.25244,-0.45289 0.74806,-0.14316 1.04256,-0.50924c0.12262,-0.15243 -0.50946,-0.03724 -0.42618,-0.25695c0.41024,-1.08228 1.10249,-1.75002 1.56934,-2.75892c0.92629,-2.00176 1.47693,-4.58566 2.59905,-6.24918c1.09525,-1.62369 2.59868,-2.12912 3.85944,-3.32543c0.16097,-0.15274 -0.6446,0.43871 -0.53963,0.17534c1.11949,-2.80883 3.09026,-4.53574 4.28184,-7.15424c0.74898,-1.64589 1.1726,-3.72801 1.99552,-5.26089c0.40143,-0.74775 1.15223,-0.65871 1.56934,-1.37946c0.25723,-0.44449 0.03205,-1.38903 0.28967,-1.83283c1.45494,-2.50649 3.6081,-3.76775 4.77684,-6.70087c1.0217,-2.56408 1.85346,-5.34654 2.78019,-8.0198c0.99751,-1.16938 2.03336,-2.24349 2.99252,-3.50814c1.18367,-1.56068 1.97284,-3.91621 3.13868,-5.51784c0.46084,-0.6331 1.09227,-0.78467 1.56934,-1.37946c1.23826,-1.54384 2.30302,-3.53792 3.52065,-5.11887c0.18056,-0.34791 0.3636,-0.69101 0.54885,-1.0292c0.91733,-1.67465 2.17833,-2.64569 3.2042,-4.11287c0.7596,-1.08637 1.35196,-2.51738 2.14233,-3.53365c1.75486,-2.2564 4.03122,-3.60225 5.70436,-6.12256c0.76132,-1.1468 1.34233,-2.63355 2.10735,-3.77271c2.32872,-3.46758 4.22152,-5.6153 6.66128,-8.46304c3.90727,-4.56065 6.62668,-8.36544 11.10657,-10.88181c0.48361,-0.97758 1.00079,-1.87989 1.62673,-2.54771c1.28572,-1.37174 2.93335,-1.17707 4.38445,-1.87192c0.3114,-0.14911 -1.22863,0.54417 -0.95921,0.23178c1.54902,-1.79612 5.74093,-4.65808 7.23657,-5.74961l0.59411,0.47867c0.66774,-0.38739 1.36224,-0.6713 2.07737,-0.84091v-0.18459h1.56934c6.42176,0 11.62763,9.15198 11.62763,20.44151c0,5.64477 -1.30147,10.75515 -3.40565,14.45433l-2.35401,4.13838l-0.34254,-0.60218c-0.37141,0.35329 -0.755,0.67208 -1.14937,0.95391c-0.31669,1.00992 -0.64938,2.00492 -1.00115,2.98215c-0.71913,1.9978 -2.48497,1.59059 -3.84211,2.13279c0.00187,0.00505 -0.00038,0.01338 -0.00771,0.02566c-0.90581,1.51753 -1.74748,3.23036 -2.82812,4.33922c-0.17867,0.18334 -0.32947,0.31818 -0.45519,0.41017z" fill="#650000" stroke="none" stroke-width="0.5" stroke-linecap="butt"/><path d="" fill="#032b00" stroke="#000000" stroke-width="1.5" stroke-linecap="butt"/><path d="" fill="#032b00" stroke="#000000" stroke-width="1.5" stroke-linecap="butt"/><path d="M325.12777,142.85871v-47.07551h51.78306v47.07551z" fill="#0077ff" stroke="#000000" stroke-width="2" stroke-linecap="butt"/><path d="M305.2888,195.31427l-2.14876,-20.65587c7.16729,-4.96856 13.69091,-15.51947 14.96507,-23.16439c2.10245,-12.61469 3.69361,-35.47602 -5.35937,-47.11719c-4.29005,-5.51655 -11.00797,-8.65264 -17.86411,-9.10583l-0.01668,-0.16031h31.94408v47.07551l52.11931,1.00876l-1.76075,-46.1407l-0.31537,-0.09092l25.34552,0.57475c-6.23419,4.74792 -11.41208,11.26005 -14.10706,18.22184c-1.38515,3.57818 -3.94656,8.34916 -3.11952,12.24848c0.67537,3.18427 1.42488,6.36042 2.40377,9.46486c0.16409,0.52039 1.67981,1.75923 1.73018,2.31621c0.19606,2.16791 0.40663,4.39183 0,6.53026c-0.36981,1.94479 -2.3137,3.50265 -2.28419,5.48206c0.19086,12.80506 7.1288,23.69457 20.58231,24.63867c0.26925,0.01889 0.53752,0.0327 0.80475,0.04152l-0.09902,16.42992l31.6141,100.39632c-0.03951,-0.00065 -0.07883,-0.00122 -0.11795,-0.00171c-6.90275,-0.08551 -17.05848,-0.11648 -23.96176,-0.11648c-2.21783,0 -8.86702,1.5148 -10.41957,1.0645c-1.65792,-0.48087 -3.35966,-1.82504 -5.03511,-2.49029c-7.81419,-3.10269 -17.39561,-6.15683 -25.92006,-3.65352c-4.01271,-15.86385 -6.86074,-31.7911 -13.83537,-31.72554c-5.52766,0.05199 -3.86409,15.21773 -4.83339,29.64121c-0.56932,8.47163 -1.81917,16.76311 -2.85418,22.62359c-3.15902,-4.60862 -8.35742,-7.4016 -14.78118,-9.00754c-0.422,-0.1055 -4.33671,0.01801 -5.30695,-0.61907c-3.09753,-2.03389 -7.76047,-3.68672 -11.54318,-2.83284c-0.89634,0.20233 -8.65499,2.09698 -10.93893,3.47535c-0.62708,0.37845 -0.78193,1.66055 -1.51141,1.59491c-3.37456,-0.30369 -7.23653,-2.84124 -11.0589,-2.95428c-3.79983,-0.11237 -7.9849,0.02838 -12.13546,0.6336z" fill="#ff77e7" stroke="#000000" stroke-width="2" stroke-linecap="butt"/><path d="M342.94923,204.39309l-1.68127,18.83021l-25.89155,-2.0175l4.70754,-22.86524" fill="none" stroke="#000000" stroke-width="2" stroke-linecap="round"/><path d="M400.74047,199.97748l4.70757,22.86527l-25.89155,2.0175l-1.68127,-18.83021" data-paper-data="{&quot;index&quot;:null}" fill="none" stroke="#000000" stroke-width="2" stroke-linecap="round"/><path d="M275.57678,96.81105c0,0 4.94088,-5.29194 4.60527,-12.25196c-0.79551,-16.49767 -6.63559,-46.19275 -5.7989,-55.06156c2.0343,-21.56346 8.06068,-51.96018 8.06068,-51.96018c0,0 10.49427,-21.97393 22.70556,-33.34164c11.51837,-10.72268 24.72771,-13.64141 35.54475,-14.24351c0.64439,2.973 1.63832,5.86156 3.12666,8.46616c1.93512,3.38645 5.51682,5.63182 8.85562,7.64804c1.91192,1.15456 4.92108,0.04579 6.5004,1.6251c3.41075,3.41075 0.23378,5.96987 2.43016,8.51304c2.10845,2.44137 4.40161,4.73453 6.84298,6.84298c3.89207,3.36133 9.83603,3.09349 14.89355,4.02528c6.32907,1.16606 14.85797,-0.37552 22.45097,-3.43098c4.65088,7.79913 6.48866,13.89552 6.48866,13.89552c0,0 10.88875,31.10687 10.88875,53.84679c0,5.90764 -1.05905,18.12003 -2.25149,30.09394c-1.91868,-6.65067 -6.13134,-12.43875 -12.1972,-16.48265c-6.76258,-4.50839 -18.28666,-1.89378 -25.73163,-1.97866c-3.13452,-0.03573 -5.45323,-2.72279 -8.22171,-3.67736c-2.87599,-0.99163 -7.99518,-1.65245 -10.6947,-2.25136c-8.31941,-1.84575 -17.04384,0.0855 -25.56511,0c-16.69225,-0.16748 -36.95805,-14.2985 -51.75321,6.42172c-1.21448,1.70085 -1.88504,3.6591 -2.34326,5.71786c-1.0868,2.85045 -1.68202,5.94356 -1.68202,9.17569c0,4.7386 1.27938,9.17838 3.51156,12.99278c1.56781,5.80089 6.19269,8.80883 11.7657,10.54603c3.20285,1.42875 6.75095,2.223 10.48455,2.223c0.35492,0 0.70817,-0.00718 1.0596,-0.02139c3.82524,0.47019 7.47083,0.82457 10.36549,1.47548c13.47269,3.02955 24.58233,2.82497 39.0201,2.99245c2.36946,0.02749 6.35799,3.39659 8.84745,3.86562c19.46791,3.66787 33.12125,5.11118 48.43792,-8.90703c1.01556,-0.92946 1.87685,-1.55708 2.60212,-2.17513c-0.10285,0.9416 -0.20139,1.84062 -0.29465,2.69033c-0.30356,2.76567 1.45684,5.26127 3.60476,7.2275c-0.1765,-0.00428 -0.35353,-0.00643 -0.53106,-0.00643c-0.17203,0 -0.34359,0.00202 -0.51466,0.00604c-0.8243,-0.10304 -1.83571,0.0161 -2.91579,0.26615c-3.20535,0.51397 -6.17399,1.73647 -8.74019,3.50179c-0.53597,0.25723 -1.06866,0.52835 -1.59737,0.81272z" fill="#0077ff" stroke="#000000" stroke-width="2" stroke-linecap="butt"/><path d="M293.97207,12.5568c0,-1.99831 1.61993,-3.61824 3.61824,-3.61824c1.99831,0 3.61824,1.61993 3.61824,3.61824c0,1.99831 -1.61993,3.61824 -3.61824,3.61824c-1.99831,0 -3.61824,-1.61993 -3.61824,-3.61824z" fill="#000000" stroke="none" stroke-width="0.5" stroke-linecap="butt"/><path d="M289.92639,30.47332c0,-1.99831 1.61993,-3.61824 3.61824,-3.61824c1.99831,0 3.61824,1.61993 3.61824,3.61824c0,0.90145 -0.32965,1.7259 -0.87498,2.35938c-0.67666,0.35242 -1.34728,0.74625 -2.01126,1.18478c-0.23641,0.04857 -0.48123,0.07408 -0.73201,0.07408c-1.99831,0 -3.61824,-1.61993 -3.61824,-3.61824z" fill="#000000" stroke="none" stroke-width="0.5" stroke-linecap="butt"/><path d="M306.68703,22.95994c0,-1.99831 1.61993,-3.61824 3.61824,-3.61824c1.99831,0 3.61824,1.61993 3.61824,3.61824c0,1.99831 -1.61993,3.61824 -3.61824,3.61824c-1.99831,0 -3.61824,-1.61993 -3.61824,-3.61824z" fill="#000000" stroke="none" stroke-width="0.5" stroke-linecap="butt"/><path d="M391.06807,9.08908c0,-1.99831 1.61996,-3.61824 3.61824,-3.61824c1.99828,0 3.61824,1.61993 3.61824,3.61824c0,1.99831 -1.61996,3.61824 -3.61824,3.61824c-1.99828,0 -3.61824,-1.61993 -3.61824,-3.61824z" fill="#000000" stroke="none" stroke-width="0.5" stroke-linecap="butt"/><path d="M377.19721,23.53788c0,-1.99831 1.61993,-3.61824 3.61824,-3.61824c1.99831,0 3.61824,1.61993 3.61824,3.61824c0,1.99831 -1.61993,3.61824 -3.61824,3.61824c-1.99831,0 -3.61824,-1.61993 -3.61824,-3.61824z" fill="#000000" stroke="none" stroke-width="0.5" stroke-linecap="butt"/><path d="M398.00349,24.69379c0,-1.99831 1.61996,-3.61824 3.61824,-3.61824c1.99828,0 3.61824,1.61993 3.61824,3.61824c0,1.99831 -1.61996,3.61824 -3.61824,3.61824c-1.99828,0 -3.61824,-1.61993 -3.61824,-3.61824z" fill="#000000" stroke="none" stroke-width="0.5" stroke-linecap="butt"/><path d="M362.62134,23.6929c-1.27331,2.73278 -3.75158,4.92457 -7.34621,5.82321h-13.25694c-2.21707,1.47806 -6.03828,-2.62107 -7.07185,-3.23774c-0.84061,-0.50154 -1.48696,-1.28288 -1.9491,-2.23895c-2.26116,1.6607 -2.28804,4.50124 -2.28804,9.51184v3.16896c-2.77119,-0.51708 -5.59721,-1.19761 -8.44256,-1.84997v-1.31899c0,-1.60339 -0.07926,-9.97904 0.32133,-10.86266c1.99468,-4.39983 6.05356,-6.59441 10.3634,-7.80124c0.90847,-2.45238 2.53023,-4.46151 4.76922,-5.02125c4.77673,-1.19418 18.85844,-3.0893 22.20574,0.42469c1.47685,1.55037 2.50078,3.29923 3.0893,5.09846c4.533,0.93295 9.13666,3.2097 11.21941,7.70224c1.62973,3.5154 0.39854,11.68717 0.39854,15.66133v0.57796c0,0 0,0.17373 -0.03524,0.4507c-2.24104,-0.74053 -5.71385,-1.2947 -8.39905,-1.77899c0.11651,-5.59093 1.3546,-12.5608 -3.57796,-14.30961z" fill="#000000" stroke="none" stroke-width="0.5" stroke-linecap="butt"/><path d="" fill="#000000" stroke="none" stroke-width="0.5" stroke-linecap="butt"/><path d="" fill="#ffffff" stroke="none" stroke-width="0" stroke-linecap="butt"/><path d="M323.20956,-15.74507c-2.2848,0.77341 -3.05823,-1.5114 -3.05823,-1.5114l0.14798,0.21256c-0.34897,-0.54455 -0.80605,-1.08474 -1.28385,-1.6209c-7.36377,1.95594 -12.29846,0.34772 -15.72335,-5.2408c-0.84939,-0.94812 -1.41939,-2.01263 -1.55676,-3.048c-0.38157,-0.88963 -0.74051,-1.84662 -1.07877,-2.87191l0.10869,-0.34019l-0.14809,0.00711l-0.11513,-2.39188c-0.07581,-1.06823 0.57163,-2.09462 1.63339,-2.45403c1.18598,-0.40145 2.46677,0.17215 2.97115,1.2902l1.27649,2.73232l-0.0885,0.04134c0.08127,0.11812 0.15962,0.23847 0.23463,0.36132c0.50743,0.83084 0.19237,2.38298 0.45324,3.58401c0.24825,0.46265 0.50354,0.88538 0.76784,1.26978c0.21134,0.14579 0.47366,0.25639 0.79963,0.32212c0.94808,0.19115 2.86755,-0.17626 4.66189,-0.56645c0.04274,-0.01722 0.08622,-0.03332 0.13041,-0.0483c0.21741,-0.0736 0.43798,-0.11441 0.65637,-0.12515c1.18642,-0.2637 2.23795,-0.50081 2.80277,-0.5395l0.18253,1.09654c1.60498,-0.01452 2.82941,0.49452 4.00863,1.56708c0.66271,0.09737 1.41512,0.47927 1.79768,1.60946c0.07944,0.23463 0.12658,0.45335 0.14731,0.6569c0.44944,0.62115 0.91725,1.32047 1.41983,2.09991l0.36361,0.84956c0,0 0.77341,2.2848 -1.5114,3.0582z" fill="#000000" stroke="none" stroke-width="0.5" stroke-linecap="butt"/><path d="M369.79056,-19.85637l0.36361,-0.84956c0.5026,-0.77947 0.97041,-1.47877 1.41984,-2.09991c0.02071,-0.20356 0.06788,-0.42227 0.14731,-0.6569c0.38257,-1.13019 1.13494,-1.51209 1.79767,-1.60946c1.17923,-1.07257 2.40367,-1.58163 4.00863,-1.56708l0.18256,-1.09654c0.5648,0.03869 1.61632,0.27582 2.80277,0.5395c0.2184,0.01074 0.43897,0.05155 0.65637,0.12512c0.04419,0.01495 0.08766,0.03106 0.13041,0.0483c1.79431,0.39019 3.71378,0.75756 4.66189,0.56645c0.32597,-0.06571 0.58833,-0.1763 0.79963,-0.32209c0.26428,-0.3844 0.51955,-0.80716 0.76784,-1.26978c0.26084,-1.20104 -0.0542,-2.75317 0.45324,-3.58401c0.07505,-0.12285 0.15336,-0.24319 0.23463,-0.36132l-0.0885,-0.04134l1.18245,-2.53104c1.41643,-0.05794 2.88101,-0.20388 4.37122,-0.42922c0.24312,0.41394 0.3624,0.8984 0.32738,1.39178l-0.11513,2.39185l-0.14809,-0.00711l0.10872,0.34019c-0.33828,1.02529 -0.69721,1.98229 -1.07879,2.87191c-0.13737,1.0354 -0.70737,2.09991 -1.55676,3.048c-3.42489,5.58849 -8.35958,7.19673 -15.72335,5.24077c-0.4778,0.53613 -0.93488,1.07634 -1.28385,1.6209l0.14798,-0.21253c0,0 -0.77341,2.2848 -3.05823,1.5114c-2.2848,-0.77341 -1.5114,-3.0582 -1.5114,-3.0582z" fill="#000000" stroke="none" stroke-width="0.5" stroke-linecap="butt"/><path d="" fill="#0046ff" stroke="#000000" stroke-width="2" stroke-linecap="butt"/><path d="" fill="#002ccd" stroke="none" stroke-width="0.5" stroke-linecap="butt"/><path d="M291.35089,87.22168c-5.32084,-1.73136 -8.30868,-8.28029 -7.55898,-13.33458c0.37634,-2.53726 0.36642,-5.54416 0.50792,-8.61222c0.52754,1.4382 1.17965,2.81629 1.94328,4.12119c1.56781,5.80089 6.19269,8.80883 11.7657,10.54603c3.20285,1.42875 6.75095,2.223 10.48455,2.223c0.23472,0 0.46871,-0.00314 0.70193,-0.00938c-1.46837,7.43754 -11.39216,7.16544 -17.8444,5.06596z" fill="#002ccd" stroke="none" stroke-width="0.5" stroke-linecap="butt"/><path d="M393.95323,35.06116c2.50535,-0.62635 5.4758,2.02966 7.26022,1.714c2.95032,-0.5219 3.75199,-4.37182 7.30523,-4.17443c9.52346,0.52907 11.17777,10.30157 9.53781,20.20594c-2.25412,-3.84227 -5.40512,-7.19251 -9.33329,-9.81129c-6.76258,-4.50839 -18.28666,-1.89378 -25.73163,-1.97866c-0.22337,-0.00255 -0.4426,-0.01856 -0.65814,-0.04644c0.31305,-0.5497 0.72237,-1.01113 1.28933,-1.32695c1.05479,-0.95401 2.33554,-1.66284 3.75238,-2.03654c2.09313,-1.06953 4.12655,-1.93276 6.57807,-2.54566z" fill="#002ccd" stroke="none" stroke-width="0.5" stroke-linecap="butt"/><path d="M308.82553,-40.38925c-3.46261,0.19237 -6.12909,-9.70161 -3.89348,-12.7982c6.32676,-8.76348 25.55781,-18.72165 37.19646,-13.98673c0.47632,1.24129 1.03628,2.44449 1.6923,3.59253c1.27678,2.23437 3.27039,3.97199 5.43808,5.4748c0.02511,3.00637 -1.35751,6.13633 -3.25746,8.36073c-4.58492,5.36785 -12.8042,3.3351 -16.10409,5.33992c-7.97217,4.84337 -7.3606,10.75507 -17.6593,4.87007z" fill="#002ccd" stroke="none" stroke-width="0.5" stroke-linecap="butt"/><path d="" fill="#0077ff" stroke="none" stroke-width="0.5" stroke-linecap="butt"/><path d="" fill="#0046ff" stroke="none" stroke-width="0.5" stroke-linecap="butt"/><path d="M373.75361,-36.39132c9.63664,0 17.44866,9.78979 17.44866,21.86607c0,12.07628 -7.81204,21.86607 -17.44866,21.86607c-9.63664,0 -17.4487,-9.78979 -17.4487,-21.86607c0,-12.07628 7.81206,-21.86607 17.4487,-21.86607z" fill="#750000" stroke="none" stroke-width="0" stroke-linecap="butt"/><path d="M340.20663,-12.67679c0,12.88373 -8.33439,23.32814 -18.61537,23.32814c-10.28097,0 -18.61533,-10.44436 -18.61533,-23.32814c0,-12.88373 8.33437,-23.32809 18.61533,-23.32809c10.28097,0 18.61537,10.44432 18.61537,23.32809z" fill="#750000" stroke="none" stroke-width="0" stroke-linecap="butt"/><path d="M288.04114,248.90025c0,-4.60784 2.35209,-8.66631 5.92113,-11.04029c-0.48478,-2.05138 -0.65931,-4.31094 -0.52552,-6.67331c0.13734,-2.42504 0.82557,-5.00038 1.91915,-7.37996c-3.25367,-3.42137 -4.57417,-8.68017 -3.81476,-13.90645c0,-2.46741 0.67444,-4.7773 1.84902,-6.75537c0.21759,-0.47324 0.45738,-0.93178 0.72163,-1.36605c-2.33642,-3.35453 -3.22453,-7.87861 -2.57066,-12.37858c0,-2.46741 0.67444,-4.7773 1.84902,-6.75537c1.01402,-2.20538 2.51001,-4.09167 4.71844,-4.68854c0.01322,-0.00774 0.02646,-0.01545 0.03971,-0.02314c-3.30233,-4.0108 -4.37926,-9.51762 -1.80056,-14.50464c1.29562,-2.50563 2.77208,-2.82644 4.13922,-4.55315c0.53207,-1.04038 1.19765,-2.00116 1.97413,-2.85974c-0.13939,-2.05367 -1.03146,-3.70828 -0.41997,-6.27167c0.909,-3.81055 2.30346,-6.06831 5,-8.98438c1.17991,-1.27597 -0.74914,-3.39446 -1.08256,-5.10007c-0.34594,-1.7697 1.27707,-3.09288 1.23007,-4.84341c-0.08944,-3.33121 -9.25709,-7.14917 -11.34881,-9.01211c-2.00416,-1.78496 -3.53626,-5.48378 -3.38126,-8.16309c0.1055,-1.82363 2.45454,-4.19884 1.05845,-5.37684c-2.41629,-0.93364 -4.49031,-2.5552 -5.98188,-4.62452c-1.5514,-1.54037 -2.63265,-3.38127 -2.35108,-5.78632c-0.09416,-0.63736 -0.14293,-1.28949 -0.14293,-1.95302c0,-3.50175 1.35841,-6.68623 3.57701,-9.05522c0.55945,-0.87521 1.2469,-1.63462 2.13782,-2.20909c1.95084,-1.25791 3.86219,-1.79021 5.75211,-1.86675c0.58318,-0.07844 1.17839,-0.11895 1.78306,-0.11895c2.68813,0 5.18929,0.8005 7.2781,2.17611c1.34316,0.4974 2.69033,1.00521 4.04824,1.42311c2.11163,0.64986 5.39481,1.54201 6.91275,3.50999c3.10266,4.02255 4.45173,7.14782 5.01091,12.14079c0.18404,1.64332 -0.87413,3.34094 -0.45314,4.94005c0.16799,0.63811 2.69296,2.42412 3.04965,2.78274c3.21752,3.23489 5.80471,7.31395 8.24724,11.15221c1.1468,1.80211 1.54114,4.60478 1.65625,6.625c0.17685,3.10385 -0.99408,6.23641 -0.53543,9.31128c0.35881,2.40554 0.52381,7.28731 0.13552,8.97277c-1.03048,4.47299 -2.3324,6.65345 -4.71432,10.25904c-0.59816,0.90546 -0.12651,5.04581 -0.28138,6.17052c-0.86706,6.29683 -5.64994,17.0202 -12.12265,18.31474c-0.52144,0.10429 -1.05198,0.18193 -1.58728,0.23262c0.48573,0.58765 0.96459,1.28283 1.4493,2.11404c3.36349,5.76805 2.72176,13.66726 -1.0537,18.8906c0.35141,0.47176 0.701,1.00457 1.0537,1.6094c2.52198,4.32494 2.79216,9.84804 1.17794,14.54289c1.58506,1.02429 2.74863,2.33227 3.17222,3.89957c1.14807,1.96185 1.80609,4.24535 1.80609,6.68254c0,2.83595 -0.89095,5.4638 -2.40823,7.61892c-1.41636,3.65598 -3.35501,7.3131 -6.03818,9.45801c0.29119,1.09194 0.4464,2.23938 0.4464,3.42307c0,7.31777 -5.93223,13.25 -13.25,13.25c-7.31777,0 -13.25,-5.93223 -13.25,-13.25z" fill="#3d0000" stroke="none" stroke-width="0.5" stroke-linecap="butt"/><path d="M414.04114,102.40025c-0.40965,1.51571 -0.52087,3.17265 -0.86511,4.71931c-0.23567,1.05887 -0.58056,2.06606 -1.2052,2.94085c-0.25197,0.35288 -0.68052,0.69262 -1.17464,1.02701c-0.92794,1.06779 -2.02398,1.98559 -3.24694,2.71218c-0.00418,0.02872 -0.0069,0.05753 -0.00811,0.08645c-0.08823,2.11314 0.62874,10.09252 -0.8674,13.02764c-2.93925,5.76623 -6.28938,11.791 -6.1326,18.35866c0.02228,0.93325 1.63989,7.29184 2.09217,7.86544c1.79338,2.2744 4.71808,3.07047 6.25158,6.13746c0.61085,1.2217 0.31425,3.91737 1.16804,4.67215c0.35387,0.31284 2.17215,0.07465 2.73821,0.20285c4.29472,0.97267 8.67099,1.19962 11.17969,5.58984c5.85817,10.2518 -1.47158,22.05258 -13.17969,20.91016c-8.38772,-0.81844 -17.07168,-3.55222 -22.61046,-10.34302c-1.36163,-1.66942 -1.25858,-5.30385 -2.77442,-6.63314c-1.87791,-1.64679 -4.02667,-2.8848 -5.72558,-4.86686c-2.90312,-3.38697 -2.35579,-8.50131 -3.24393,-12.48785c-1.52711,-6.85468 -4.40782,-12.0749 -2.46708,-19.83785c0.86073,-3.44291 2.33726,-5.63138 3.71137,-8.65114c0.68378,-1.50269 0.38907,-3.08024 1.04005,-4.62016c0.47838,-1.13161 2.25039,-3.76991 2.32005,-4.57437c0.44654,-5.15668 -1.88265,-17.3667 2.63954,-22.64259c3.99637,-4.66243 8.84072,-6.42562 14.13355,-6.50728c2.95742,-0.04563 6.05485,0.43374 9.2226,1.22568c1.86744,0.46686 4.67492,3.06981 5.19823,5.00604z" fill="#3d0000" stroke="none" stroke-width="0.5" stroke-linecap="butt"/><path d="M273.54114,303.40025c0.40965,-1.51571 0.52087,-3.17265 0.86511,-4.71931c0.23567,-1.05887 0.58056,-2.06606 1.2052,-2.94085c1.07475,-1.50516 2.3421,-2.52758 3.7259,-3.29602c1.67396,-1.14105 3.62296,-1.90849 5.727,-2.18233c1.16338,-0.36836 2.33735,-0.75841 3.49018,-1.26554c6.13444,-2.69855 12.02488,-5.96385 18.61739,-7.44854c4.34045,-0.97751 8.60967,1.79872 12.52665,3.02167c4.30361,1.34366 9.90087,1.95818 14.37288,2.40099c9.74911,0.96535 26.94351,4.84071 25.55224,18.17062c-0.82,7.8565 -7.08787,13.13425 -15.1843,12.68444c-2.34758,-0.13042 -4.12851,-2.26926 -6.29642,-3.1794c-5.91183,-2.48192 -15.49219,-2.92783 -21.95038,-3.75305c-2.07744,-0.26545 -4.84568,-1.78408 -6.85836,-1.84493c-0.92054,-0.02783 -2.9554,1.58085 -3.85309,1.92229c-2.07941,0.79091 -4.26781,1.2801 -6.33174,2.11058c-3.51028,1.41246 -6.11824,2.86021 -10.01915,3.67151c-4.00488,0.83293 -12.5263,-2.01966 -13.78304,-6.66961z" fill="#3d0000" stroke="none" stroke-width="0.5" stroke-linecap="butt"/><path d="M368.11145,283.24009c1.22738,-1.71891 2.62011,-2.82331 4.15642,-3.57742c2.03612,-1.27522 4.4436,-2.01243 7.02327,-2.01243c0.36696,0 0.73044,0.01492 1.08986,0.04418c0.09275,-0.01458 0.18574,-0.02929 0.27899,-0.04418c9.85606,-1.57323 18.9221,-3.51239 28.98995,-4.38698c9.96677,-0.86581 18.77601,-2.23386 22.8287,8.38698c0.84759,2.22127 4.81101,0.593 6.9375,1.65625c4.58933,2.29466 6.625,6.43743 6.625,11.59375c0,16.83988 -21.62122,14.50018 -32.375,11.59375c-1.53238,-0.41416 -3.5226,-2.73854 -4.55469,-3.93359c-0.27699,-0.32072 -0.65681,-2.56173 -0.7975,-2.56891c-3.20549,-0.16351 -6.3995,0.55321 -9.57418,1.0258c-3.222,0.47964 -6.40993,1.16879 -9.59992,1.82856c-1.91551,0.39617 -4.51604,0.8632 -7.25011,1.04967c-0.84029,0.16709 -1.70922,0.25472 -2.5986,0.25472c-1.15252,0 -2.27068,-0.14715 -3.33671,-0.42369c-3.80764,-0.58223 -7.06244,-2.27816 -8.1072,-6.14377c-1.14807,-1.96185 -1.80609,-4.24535 -1.80609,-6.68254c0,-1.66237 0.30614,-3.25324 0.86511,-4.71931c0.23567,-1.05887 0.58056,-2.06606 1.2052,-2.94085z" fill="#3d0000" stroke="none" stroke-width="0.5" stroke-linecap="butt"/><path d="M378.79114,235.90025c0,-6.90356 5.59644,-12.5 12.5,-12.5c5.505,0 10.17884,3.55861 11.84662,8.50092c0.05105,-0.00061 0.10218,-0.00092 0.15338,-0.00092c2.49977,0 4.82815,0.73378 6.78151,1.99769c1.53667,0.77084 2.8229,1.96619 4.15599,4.25231c5.79688,9.94108 -1.86832,29.71377 -15.458,26.04088c-8.24287,-2.2278 -10.80313,-9.05488 -9.65453,-15.97945c-5.86672,-1.02936 -10.32496,-6.14976 -10.32496,-12.31143z" fill="#3d0000" stroke="none" stroke-width="0.5" stroke-linecap="butt"/><path d="M293.5177,2.35338c1.5648,1.11734 2.72264,2.58474 3.57934,4.2593c0.79091,1.35634 1.33377,2.87508 1.56639,4.49402c0.85376,3.79882 0.87034,7.94661 0.87034,11.33525c0,2.55582 -2.34647,4.60179 -2.89667,6.88836c-0.62396,2.59312 -0.47582,5.48079 -1.79909,7.7965c-2.43671,4.26424 -9.44297,5.52772 -14.04687,5.77344c-14.11968,0.75359 -21.10666,-6.67636 -16.4375,-19.75c1.37754,-3.85711 8.37425,-6.71279 9.4375,-8.77171c0.02409,-0.04665 0.04764,-0.09374 0.07067,-0.14125c-0.04671,-0.43928 -0.07067,-0.88536 -0.07067,-1.33704c0,-2.50363 0.73605,-4.83535 2.00356,-6.79057c0.64626,-1.83487 1.78977,-3.35627 4.19216,-4.00557c1.8508,-1.08309 4.00504,-1.70386 6.30428,-1.70386c1.56828,0 3.0691,0.28881 4.45218,0.81614c0.99894,0.22233 1.94911,0.5477 2.77439,1.13698z" fill="#3d0000" stroke="none" stroke-width="0.5" stroke-linecap="butt"/><path d="M420.5177,6.85338c1.38387,0.98814 2.90472,2.91429 3.71094,4.29688c2.02777,3.47743 9.53993,16.61039 8.22773,20.49693c-2.91483,8.63329 -12.53932,14.99909 -22.07589,12.87985c-4.72532,-1.05007 -7.53632,-4.37587 -8.71612,-9.09509c-0.74284,-2.97137 0.56919,-6.11956 1.27887,-9.09902c0.15852,-0.66552 -1.88387,-4.12728 -2.09718,-4.9805c-1.09209,-4.36837 1.01641,-13.36334 6.14082,-14.74831c1.8508,-1.08309 4.00504,-1.70386 6.30428,-1.70386c1.56828,0 3.0691,0.28881 4.45218,0.81614c0.99894,0.22233 1.94911,0.5477 2.77439,1.13698z" fill="#3d0000" stroke="none" stroke-width="0.5" stroke-linecap="butt"/><path d="M342.58203,-52.07925c-0.29137,0.95389 -0.82348,1.91467 -1.53801,2.85713c-1.34369,2.26063 -3.38,4.06141 -5.81636,5.10978c-4.19704,2.70449 -9.23219,4.59046 -12.63528,4.59046c-4.84059,0 -8.30612,-2.63681 -10.48157,-6.98771c-2.52248,-5.04496 -0.39856,-14.7288 4.95378,-18.13704c2.52457,-1.60759 6.22682,-1.79604 8.99691,-2.7194c1.321,-0.47493 2.74511,-0.73373 4.22965,-0.73373c3.63706,0 6.91132,1.55334 9.19555,4.0328c3.01109,2.8495 4.61158,7.02386 3.09533,11.9877z" fill="#3d0000" stroke="none" stroke-width="0.5" stroke-linecap="butt"/><path d="M409.29114,49.90025l-38.5,18l-22,-19l-15.5,16.5l-39,-27" fill="none" stroke="#000000" stroke-width="4.5" stroke-linecap="round"/></g></g></svg>