<svg version="1.1" xmlns="http://www.w3.org/2000/svg" xmlns:xlink="http://www.w3.org/1999/xlink" width="106" height="37" viewBox="0,0,106,37"><g transform="translate(-190,-159.5)"><g data-paper-data="{&quot;isPaintingLayer&quot;:true}" fill-rule="nonzero" stroke="#161616" stroke-linecap="butt" stroke-linejoin="miter" stroke-miterlimit="10" stroke-dasharray="" stroke-dashoffset="0" style="mix-blend-mode: normal"><path d="M193,193.5v-31h100v31z" fill="#2e2e2e" stroke-width="6"/><path d="M212.59804,176.779c0,2.01385 3.28489,-5.89472 6.90147,-5.84089c3.71198,0.05525 6.38756,5.46934 4.73125,8.7998c-2.08702,4.19654 -11.67206,7.86626 -12.58533,7.86626c-3.10886,0 -10.47876,-5.70241 -10.47876,-9.95915c0,-4.25674 2.52023,-7.70752 5.62908,-7.70752c3.10886,0 5.80229,2.58476 5.80229,6.8415z" fill="#ffffff" stroke-width="0"/><path d="M241.31552,178.00817c0,2.01385 3.28489,-5.89472 6.90147,-5.8409c3.71197,0.05525 6.38756,5.46934 4.73126,8.7998c-2.08703,4.19654 -11.67206,7.86625 -12.58534,7.86625c-3.10886,0 -10.47876,-5.7024 -10.47876,-9.95915c0,-4.25674 2.52023,-7.70752 5.62909,-7.70752c3.10886,0 5.80229,2.58476 5.80229,6.84151z" fill="#ffffff" stroke-width="0"/></g></g></svg>