<svg version="1.1" xmlns="http://www.w3.org/2000/svg" xmlns:xlink="http://www.w3.org/1999/xlink" width="73.06805" height="157.01755" viewBox="0,0,73.06805,157.01755"><g transform="translate(-205.47677,-140.76727)"><g data-paper-data="{&quot;isPaintingLayer&quot;:true}" fill-rule="nonzero" stroke-linejoin="miter" stroke-miterlimit="10" stroke-dasharray="" stroke-dashoffset="0" style="mix-blend-mode: normal"><g stroke-width="1" stroke-linecap="butt"><path d="M254.88558,287.21344c0,1.97742 -2.47422,3.58044 -5.52633,3.58044c-3.05211,0 -5.52633,-1.60302 -5.52633,-3.58044c0,-1.97742 2.47422,-3.58044 5.52633,-3.58044c3.05211,0 5.52633,1.60302 5.52633,3.58044z" fill="#fff5d4" stroke="#ebecae"/><path d="M245.5652,284.10002c0,0 -0.79827,-12.7918 -0.79827,-19.37792c0,-6.98564 0.79827,-21.40798 0.79827,-21.40798h8.09672c0,0 0.91231,13.31142 0.91231,19.93158c0,6.9583 -0.91231,20.85433 -0.91231,20.85433z" fill="#66b8ff" stroke="#4d8bc1"/><path d="M244.14425,285.65674v-3.73612h11.51968v3.73612z" fill="#66b8ff" stroke="#4d8bc1"/></g><path d="M213.84876,172.1141l-0.10586,0.0437l-0.03573,0.06253l-0.29343,0.07335l-0.27956,0.11542l-0.06591,-0.02905l-0.1111,0.02777h-0.78783l-0.08835,-0.02209l-0.09036,0.0114l-2.18842,-0.26261l-0.04337,-0.01655l-0.04199,0.01566l-0.31261,-0.15092l-0.32435,-0.12372l-0.01744,-0.04128l-0.0418,-0.02018l-0.52522,-0.43768l-0.45613,-0.62418l0.06162,-0.34736l-0.15056,-0.31904l0.10994,-0.28704l-0.08203,-0.14355l-0.07627,-0.27119l-0.10629,-0.26089l-0.08754,-0.61276l0.01111,-0.10739l-0.02618,-0.10474v-1.57566l0.0689,-0.2756l0.03839,-0.28148l0.35014,-0.87536l0.10173,-0.14086l0.06214,-0.16225l0.61275,-0.87536l0.10003,-0.08687l0.06816,-0.1136l0.87536,-0.87537l0.10202,-0.06122l0.07638,-0.09123l0.15568,-0.11322l-0.00343,-0.04457l-0.04057,-0.08566l-0.08054,-0.40268l-0.07888,-0.31552v-0.05891l-0.0615,-0.07175l-0.08754,-0.17507l-0.01739,-0.07827l-0.01183,-0.01972l0.0041,-0.01506l-0.01071,-0.0482l-0.07774,-0.14576l-0.08754,-0.35014v-0.18466l-0.04478,-0.17915v-0.13846l-0.06315,-0.37891l-0.17033,-0.85164l0.0071,-0.14924l-0.03624,-0.14494v-0.87536l0.1875,-0.75l0.35796,-0.20455l0.20454,-0.35795l0.75,-0.1875h0.33981l0.01402,-0.00935l0.04206,0.00935h0.0418l0.33437,0.08359l0.33645,0.07476l0.03739,0.0187l0.0418,0.01045l0.00836,0.01462l0.61276,0.30638l0.04466,0.03827l0.05627,0.01712l0.08141,0.04885h0.74905l0.29203,-0.05841l0.14923,0.00711l0.14494,-0.03624h0.13846l0.81189,-0.13532l0.41357,-0.13786l0.05864,-0.00451l0.0519,-0.02768l0.7003,-0.17507h0.18466l0.17915,-0.04478h0.89282l0.1137,-0.06498l0.00895,-0.00252l0.00679,-0.00635l0.78783,-0.43768l0.06567,-0.01762l0.05358,-0.04187l0.78783,-0.35014l0.02859,-0.00501l0.02353,-0.01699l0.43769,-0.17508l0.28148,-0.03838l0.27561,-0.0689h0.51488l0.01402,-0.00934l0.04205,0.00934h0.0418l0.15535,0.03884l0.5327,-0.03552l0.05025,0.00906l0.04953,-0.01238h0.87536l0.05706,0.01426l0.05799,-0.00984l1.13798,0.08754l0.02475,0.00825l0.02585,-0.0035l0.78783,0.08754l0.20712,0.07693l0.21811,0.03518l0.55541,0.23803l0.46603,0.15534l0.16903,0.10756l0.18868,0.06739l0.26261,0.17508l0.15779,0.17357l0.10156,0.02856l0.1073,0.20118l0.15337,0.16872l-0.00725,0.10525l0.11039,0.20698l0.08754,0.35015v0.18465l0.04478,0.17915v0.11362l0.14711,0.08827l0.10565,0.10564l0.13162,0.07068l0.44588,0.40535l0.17493,-0.5248c0.07675,-0.24957 0.21687,-0.47138 0.40158,-0.64667l0.02441,-0.03835l0.02276,-0.00456c0.26354,-0.22975 0.60813,-0.36889 0.98522,-0.36889c0.72097,0 1.32314,0.50865 1.46722,1.18667l0.0151,0.01686l-0.00341,0.04436c0.01387,0.08196 0.0211,0.16619 0.0211,0.25211c0,0.17815 -0.03105,0.34904 -0.08804,0.50756l-0.25154,0.75461l-0.09591,0.15072l-0.05511,0.16994l-0.87537,1.40059l-0.0163,0.01572l-0.00762,0.02133l-0.18576,0.27864v1.60295l-0.03041,0.12163l0.01,0.12497l-0.07475,0.4485l0.00762,0.01763l-0.01748,0.04151l-0.00293,0.01759l-0.14169,0.32589l-0.11057,0.26262l0.0976,0.39041v0.70029l-0.05848,0.23393l-0.0185,0.24042l-0.05659,0.16976l0.00443,0.01626l-0.02217,0.03695l-0.01322,0.03965l-0.18504,0.29077l-0.17732,0.29555l-0.02955,0.02955l-0.02313,0.03635l-0.01652,0.0033l-0.10587,0.10587l-0.20676,0.12406l-0.18308,0.15692l-0.35014,0.17507l-0.21874,0.04861l-0.20549,0.08934l-0.52522,0.08754l-0.12498,-0.01l-0.12162,0.03041h-1.46649l-0.17367,0.39076l-0.05594,0.22378l-0.04856,0.09104l-0.01394,0.10224l-0.17508,0.43768l-0.11589,0.16047l-0.07682,0.18243l-0.26261,0.35015l-0.08379,0.06808l-0.05555,0.09258l-0.35014,0.35014l-0.20676,0.12406l-0.18308,0.15692l-0.65765,0.32882l-0.00296,0.00295l-0.29554,0.17732l-0.29078,0.18504l-0.03965,0.01322l-0.03694,0.02217l-0.01626,-0.00444l-0.16977,0.05659l-0.11863,0.00913l-0.10911,0.04744l-0.52522,0.08754l-0.0751,-0.00601l-0.07172,0.02309l-1.215,0.08101l-1.2167,0.24334l-0.02481,-0.00118l-0.02277,0.0099l-1.57566,0.26261l-0.07511,-0.00601l-0.07172,0.0231l-1.31305,0.08754l-0.05024,-0.00906l-0.04953,0.01238h-1.05044l-0.75,-0.1875l-0.19741,-0.34547z" fill="#fff5d4" stroke="none" stroke-width="0.5" stroke-linecap="butt"/><path d="M269.32421,180.00002c0,8.32026 4.34382,14.06216 -0.04992,17.11982c-5.47314,3.80882 -19.73407,4.27874 -28.77122,4.27874c-10.0743,0 -23.62973,-0.18673 -28.88568,-5.26466c-3.2439,-3.13402 -1.29175,-9.00311 -1.29175,-16.1339c0,-2.37529 0.20979,-4.51805 0.6095,-6.44902c2.79981,-0.90161 3.2128,-2.90262 5.95751,-4.47102l0.09632,-0.38527c0.95798,-0.30702 1.84353,-0.7013 2.60881,-1.21906c0.88155,-0.59642 1.73189,-1.295 2.52953,-2.07245c1.55354,-0.69308 2.94908,-1.5095 3.40511,-2.10052c0.63216,-0.81929 1.60957,-3.06231 2.24511,-5.2443c3.60658,-0.75124 7.60299,-1.03928 11.82136,-1.03928c16.29201,0 29.72534,4.29638 29.72534,22.98092z" fill="#50351d" stroke="#3d2816" stroke-width="3" stroke-linecap="butt"/><text transform="translate(233.81456,192.52858) rotate(53.51089) scale(0.5,0.5)" font-size="40" xml:space="preserve" fill="#000000" fill-rule="nonzero" stroke="none" stroke-width="1" stroke-linecap="butt" stroke-linejoin="miter" stroke-miterlimit="10" stroke-dasharray="" stroke-dashoffset="0" font-family="Handwriting" font-weight="normal" text-anchor="start" style="mix-blend-mode: normal"><tspan x="0" dy="0">3</tspan></text><path d="M211.31919,160.40344c0,-0.27614 0.22386,-0.5 0.5,-0.5c0.27614,0 0.5,0.22386 0.5,0.5c0,0.27614 -0.22386,0.5 -0.5,0.5c-0.27614,0 -0.5,-0.22386 -0.5,-0.5z" fill="#37b33a" stroke="none" stroke-width="0.5" stroke-linecap="butt"/><path d="M213.85776,163.2046c0,-0.27614 0.22386,-0.5 0.5,-0.5c0.27614,0 0.5,0.22386 0.5,0.5c0,0.27614 -0.22386,0.5 -0.5,0.5c-0.27614,0 -0.5,-0.22386 -0.5,-0.5z" fill="#37b33a" stroke="none" stroke-width="0.5" stroke-linecap="butt"/><path d="M215.60849,158.56517c0,-0.27614 0.22386,-0.5 0.5,-0.5c0.27614,0 0.5,0.22386 0.5,0.5c0,0.27614 -0.22386,0.5 -0.5,0.5c-0.27614,0 -0.5,-0.22386 -0.5,-0.5z" fill="#37b33a" stroke="none" stroke-width="0.5" stroke-linecap="butt"/><path d="M209.91861,165.91825c0,-0.27614 0.22386,-0.5 0.5,-0.5c0.27614,0 0.5,0.22386 0.5,0.5c0,0.27614 -0.22386,0.5 -0.5,0.5c-0.27614,0 -0.5,-0.22386 -0.5,-0.5z" fill="#37b33a" stroke="none" stroke-width="0.5" stroke-linecap="butt"/><path d="M214.9082,160.84112c0,-0.27614 0.22386,-0.5 0.5,-0.5c0.27614,0 0.5,0.22386 0.5,0.5c0,0.27614 -0.22386,0.5 -0.5,0.5c-0.27614,0 -0.5,-0.22386 -0.5,-0.5z" fill="#37b33a" stroke="none" stroke-width="0.5" stroke-linecap="butt"/><path d="M211.49427,168.10666c0,-0.27614 0.22386,-0.5 0.5,-0.5c0.27614,0 0.5,0.22386 0.5,0.5c0,0.27614 -0.22386,0.5 -0.5,0.5c-0.27614,0 -0.5,-0.22386 -0.5,-0.5z" fill="#37b33a" stroke="none" stroke-width="0.5" stroke-linecap="butt"/><path d="M218.14705,157.42719c0,-0.27614 0.22386,-0.5 0.5,-0.5c0.27614,0 0.5,0.22386 0.5,0.5c0,0.27614 -0.22386,0.5 -0.5,0.5c-0.27614,0 -0.5,-0.22386 -0.5,-0.5z" fill="#37b33a" stroke="none" stroke-width="0.5" stroke-linecap="butt"/><path d="M216.74646,163.64228c0,-0.27614 0.22386,-0.5 0.5,-0.5c0.27614,0 0.5,0.22386 0.5,0.5c0,0.27614 -0.22386,0.5 -0.5,0.5c-0.27614,0 -0.5,-0.22386 -0.5,-0.5z" fill="#37b33a" stroke="none" stroke-width="0.5" stroke-linecap="butt"/><path d="M221.03576,158.3901c0,-0.27614 0.22386,-0.5 0.5,-0.5c0.27614,0 0.5,0.22386 0.5,0.5c0,0.27614 -0.22386,0.5 -0.5,0.5c-0.27614,0 -0.5,-0.22386 -0.5,-0.5z" fill="#37b33a" stroke="none" stroke-width="0.5" stroke-linecap="butt"/><path d="M218.23459,159.79065c0,-0.27614 0.22386,-0.5 0.5,-0.5c0.27614,0 0.5,0.22386 0.5,0.5c0,0.27614 -0.22386,0.5 -0.5,0.5c-0.27614,0 -0.5,-0.22386 -0.5,-0.5z" fill="#37b33a" stroke="none" stroke-width="0.5" stroke-linecap="butt"/><path d="M254.77388,151.12455c0,-0.13807 0.11193,-0.25 0.25,-0.25c0.13807,0 0.25,0.11193 0.25,0.25c0,0.13807 -0.11193,0.25 -0.25,0.25c-0.13807,0 -0.25,-0.11193 -0.25,-0.25z" fill="#fd96ff" stroke="none" stroke-width="0.5" stroke-linecap="butt"/><path d="M257.75013,149.54889c0,-0.13807 0.11193,-0.25 0.25,-0.25c0.13807,0 0.25,0.11193 0.25,0.25c0,0.13807 -0.11193,0.25 -0.25,0.25c-0.13807,0 -0.25,-0.11193 -0.25,-0.25z" fill="#fd96ff" stroke="none" stroke-width="0.5" stroke-linecap="butt"/><path d="M257.22491,153.22543c0,-0.13807 0.11193,-0.25 0.25,-0.25c0.13807,0 0.25,0.11193 0.25,0.25c0,0.13807 -0.11193,0.25 -0.25,0.25c-0.13807,0 -0.25,-0.11193 -0.25,-0.25z" fill="#fd96ff" stroke="none" stroke-width="0.5" stroke-linecap="butt"/><path d="M258.97564,152.52514c0,-0.13807 0.11193,-0.25 0.25,-0.25c0.13807,0 0.25,0.11193 0.25,0.25c0,0.13807 -0.11193,0.25 -0.25,0.25c-0.13807,0 -0.25,-0.11193 -0.25,-0.25z" fill="#fd96ff" stroke="none" stroke-width="0.5" stroke-linecap="butt"/><path d="M254.59881,154.88861c0,-0.13807 0.11193,-0.25 0.25,-0.25c0.13807,0 0.25,0.11193 0.25,0.25c0,0.13807 -0.11193,0.25 -0.25,0.25c-0.13807,0 -0.25,-0.11193 -0.25,-0.25z" fill="#fd96ff" stroke="none" stroke-width="0.5" stroke-linecap="butt"/><path d="M258.27535,155.76397c0,-0.13807 0.11193,-0.25 0.25,-0.25c0.13807,0 0.25,0.11193 0.25,0.25c0,0.13807 -0.11193,0.25 -0.25,0.25c-0.13807,0 -0.25,-0.11193 -0.25,-0.25z" fill="#fd96ff" stroke="none" stroke-width="0.5" stroke-linecap="butt"/><path d="M252.23532,158.30256c0,-0.13807 0.11193,-0.25 0.25,-0.25c0.13807,0 0.25,0.11193 0.25,0.25c0,0.13807 -0.11193,0.25 -0.25,0.25c-0.13807,0 -0.25,-0.11193 -0.25,-0.25z" fill="#fd96ff" stroke="none" stroke-width="0.5" stroke-linecap="butt"/><path d="M258.01274,159.87822c0,-0.13807 0.11193,-0.25 0.25,-0.25c0.13807,0 0.25,0.11193 0.25,0.25c0,0.13807 -0.11193,0.25 -0.25,0.25c-0.13807,0 -0.25,-0.11193 -0.25,-0.25z" fill="#fd96ff" stroke="none" stroke-width="0.5" stroke-linecap="butt"/><path d="M255.47417,157.86487c0,-0.13807 0.11193,-0.25 0.25,-0.25c0.13807,0 0.25,0.11193 0.25,0.25c0,0.13807 -0.11193,0.25 -0.25,0.25c-0.13807,0 -0.25,-0.11193 -0.25,-0.25z" fill="#fd96ff" stroke="none" stroke-width="0.5" stroke-linecap="butt"/><path d="M228.4249,190.55283c0,2.06604 -1.69986,3.7409 -3.79674,3.7409c-2.09688,0 -3.79674,-1.67486 -3.79674,-3.7409c0,-2.06604 1.69986,-3.7409 3.79674,-3.7409c2.09688,0 3.79674,1.67486 3.79674,3.7409z" fill="#ff8787" stroke="none" stroke-width="0" stroke-linecap="butt"/><path d="M260.5513,156.81443c0,-0.13807 0.11193,-0.25 0.25,-0.25c0.13807,0 0.25,0.11193 0.25,0.25c0,0.13807 -0.11193,0.25 -0.25,0.25c-0.13807,0 -0.25,-0.11193 -0.25,-0.25z" fill="#fd96ff" stroke="none" stroke-width="0.5" stroke-linecap="butt"/><path d="M260.81391,159.44053c0,-0.13807 0.11193,-0.25 0.25,-0.25c0.13807,0 0.25,0.11193 0.25,0.25c0,0.13807 -0.11193,0.25 -0.25,0.25c-0.13807,0 -0.25,-0.11193 -0.25,-0.25z" fill="#fd96ff" stroke="none" stroke-width="0.5" stroke-linecap="butt"/><path d="M262.95714,191.10205c0,2.06605 -1.69986,3.7409 -3.79674,3.7409c-2.09688,0 -3.79674,-1.67486 -3.79674,-3.7409c0,-2.06605 1.69986,-3.7409 3.79674,-3.7409c2.09688,0 3.79674,1.67486 3.79674,3.7409z" fill="#ff8787" stroke="none" stroke-width="0" stroke-linecap="butt"/><path d="M226.13678,243.82586v-40.17932h31.07551v40.17932z" fill="#ff83e4" stroke="#cc68b6" stroke-width="3" stroke-linecap="butt"/><path d="M242.15599,242.42527l-0.17507,-37.29061" fill="none" stroke="#cc68b6" stroke-width="3" stroke-linecap="round"/><path d="M243.38151,237.26779c0,0.97087 -0.68585,1.75791 -1.53189,1.75791c-0.84604,0 -1.53189,-0.78704 -1.53189,-1.75791c0,-0.97087 0.68585,-1.75791 1.53189,-1.75791c0.84604,0 1.53189,0.78704 1.53189,1.75791z" fill="#ff83e4" stroke="#cc68b6" stroke-width="3" stroke-linecap="butt"/><path d="M243.74206,226.33611c0,0.97087 -0.68585,1.75791 -1.53189,1.75791c-0.84604,0 -1.53189,-0.78705 -1.53189,-1.75791c0,-0.97087 0.68585,-1.75791 1.53189,-1.75791c0.84604,0 1.53189,0.78705 1.53189,1.75791z" fill="#ff83e4" stroke="#cc68b6" stroke-width="3" stroke-linecap="butt"/><path d="M243.66494,214.70415c0,0.92252 -0.68585,1.67037 -1.53189,1.67037c-0.84604,0 -1.53189,-0.74786 -1.53189,-1.67037c0,-0.92252 0.68585,-1.67037 1.53189,-1.67037c0.84604,0 1.53189,0.74786 1.53189,1.67037z" fill="#ff83e4" stroke="#cc68b6" stroke-width="3" stroke-linecap="butt"/><g fill="#3c3c3c" stroke="#2c2c2c" stroke-width="1.5" stroke-linecap="butt"><path d="M244.75999,206.10003l-0.05138,-2.79335l3.81222,-2.8323l1.3888,7.10374z" data-paper-data="{&quot;index&quot;:null}"/><path d="M235.23035,207.23641l1.60342,-6.43935l3.42398,2.77405l-0.17006,2.55552z"/><path d="M244.73216,202.49371c0.98502,1.27719 0.73222,3.12336 -0.56462,4.12352c-1.29684,1.00017 -3.14665,0.77559 -4.13166,-0.5016c-0.98502,-1.27719 -0.73223,-3.12335 0.56461,-4.12352c1.29684,-1.00017 3.14665,-0.7756 4.13166,0.50159z"/></g><path d="M220.53554,172.83555l7.13921,6.1963l-8.21683,4.31047" fill="none" stroke="#000000" stroke-width="3" stroke-linecap="round"/><path d="M260.9622,183.89714l-8.21683,-4.31046l7.13922,-6.1963" data-paper-data="{&quot;index&quot;:null}" fill="none" stroke="#000000" stroke-width="3" stroke-linecap="round"/><path d="M225.84972,154.39566c5.27381,1.31846 4.59434,5.85723 2.5086,10.06214c-2.67736,5.39762 -8.60293,15.97191 -16.02974,14.11521c-4.78076,-1.19519 -4.13103,-11.20323 -4.66063,-14.7198c-0.33539,-2.22696 -2.5491,-3.40709 -2.14122,-6.24511c0.25642,-1.78412 2.77041,-5.37572 4.33816,-6.80095c1.91372,-1.73974 3.60593,0.52756 5.09229,0.54612c2.29009,0.0286 3.44165,-1.11669 5.80358,0.30047c0.56384,0.3383 1.6423,2.96784 1.69815,2.97853c0.97687,0.18706 2.09567,-0.52445 3.24703,-0.23662z" fill="#492f17" stroke="none" stroke-width="0.5" stroke-linecap="butt"/><path d="M256.29989,288.06156c0,3.6132 -2.76814,6.54228 -6.18281,6.54228c-3.41467,0 -6.18281,-2.92908 -6.18281,-6.54228c0,-3.6132 2.76814,-6.54227 6.18281,-6.54227c3.41467,0 6.18281,2.92907 6.18281,6.54227z" fill="#906e40" stroke="#664e2d" stroke-width="2" stroke-linecap="butt"/><path d="M245.5652,284.10002c0,0 -0.79827,-12.79179 -0.79827,-19.37792c0,-6.98564 0.79827,-21.40799 0.79827,-21.40799h8.09672c0,0 0.91231,13.31142 0.91231,19.93158c0,6.9583 -0.91231,20.85433 -0.91231,20.85433z" fill="#fca8ff" stroke="#ff77f4" stroke-width="1" stroke-linecap="butt"/><path d="M244.14424,285.65673v-3.73612h11.51969v3.73612z" fill="#fca8ff" stroke="#ff77f4" stroke-width="1" stroke-linecap="butt"/><path d="M229.04552,284.23717c0,0 -0.79827,-12.7918 -0.79827,-19.37792c0,-6.98564 0.79827,-21.40799 0.79827,-21.40799h8.09672c0,0 0.91231,13.31142 0.91231,19.93157c0,6.95829 -0.91231,20.85433 -0.91231,20.85433z" fill="#fca8ff" stroke="#ff77f4" stroke-width="1" stroke-linecap="butt"/><path d="M269.32421,180.00002c0,8.32026 4.34382,14.06216 -0.04992,17.11982c-5.47314,3.80882 -19.73407,4.27874 -28.77122,4.27874c-10.0743,0 -23.62973,-0.18673 -28.88568,-5.26466c-3.2439,-3.13402 -1.29175,-9.00311 -1.29175,-16.1339c0,-2.37529 0.20979,-4.51805 0.6095,-6.44902c2.79981,-0.90161 3.2128,-2.90262 5.95751,-4.47102l0.09632,-0.38527c0.95798,-0.30702 1.84353,-0.7013 2.60881,-1.21906c0.88155,-0.59642 1.73189,-1.295 2.52953,-2.07245c1.55354,-0.69308 2.94908,-1.5095 3.40511,-2.10052c0.63216,-0.81929 1.60957,-3.06231 2.24511,-5.2443c3.60658,-0.75124 7.60299,-1.03928 11.82136,-1.03928c16.29201,0 29.72534,4.29638 29.72534,22.98092z" fill="#ffe6d1" stroke="#bfa895" stroke-width="3" stroke-linecap="butt"/><path d="M227.33976,192.66264c0,2.06604 -1.69986,3.7409 -3.79674,3.7409c-2.09688,0 -3.79674,-1.67486 -3.79674,-3.7409c0,-2.06604 1.69986,-3.7409 3.79674,-3.7409c2.09688,0 3.79674,1.67486 3.79674,3.7409z" fill="#fca8ff" stroke="none" stroke-width="0" stroke-linecap="butt"/><path d="M265.22891,192.38548c0,2.06605 -1.69986,3.7409 -3.79674,3.7409c-2.09688,0 -3.79674,-1.67486 -3.79674,-3.7409c0,-2.06605 1.69986,-3.7409 3.79674,-3.7409c2.09688,0 3.79674,1.67486 3.79674,3.7409z" fill="#fca8ff" stroke="none" stroke-width="0" stroke-linecap="butt"/><path d="M226.13678,243.82586v-40.17932h31.07551v40.17932z" fill="#82dcff" stroke="#68b0cc" stroke-width="3" stroke-linecap="butt"/><path d="M242.15599,242.42527l-0.17507,-37.29061" fill="none" stroke="#68b0cc" stroke-width="3" stroke-linecap="round"/><path d="M243.38151,237.26779c0,0.97087 -0.68585,1.75791 -1.53189,1.75791c-0.84604,0 -1.53189,-0.78704 -1.53189,-1.75791c0,-0.97087 0.68585,-1.75791 1.53189,-1.75791c0.84604,0 1.53189,0.78704 1.53189,1.75791z" fill="#ff83e4" stroke="#68b0cc" stroke-width="3" stroke-linecap="butt"/><path d="M243.74206,226.33611c0,0.97087 -0.68585,1.75791 -1.53189,1.75791c-0.84604,0 -1.53189,-0.78705 -1.53189,-1.75791c0,-0.97087 0.68585,-1.75791 1.53189,-1.75791c0.84604,0 1.53189,0.78705 1.53189,1.75791z" fill="#ff83e4" stroke="#68b0cc" stroke-width="3" stroke-linecap="butt"/><path d="M243.66494,214.70415c0,0.92252 -0.68585,1.67037 -1.53189,1.67037c-0.84604,0 -1.53189,-0.74786 -1.53189,-1.67037c0,-0.92252 0.68585,-1.67037 1.53189,-1.67037c0.84604,0 1.53189,0.74786 1.53189,1.67037z" fill="#ff83e4" stroke="#68b0cc" stroke-width="3" stroke-linecap="butt"/><g fill="#3c3c3c" stroke="#2c2c2c" stroke-width="1.5" stroke-linecap="butt"><path d="M244.75999,206.10003l-0.05138,-2.79336l3.81222,-2.83229l1.3888,7.10373z" data-paper-data="{&quot;index&quot;:null}"/><path d="M235.23034,207.23641l1.60342,-6.43935l3.42398,2.77405l-0.17006,2.55552z"/><path d="M244.73215,202.49371c0.98501,1.27719 0.73223,3.12336 -0.56461,4.12352c-1.29684,1.00017 -3.14665,0.7756 -4.13166,-0.50159c-0.98501,-1.27719 -0.73223,-3.12336 0.56461,-4.12352c1.29684,-1.00017 3.14665,-0.7756 4.13166,0.50159z"/></g><path d="M259.24584,249.45665v-28.88709h7.00293v28.88709z" fill="#ffe6d1" stroke="#bfa895" stroke-width="2" stroke-linecap="butt"/><path d="M259.21516,221.79539l-2.32329,-17.88225l3.17246,-0.7637l5.35472,4.56905l1.69555,13.0506z" fill="#82dcff" stroke="#68b0cc" stroke-width="3" stroke-linecap="butt"/><path d="M268.82291,162.19964c0.15339,1.99411 -1.84071,2.1475 -1.84071,2.1475l-0.60841,-0.43611c-2.53994,2.53886 -5.88114,6.43198 -10.12525,4.08604c-2.65112,-1.46542 -2.29942,-3.16367 -2.34749,-5.50026c-0.02136,-1.03832 -0.06161,-2.08054 -0.20855,-3.10863c-0.03123,-0.21851 0.15884,-0.67622 -0.06125,-0.65937c-0.87546,0.06705 -0.77759,1.5748 -1.18993,2.34998c-1.95074,3.11239 -5.17418,7.25546 -9.49351,4.28927c-3.02555,-2.07772 -2.11598,-2.94607 -1.98313,-5.73563c0.02982,-0.62615 -0.02738,-1.25413 -0.00439,-1.88056c0.01627,-0.44327 0.07408,-0.88412 0.12203,-1.32509c0.0207,-0.19042 0.15933,-0.74451 0.08388,-0.56846c-1.31671,3.0722 -3.37401,7.74397 -7.48571,7.76471c-1.32954,0.00671 -2.96051,0.00921 -3.87165,-0.95906c-2.0493,-2.1778 0.23496,-6.62383 1.42231,-8.46587c0,0 1.1094,-1.6641 2.7735,-0.5547c1.6641,1.1094 0.5547,2.7735 0.5547,2.7735c-0.693,0.99036 -1.54851,2.47056 -1.74098,3.61217c-0.03244,0.19242 0.26787,-0.29572 0.44194,-0.38391c0.7815,-0.39594 1.72223,-0.68007 2.22656,-1.39641c0.97997,-1.39194 1.19014,-3.11425 2.54996,-4.29457c1.03581,-0.89907 2.20016,-2.29158 3.55425,-2.07323c5.13614,0.82823 2.97362,6.6088 3.01672,9.5353c0.00975,0.66188 2.21994,0.86182 2.52854,0.71108c1.08493,-0.52995 1.23335,-2.0764 1.87182,-3.10123c2.18947,-3.65392 4.99366,-6.24805 8.23871,-1.47269c0.75232,1.10711 0.68712,3.64526 0.65417,4.94339c-0.00007,0.00252 -0.39234,1.77902 0.24066,1.97664c2.41651,0.7544 4.03553,-2.02216 5.40366,-3.39085l3.13004,-0.72368c0,0 1.99411,-0.1534 2.1475,1.84071z" fill="#5b3e23" stroke="none" stroke-width="0.5" stroke-linecap="butt"/><path d="M207.73916,155.01993c0,-0.55229 0.44771,-1 1,-1c0.55229,0 1,0.44771 1,1c0,0.55229 -0.44771,1 -1,1c-0.55229,0 -1,-0.44771 -1,-1z" fill="#42ce61" stroke="none" stroke-width="0.5" stroke-linecap="butt"/><path d="M212.77168,155.16372c0,-0.55229 0.44771,-1 1,-1c0.55229,0 1,0.44771 1,1c0,0.55229 -0.44771,1 -1,1c-0.55229,0 -1,-0.44771 -1,-1z" fill="#42ce61" stroke="none" stroke-width="0.5" stroke-linecap="butt"/><path d="M208.17052,160.6276c0,-0.55229 0.44771,-1 1,-1c0.55229,0 1,0.44771 1,1c0,0.55229 -0.44771,1 -1,1c-0.55229,0 -1,-0.44771 -1,-1z" fill="#42ce61" stroke="none" stroke-width="0.5" stroke-linecap="butt"/><path d="M210.03974,151.28149c0,-0.55229 0.44771,-1 1,-1c0.55229,0 1,0.44771 1,1c0,0.55229 -0.44771,1 -1,1c-0.55229,0 -1,-0.44771 -1,-1z" fill="#42ce61" stroke="none" stroke-width="0.5" stroke-linecap="butt"/><path d="M211.33382,163.93468c0,-0.55229 0.44771,-1 1,-1c0.55229,0 1,0.44771 1,1c0,0.55229 -0.44771,1 -1,1c-0.55229,0 -1,-0.44771 -1,-1z" fill="#42ce61" stroke="none" stroke-width="0.5" stroke-linecap="butt"/><path d="M211.4776,158.75838c0,-0.55229 0.44771,-1 1,-1c0.55229,0 1,0.44771 1,1c0,0.55229 -0.44771,1 -1,1c-0.55229,0 -1,-0.44771 -1,-1z" fill="#42ce61" stroke="none" stroke-width="0.5" stroke-linecap="butt"/><path d="M215.6474,158.18323c0,-0.55229 0.44771,-1 1,-1c0.55229,0 1,0.44771 1,1c0,0.55229 -0.44771,1 -1,1c-0.55229,0 -1,-0.44771 -1,-1z" fill="#42ce61" stroke="none" stroke-width="0.5" stroke-linecap="butt"/><path d="M216.22255,153.43829c0,-0.55229 0.44771,-1 1,-1c0.55229,0 1,0.44771 1,1c0,0.55229 -0.44771,1 -1,1c-0.55229,0 -1,-0.44771 -1,-1z" fill="#42ce61" stroke="none" stroke-width="0.5" stroke-linecap="butt"/><path d="M210.18353,166.52283c0,-0.55229 0.44771,-1 1,-1c0.55229,0 1,0.44771 1,1c0,0.55229 -0.44771,1 -1,1c-0.55229,0 -1,-0.44771 -1,-1z" fill="#42ce61" stroke="none" stroke-width="0.5" stroke-linecap="butt"/><path d="M217.08527,162.49682c0,-0.55229 0.44771,-1 1,-1c0.55229,0 1,0.44771 1,1c0,0.55229 -0.44771,1 -1,1c-0.55229,0 -1,-0.44771 -1,-1z" fill="#42ce61" stroke="none" stroke-width="0.5" stroke-linecap="butt"/><path d="M221.39885,157.17673c0,-0.55229 0.44771,-1 1,-1c0.55229,0 1,0.44771 1,1c0,0.55229 -0.44771,1 -1,1c-0.55229,0 -1,-0.44771 -1,-1z" fill="#42ce61" stroke="none" stroke-width="0.5" stroke-linecap="butt"/><path d="M214.35333,166.52283c0,-0.55229 0.44771,-1 1,-1c0.55229,0 1,0.44771 1,1c0,0.55229 -0.44771,1 -1,1c-0.55229,0 -1,-0.44771 -1,-1z" fill="#42ce61" stroke="none" stroke-width="0.5" stroke-linecap="butt"/><path d="M256.31904,148.54935c2.19893,-1.53449 3.59715,-0.5103 5.95762,-1.53769c0.48021,-0.20901 0.44762,-2.53565 0.9731,-3.14871c2.5015,-2.91842 6.58974,-3.80764 10.19056,-2.52163c4.42988,1.5821 3.18259,8.19038 3.75205,11.58848c0.22192,1.32424 1.4131,2.45392 1.35003,3.79515c-0.04859,1.03343 -1.17967,1.59858 -1.50267,2.28142c-0.07459,0.15768 0.23928,0.25529 0.34055,0.39731c1.31928,1.85022 0.78445,4.4572 0.18558,6.41073c-2.28695,7.46013 -15.84779,-1.47887 -18.63402,-2.9356c-1.23837,-0.64747 -5.27308,-2.03092 -5.23862,-3.65059c-0.40638,-0.74547 -0.63731,-1.60036 -0.63731,-2.50918c0,-1.054 0.3106,-2.03546 0.84526,-2.85783c0.57331,-2.09576 1.3178,-4.54418 2.41787,-5.31185z" fill="#fff3bf" stroke="none" stroke-width="0.5" stroke-linecap="butt"/><path d="M264.46608,143.66082c0,-0.82843 0.67158,-1.5 1.5,-1.5c0.82842,0 1.5,0.67157 1.5,1.5c0,0.82843 -0.67158,1.5 -1.5,1.5c-0.82842,0 -1.5,-0.67157 -1.5,-1.5z" fill="#e890ff" stroke="none" stroke-width="0.5" stroke-linecap="butt"/><path d="M268.63588,154.01343c0,-0.82843 0.67158,-1.5 1.5,-1.5c0.82842,0 1.5,0.67157 1.5,1.5c0,0.82843 -0.67158,1.5 -1.5,1.5c-0.82842,0 -1.5,-0.67157 -1.5,-1.5z" fill="#e890ff" stroke="none" stroke-width="0.5" stroke-linecap="butt"/><path d="M257.9957,153.00693c0,-0.82843 0.67158,-1.5 1.5,-1.5c0.82842,0 1.5,0.67157 1.5,1.5c0,0.82843 -0.67158,1.5 -1.5,1.5c-0.82842,0 -1.5,-0.67157 -1.5,-1.5z" fill="#e890ff" stroke="none" stroke-width="0.5" stroke-linecap="butt"/><path d="M265.3288,149.41227c0,-0.82843 0.67158,-1.5 1.5,-1.5c0.82842,0 1.5,0.67157 1.5,1.5c0,0.82843 -0.67158,1.5 -1.5,1.5c-0.82842,0 -1.5,-0.67157 -1.5,-1.5z" fill="#e890ff" stroke="none" stroke-width="0.5" stroke-linecap="butt"/><path d="M254.97619,148.26198c0,-0.82843 0.67157,-1.5 1.5,-1.5c0.82842,0 1.5,0.67157 1.5,1.5c0,0.82843 -0.67158,1.5 -1.5,1.5c-0.82843,0 -1.5,-0.67157 -1.5,-1.5z" fill="#e890ff" stroke="none" stroke-width="0.5" stroke-linecap="butt"/><path d="M251.95668,152.43177c0,-0.82843 0.67157,-1.5 1.5,-1.5c0.82843,0 1.5,0.67157 1.5,1.5c0,0.82843 -0.67157,1.5 -1.5,1.5c-0.82843,0 -1.5,-0.67157 -1.5,-1.5z" fill="#e890ff" stroke="none" stroke-width="0.5" stroke-linecap="butt"/><path d="M263.74715,158.75838c0,-0.82843 0.67158,-1.5 1.5,-1.5c0.82842,0 1.5,0.67157 1.5,1.5c0,0.82843 -0.67158,1.5 -1.5,1.5c-0.82842,0 -1.5,-0.67157 -1.5,-1.5z" fill="#e890ff" stroke="none" stroke-width="0.5" stroke-linecap="butt"/><path d="M268.49209,163.21575c0,-0.82843 0.67158,-1.5 1.5,-1.5c0.82842,0 1.5,0.67157 1.5,1.5c0,0.82843 -0.67158,1.5 -1.5,1.5c-0.82842,0 -1.5,-0.67157 -1.5,-1.5z" fill="#e890ff" stroke="none" stroke-width="0.5" stroke-linecap="butt"/><path d="M269.64238,144.66733c0,-0.82843 0.67158,-1.5 1.5,-1.5c0.82842,0 1.5,0.67157 1.5,1.5c0,0.82843 -0.67158,1.5 -1.5,1.5c-0.82842,0 -1.5,-0.67157 -1.5,-1.5z" fill="#e890ff" stroke="none" stroke-width="0.5" stroke-linecap="butt"/><path d="M235.00105,188.90825c0,0 3.03309,-1.15029 4.60116,-1.15029c1.63993,0 5.03252,1.15029 5.03252,1.15029" fill="none" stroke="#000000" stroke-width="2" stroke-linecap="round"/><path d="M215.74215,179.0665l9.14135,7.03181l-11.85362,4.52045" fill="none" stroke="#000000" stroke-width="3.5" stroke-linecap="round"/><path d="M260.23217,177.97614l-11.85361,-4.52044l9.14135,-7.0318" data-paper-data="{&quot;index&quot;:null}" fill="none" stroke="#000000" stroke-width="3.5" stroke-linecap="round"/><path d="M208.07941,196.13377c0.86572,-1.51501 1.18712,-2.72054 2.03808,-3.33733c0.51261,-0.37155 1.21739,-0.52945 2.34909,-0.41267c3.76846,0.38887 5.93873,3.74526 9.39804,4.72966c4.68716,1.33382 11.04588,0.73268 15.45142,0.79244c2.0243,0.02746 3.88076,1.8988 5.77019,1.9115c4.68531,0.03148 12.28535,-0.28551 16.64556,-2.37423c2.43416,-1.16606 4.1581,-3.41688 6.50559,-4.59062c1.55082,-0.77541 6.35372,-1.19174 7.14822,0c4.61114,6.91671 -1.43389,7.17997 -6.54186,9.00364c-2.95809,1.05611 -4.57272,2.76949 -7.80411,3.43775c-1.27805,0.2643 -3.97773,0.60489 -4.96877,1.42286c-0.20061,0.16558 1.02047,4.62087 0.1193,5.52204c-0.89076,0.89076 -2.02152,1.875 -3.28125,1.875c-1.25973,0 -2.39049,-0.98424 -3.28125,-1.875c-1.10341,-1.10341 0.03295,-1.83378 -0.75348,-2.37254c-1.58186,-1.08368 -7.84551,0.19112 -10.83247,-0.00023c-2.1511,-0.1378 -3.81909,-0.8394 -5.05321,-2.49773c-0.4058,-0.54529 0.0768,-1.70946 -0.55409,-1.96243c-0.30599,-0.12269 -0.93452,-0.18165 -1.70331,-0.20805c0.55777,0.46709 1.31117,1.08352 1.45915,1.37948c0.70681,1.41362 0.53024,3.94663 0.46875,5.27322c-0.1131,2.44027 -0.9086,6.6469 -4.38717,5.87389c-1.61366,-0.35859 -2.40798,-0.46924 -3.56925,-1.86607c-1.65269,-1.98795 0.56617,-3.68799 0.36168,-5.33346c-0.23436,-1.88573 -2.25759,-1.89851 -2.50176,-5.976c-2.78352,-0.86317 -5.34279,-2.43233 -7.69906,-4.09942c-0.85195,-0.60277 -2.4195,-0.17775 -2.93728,-1.08387z" fill="#492f17" stroke="none" stroke-width="0.5" stroke-linecap="butt"/><path d="M270.05929,248.73856c-1.11022,4.996 -7.0809,6.59085 -10.61348,3.22583c-3.17445,-3.02387 -2.59777,-11.51516 -2.30464,-15.47679c0.54388,-7.35056 4.77372,-2.14003 6.69689,-2.06606c0.98794,0.038 1.58888,-1.5395 2.57521,-1.47155c2.83634,0.19539 3.75,1.98293 3.75,4.20192c0.13756,0.39018 0.21239,0.80994 0.21239,1.24719c0,6.03092 0.53017,6.53006 -0.31637,10.33947z" fill="#492f17" stroke="none" stroke-width="0.5" stroke-linecap="butt"/><path d="M258.30115,294.65449c-2.17376,4.0758 -13.31046,4.19749 -15.84643,0.21239c-3.33845,-5.24614 -2.06377,-11.84266 -1.66747,-17.81307c0.15338,-2.31074 1.60382,-2.66677 3.54037,-3.77336c0.52457,-0.29975 1.72296,0.99557 1.76935,0.39319c0.70582,-9.16654 13.93338,-2.81359 12.11897,4.44405c0.03523,0.20648 0.05358,0.41871 0.05358,0.63523c0,5.27515 2.64092,11.00917 0.03164,15.90157z" fill="#492f17" stroke="none" stroke-width="0.5" stroke-linecap="butt"/><path d="M232.45833,273.17458c1.43574,-2.69202 5.15741,-3.84863 7.07702,-0.96921c2.11564,3.17347 0.625,7.62166 0.46875,11.43249c-0.07435,1.8133 -1.3771,3.45609 -3.15158,3.85042c-3.59227,0.79828 -9.82515,-2.80219 -12.16282,-5.37364c-0.42422,-0.46664 -0.35498,-1.3766 -0.28884,-2.21083c-0.11682,-0.36264 -0.17991,-0.7494 -0.17991,-1.15089c0,-0.16884 0.01116,-0.33508 0.03278,-0.49801c-1.09309,-1.17949 -2.50094,-7.57278 -0.41358,-9.66014c3.85521,-3.85521 7.74978,0.85893 8.58614,4.62254z" fill="#492f17" stroke="none" stroke-width="0.5" stroke-linecap="butt"/></g></g></svg>