<svg version="1.1" xmlns="http://www.w3.org/2000/svg" xmlns:xlink="http://www.w3.org/1999/xlink" width="214.02119" height="336.35417" viewBox="0,0,214.02119,336.35417"><g transform="translate(-133.08834,-26.75)"><g data-paper-data="{&quot;isPaintingLayer&quot;:true}" fill-rule="nonzero" stroke-linejoin="miter" stroke-miterlimit="10" stroke-dasharray="" stroke-dashoffset="0" style="mix-blend-mode: normal"><path d="M202.41877,105.07003c-0.27343,-0.48609 -0.46062,-0.99162 -0.5709,-1.51116c-0.13721,-0.51482 -0.21035,-1.05579 -0.21035,-1.61384c0,-1.45404 0.49654,-2.79212 1.3293,-3.85391c2.50399,-4.62465 8.21491,-8.96067 11.66342,-9.82279c10.33659,-2.58415 19.80008,9.53973 28.84626,8.37662c0.45798,-0.05889 4.33233,-4.00478 5.67579,-4.51288c5.36841,-2.03035 15.69845,-3.48817 21.45108,-1.85043c3.42897,0.97621 6.38183,2.5866 8.1529,5.53839c3.08398,5.13997 1.07214,14.2084 -5.26875,15.175c-4.66215,0.71069 -8.36566,-2.52423 -12.81424,-2.6c-7.43697,-0.12667 -14.08323,3.15681 -21.58576,2.8c-4.89591,-0.23284 -9.61487,-2.45539 -14.41424,-3c-4.26543,-0.48402 -8.35426,-0.98919 -12.61236,-1.59749c-1.10655,0.99326 -2.56941,1.59749 -4.17341,1.59749c-2.03393,0 -3.84094,-0.97156 -4.98226,-2.4759c-0.18628,-0.19242 -0.35028,-0.40696 -0.48649,-0.6491z" fill="#386700" stroke="none" stroke-width="0.5" stroke-linecap="butt"/><path d="M252.50002,349.10417v-258.33333h15.33333v258.33333z" data-paper-data="{&quot;index&quot;:null}" fill="#386700" stroke="#254300" stroke-width="2.5" stroke-linecap="butt"/><g data-paper-data="{&quot;index&quot;:null}" fill="#386700" stroke="#254300" stroke-width="2.5" stroke-linecap="butt"><path d="M261.8912,258.64026c1.31588,0 2.38262,2.47885 2.38262,5.53669c0,3.05784 -1.06674,5.5367 -2.38262,5.5367c-1.31588,0 -2.38262,-2.47886 -2.38262,-5.5367c0,-3.05784 1.06674,-5.53669 2.38262,-5.53669z"/><path d="M258.46966,269.33179c0.99825,0 1.80751,1.88051 1.80751,4.20025c0,2.31974 -0.80925,4.20026 -1.80751,4.20026c-0.99826,0 -1.80751,-1.88052 -1.80751,-4.20026c0,-2.31972 0.80925,-4.20025 1.80751,-4.20025z"/><path d="M257.74082,255.96735c0.72162,0 1.30661,1.18843 1.30661,2.65442c0,1.46599 -0.58499,2.65442 -1.30661,2.65442c-0.72162,0 -1.3066,-1.18843 -1.3066,-2.65442c0,-1.46599 0.58498,-2.65442 1.3066,-2.65442z"/></g><g data-paper-data="{&quot;index&quot;:null}" fill="#386700" stroke="#254300" stroke-width="2.5" stroke-linecap="butt"><path d="M263.8861,136.21251c1.31589,0 2.38263,2.47887 2.38263,5.53669c0,3.05783 -1.06675,5.53669 -2.38263,5.53669c-1.31589,0 -2.38262,-2.47887 -2.38262,-5.53669c0,-3.05781 1.06674,-5.53669 2.38262,-5.53669z"/><path d="M260.46457,146.90405c0.99826,0 1.80751,1.88051 1.80751,4.20025c0,2.31972 -0.80925,4.20025 -1.80751,4.20025c-0.99826,0 -1.80751,-1.88051 -1.80751,-4.20025c0,-2.31972 0.80925,-4.20025 1.80751,-4.20025z"/><path d="M258.42913,136.19404c0,-1.46597 0.58497,-2.6544 1.30659,-2.6544c0.72162,0 1.30661,1.18841 1.30661,2.6544c0,1.46599 -0.58499,2.65441 -1.30661,2.65441c-0.72162,0 -1.30659,-1.18843 -1.30659,-2.65442z"/></g><g data-paper-data="{&quot;index&quot;:null}" fill="#386700" stroke="#254300" stroke-width="2.5"><path d="M249.41668,345.1875v-26.33333h20.33334v26.33333z" stroke-linecap="butt"/><path d="M264.58335,320.35417v15.66667" stroke-linecap="round"/><path d="M258.91669,329.35416v-10.33333" stroke-linecap="round"/><path d="M254.25003,334.35417l-0.33334,-14" stroke-linecap="round"/><path d="M249.91668,361.35417v-16.33333h30.33334v16.33333z" stroke-linecap="butt"/></g><path d="M213.33335,349.60417v-254.33333h15.33333v254.33333z" fill="#386700" stroke="#254300" stroke-width="2.5" stroke-linecap="butt"/><g fill="#386700" stroke="#254300" stroke-width="2.5" stroke-linecap="butt"><path d="M221.65812,264.67695c0,3.05784 -1.06674,5.5367 -2.38262,5.5367c-1.31588,0 -2.38262,-2.47886 -2.38262,-5.5367c0,-3.05784 1.06674,-5.53669 2.38262,-5.53669c1.31588,0 2.38262,2.47885 2.38262,5.53669z"/><path d="M224.50454,274.03204c0,2.31974 -0.80925,4.20026 -1.80751,4.20026c-0.99826,0 -1.80751,-1.88052 -1.80751,-4.20026c0,-2.31974 0.80926,-4.20025 1.80751,-4.20025c0.99826,0 1.80751,1.88053 1.80751,4.20025z"/><path d="M224.73247,259.12177c0,1.46599 -0.58498,2.65442 -1.3066,2.65442c-0.72162,0 -1.30661,-1.18843 -1.30661,-2.65442c0,-1.46599 0.58499,-2.65442 1.30661,-2.65442c0.72162,0 1.3066,1.18843 1.3066,2.65442z"/></g><g fill="#386700" stroke="#254300" stroke-width="2.5" stroke-linecap="butt"><path d="M219.66321,142.2492c0,3.05782 -1.06673,5.53669 -2.38262,5.53669c-1.31588,0 -2.38263,-2.47886 -2.38263,-5.53669c0,-3.05782 1.06674,-5.53669 2.38263,-5.53669c1.31588,0 2.38262,2.47888 2.38262,5.53669z"/><path d="M222.50964,151.6043c0,2.31974 -0.80925,4.20025 -1.80751,4.20025c-0.99826,0 -1.80751,-1.88053 -1.80751,-4.20025c0,-2.31974 0.80925,-4.20025 1.80751,-4.20025c0.99826,0 1.80751,1.88053 1.80751,4.20025z"/><path d="M222.73757,136.69403c0,1.46599 -0.58497,2.65442 -1.30659,2.65442c-0.72162,0 -1.30661,-1.18842 -1.30661,-2.65441c0,-1.46599 0.58499,-2.6544 1.30661,-2.6544c0.72162,0 1.30659,1.18843 1.30659,2.6544z"/></g><g fill="#386700" stroke="#254300" stroke-width="2.5"><path d="M211.41668,345.6875v-26.33333h20.33334v26.33333z" stroke-linecap="butt"/><path d="M216.58335,336.52084v-15.66667" stroke-linecap="round"/><path d="M222.25001,319.52083v10.33333" stroke-linecap="round"/><path d="M226.91667,334.85417l0.33334,-14" stroke-linecap="round"/><path d="M200.91668,361.85417v-16.33333h30.33334v16.33333z" stroke-linecap="butt"/></g><path d="M166.04549,225.36075l25.06587,-151.85869l13.20648,3.65872l-25.06588,151.85869z" data-paper-data="{&quot;index&quot;:null}" fill="#ce0000" stroke="#950000" stroke-width="3.5" stroke-linecap="butt"/><g data-paper-data="{&quot;index&quot;:null}" fill="#820000" stroke="none" stroke-width="0" stroke-linecap="butt"><path d="M177.41662,195.03902c0.26457,-1.52402 1.40175,-2.53379 2.53996,-2.25538c1.1382,0.27842 1.8464,1.7396 1.58183,3.26363c-0.26458,1.52403 -1.40174,2.53381 -2.53995,2.25538c-1.1382,-0.27841 -1.84641,-1.73959 -1.58184,-3.26362z"/><path d="M174.1451,199.09938c0.20071,-1.15616 1.0634,-1.92219 1.92686,-1.71098c0.86347,0.21121 1.40073,1.31969 1.20002,2.47584c-0.20071,1.15616 -1.0634,1.92219 -1.92686,1.71098c-0.86346,-0.21121 -1.40073,-1.31969 -1.20002,-2.47584z"/><path d="M176.59789,190.57332c0.62417,0.15269 1.02735,0.86877 0.90051,1.59942c-0.12684,0.73064 -0.73568,1.1992 -1.35985,1.04651c-0.62418,-0.15268 -1.02733,-0.86877 -0.90049,-1.59942c0.12685,-0.73066 0.73566,-1.19918 1.35983,-1.04651z"/></g><g data-paper-data="{&quot;index&quot;:null}" fill="#820000" stroke="none" stroke-width="0" stroke-linecap="butt"><path d="M195.6701,108.74472c1.13932,0.27021 1.85988,1.64071 1.60941,3.06109c-0.25047,1.42037 -1.37712,2.35276 -2.51644,2.08255c-1.13932,-0.27021 -1.85988,-1.6407 -1.6094,-3.06107c0.25047,-1.42038 1.37712,-2.35278 2.51644,-2.08257z"/><path d="M189.92288,114.58827c0.19,-1.07752 1.04471,-1.78486 1.90902,-1.57988c0.86431,0.20499 1.41094,1.24468 1.22093,2.3222c-0.19,1.07753 -1.0447,1.78487 -1.90901,1.57988c-0.86431,-0.20498 -1.41095,-1.24468 -1.22093,-2.3222z"/><path d="M190.94685,107.61557c0.12007,-0.68096 0.72393,-1.11287 1.34871,-0.96468c0.62478,0.14819 1.03393,0.82034 0.91385,1.50129c-0.12009,0.68096 -0.72393,1.11286 -1.34871,0.96469c-0.62478,-0.14818 -1.03394,-0.82033 -0.91385,-1.50129z"/></g><path d="M181.57876,223.57191c2.3461,12.50943 -6.37919,24.27688 -19.4885,26.28335c-9.58506,1.46706 -18.85993,-2.69031 -24.07108,-9.92134c-1.21308,-1.68326 26.93268,-6.20508 32.48976,-10.73234c3.22032,-2.62354 -14.81186,-5.77608 -15.04326,-7.00991c-0.72107,-3.84475 -21.75624,1.02691 -20.57978,-2.41581c2.65129,-7.75865 9.62817,-13.83143 18.70836,-15.2212c13.10931,-2.00647 25.6384,6.50785 27.98451,19.01727z" data-paper-data="{&quot;index&quot;:null}" fill="#ce0000" stroke="#950000" stroke-width="3.5" stroke-linecap="butt"/><path d="M300.99343,225.42417l-25.06588,-151.85869l13.20648,-3.65872l25.06587,151.8587z" data-paper-data="{&quot;index&quot;:null}" fill="#ce0000" stroke="#950000" stroke-width="3.5" stroke-linecap="butt"/><g data-paper-data="{&quot;index&quot;:null}" fill="#820000" stroke="none" stroke-width="0" stroke-linecap="butt"><path d="M302.82882,191.44373c0.26457,1.52403 -0.44365,2.98521 -1.58185,3.26362c-1.13821,0.27842 -2.27537,-0.73135 -2.53995,-2.25538c-0.26457,-1.52403 0.44364,-2.98521 1.58183,-3.26363c1.13821,-0.27841 2.27539,0.73136 2.53996,2.25538z"/><path d="M306.10033,195.50408c0.20071,1.15616 -0.33656,2.26464 -1.20002,2.47585c-0.86346,0.21121 -1.72615,-0.55482 -1.92686,-1.71099c-0.20071,-1.15616 0.33655,-2.26464 1.20002,-2.47585c0.86346,-0.21121 1.72616,0.55482 1.92687,1.71099z"/><path d="M305.00738,188.02454c0.12684,0.73065 -0.27631,1.44675 -0.90049,1.59942c-0.62417,0.15269 -1.233,-0.31587 -1.35984,-1.04651c-0.12684,-0.73065 0.27633,-1.44674 0.9005,-1.59943c0.62417,-0.15268 1.23299,0.31586 1.35983,1.04651z"/></g><g data-paper-data="{&quot;index&quot;:null}" fill="#820000" stroke="none" stroke-width="0" stroke-linecap="butt"><path d="M287.09178,107.23198c0.25047,1.42037 -0.47008,2.79086 -1.60941,3.06107c-1.13933,0.27021 -2.26597,-0.66218 -2.51644,-2.08255c-0.25047,-1.42038 0.47009,-2.79088 1.6094,-3.06108c1.13933,-0.27021 2.26597,0.66218 2.51644,2.08256z"/><path d="M290.32256,110.99298c0.19001,1.07752 -0.35662,2.11722 -1.22093,2.32219c-0.86431,0.20499 -1.71901,-0.50235 -1.90902,-1.57988c-0.19002,-1.07753 0.35662,-2.11722 1.22093,-2.3222c0.86431,-0.20498 1.71902,0.50236 1.90902,1.57988z"/><path d="M289.29859,104.02028c0.12009,0.68096 -0.28907,1.35312 -0.91385,1.50129c-0.62479,0.14817 -1.22862,-0.28372 -1.34871,-0.96469c-0.12009,-0.68096 0.28907,-1.35311 0.91385,-1.50129c0.62478,-0.14818 1.22863,0.28372 1.34871,0.96468z"/></g><path d="M298.66666,219.97663c2.34611,-12.50942 14.8752,-21.02374 27.98451,-19.01727c9.08018,1.38978 16.05707,7.46256 18.70836,15.22121c1.17645,3.44272 -19.85871,-1.42894 -20.57978,2.41581c-0.2314,1.23384 -18.26357,4.38638 -15.04326,7.00991c5.55708,4.52726 33.70283,9.04908 32.48976,10.73234c-5.21115,7.23104 -14.48602,11.38841 -24.07108,9.92134c-13.10932,-2.00647 -21.8346,-13.77393 -19.4885,-26.28335z" fill="#ce0000" stroke="#950000" stroke-width="3.5" stroke-linecap="butt"/><path d="M294.00001,66.5c0,12.29746 -10.10525,23.74123 -24.03839,31.00942c-2.4261,-2.7094 -5.95099,-4.41439 -9.8741,-4.41439c-0.17321,0 -0.34564,0.00332 -0.51724,0.00991c-1.56519,-0.65069 -3.28202,-1.00991 -5.08276,-1.00991c-3.94895,0 -7.49441,1.72752 -9.92189,4.46806c-2.49575,-0.04519 -5.02969,0.65135 -7.28837,1.97482c-0.75955,0.35551 -1.47983,0.78096 -2.15253,1.26808c-1.52306,-0.42226 -3.10995,-0.75326 -4.63042,-0.96832c-0.96603,-0.22415 -1.97257,-0.34264 -3.00679,-0.34264c-0.19543,0 -0.38986,0.00423 -0.58323,0.01261c-2.43031,-2.93951 -6.1048,-4.81261 -10.21677,-4.81261c-3.66616,0 -6.98455,1.48896 -9.38344,3.89514c-12.68984,-7.13012 -21.30407,-18.34994 -21.30407,-30.59017c0,-20.71068 25.6619,-38.5 53,-38.5c27.3381,0 55,17.28932 55,38z" fill="#ce0000" stroke="#950000" stroke-width="3.5" stroke-linecap="butt"/><g data-paper-data="{&quot;index&quot;:null}" fill="#820000" stroke="none" stroke-width="0" stroke-linecap="butt"><path d="M210.60372,82.86062c0,1.83371 -1.40367,3.32024 -3.13519,3.32024c-1.73151,0 -3.13519,-1.48652 -3.13519,-3.32024c0,-1.83371 1.40367,-3.32024 3.13519,-3.32024c1.73152,0 3.13519,1.48652 3.13519,3.32024z"/><path d="M214.34921,88.47069c0,1.3911 -1.06486,2.51881 -2.37842,2.51881c-1.31356,0 -2.37842,-1.12771 -2.37842,-2.51881c0,-1.3911 1.06486,-2.51881 2.37842,-2.51881c1.31356,0 2.37842,1.12771 2.37842,2.51881z"/><path d="M214.64913,79.52929c0,0.87912 -0.76975,1.5918 -1.7193,1.5918c-0.94955,0 -1.7193,-0.71268 -1.7193,-1.5918c0,-0.87912 0.76975,-1.59179 1.7193,-1.59179c0.94955,0 1.7193,0.71267 1.7193,1.59179z"/></g><g data-paper-data="{&quot;index&quot;:null}" fill="#820000" stroke="none" stroke-width="0" stroke-linecap="butt"><path d="M279.46853,62.20705c1.73152,0 3.13519,1.48652 3.13519,3.32024c0,1.83372 -1.40367,3.32024 -3.13519,3.32024c-1.73152,0 -3.1352,-1.48652 -3.1352,-3.32024c0,-1.83372 1.40368,-3.32025 3.1352,-3.32025z"/><path d="M286.34921,71.13736c0,1.39109 -1.06486,2.5188 -2.37842,2.5188c-1.31356,0 -2.37842,-1.1277 -2.37842,-2.5188c0,-1.3911 1.06486,-2.51881 2.37842,-2.51881c1.31356,0 2.37842,1.12771 2.37842,2.51881z"/><path d="M286.64913,62.19596c0,0.87912 -0.76975,1.5918 -1.7193,1.5918c-0.94954,0 -1.7193,-0.71268 -1.7193,-1.5918c0,-0.87912 0.76976,-1.59179 1.7193,-1.59179c0.94955,0 1.7193,0.71267 1.7193,1.59179z"/></g><path d="M230.0527,56.54167c0,8.00813 -6.21265,14.5 -13.87634,14.5c-7.66369,0 -13.87634,-6.49187 -13.87634,-14.5c0,-8.00813 6.21265,-14.5 13.87634,-14.5c7.66369,0 13.87634,6.49187 13.87634,14.5z" fill="#ffffff" stroke="#000000" stroke-width="1.5" stroke-linecap="butt"/><path d="M217.11431,57.8994c0,0 4.89578,2.91553 4.21839,4.02992c-1.17427,1.93182 -3.04928,3.35898 -5.3519,3.35898c-3.63091,0 -6.57434,-3.17279 -6.57434,-7.08663c0,-3.91384 2.94343,-7.08663 6.57434,-7.08663c2.26795,0 4.26767,1.23788 5.4494,3.12102c0.71018,1.1317 -4.3159,3.66334 -4.3159,3.66334z" fill="#000000" stroke="none" stroke-width="0" stroke-linecap="butt"/><path d="M271.45268,56.94166c0,8.00813 -6.21265,14.5 -13.87634,14.5c-7.66369,0 -13.87634,-6.49187 -13.87634,-14.5c0,-8.00813 6.21265,-14.5 13.87634,-14.5c7.6637,0 13.87634,6.49187 13.87634,14.5z" fill="#ffffff" stroke="#000000" stroke-width="1.5" stroke-linecap="butt"/><path d="M258.93691,57.04119c0,0 4.52903,2.69713 3.90239,3.72804c-1.08631,1.78711 -2.82086,3.10736 -4.951,3.10736c-3.35891,0 -6.08185,-2.93512 -6.08185,-6.55577c0,-3.62065 2.72294,-6.55577 6.08185,-6.55577c2.09806,0 3.94798,1.14515 5.04119,2.88722c0.65698,1.04693 -3.9926,3.38892 -3.9926,3.38892z" fill="#000000" stroke="none" stroke-width="0" stroke-linecap="butt"/><path d="M255.3842,41.79133c0,0 9.49991,0.74705 11.70073,2.26511c2.50031,1.72463 1.82575,4.27131 1.82575,4.27131l-23.6549,5.1457c0,0 -0.47427,-3.18678 1.26439,-5.87518c1.29053,-1.99549 8.86403,-5.80693 8.86403,-5.80693z" data-paper-data="{&quot;index&quot;:null}" fill="#4e4e4e" stroke="#000000" stroke-width="1.5" stroke-linecap="butt"/><path d="M219.05602,42.04134c0,0 7.5735,3.81144 8.86403,5.80693c1.73866,2.6884 1.26439,5.87518 1.26439,5.87518l-23.6549,-5.1457c0,0 -0.67456,-2.54668 1.82575,-4.27131c2.20082,-1.51806 11.70073,-2.26511 11.70073,-2.26511z" data-paper-data="{&quot;index&quot;:null}" fill="#4e4e4e" stroke="#000000" stroke-width="1.5" stroke-linecap="butt"/><path d="M195.13127,68.52003c0.29205,0.51918 0.38566,0.91152 0.38494,1.25079c0.01408,0.12279 0.02131,0.24765 0.02131,0.37421c0,0.5162 -0.12034,1.00429 -0.33451,1.43774c0.00689,0.35562 0.09333,0.77874 0.33451,1.32261c0.27703,0.62474 4.08243,0.88581 4.9,1.83965c2.63002,3.06836 1.03125,3.24332 -0.24887,6.20513c-0.58156,1.34555 -0.68467,3.40887 -2.07339,3.87809c-3.76536,1.27223 -9.30988,-2.91571 -6.04673,-6.3232c0.57959,-0.60522 -1.58471,-0.63182 -2.2219,-1.17608c-0.41341,-0.35311 -0.79056,-1.88129 -0.80912,-2.18395c-0.13597,-2.21738 -1.47974,-5.54729 0.4491,-6.64949c0.56534,-0.95791 1.60808,-1.60051 2.8009,-1.60051c1.05764,0 1.99729,0.50521 2.59078,1.28747c0.09686,0.10006 0.18214,0.21162 0.25297,0.33753z" fill="#2f5600" stroke="none" stroke-width="0.5" stroke-linecap="butt"/><path d="M289.54097,73.83814c2.77474,1.38737 1.79885,3.5851 0.92881,5.4096c-1.40816,2.95294 -6.98158,7.44836 -10.5705,6.85026c-3.25884,-0.5431 -4.38955,-4.94556 -1.05563,-6.342c1.65725,-0.69415 -0.03248,-2.01734 1.44297,-2.86045l2.8009,-1.60051c0.33312,0 0.65453,0.05012 0.9571,0.14322c2.22074,-0.05637 2.26461,-3.21598 5.49634,-1.60011z" fill="#2f5600" stroke="none" stroke-width="0.5" stroke-linecap="butt"/><path d="M178.88752,149.49503c0.82248,0.46999 1.95564,0.6314 2.59078,1.28747c0.09686,0.10006 0.18214,0.21162 0.25297,0.33753c0.01635,0.02906 0.03137,0.07436 0.04511,0.13457c0.23079,0.44643 0.36114,0.95321 0.36114,1.49043c0,0.43106 -0.08392,0.84251 -0.23631,1.21892c-0.00137,3.32119 -0.24276,8.40383 -0.4268,9.01846c-0.26869,0.8973 -1.13643,2.69499 -2.12213,2.89213c-4.19517,0.83903 -4.31357,-1.53278 -4.26445,-4.4648c0.01636,-0.97682 -1.28128,-1.66879 -1.15327,-3.25295c0.10535,-1.30377 1.09156,-1.92373 1.40576,-3.04755c0.23391,-0.83665 0.14669,-3.67106 0.7463,-4.0137z" fill="#2f5600" stroke="none" stroke-width="0.5" stroke-linecap="butt"/><path d="M197.13752,140.95447c-0.01348,1.18912 0.60129,3.2934 -0.20625,4.41556c-0.05905,0.08206 -2.74642,1.63041 -2.84375,1.625c-3.95701,-0.21983 -3.2555,-4.73199 -3.25,-7.25944c0.00623,-2.86351 -0.10827,-5.72909 0,-8.59056c0.00206,-0.05444 0.00331,-0.11096 0.00431,-0.16892c0.08788,-1.71641 1.50742,-3.08108 3.24569,-3.08108c1.79493,0 3.25,1.45507 3.25,3.25c0,0.06693 -0.00202,0.13339 -0.00601,0.19933c0.83783,2.41526 -0.14618,5.39169 -0.19399,9.61012z" fill="#2f5600" stroke="none" stroke-width="0.5" stroke-linecap="butt"/><path d="M301.53752,127.47605c0.05476,2.69453 4.88958,10.91898 -1.45,10.91898c-3.4217,0 -5.02431,-7.81718 -5.05,-10.65c-0.02618,-2.88693 -2.05756,-7.21711 0.4491,-8.64949c0.56534,-0.95791 1.60808,-1.60051 2.8009,-1.60051c0.91898,0 1.74887,0.38142 2.34,0.99458c0.56346,0.58446 0.91,1.37947 0.91,2.25542c0,0.18481 -0.01543,0.36601 -0.04506,0.54239c0.18229,2.04064 0.00333,4.13532 0.04506,6.18863z" fill="#2f5600" stroke="none" stroke-width="0.5" stroke-linecap="butt"/><path d="M288.18562,126.84693c2.86362,2.87862 2.43311,6.51047 2.7519,10.26541c0.11656,1.37288 2.74791,4.10353 0.79375,6.05769c-6.26947,6.26947 -7.21459,-6.15506 -7.29375,-9.39278c-0.02511,-1.02718 -3.16688,-4.02812 -2.89704,-5.01751c-0.06721,-0.26035 -0.10296,-0.53335 -0.10296,-0.8147c0,-1.79493 1.45507,-3.25 3.25,-3.25c0.44589,-0.34522 1.17635,0.04278 1.8601,0.5846c0.16975,0.11868 0.32763,0.25316 0.47151,0.40131c0.54688,0.49488 1.00355,1.0022 1.16649,1.16599z" fill="#2f5600" stroke="none" stroke-width="0.5" stroke-linecap="butt"/><path d="M206.01934,92.47685c0.50247,-0.87932 3.82632,-1.94731 5.26818,-1.98182c6.23671,-0.14925 11.91935,1.97002 18.10206,2.2c3.90754,0.14535 7.8249,0.18576 11.73072,0c3.38898,-0.16118 4.86662,-5.41859 8.13948,-6.23322c7.02447,-1.74844 15.0887,0.71681 21.78849,2.77767c3.52698,1.0849 5.86441,0.34495 7.9095,3.92387c1.37407,2.40463 -4.62755,6.51353 -6.27025,6.83168c-3.32007,0.64301 -12.81959,-2.80355 -16.025,-4.40625c-5.69842,-2.84921 -12.21148,5.73562 -17.52156,7.06314c-3.75842,0.93961 -8.25869,0.01627 -12.05344,-0.25689c-3.75843,-0.27054 -6.26308,-4.97553 -10.60944,-5c-0.01575,-0.00009 -3.84018,-0.28769 -4.78454,0.2c-0.23223,0.11993 -0.43762,0.25962 -0.62352,0.41218c-0.25634,1.23839 -1.21732,2.21895 -2.44503,2.50379c-0.61913,0.30539 -1.4535,0.3533 -2.76281,-0.09844c-1.29598,-0.44714 -5.38358,-2.19987 -5.70416,-3.80278c-0.76178,-3.80892 2.28679,-5.79925 5.28244,-3.80215z" fill="#2f5600" stroke="none" stroke-width="0.5" stroke-linecap="butt"/><path d="M225.0182,84.20334c-5.18307,-3.43079 -12.44334,-10.31375 -12.44334,-10.31375l52.43511,0.99999c0,0 -6.78758,5.92958 -10.81067,7.91376c-2.5231,2.48417 -11.65202,4.9448 -14.31857,4.91415c-3.07479,-0.03534 -9.67945,-0.08336 -14.86252,-3.51415z" fill="#ffffff" stroke="#990000" stroke-width="1.5" stroke-linecap="butt"/><path d="M215.21369,74.62553l13.16667,6l9,-3.66666l9.16666,4.83333l15.83334,-6" fill="none" stroke="#000000" stroke-width="1.5" stroke-linecap="round"/></g></g></svg>