<svg version="1.1" xmlns="http://www.w3.org/2000/svg" xmlns:xlink="http://www.w3.org/1999/xlink" width="58" height="50" viewBox="0,0,58,50"><g transform="translate(-211,-155)"><g data-paper-data="{&quot;isPaintingLayer&quot;:true}" fill-rule="nonzero" stroke-linejoin="miter" stroke-miterlimit="10" stroke-dasharray="" stroke-dashoffset="0" style="mix-blend-mode: normal"><path d="M213,203v-46h54v46z" fill="#2e2e2e" stroke="#161616" stroke-width="4" stroke-linecap="butt"/><g stroke-width="1.5" stroke-linecap="butt"><path d="M242.90418,177.02815l9.419,0.34144l-0.40082,11.05709l-9.419,-0.34144z" fill="#2e2e2e" stroke="#161616"/><path d="M252.31917,188.23261c0.56156,0.30641 1.584,1.73069 0.4329,2.36014c-2.41227,1.31909 -8.28165,2.69016 -10.18639,1.37035c-2.81366,-1.94961 -3.96437,-5.14934 -2.83649,-6.77708c1.12787,-1.62774 3.19911,1.36035 6.01277,3.30996c2.81366,1.94961 4.50903,-1.39187 6.57722,-0.26337z" fill="#d4d4d4" stroke="#b5b5b5"/><path d="M247.11884,190.1532c-3.08181,-0.11172 -4.67642,-0.91742 -7.23081,-3.20588c-0.54763,-0.49062 -12.59963,1.89299 -12.60946,-0.40176c-0.00904,-2.11165 -0.03345,-3.75478 0.06164,-5.25473c0.13265,-2.09228 0.41262,-4.00819 0.46971,-5.58321c0.06349,-1.7514 9.9561,0.44134 11.68239,-0.81737c2.68837,-1.9602 4.71263,-4.06172 8.3223,-3.93087c5.39109,0.19543 6.58175,4.64343 6.38962,9.94367c-0.19213,5.30023 -1.6943,9.44559 -7.08539,9.25017z" fill="#d4d4d4" stroke="#b5b5b5"/><path d="M242.79791,180.98913l8.8581,-4.74577l-0.35257,9.72614l-8.57125,-4.98276z" fill="#ffffff" stroke="none"/><path d="M226.38547,175.78863c0,0 0.43248,-0.85203 1.25989,-0.9586c1.72806,-0.22258 4.7561,0.2063 6.19979,0.20114c1.48967,-0.00531 3.95279,-0.16154 3.95279,-0.16154l-0.13636,12.2456c0,0 -0.95512,0.12945 -2.19313,0.34011c-1.22792,0.20894 -2.73254,0.49949 -4.24783,0.40537c-1.51422,-0.09406 -3.53067,-0.11865 -4.1699,-0.21577c-0.80065,-0.12164 -1.25971,-1.11378 -1.25971,-1.11378c0,0 -0.07479,-3.13483 0.0422,-5.33268c0.0652,-1.22494 0.55225,-5.40984 0.55225,-5.40984z" fill="#b1b1b1" stroke="#909090"/></g><path d="M216.13737,160.63542l8.16667,9.83333" fill="none" stroke="#a5a5a5" stroke-width="1" stroke-linecap="round"/><path d="M237.4707,159.96875l0.33333,10.66667" fill="none" stroke="#a5a5a5" stroke-width="1" stroke-linecap="round"/><path d="M261.13737,160.30208l-7.66667,9" fill="none" stroke="#a5a5a5" stroke-width="1" stroke-linecap="round"/></g></g></svg>