<svg version="1.1" xmlns="http://www.w3.org/2000/svg" xmlns:xlink="http://www.w3.org/1999/xlink" width="112.95545" height="119.59359" viewBox="0,0,112.95545,119.59359"><g transform="translate(-182.50231,-105.89391)"><g data-paper-data="{&quot;isPaintingLayer&quot;:true}" fill-rule="nonzero" stroke-linecap="butt" stroke-linejoin="miter" stroke-miterlimit="10" stroke-dasharray="" stroke-dashoffset="0" style="mix-blend-mode: normal"><g><path d="M276.63881,163.2905c1.14684,2.72374 3.57909,5.03674 5.14832,7.50267c4.91469,7.72308 15.24671,24.05069 10.86087,33.30969c-2.23106,4.71001 -5.87857,8.4712 -11.50108,8.66945c-2.82646,0.09966 -4.49191,-0.074 -7.01163,-0.3977c-0.45736,-0.05876 -2.1647,-1.11577 -2.4312,-0.83107c-1.23849,1.32304 -1.76708,3.38925 -3.32055,4.51121c-5.78787,4.18013 -9.68158,3.85691 -16.53995,4.6495c-2.23062,0.25778 -4.14938,1.96144 -6.58869,1.98298c-4.38068,0.03869 -26.93976,4.03243 -33.66546,-3.81422c-5.10578,-5.95675 -8.27423,-12.68148 -7.36558,-20.68782c0.35323,-3.11243 3.32367,-6.63602 3.33798,-9.72839c0.0315,-6.81241 -0.04699,-13.62908 -0.3635,-20.4342c-0.01392,-0.29936 -1.86819,-1.59891 -2.08886,-1.81404c-2.3555,-2.29641 -4.38119,-4.93933 -6.50002,-7.46628c-9.80597,-11.69474 -20.05621,-28.29017 -10.61753,-43.12238c3.04767,-4.78919 13.16585,-5.01564 17.49982,-2.20283c1.31477,0.85331 4.83376,3.71785 6.14045,3.84818c0.11036,0.01101 6.04485,-4.08115 6.91605,-4.55455c4.8105,-2.61395 9.69737,-4.1398 15.20534,-4.47439c5.76838,-0.35041 12.44978,-1.38682 17.97867,0.5471c17.07069,5.97105 24.82545,15.82948 27.01834,33.6425c0.84474,6.86192 0.29444,14.06882 -2.43394,20.43506z" fill="#94603a" stroke="#754b2e" stroke-width="3.5"/><path d="M262.3849,145.07927c0,16.80253 -10.29891,30.42367 -23.00327,30.42367c-12.70435,0 -23.00327,-13.62114 -23.00327,-30.42367c0,-16.80253 10.29891,-26.71347 23.00327,-26.71347c12.70435,0 23.00327,9.91094 23.00327,26.71347z" fill="#cbcb00" stroke="#a38400" stroke-width="2"/><path d="M264.67555,172.57959c0,16.62609 -8.97267,34.06175 -24.9229,34.06175c-15.95023,0 -23.68617,-19.66178 -23.68617,-36.28787c0,-16.62609 8.23063,-17.9842 24.18086,-17.9842c15.95023,0 24.42821,3.58423 24.42821,20.21032z" fill="#5cc600" stroke="#4ca300" stroke-width="2"/><path d="M235.91878,135.06172c0,4.30309 -3.54371,7.79143 -7.9151,7.79143c-4.37139,0 -7.9151,-3.48834 -7.9151,-7.79143c0,-4.30309 3.54371,-7.79143 7.9151,-7.79143c4.37139,0 7.9151,3.48834 7.9151,7.79143z" fill="#000000" stroke="none" stroke-width="0"/><path d="M260.21184,134.79084c0,4.30309 -3.54371,7.79143 -7.9151,7.79143c-4.37139,0 -7.9151,-3.48834 -7.9151,-7.79143c0,-4.30309 3.54371,-7.79143 7.9151,-7.79143c4.37139,0 7.9151,3.48834 7.9151,7.79143z" fill="#000000" stroke="none" stroke-width="0"/><path d="M228.39664,131.58862c0,-1.51878 1.23122,-2.75 2.75,-2.75c1.51878,0 2.75,1.23122 2.75,2.75c0,1.51878 -1.23122,2.75 -2.75,2.75c-1.51878,0 -2.75,-1.23122 -2.75,-2.75z" fill="#ffffff" stroke="none" stroke-width="0.5"/><path d="M231.19777,135.63622c2.80718,2.80718 0.21753,5.87789 -3.02983,5.15625c-2.14974,-0.47772 -4.66602,-0.59489 -5.61081,-2.69117c-0.18142,-0.36694 -0.28337,-0.78017 -0.28337,-1.21722c0,-1.51878 1.23122,-2.75 2.75,-2.75c0.40357,0 0.78684,0.08693 1.1321,0.24309c1.70954,0.30559 4.48304,0.70016 5.04192,1.25904z" fill="#ffffff" stroke="none" stroke-width="0.5"/><path d="M253.21914,131.91958c0,-1.51878 1.23122,-2.75 2.75,-2.75c1.51878,0 2.75,1.23122 2.75,2.75c0,1.51878 -1.23122,2.75 -2.75,2.75c-1.51878,0 -2.75,-1.23122 -2.75,-2.75z" fill="#ffffff" stroke="none" stroke-width="0.5"/><path d="M246.10336,136.22215c0.39768,-0.69595 0.53426,-1.65477 1.0894,-2.1922c0.08466,-0.08196 0.17906,-0.15412 0.2856,-0.21405c2.68391,-1.50973 10.67063,1.58426 9.61031,4.76523c-0.29213,0.87639 -1.23909,1.43482 -2.06536,1.84796c-0.38291,0.19146 -7.14714,-1.10451 -7.56567,-1.83694z" fill="#ffffff" stroke="none" stroke-width="0.5"/><path d="M239.50305,154.4032l-4.54358,-7.95127h9.22915l-4.54358,7.95127z" fill="#ff9f09" stroke="#c57d08" stroke-width="2"/><g data-paper-data="{&quot;index&quot;:null}"><path d="M241.8036,141.80774c1.69055,0 3.06101,1.30817 3.06101,2.92187c0,1.6137 -1.37046,2.92187 -3.06101,2.92187c-1.69055,0 -3.06101,-1.30817 -3.06101,-2.92187c0,-1.6137 1.37046,-2.92187 3.06101,-2.92187z" fill="#00a9ff" stroke="#0081c1" stroke-width="1.5"/><path d="M240.71792,146.78505c-0.58044,0 -1.05099,-0.47054 -1.05099,-1.05099c0,-0.58044 0.47054,-1.05099 1.05099,-1.05099c0.58044,0 1.05099,0.47054 1.05099,1.05099c0,0.58044 -0.47054,1.05099 -1.05099,1.05099z" fill="#003e5d" stroke="none" stroke-width="0.5"/></g><g><path d="M239.13131,144.704c0,1.6137 -1.37046,2.92187 -3.06101,2.92187c-1.69055,0 -3.06101,-1.30817 -3.06101,-2.92187c0,-1.6137 1.37046,-2.92187 3.06101,-2.92187c1.69055,0 3.06101,1.30817 3.06101,2.92187z" fill="#00a9ff" stroke="#0081c1" stroke-width="1.5"/><path d="M236.10499,145.70845c0,-0.58044 0.47054,-1.05099 1.05099,-1.05099c0.58044,0 1.05099,0.47054 1.05099,1.05099c0,0.58044 -0.47054,1.05099 -1.05099,1.05099c-0.58044,0 -1.05099,-0.47054 -1.05099,-1.05099z" fill="#003e5d" stroke="none" stroke-width="0.5"/></g><path d="M222.89058,152.31956c-1.75,0 -1.75,-1.75 -1.75,-1.75l0.04482,-0.17444c-0.14199,-0.61528 -0.28397,-1.23055 -0.42596,-1.84583c0,0 -0.3935,-1.70518 1.31168,-2.09869c1.70518,-0.3935 2.09869,1.31168 2.09869,1.31168c0.14199,0.61528 0.28397,1.23055 0.42596,1.84583l0.04482,0.96145c0,0 0,1.75 -1.75,1.75z" fill="#000000" stroke="none" stroke-width="0.5"/><path d="M228.53034,147.2952c0.28777,0.25824 0.51184,0.66036 0.51184,1.28654c0,1.75 -1.75,1.75 -1.75,1.75l-1.77534,-1.12179c-0.23664,-0.61528 -0.47329,-1.23055 -0.70993,-1.84583c0,0 -0.62821,-1.63335 1.00514,-2.26157c1.63335,-0.62821 2.26157,1.00514 2.26157,1.00514c0.15224,0.39583 0.30449,0.79167 0.45673,1.1875z" fill="#000000" stroke="none" stroke-width="0.5"/><path d="M251.53571,150.97233c-0.64011,-0.96016 -0.22498,-1.70927 0.13205,-2.10817c0,-0.42544 0,-0.85089 0,-1.27633c0,0 0,-1.75 1.75,-1.75c1.75,0 1.75,1.75 1.75,1.75c0,0.70993 0,1.41987 0,2.1298l-1.20524,1.74006c0,0 -1.45609,0.97073 -2.42681,-0.48536z" fill="#000000" stroke="none" stroke-width="0.5"/><path d="M257.67737,152.60353c-1.75,0 -1.75,-1.75 -1.75,-1.75c0,-0.61528 0,-1.51453 0,-2.1298c0,0 0,-1.75 1.75,-1.75c1.75,0 1.75,1.75 1.75,1.75c0,0.61528 0,1.23055 0,1.84583v0.28397c0,0 0,1.75 -1.75,1.75z" fill="#000000" stroke="none" stroke-width="0.5"/><path d="M225.48382,144.28999c0.17413,1.74132 -1.56718,1.91545 -1.56718,1.91545l-1.46932,0.14622l-1.9698,0.1407c-0.04707,0.0038 -0.09466,0.00573 -0.1427,0.00573c-0.9665,0 -1.75,-0.7835 -1.75,-1.75c0,-0.55122 0.25485,-1.04292 0.65316,-1.36369l1.55053,-1.26861c0,0 1.35443,-1.10817 2.46259,0.24626c0.10222,0.12494 0.18349,0.24778 0.2468,0.36784l0.07048,-0.00708c0,0 1.74132,-0.17413 1.91545,1.56718z" fill="#0084ff" stroke="none" stroke-width="0.5"/><path d="M260.66358,145.97964c-0.37963,1.70833 -2.08796,1.3287 -2.08796,1.3287l-1.45165,-0.33211c-0.94133,-0.57218 -2.42018,-0.69164 -2.82399,-1.71654c-0.1195,-0.30329 0.0684,-0.54579 0.35854,-0.76808c-0.47569,-0.19547 -1.00294,-0.62879 -1.00294,-1.58935c0,-1.75 1.75,-1.75 1.75,-1.75h1.98782c0.9665,0 1.75,0.7835 1.75,1.75c0,0.32741 -0.08991,0.63382 -0.2464,0.89589l0.43788,0.09353c0,0 1.70833,0.37963 1.3287,2.08796z" fill="#0084ff" stroke="none" stroke-width="0.5"/><g><path d="M213.43854,139.58366c8.27117,11.48617 12.31957,22.71064 9.04235,25.07056c-3.27721,2.35992 -12.63903,-5.03837 -20.9102,-16.52454c-8.27117,-11.48617 -12.31957,-22.71064 -9.04235,-25.07056c3.27721,-2.35992 12.63903,5.03837 20.9102,16.52454z" fill="#cbcb00" stroke="#a38400" stroke-width="2"/><path d="M204.06935,128.42054c1.74967,0.03397 1.7157,1.78364 1.7157,1.78364l-0.28707,2.30319c-1.26556,1.93577 -1.22071,2.54369 -3.77061,3.27205c-0.37162,0.10615 -0.90095,-0.62132 -1.1193,-0.30242c-0.57063,0.83339 0.21786,2.51387 -0.69329,2.94971c-2.46006,1.17675 -4.25633,-1.80238 -5.3257,-3.07729c0,0 -1.10425,-1.35762 0.25336,-2.46187c1.35762,-1.10425 2.46187,0.25336 2.46187,0.25336c0.19873,0.25497 0.43228,0.48952 0.65089,0.73283c-0.02034,-0.35915 0.03672,-0.69301 0.26219,-0.95304c1.70536,-1.96683 2.8894,0.29395 4.30027,-2.24845l-0.23194,-0.53601c0,0 0.03397,-1.74967 1.78364,-1.7157z" fill="#000000" stroke="none" stroke-width="0.5"/><path d="M211.71368,138.67009c1.7364,-0.21773 1.95413,1.51867 1.95413,1.51867l0.2334,2.05661c-0.77819,2.88566 -2.67706,5.47064 -6.12295,6.0507c-0.57514,0.09681 -0.81763,-1.10622 -1.39831,-1.05172c-0.59734,0.05606 -0.65079,1.21719 -1.24504,1.2998c-3.74278,0.52023 -3.49952,-0.59187 -4.78638,-3.08125c0,0 -0.67711,-1.6137 0.93659,-2.29081c1.6137,-0.67711 2.29081,0.93659 2.29081,0.93659c0.48521,2.51538 0.69821,-0.15557 2.68907,-0.36242c0.61105,-0.0635 0.90389,1.1149 1.51478,1.04984c0.82989,-0.08839 2.598,-1.97651 2.62453,-2.69792l-0.2093,-1.47392c0,0 -0.21773,-1.7364 1.51867,-1.95413z" fill="#000000" stroke="none" stroke-width="0.5"/><path d="M217.36817,148.11988c1.68877,-0.45888 2.14765,1.22989 2.14765,1.22989l0.37309,1.77733c-0.13678,1.08828 0.0664,2.27701 -0.41035,3.26482c-1.64151,3.40112 -6.52294,2.86162 -9.50197,3.34862c0,0 -1.72752,0.27957 -2.00709,-1.44795c-0.27957,-1.72752 1.44795,-2.00709 1.44795,-2.00709c3.19281,-0.51194 6.91957,0.50126 6.98395,-3.45391l-0.26311,-0.56405c0,0 -0.45888,-1.68877 1.22989,-2.14765z" fill="#000000" stroke="none" stroke-width="0.5"/><path d="M221.63324,156.55568c1.73803,-0.20427 1.94231,1.53377 1.94231,1.53377l-0.10315,2.61448c-0.71994,1.09892 -2.38925,3.83485 -3.41304,4.25701c-0.8697,0.35862 -1.85635,-0.30651 -2.78452,-0.45976c0,0 -1.68568,-0.4701 -1.21558,-2.15577c0.4701,-1.68568 2.15577,-1.21558 2.15577,-1.21558c1.25607,0.90413 1.59665,-1.22275 2.32885,-2.34261l-0.44441,-0.28923c0,0 -0.20427,-1.73803 1.53377,-1.94231z" fill="#000000" stroke="none" stroke-width="0.5"/><path d="M198.21688,124.40605c1.69474,0.4363 1.25844,2.13103 1.25844,2.13103l-0.34604,1.28671c-1.55726,3.24205 -3.10274,3.63261 -6.57796,2.96028c0,0 -1.71012,-0.37147 -1.33866,-2.08159c0.37147,-1.71012 2.08159,-1.33866 2.08159,-1.33866c1.5664,0.39975 2.20774,0.87117 2.58467,-0.8382l0.20691,-0.86116c0,0 0.4363,-1.69474 2.13103,-1.25844z" fill="#000000" stroke="none" stroke-width="0.5"/></g><g data-paper-data="{&quot;index&quot;:null}"><path d="M258.99719,157.65811c3.61525,-1.79981 11.65968,7.013 17.96773,19.68394c6.30805,12.67094 8.49099,24.4018 4.87574,26.20161c-3.61526,1.79981 -11.65968,-7.013 -17.96773,-19.68394c-6.30805,-12.67094 -8.49099,-24.4018 -4.87573,-26.2016z" fill="#cbcb00" stroke="#a38400" stroke-width="2"/><path d="M260.71162,169.58928l0.36615,0.45501c2.90694,-0.06347 1.45846,-2.16466 3.99341,-2.75691c0.33515,-0.0783 0.65713,0.0268 0.96541,0.21217c-0.11339,-0.30681 -0.21208,-0.62275 -0.34505,-0.91741c0,0 -0.68657,-1.60969 0.92313,-2.29626c1.6097,-0.68657 2.29627,0.92313 2.29627,0.92313c0.62965,1.54029 2.42839,4.51792 0.24079,6.14612c-0.81025,0.60305 -1.92962,-0.87772 -2.93292,-0.76124c-0.3839,0.04457 0.01306,0.85193 -0.25404,1.13126c-1.83277,1.91664 -2.34974,1.59366 -4.65222,1.81127l-2.17158,-0.81935c0,0 -1.56389,-0.78533 -0.77856,-2.34923c0.78533,-1.56389 2.34923,-0.77856 2.34923,-0.77856z" fill="#000000" stroke="none" stroke-width="0.5"/><path d="M266.30513,181.47487l1.20655,0.87207c0.65065,0.31273 3.14519,-0.37173 3.61014,-1.0648c0.34225,-0.51017 -0.56388,-1.31843 -0.22294,-1.82947c1.11081,-1.66505 3.57326,-0.60878 1.57385,-2.21031c0,0 -1.11221,-1.35112 0.2389,-2.46331c1.35111,-1.1122 2.46331,0.2389 2.46331,0.2389c1.60282,2.29869 2.70015,2.60173 0.49564,5.67079c-0.35002,0.48729 -1.40227,-0.00654 -1.73025,0.49584c-0.31883,0.48837 0.63257,1.26357 0.27889,1.72731c-2.11911,2.77852 -5.29114,3.25391 -8.20694,2.59763l-1.71087,-1.16494c0,0 -1.43484,-1.00185 -0.433,-2.43671c1.00185,-1.43485 2.4367,-0.43299 2.4367,-0.43299z" fill="#000000" stroke="none" stroke-width="0.5"/><path d="M272.06753,191.22733l0.37643,0.49566c3.52942,1.78625 4.36974,-1.98325 6.31063,-4.56958c0,0 1.05243,-1.39818 2.4506,-0.34575c1.39818,1.05243 0.34575,2.4506 0.34575,2.4506c-1.81918,2.4088 -3.61672,6.97918 -7.39092,6.84652c-1.09616,-0.03853 -2.05322,-0.77228 -3.07984,-1.15842l-1.39866,-1.15839c0,0 -1.28032,-1.193 -0.08731,-2.47333c1.19301,-1.28032 2.47333,-0.08731 2.47333,-0.08731z" fill="#000000" stroke="none" stroke-width="0.5"/><path d="M277.5036,198.56767l0.0488,0.52799c1.33204,-0.12595 3.37256,0.5639 3.15799,-0.96878c0,0 0.36964,-1.71052 2.08015,-1.34088c1.71052,0.36964 1.34087,2.08017 1.34087,2.08017c-0.29696,0.89264 -0.16827,2.07556 -0.89087,2.67792c-0.85062,0.70908 -4.04924,0.91103 -5.35704,1.03588l-2.36129,-1.12715c0,0 -1.44257,-0.9907 -0.45187,-2.43327c0.9907,-1.44257 2.43328,-0.45187 2.43328,-0.45187z" fill="#000000" stroke="none" stroke-width="0.5"/><path d="M259.64445,162.01986l0.85835,0.21825c1.68806,0.4631 1.56984,-0.32401 1.94613,-1.89622c0,0 0.4683,-1.68619 2.15448,-1.21788c1.68618,0.46829 1.21788,2.15448 1.21788,2.15448c-1.02469,3.38808 -2.09047,4.57347 -5.68467,4.44042l-1.29971,-0.29348c0,0 -1.70278,-0.40378 -1.29901,-2.10655c0.40378,-1.70278 2.10655,-1.29901 2.10655,-1.29901z" fill="#000000" stroke="none" stroke-width="0.5"/></g><path d="M233.47325,195.62396c0,4.56214 -4.32274,8.26048 -9.65511,8.26048c-5.33237,0 -9.65511,-3.69834 -9.65511,-8.26048c0,-4.56214 4.32274,-8.26048 9.65511,-8.26048c5.33237,0 9.65511,3.69834 9.65511,8.26048z" fill="#ff7474" stroke="#bb5454" stroke-width="1.5"/><path d="M265.87951,209.0824c0,4.56214 -4.32274,8.26048 -9.65511,8.26048c-5.33237,0 -9.65511,-3.69834 -9.65511,-8.26048c0,-4.56214 4.32274,-8.26048 9.65511,-8.26048c5.33237,0 9.65511,3.69834 9.65511,8.26048z" fill="#ff7474" stroke="#bb5454" stroke-width="1.5"/></g></g></g></svg>