<svg version="1.1" xmlns="http://www.w3.org/2000/svg" xmlns:xlink="http://www.w3.org/1999/xlink" width="124.38038" height="156.5682" viewBox="0,0,124.38038,156.5682"><g transform="translate(-180.86277,-139.06815)"><g data-paper-data="{&quot;isPaintingLayer&quot;:true}" fill-rule="nonzero" stroke-linejoin="miter" stroke-miterlimit="10" stroke-dasharray="" stroke-dashoffset="0" style="mix-blend-mode: normal"><g stroke-width="1" stroke-linecap="butt"><path d="M254.88558,287.21343c0,1.97742 -2.47423,3.58044 -5.52634,3.58044c-3.05211,0 -5.52633,-1.60301 -5.52633,-3.58044c0,-1.97742 2.47422,-3.58044 5.52633,-3.58044c3.05211,0 5.52634,1.60302 5.52634,3.58044z" fill="#fff5d4" stroke="#ebecae"/><path d="M245.56521,284.1c0,0 -0.79827,-12.79179 -0.79827,-19.37792c0,-6.98564 0.79827,-21.40799 0.79827,-21.40799h8.09672c0,0 0.91231,13.31142 0.91231,19.93158c0,6.9583 -0.91231,20.85433 -0.91231,20.85433z" fill="#66b8ff" stroke="#4d8bc1"/><path d="M244.14425,285.65671v-3.73612h11.51969v3.73612z" fill="#66b8ff" stroke="#4d8bc1"/></g><g stroke-width="1" stroke-linecap="butt"><path d="M238.3659,287.35058c0,1.97742 -2.47422,3.58044 -5.52633,3.58044c-3.05211,0 -5.52633,-1.60302 -5.52633,-3.58044c0,-1.97742 2.47422,-3.58044 5.52633,-3.58044c3.05211,0 5.52633,1.60302 5.52633,3.58044z" fill="#fff5d4" stroke="#ebecae"/><path d="M229.04553,284.23716c0,0 -0.79827,-12.7918 -0.79827,-19.37792c0,-6.98564 0.79827,-21.40799 0.79827,-21.40799h8.09672c0,0 0.91231,13.31142 0.91231,19.93157c0,6.95829 -0.91231,20.85433 -0.91231,20.85433z" fill="#66b8ff" stroke="#4d8bc1"/><path d="M227.62457,285.79387v-3.73611h11.51968v3.73611z" fill="#66b8ff" stroke="#4d8bc1"/></g><path d="M213.84877,172.11408l-0.10586,0.0437l-0.03573,0.06253l-0.29343,0.07335l-0.27956,0.11542l-0.06591,-0.02905l-0.1111,0.02777h-0.78783l-0.08835,-0.02209l-0.09036,0.0114l-2.18842,-0.26261l-0.04337,-0.01655l-0.04199,0.01566l-0.31261,-0.15092l-0.32435,-0.12372l-0.01744,-0.04128l-0.0418,-0.02018l-0.52522,-0.43768l-0.45613,-0.62418l0.06162,-0.34736l-0.15056,-0.31904l0.10994,-0.28704l-0.08203,-0.14355l-0.07627,-0.27119l-0.10629,-0.26089l-0.08754,-0.61276l0.01111,-0.10739l-0.02618,-0.10474v-1.57566l0.0689,-0.2756l0.03839,-0.28148l0.35014,-0.87536l0.10173,-0.14086l0.06214,-0.16225l0.61275,-0.87536l0.10003,-0.08687l0.06816,-0.1136l0.87536,-0.87537l0.10202,-0.06122l0.07638,-0.09123l0.15568,-0.11322l-0.00343,-0.04457l-0.04057,-0.08566l-0.08054,-0.40268l-0.07888,-0.31552v-0.05891l-0.0615,-0.07175l-0.08754,-0.17507l-0.01739,-0.07827l-0.01183,-0.01972l0.0041,-0.01506l-0.01071,-0.0482l-0.07774,-0.14576l-0.08754,-0.35014v-0.18466l-0.04478,-0.17915v-0.13846l-0.06315,-0.37891l-0.17033,-0.85164l0.0071,-0.14924l-0.03624,-0.14494v-0.87536l0.1875,-0.75l0.35796,-0.20455l0.20454,-0.35795l0.75,-0.1875h0.33981l0.01402,-0.00935l0.04206,0.00935h0.0418l0.33437,0.08359l0.33645,0.07476l0.03739,0.0187l0.0418,0.01045l0.00836,0.01462l0.61276,0.30638l0.04466,0.03827l0.05627,0.01712l0.08141,0.04885h0.74905l0.29203,-0.05841l0.14923,0.00711l0.14494,-0.03624h0.13846l0.81189,-0.13532l0.41357,-0.13786l0.05864,-0.00451l0.0519,-0.02768l0.7003,-0.17507h0.18466l0.17915,-0.04478h0.89282l0.1137,-0.06498l0.00895,-0.00252l0.00679,-0.00635l0.78783,-0.43768l0.06567,-0.01762l0.05358,-0.04187l0.78783,-0.35014l0.02859,-0.00501l0.02353,-0.01699l0.43769,-0.17508l0.28148,-0.03838l0.27561,-0.0689h0.51488l0.01402,-0.00934l0.04205,0.00934h0.0418l0.15535,0.03884l0.5327,-0.03552l0.05025,0.00906l0.04953,-0.01238h0.87536l0.05706,0.01426l0.05799,-0.00984l1.13798,0.08754l0.02475,0.00825l0.02585,-0.0035l0.78783,0.08754l0.20712,0.07693l0.21811,0.03518l0.55541,0.23803l0.46603,0.15534l0.16903,0.10756l0.18868,0.06739l0.26261,0.17508l0.15779,0.17357l0.10156,0.02856l0.1073,0.20118l0.15337,0.16872l-0.00725,0.10525l0.11039,0.20698l0.08754,0.35015v0.18465l0.04478,0.17915v0.11362l0.14711,0.08827l0.10565,0.10564l0.13162,0.07068l0.44588,0.40535l0.17493,-0.5248c0.07675,-0.24957 0.21687,-0.47138 0.40158,-0.64667l0.02441,-0.03835l0.02276,-0.00456c0.26354,-0.22975 0.60813,-0.36889 0.98522,-0.36889c0.72097,0 1.32314,0.50865 1.46722,1.18667l0.0151,0.01686l-0.00341,0.04436c0.01387,0.08196 0.0211,0.16619 0.0211,0.25211c0,0.17815 -0.03105,0.34904 -0.08804,0.50756l-0.25154,0.75461l-0.09591,0.15072l-0.05511,0.16994l-0.87537,1.40059l-0.0163,0.01572l-0.00762,0.02133l-0.18576,0.27864v1.60295l-0.03041,0.12163l0.01,0.12497l-0.07475,0.4485l0.00762,0.01763l-0.01748,0.04151l-0.00293,0.01759l-0.14169,0.32589l-0.11057,0.26262l0.0976,0.39041v0.70029l-0.05848,0.23393l-0.0185,0.24042l-0.05659,0.16976l0.00443,0.01626l-0.02217,0.03695l-0.01322,0.03965l-0.18504,0.29077l-0.17732,0.29555l-0.02955,0.02955l-0.02313,0.03635l-0.01652,0.0033l-0.10587,0.10587l-0.20676,0.12406l-0.18308,0.15692l-0.35014,0.17507l-0.21874,0.04861l-0.20549,0.08934l-0.52522,0.08754l-0.12498,-0.01l-0.12162,0.03041h-1.46649l-0.17367,0.39076l-0.05594,0.22378l-0.04856,0.09104l-0.01394,0.10224l-0.17508,0.43768l-0.11589,0.16047l-0.07682,0.18243l-0.26261,0.35015l-0.08379,0.06808l-0.05555,0.09258l-0.35014,0.35014l-0.20676,0.12406l-0.18308,0.15692l-0.65765,0.32882l-0.00296,0.00295l-0.29554,0.17732l-0.29078,0.18504l-0.03965,0.01322l-0.03694,0.02217l-0.01626,-0.00444l-0.16977,0.05659l-0.11863,0.00913l-0.10911,0.04744l-0.52522,0.08754l-0.0751,-0.00601l-0.07172,0.02309l-1.215,0.08101l-1.2167,0.24334l-0.02481,-0.00118l-0.02277,0.0099l-1.57566,0.26261l-0.07511,-0.00601l-0.07172,0.0231l-1.31305,0.08754l-0.05024,-0.00906l-0.04953,0.01238h-1.05044l-0.75,-0.1875l-0.19741,-0.34547z" fill="#fff5d4" stroke="none" stroke-width="0.5" stroke-linecap="butt"/><path d="M269.32421,180c0,8.32026 4.34382,14.06216 -0.04992,17.11982c-5.47314,3.80882 -19.73407,4.27874 -28.77122,4.27874c-10.0743,0 -23.62973,-0.18673 -28.88568,-5.26466c-3.2439,-3.13402 -1.29175,-9.00311 -1.29175,-16.1339c0,-2.37529 0.20979,-4.51805 0.6095,-6.44902c2.79981,-0.90161 3.2128,-2.90262 5.95751,-4.47102l0.09632,-0.38527c0.95798,-0.30702 1.84353,-0.7013 2.60881,-1.21906c0.88155,-0.59642 1.73189,-1.295 2.52953,-2.07245c1.55354,-0.69308 2.94908,-1.5095 3.40511,-2.10052c0.63216,-0.81929 1.60957,-3.06231 2.24511,-5.2443c3.60658,-0.75124 7.60299,-1.03928 11.82136,-1.03928c16.29201,0 29.72534,4.29638 29.72534,22.98092z" fill="#50351d" stroke="#3d2816" stroke-width="3" stroke-linecap="butt"/><text transform="translate(234.43083,182.74148) rotate(90.48358) scale(0.5,0.5)" font-size="40" xml:space="preserve" fill="#000000" fill-rule="nonzero" stroke="none" stroke-width="1" stroke-linecap="butt" stroke-linejoin="miter" stroke-miterlimit="10" stroke-dasharray="" stroke-dashoffset="0" font-family="Handwriting" font-weight="normal" text-anchor="start" style="mix-blend-mode: normal"><tspan x="0" dy="0">3</tspan></text><path d="M211.3192,160.40342c0,-0.27614 0.22386,-0.5 0.5,-0.5c0.27614,0 0.5,0.22386 0.5,0.5c0,0.27614 -0.22386,0.5 -0.5,0.5c-0.27614,0 -0.5,-0.22386 -0.5,-0.5z" fill="#37b33a" stroke="none" stroke-width="0.5" stroke-linecap="butt"/><path d="M213.85777,163.20459c0,-0.27614 0.22386,-0.5 0.5,-0.5c0.27614,0 0.5,0.22386 0.5,0.5c0,0.27614 -0.22386,0.5 -0.5,0.5c-0.27614,0 -0.5,-0.22386 -0.5,-0.5z" fill="#37b33a" stroke="none" stroke-width="0.5" stroke-linecap="butt"/><path d="M215.6085,158.56515c0,-0.27614 0.22386,-0.5 0.5,-0.5c0.27614,0 0.5,0.22386 0.5,0.5c0,0.27614 -0.22386,0.5 -0.5,0.5c-0.27614,0 -0.5,-0.22386 -0.5,-0.5z" fill="#37b33a" stroke="none" stroke-width="0.5" stroke-linecap="butt"/><path d="M209.91862,165.91823c0,-0.27614 0.22386,-0.5 0.5,-0.5c0.27614,0 0.5,0.22386 0.5,0.5c0,0.27614 -0.22386,0.5 -0.5,0.5c-0.27614,0 -0.5,-0.22386 -0.5,-0.5z" fill="#37b33a" stroke="none" stroke-width="0.5" stroke-linecap="butt"/><path d="M214.90821,160.8411c0,-0.27614 0.22386,-0.5 0.5,-0.5c0.27614,0 0.5,0.22386 0.5,0.5c0,0.27614 -0.22386,0.5 -0.5,0.5c-0.27614,0 -0.5,-0.22386 -0.5,-0.5z" fill="#37b33a" stroke="none" stroke-width="0.5" stroke-linecap="butt"/><path d="M211.49428,168.10664c0,-0.27614 0.22386,-0.5 0.5,-0.5c0.27614,0 0.5,0.22386 0.5,0.5c0,0.27614 -0.22386,0.5 -0.5,0.5c-0.27614,0 -0.5,-0.22386 -0.5,-0.5z" fill="#37b33a" stroke="none" stroke-width="0.5" stroke-linecap="butt"/><path d="M218.14706,157.42717c0,-0.27614 0.22386,-0.5 0.5,-0.5c0.27614,0 0.5,0.22386 0.5,0.5c0,0.27614 -0.22386,0.5 -0.5,0.5c-0.27614,0 -0.5,-0.22386 -0.5,-0.5z" fill="#37b33a" stroke="none" stroke-width="0.5" stroke-linecap="butt"/><path d="M216.74647,163.64228c0,-0.27614 0.22386,-0.5 0.5,-0.5c0.27614,0 0.5,0.22386 0.5,0.5c0,0.27614 -0.22386,0.5 -0.5,0.5c-0.27614,0 -0.5,-0.22386 -0.5,-0.5z" fill="#37b33a" stroke="none" stroke-width="0.5" stroke-linecap="butt"/><path d="M221.03577,158.39008c0,-0.27614 0.22386,-0.5 0.5,-0.5c0.27614,0 0.5,0.22386 0.5,0.5c0,0.27614 -0.22386,0.5 -0.5,0.5c-0.27614,0 -0.5,-0.22386 -0.5,-0.5z" fill="#37b33a" stroke="none" stroke-width="0.5" stroke-linecap="butt"/><path d="M218.2346,159.79066c0,-0.27614 0.22386,-0.5 0.5,-0.5c0.27614,0 0.5,0.22386 0.5,0.5c0,0.27614 -0.22386,0.5 -0.5,0.5c-0.27614,0 -0.5,-0.22386 -0.5,-0.5z" fill="#37b33a" stroke="none" stroke-width="0.5" stroke-linecap="butt"/><path d="M254.77389,151.12453c0,-0.13807 0.11193,-0.25 0.25,-0.25c0.13807,0 0.25,0.11193 0.25,0.25c0,0.13807 -0.11193,0.25 -0.25,0.25c-0.13807,0 -0.25,-0.11193 -0.25,-0.25z" fill="#fd96ff" stroke="none" stroke-width="0.5" stroke-linecap="butt"/><path d="M257.75014,149.54887c0,-0.13807 0.11193,-0.25 0.25,-0.25c0.13807,0 0.25,0.11193 0.25,0.25c0,0.13807 -0.11193,0.25 -0.25,0.25c-0.13807,0 -0.25,-0.11193 -0.25,-0.25z" fill="#fd96ff" stroke="none" stroke-width="0.5" stroke-linecap="butt"/><path d="M257.22492,153.22541c0,-0.13807 0.11193,-0.25 0.25,-0.25c0.13807,0 0.25,0.11193 0.25,0.25c0,0.13807 -0.11193,0.25 -0.25,0.25c-0.13807,0 -0.25,-0.11193 -0.25,-0.25z" fill="#fd96ff" stroke="none" stroke-width="0.5" stroke-linecap="butt"/><path d="M258.97565,152.52512c0,-0.13807 0.11193,-0.25 0.25,-0.25c0.13807,0 0.25,0.11193 0.25,0.25c0,0.13807 -0.11193,0.25 -0.25,0.25c-0.13807,0 -0.25,-0.11193 -0.25,-0.25z" fill="#fd96ff" stroke="none" stroke-width="0.5" stroke-linecap="butt"/><path d="M254.59882,154.88861c0,-0.13807 0.11193,-0.25 0.25,-0.25c0.13807,0 0.25,0.11193 0.25,0.25c0,0.13807 -0.11193,0.25 -0.25,0.25c-0.13807,0 -0.25,-0.11193 -0.25,-0.25z" fill="#fd96ff" stroke="none" stroke-width="0.5" stroke-linecap="butt"/><path d="M258.27536,155.76398c0,-0.13807 0.11193,-0.25 0.25,-0.25c0.13807,0 0.25,0.11193 0.25,0.25c0,0.13807 -0.11193,0.25 -0.25,0.25c-0.13807,0 -0.25,-0.11193 -0.25,-0.25z" fill="#fd96ff" stroke="none" stroke-width="0.5" stroke-linecap="butt"/><path d="M252.23533,158.30254c0,-0.13807 0.11193,-0.25 0.25,-0.25c0.13807,0 0.25,0.11193 0.25,0.25c0,0.13807 -0.11193,0.25 -0.25,0.25c-0.13807,0 -0.25,-0.11193 -0.25,-0.25z" fill="#fd96ff" stroke="none" stroke-width="0.5" stroke-linecap="butt"/><path d="M258.01275,159.8782c0,-0.13807 0.11193,-0.25 0.25,-0.25c0.13807,0 0.25,0.11193 0.25,0.25c0,0.13807 -0.11193,0.25 -0.25,0.25c-0.13807,0 -0.25,-0.11193 -0.25,-0.25z" fill="#fd96ff" stroke="none" stroke-width="0.5" stroke-linecap="butt"/><path d="M255.47418,157.86485c0,-0.13807 0.11193,-0.25 0.25,-0.25c0.13807,0 0.25,0.11193 0.25,0.25c0,0.13807 -0.11193,0.25 -0.25,0.25c-0.13807,0 -0.25,-0.11193 -0.25,-0.25z" fill="#fd96ff" stroke="none" stroke-width="0.5" stroke-linecap="butt"/><path d="M225.32676,193.38156c0,2.06604 -1.69986,3.7409 -3.79674,3.7409c-2.09688,0 -3.79674,-1.67486 -3.79674,-3.7409c0,-2.06604 1.69986,-3.7409 3.79674,-3.7409c2.09688,0 3.79674,1.67486 3.79674,3.7409z" fill="#fca8ff" stroke="none" stroke-width="0" stroke-linecap="butt"/><path d="M260.55131,156.81441c0,-0.13807 0.11193,-0.25 0.25,-0.25c0.13807,0 0.25,0.11193 0.25,0.25c0,0.13807 -0.11193,0.25 -0.25,0.25c-0.13807,0 -0.25,-0.11193 -0.25,-0.25z" fill="#fd96ff" stroke="none" stroke-width="0.5" stroke-linecap="butt"/><path d="M260.81392,159.44051c0,-0.13807 0.11193,-0.25 0.25,-0.25c0.13807,0 0.25,0.11193 0.25,0.25c0,0.13807 -0.11193,0.25 -0.25,0.25c-0.13807,0 -0.25,-0.11193 -0.25,-0.25z" fill="#fd96ff" stroke="none" stroke-width="0.5" stroke-linecap="butt"/><path d="M265.51649,193.39197c0,2.06605 -1.69986,3.7409 -3.79674,3.7409c-2.09688,0 -3.79674,-1.67486 -3.79674,-3.7409c0,-2.06605 1.69986,-3.7409 3.79674,-3.7409c2.09688,0 3.79674,1.67486 3.79674,3.7409z" fill="#fca8ff" stroke="none" stroke-width="0" stroke-linecap="butt"/><path d="M226.13679,243.82584v-40.17932h31.07551v40.17932z" fill="#ff83e4" stroke="#cc68b6" stroke-width="3" stroke-linecap="butt"/><path d="M242.156,242.42525l-0.17507,-37.29061" fill="none" stroke="#cc68b6" stroke-width="3" stroke-linecap="round"/><path d="M243.38152,237.26777c0,0.97087 -0.68585,1.75791 -1.53189,1.75791c-0.84604,0 -1.53189,-0.78704 -1.53189,-1.75791c0,-0.97087 0.68585,-1.75791 1.53189,-1.75791c0.84604,0 1.53189,0.78704 1.53189,1.75791z" fill="#ff83e4" stroke="#cc68b6" stroke-width="3" stroke-linecap="butt"/><path d="M243.74207,226.33609c0,0.97087 -0.68585,1.75791 -1.53189,1.75791c-0.84604,0 -1.53189,-0.78705 -1.53189,-1.75791c0,-0.97087 0.68585,-1.75791 1.53189,-1.75791c0.84604,0 1.53189,0.78705 1.53189,1.75791z" fill="#ff83e4" stroke="#cc68b6" stroke-width="3" stroke-linecap="butt"/><path d="M243.66495,214.70413c0,0.92252 -0.68585,1.67037 -1.53189,1.67037c-0.84604,0 -1.53189,-0.74786 -1.53189,-1.67037c0,-0.92252 0.68585,-1.67037 1.53189,-1.67037c0.84604,0 1.53189,0.74786 1.53189,1.67037z" fill="#ff83e4" stroke="#cc68b6" stroke-width="3" stroke-linecap="butt"/><g fill="#3c3c3c" stroke="#2c2c2c" stroke-width="1.5" stroke-linecap="butt"><path d="M244.76,206.10001l-0.05138,-2.79336l3.81222,-2.83229l1.3888,7.10373z" data-paper-data="{&quot;index&quot;:null}"/><path d="M235.23035,207.23639l1.60342,-6.43935l3.42398,2.77405l-0.17006,2.55552z"/><path d="M244.73216,202.49369c0.98501,1.27719 0.73223,3.12336 -0.56461,4.12352c-1.29684,1.00017 -3.14665,0.7756 -4.13166,-0.50159c-0.98501,-1.27719 -0.73223,-3.12336 0.56461,-4.12352c1.29684,-1.00017 3.14665,-0.7756 4.13166,0.50159z"/></g><path d="M220.53555,172.83554l7.13921,6.1963l-8.21683,4.31047" fill="none" stroke="#000000" stroke-width="3" stroke-linecap="round"/><path d="M263.28067,183.91735l-8.21683,-4.31047l7.13921,-6.1963" data-paper-data="{&quot;index&quot;:null}" fill="none" stroke="#000000" stroke-width="3" stroke-linecap="round"/><path d="M225.84972,154.39565c5.27381,1.31846 4.59434,5.85723 2.5086,10.06214c-2.67736,5.39762 -8.60293,15.97191 -16.02974,14.11521c-4.78076,-1.19519 -4.13103,-11.20323 -4.66063,-14.7198c-0.33539,-2.22696 -2.5491,-3.40709 -2.14122,-6.24511c0.25642,-1.78412 2.77041,-5.37572 4.33816,-6.80095c1.91372,-1.73974 3.60593,0.52756 5.09229,0.54612c2.29009,0.0286 3.44165,-1.11669 5.80358,0.30047c0.56384,0.3383 1.6423,2.96784 1.69815,2.97853c0.97687,0.18706 2.09567,-0.52445 3.24703,-0.23662z" fill="#492f17" stroke="none" stroke-width="0.5" stroke-linecap="butt"/><path d="M256.29989,288.06156c0,3.6132 -2.76814,6.54228 -6.18281,6.54228c-3.41467,0 -6.18281,-2.92908 -6.18281,-6.54228c0,-3.6132 2.76814,-6.54227 6.18281,-6.54227c3.41467,0 6.18281,2.92907 6.18281,6.54227z" fill="#906e40" stroke="#664e2d" stroke-width="2" stroke-linecap="butt"/><path d="M239.79699,288.09407c0,3.6132 -2.76814,6.54228 -6.18281,6.54228c-3.41467,0 -6.18281,-2.92908 -6.18281,-6.54228c0,-3.6132 2.76814,-6.54227 6.18281,-6.54227c3.41467,0 6.18281,2.92907 6.18281,6.54227z" fill="#906e40" stroke="#664e2d" stroke-width="2" stroke-linecap="butt"/><path d="M245.5652,284.10001c0,0 -0.79827,-12.79179 -0.79827,-19.37792c0,-6.98564 0.79827,-21.40799 0.79827,-21.40799h8.09672c0,0 0.91231,13.31142 0.91231,19.93158c0,6.9583 -0.91231,20.85433 -0.91231,20.85433z" fill="#fca8ff" stroke="#ff77f4" stroke-width="1" stroke-linecap="butt"/><path d="M244.14424,285.65672v-3.73612h11.51969v3.73612z" fill="#fca8ff" stroke="#ff77f4" stroke-width="1" stroke-linecap="butt"/><path d="M229.04552,284.23717c0,0 -0.79827,-12.7918 -0.79827,-19.37792c0,-6.98564 0.79827,-21.40799 0.79827,-21.40799h8.09672c0,0 0.91231,13.31142 0.91231,19.93157c0,6.95829 -0.91231,20.85433 -0.91231,20.85433z" fill="#fca8ff" stroke="#ff77f4" stroke-width="1" stroke-linecap="butt"/><path d="M227.62456,285.79388v-3.73611h11.51968v3.73611z" fill="#fca8ff" stroke="#ff77f4" stroke-width="1" stroke-linecap="butt"/><path d="M269.32421,180.00001c0,8.32026 4.34382,14.06216 -0.04992,17.11982c-5.47314,3.80882 -19.73407,4.27874 -28.77122,4.27874c-10.0743,0 -23.62973,-0.18673 -28.88568,-5.26466c-3.2439,-3.13402 -1.29175,-9.00311 -1.29175,-16.1339c0,-2.37529 0.20979,-4.51805 0.6095,-6.44902c2.79981,-0.90161 3.2128,-2.90262 5.95751,-4.47102l0.09632,-0.38527c0.95798,-0.30702 1.84353,-0.7013 2.60881,-1.21906c0.88155,-0.59642 1.73189,-1.295 2.52953,-2.07245c1.55354,-0.69308 2.94908,-1.5095 3.40511,-2.10052c0.63216,-0.81929 1.60957,-3.06231 2.24511,-5.2443c3.60658,-0.75124 7.60299,-1.03928 11.82136,-1.03928c16.29201,0 29.72534,4.29638 29.72534,22.98092z" fill="#ffe6d1" stroke="#bfa895" stroke-width="3" stroke-linecap="butt"/><path d="M235.29443,178.22155c0,5.59809 -4.60489,10.13625 -10.2853,10.13625c-5.68042,0 -10.28531,-4.53815 -10.28531,-10.13625c0,-5.59809 4.60489,-10.13624 10.28531,-10.13624c5.68042,0 10.2853,4.53815 10.2853,10.13624z" fill="#ffffff" stroke="#000000" stroke-width="1.5" stroke-linecap="butt"/><path d="M232.43369,176.27814c0,4.14074 -3.44997,7.49748 -7.70574,7.49748c-4.25576,0 -7.70574,-3.35674 -7.70574,-7.49748c0,-4.14074 3.44997,-7.49747 7.70574,-7.49747c4.25576,0 7.70574,3.35673 7.70574,7.49747z" fill="#000000" stroke="none" stroke-width="0" stroke-linecap="butt"/><path d="M225.84959,171.09297c0.59359,-0.30477 1.17631,-0.55629 1.63561,-0.20364c2.8471,2.186 -1.04908,6.76951 -3.36465,6.25432c-0.84405,-0.18779 -0.90591,-1.47314 -1.36338,-2.2069c-0.90145,-1.44589 -2.62691,-3.08364 0.417,-4.70194c0.81631,-0.434 1.7623,0.55967 2.64345,0.8395c0,0 0.01157,0.00625 0.03197,0.01866z" fill="#ffffff" stroke="none" stroke-width="0.5" stroke-linecap="butt"/><path d="M265.54967,178.4464c0,5.59809 -4.60489,10.13625 -10.2853,10.13625c-5.68042,0 -10.2853,-4.53815 -10.2853,-10.13625c0,-5.59809 4.60489,-10.13624 10.2853,-10.13624c5.68041,0 10.2853,4.53815 10.2853,10.13624z" fill="#ffffff" stroke="#000000" stroke-width="1.5" stroke-linecap="butt"/><path d="M262.97464,176.36014c0,4.14074 -3.44998,7.49748 -7.70574,7.49748c-4.25576,0 -7.70574,-3.35674 -7.70574,-7.49748c0,-4.14074 3.44997,-7.49747 7.70574,-7.49747c4.25576,0 7.70574,3.35673 7.70574,7.49747z" fill="#000000" stroke="none" stroke-width="0" stroke-linecap="butt"/><path d="M254.95598,171.4957c0.47993,-0.46358 0.96486,-0.87304 1.50659,-0.66848c3.35808,1.26805 0.95585,6.7833 -1.4097,6.96061c-0.86227,0.06463 -1.29364,-1.14775 -1.94396,-1.71763c-1.28147,-1.12296 -3.4072,-2.19098 -0.96222,-4.62128c0.65569,-0.65176 1.84886,0.02544 2.77329,0.03817c0,0 0.01289,0.00263 0.03602,0.00861z" fill="#ffffff" stroke="none" stroke-width="0.5" stroke-linecap="butt"/><text transform="translate(233.65181,184.68294) rotate(90.48358) scale(0.5,0.5)" font-size="40" xml:space="preserve" fill="#000000" fill-rule="nonzero" stroke="none" stroke-width="1" stroke-linecap="butt" stroke-linejoin="miter" stroke-miterlimit="10" stroke-dasharray="" stroke-dashoffset="0" font-family="Handwriting" font-weight="normal" text-anchor="start" style="mix-blend-mode: normal"><tspan x="0" dy="0">3</tspan></text><path d="M225.32675,193.38157c0,2.06604 -1.69986,3.7409 -3.79674,3.7409c-2.09688,0 -3.79674,-1.67486 -3.79674,-3.7409c0,-2.06604 1.69986,-3.7409 3.79674,-3.7409c2.09688,0 3.79674,1.67486 3.79674,3.7409z" fill="#fca8ff" stroke="none" stroke-width="0" stroke-linecap="butt"/><path d="M265.51648,193.39198c0,2.06605 -1.69986,3.7409 -3.79674,3.7409c-2.09688,0 -3.79674,-1.67486 -3.79674,-3.7409c0,-2.06605 1.69986,-3.7409 3.79674,-3.7409c2.09688,0 3.79674,1.67486 3.79674,3.7409z" fill="#fca8ff" stroke="none" stroke-width="0" stroke-linecap="butt"/><path d="M226.13678,243.82585v-40.17932h31.07551v40.17932z" fill="#82dcff" stroke="#68b0cc" stroke-width="3" stroke-linecap="butt"/><path d="M241.98092,205.13465l0.17507,37.29061" fill="none" stroke="#68b0cc" stroke-width="3" stroke-linecap="round"/><path d="M243.38151,237.26778c0,0.97087 -0.68585,1.75791 -1.53189,1.75791c-0.84604,0 -1.53189,-0.78704 -1.53189,-1.75791c0,-0.97087 0.68585,-1.75791 1.53189,-1.75791c0.84604,0 1.53189,0.78704 1.53189,1.75791z" fill="#ff83e4" stroke="#68b0cc" stroke-width="3" stroke-linecap="butt"/><path d="M243.74206,226.3361c0,0.97087 -0.68585,1.75791 -1.53189,1.75791c-0.84604,0 -1.53189,-0.78705 -1.53189,-1.75791c0,-0.97087 0.68585,-1.75791 1.53189,-1.75791c0.84604,0 1.53189,0.78705 1.53189,1.75791z" fill="#ff83e4" stroke="#68b0cc" stroke-width="3" stroke-linecap="butt"/><path d="M243.66494,214.70414c0,0.92252 -0.68585,1.67037 -1.53189,1.67037c-0.84604,0 -1.53189,-0.74786 -1.53189,-1.67037c0,-0.92252 0.68585,-1.67037 1.53189,-1.67037c0.84604,0 1.53189,0.74786 1.53189,1.67037z" fill="#ff83e4" stroke="#68b0cc" stroke-width="3" stroke-linecap="butt"/><g fill="#3c3c3c" stroke="#2c2c2c" stroke-width="1.5" stroke-linecap="butt"><path d="M244.75999,206.10002l-0.05138,-2.79336l3.81222,-2.83229l1.3888,7.10373z" data-paper-data="{&quot;index&quot;:null}"/><path d="M235.23034,207.2364l1.60342,-6.43935l3.42398,2.77405l-0.17006,2.55552z"/><path d="M244.73215,202.4937c0.98501,1.27719 0.73223,3.12336 -0.56461,4.12352c-1.29684,1.00017 -3.14665,0.7756 -4.13166,-0.50159c-0.98501,-1.27719 -0.73223,-3.12336 0.56461,-4.12352c1.29684,-1.00017 3.14665,-0.7756 4.13166,0.50159z"/></g><path d="M195.73648,175.85853l20.08814,20.75886l-5.03245,4.86985l-20.08814,-20.75886z" data-paper-data="{&quot;index&quot;:null}" fill="#ffe6d1" stroke="#bfa895" stroke-width="2" stroke-linecap="butt"/><path d="M214.99421,195.71515l14.10493,11.23494l-1.74872,2.75495l-7.02533,0.44027l-10.29387,-8.19934z" data-paper-data="{&quot;index&quot;:null}" fill="#82dcff" stroke="#68b0cc" stroke-width="3" stroke-linecap="butt"/><g data-paper-data="{&quot;index&quot;:null}" fill="#906e40" stroke="#664e2d" stroke-width="2" stroke-linecap="butt"><path d="M194.95529,174.42187l6.87867,7.10834l-5.40989,5.23509l-6.87867,-7.10834z"/><path d="M193.97666,170.85283c2.48331,2.007 2.89968,5.56569 0.92999,7.94855c-1.96969,2.38287 -5.57956,2.68758 -8.06288,0.68058c-2.48331,-2.00699 -3.63195,-4.81178 -4.981,-7.4471c-0.82578,-1.61311 1.55622,-4.5813 3.19701,-4.6113c0.7269,-0.01329 3.27432,3.0696 3.71637,2.78925c0.2651,-0.16812 -1.80019,-4.73409 -1.55168,-4.72434c1.22958,0.0482 5.7142,4.52548 6.75219,5.36437z"/><path d="M202.04707,179.86224l2.31318,2.39041l-7.48577,7.24391l-2.31318,-2.39041z"/></g><path d="M294.93974,180.27449l-20.72997,20.11796l-4.87708,-5.02545l20.72997,-20.11796z" data-paper-data="{&quot;index&quot;:null}" fill="#ffe6d1" stroke="#bfa895" stroke-width="2" stroke-linecap="butt"/><path d="M274.95595,200.87483l-10.54622,7.87212l-7.00805,-0.66061l-1.66136,-2.80849l14.45069,-10.78657z" data-paper-data="{&quot;index&quot;:null}" fill="#82dcff" stroke="#68b0cc" stroke-width="3" stroke-linecap="butt"/><g data-paper-data="{&quot;index&quot;:null}" fill="#906e40" stroke="#664e2d" stroke-width="2" stroke-linecap="butt"><path d="M296.13143,179.23997l-7.09844,6.88888l-5.24286,-5.40235l7.09844,-6.88888z"/><path d="M290.7997,178.2165c-1.89392,-2.44354 -1.36603,-5.9874 1.17908,-7.91544c1.06381,-0.80589 5.68679,-5.14017 6.91727,-5.14974c0.2487,-0.00192 -1.95893,4.49695 -1.69924,4.6733c0.43305,0.29409 3.07599,-2.70731 3.80211,-2.6712c1.63904,0.0815 3.92667,3.12301 3.05066,4.7094c-1.43113,2.59167 -2.66726,5.35901 -5.21235,7.28706c-2.5451,1.92804 -6.14363,1.51015 -8.03754,-0.93339z"/><path d="M290.88415,186.52801l-2.38709,2.31661l-7.25466,-7.47535l2.38709,-2.31661z"/></g><path d="M268.82291,162.19963c0.15339,1.99411 -1.84071,2.1475 -1.84071,2.1475l-0.60841,-0.43611c-2.53994,2.53886 -5.88114,6.43198 -10.12525,4.08604c-2.65112,-1.46542 -2.29942,-3.16367 -2.34749,-5.50026c-0.02136,-1.03832 -0.06161,-2.08054 -0.20855,-3.10863c-0.03123,-0.21851 0.15884,-0.67622 -0.06125,-0.65937c-0.87546,0.06705 -0.77759,1.5748 -1.18993,2.34998c-1.95074,3.11239 -5.17418,7.25546 -9.49351,4.28927c-3.02555,-2.07772 -2.11598,-2.94607 -1.98313,-5.73563c0.02982,-0.62615 -0.02738,-1.25413 -0.00439,-1.88056c0.01627,-0.44327 0.07408,-0.88412 0.12203,-1.32509c0.0207,-0.19042 0.15933,-0.74451 0.08388,-0.56846c-1.31671,3.0722 -3.37401,7.74397 -7.48571,7.76471c-1.32954,0.00671 -2.96051,0.00921 -3.87165,-0.95906c-2.0493,-2.1778 0.23496,-6.62383 1.42231,-8.46587c0,0 1.1094,-1.6641 2.7735,-0.5547c1.6641,1.1094 0.5547,2.7735 0.5547,2.7735c-0.693,0.99036 -1.54851,2.47056 -1.74098,3.61217c-0.03244,0.19242 0.26787,-0.29572 0.44194,-0.38391c0.7815,-0.39594 1.72223,-0.68007 2.22656,-1.39641c0.97997,-1.39194 1.19014,-3.11425 2.54996,-4.29457c1.03581,-0.89907 2.20016,-2.29158 3.55425,-2.07323c5.13614,0.82823 2.97362,6.6088 3.01672,9.5353c0.00975,0.66188 2.21994,0.86182 2.52854,0.71108c1.08493,-0.52995 1.23335,-2.0764 1.87182,-3.10123c2.18947,-3.65392 4.99366,-6.24805 8.23871,-1.47269c0.75232,1.10711 0.68712,3.64526 0.65417,4.94339c-0.00007,0.00252 -0.39234,1.77902 0.24066,1.97664c2.41651,0.7544 4.03553,-2.02216 5.40366,-3.39085l3.13004,-0.72368c0,0 1.99411,-0.1534 2.1475,1.84071z" fill="#5b3e23" stroke="none" stroke-width="0.5" stroke-linecap="butt"/><path d="M207.73916,155.01992c0,-0.55228 0.44772,-1 1,-1c0.55228,0 1,0.44772 1,1c0,0.55228 -0.44772,1 -1,1c-0.55228,0 -1,-0.44772 -1,-1z" fill="#42ce61" stroke="none" stroke-width="0.5" stroke-linecap="butt"/><path d="M212.77168,155.16371c0,-0.55228 0.44772,-1 1,-1c0.55228,0 1,0.44772 1,1c0,0.55228 -0.44772,1 -1,1c-0.55228,0 -1,-0.44772 -1,-1z" fill="#42ce61" stroke="none" stroke-width="0.5" stroke-linecap="butt"/><path d="M208.17052,160.62758c0,-0.55228 0.44772,-1 1,-1c0.55228,0 1,0.44772 1,1c0,0.55228 -0.44772,1 -1,1c-0.55228,0 -1,-0.44772 -1,-1z" fill="#42ce61" stroke="none" stroke-width="0.5" stroke-linecap="butt"/><path d="M210.03974,151.28148c0,-0.55228 0.44772,-1 1,-1c0.55228,0 1,0.44772 1,1c0,0.55228 -0.44772,1 -1,1c-0.55228,0 -1,-0.44772 -1,-1z" fill="#42ce61" stroke="none" stroke-width="0.5" stroke-linecap="butt"/><path d="M211.33381,163.93467c0,-0.55228 0.44772,-1 1,-1c0.55228,0 1,0.44772 1,1c0,0.55228 -0.44772,1 -1,1c-0.55228,0 -1,-0.44772 -1,-1z" fill="#42ce61" stroke="none" stroke-width="0.5" stroke-linecap="butt"/><path d="M211.4776,158.75836c0,-0.55228 0.44772,-1 1,-1c0.55228,0 1,0.44772 1,1c0,0.55228 -0.44772,1 -1,1c-0.55228,0 -1,-0.44772 -1,-1z" fill="#42ce61" stroke="none" stroke-width="0.5" stroke-linecap="butt"/><path d="M215.6474,158.18321c0,-0.55228 0.44772,-1 1,-1c0.55228,0 1,0.44772 1,1c0,0.55228 -0.44772,1 -1,1c-0.55228,0 -1,-0.44772 -1,-1z" fill="#42ce61" stroke="none" stroke-width="0.5" stroke-linecap="butt"/><path d="M216.22255,153.43827c0,-0.55228 0.44772,-1 1,-1c0.55228,0 1,0.44772 1,1c0,0.55228 -0.44772,1 -1,1c-0.55228,0 -1,-0.44772 -1,-1z" fill="#42ce61" stroke="none" stroke-width="0.5" stroke-linecap="butt"/><path d="M210.18352,166.52282c0,-0.55228 0.44772,-1 1,-1c0.55228,0 1,0.44772 1,1c0,0.55228 -0.44772,1 -1,1c-0.55228,0 -1,-0.44772 -1,-1z" fill="#42ce61" stroke="none" stroke-width="0.5" stroke-linecap="butt"/><path d="M217.08526,162.49681c0,-0.55228 0.44772,-1 1,-1c0.55228,0 1,0.44772 1,1c0,0.55228 -0.44772,1 -1,1c-0.55228,0 -1,-0.44772 -1,-1z" fill="#42ce61" stroke="none" stroke-width="0.5" stroke-linecap="butt"/><path d="M221.39885,157.17672c0,-0.55228 0.44772,-1 1,-1c0.55228,0 1,0.44772 1,1c0,0.55228 -0.44772,1 -1,1c-0.55228,0 -1,-0.44772 -1,-1z" fill="#42ce61" stroke="none" stroke-width="0.5" stroke-linecap="butt"/><path d="M214.35332,166.52282c0,-0.55228 0.44772,-1 1,-1c0.55228,0 1,0.44772 1,1c0,0.55228 -0.44772,1 -1,1c-0.55228,0 -1,-0.44772 -1,-1z" fill="#42ce61" stroke="none" stroke-width="0.5" stroke-linecap="butt"/><path d="M253.77038,146.85024c2.19893,-1.5345 3.59715,-0.5103 5.95762,-1.53769c0.48021,-0.20901 0.44762,-2.53565 0.9731,-3.14872c2.5015,-2.91842 6.58974,-3.80763 10.19056,-2.52163c4.42988,1.5821 3.18259,8.19038 3.75204,11.58848c0.22191,1.32424 1.4131,2.45392 1.35003,3.79515c-0.0486,1.03344 -1.17967,1.59858 -1.50267,2.28142c-0.07459,0.15768 0.23929,0.25529 0.34055,0.39731c1.31928,1.85022 0.78445,4.4572 0.18558,6.41073c-2.28695,7.46013 -15.84779,-1.47888 -18.63402,-2.93561c-1.23838,-0.64746 -5.27308,-2.03091 -5.23862,-3.65059c-0.40638,-0.74547 -0.6373,-1.60036 -0.6373,-2.50918c0,-1.054 0.3106,-2.03545 0.84526,-2.85783c0.5733,-2.09576 1.3178,-4.54418 2.41787,-5.31185z" fill="#fff3bf" stroke="none" stroke-width="0.5" stroke-linecap="butt"/><path d="M264.46608,143.66081c0,-0.82843 0.67157,-1.5 1.5,-1.5c0.82843,0 1.5,0.67157 1.5,1.5c0,0.82843 -0.67157,1.5 -1.5,1.5c-0.82843,0 -1.5,-0.67157 -1.5,-1.5z" fill="#e890ff" stroke="none" stroke-width="0.5" stroke-linecap="butt"/><path d="M268.63588,154.01342c0,-0.82843 0.67157,-1.5 1.5,-1.5c0.82843,0 1.5,0.67157 1.5,1.5c0,0.82843 -0.67157,1.5 -1.5,1.5c-0.82843,0 -1.5,-0.67157 -1.5,-1.5z" fill="#e890ff" stroke="none" stroke-width="0.5" stroke-linecap="butt"/><path d="M257.9957,153.0069c0,-0.82843 0.67157,-1.5 1.5,-1.5c0.82843,0 1.5,0.67157 1.5,1.5c0,0.82843 -0.67157,1.5 -1.5,1.5c-0.82843,0 -1.5,-0.67157 -1.5,-1.5z" fill="#e890ff" stroke="none" stroke-width="0.5" stroke-linecap="butt"/><path d="M265.32879,149.41225c0,-0.82843 0.67157,-1.5 1.5,-1.5c0.82843,0 1.5,0.67157 1.5,1.5c0,0.82843 -0.67157,1.5 -1.5,1.5c-0.82843,0 -1.5,-0.67157 -1.5,-1.5z" fill="#e890ff" stroke="none" stroke-width="0.5" stroke-linecap="butt"/><path d="M254.97619,148.26197c0,-0.82843 0.67157,-1.5 1.5,-1.5c0.82843,0 1.5,0.67157 1.5,1.5c0,0.82843 -0.67157,1.5 -1.5,1.5c-0.82843,0 -1.5,-0.67157 -1.5,-1.5z" fill="#e890ff" stroke="none" stroke-width="0.5" stroke-linecap="butt"/><path d="M251.95668,152.43177c0,-0.82843 0.67157,-1.5 1.5,-1.5c0.82843,0 1.5,0.67157 1.5,1.5c0,0.82843 -0.67157,1.5 -1.5,1.5c-0.82843,0 -1.5,-0.67157 -1.5,-1.5z" fill="#e890ff" stroke="none" stroke-width="0.5" stroke-linecap="butt"/><path d="M263.74715,158.75836c0,-0.82843 0.67157,-1.5 1.5,-1.5c0.82843,0 1.5,0.67157 1.5,1.5c0,0.82843 -0.67157,1.5 -1.5,1.5c-0.82843,0 -1.5,-0.67157 -1.5,-1.5z" fill="#e890ff" stroke="none" stroke-width="0.5" stroke-linecap="butt"/><path d="M268.49209,163.21574c0,-0.82843 0.67157,-1.5 1.5,-1.5c0.82843,0 1.5,0.67157 1.5,1.5c0,0.82843 -0.67157,1.5 -1.5,1.5c-0.82843,0 -1.5,-0.67157 -1.5,-1.5z" fill="#e890ff" stroke="none" stroke-width="0.5" stroke-linecap="butt"/><path d="M269.64238,144.66731c0,-0.82843 0.67157,-1.5 1.5,-1.5c0.82843,0 1.5,0.67157 1.5,1.5c0,0.82843 -0.67157,1.5 -1.5,1.5c-0.82843,0 -1.5,-0.67157 -1.5,-1.5z" fill="#e890ff" stroke="none" stroke-width="0.5" stroke-linecap="butt"/></g></g></svg>