<svg version="1.1" xmlns="http://www.w3.org/2000/svg" xmlns:xlink="http://www.w3.org/1999/xlink" width="241.4143" height="342.0084" viewBox="0,0,241.4143,342.0084"><defs><radialGradient cx="234.88629" cy="119.36476" r="45.61247" gradientUnits="userSpaceOnUse" id="color-1"><stop offset="0" stop-color="#484848" stop-opacity="0"/><stop offset="1" stop-color="#484848"/></radialGradient><radialGradient cx="235.09943" cy="126.6116" r="50.51474" gradientUnits="userSpaceOnUse" id="color-2"><stop offset="0" stop-color="#484848" stop-opacity="0"/><stop offset="1" stop-color="#484848"/></radialGradient></defs><g transform="translate(-76.28478,-1.89331)"><g data-paper-data="{&quot;isPaintingLayer&quot;:true}" fill-rule="nonzero" stroke-linejoin="miter" stroke-miterlimit="10" stroke-dasharray="" stroke-dashoffset="0" style="mix-blend-mode: normal"><path d="M79.53478,96.94406v-91.80075h92.74714v91.80075l0.07361,20.10873l-24.77163,-20.10873z" fill="#2e2e2e" stroke="#161616" stroke-width="6.5" stroke-linecap="butt"/><text transform="translate(84.25,17.18765) scale(0.30175,0.30175)" font-size="40" xml:space="preserve" fill="#ffffff" fill-rule="nonzero" stroke="none" stroke-width="1" stroke-linecap="butt" stroke-linejoin="miter" stroke-miterlimit="10" stroke-dasharray="" stroke-dashoffset="0" font-family="Sans Serif" font-weight="normal" text-anchor="start" style="mix-blend-mode: normal"><tspan x="0" dy="0">Wow!...</tspan><tspan x="0" dy="46.150000000000006px">Here is pretty</tspan><tspan x="0" dy="46.150000000000006px">messy..</tspan></text><path d="M213.88313,251.62141v-14.49659h46.25102v14.49659l11.06259,81.13327l-18.47087,-0.25812l-9.28994,-82.27973c0,0 -2.88845,0.02394 -3.80487,0.02394c-1.05843,0 -7.91598,0.51286 -7.91598,0.51286l1.90108,84.21191l-17.63639,-0.82504z" fill="#454545" stroke="#1a1a1a" stroke-width="1" stroke-linecap="butt"/><path d="M229.99045,183.4338v-22.55025h13.11596v22.55025z" fill="#00a7dc" stroke="#00779c" stroke-width="1" stroke-linecap="butt"/><path d="M214.69985,240.5567v-75.01831l14.36923,0.1817c0,0 -0.69872,4.03564 6.90409,4.19029c11.31242,0.2301 9.59048,-3.41868 9.59048,-3.41868l13.66898,-0.95331v75.01831z" fill="#005771" stroke="#003849" stroke-width="2.5" stroke-linecap="butt"/><path d="M280.49876,119.36476c0,23.30763 -20.4214,42.20219 -45.61247,42.20219c-25.19107,0 -45.61247,-18.89456 -45.61247,-42.20219c0,-23.30762 20.4214,-42.20218 45.61247,-42.20218c25.19107,0 45.61247,18.89456 45.61247,42.20218z" fill="url(#color-1)" stroke="#2f2f2f" stroke-width="1.5" stroke-linecap="butt"/><path d="M184.58469,133.00587v-12.78854h101.02948v12.78854z" fill="url(#color-2)" stroke="#2f2f2f" stroke-width="1.5" stroke-linecap="butt"/><path d="M231.70611,162.87972c0,0 -6.89324,-0.66278 -12.07652,-2.31267c-6.96033,-2.21554 -13.28523,-6.30161 -16.57724,-8.97395c-6.28558,-5.10241 -11.64711,-18.58724 -11.64711,-18.58724h86.96208c0,0 -7.68054,18.05786 -18.40046,23.30213c-3.89436,1.90516 -9.22384,4.45481 -14.86362,5.41259c-6.70322,1.13838 -13.00477,1.19306 -13.00477,1.19306z" fill="#00a7dc" stroke="#00779c" stroke-width="1" stroke-linecap="butt"/><path d="M271.99887,113.82138c0,7.87629 -6.84871,14.26129 -15.29702,14.26129c-8.44831,0 -15.29702,-6.385 -15.29702,-14.26129c0,-7.87629 6.84871,-14.26129 15.29702,-14.26129c8.44831,0 15.29702,6.385 15.29702,14.26129z" fill="#ffffff" stroke="#000000" stroke-width="2" stroke-linecap="butt"/><path d="M229.07066,114.33559c0,7.74869 -6.73776,14.03025 -15.04921,14.03025c-8.31144,0 -15.0492,-6.28156 -15.0492,-14.03025c0,-7.74869 6.73776,-14.03025 15.0492,-14.03025c8.31144,0 15.04921,6.28156 15.04921,14.03025z" fill="#ffffff" stroke="#000000" stroke-width="2" stroke-linecap="butt"/><path d="M219.82426,114.10765c0,1.59235 6.40686,3.37324 5.70999,4.67769c-1.51661,2.83891 -4.59885,4.76378 -7.97769,4.76378c-4.93139,0 -8.92906,-4.10018 -8.92906,-9.15801c0,-5.05783 3.99768,-9.15801 8.92906,-9.15801c3.18253,0 5.97619,1.7077 7.55739,4.27842c0.8689,1.41265 -5.28969,2.80244 -5.28969,4.59613z" fill="#000000" stroke="none" stroke-width="0" stroke-linecap="butt"/><path d="M263.58975,112.64673c0,1.59235 6.40686,3.37324 5.70999,4.67769c-1.51661,2.83892 -4.59885,4.76379 -7.97769,4.76379c-4.93138,0 -8.92906,-4.10019 -8.92906,-9.15802c0,-5.05783 3.99768,-9.15802 8.92906,-9.15802c3.18253,0 5.97618,1.7077 7.55739,4.27842c0.86889,1.41265 -5.28969,2.80244 -5.28969,4.59614z" fill="#000000" stroke="none" stroke-width="0" stroke-linecap="butt"/><path d="M246.36978,140.97685c0,0 -8.07646,2.53753 -12.12662,2.48008c-3.09802,-0.04394 -10.09262,-2.79525 -10.09262,-2.79525" fill="none" stroke="#000000" stroke-width="2.5" stroke-linecap="round"/><g stroke-linecap="butt"><path d="M203.98863,251.54475v-57.75625h9.20418v57.75625z" fill="#00a7dc" stroke="#00779c" stroke-width="1"/><path d="M202.83811,196.77986v-23.01046l5.98272,-8.51387h6.44293v31.52433z" fill="#005771" stroke="#003849" stroke-width="2.5"/><path d="M217.07005,254.82891c0.10539,1.47053 1.15427,12.272 -1.55117,12.13062c-1.69092,-0.08837 -1.94527,-5.74668 -2.67574,-4.51122c-1.21721,2.05868 -0.42287,4.36393 -4.46733,4.65379c-8.6312,0.61858 -7.14262,-4.70402 -7.60139,-11.10531c-0.45877,-6.40129 2.81723,-11.85199 7.31714,-12.17449c4.49991,-0.3225 8.51972,4.60533 8.97849,11.00661z" fill="#00a7dc" stroke="#00779c" stroke-width="1"/></g><g data-paper-data="{&quot;index&quot;:null}" stroke-linecap="butt"><path d="M261.66969,251.02224v-57.75625h9.20418v57.75625z" fill="#00a7dc" stroke="#00779c" stroke-width="1"/><path d="M259.59875,196.25735v-31.52433h6.44293l5.98272,8.51387v23.01046z" fill="#005771" stroke="#003849" stroke-width="2.5"/><path d="M266.77094,243.29978c4.49991,0.3225 7.77591,5.7732 7.31715,12.17449c-0.45877,6.40128 1.0298,11.72389 -7.6014,11.10531c-4.04446,-0.28986 -3.25012,-2.5951 -4.46733,-4.65379c-0.73047,-1.23546 -0.98482,4.42286 -2.67574,4.51122c-2.70543,0.14139 -1.65656,-10.66009 -1.55116,-12.13061c0.45877,-6.40129 4.47857,-11.32911 8.97848,-11.00661z" fill="#00a7dc" stroke="#00779c" stroke-width="1"/></g><path d="M223.77762,95.6105l-19.78899,0.92042" fill="none" stroke="#000000" stroke-width="2" stroke-linecap="round"/><path d="M245.57526,98.99977c0,0 5.32488,-3.63852 8.34602,-4.08056c7.39928,-1.08263 11.44297,3.16015 11.44297,3.16015" fill="none" stroke="#000000" stroke-width="2" stroke-linecap="round"/><path d="M251.12441,340.92977v-14.74991h32.27879v14.74991z" fill="#232323" stroke="#191919" stroke-width="1" stroke-linecap="butt"/><path d="M215.63888,343.40171v-14.74991h32.27879v14.74991z" fill="#232323" stroke="#191919" stroke-width="1" stroke-linecap="butt"/><g stroke-linecap="butt"><path d="M285.23648,274.31091l-54.94449,-142.40044l12.86425,0.95763l56.44449,135.90044z" fill="#404040" stroke="#232323" stroke-width="2"/><path d="M278.48966,288.57137l-5.05493,-13.10094l37.91648,-14.62988l5.05493,13.10094z" fill="#404040" stroke="#232323" stroke-width="2"/><path d="M279.7357,289.87635l-1.71354,-4.441l36.65259,-14.14222l1.71354,4.441z" fill="#000000" stroke="none" stroke-width="0"/></g></g></g></svg>