<svg version="1.1" xmlns="http://www.w3.org/2000/svg" xmlns:xlink="http://www.w3.org/1999/xlink" width="212.60302" height="222.90219" viewBox="0,0,212.60302,222.90219"><g transform="translate(-145.38027,-112.50382)"><g data-paper-data="{&quot;isPaintingLayer&quot;:true}" fill-rule="nonzero" stroke-linejoin="miter" stroke-miterlimit="10" stroke-dasharray="" stroke-dashoffset="0" style="mix-blend-mode: normal"><g stroke-linecap="butt"><path d="M241.76461,296.21056c0,11.16321 -0.1427,27.42667 -2.98753,34.93273c-1.15758,3.05426 -4.2747,3.26272 -5.65523,3.26272c-1.30567,0 -4.35591,-0.28877 -5.46563,-3.05513c-2.9472,-7.34692 -3.17713,-23.7308 -3.17713,-35.14031c0,-15.70559 3.4513,-12.82475 8.22457,-12.82475c4.77327,0 9.06096,-2.88084 9.06096,12.82475z" fill="#0077ff" stroke="#000000" stroke-width="2"/><path d="M230.47326,320.34045c0.88708,0.36933 1.7214,0.90792 2.66123,1.10796c0.82522,0.17564 1.90689,-1.85746 2.91474,-1.66556c7.2607,1.38243 3.11123,12.90615 -2.10977,14.2114c-4.03341,1.00835 -6.56972,-3.79475 -6.89232,-7.01738c-0.11871,-1.1859 -1.17438,-4.00756 0.1943,-4.78967z" fill="#002ccd" stroke="none" stroke-width="0.5"/></g><g stroke-linecap="butt"><path d="M283.42666,295.63458c0,11.16321 -0.14271,27.42667 -2.98754,34.93273c-1.15758,3.05426 -4.2747,3.26272 -5.65523,3.26272c-1.30567,0 -4.35591,-0.28876 -5.46564,-3.05513c-2.9472,-7.34692 -3.17713,-23.7308 -3.17713,-35.14032c0,-15.70559 3.4513,-12.82475 8.22456,-12.82475c4.77326,0 9.06097,-2.88085 9.06097,12.82475z" fill="#0077ff" stroke="#000000" stroke-width="2"/><path d="M272.13531,319.76447c0.88708,0.36933 1.7214,0.90793 2.66123,1.10797c0.82522,0.17564 1.90689,-1.85746 2.91474,-1.66557c7.2607,1.38243 3.11123,12.90615 -2.10977,14.2114c-4.03341,1.00835 -6.56972,-3.79475 -6.89231,-7.01739c-0.11871,-1.1859 -1.17438,-4.00756 0.1943,-4.78967z" fill="#002ccd" stroke="none" stroke-width="0.5"/></g><g stroke-linecap="butt"><g><path d="M305.95288,254.59752c20.54746,11.7837 13.19554,53.08702 10.43065,57.90821c-2.76489,4.82119 0.33965,-27.14941 -20.2078,-38.93311c-20.54746,-11.7837 -38.21194,-19.09788 -35.44705,-23.91907c2.76489,-4.82119 24.67675,-6.83972 45.2242,4.94397z" fill="#0046ff" stroke="#000000" stroke-width="2"/><path d="M294.22813,263.10621c-5.53833,3.09559 -13.2822,-0.98452 -18.43484,-4.08107c-1.77316,-1.06561 -4.95436,-4.32128 -3.13888,-6.39921c0.80646,-0.92304 2.35299,-0.94903 3.1709,-1.86194c0.76693,-0.85601 0.96202,-2.2465 2.40443,-3.09348c0.81793,-0.48029 3.74779,-0.01297 4.70693,-0.01789c2.8884,-0.01481 6.55968,-0.97865 9.28434,0.54724c3.06606,1.71708 6.16494,3.38269 9.14523,5.24466c0.54637,0.34135 1.22477,0.71761 1.39331,1.33941c1.23248,4.54686 -3.53216,10.22286 -8.31269,7.48128z" fill="#002ccd" stroke="none" stroke-width="0.5"/><path d="M317.25877,287.00302c-0.60975,2.67308 -3.99118,3.01122 -6.03249,1.95081c-2.60417,-1.3528 -6.91767,-8.43164 -6.2596,-11.4447c0.50284,-2.30235 2.83025,-7.61811 6.04372,-4.68766c0.46254,0.06394 0.9208,0.21592 1.35071,0.46247c0.92559,0.53082 1.5392,1.39641 1.77573,2.35662c1.81257,3.40704 3.58816,9.31858 3.12193,11.36246z" fill="#002ccd" stroke="none" stroke-width="0.5"/><path d="M309.52061,268.00214c-5.37579,1.02233 -7.28831,-7.72098 -0.69477,-7.71076c0.173,-0.04213 0.34903,-0.07205 0.52671,-0.08934c1.08916,-0.38708 2.06241,0.02875 2.74442,0.83778c1.3886,1.14078 1.79259,3.14979 0.86873,4.76075c-0.40319,0.70306 -0.99956,1.22612 -1.68383,1.54065c-0.47885,0.29869 -1.0621,0.52794 -1.76126,0.6609z" fill="#002ccd" stroke="none" stroke-width="0.5"/></g><g><path d="M301.4629,239.53631c23.07335,5.3548 27.94989,47.02295 26.69345,52.4368c-1.25644,5.41386 -7.50729,-26.09304 -30.58064,-31.44784c-23.07335,-5.3548 -42.09688,-7.26185 -40.84044,-12.67571c1.25644,-5.41386 21.65428,-13.66806 44.72763,-8.31325z" fill="#0046ff" stroke="#000000" stroke-width="2"/><path d="M292.6914,251.06578c-4.40978,4.56176 -13.00148,2.8892 -18.82838,1.41084c-2.00519,-0.50874 -5.99038,-2.70823 -4.85156,-5.22157c0.50587,-1.11645 1.97914,-1.58751 2.4989,-2.69756c0.48737,-1.04086 0.27301,-2.42852 1.40974,-3.65562c0.64459,-0.69583 3.58469,-1.09365 4.50163,-1.37507c2.76131,-0.84748 5.99844,-2.82948 9.04746,-2.15453c3.43106,0.75952 6.87871,1.46031 10.26945,2.38331c0.62162,0.16921 1.37973,0.33375 1.72049,0.88049c2.49183,3.99797 -0.43272,10.80721 -5.80093,9.56137z" fill="#002ccd" stroke="none" stroke-width="0.5"/><path d="M321.63694,267.30225c0.18734,2.73533 -2.95276,4.03464 -5.21319,3.60822c-2.88371,-0.54399 -9.05603,-6.0774 -9.2952,-9.15221c-0.18275,-2.34953 0.51211,-8.11071 4.43437,-6.23193c0.46132,-0.07222 0.94395,-0.05891 1.42671,0.05313c1.03936,0.24122 1.8766,0.89298 2.38009,1.74412c2.71843,2.73926 6.12397,7.8872 6.26722,9.97868z" fill="#002ccd" stroke="none" stroke-width="0.5"/><path d="M308.74612,251.34171c-4.85228,2.52976 -9.20589,-5.29004 -2.88975,-7.18247c0.15348,-0.09026 0.31341,-0.16967 0.47855,-0.23749c0.93117,-0.68484 1.983,-0.56748 2.86942,0.01041c1.65867,0.69167 2.62508,2.49871 2.20525,4.3077c-0.18322,0.78949 -0.60332,1.46237 -1.16775,1.96093c-0.37232,0.42413 -0.86464,0.81191 -1.49572,1.14092z" fill="#002ccd" stroke="none" stroke-width="0.5"/></g><g><path d="M298.03179,232.83192c23.67379,0.77804 36.53926,40.70915 36.35671,46.26389c-0.18255,5.55475 -12.42549,-24.14152 -36.09928,-24.91956c-23.67379,-0.77804 -42.70594,1.04074 -42.52339,-4.514c0.18256,-5.55474 18.59217,-17.60837 42.26596,-16.83033z" fill="#0046ff" stroke="#000000" stroke-width="2"/><path d="M291.66299,245.84369c-3.44129,5.33041 -12.19424,5.35597 -18.19723,5.03581c-2.06579,-0.11018 -6.4019,-1.49496 -5.77217,-4.18145c0.27973,-1.19337 1.63367,-1.94122 1.92826,-3.13101c0.27623,-1.11562 -0.20319,-2.43535 0.67396,-3.85962c0.49739,-0.80764 3.30452,-1.76813 4.14946,-2.22205c2.54451,-1.36694 5.33575,-3.93915 8.45779,-3.86838c3.51322,0.07964 7.03131,0.09845 10.53669,0.34629c0.64263,0.04543 1.41826,0.05982 1.85859,0.53008c3.21992,3.43876 1.67156,10.68591 -3.83634,10.5049z" fill="#002ccd" stroke="none" stroke-width="0.5"/><path d="M323.20796,256.15786c0.71431,2.64706 -2.11417,4.5307 -4.41438,4.5508c-2.93446,0.02564 -10.06279,-4.20558 -10.89377,-7.17562c-0.63497,-2.26947 -1.07069,-8.05602 3.14148,-6.97364c0.43856,-0.16033 0.9146,-0.24087 1.40992,-0.22459c1.06642,0.03505 2.01416,0.51206 2.67317,1.24938c3.19808,2.16001 7.53742,6.54969 8.08358,8.57367z" fill="#002ccd" stroke="none" stroke-width="0.5"/><path d="M307.46637,243.00056c-4.2695,3.42283 -10.05709,-3.4041 -4.22792,-6.48561c0.13306,-0.11831 0.27455,-0.22724 0.4234,-0.3258c0.78067,-0.85244 1.83529,-0.9413 2.81696,-0.54631c1.76132,0.35683 3.05986,1.94213 2.99886,3.7982c-0.02662,0.81004 -0.30824,1.55161 -0.76526,2.15017c-0.28298,0.48829 -0.69076,0.96419 -1.24603,1.40935z" fill="#002ccd" stroke="none" stroke-width="0.5"/></g></g><path d="M236.74623,218.14688v-19.51592h21.46751v19.51592z" fill="#0077ff" stroke="#000000" stroke-width="2" stroke-linecap="butt"/><path d="M228.52166,239.89319l-4.32138,-41.54103h13.24294v19.51592l21.60691,0.4182l-0.72995,-19.12838l-0.13074,-0.03769l13.19591,0.29924l-0.23792,39.47781l16.17409,51.36376l-26.43849,0.60507c0,0 -2.16226,-6.18572 -3.74065,-12.40778c-1.67624,-6.60782 -2.85435,-13.27447 -5.7597,-13.24716c-2.29158,0.02155 -1.60192,6.30876 -2.00376,12.28825c-0.43939,6.53823 -1.85656,12.81761 -1.85656,12.81761l-28.75866,0.59637z" fill="#ff77e7" stroke="#000000" stroke-width="2" stroke-linecap="butt"/><path d="M244.13441,243.65696l-0.697,7.80637l-10.73376,-0.83639l1.95159,-9.47916" fill="none" stroke="#000000" stroke-width="2" stroke-linecap="round"/><path d="M268.09272,241.8264l1.9516,9.47917l-10.73376,0.83639l-0.697,-7.80637" data-paper-data="{&quot;index&quot;:null}" fill="none" stroke="#000000" stroke-width="2" stroke-linecap="round"/><g><path d="M356.52584,198.97065c0.06817,0.87755 0.72908,3.41404 -1.06525,5.44994c-0.7343,0.83316 -3.55568,1.00746 -4.37106,1.85095c-1.43712,1.48666 6.76873,3.14719 5.65495,4.20828c-1.1575,1.10273 -11.60701,1.57731 -11.60701,1.57731l-74.83252,1.53742l-1.13943,-14.66868l74.83252,-1.53742c0,0 12.34533,-0.76689 12.5278,1.5822z" fill="#0077ff" stroke="#000000" stroke-width="2" stroke-linecap="butt"/><path d="M341.47066,196.87518c0.02307,-0.01623 5.34141,0.47681 5.48613,0.47292c3.07344,-0.0825 8.93302,-2.3203 9.65744,3.04472c0.60369,4.47086 -10.01375,3.891 -13.44222,3.81212c-0.47582,-0.01094 -0.95224,-0.00721 -1.42917,0.00963c-0.12319,0.01558 -0.24883,0.02484 -0.3766,0.02747c-0.06506,0.00134 -0.12983,0.00093 -0.19428,-0.00117c-7.79478,0.44161 -15.71873,4.21029 -23.42551,4.43949c-5.50093,0.16359 -10.93117,0.45053 -16.38632,-0.20378c-2.59759,-0.31157 -3.37299,-2.87868 -5.85631,-2.85308c-8.83618,0.09109 -14.71247,0.84219 -22.72253,0.46683c-1.69588,-0.07947 -4.23755,-2.10537 -3.97896,-4.08292c0.5686,-4.34828 7.40193,-2.71732 10.82675,-2.83685c7.9647,-0.27799 11.78384,-0.06084 17.15166,0.20089c1.27758,-0.69376 3.17838,-0.30615 4.88247,-0.14705c0.48599,-0.18 0.97743,-0.37425 1.45215,-0.38995c4.04363,-0.13378 7.30099,-0.12578 10.83458,-0.2226c8.21553,-0.22511 18.95261,0.39602 26.84514,-1.7228z" fill="#002ccd" stroke="none" stroke-width="0.5" stroke-linecap="butt"/><path d="M270.28093,212.70801l-1.04462,-13.44821l82.59098,-1.98964l3.03231,0.23052l1.41109,0.70306l0.54228,1.16013l0.17032,2.19264" fill="none" stroke="#000000" stroke-width="2" stroke-linecap="round"/></g><g><path d="M159.36552,198.85764l74.83253,1.53743l-1.13943,14.66868l-74.83252,-1.53742c0,0 -10.44951,-0.47458 -11.60701,-1.57731c-1.11379,-1.06109 7.09207,-2.72163 5.65495,-4.20828c-0.81538,-0.84349 -3.63676,-1.01779 -4.37106,-1.85095c-1.79432,-2.0359 -1.13341,-4.57239 -1.06525,-5.44994c0.18247,-2.34909 12.52779,-1.5822 12.52779,-1.5822z" fill="#0077ff" stroke="#000000" stroke-width="2" stroke-linecap="butt"/><path d="M162.56847,198.35825c7.89254,2.11882 18.62961,1.49769 26.84514,1.7228c3.53359,0.09682 6.79096,0.08881 10.83458,0.2226c0.47472,0.0157 0.96616,0.20995 1.45215,0.38995c1.70409,-0.1591 3.6049,-0.54671 4.88247,0.14705c5.36781,-0.26173 9.18696,-0.47887 17.15166,-0.20089c3.42482,0.11954 10.25816,-1.51143 10.82675,2.83685c0.25859,1.97754 -2.28308,4.00345 -3.97896,4.08292c-8.01006,0.37536 -13.88634,-0.37574 -22.72253,-0.46683c-2.48333,-0.0256 -3.25872,2.54151 -5.85631,2.85308c-5.45515,0.65431 -10.88539,0.36737 -16.38632,0.20378c-7.70678,-0.2292 -15.63074,-3.99788 -23.42552,-4.43949c-0.06445,0.0021 -0.12922,0.00251 -0.19428,0.00117c-0.12776,-0.00262 -0.2534,-0.01189 -0.37659,-0.02747c-0.47693,-0.01684 -0.95335,-0.02058 -1.42917,-0.00963c-3.42847,0.07888 -14.04591,0.65874 -13.44222,-3.81212c0.72443,-5.36502 6.58401,-3.12722 9.65745,-3.04472c0.14472,0.00388 5.46306,-0.48916 5.48613,-0.47293z" fill="#002ccd" stroke="none" stroke-width="0.5" stroke-linecap="butt"/><path d="M146.38027,203.0257l0.17032,-2.19264l0.54228,-1.16013l1.41109,-0.70306l3.03232,-0.23052l82.59097,1.98964l-1.04462,13.44821" fill="none" stroke="#000000" stroke-width="2" stroke-linecap="round"/></g><g><path d="M216.20406,198.22794c0,0 2.04832,-2.19386 1.90919,-5.07925c-0.32979,-6.83938 -2.75089,-19.14996 -2.40403,-22.82667c0.84335,-8.93948 3.34169,-21.54094 3.34169,-21.54094c0,0 4.35057,-9.10965 9.41296,-13.82232c5.54123,-5.15844 12.02646,-5.96025 16.81045,-5.96025c3.37105,0 12.82874,2.00187 17.53171,5.59986c7.534,5.76388 10.07188,14.1827 10.07188,14.1827c0,0 4.51411,12.89586 4.51411,22.32306c0,4.16902 -1.27222,15.91182 -1.92379,21.84819c-0.30032,2.73616 4.27229,4.83469 4.27229,4.83469z" fill="#0077ff" stroke="#000000" stroke-width="2" stroke-linecap="butt"/><path d="M223.83013,164.1281c0,-0.82843 0.67157,-1.5 1.5,-1.5c0.82843,0 1.5,0.67157 1.5,1.5c0,0.82843 -0.67157,1.5 -1.5,1.5c-0.82843,0 -1.5,-0.67157 -1.5,-1.5z" fill="#000000" stroke="none" stroke-width="0.5" stroke-linecap="butt"/><path d="M222.15293,171.55569c0,-0.82843 0.67157,-1.5 1.5,-1.5c0.82843,0 1.5,0.67157 1.5,1.5c0,0.82843 -0.67157,1.5 -1.5,1.5c-0.82843,0 -1.5,-0.67157 -1.5,-1.5z" fill="#000000" stroke="none" stroke-width="0.5" stroke-linecap="butt"/><path d="M229.10132,168.44089c0,-0.82843 0.67157,-1.5 1.5,-1.5c0.82843,0 1.5,0.67157 1.5,1.5c0,0.82843 -0.67157,1.5 -1.5,1.5c-0.82843,0 -1.5,-0.67157 -1.5,-1.5z" fill="#000000" stroke="none" stroke-width="0.5" stroke-linecap="butt"/><path d="M264.08286,162.6905c0,-0.82843 0.67158,-1.5 1.5,-1.5c0.82842,0 1.5,0.67157 1.5,1.5c0,0.82843 -0.67158,1.5 -1.5,1.5c-0.82842,0 -1.5,-0.67157 -1.5,-1.5z" fill="#000000" stroke="none" stroke-width="0.5" stroke-linecap="butt"/><path d="M258.33247,168.68049c0,-0.82843 0.67157,-1.5 1.5,-1.5c0.82843,0 1.5,0.67157 1.5,1.5c0,0.82843 -0.67157,1.5 -1.5,1.5c-0.82843,0 -1.5,-0.67157 -1.5,-1.5z" fill="#000000" stroke="none" stroke-width="0.5" stroke-linecap="butt"/><path d="M266.95805,169.15969c0,-0.82843 0.67158,-1.5 1.5,-1.5c0.82842,0 1.5,0.67157 1.5,1.5c0,0.82843 -0.67158,1.5 -1.5,1.5c-0.82842,0 -1.5,-0.67157 -1.5,-1.5z" fill="#000000" stroke="none" stroke-width="0.5" stroke-linecap="butt"/><path d="M255.51968,175.94128c-1.75,0 -1.75,-1.75 -1.75,-1.75v-0.2396c0,-2.36278 0.65758,-5.48552 -1.47988,-6.24334c-0.52787,1.13292 -1.55528,2.04156 -3.04549,2.41411h-5.49588c-0.91912,0.61275 -2.50327,-1.08661 -2.93175,-1.34226c-0.34849,-0.20792 -0.61644,-0.53184 -0.80803,-0.92819c-0.9374,0.68847 -0.94854,1.86606 -0.94854,3.94329v1.4376c0,0 0,1.75 -1.75,1.75c-1.75,0 -1.75,-1.75 -1.75,-1.75v-1.4376c0,-0.66471 -0.03286,-4.13697 0.13321,-4.50329c0.82693,-1.82402 2.5096,-2.73382 4.29632,-3.23413c0.37662,-1.01667 1.04895,-1.84959 1.97716,-2.08164c1.98027,-0.49507 7.81807,-1.28072 9.20575,0.17606c0.61225,0.64273 1.03674,1.36775 1.28072,2.11365c1.87923,0.38677 3.78775,1.33063 4.65119,3.19309c0.67563,1.45737 0.16522,4.84511 0.16522,6.49266v0.2396c0,0 0,1.75 -1.75,1.75z" fill="#000000" stroke="none" stroke-width="0.5" stroke-linecap="butt"/><path d="M262.52735,185.9542c0.31759,2.57541 1.25902,9.06087 -2.86932,9.63303c-1.09452,0.15169 -1.79637,-1.29808 -2.59974,-2.05675c-1.66137,-1.56895 -1.93033,-3.36798 -3.35048,-5.02723c-6.42656,1.0761 -13.28955,-0.79055 -19.61611,-2.05357c0,0 -1.71602,-0.34321 -1.37282,-2.05922c0.34321,-1.71601 2.05922,-1.37281 2.05922,-1.37281c7.56369,1.51538 16.72099,4.53104 23.88726,-0.00758l1.10327,-0.56045c0,0 1.56525,-0.78262 2.34787,0.78262c0.5118,1.0236 0.01952,1.71249 -0.38246,2.06671zM259.09212,190.0783c0.00704,-1.09219 0.09679,-2.19935 0.00284,-3.30492c-0.03074,0.01539 -0.06151,0.03066 -0.09229,0.04585l-0.05973,0.49767c0,0 -0.20497,-0.08199 -0.4402,-0.26053c-0.37308,0.17002 -0.74868,0.32585 -1.12658,0.46831c0.60332,0.81234 1.21428,1.70385 1.71596,2.55363z" fill="#000000" stroke="none" stroke-width="0.5" stroke-linecap="butt"/><path d="M260.02149,193.63001l-4.32907,-5.63762l4.89346,-1.86876l-0.29683,7.66629z" fill="#ffffff" stroke="none" stroke-width="0" stroke-linecap="butt"/><path d="M240.51002,152.00184c0,3.81091 -2.46525,6.90028 -5.50628,6.90028c-3.04103,0 -5.50627,-3.08936 -5.50627,-6.90028c0,-3.81091 2.46524,-6.90027 5.50627,-6.90027c3.04103,0 5.50628,3.08935 5.50628,6.90027z" fill="#000000" stroke="none" stroke-width="0" stroke-linecap="butt"/><path d="M235.95101,152.3951c-0.9472,0.32063 -1.26784,-0.62658 -1.26784,-0.62658l0.06135,0.08812c-0.14467,-0.22575 -0.33416,-0.4497 -0.53224,-0.67197c-3.05277,0.81087 -5.09853,0.14415 -6.51837,-2.17266c-0.35213,-0.39306 -0.58843,-0.83437 -0.64538,-1.2636c-0.15819,-0.36881 -0.30699,-0.76555 -0.44722,-1.1906l0.04506,-0.14103l-0.06139,0.00295l-0.04773,-0.99159c-0.03143,-0.44285 0.23698,-0.86836 0.67715,-1.01736c0.49167,-0.16643 1.02264,0.07137 1.23174,0.53487l0.52919,1.13273l-0.03669,0.01714c0.03369,0.04897 0.06617,0.09886 0.09727,0.14979c0.21036,0.34444 0.07975,0.9879 0.1879,1.48581c0.10292,0.1918 0.20875,0.36705 0.31832,0.52641c0.08761,0.06044 0.19636,0.10629 0.3315,0.13354c0.39304,0.07924 1.18879,-0.07307 1.93266,-0.23483c0.01772,-0.00714 0.03574,-0.01381 0.05406,-0.02002c0.09013,-0.03051 0.18157,-0.04743 0.27211,-0.05188c0.49185,-0.10932 0.92778,-0.20762 1.16193,-0.22366l0.07567,0.45459c0.66537,-0.00602 1.17298,0.20501 1.66184,0.64966c0.27474,0.04037 0.58666,0.19869 0.74526,0.66723c0.03293,0.09727 0.05248,0.18794 0.06107,0.27233c0.18632,0.25751 0.38026,0.54742 0.58861,0.87055l0.15074,0.3522c0,0 0.32063,0.9472 -0.62658,1.26783z" fill="#000000" stroke="none" stroke-width="0.5" stroke-linecap="butt"/><path d="M256.83577,144.66499c3.04103,0 5.50627,3.08936 5.50627,6.90027c0,3.81091 -2.46524,6.90027 -5.50627,6.90027c-3.04103,0 -5.50628,-3.08936 -5.50628,-6.90027c0,-3.81091 2.46525,-6.90027 5.50628,-6.90027z" fill="#000000" stroke="none" stroke-width="0" stroke-linecap="butt"/><path d="M255.26192,150.69069l0.15074,-0.3522c0.20836,-0.32314 0.4023,-0.61305 0.58862,-0.87055c0.00859,-0.08439 0.02814,-0.17506 0.06107,-0.27233c0.1586,-0.46854 0.47051,-0.62686 0.74525,-0.66723c0.48887,-0.44465 0.99648,-0.65569 1.66184,-0.64966l0.07568,-0.45459c0.23415,0.01604 0.67007,0.11435 1.16193,0.22366c0.09054,0.00445 0.18198,0.02137 0.27211,0.05187c0.01832,0.0062 0.03634,0.01288 0.05406,0.02002c0.74386,0.16176 1.53961,0.31406 1.93266,0.23483c0.13514,-0.02724 0.2439,-0.07309 0.3315,-0.13353c0.10956,-0.15936 0.21539,-0.33462 0.31832,-0.52641c0.10814,-0.49791 -0.02247,-1.14137 0.1879,-1.48581c0.03111,-0.05093 0.06358,-0.10082 0.09727,-0.14979l-0.03669,-0.01714l0.52919,-1.13273c0.2091,-0.4635 0.74007,-0.70129 1.23174,-0.53487c0.44018,0.149 0.70859,0.57451 0.67716,1.01736l-0.04773,0.99158l-0.06139,-0.00295l0.04507,0.14103c-0.14024,0.42505 -0.28904,0.82179 -0.44723,1.1906c-0.05695,0.42924 -0.29325,0.87055 -0.64538,1.2636c-1.41984,2.3168 -3.4656,2.98352 -6.51837,2.17265c-0.19808,0.22226 -0.38757,0.44621 -0.53224,0.67197l0.06135,-0.08811c0,0 -0.32063,0.9472 -1.26784,0.62658c-0.9472,-0.32063 -0.62658,-1.26783 -0.62658,-1.26783z" fill="#000000" stroke="none" stroke-width="0.5" stroke-linecap="butt"/><path d="M249.67541,129.39705l18.01591,-15.27164l0.08095,0.17976l0.64139,26.62924c0,0 -5.12315,-7.1038 -8.47593,-8.37444c-3.69616,-1.40078 -10.26232,-3.16292 -10.26232,-3.16292z" fill="#0046ff" stroke="#000000" stroke-width="2" stroke-linecap="butt"/><path d="M268.00401,121.57565c-0.08578,0.33928 -0.14439,0.66252 -0.1475,0.94322c-0.01432,1.29306 0.68679,1.95492 0.5374,3.40616c-1.57962,4.1907 -5.33671,0.7204 -7.36356,-1.12894c-0.60745,-0.55426 -1.72263,-0.75554 -1.96008,-1.70397c-0.15447,-0.61701 0.10894,-1.30887 0.42677,-1.85983c0.71216,-1.23454 2.91576,-1.55471 4.04896,-2.21463c1.01172,-0.58918 1.78244,-2.22133 2.54229,-3.13315c0,0 0.64019,-0.76822 1.40841,-0.12803c0.1368,0.114 0.22893,0.23205 0.28798,0.3491c-0.06725,1.7963 0.11494,3.64839 0.31149,5.16235c-0.02799,0.10196 -0.05892,0.20472 -0.09215,0.30772z" fill="#002ccd" stroke="none" stroke-width="0.5" stroke-linecap="butt"/><path d="M268.1111,117.63989l-0.2788,11.01255l0.4182,-13.10354v13.52175" fill="none" stroke="#000000" stroke-width="1.5" stroke-linecap="round"/><path d="M254.86816,125.44625l12.68535,-11.01255" fill="none" stroke="#000000" stroke-width="1.5" stroke-linecap="round"/><path d="M228.2989,185.10969c0.33647,1.34589 -0.12234,2.00593 -0.17912,3.36413c-0.02755,0.65894 1.86502,1.77794 2.01669,2.72481c0.78213,4.88282 -4.28003,4.89593 -7.39299,3.88301c-2.20584,-0.71776 -3.4445,-3.43273 -3.1337,-5.52807c0.17498,-1.17971 0.14854,-2.60431 0.23514,-4.03492c-0.05998,-0.26627 -0.09163,-0.54325 -0.09163,-0.82763c0,-0.65639 0.16864,-1.27338 0.46496,-1.81002c0.44209,-1.68967 1.37403,-3.15239 3.42019,-3.91387c3.05291,-1.13614 7.38386,3.25413 4.55704,5.67711z" fill="#002ccd" stroke="none" stroke-width="0.5" stroke-linecap="butt"/><path d="M265.27895,173.45765c1.03863,-0.25966 2.27008,0.84143 3.00984,0.71057c1.2231,-0.21636 1.55545,-1.81241 3.0285,-1.73058c7.24692,0.4026 3.50249,13.71608 0.49588,16.58007c-1.26081,1.20101 -4.1216,2.94785 -5.79838,1.18756c-1.11566,-1.17122 -2.00099,-2.46812 -2.07189,-4.12027c-0.06043,-1.40802 1.20605,-3.40969 0.05831,-4.22753c-0.16046,0.02095 -0.32412,0.03177 -0.4903,0.03177c-0.14294,0 -0.28401,-0.008 -0.42279,-0.02357c-1.87203,-0.21005 -3.32721,-1.7983 -3.32721,-3.72643c0,-0.7548 0.223,-1.45752 0.60672,-2.04586c0.13959,-0.30963 0.33211,-0.57092 0.62866,-0.73611c0.43728,-0.3955 0.96824,-0.68936 1.55561,-0.84428c0.86774,-0.44339 1.71073,-0.80126 2.72705,-1.05534z" fill="#002ccd" stroke="none" stroke-width="0.5" stroke-linecap="butt"/><path d="M229.98787,142.17846c-1.43548,0.07975 -2.54091,-4.02196 -1.61411,-5.3057c3.10795,-4.30496 13.72737,-9.30534 17.72075,-4.04259c1.25009,1.64746 0.54208,4.0212 -0.69476,5.46925c-1.90075,2.22533 -5.30819,1.38262 -6.67621,2.21375c-3.30499,2.0079 -3.05146,4.45869 -7.32095,2.01897z" fill="#002ccd" stroke="none" stroke-width="0.5" stroke-linecap="butt"/><path d="M258.50199,133.95328c1.3077,-8.05653 12.81127,5.66854 7.72556,7.02684c-1.27074,0.33939 -2.22539,0.08164 -3.01869,-1.00623c-0.48075,-0.65926 -0.60818,-2.51317 -1.29704,-2.0759c-0.03698,0.02347 -0.07285,0.04769 -0.10777,0.07253c-0.36126,0.75977 -1.13586,1.285 -2.03313,1.285c-1.24264,0 -2.25,-1.00736 -2.25,-2.25c0,-0.43428 0.12304,-0.83984 0.33616,-1.18369c0.2412,-0.60076 0.53374,-1.1836 0.64491,-1.86854z" fill="#0077ff" stroke="none" stroke-width="0.5" stroke-linecap="butt"/><path d="M267.13784,132.92066c-0.23852,4.29326 -9.85219,-2.10432 -10.253,-2.80573c-0.66316,-0.39139 -1.10805,-1.11329 -1.10805,-1.93909c0,-1.24264 1.00736,-2.25 2.25,-2.25c0.55749,0 1.06763,0.20276 1.4607,0.53855c3.50417,0.30239 7.80311,3.70678 7.65036,6.45627z" fill="#0046ff" stroke="none" stroke-width="0.5" stroke-linecap="butt"/></g></g></g></svg>