<svg version="1.1" xmlns="http://www.w3.org/2000/svg" xmlns:xlink="http://www.w3.org/1999/xlink" width="104.66667" height="139.46004" viewBox="0,0,104.66667,139.46004"><defs><radialGradient cx="239.9" cy="147.7625" r="26.09398" gradientUnits="userSpaceOnUse" id="color-1"><stop offset="0" stop-color="#d90000"/><stop offset="1" stop-color="#d90000" stop-opacity="0"/></radialGradient></defs><g transform="translate(-189.58332,-129.5625)"><g data-paper-data="{&quot;isPaintingLayer&quot;:true}" fill-rule="nonzero" stroke-linejoin="miter" stroke-miterlimit="10" stroke-dasharray="" stroke-dashoffset="0" style="mix-blend-mode: normal"><g data-paper-data="{&quot;index&quot;:null}" fill="#ffaa2b" stroke="#c08021" stroke-width="2" stroke-linecap="butt"><path d="M278.75678,188.35445c-4.00506,-12.25237 -16.99409,-17.71903 -14.09011,-17.71903c1.87831,0 10.11098,2.19481 16.98679,8.17817c6.43375,5.59868 11.59653,14.7011 11.59653,23.15517c0,8.16146 -3.76622,17.00772 -9.93086,22.70005c-7.04543,6.50564 -16.71332,9.29995 -18.65247,9.29995c-2.75322,0 9.11637,-6.29854 13.42322,-18.16429c1.38074,-3.80406 3.99345,-10.92335 3.99345,-15.16905c0,-3.52054 -2.31714,-9.19295 -3.32655,-12.28097z"/><path d="M271.00001,219.13542c5.47683,0 9.91667,4.7036 9.91667,10.50578c0,5.80218 -4.43985,10.50578 -9.91667,10.50578c-5.47682,0 -9.91666,-4.7036 -9.91666,-10.50578c0,-5.80218 4.43984,-10.50577 9.91666,-10.50577z"/></g><g fill="#ffaa2b" stroke="#c08021" stroke-width="2" stroke-linecap="butt"><path d="M201.75001,197.63542c0,4.24569 2.61271,11.36499 3.99344,15.16905c4.30684,11.86575 16.17644,18.16429 13.42322,18.16429c-1.93915,0 -11.60703,-2.79431 -18.65247,-9.29995c-6.16464,-5.69233 -9.93087,-14.53859 -9.93087,-22.70005c0,-8.45407 5.16278,-17.55649 11.59653,-23.15517c6.87581,-5.98336 15.10848,-8.17816 16.9868,-8.17816c2.90397,0 -10.08506,5.46666 -14.09011,17.71903c-1.00941,3.08802 -3.32655,8.76043 -3.32655,12.28097z"/><path d="M222.75001,226.64119c0,5.80218 -4.43984,10.50578 -9.91667,10.50578c-5.47682,0 -9.91667,-4.7036 -9.91667,-10.50578c0,-5.80218 4.43984,-10.50578 9.91667,-10.50578c5.47682,0 9.91667,4.7036 9.91667,10.50578z"/></g><path d="M253.17553,212.80209c4.2802,0 7.58333,0.06598 7.58333,15.43377c0,10.84868 0.68833,27.77693 -1.98095,35.60219c-1.11191,3.25969 -5.01039,3.26388 -6.26905,3.26388c-1.18703,0 -13.93994,2.39642 -14.89001,-0.54354c-0.27519,-0.85159 -0.08351,-5.24319 0.85945,-6.82424c1.35464,-2.27131 6.22785,-1.93361 6.49802,-3.94762c1.23361,-9.19595 0.28254,-19.45287 0.28254,-27.55068c0,-15.36779 3.63646,-15.43377 7.91667,-15.43377z" data-paper-data="{&quot;index&quot;:null}" fill="#ffaa2b" stroke="#c08021" stroke-width="2" stroke-linecap="butt"/><path d="M231.00887,209.80209c4.2802,0 7.58334,0.06598 7.58334,15.43377c0,10.84868 0.68833,27.77693 -1.98095,35.60219c-1.11192,3.25969 -5.01039,3.26388 -6.26905,3.26388c-1.18703,0 -13.93994,2.39642 -14.89001,-0.54354c-0.2752,-0.8516 -0.08351,-5.24319 0.85944,-6.82424c1.35464,-2.27131 6.22785,-1.93361 6.49802,-3.94762c1.2336,-9.19595 0.28254,-19.45287 0.28254,-27.55068c0,-15.36779 3.63646,-15.43377 7.91666,-15.43377z" data-paper-data="{&quot;index&quot;:null}" fill="#ffaa2b" stroke="#c08021" stroke-width="2" stroke-linecap="butt"/><path d="M271.65373,180c0,4.85807 -0.44014,9.31652 -1.26436,13.3613c-0.52297,2.56646 -4.03391,3.13305 -4.85183,5.36284c-0.44509,1.21339 1.9016,4.20974 1.37572,5.3218c-5.42127,11.4641 -15.01289,17.51278 -26.24658,17.51278c-17.48186,0 -32.32038,-14.64844 -32.32038,-41.55873c0,-5.13243 -0.30623,-9.65798 0.33474,-14.06552c0.31504,-2.16637 3.19226,-3.47089 4.1138,-5.63828c0.60297,-1.41813 -0.96571,-3.68224 0.00231,-5.14192c5.45753,-8.22941 15.09964,-21.87967 26.53621,-21.87967c17.48187,0 32.32039,19.8151 32.32039,46.72539z" fill="#ffaa2b" stroke="#c08021" stroke-width="2" stroke-linecap="butt"/><path d="M229.91668,192.05209c0,6.02911 -4.51446,10.91666 -10.08333,10.91666c-5.56887,0 -10.08334,-4.88755 -10.08334,-10.91666c0,-6.02911 4.51447,-10.91667 10.08334,-10.91667c5.56887,0 10.08333,4.88756 10.08333,10.91667z" fill="#cc8823" stroke="#c08021" stroke-width="0" stroke-linecap="butt"/><path d="M235.06426,208.05209c0,3.08359 -2.30892,5.58333 -5.15712,5.58333c-2.8482,0 -5.15713,-2.49974 -5.15713,-5.58333c0,-3.08359 2.30893,-5.58334 5.15713,-5.58334c2.8482,0 5.15712,2.49975 5.15712,5.58334z" fill="#cc8823" stroke="#c08021" stroke-width="0" stroke-linecap="butt"/><path d="M237.71566,187.96875c0,1.933 -1.44739,3.5 -3.23283,3.5c-1.78544,0 -3.23282,-1.567 -3.23282,-3.5c0,-1.933 1.44738,-3.5 3.23282,-3.5c1.78544,0 3.23283,1.567 3.23283,3.5z" fill="#cc8823" stroke="#c08021" stroke-width="0" stroke-linecap="butt"/><path d="M263.3904,149.94146c3.30325,6.37469 2.93343,13.12161 -0.826,15.06968c-3.75943,1.94807 -9.48486,-1.64042 -12.78811,-8.01511c-3.30325,-6.37469 -2.93344,-13.12161 0.82599,-15.06968c3.75943,-1.94807 9.48487,1.64042 12.78812,8.01511z" fill="#cc8823" stroke="none" stroke-width="0" stroke-linecap="butt"/><path d="M258.25001,170.13542c0,2.20914 -1.26853,4 -2.83334,4c-1.56481,0 -2.83333,-1.79086 -2.83333,-4c0,-2.20914 1.26852,-4 2.83333,-4c1.56481,0 2.83334,1.79086 2.83334,4z" fill="#cc8823" stroke="none" stroke-width="0" stroke-linecap="butt"/><path d="M247.25001,155.05209c0,3.26769 -2.61167,5.91666 -5.83334,5.91666c-3.22166,0 -5.83333,-2.64898 -5.83333,-5.91666c0,-3.26768 2.61167,-5.91667 5.83333,-5.91667c3.22166,0 5.83334,2.64899 5.83334,5.91667z" fill="#cc8823" stroke="none" stroke-width="0" stroke-linecap="butt"/><path d="M236.05001,168.60209c0,6.71946 -5.2099,12.36666 -11.88334,12.36666c-6.67344,0 -12.08333,-5.4472 -12.08333,-12.16666c0,-6.71946 -2.59011,-15.36667 4.08333,-15.36667c5.16444,0 16.2435,5.98095 20.08536,10.89555c1.12255,1.436 -0.20202,2.75171 -0.20202,4.27112z" fill="#fbfbfb" stroke="#000000" stroke-width="1.5" stroke-linecap="butt"/><path d="M269.41668,168.46875c0,6.71947 -5.4099,12.16666 -12.08334,12.16666c-6.67344,0 -12.08333,-3.8472 -12.08333,-10.56666c0,-6.71947 10.60982,-9.85298 16.28333,-13.36667c8.07344,-5 7.88334,5.0472 7.88334,11.76667z" fill="#fbfbfb" stroke="#000000" stroke-width="1.5" stroke-linecap="butt"/><path d="M230.47435,170.93359c0,0 3.1959,1.89482 2.61055,2.7155c-0.94966,1.33147 -2.53783,2.20409 -4.33672,2.20409c-2.90768,0 -5.26483,-2.27987 -5.26483,-5.09222c0,-2.81235 2.35715,-5.09221 5.26483,-5.09221c1.96003,0 3.66991,1.03596 4.57625,2.57264c0.43821,0.74296 -2.85008,2.69219 -2.85008,2.69219z" fill="#000000" stroke="none" stroke-width="0" stroke-linecap="butt"/><path d="M253.71718,170.55432c0,0 2.7431,1.62636 2.24069,2.33077c-0.8151,1.14282 -2.17827,1.89182 -3.72229,1.89182c-2.49572,0 -4.5189,-1.95685 -4.5189,-4.37074c0,-2.41389 2.02318,-4.37074 4.5189,-4.37074c1.68233,0 3.14994,0.88918 3.92788,2.20815c0.37612,0.6377 -2.44627,2.31076 -2.44627,2.31076z" fill="#000000" stroke="none" stroke-width="0" stroke-linecap="butt"/><path d="M240.21668,160.90209l-18.50701,-18.26667" fill="none" stroke="#000000" stroke-width="2.5" stroke-linecap="round"/><path d="M244.78335,158.56875l21.32083,-15.86666" fill="none" stroke="#000000" stroke-width="2.5" stroke-linecap="round"/><path d="M228.08335,202.30209c0,0 6.99169,-23.50755 11.19364,-23.60701c5.03534,-0.11918 16.97303,22.94034 16.97303,22.94034" fill="none" stroke="#000000" stroke-width="2.5" stroke-linecap="round"/><path d="M222.25001,202.80209l12.5,0.83333" fill="none" stroke="#000000" stroke-width="2.5" stroke-linecap="round"/><path d="M259.58333,201.80209l-8.83333,0.16666" fill="none" stroke="#000000" stroke-width="2.5" stroke-linecap="round"/><path d="M234.25001,234.80208c0,3.31371 -2.16396,6 -4.83333,6c-2.66938,0 -4.83333,-2.68629 -4.83333,-6c0,-3.31371 2.16396,-6 4.83333,-6c2.66938,0 4.83333,2.68629 4.83333,6z" fill="#cc8823" stroke="none" stroke-width="0" stroke-linecap="butt"/><path d="M236.41668,246.55208c0,2.34721 -1.49238,4.25 -3.33333,4.25c-1.84095,0 -3.33333,-1.90279 -3.33333,-4.25c0,-2.34721 1.49238,-4.25 3.33333,-4.25c1.84095,0 3.33333,1.90279 3.33333,4.25z" fill="#cc8823" stroke="none" stroke-width="0" stroke-linecap="butt"/><path d="M236.25001,227.96875c0,1.01252 -0.63426,1.83333 -1.41667,1.83333c-0.7824,0 -1.41667,-0.82081 -1.41667,-1.83333c0,-1.01252 0.63426,-1.83333 1.41667,-1.83333c0.7824,0 1.41667,0.82081 1.41667,1.83333z" fill="#cc8823" stroke="none" stroke-width="0" stroke-linecap="butt"/><path d="M256.41668,260.05208c0,2.7154 -2.08934,4.91667 -4.66667,4.91667c-2.57733,0 -4.66667,-2.20127 -4.66667,-4.91667c0,-2.7154 2.08934,-4.91667 4.66667,-4.91667c2.57733,0 4.66667,2.20127 4.66667,4.91667z" fill="#cc8823" stroke="none" stroke-width="0" stroke-linecap="butt"/><path d="M255.58334,248.96875c0,1.84095 -1.52969,3.33333 -3.41667,3.33333c-1.88697,0 -3.41667,-1.49238 -3.41667,-3.33333c0,-1.84095 1.52969,-3.33333 3.41667,-3.33333c1.88697,0 3.41667,1.49238 3.41667,3.33333z" fill="#cc8823" stroke="none" stroke-width="0" stroke-linecap="butt"/><path d="M259.41668,252.05208c0,0.87445 -0.67157,1.58333 -1.5,1.58333c-0.82843,0 -1.5,-0.70888 -1.5,-1.58333c0,-0.87445 0.67157,-1.58333 1.5,-1.58333c0.82843,0 1.5,0.70888 1.5,1.58333z" fill="#cc8823" stroke="none" stroke-width="0" stroke-linecap="butt"/><path d="M263.7,147.7625c0,10.05158 -10.65562,18.2 -23.8,18.2c-13.14438,0 -23.8,-8.14842 -23.8,-18.2c0,-10.05158 10.65562,-18.2 23.8,-18.2c13.14438,0 23.8,8.14842 23.8,18.2z" fill="url(#color-1)" stroke="none" stroke-width="0" stroke-linecap="butt"/><text transform="translate(256.7,160.5625) scale(0.5,0.5)" font-size="40" xml:space="preserve" fill="#b80000" fill-rule="nonzero" stroke="none" stroke-width="1" stroke-linecap="butt" stroke-linejoin="miter" stroke-miterlimit="10" stroke-dasharray="" stroke-dashoffset="0" font-family="Sans Serif" font-weight="normal" text-anchor="start" style="mix-blend-mode: normal"><tspan x="0" dy="0">#</tspan></text></g></g></svg>