<svg version="1.1" xmlns="http://www.w3.org/2000/svg" xmlns:xlink="http://www.w3.org/1999/xlink" width="231.44936" height="313.56744" viewBox="0,0,231.44936,313.56744"><defs><linearGradient x1="277.39167" y1="145.74064" x2="233.7085" y2="243.68789" gradientUnits="userSpaceOnUse" id="color-1"><stop offset="0" stop-color="#b87e5c"/><stop offset="1" stop-color="#b38d76"/></linearGradient><linearGradient x1="319.76813" y1="113.80187" x2="319.76813" y2="138.75045" gradientUnits="userSpaceOnUse" id="color-2"><stop offset="0" stop-color="#97674b"/><stop offset="1" stop-color="#d8bdad"/></linearGradient><linearGradient x1="296.54334" y1="204.98418" x2="296.54334" y2="322.9393" gradientUnits="userSpaceOnUse" id="color-3"><stop offset="0" stop-color="#b87e5c"/><stop offset="1" stop-color="#b38d76"/></linearGradient><linearGradient x1="324.28532" y1="207.04669" x2="348.98111" y2="322.38761" gradientUnits="userSpaceOnUse" id="color-4"><stop offset="0" stop-color="#b87e5c"/><stop offset="1" stop-color="#b38d76"/></linearGradient></defs><g transform="translate(-209.94362,-50.96409)"><g stroke-miterlimit="10"><path d="" fill="#ffffff" stroke="#000000" stroke-width="1.5" stroke-linecap="butt"/><path d="" fill="#000000" stroke="#000000" stroke-width="1.5" stroke-linecap="butt"/><path d="" fill="#ff7575" stroke="#000000" stroke-width="1.5" stroke-linecap="butt"/><path d="" fill="#ffb8c1" stroke="#d17b86" stroke-width="2" stroke-linecap="butt"/><g stroke="#7e563f" stroke-width="1.5" stroke-linecap="butt"><path d="M234.28361,243.2936c0,0 -17.43972,-5.65586 -16.16764,-8.5081c1.08536,-2.43362 20.78131,-1.83671 22.08047,-4.74974c2.15377,-4.82924 9.83758,-14.66739 14.44586,-26.3041c4.38292,-11.06763 5.62792,-23.79711 10.20749,-34.06552c6.49851,-14.57108 12.87491,-23.77699 12.87491,-23.77699c0,0 4.70784,0.15332 9.67662,2.36933c4.92037,2.19442 6.30769,4.75946 6.30769,4.75946c0,0 2.07758,-2.47636 -4.96999,28.60003c-3.75518,7.28768 -11.622,10.26395 -19.49403,25.70393c-9.99977,19.61325 -18.97706,43.10047 -18.97706,43.10047z" fill="url(#color-1)"/><path d="M211.12747,235.23696l0.24134,-0.54113c0,0 4.61793,-4.36154 10.48386,-5.76771c4.00087,-0.95908 12.6523,-1.90426 15.27241,-1.4948c7.82991,1.22364 21.29037,6.51088 21.29037,6.51088l-8.99223,18.37215z" fill="#9a8172"/></g><path d="M330.32531,145.65372c0.76941,-0.40198 1.8828,-0.59801 3.12872,0.39873c2.3426,1.87409 0.46852,4.21669 0.46852,4.21669l-4.31444,1.91763c-1.16582,-0.58309 -2.61792,-0.78722 -3.49747,-1.74926c-1.2963,-1.41787 -2.44279,-7.21287 -2.07581,-8.73003c0.26945,-1.11395 1.76135,-1.52251 2.36165,-2.49879c1.03769,-1.68762 0.33093,-3.95876 1.25101,-5.65336c0.02932,-0.054 0.05899,-0.1078 0.08898,-0.16138l-0.03976,-0.01255l1.20639,-3.82024c0.3627,-1.24893 1.51541,-2.1618 2.88133,-2.1618c0.37829,0 0.74022,0.07002 1.07355,0.1978c0.25065,-0.87979 0.55494,-1.65544 0.79012,-2.1079c0.54282,-1.04432 1.65084,-1.6808 2.41387,-2.57691c0.73582,-0.86416 1.19428,-1.98489 2.07745,-2.69779c0.71536,-0.57743 2.12837,-0.22595 2.55408,-1.04077c0.3641,-0.69688 -1.08533,-1.44074 -0.86349,-2.19506c0.58465,-1.98799 1.34723,-4.07179 2.65564,-5.67517c-0.00014,-1.32249 -0.00025,-4.90662 0.00291,-5.27136l-0.03317,-0.34831c-0.19005,-0.34047 -0.31569,-0.72179 -0.36044,-1.12747l-0.39819,-3.18552c-0.01914,-0.13694 -0.02903,-0.27684 -0.02903,-0.41905c0,-1.65685 1.34314,-3 3,-3c0.07635,0 0.15202,0.00285 0.22694,0.00845l-1.85232,-1.23488c-0.82711,-0.53416 -1.37462,-1.46412 -1.37462,-2.52196c0,-1.06085 0.55063,-1.99309 1.38168,-2.52651c-1.76475,-1.40242 -3.37192,-3.0845 -3.41319,-4.14258c-0.00765,-0.19608 0.04566,-0.35531 0.14484,-0.48679c-1.39738,-2.4727 1.06491,-3.98795 1.06491,-3.98795l2.61806,-1.61111c0.46573,-0.29748 1.01907,-0.46989 1.61269,-0.46989c1.65686,0 3,1.34315 3,3c0,0.68629 -0.23044,1.31876 -0.61818,1.82425l-0.80953,1.07937c0.0043,0.00169 0.00853,0.0035 0.01268,0.00543c1.46303,0.68045 3.04537,1.31802 4.14671,2.49721c1.31793,1.4111 3.60555,3.23671 2.87975,5.02594c-0.33605,0.82842 -1.03983,1.31337 -1.89443,1.65744c1.77215,3.21952 1.27687,8.82581 -1.71479,10.32957c-0.57574,0.28939 -1.19363,0.37338 -1.83391,0.34824c0.20312,1.29997 0.24071,2.79214 0.24071,5.04409v3.68094c0,1.42311 -0.9909,2.61478 -2.32038,2.92269c0.38682,0.91935 0.57396,2.06579 0.02267,3.19047c-0.73674,1.50299 -2.77038,1.90254 -3.98982,3.04915c-1.20488,1.13293 -2.44543,2.29505 -3.27956,3.72315c-1.86138,3.18686 2.03706,10.74148 -5.74792,10.55379c-0.16955,-0.00409 -0.32959,-0.02865 -0.48132,-0.07112c-0.52832,1.74093 -1.13953,3.43318 -1.2429,3.60944c-0.35307,0.60208 -1.47801,0.5306 -1.72827,1.18215c-0.28024,0.72961 0.07393,1.46067 0.60709,2.0229z" fill="#463124" stroke="none" stroke-width="0.5" stroke-linecap="butt"/><path d="M364.73385,201.70116c6.68016,3.80591 14.73551,16.54939 14.73551,16.54939c0,0 1.45233,1.93099 3.02392,4.61846c1.62184,2.77342 3.91286,7.47202 4.32356,10.56591c0.19849,1.49526 -2.19039,-0.8727 -3.21397,-0.05725c-0.47023,0.37462 -0.3573,2.57795 -0.52168,3.20212c-0.2543,0.96566 -1.20805,-0.52134 -1.75164,-0.717c-0.93667,-0.33716 -0.62637,3.25914 -1.75335,1.49536c-1.92361,-3.01054 -5.16594,-11.87657 -5.16594,-11.87657c0,0 -10.80982,-11.90443 -17.87125,-16.25276c-4.04654,-2.4918 -11.19276,-5.38129 -17.11484,-7.57915c3.16114,-0.60761 5.79281,-2.70373 7.1371,-5.53046c6.45465,1.36062 14.22504,3.33291 18.1726,5.58197z" fill="#463124" stroke="#302219" stroke-width="1.5" stroke-linecap="butt"/><path d="M329.55441,198.18799l0.16816,-0.10344c0.05899,0.0735 0.119,0.14614 0.18001,0.21792c-0.22699,-0.07503 -0.34817,-0.11447 -0.34817,-0.11447z" fill="#463124" stroke="#302219" stroke-width="1.5" stroke-linecap="butt"/><path d="M310.24924,150.50779v-23.19375h18.37757v23.19375z" fill="#b87e5c" stroke="#7e563f" stroke-width="1.5" stroke-linecap="butt"/><path d="M347.25171,101.93644c0,15.89227 -12.4324,32.90192 -27.51627,32.90192c-15.08387,0 -27.10728,-17.00965 -27.10728,-32.90192c0,-15.89227 12.2279,-31.71228 27.31178,-31.71228c15.08387,0 27.31178,15.82001 27.31178,31.71228z" fill="#b87e5c" stroke="#7e563f" stroke-width="1.5" stroke-linecap="butt"/><path d="M333.6739,126.27616c0,6.88936 -6.22582,12.4743 -13.90577,12.4743c-7.67994,0 -13.90578,-5.58493 -13.90578,-12.4743c0,-6.88936 7.11302,-20.20554 14.79296,-20.20554c7.67994,0 13.01858,13.31618 13.01858,20.20555z" fill="url(#color-2)" stroke="#7e563f" stroke-width="1.5" stroke-linecap="butt"/><path d="M330.34798,131.43757c0,3.27527 -6.90869,6.54389 -11.14257,6.54389c-4.23388,0 -9.71109,-3.47312 -9.71109,-6.74839c0,-3.27527 5.47721,-1.63597 9.7111,-1.63597c4.23388,0 11.14257,-1.4348 11.14257,1.84047z" fill="#463124" stroke="#302219" stroke-width="1.5" stroke-linecap="butt"/><path d="M314.17825,133.90462l2.4081,2.02786" fill="none" stroke="#302219" stroke-width="1.5" stroke-linecap="round"/><path d="M322.92344,135.4255l3.0418,-1.64764" fill="none" stroke="#302219" stroke-width="1.5" stroke-linecap="round"/><path d="M300.10991,91.69959l10.26609,-0.25348" fill="none" stroke="#302219" stroke-width="1.5" stroke-linecap="round"/><path d="M330.40119,91.69959l10.39283,-0.38022" fill="none" stroke="#302219" stroke-width="1.5" stroke-linecap="round"/><path d="M343.00572,101.04216c0,6.34399 -3.48978,10.25608 -7.79462,10.25608c-4.30485,0 -7.79462,-3.91209 -7.79462,-10.25608c0,-6.34399 3.48977,-7.38438 7.79462,-7.38438c4.30485,0 7.79462,1.04039 7.79462,7.38438z" fill="#ff3e3e" stroke="#000000" stroke-width="1" stroke-linecap="butt"/><path d="M340.54426,105.00785c0,2.8699 -2.08161,5.19642 -4.64943,5.19642c-2.56781,0 -4.64943,-2.32652 -4.64943,-5.19642c0,-2.8699 2.08161,-5.19642 4.64943,-5.19642c2.56781,0 4.64943,2.32652 4.64943,5.19642z" fill="#000000" stroke="#000000" stroke-width="1" stroke-linecap="butt"/><path d="M313.02498,101.09923c0,6.34399 -3.48978,10.25608 -7.79462,10.25608c-4.30485,0 -7.79462,-3.91209 -7.79462,-10.25608c0,-6.34399 3.48977,-7.38438 7.79462,-7.38438c4.30485,0 7.79462,1.04039 7.79462,7.38438z" fill="#ff3e3e" stroke="#000000" stroke-width="1" stroke-linecap="butt"/><path d="M310.56352,105.06492c0,2.8699 -2.08161,5.19642 -4.64943,5.19642c-2.56781,0 -4.64943,-2.32652 -4.64943,-5.19642c0,-2.8699 2.08161,-5.19642 4.64943,-5.19642c2.56781,0 4.64943,2.32652 4.64943,5.19642z" fill="#000000" stroke="#000000" stroke-width="1" stroke-linecap="butt"/><g stroke-linecap="butt"><path d="M339.11809,80.07976c0,0 1.23909,-6.45 3.83195,-9.85596c2.42921,-3.191 11.26629,-9.97699 11.26629,-9.97699l1.13122,5.28741c0,0 -1.11207,11.70792 -2.78397,14.98789c-1.902,3.73137 -8.02699,6.22123 -8.02699,6.22123z" fill="#997764" stroke="#4e3527" stroke-width="1.5"/><path d="M350.00879,69.37862c0.2277,-0.01976 0.44716,0.00906 0.661,0.07087l0.03748,-0.14436l1.46805,0.38109c0.50396,0.12519 0.83302,0.62046 0.74334,1.1403c-0.07488,0.43403 -0.41904,0.75411 -0.83139,0.81833l-0.80195,0.14422c-0.12971,0.08823 -0.28013,0.14619 -0.43988,0.16584c-0.00386,0.03936 -0.00789,0.0783 -0.01211,0.11685c0.13196,0.15287 0.22027,0.32261 0.2234,0.5253c0.00281,0.18237 -0.15619,0.24988 -0.36259,0.29104c-0.14191,0.56419 -0.38725,1.06051 -0.84504,1.58602c-0.03785,0.31356 -0.33306,0.56942 -0.56288,0.84678c-0.08774,0.36503 -0.17496,0.67841 -0.26319,0.8863c-0.00915,0.02156 -0.01873,0.04305 -0.02871,0.06446c0.10873,0.70214 0.36471,1.43222 -0.75412,2.15152c-0.0521,0.51864 -0.05683,1.07879 -0.03197,1.75059l-0.50346,-0.10237c0.06648,0.18165 0.09048,0.35252 0.03692,0.49742c-0.08859,0.23971 -0.28549,0.38442 -0.52673,0.49023c-0.01205,0.04663 -0.02606,0.09171 -0.04185,0.13458l0.23176,0.63827c0.06248,0.16262 0.08326,0.34368 0.05149,0.52782c-0.09389,0.54425 -0.61121,0.90933 -1.15545,0.81543c-0.16551,-0.02855 -0.31446,-0.09627 -0.43896,-0.19199l-0.89678,-0.66004l0.0322,-0.04375c-0.79433,-0.41164 -1.32995,-1.08808 -0.85034,-2.442c0.13743,-0.38796 0.71654,-0.18733 1.19828,-0.15814l0.01866,-0.02287c-0.03844,-0.25575 -0.10445,-0.50684 -0.18355,-0.73564l0.05462,-0.00138c-0.06286,-0.27025 -0.08313,-0.61252 0.03602,-1.00485c-0.24536,-0.46725 -0.4157,-0.92801 -0.20059,-1.24205c0.43457,-0.63445 1.88936,-0.31425 2.04532,-1.06728c0.08489,-0.4099 0.16694,-0.86713 0.26126,-1.33931l-0.11711,-0.12409c-0.21362,-0.22151 -0.32249,-0.53832 -0.26616,-0.86482c0.07502,-0.43485 0.42035,-0.75532 0.83375,-0.81869c0.12358,-0.3773 0.26853,-0.73678 0.44331,-1.06036l-0.11347,-0.16078l0.36827,-0.2599c-0.06597,-0.02691 -0.13195,-0.05382 -0.19792,-0.08073c0,0 -0.92509,-0.37974 -0.54536,-1.30483c0.37973,-0.92509 1.30482,-0.54537 1.30482,-0.54537c0.27765,0.11461 0.55531,0.22924 0.83296,0.34385c0.02868,-0.00502 0.05822,-0.00887 0.08864,-0.01151z" fill="#49392f" stroke="none" stroke-width="0.5"/></g><path d="M324.76551,77.2502l0.09283,-0.01833l0.51205,2.59307c0.13718,0.63812 0.05823,1.28475 -0.19584,1.85233c0.07919,0.26327 0.14175,0.54339 0.18624,0.8414c0.00992,0.06645 -0.11358,0.31398 -0.33729,0.67249c0.78524,2.79005 0.2754,5.55795 -2.89451,7.83924c-2.8222,2.03105 -8.39943,4.00714 -10.02298,-2.23733c-0.08462,-0.32545 -0.00854,-0.7362 0.1865,-1.1951c-0.06103,-0.11717 -0.11502,-0.23974 -0.16126,-0.36735c-0.24822,-0.68509 -0.23153,-1.40164 -0.00241,-2.03747l0.45783,-1.30204l-2.61408,-0.05115c-1.23122,0.0046 -2.38841,-0.75482 -2.8319,-1.97885c-0.47179,-1.30212 0.01345,-2.71786 1.09524,-3.47709c-0.00233,-0.03284 -0.00166,-0.06811 0.0022,-0.10597c0.43014,-4.22654 6.09137,-9.49371 10.79195,-7.79631c0.92846,0.33527 1.42299,0.94741 1.63244,1.6277c1.0732,-0.15583 1.82604,0.28591 2.32062,0.79243c0.72076,0.18992 1.46599,0.69694 1.89471,1.88018c0.37813,1.04363 0.2302,1.84102 -0.10627,2.43151z" fill="#463124" stroke="none" stroke-width="0.5" stroke-linecap="butt"/><path d="M296.94437,322.28559c0,0 -20.05152,2.13152 -20.05152,-1.30335c0,-2.93073 20.05152,-11.1546 20.05152,-14.66268c0,-5.63732 3.11086,-18.32971 2.76971,-31.62908c3.55436,-1.56191 6.25786,-5.91694 6.28378,-9.23296c0.01722,-2.20256 -0.27545,-4.11938 -0.8302,-5.72832c1.06799,-1.5911 1.69106,-3.50587 1.69106,-5.56617c0,-0.80343 -0.09475,-1.58473 -0.27368,-2.33333c0.17893,-0.74861 0.27368,-1.5299 0.27368,-2.33333c0,-5.52285 -4.47715,-10 -10,-10c-0.67526,0 -1.33488,0.06693 -1.9726,0.19451c-0.14157,-1.70094 -0.22261,-3.38712 -0.22261,-5.0555c0,-17.54754 2.28087,-29.6512 2.28087,-29.6512h19.24946c0,0 11.07847,-3.09233 9.12345,31.60622c-0.50723,9.00258 -8.3793,14.8647 -9.36972,33.90033c-1.25812,24.18078 0.24627,51.79485 0.24627,51.79485z" fill="url(#color-3)" stroke="#7e563f" stroke-width="1.5" stroke-linecap="butt"/><path d="M270.07533,324.56646v-0.65169c0,0 2.6847,-6.44982 7.94697,-10.49012c3.58913,-2.75569 11.85587,-7.5808 14.67115,-8.34327c8.41314,-2.27856 24.30245,-2.9977 24.30245,-2.9977l-0.80207,22.48277z" fill="#9a8172" stroke="#7e563f" stroke-width="1.5" stroke-linecap="butt"/><path d="M354.2364,299.99775c0,0 -1.82752,8.94905 -2.54666,5.59031c-0.61359,-2.86579 -5.06159,3.8945 -5.79607,0.46418c-1.21762,-5.68682 -0.76979,-19.40911 -4.22045,-32.73524c-3.2819,-12.67443 -10.4291,-24.7908 -13.0181,-36.8827c-3.67386,-17.15865 -3.97764,-29.47158 -3.97764,-29.47158l18.82283,-4.03019c0,0 10.18552,-5.34326 15.53852,28.99561c1.38885,8.90925 -5.08142,16.28961 -2.06449,35.11071c3.8324,23.90829 4.41821,26.92872 4.41821,26.92872z" fill="url(#color-4)" stroke="#7e563f" stroke-width="1.5" stroke-linecap="butt"/><path d="M351.02539,189.73695c0.06407,1.33757 1.76321,1.88825 1.68116,3.65218c-0.09475,2.03718 -0.81005,4.03213 -1.74807,5.96915l0.01768,0.02063l0.07556,0.06477l0.93333,0.46667l0.34095,0.29224l0.27397,0.01522l0.70952,0.82778l0.82778,0.70952l0.01522,0.27397l0.29224,0.34095l0.17285,0.34569l0.05364,0.03065l0.03831,0.15325l0.06854,0.13707l0.27415,1.23366l0.3065,1.22602l0,0.15325l0.03427,0.15421l-0.03427,0.0514v1.28228l0.03427,0.0514l-0.03427,0.15421v0.15325l-0.3065,1.22602l-0.27415,1.23366l-0.06854,0.13707l-0.03831,0.15325l-0.05364,0.03065l-0.66471,1.32942l-0.20973,0.62919l-1.52185,2.39147l-0.62811,0.12562l-0.3178,0.55615l-2.75,0.6875l-1.31992,0l-0.12073,0.02683l-1.22602,0.3065h-0.15325l-0.15421,0.03427l-0.0514,-0.03427h-6.3078l-0.85773,-0.21443l-0.88152,-0.06781l-0.15327,-0.05109h-0.10747l-0.85773,-0.21443l-0.88152,-0.06781l-1.65955,-0.55318l-0.0596,0.01625l-0.13546,-0.08127l-0.14539,-0.04846l-1.06618,-0.67848l-0.20391,-0.12235l-0.3246,-0.08115l-2.198,-1.17226l-0.16397,-0.03279l-0.05265,-0.08274l-0.08653,-0.04615l-0.04527,-0.16097l-0.03223,-0.05064l-0.16806,0.33611l-0.29224,0.34095l-0.01522,0.27397l-0.82778,0.70952l-0.70952,0.82778l-0.27397,0.01522l-0.34095,0.29224l-0.66667,0.33333l-0.34395,0.07643l-0.55997,0.55997l-0.93043,0.55826l-0.20866,0.36516l-0.6856,0.1714l-0.60599,0.36359l-0.40575,-0.11066l-1.05266,0.26316h-6l-0.53145,-0.13286l-0.54719,0.02606l-1.13264,-0.22653l-1.45539,0l-0.85773,-0.21443l-0.88152,-0.06781l-0.15327,-0.05109h-10.77414l-0.85773,-0.21443l-0.88152,-0.06781l-1,-0.33333l-0.91542,-0.58254l-0.41992,-0.02333l-0.45992,-0.53657l-0.59622,-0.37941l-0.08248,-0.4124l-0.70614,-0.82383l-0.50618,-1.01236l-0.05364,-0.03065l-0.03831,-0.15325l-0.06854,-0.13707l-0.27415,-1.23366l-0.3065,-1.22602v-0.15325l-0.03427,-0.15421l0.03427,-0.0514v-1.94894l-0.03427,-0.0514l0.03427,-0.15421v-0.15325l0.3065,-1.22602l0.27415,-1.23366l0.06854,-0.13707l0.03831,-0.15325l0.05364,-0.03065l0.23951,-0.47902l0.26667,-1.2l0.06854,-0.13707l0.03831,-0.15325l0.05364,-0.03065l0.4737,-0.94739l-0.0058,-0.08411l0.45763,-0.5034v-15.67104l-0.02683,-0.12073l-0.3065,-1.22602v-0.10747l-0.05109,-0.15327l-0.06781,-0.88152l-0.49408,-1.97631l-0.41669,-1.16673l0.08334,-0.16668l-0.05367,-0.21468v-1.44081l-0.05109,-0.15327l-0.06781,-0.88152l-0.21443,-0.85773v-3.31992l-0.02683,-0.12073l-0.3065,-1.22602v-0.15325l-0.03427,-0.15421l0.03427,-0.0514l0,-7.96406l-0.35602,-1.42408l-0.06333,-0.12666l-0.27415,-1.23366l-0.3065,-1.22602v-0.15325l-0.03427,-0.15421l0.03427,-0.0514v-0.14254l-0.07628,-0.11441l-0.24708,-0.69183l-0.3944,-0.61977l-0.20973,-0.62919l-0.15853,-0.31706l-0.08588,-0.38644l-0.21253,-0.33398l-0.3818,-1.14539l-0.07775,-0.12958l-0.18048,-0.21056l-0.06261,-0.06261l-0.21056,-0.18048l-0.75813,-0.45488l-0.25959,-0.25959l-0.60132,-0.15033l-0.75,-1.3125l-1.3125,-0.75l-0.37165,-1.48659l-0.06854,-0.13707l-0.27415,-1.23366l-0.3065,-1.22602l0,-0.15325l-0.03427,-0.15421l0.03427,-0.0514v-2.61561l-0.03427,-0.0514l0.03427,-0.15421v-0.15325l0.3065,-1.22602l0.27415,-1.23366l0.06854,-0.13707l0.03831,-0.15325l0.05283,-0.03019l0.09509,-0.28528l-0.01625,-0.0596l0.08127,-0.13546l0.04846,-0.14539l0.67848,-1.06618l0.65019,-1.08366l0.10837,-0.10837l0.08481,-0.13327l0.06058,-0.01212l0.77755,-0.77755l1.44985,-1.6915l0.21684,-0.01205l0.10775,-0.18856l2.75,-0.6875h1.66667l1.05266,0.26316l0.40575,-0.11066l0.60599,0.36359l0.6856,0.1714l0.20866,0.36516l0.93043,0.55826l0.47918,0.47918l0.38259,0.21862l0.1228,-0.0614l0.38644,-0.08588l0.33398,-0.21253l1,-0.33333l0.88152,-0.06781l0.85773,-0.21443l0.97447,0l0.0514,-0.03427l0.15421,0.03427h0.15325l1.22602,0.3065l1.23366,0.27415l0.13707,0.06854l0.15325,0.03831l0.03019,0.05283l0.45659,0.1522l1.84656,0.46164l0.10775,0.18856l0.21684,0.01205l1.84476,2.15222l0.33333,0.66667l0.05063,0.22783l0.13664,0.1892l0.50299,1.25749l0.70593,1.17654l0.72743,1.09114l0.02967,0.01748h1.23517l0.0514,-0.03427l0.15421,0.03427h0.15325l1.22602,0.3065l1.23366,0.27415l0.13707,0.06854l0.15325,0.03831l0.03065,0.05364l0.66782,0.33391l0.42646,-0.25588l0.40575,0.11066l1.05266,-0.26316l0.28008,0l0.54019,-1.14041l0.93877,-0.31292l0.49095,-0.85917l2.75,-0.6875h0.66667l2.75,0.6875l0.5625,0.98437l0.02083,-0.00521h0.10747l0.15327,-0.05109l0.88152,-0.06781l0.85773,-0.21443l3.20833,0l0.17277,-0.69106l0.06781,-0.88152l0.33333,-1l0.21253,-0.33398l0.08588,-0.38644l0.96752,-1.93503l-0.0058,-0.08411l0.95709,-1.05279l0.92595,-1.08028l0.08418,-0.00468l0.93956,-0.62638l0.2084,-0.07443l0.09245,-0.1618l1.20191,-0.30048l1.16673,-0.41669l0.16668,0.08334l0.21468,-0.05367h2.3078l0.0514,-0.03427l0.15421,0.03427h0.15325l1.22602,0.3065l1.23366,0.27415l0.13707,0.06854l0.15325,0.03831l0.03065,0.05364l0.28073,0.14036l0.08411,-0.0058l0.07586,0.06896l0.38092,-0.09523l0.60599,-0.36359l0.40575,0.11066l1.05266,-0.26316h3.66667l0.21468,0.05367l0.16668,-0.08334l1.16673,0.41669l1.20191,0.30048l0.09245,0.1618l0.2084,0.07443l1.8911,1.26074l1.55444,0.93266l0.47877,0.47877l0.58059,0.34836l0.6149,0.6149l0.16158,0.10772l0.04625,-0.00098l0.09546,0.09546l0.24357,0.16238l0.8119,0.89309l0.85346,0.85346l0.15061,0.25102l0.09081,0.09989l-0.00318,0.04615l0.76176,1.2696l0.06279,0.20631l0.14035,0.16374l0.33333,0.66667l0.03588,0.16145l0.10007,0.13167l0.7476,1.7444l0.0096,0.00549l0.01015,0.0406l0.23265,0.54285l0.17625,1.09274l0.26845,1.07382l0,0.5906l0.00666,0.04131l-0.00666,0.00882v0.01552l0.16912,0.67647v0.13411l0.05741,0.1212l0.66667,3.33333l-0.02606,0.54719l0.13286,0.53145l0,9.03132l0.69828,0.6348l1.08028,0.92595l0.00468,0.08418l0.32428,0.48642l0.02782,0.02782l0.06058,0.01212l0.08481,0.13327l0.10837,0.10837l0.01524,0.0254l0.01534,0.00767l0.53452,0.13363l1.78334,0.29722l0.20558,0.08938h0.22417l1.33333,0.33333l0.33383,0.17804l0.37487,0.05112l1.61117,0.64447l2.6107,0.97901l0.08369,0.05771l0.10052,0.01517l4,1.66667l0.32581,0.24246l0.38853,0.11825l3.15221,1.89132l1.14441,0.5722l0.44425,0.38078l0.5319,0.24379l1.66667,1.33333l0.18769,0.24635l0.26557,0.15934l2,2l0.45488,0.75813l0.57538,0.67128l0.08602,0.17203l0.00754,0.00566l0.06168,0.00343l0.1028,0.11994l0.1226,0.09195l0.79691,0.98081l0.34905,0.40722l0.59669,0.23868l0.08628,0.06231l0.10483,0.01835l1.18342,0.52596h7.58282l0.21468,0.05367l0.16668,-0.08334l1.16673,0.41669l1.20191,0.30048l0.09245,0.1618l0.2084,0.07443l0.71509,0.47673l1.69373,0.84687l0.26388,0.22618l0.3273,0.11689l3,2l0.35171,0.38688l0.29335,0.05867l0.56003,0.88005l0.70169,0.77186l-0.02058,0.29845l0.28071,0.44111l0.20973,0.62919l0.8252,1.65039l0.1314,0.59128l0.28504,0.53445l0.2821,1.12841l0.59987,1.79961l0.01654,0.21502l0.10149,0.19029l0.1869,0.74761l0.06333,0.12666l0.27415,1.23366l0.3065,1.22602l0,0.15325l0.03427,0.15421l-0.03427,0.0514l0,3.24195l0.05268,-0.02634l0.03065,-0.05364l0.15325,-0.03831l0.13707,-0.06854l1.23366,-0.27415l1.22602,-0.3065h0.15325l0.15421,-0.03427l0.0514,0.03427h1.08194l0.15327,-0.05109l0.88152,-0.06781l0.85773,-0.21443l5.97447,0l0.0514,-0.03427l0.15421,0.03427h0.15325l1.22602,0.3065l1.23366,0.27415l0.13707,0.06854l0.15325,0.03831l0.03065,0.05364l0.34569,0.17285l0.34095,0.29224l0.27397,0.01522l0.70952,0.82778l0.82778,0.70952l0.01522,0.27397l0.29224,0.34095l0.51353,1.02707l0.47673,0.71509l0.31657,0.8864l0.44293,0.8305l0.33333,1.33333v0.67708l0.16422,0.65686l0,0.31992l0.02683,0.12073l0.3065,1.22602v0.15325l0.03427,0.15421l-0.03427,0.0514v0.97447l-0.6875,2.75l-0.55615,0.3178l-0.12562,0.62811l-2.39147,1.52185l-1,0.33333l-0.21502,0.01654l-0.19029,0.10149l-1.12841,0.2821l-0.4288,0.14293l-0.18543,0.09271l-0.03555,0.03555l-0.75813,0.45488l-0.67128,0.57538l-1.33333,0.66667l-0.59128,0.1314l-0.53445,0.28504l-0.67577,0.16894l-0.60733,0.40488l-0.3273,0.11689l-0.26388,0.22618l-1.33333,0.66667l-0.38644,0.08588l-0.33398,0.21253l-0.62919,0.20973l-0.31706,0.15853l-0.38644,0.08588l-0.33398,0.21253l-0.13409,0.0447l-0.50054,0.48833l-3.97904,2.3211l-0.04225,0.07394l-1.35721,0.3393l-0.96121,0.27963l-0.35899,0.11966l-0.88152,0.06781l-0.85773,0.21443h-5.66667l-0.53145,-0.13286l-0.54719,0.02606l-1.13264,-0.22653h-0.12206l-1.22602,-0.3065l-1.23366,-0.27415l-0.13707,-0.06854l-0.15325,-0.03831l-0.03065,-0.05364l-0.34019,-0.1701l-0.33756,0.09206l-0.60599,-0.36359l-0.6856,-0.1714l-0.20866,-0.36516l-0.93043,-0.55826l-0.26298,-0.26298l-0.25586,-0.01421l-0.70952,-0.82778l-0.58746,-0.50354l-0.03635,-0.00202l-0.09414,-0.10983l-0.10983,-0.09414l-0.00202,-0.03635l-0.71997,-0.83997l-0.95709,-1.05279l0.0058,-0.08411l-0.14036,-0.28073l-0.05364,-0.03065l-0.03831,-0.15325l-0.06854,-0.13707l-0.27415,-1.23366l-0.3065,-1.22602v-0.15325l-0.03427,-0.15421l0.03427,-0.0514v-2.63072l-0.16912,-0.67647v-0.67708l-0.16422,-0.65686l0,-1.10747l-0.38442,-1.15327l-0.01654,-0.21502l-0.10149,-0.19029l-0.22645,-0.90579l-0.62748,-1.46413l-0.38656,-0.57984l-0.11689,-0.3273l-0.13142,-0.15333l-0.63508,-0.31754l-0.67128,-0.57538l-0.12958,-0.07775l-0.945,-0.315l-1.00144,-0.25036l-3.205,-0.641l-0.31409,-0.14878l-0.34652,-0.02666l-2,-0.66667l-0.13953,-0.08879l-0.16387,-0.02235l-1.32009,-0.52804l-0.84424,-0.21106l-1.53833,-0.30767l-0.66391,-0.31448l-0.71713,-0.15936l-0.31706,-0.15853l-0.62919,-0.20973l-0.33398,-0.21253l-0.38644,-0.08588l-2.66667,-1.33333l-0.67128,-0.57538l-0.75813,-0.45488l-0.03555,-0.03555l-0.53503,-0.26752l-0.26388,-0.22618l-0.3273,-0.11689l-1,-0.66667l-0.3685,-0.40534l-0.46974,-0.28184l-0.66667,-0.66667l-0.09707,-0.16178l-0.08707,-0.05541l-0.01051,-0.00234l-0.04133,0.01127l-0.05415,-0.03249l-0.28045,-0.06232l-0.66667,-0.33333l-0.67128,-0.57538l-0.75813,-0.45488l-0.36889,-0.36889l-1.86837,-0.93418l-0.26388,-0.22618l-0.3273,-0.11689l-1,-0.66667l-0.72639,-0.79903l-0.79903,-0.72639l-0.66667,-1l-0.11689,-0.3273l-0.22618,-0.26388l-0.1802,-0.3604l-0.34433,-0.5165l-1.18423,-1.48029l-0.24379,-0.5319l-0.38078,-0.44425l-1.5984,-3.19679l-1.25759,-2.20079l-0.18029,-0.64102l-0.33276,-0.57678l-0.6134,-2.14692l-1.26708,-3.48446l-0.01672,-0.16048l-0.08246,-0.13869l-0.91027,-3.03422l-0.87699,-2.0463l-0.11557,-0.71656l-0.27385,-0.67218l-0.29321,-2.05246l-0.13837,-0.55348l-0.17146,0.68586l-0.06781,0.88152l-0.05109,0.15327v0.77414l-0.21443,0.85773l-0.06781,0.88152l-0.05109,0.15327v0.41528l0.03427,0.0514l-0.03427,0.15421v0.15325l-0.3065,1.22602l-0.27415,1.23366l-0.06854,0.13707l-0.03831,0.15325l-0.05364,0.03065l-0.23617,0.47235l-0.01615,0.06461l0.02773,0.0416l-0.03427,0.15421v0.15325l-0.3065,1.22602l-0.02683,0.12073v0.65325l-0.21443,0.85773l-0.06781,0.88152l-0.05109,0.15327v0.10747l-0.06138,0.24553l0.48073,0.96146l0.17823,0.80203l0.32759,0.75346l0.33333,2l-0.03666,0.45823l0.11149,0.44597v0.56821c0.2927,1.52067 0.25903,3.12112 0.33333,4.67238zM316.26194,197.88349l0.09678,-0.06049v-0.32664z" fill="#711b1b" stroke="none" stroke-width="0.5" stroke-linecap="butt"/><path d="M239.46553,222.08439c0.80123,-1.69149 1.16333,-2.72422 2.252,-4.5924c1.6207,-2.78117 5.9809,-12.54947 8.72083,-13.09746c7.86285,-1.57257 7.72261,7.57021 9.19176,12.51032c3.36351,11.31002 4.82175,18.94973 -2.42743,28.72246c-1.10285,1.48677 -1.35459,3.50764 -2.54658,4.89829c-2.65108,3.09292 -5.34778,5.53363 -10.13073,4.47075c-4.87418,-1.08315 -8.68631,-5.26721 -12.95658,-7.84244c-7.04316,-4.24744 -20.83128,-1.28102 -21.54342,-12.97748c-0.09785,-1.60705 -0.18146,-3.26361 0.20903,-4.82556c0.35104,-1.40415 2.82555,-2.907 4.21838,-3.40561c2.84113,-1.01707 9.39843,-3.98318 13.09846,-3.98318c4.12678,0 7.78444,4.2182 11.67932,1.29704z" fill="#711b1b" stroke="none" stroke-width="0.5" stroke-linecap="butt"/><path d="M290.02539,240.16303c0,-2.75489 2.02545,-5.03671 4.66843,-5.43755l0.06557,-0.05207l0.16327,0.02226c0.19794,-0.02157 0.39904,-0.03265 0.60272,-0.03265c0.76617,0 1.49575,0.15666 2.15846,0.4397l1.55086,0.62034l0.4664,0.33684l0.5418,0.1935l0.28564,0.19043l1.50781,0.4308l0.19572,0.11291l0.22449,0.02566l2.66667,1l0.24178,0.16675l0.28671,0.06371l0.79333,0.39666l0.74761,0.1869l0.75894,0.40477l0.38593,-0.02662l0.61861,0.56237l0.73767,0.39342l0.10474,0.3724l0.63644,0.57859l0.36457,0.54686l1.36115,1.36115l0.06058,0.01212l0.08481,0.13327l0.10837,0.10837l0.65019,1.08366l0.02095,0.03292l4.7731,-2.72749l4.8125,2.75l0.6875,2.75v2.3078l0.03427,0.0514l-0.03427,0.15421v1.15325l-0.14691,0.58762l0.01593,0.6055l-0.58569,2.63562l-0.30233,3.62802l-0.1152,0.3384l0.01211,0.35726l-0.87791,4.09693v0.08399l-0.10077,0.40308l-0.00939,0.05949l0.03533,0.44162l-0.2585,1.551l0,28.53439l0.16912,0.67647v0.67708l0.16422,0.65686v0.01563l0.16912,0.31709l0.2821,1.12841l0.26654,0.79961l0.02666,0.34652l0.14878,0.31409l0.33333,1.66667l-0.02606,0.54719l0.13286,0.53145v6.33333l-0.13286,0.53145l0.02606,0.54719l-0.66667,3.33333l-0.14878,0.31409l-0.02666,0.34652l-0.33333,1l-0.28071,0.44111l0.02058,0.29845l-0.70169,0.77186l-0.56003,0.88005l-0.29335,0.05867l-0.35171,0.38688l-1,0.66667l-0.2084,0.07443l-0.09245,0.1618l-1.20191,0.30048l-1.16673,0.41669l-0.16668,-0.08334l-0.21468,0.05367h-7.66667l-0.65686,-0.16422l-0.67708,0l-0.67647,-0.16912h-4.76373l-0.15327,0.05109l-0.43498,0.03346l-0.40008,0.17395l-1.91252,0.31875l-1.24393,0.24879l-0.67515,0.22505l-0.65578,0.05044l-0.00887,0.01035l-0.24277,0.01349l-0.31222,0.07805l-1.18566,0.63235l-1.33333,0.33333h-0.13411l-0.1212,0.05741l-1.17151,0.2343l-4.31874,1.7275l-1.79538,0.89769l-0.80203,0.17823l-0.75346,0.32759l-2,0.33333l-0.45823,-0.03666l-0.44597,0.11149h-1.66667l-0.65686,-0.16422h-0.67708l-1.33333,-0.33333l-0.9574,-0.51061l-0.42047,0.00895l-0.49971,-0.49971l-0.62356,-0.33257l-0.11387,-0.40486l-0.76725,-0.76725l-1,-1.66667l-0.7253,-2.38313l-0.09276,-0.13913l0.02127,-0.09573l-0.02855,-0.09382l0.08181,-0.14584l0.29307,-1.31882v-1.31992l0.16422,-0.65686v-0.67708l0.33333,-1.33333l0.01471,-0.02758l-0.02642,-0.09688l0.70282,-1.17136l0.64284,-1.20532l0.09667,-0.02719l0.01608,-0.0268l0.36464,-0.36464l0.18048,-0.21056l0.45488,-0.75813l0.74625,-0.74625l0.01212,-0.06058l0.13327,-0.08481l0.10837,-0.10837l1.08366,-0.65019l1.06618,-0.67848l0.14539,-0.04846l0.13546,-0.08127l0.0596,0.01625l0.28874,-0.09625l0.31706,-0.15853l0.59128,-0.1314l0.53445,-0.28504l1.33333,-0.33333l0.13411,0l0.1212,-0.05741l2.99757,-0.59951l0.10239,-0.03413l1.03673,-0.62204l0.8911,-0.59407l0.69183,-0.24708l0.61977,-0.3944l0.30125,-0.10042l1.38715,-0.92477l0.69183,-0.24708l0.61977,-0.3944l0.62919,-0.20973l0.66275,-0.33138l0.03065,-0.05364l0.15325,-0.03831l0.13707,-0.06854l0.97912,-0.21758l0.09638,-0.10601l1.5347,-1.02314l0.26346,-0.52693l0.08602,-0.10035v-4.10664l0.25264,-1.01055l0.14074,-1.0321l0.27329,-0.68322v-2.60746l0.21443,-0.85773l0.06781,-0.88152l0.19687,-0.59061l0.26239,-1.57433l0.0363,-0.0835l-0.00433,-0.09095l0.22653,-1.13264v-10.12206l0.16422,-0.65686v-0.67708l0.33333,-1.33333l0.0049,-0.00919l0.04532,-0.18126l0.06781,-0.88152l0.33333,-1l0.3944,-0.61977l0.24708,-0.69183l0.06313,-0.0947l0.11995,-0.59976l0.40293,-0.85063l0.27405,-0.90046l0.88371,-1.47285l-0.00162,-0.07591l2.12229,-2.12229l0.07591,0.00162l1.47285,-0.88371l0.14533,-0.04423l0.12865,-0.12865l0.26557,-0.15934l0.12352,-0.16212v-7.33426l-0.18756,-1.12533l-0.11962,-0.35886l-1.08191,-1.08191l-0.12204,-0.20339l-0.44855,-0.09968l-1.07513,-0.53757l-2.18905,-0.8209l-2.12044,-0.60584l-0.73777,-0.42563l-0.80212,-0.28647l-0.52351,-0.34901l-1.016,-0.4064c-0.89405,-0.33383 -1.67793,-0.89362 -2.28216,-1.6099l-0.13477,-0.09733l-0.01171,-0.08393c-0.71949,-0.92978 -1.14766,-2.09641 -1.14766,-3.36304zM300.02399,307.32969h0.16659l0.0733,-0.15993z" fill="#711b1b" stroke="none" stroke-width="0.5" stroke-linecap="butt"/><path d="M345.33227,310.9732c-3.24536,-1.62268 -4.40732,-4.72578 -3.69734,-7.76417c-0.42178,-0.46345 -0.76607,-0.98077 -1.01915,-1.55401c-1.34648,-3.04984 -0.29698,-3.32559 -0.25706,-6.3946c0.06089,-4.68006 -0.5782,-9.45257 0.28224,-14.06217c0.19788,-1.06008 1.17807,-1.75651 1.42855,-2.76075c0.42587,-1.70742 -1.88271,-2.97766 -2.70589,-4.53298c-2.01074,-3.79911 -4.90886,-8.53149 -4.33824,-12.96702c0.45994,-3.57515 2.68332,-4.50748 5.42301,-6.36786c4.77483,-3.24232 12.18351,-9.99416 18.49365,-6.44464c0.15518,0.08729 0.29593,0.19576 0.42511,0.32099c1.26387,0.89507 2.13342,2.31018 2.29695,3.93364c0.04908,0.04591 0.09986,0.08902 0.15253,0.12906c1.56256,1.18807 1.87541,2.53455 1.87541,4.41839l0.16912,0.67647c0,9.88232 2.45793,19.85835 3.66667,29.67708c0.28192,2.29009 0.8757,10.11772 -1.04482,13.13568c-0.4639,0.72899 -1.09232,1.40102 -1.84833,2.01053c0.25582,1.89277 -0.06532,3.85431 -0.83436,5.72213c-0.92877,2.25578 3.10833,4.12061 3.22506,6.45518c0.1831,3.66209 0.01203,7.33335 0,11c-0.0031,0.94487 -0.28792,1.89377 -0.6875,2.75c-0.15744,0.33737 -1.15867,0.90225 -0.81177,0.76711c3.24813,-1.26534 6.47867,-2.638 9.86056,-3.48313c1.93827,-0.48437 4.18127,-0.36109 6.13932,-0.03644c0.98625,0.16352 1.89039,1.4299 2.81207,1.04268c3.08795,-1.29733 11.46183,-3.47388 12.99982,1.54311c1.18572,3.86786 0.85467,4.63463 0.6875,9.75c-0.02585,0.79092 -0.27328,2.05964 -0.6875,2.75c-1.87866,3.13109 -5.72131,5.18233 -8.87162,6.75926c-1.95113,0.97667 -10.27529,1.19946 -10.53295,1.52569c-1.24459,1.57577 -0.42574,3.71511 -2.66667,4.91028c-1.54899,0.82613 -4.61655,0.59402 -5.90793,1.65842c-0.37359,0.30792 -0.44036,3.31875 -0.6875,3.81302c-1.75773,3.51547 -4.55622,5.6627 -8.8125,5.08333c-3.37463,-0.45936 -5.74268,-2.8297 -6.91631,-6.19282c-0.05437,-0.1558 -0.18287,-5.55487 -2.31422,-5.61481c-0.6033,-0.01697 -5.28338,3.51207 -7.25851,3.92935c-4.43196,0.93632 -5.9857,-0.74542 -8.73966,-3.45505c-1.19864,-1.17935 -3.28823,-0.71942 -4.95257,-0.95938c-2.10249,-0.30312 -3.85181,1.82667 -6.57153,1.05108c-1.71093,-0.48792 -3.41285,-2.71119 -3.7983,-4.51911c-0.55874,-2.62072 -0.36001,-8.22165 1.12771,-10.07936c0.90833,-1.13423 2.7544,-1.21238 3.68592,-2.32766c0.85598,-1.02484 0.98469,-2.59635 1.98747,-3.47807c1.27011,-1.11678 5.50911,-0.52734 6.60215,-0.6875c0.54352,-0.07964 1.57388,-1.05631 2.17346,-1.30007c2.30555,-0.93731 5.1362,-0.99623 6.96871,-2.68027c0.66917,-0.61495 0.32792,-3.51294 0.69947,-4.96681c0.93325,-3.65173 1.74827,-8.58678 3.11209,-12.10997z" fill="#711b1b" stroke="none" stroke-width="0.5" stroke-linecap="butt"/><path d="M279.51252,99.06657c-2.0159,-0.64597 -2.37588,-3.39948 -3.18643,-5.47686c-0.06413,-0.06853 -0.1266,-0.13881 -0.18731,-0.21076c-1.14463,0.15123 -3.93332,-0.07379 -4.30472,-0.09354c-5.09174,-0.27074 -8.36657,0.24938 -9.75777,-6.98778c-0.44275,-2.3032 1.21745,-4.53625 2.02184,-6.73937c0.06221,-0.1704 0.12873,-0.33909 0.19889,-0.50629c-1.61732,-0.89848 -2.73367,-2.46113 -3.41064,-4.31242c-5.08486,-3.11391 -5.87929,-6.75936 -5.20268,-12.34597c0.88738,-2.84474 0.34824,-6.65649 2.66213,-8.53423c1.97412,-1.60201 11.74905,0.64424 14.68529,1.27347c0.63694,0.13649 1.19727,0.51393 1.80131,0.75777c0.71261,0.28767 1.09954,-1.08178 1.7202,-1.53495c1.53112,-1.11793 2.79025,-2.95154 4.66092,-3.25924c4.21044,-0.69255 5.1634,1.49138 7.98454,2.89312c2.18403,1.08517 2.42839,-0.07759 5.36927,0.94297c3.91275,1.35783 6.07306,4.32124 8.73131,7.08582c2.24049,2.3301 4.53252,3.67472 6.50655,6.3977c0,0 3.16594,4.49743 -1.33149,7.66336c-0.59211,0.41681 -1.16114,0.70079 -1.7029,0.8797c0.55678,1.46138 0.88283,3.06067 0.87266,4.90139c-0.01136,2.0573 -0.23304,4.30042 -1.3631,6.0196c-1.06334,1.61769 -3.1313,2.28239 -4.77072,3.31192c-0.18942,0.11895 -0.57563,-0.10508 -0.66344,0.10064c-0.30084,0.7048 -0.23294,1.51483 -0.34941,2.27224l-0.04748,0.0463l0.03007,0.00955l-0.85209,2.6826c-0.54416,1.82241 -2.01971,3.31218 -4.00324,3.7826c-2.66581,0.63223 -5.33863,-0.79269 -6.35145,-3.24687c-3.22081,1.97063 -6.89824,3.14459 -9.76012,2.22754z" fill="#711b1b" stroke="none" stroke-width="0.5" stroke-linecap="butt"/></g></g></svg>