<svg version="1.1" xmlns="http://www.w3.org/2000/svg" xmlns:xlink="http://www.w3.org/1999/xlink" width="82.24706" height="203.97872" viewBox="0,0,82.24706,203.97872"><g transform="translate(-200.49526,-85.19722)"><g data-paper-data="{&quot;isPaintingLayer&quot;:true}" fill-rule="nonzero" stroke-linejoin="miter" stroke-miterlimit="10" stroke-dasharray="" stroke-dashoffset="0" style="mix-blend-mode: normal"><path d="M221.1612,219.63103l0.40365,-61.75868h39.55785l1.61461,62.96964z" fill="#f1ecec" stroke="#a5a5a5" stroke-width="1" stroke-linecap="butt"/><path d="M241.14195,219.83285l-1.81643,-61.75868" fill="none" stroke="#474747" stroke-width="1" stroke-linecap="round"/><path d="M270.6536,161.59998l4.73811,-74.79434l1.35375,-0.33844l2.36905,68.7025z" fill="#ffb935" stroke="#a77923" stroke-width="2" stroke-linecap="butt"/><path d="M206.68921,156.18499l15.22962,-69.7178h53.81132l-4.73811,75.47122z" fill="#ffb935" stroke="#a77923" stroke-width="2" stroke-linecap="butt"/><path d="M274.3764,158.55406l0.67687,-18.27554" fill="none" stroke="#a77923" stroke-width="2" stroke-linecap="round"/><path d="M276.06858,116.92644v16.92179" fill="none" stroke="#a77923" stroke-width="2" stroke-linecap="round"/><path d="M277.42232,140.61694l1.0153,13.87587" fill="none" stroke="#a77923" stroke-width="2" stroke-linecap="round"/><path d="M239.39136,117.93386c-1.07766,5.88333 -6.44731,9.82917 -11.99345,8.81327c-5.54614,-1.0159 -9.16855,-6.60883 -8.09089,-12.49216c1.07766,-5.88333 6.44731,-9.82916 11.99345,-8.81327c5.54614,1.0159 9.16855,6.60883 8.09089,12.49216z" fill="#ffffff" stroke="#000000" stroke-width="1" stroke-linecap="butt"/><path d="M234.99049,111.54258c2.54021,0.90294 2.22593,4.52938 1.03305,6.66392c-1.61382,2.88776 -8.55027,5.25086 -8.55027,5.25086c0,0 -6.16769,-5.53438 -5.42903,-9.56695c0.37461,-2.04513 2.97797,-4.44583 4.24191,-3.50356c1.22828,0.91569 3.38338,5.56106 3.38338,5.56106c0,0 2.78076,-5.30827 5.32097,-4.40533z" fill="#000000" stroke="#000000" stroke-width="0" stroke-linecap="butt"/><path d="M269.61958,118.4937c-1.07766,5.88333 -6.44731,9.82917 -11.99345,8.81327c-5.54614,-1.0159 -9.16855,-6.60883 -8.09089,-12.49216c1.07766,-5.88333 6.44731,-9.82916 11.99345,-8.81327c5.54614,1.0159 9.16855,6.60883 8.09089,12.49216z" fill="#ffffff" stroke="#000000" stroke-width="1" stroke-linecap="butt"/><path d="M251.30302,103.75858l0.24691,-0.61275l19.30116,0.36857l-0.24691,0.61275z" fill="#000000" stroke="none" stroke-width="NaN" stroke-linecap="butt"/><path d="M221.18534,102.71568l0.24691,-0.67237l19.30115,0.40443l-0.2469,0.67237z" fill="#000000" stroke="none" stroke-width="NaN" stroke-linecap="butt"/><path d="M243.73535,212.86987c0,1.39332 -1.17469,2.52282 -2.62373,2.52282c-1.44905,0 -2.62373,-1.12951 -2.62373,-2.52282c0,-1.39332 1.17469,-2.52282 2.62373,-2.52282c1.44905,0 2.62373,1.12951 2.62373,2.52282z" fill="#2f2f2f" stroke="none" stroke-width="0" stroke-linecap="butt"/><path d="M243.12769,202.05338c0,1.39331 -1.17468,2.52282 -2.62373,2.52282c-1.44905,0 -2.62374,-1.12951 -2.62374,-2.52282c0,-1.39331 1.17469,-2.52282 2.62374,-2.52282c1.44905,0 2.62373,1.1295 2.62373,2.52282z" fill="#2f2f2f" stroke="none" stroke-width="0" stroke-linecap="butt"/><path d="M242.52002,189.94282c0,1.39331 -1.17468,2.52282 -2.62373,2.52282c-1.44905,0 -2.62374,-1.12951 -2.62374,-2.52282c0,-1.39331 1.17469,-2.52282 2.62374,-2.52282c1.44905,0 2.62373,1.1295 2.62373,2.52282z" fill="#2f2f2f" stroke="none" stroke-width="0" stroke-linecap="butt"/><path d="M242.63129,178.69497c0,1.39331 -1.17468,2.52282 -2.62373,2.52282c-1.44905,0 -2.62374,-1.12951 -2.62374,-2.52282c0,-1.39331 1.17469,-2.52282 2.62374,-2.52282c1.44905,0 2.62373,1.1295 2.62373,2.52282z" fill="#2f2f2f" stroke="none" stroke-width="0" stroke-linecap="butt"/><path d="M242.02363,168.59742c0,1.39331 -1.17469,2.52282 -2.62374,2.52282c-1.44905,0 -2.62374,-1.12951 -2.62374,-2.52282c0,-1.39331 1.17469,-2.52282 2.62374,-2.52282c1.44905,0 2.62374,1.1295 2.62374,2.52282z" fill="#2f2f2f" stroke="none" stroke-width="0" stroke-linecap="butt"/><g fill="#3c3c3c" stroke="#2c2c2c" stroke-width="0.5" stroke-linecap="butt"><path d="M241.853,161.83515l-0.05379,-2.9247l3.99147,-2.96547l1.4541,7.43775z" data-paper-data="{&quot;index&quot;:null}"/><path d="M231.87526,163.02497l1.67882,-6.74213l3.58498,2.90449l-0.17806,2.67568z"/><path d="M241.82385,158.05927c1.03133,1.33725 0.76666,3.27022 -0.59116,4.31741c-1.35782,1.0472 -3.29461,0.81207 -4.32594,-0.52518c-1.03133,-1.33725 -0.76666,-3.27022 0.59116,-4.31741c1.35782,-1.0472 3.29461,-0.81207 4.32594,0.52518z"/></g><path d="M220.11883,230.19611v-11.93426h44.71752v11.93426l4.02187,54.23513l-16.2437,-0.02773l-1.0065,-54.35119c0,0 -5.58408,-0.86272 -8.62717,-0.86272c-2.99517,0 -8.91475,1.0065 -8.91475,1.0065l1.4511,53.71194l-13.52914,-0.94239z" fill="#333333" stroke="#2c2c2c" stroke-width="1" stroke-linecap="butt"/><path d="M217.81825,222.13544v-3.1633h49.31868v3.1633z" fill="#151515" stroke="#191919" stroke-width="0.5" stroke-linecap="butt"/><path d="M221.55669,223.42951v-5.60766h2.44437v5.60766z" fill="#333333" stroke="#2c2c2c" stroke-width="1" stroke-linecap="butt"/><path d="M239.96133,223.5733v-5.89524h2.58816v5.89524z" fill="#333333" stroke="#2c2c2c" stroke-width="1" stroke-linecap="butt"/><path d="M261.52926,223.28573v-5.60767h2.44437v5.60767z" fill="#333333" stroke="#2c2c2c" stroke-width="1" stroke-linecap="butt"/><path d="M220.73319,287.55816v-3.1633h15.40058v3.1633z" fill="#0a0a0a" stroke="#0c0c0c" stroke-width="1" stroke-linecap="butt"/><path d="M238.37968,284.03541c0,1.94557 -4.34533,3.52276 -9.70557,3.52276c-5.36024,0 -9.70557,-1.5772 -9.70557,-3.52276c0,-1.94557 4.34533,-3.52276 9.70557,-3.52276c5.36024,0 9.70557,1.57719 9.70557,3.52276z" fill="#0a0a0a" stroke="#0c0c0c" stroke-width="1" stroke-linecap="butt"/><path d="M253.34014,288.67593v-3.1633h15.40058v3.1633z" fill="#0a0a0a" stroke="#0c0c0c" stroke-width="1" stroke-linecap="butt"/><path d="M270.98663,285.15317c0,1.94557 -4.34533,3.52276 -9.70557,3.52276c-5.36023,0 -9.70557,-1.57719 -9.70557,-3.52276c0,-1.94557 4.34534,-3.52276 9.70557,-3.52276c5.36023,0 9.70557,1.5772 9.70557,3.52276z" fill="#0a0a0a" stroke="#0c0c0c" stroke-width="1" stroke-linecap="butt"/><g stroke-linecap="butt"><path d="M213.79224,235.68453c0,1.80621 0.91024,6.92313 0.26315,8.26054c-0.35462,0.73294 -2.08239,-2.08369 -2.5753,-1.57917c-0.80236,0.82125 -3.05572,3.74313 -4.08634,3.74313c-2.2627,0 -3.34786,-4.164 -3.68807,-7.97305c-0.08365,-0.93662 -0.12227,-1.5816 -0.12227,-2.45145c0,-4.40731 2.28532,-7.98014 5.10441,-7.98014c2.81909,0 5.10442,3.57283 5.10442,7.98014z" fill="#ffb935" stroke="#a77923" stroke-width="2"/><path d="M202.53654,231.47358c0,0 -0.1849,-19.49923 1.21053,-30.4039c1.71257,-13.38293 8.30968,-43.99212 8.30968,-43.99212l10.97816,1.43491c0,0 -6.81486,30.72389 -8.41852,44.22695c-1.22958,10.35324 -0.38277,29.8815 -0.38277,29.8815z" fill="#f1ecec" stroke="#a5a5a5" stroke-width="1"/><path d="M200.99526,233.31206v-3.45087h14.95377v3.45087z" fill="#f1ecec" stroke="#a5a5a5" stroke-width="1"/></g><g data-paper-data="{&quot;index&quot;:null}" stroke-linecap="butt"><path d="M274.54976,231.84168c2.81909,0 5.10441,3.57283 5.10441,7.98013c0,0.86984 -0.03861,1.51483 -0.12227,2.45145c-0.34021,3.80906 -1.42537,7.97305 -3.68807,7.97305c-1.03062,0 -3.28397,-2.92189 -4.08634,-3.74313c-0.49291,-0.50451 -2.22069,2.31211 -2.57531,1.57917c-0.64709,-1.33741 0.26316,-6.45433 0.26316,-8.26054c0,-4.40731 2.28532,-7.98013 5.10441,-7.98013z" fill="#ffb935" stroke="#a77923" stroke-width="2"/><path d="M269.00395,236.7582c0,0 0.84681,-19.52826 -0.38277,-29.8815c-1.60366,-13.50305 -8.41851,-44.22694 -8.41851,-44.22694l10.97816,-1.43491c0,0 6.59711,30.60919 8.30968,43.99212c1.39544,10.90466 1.21053,30.4039 1.21053,30.4039z" fill="#f1ecec" stroke="#a5a5a5" stroke-width="1"/><path d="M267.28855,237.44934v-3.45087h14.95377v3.45087z" fill="#f1ecec" stroke="#a5a5a5" stroke-width="1"/></g><path d="M256.9081,145.60462c0,2.42998 -7.08976,-0.75427 -15.52528,-0.75427c-8.43552,0 -15.39956,2.05285 -15.39956,-0.37714c0,-2.42998 7.08975,-6.91409 15.52527,-6.91409c4.86882,0 9.24745,1.87074 12.07975,3.91995c2.07482,1.50116 3.31982,3.0981 3.31982,4.12554z" fill="none" stroke="#000000" stroke-width="1.5" stroke-linecap="butt"/><path d="M228.76052,124.24775c-0.76822,0.64018 -1.40841,-0.12804 -1.40841,-0.12804l-0.83652,-1.61138c0.24138,-1.01508 0.24887,-1.77685 1.14906,-2.50155c0.15295,-0.12313 0.70237,0.19403 0.58806,0.03438c-0.17184,-0.24001 -0.75253,-0.06071 -0.81367,-0.34949c-0.14175,-0.6695 -0.06349,-1.45604 0.30999,-2.02948c0.30282,-0.46496 2.1469,-0.07923 1.63751,-0.29926c-1.3055,-0.5639 -0.88338,-1.57181 -0.88338,-2.80887c0,0 0,-1 1,-1c1,0 1,1 1,1c0,0.54349 -0.29724,1.13221 -0.07612,1.62869c0.22354,0.50192 1.05017,0.80441 0.95269,1.34514c-0.27409,1.52031 -1.21248,1.47764 -2.13381,1.46069c-0.50669,-0.00932 1.05131,0.63628 1.00485,1.14092c-0.03693,0.40114 -1.61698,1.98509 -1.78279,2.81268l0.42059,-0.10285c0,0 0.64018,0.76822 -0.12804,1.40841z" fill="#ffffff" stroke="none" stroke-width="0.5" stroke-linecap="butt"/><text transform="translate(256.78239,123.98237) scale(0.5,0.5)" font-size="40" xml:space="preserve" fill="#000000" fill-rule="nonzero" stroke="none" stroke-width="1" stroke-linecap="butt" stroke-linejoin="miter" stroke-miterlimit="10" stroke-dasharray="" stroke-dashoffset="0" font-family="Sans Serif" font-weight="normal" text-anchor="start" style="mix-blend-mode: normal"><tspan x="0" dy="0">!</tspan></text></g></g></svg>