<svg version="1.1" xmlns="http://www.w3.org/2000/svg" xmlns:xlink="http://www.w3.org/1999/xlink" width="287.31097" height="258.81481" viewBox="0,0,287.31097,258.81481"><g transform="translate(-133.85344,-88.40119)"><g data-paper-data="{&quot;isPaintingLayer&quot;:true}" fill-rule="nonzero" stroke-linecap="butt" stroke-linejoin="miter" stroke-miterlimit="10" stroke-dasharray="" stroke-dashoffset="0" style="mix-blend-mode: normal"><path d="M232.83333,246.27083c2.19425,3.90082 0.56301,8.93418 0.75,13.40588c0.17529,4.19201 1.92541,8.01684 2,12.26078c0.09065,5.15772 -0.78638,7.5955 -1,11.82216c-0.19051,3.76934 0.82148,7.05422 1,10.77254c0.46002,9.58145 6.80832,7.11361 10.58333,13.4053c2.89765,4.82941 6.026,12.46505 8.21025,17.73829c1.99033,4.80509 6.54416,9.96974 0.55637,13.9616c-3.50454,2.33636 -10.35427,-1.91718 -12.87718,-5.02653c-1.01304,-1.24852 -1.82203,-2.79151 -2.16487,-4.44267c-0.13026,-0.62735 -0.27108,-2.53704 -0.3079,-1.89737c-0.17698,3.07493 0.32665,14.92335 -1.08333,16.33333c-4.05112,4.05112 -11.00258,3.63908 -11.25,-3c-0.21259,-5.70442 0.10654,-11.41775 0,-17.12513c-0.01328,-0.7116 -1.32559,0.52802 -2.01361,0.71016c-1.69572,0.44892 -3.4798,1.2082 -5.22558,1.39972c-3.86941,0.42449 -12.85295,1.52182 -14.46071,-3.30147c-3.81633,-11.449 16.97843,-10.43417 21.33444,-17.03452c0.00962,-0.01457 -1.53643,-2.4401 -1.66777,-2.96548c-0.63017,-2.52069 -1.48469,-5.46235 -1.63344,-8.01661c-0.25833,-4.43601 -1.18276,-7.95699 -1,-12.66667c0.15294,-3.94135 1.14232,-5.20335 1,-10.07255c-0.11758,-4.02271 -1.45317,-7.62234 -1.85506,-11.68102c-0.38038,-3.84144 -0.34206,-7.72458 -0.14494,-11.57977c0.00662,-0.12943 0.01033,-0.26526 0.01345,-0.40493c0.20824,-3.12488 2.80892,-5.59507 5.98655,-5.59507c1.95257,0 3.6873,0.93269 4.78297,2.37686c0.17883,0.18472 0.33627,0.39068 0.46703,0.62314z" fill="#840000" stroke="none" stroke-width="0.5"/><path d="M332.32934,110.35837l0.56492,-0.56492l0.82705,-0.49623l0.48389,-0.41477l1.08875,-1.08875l0.51244,-0.30747l0.40199,-0.44219l1.19985,-0.7999l0.35705,-0.12752l0.28787,-0.24674l2.06559,-1.03279l0.88904,-0.59269l0.35705,-0.12752l0.28787,-0.24674l1.26569,-0.63284l0.88904,-0.59269l0.35705,-0.12752l0.28787,-0.24674l1.26569,-0.63284l0.88904,-0.59269l0.13778,-0.04921l0.10345,-0.10345l1.99975,-1.19985l0.46478,-0.14145l0.39385,-0.28445l1.76803,-0.70721l1.17048,-0.58524l1.80216,-1.08129l0.98232,-0.29897l0.92796,-0.43956l1.63345,-0.32669l3.24517,-1.08172l0.96166,-0.07397l0.9357,-0.23393h0.20578l2.62901,-0.5258l0.88112,-0.44056l0.87494,-0.19443l0.82195,-0.35737l1.54506,-0.25751l1.30346,-0.28966l0.10446,-0.02611l0.14953,-0.07477l0.87494,-0.19443l0.82195,-0.35737l1.54506,-0.25751l1.30346,-0.28966l1.33747,-0.33437h0.16718l0.16823,-0.03738l0.00097,0.00065l0.16595,-0.05532l0.37803,-0.02908l0.34264,-0.16231l1.99975,-0.39995l0.07919,0.00377l0.09725,-0.17019l0.74793,-0.18698l0.66108,-0.39665l0.44264,0.12072l1.14835,-0.28709l2.70302,0l1.90988,-0.31831l0.49988,0.03999l0.48651,-0.12163l1.26111,0l0.88322,-0.2208h0.73863l0.71658,-0.17914h8.00745l0.05608,-0.03738l0.16823,0.03738h0.16718l1.33747,0.33437l1.34581,0.29907l0.14953,0.07477l0.16718,0.0418l0.03344,0.05851l0.37887,0.18944l0.09175,-0.00633l1.1485,1.04409l1.17849,1.01013l0.0051,0.09183l0.18585,0.27877l0.77759,0.58319l0.27233,0.33517l0.37031,0.22219l0.7999,0.7999l0.30747,0.51244l0.44219,0.40199l0.7999,1.19985l0.12752,0.35705l0.03382,0.03945l0.28885,0.28885l0.49623,0.82705l0.62769,0.7323l0.62482,1.24964l0.05851,0.03344l0.0418,0.16718l0.07477,0.14953l0.29907,1.34581l0.02611,0.10446l0.07477,0.14953l0.29907,1.34581l0.33437,1.33747l0,0.16718l0.00648,0.02917l0.15998,0.31996l0.17385,0.78232l0.34307,0.72426l0.39995,1.99975l-0.02843,0.59693l0.12754,0.51015l0.10945,0.172l0.05287,0.1586l0.19375,0.32292l0.62769,0.7323l0.62482,1.24964l0.05851,0.03344l0.0418,0.16718l0.07477,0.14953l0.29907,1.34581l0.33437,1.33747v0.16718l0.00648,0.02917l0.15998,0.31996l0.17385,0.78232l0.34307,0.72426l0.39995,1.99975l-0.02843,0.59693l0.14494,0.57977v1.16706l0.06558,0.29511l0.22609,0.90435l0.09966,0.19933l0.05851,0.03344l0.0418,0.16718l0.07477,0.14953l0.29907,1.34581l0.33437,1.33747v0.16718l0.03738,0.16823l-0.03738,0.05608v2.23439l0.09205,0.27615l0.07397,0.96166l0.23393,0.9357v14.80659l0.03738,0.05608l-0.03738,0.16823v0.16718l-0.33437,1.33747l-0.29907,1.34581l-0.07477,0.14953l-0.0418,0.16718l-0.05851,0.03344l-0.26548,0.53096l-0.24237,1.21184l-0.49907,1.0536l-0.39211,1.09791l-0.1415,0.21224l-0.16717,0.83585l-0.34307,0.72426l-0.17385,0.78232l-0.36451,0.72903l0.00633,0.09175l-1.04409,1.1485l-0.15863,0.18506l-0.73848,1.23081l-0.70128,1.3149l-0.10546,0.02966l-0.01755,0.02924l-0.43223,0.43223l-0.43086,0.80787l0.02904,0.42102l-0.6135,0.67485l-0.42919,0.80473l-0.40626,0.11426l-0.63118,0.6943l-0.17403,0.11602l-0.58725,1.1745l-0.24674,0.28787l-0.12752,0.35705l-0.7999,1.19985l-0.87167,0.79243l-0.79243,0.87167l-0.70551,0.47034l-3.27787,3.27787l-0.70911,0.94548l-0.00374,0.06729l-0.13084,0.11215l-0.10031,0.13375l-1.06998,0.86936l-1.04674,0.8972l-0.14953,0.07477l-0.13375,0.10867l-0.05703,-0.00713l-0.34262,0.45682l-0.66207,0.53793l-0.53793,0.66207l-1.25867,0.944l-1.29828,1.29828l-0.82705,0.49623l-0.7323,0.62769l-0.72892,0.36446l-2.51111,2.51111l-0.37031,0.22219l-0.27233,0.33517l-1.25867,0.944l-1.29828,1.29828l-0.63337,0.38002l-0.52229,0.52229l-1.99975,1.19985l-0.46478,0.14145l-0.39385,0.28445l-0.43759,0.17504l-0.19035,0.2538l-0.89636,0.72829l-0.81666,0.81666l-1.87732,1.12639l-4.46395,2.97596l-1.79643,1.43714l-0.37191,0.17046l-0.28929,0.28929l-0.84282,0.50569l-0.00755,0.01132l-0.0051,0.09183l-1.17849,1.01013l-1.1485,1.04409l-0.09175,-0.00633l-3.12872,1.56436l-0.42157,0.09368l-0.36434,0.23185l-2.67584,0.89195l-0.82086,0.61565l-0.88892,0.37428l-0.81371,0.51782l-1.99517,0.66506l-1.21841,0.6092l-0.42157,0.09368l-0.36434,0.23185l-2.29432,0.76477l-3.09559,1.16085l-0.11323,0.01294l-0.09615,0.06118l-1.99517,0.66506l-2.01831,1.00915l-0.64504,0.14334l-0.58303,0.31095l-1.5998,0.39995l-0.24455,0l-0.22427,0.09751l-2.3997,0.39995l-0.07147,-0.00572l-0.0664,0.02705l-2.15303,0.30758l-2.588,0.9705l-0.65121,0.07442l-0.607,0.2473l-2.01406,0.28772l-2.07025,0.88725l-0.71393,0.11515l-0.66319,0.28834l-2.3997,0.39995l-0.07147,-0.00572l-0.0664,0.02705l-5.53023,0.79003l-3.84065,0.64011l-0.79284,0.39642l-0.78232,0.17385l-0.72426,0.34307l-1.85974,0.37195l-4.66088,1.16522l-0.73863,0l-0.71658,0.17914h-1.57334l-2.37752,0.33965l-0.42956,-0.04444l-0.41896,0.10474h-5.26061l-0.88322,0.2208h-0.73863l-0.71658,0.17914h-19.19757l-3,-0.75l-0.23077,-0.40385l-0.36923,-0.04615l-1.06667,-2.46667l-1.33333,-2.33333l0.18462,-0.32308l-0.18462,-0.42692l1.2,-2.85l1.19985,-1.5998l0.85517,-0.69482l0.76484,-0.79317l0.06838,-0.04274c-1.01752,-1.07511 -1.64154,-2.52648 -1.64154,-4.12359c0,-2.31502 1.31109,-4.32382 3.23126,-5.32437c2.13227,-1.66756 4.86904,-2.84917 6.85993,-4.92127c2.77092,-2.88394 5.76543,-7.72954 8.14665,-11.53135l0.02078,-0.06235l0.43026,-0.67612l0.26954,-0.75472l0.7207,-1.08105l1.00784,-1.67973l0.33751,-0.67502l0.24237,-1.21184l0.16231,-0.34264l0.02908,-0.37803l0.7999,-2.3997l0.51782,-0.81371l0.37428,-0.88892l0.58624,-0.78165c1.14025,-3.41443 2.17101,-6.86266 3.78398,-10.26903c1.25163,-2.64327 2.53167,-5.29013 3.83956,-7.9286l0.02255,-0.10146l0.7999,-1.5998l0.06107,-0.07125c0.72268,-1.44177 1.45367,-2.88022 2.19287,-4.31339l0.02945,-0.1683l1.5998,-3.59954l0.22941,-0.29365l0.1085,-0.35649l1.08129,-1.80216l3.38488,-6.76977l0.70721,-1.76803l0.14907,-0.2064l0.05523,-0.24854l0.6092,-1.21841l0.26511,-0.79532l0.23185,-0.36434l0.09368,-0.42157l0.39995,-0.7999l0.77034,-0.89873l0.08998,-0.44989l0.65042,-0.4139l0.50173,-0.58535l0.4581,-0.02545l0.84033,-0.53475c2.64961,-4.08133 7.29619,-10.38653 11.74937,-11.52714z" fill="#840000" stroke="none" stroke-width="0.5"/><path d="M244.97143,230.18969v-43.33028h29.77568v43.33028z" fill="#840000" stroke="#b67575" stroke-width="1.5"/><g stroke-width="1.5"><path d="M259.86086,116.86434c0,5.64518 -3.61228,15.99887 -8.06824,15.99887c-4.45597,0 -8.06824,-4.57632 -8.06824,-10.2215c0,-5.64518 0.48908,3.77751 4.94505,3.77751c1.65794,0 5.01953,-0.5488 6.84425,-2.90067c3.07951,-3.96914 4.34718,-10.19898 4.34718,-6.65421z" fill="#ff9191" stroke="#b67575"/><path d="M248.02475,130.33411c-2.2212,-4.8761 -3.17491,-16.15031 0.674,-19.02582c3.8489,-2.87551 8.7697,-1.2537 10.9909,3.6224c2.2212,4.8761 -1.90879,-2.94727 -5.75769,-0.07176c-1.43207,1.06989 -4.11975,3.71322 -4.77049,6.9222c-1.09823,5.41566 0.25804,11.61482 -1.13671,8.55298z" fill="#ff9191" stroke="#b67575"/><path d="M244.41027,110.21222c4.39196,-0.48197 12.75556,3.24325 13.13599,8.92895c0.38043,5.6857 -2.87155,10.68559 -7.26351,11.16756c-4.39196,0.48197 2.89715,-0.94658 2.51672,-6.63228c-0.14155,-2.11549 -0.85552,-6.35793 -2.84106,-8.48544c-3.35092,-3.59051 -8.30598,-4.67615 -5.54814,-4.97879z" fill="#ff9191" stroke="#b67575"/><path d="M253.02957,135.21382c-3.18612,-3.90117 -6.53341,-14.39992 -3.45405,-18.52458c3.07935,-4.12466 8.15852,-4.30584 11.34464,-0.40467c3.18612,3.90117 -2.47001,-2.15777 -5.54936,1.96689c-1.14574,1.53467 -3.15906,5.02557 -3.09267,8.33991c0.11204,5.59347 2.7521,11.0721 0.75144,8.62245z" fill="#ff9191" stroke="#b67575"/></g><g fill="#ff9191" stroke="#b67575" stroke-width="1.5"><path d="M270.53204,118.75344c0,5.64518 -3.61228,15.99888 -8.06825,15.99888c-4.45597,0 -8.06824,-4.57632 -8.06824,-10.22151c0,-5.64518 0.48909,3.77752 4.94505,3.77752c1.65794,0 5.01952,-0.54881 6.84425,-2.90067c3.07951,-3.96914 4.34719,-10.19898 4.34719,-6.65421z"/><path d="M258.69593,132.22321c-2.22121,-4.87611 -3.17491,-16.15032 0.674,-19.02582c3.8489,-2.87551 8.7697,-1.25371 10.9909,3.6224c2.22121,4.8761 -1.90879,-2.94726 -5.7577,-0.07175c-1.43207,1.06989 -4.11975,3.71321 -4.77049,6.92219c-1.09823,5.41566 0.25804,11.61483 -1.13671,8.55298z"/><path d="M255.08145,112.10133c4.39196,-0.48197 12.75556,3.24325 13.13599,8.92895c0.38044,5.68571 -2.87155,10.68559 -7.26351,11.16756c-4.39196,0.48197 2.89715,-0.94658 2.51672,-6.63228c-0.14155,-2.11549 -0.85552,-6.35794 -2.84106,-8.48544c-3.35092,-3.59051 -8.30598,-4.67615 -5.54814,-4.97879z"/><path d="M263.70075,137.10293c-3.18612,-3.90117 -6.53341,-14.39992 -3.45406,-18.52458c3.07935,-4.12466 8.15852,-4.30584 11.34464,-0.40466c3.18612,3.90117 -2.47001,-2.15777 -5.54936,1.96689c-1.14574,1.53467 -3.15906,5.02557 -3.09267,8.33991c0.11204,5.59347 2.7521,11.07211 0.75145,8.62245z"/></g><g fill="#ff9191" stroke="#b67575" stroke-width="1.5"><path d="M254.74257,109.19856c0,5.64518 -3.61228,15.99887 -8.06824,15.99887c-4.45597,0 -8.06824,-4.57632 -8.06824,-10.2215c0,-5.64518 0.48908,3.77751 4.94505,3.77751c1.65794,0 5.01953,-0.54881 6.84425,-2.90067c3.07951,-3.96915 4.34718,-10.19898 4.34718,-6.65421z"/><path d="M242.90647,122.66833c-2.22121,-4.8761 -3.17491,-16.15032 0.67399,-19.02582c3.8489,-2.8755 8.7697,-1.2537 10.9909,3.6224c2.22121,4.8761 -1.90879,-2.94726 -5.7577,-0.07176c-1.43207,1.06989 -4.11974,3.71322 -4.77049,6.9222c-1.09823,5.41566 0.25804,11.61482 -1.13671,8.55298z"/><path d="M239.29198,102.54645c4.39196,-0.48197 12.75556,3.24325 13.13599,8.92895c0.38044,5.6857 -2.87155,10.68558 -7.26351,11.16755c-4.39196,0.48197 2.89715,-0.94657 2.51672,-6.63228c-0.14155,-2.11549 -0.85552,-6.35793 -2.84107,-8.48544c-3.35092,-3.59051 -8.30598,-4.67615 -5.54814,-4.97879z"/><path d="M247.91128,127.54804c-3.18612,-3.90117 -6.5334,-14.39992 -3.45405,-18.52458c3.07935,-4.12466 8.15852,-4.30584 11.34464,-0.40467c3.18612,3.90117 -2.47001,-2.15777 -5.54936,1.96689c-1.14574,1.53467 -3.15906,5.02558 -3.09267,8.33991c0.11204,5.59347 2.7521,11.0721 0.75144,8.62244z"/></g><g fill="#ff9191" stroke="#b67575" stroke-width="1.5"><path d="M265.41375,111.08767c0,5.64518 -3.61228,15.99888 -8.06825,15.99888c-4.45597,0 -8.06824,-4.57633 -8.06824,-10.22151c0,-5.64518 0.48909,3.77751 4.94505,3.77751c1.65794,0 5.01952,-0.54881 6.84425,-2.90067c3.07951,-3.96915 4.34719,-10.19899 4.34719,-6.65422z"/><path d="M253.57764,124.55744c-2.22121,-4.8761 -3.17491,-16.15032 0.674,-19.02582c3.8489,-2.8755 8.7697,-1.25371 10.9909,3.6224c2.22121,4.8761 -1.90879,-2.94726 -5.7577,-0.07175c-1.43207,1.06989 -4.11975,3.71322 -4.77049,6.9222c-1.09823,5.41566 0.25804,11.61483 -1.13671,8.55298z"/><path d="M249.96316,104.43556c4.39196,-0.48197 12.75556,3.24325 13.13599,8.92895c0.38044,5.6857 -2.87155,10.68559 -7.26351,11.16756c-4.39196,0.48197 2.89715,-0.94658 2.51672,-6.63229c-0.14155,-2.11549 -0.85552,-6.35793 -2.84106,-8.48544c-3.35092,-3.59051 -8.30598,-4.67615 -5.54814,-4.97879z"/><path d="M258.58246,129.43715c-3.18612,-3.90117 -6.53341,-14.39992 -3.45406,-18.52458c3.07935,-4.12466 8.15852,-4.30583 11.34464,-0.40466c3.18612,3.90117 -2.47001,-2.15777 -5.54936,1.96689c-1.14574,1.53467 -3.15906,5.02558 -3.09267,8.33991c0.11204,5.59347 2.7521,11.0721 0.75145,8.62244z"/></g><g fill="#ff9191" stroke="#b67575" stroke-width="1.5"><path d="M253.528,116.30917c0,5.64518 -3.61228,15.99888 -8.06824,15.99888c-4.45597,0 -8.06824,-4.57632 -8.06824,-10.2215c0,-5.64518 0.48908,3.77751 4.94505,3.77751c1.65794,0 5.01953,-0.54881 6.84425,-2.90067c3.07951,-3.96915 4.34718,-10.19899 4.34718,-6.65421z"/><path d="M241.69189,129.77894c-2.22121,-4.87611 -3.17491,-16.15032 0.67399,-19.02582c3.8489,-2.8755 8.7697,-1.2537 10.9909,3.6224c2.22121,4.8761 -1.90879,-2.94726 -5.7577,-0.07176c-1.43207,1.06989 -4.11974,3.71322 -4.77049,6.9222c-1.09823,5.41566 0.25804,11.61483 -1.13671,8.55298z"/><path d="M238.07741,109.65706c4.39196,-0.48197 12.75556,3.24325 13.13599,8.92895c0.38044,5.6857 -2.87155,10.68559 -7.26351,11.16756c-4.39196,0.48197 2.89715,-0.94657 2.51672,-6.63228c-0.14155,-2.11549 -0.85552,-6.35793 -2.84107,-8.48544c-3.35092,-3.59051 -8.30598,-4.67615 -5.54814,-4.97879z"/><path d="M246.69671,134.65865c-3.18612,-3.90117 -6.5334,-14.39992 -3.45405,-18.52458c3.07935,-4.12466 8.15852,-4.30584 11.34464,-0.40467c3.18612,3.90117 -2.47001,-2.15777 -5.54936,1.96689c-1.14574,1.53467 -3.15906,5.02558 -3.09267,8.33991c0.11204,5.59347 2.7521,11.0721 0.75144,8.62244z"/></g><g fill="#ff9191" stroke="#b67575" stroke-width="1.5"><path d="M264.19918,118.19828c0,5.64518 -3.61228,15.99888 -8.06825,15.99888c-4.45597,0 -8.06824,-4.57632 -8.06824,-10.22151c0,-5.64518 0.48909,3.77752 4.94505,3.77752c1.65794,0 5.01952,-0.54881 6.84425,-2.90067c3.07951,-3.96915 4.34719,-10.19899 4.34719,-6.65422z"/><path d="M252.36307,131.66805c-2.22121,-4.8761 -3.17491,-16.15032 0.674,-19.02582c3.8489,-2.8755 8.7697,-1.25371 10.9909,3.6224c2.22121,4.8761 -1.90879,-2.94726 -5.7577,-0.07175c-1.43207,1.06989 -4.11975,3.71322 -4.77049,6.9222c-1.09823,5.41566 0.25804,11.61483 -1.13671,8.55298z"/><path d="M248.74858,111.54617c4.39196,-0.48197 12.75556,3.24325 13.13599,8.92895c0.38044,5.68571 -2.87155,10.68559 -7.26351,11.16756c-4.39196,0.48197 2.89715,-0.94658 2.51672,-6.63229c-0.14155,-2.11549 -0.85552,-6.35793 -2.84106,-8.48544c-3.35092,-3.59051 -8.30598,-4.67615 -5.54814,-4.97879z"/><path d="M257.36789,136.54776c-3.18612,-3.90117 -6.53341,-14.39992 -3.45406,-18.52458c3.07935,-4.12466 8.15852,-4.30583 11.34464,-0.40466c3.18612,3.90117 -2.47001,-2.15777 -5.54936,1.96689c-1.14574,1.53467 -3.15906,5.02558 -3.09267,8.33991c0.11204,5.59347 2.7521,11.0721 0.75145,8.62244z"/></g><g fill="#ff9191" stroke="#b67575" stroke-width="1.5"><path d="M248.40971,108.64339c0,5.64518 -3.61228,15.99887 -8.06824,15.99887c-4.45597,0 -8.06824,-4.57632 -8.06824,-10.2215c0,-5.64518 0.48908,3.77751 4.94505,3.77751c1.65794,0 5.01953,-0.54881 6.84425,-2.90067c3.07951,-3.96915 4.34718,-10.19898 4.34718,-6.65421z"/><path d="M236.57361,122.11317c-2.22121,-4.8761 -3.17491,-16.15032 0.67399,-19.02582c3.8489,-2.8755 8.7697,-1.2537 10.9909,3.6224c2.22121,4.8761 -1.90879,-2.94726 -5.7577,-0.07176c-1.43207,1.06989 -4.11974,3.71322 -4.77049,6.9222c-1.09823,5.41566 0.25804,11.61482 -1.13671,8.55298z"/><path d="M232.95912,101.99128c4.39196,-0.48197 12.75556,3.24325 13.13599,8.92895c0.38044,5.6857 -2.87155,10.68559 -7.26351,11.16755c-4.39196,0.48197 2.89715,-0.94657 2.51672,-6.63228c-0.14155,-2.11549 -0.85552,-6.35794 -2.84107,-8.48544c-3.35092,-3.59051 -8.30598,-4.67615 -5.54814,-4.97879z"/><path d="M241.57842,126.99288c-3.18612,-3.90117 -6.5334,-14.39992 -3.45405,-18.52458c3.07935,-4.12466 8.15852,-4.30584 11.34464,-0.40467c3.18612,3.90117 -2.47001,-2.15777 -5.54936,1.96689c-1.14574,1.53467 -3.15906,5.02558 -3.09267,8.33991c0.11204,5.59347 2.7521,11.0721 0.75144,8.62244z"/></g><g fill="#ff9191" stroke="#b67575" stroke-width="1.5"><path d="M259.08089,110.5325c0,5.64518 -3.61228,15.99888 -8.06825,15.99888c-4.45597,0 -8.06824,-4.57633 -8.06824,-10.22151c0,-5.64518 0.48909,3.77751 4.94505,3.77751c1.65794,0 5.01952,-0.54881 6.84425,-2.90067c3.07951,-3.96915 4.34719,-10.19899 4.34719,-6.65422z"/><path d="M247.24478,124.00227c-2.22121,-4.87611 -3.17491,-16.15032 0.674,-19.02582c3.8489,-2.8755 8.7697,-1.25371 10.9909,3.6224c2.22121,4.8761 -1.90879,-2.94726 -5.7577,-0.07175c-1.43207,1.06989 -4.11975,3.71322 -4.77049,6.9222c-1.09823,5.41566 0.25804,11.61483 -1.13671,8.55298z"/><path d="M243.6303,103.88039c4.39196,-0.48197 12.75556,3.24325 13.13599,8.92895c0.38044,5.6857 -2.87155,10.68559 -7.26351,11.16756c-4.39196,0.48197 2.89715,-0.94658 2.51672,-6.63229c-0.14155,-2.11549 -0.85552,-6.35793 -2.84106,-8.48544c-3.35092,-3.59051 -8.30598,-4.67615 -5.54814,-4.97879z"/><path d="M252.2496,128.88199c-3.18612,-3.90117 -6.53341,-14.39992 -3.45406,-18.52458c3.07935,-4.12466 8.15852,-4.30583 11.34464,-0.40466c3.18612,3.90117 -2.47001,-2.15777 -5.54936,1.96689c-1.14574,1.53467 -3.15906,5.02558 -3.09267,8.33991c0.11204,5.59347 2.7521,11.0721 0.75145,8.62244z"/></g><path d="M281.98845,151.81288c0,18.14557 -5.05632,34.39498 -13.03016,45.31424c-2.50783,-3.05362 -6.69819,-4.6585 -11.63976,-4.05016c-2.03081,0.25 -5.21097,0.2822 -6.47517,2.1785c-1.5373,2.30595 -2.02247,5.18337 -2.62918,7.88754c-0.07594,0.33846 0.69681,0.4381 0.68346,0.78472c-0.11493,2.98387 -0.87302,4.30384 -0.44655,7.14904c-1.16531,0.17724 -2.34634,0.26789 -3.54055,0.26789c-20.47755,0 -37.07791,-26.65328 -37.07791,-59.53177c0,-30.94038 14.70092,-49.93856 33.49962,-52.07085c-0.72629,2.20951 -0.32832,4.59503 2.05431,6.84635c3.45632,3.26584 6.18569,4.455 10.91755,5.63797h1.23047c4.37941,2.62765 8.59363,0.21816 12.19052,-2.85263c8.68211,8.84466 14.26334,23.37497 14.26334,42.43915z" fill="#ffffff" stroke="#d2d2d2" stroke-width="2"/><path d="M246.43947,170.27979l-7.32358,-15.55872h14.87605l-7.32359,15.55872z" fill="#ff9f09" stroke="#c57d08" stroke-width="2"/><path d="M218.32936,165.98039c-2.82074,0 -2.82073,-3.42433 -2.82073,-3.42433l0.07224,-0.34134c-0.22887,-1.20395 -0.45771,-2.40789 -0.68658,-3.61183c0,0 -0.63427,-3.33664 2.11423,-4.10664c2.7485,-0.76999 3.38278,2.56663 3.38278,2.56663c0.22887,1.20395 0.45772,2.40789 0.68659,3.61185l0.07224,1.88133c0,0 -0.00001,3.42433 -2.82075,3.42433z" fill="#000000" stroke="none" stroke-width="0.5"/><path d="M227.41985,156.14893c0.46384,0.50531 0.82501,1.29216 0.82501,2.51745c0,3.42432 -2.82074,3.42432 -2.82074,3.42432l-2.86158,-2.19508c-0.38143,-1.20395 -0.76287,-2.40789 -1.14429,-3.61185c0,0 -1.01259,-3.19607 1.62013,-4.42535c2.63272,-1.22926 3.64533,1.9668 3.64533,1.9668c0.24538,0.77454 0.49079,1.54911 0.73619,2.32365z" fill="#000000" stroke="none" stroke-width="0.5"/><path d="M264.50112,163.34419c-1.03177,-1.87879 -0.36263,-3.34463 0.21285,-4.12517c0,-0.83248 0,-1.66498 0,-2.49747c0,0 -0.00001,-3.42432 2.82073,-3.42432c2.82074,0 2.82074,3.42432 2.82074,3.42432c0,1.38916 0,2.77834 0,4.16751l-1.94267,3.40487c0,0 -2.34701,1.89948 -3.91165,-0.94974z" fill="#000000" stroke="none" stroke-width="0.5"/><path d="M274.40058,166.53603c-2.82074,0 -2.82074,-3.42434 -2.82074,-3.42434c0,-1.20395 0,-2.96357 0,-4.16751c0,0 0,-3.42432 2.82074,-3.42432c2.82074,0 2.82075,3.42432 2.82075,3.42432c0,1.20395 0,2.4079 0,3.61186v0.55565c0,0 -0.00001,3.42434 -2.82075,3.42434z" fill="#000000" stroke="none" stroke-width="0.5"/><path d="M222.5093,150.26847c0.28067,3.40734 -2.52607,3.74806 -2.52607,3.74806l-2.36834,0.28612l-3.17503,0.27531c-0.07587,0.00744 -0.15259,0.01121 -0.23001,0.01121c-1.55786,0 -2.82074,-1.53311 -2.82074,-3.42432c0,-1.0786 0.41078,-2.04075 1.0528,-2.66841l2.49923,-2.48236c0,0 2.18315,-2.16841 3.96935,0.48187c0.16476,0.24448 0.29576,0.48485 0.39781,0.71977l0.1136,-0.01387c0,0 2.80676,-0.34072 3.08742,3.0666z" fill="#0084ff" stroke="none" stroke-width="0.5"/><path d="M279.21394,153.5747c-0.61191,3.34279 -3.36548,2.59995 -3.36548,2.59995l-2.33985,-0.64986c-1.51729,-1.11961 -3.90097,-1.35337 -4.55186,-3.35886c-0.19261,-0.59347 0.11024,-1.06797 0.57791,-1.50294c-0.76675,-0.38249 -1.6166,-1.23039 -1.6166,-3.10997c0,-3.42432 2.82074,-3.42434 2.82074,-3.42434h3.20407c1.55786,0 2.82075,1.53313 2.82075,3.42434c0,0.64066 -0.14493,1.24023 -0.39716,1.75304l0.7058,0.18302c0,0 2.75358,0.74284 2.14167,4.08563z" fill="#0084ff" stroke="none" stroke-width="0.5"/><g><path d="M251.1131,144.21533c2.72492,0 4.93391,2.55977 4.93391,5.7174c0,3.15762 -2.20898,5.7174 -4.93391,5.7174c-2.72492,0 -4.93391,-2.55976 -4.93391,-5.7174c0,-3.15762 2.20898,-5.7174 4.93391,-5.7174z" fill="#deffff" stroke="#9db5b5" stroke-width="1.5"/><path d="M248.30029,152.12431c0,-0.93576 0.62487,-1.69437 1.39571,-1.69437c0.77082,0 1.39571,0.75859 1.39571,1.69437c0,0.93576 -0.62487,1.69436 -1.39571,1.69436c-0.77082,0 -1.39571,-0.75858 -1.39571,-1.69436z" fill="#444e4e" stroke="none" stroke-width="0.5"/></g><g data-paper-data="{&quot;index&quot;:null}"><path d="M246.77027,150.83003c0,3.15762 -2.20898,5.7174 -4.93391,5.7174c-2.72492,0 -4.93391,-2.55976 -4.93391,-5.7174c0,-3.15762 2.20898,-5.71741 4.93391,-5.71741c2.72492,0 4.93391,2.55977 4.93391,5.71741z" fill="#deffff" stroke="#9db5b5" stroke-width="1.5"/><path d="M243.25347,154.71597c-0.77084,0 -1.39571,-0.75859 -1.39571,-1.69436c0,-0.93578 0.62488,-1.69437 1.39571,-1.69437c0.77084,0 1.39571,0.75859 1.39571,1.69437c0,0.93578 -0.62488,1.69436 -1.39571,1.69436z" fill="#444e4e" stroke="none" stroke-width="0.5"/></g><path d="M240.79221,130.31859c0,7.55367 -5.0904,13.67713 -11.36972,13.67713c-6.27932,0 -11.36972,-6.12346 -11.36972,-13.67713c0,-7.55367 5.0904,-13.67714 11.36972,-13.67714c6.27932,0 11.36972,6.12347 11.36972,13.67714z" fill="#c80000" stroke="#000000" stroke-width="1"/><path d="M233.70475,131.34307c0,3.28465 -2.22821,5.94738 -4.97683,5.94738c-2.74863,0 -4.97684,-2.66273 -4.97684,-5.94738c0,-3.28465 2.22821,-5.94738 4.97684,-5.94738c2.74863,0 4.97683,2.66273 4.97683,5.94738z" fill="#000000" stroke="none" stroke-width="0"/><path d="M228.84611,129.25714c0,-1.29023 0.86158,-2.33617 1.92439,-2.33617c1.0628,0 1.92439,1.04594 1.92439,2.33617c0,1.29022 -0.86158,2.33616 -1.92439,2.33616c-1.0628,0 -1.92439,-1.04594 -1.92439,-2.33616z" fill="#ffffff" stroke="none" stroke-width="0.5"/><path d="M230.61832,132.50879c1.54204,1.87201 0.1195,3.91975 -1.66434,3.43851c-1.18089,-0.31858 -2.56314,-0.39672 -3.08213,-1.79464c-0.09966,-0.2447 -0.15566,-0.52026 -0.15566,-0.81171c0,-1.01281 0.67633,-1.83388 1.51063,-1.83388c0.22169,0 0.43223,0.05797 0.62189,0.16211c0.93909,0.20379 2.46262,0.46692 2.76962,0.83961z" fill="#ffffff" stroke="none" stroke-width="0.5"/><path d="M272.11095,130.44446c0,7.55367 -5.0904,13.67714 -11.36972,13.67714c-6.27932,0 -11.36972,-6.12347 -11.36972,-13.67714c0,-7.55367 5.0904,-13.67713 11.36972,-13.67713c6.27932,0 11.36972,6.12346 11.36972,13.67713z" fill="#c80000" stroke="#000000" stroke-width="1"/><path d="M265.31358,132.35777c0,2.79376 -1.89521,5.05855 -4.23306,5.05855c-2.33785,0 -4.23305,-2.26479 -4.23305,-5.05855c0,-2.79376 1.8952,-5.05855 4.23305,-5.05855c2.33785,0 4.23306,2.26479 4.23306,5.05855z" fill="#000000" stroke="none" stroke-width="0"/><path d="M260.83146,129.70808c0,-1.10159 0.73561,-1.99462 1.64303,-1.99462c0.90742,0 1.64304,0.89303 1.64304,1.99462c0,1.10159 -0.73562,1.99461 -1.64304,1.99461c-0.90742,0 -1.64303,-0.89302 -1.64303,-1.99461z" fill="#ffffff" stroke="none" stroke-width="0.5"/><path d="M262.54169,133.1978c1.38274,1.67862 0.10715,3.51483 -1.49241,3.0833c-1.05891,-0.28566 -2.29836,-0.35573 -2.76373,-1.60924c-0.08936,-0.21942 -0.13958,-0.46652 -0.13958,-0.72787c0,-0.90819 0.60647,-1.64443 1.35458,-1.64443c0.19878,0 0.38757,0.05198 0.55764,0.14536c0.84208,0.18274 2.20823,0.41868 2.48352,0.75287z" fill="#ffffff" stroke="none" stroke-width="0.5"/><path d="" fill="#ffffff" stroke="#000000" stroke-width="1.5"/><path d="" fill="#000000" stroke="#000000" stroke-width="1.5"/><path d="" fill="#ff7575" stroke="#000000" stroke-width="1.5"/><path d="M204.12807,208.26141c0,-29.31147 14.11469,-31.70579 41.4677,-31.70579c16.72995,0 28.66622,2.36386 35.41419,10.90661c-2.97967,2.43618 -5.57712,7.22764 -5.84651,10.72973c-0.28915,3.75899 3.23307,3.00588 4.80507,4.25c0.32267,0.25537 0.00474,3.3109 -0.13874,3.88481c-0.21513,0.86051 0.78478,3.27567 0.72967,3.43625c-0.4194,1.22194 -0.61684,2.73879 -0.72967,4.20561c-0.02152,0.27966 -0.0876,0.59562 0.0501,0.83998c0.92335,1.63861 1.79612,2.91641 2.83859,4.25152c0.49059,0.62832 0.15926,2.42845 0.83193,3.04466c0.90051,0.82493 1.97976,1.45506 3.09837,1.99403c-3.53564,25.0595 -18.13248,47.94665 -41.60733,48.13623c0.76619,-1.40499 1.35177,-2.98561 1.736,-4.71463c0.87239,-3.92575 -3.94305,-12.97019 -6.92805,-15.52876c-1.90802,-1.63544 -3.875,-1.06347 -5.87626,-2.35922c-2.71526,-1.75804 -3.7113,-3.52472 -7.44484,-3.91662c-1.79538,-0.18846 -5.29139,0.0875 -6.85531,1.06316c-1.08616,0.67761 -1.73453,2.7149 -2.98074,2.42185c-1.34811,-0.31701 -2.6044,-0.43686 -3.76558,-0.37618c-5.89374,-11.95961 -8.79859,-26.84735 -8.79859,-40.56323zM270.97384,208.28771c2.3888,-9.55519 -4.28179,-16.36469 -13.65531,-15.21076c-2.03081,0.25 -5.21097,0.2822 -6.47517,2.1785c-1.5373,2.30595 -2.02247,5.18337 -2.62918,7.88754c-0.07594,0.33846 0.69681,0.4381 0.68346,0.78472c-0.11716,3.04191 -0.90276,4.35456 -0.42031,7.31682c1.08322,6.65108 12.1212,9.16112 17.2846,6.83193c2.48444,-1.12072 4.49853,-5.9196 5.21191,-8.77313z" fill="#00b9ff" stroke="#0095cc" stroke-width="2"/><path d="M282.63169,261.6213c0,7.58578 -6.39977,13.73525 -14.29429,13.73525c-7.89452,0 -14.29429,-6.14947 -14.29429,-13.73525c0,-7.58578 6.39978,-13.73525 14.29429,-13.73525c7.89452,0 14.29429,6.14948 14.29429,13.73525z" fill="#ff7474" stroke="#bb5454" stroke-width="1.5"/><g><path d="M210.84175,188.16974c-2.85234,5.26072 -22.09559,0.75921 -42.98098,-10.05438c-20.88539,-10.81359 -35.50406,-23.84439 -32.65172,-29.10509c2.85235,-5.26073 22.09559,-0.75921 42.98098,10.05438c20.88539,10.81359 35.50406,23.84439 32.6517,29.1051z" fill="#ffffff" stroke="#d2d2d2" stroke-width="2"/><path d="M196.62586,174.49886l-0.9301,-0.27303c-3.68573,2.48038 0.29674,3.9413 -2.37712,6.78314c-0.35351,0.37573 -0.87458,0.50869 -1.45873,0.52882c0.45496,0.29432 0.90013,0.61234 1.36811,0.87512c0,0 2.50517,1.46852 1.11966,3.6657c-1.38551,2.19718 -3.8907,0.72866 -3.8907,0.72866c-2.36193,-1.42775 -7.67801,-3.70771 -6.49448,-7.57268c0.43836,-1.43151 3.37208,-0.48335 4.549,-1.45901c0.45033,-0.37333 -0.87401,-1.06645 -0.81053,-1.64016c0.43562,-3.93673 1.42741,-3.95516 4.17836,-6.13137l3.62546,-0.75692c0,0 2.80737,-0.29821 3.3679,2.32767c0.56053,2.62588 -2.24686,2.92409 -2.24686,2.92409z" fill="#000000" stroke="none" stroke-width="0.5"/><path d="M177.4523,164.08834l-2.43372,-0.1065c-1.15391,0.14178 -3.68286,3.06686 -3.58527,4.3271c0.07184,0.92766 2.05386,1.20154 2.12827,2.12922c0.24248,3.02252 -3.99653,3.72004 0.19383,4.09429c0,0 2.79403,0.79013 2.1703,3.31199c-0.62373,2.52186 -3.41772,1.73175 -3.41772,1.73175c-4.38025,-1.58322 -6.10057,-1.06039 -6.34495,-6.76123c-0.03881,-0.90515 1.81533,-1.14952 1.73291,-2.05554c-0.08012,-0.88076 -2.08727,-1.07544 -2.09766,-1.95385c-0.06223,-5.26295 3.55098,-8.48306 7.97229,-10.06065l3.3789,0.06044c0,0 2.85876,0.08212 3.0102,2.72361c0.15141,2.64147 -2.70737,2.55937 -2.70737,2.55937z" fill="#000000" stroke="none" stroke-width="0.5"/><path d="M160.20712,156.51451l-0.98424,-0.31593c-6.34974,0.65544 -3.64097,6.11561 -3.54223,10.98839c0,0 0.04928,2.63687 -2.81308,2.46052c-2.86237,-0.17633 -2.91164,-2.81321 -2.91164,-2.81321c-0.07711,-4.54782 -2.35697,-11.811 2.64473,-14.75942c1.45267,-0.85632 3.42543,-0.71873 5.13814,-1.07811l2.96961,0.30992c0,0 2.85179,0.4514 2.60114,3.05532c-0.25063,2.60393 -3.10243,2.15249 -3.10243,2.15249z" fill="#000000" stroke="none" stroke-width="0.5"/><path d="M145.80986,151.72127l-0.59418,-0.62733c-1.59143,1.25906 -4.91753,2.07153 -3.09866,3.83237c0,0 1.24424,2.46808 -1.33401,3.41296c-2.57826,0.9449 -3.82251,-1.52318 -3.82251,-1.52318c-0.51509,-1.37389 -1.87126,-2.7634 -1.54528,-4.12167c0.38376,-1.5989 4.30637,-4.49519 5.86764,-5.73287l4.17984,-0.52437c0,0 2.85751,0.06164 3.03107,2.70367c0.17355,2.64203 -2.68396,2.58041 -2.68396,2.58041z" fill="#000000" stroke="none" stroke-width="0.5"/><path d="M205.61831,183.18892l-1.32676,0.43273c-2.64332,0.80818 -1.69888,1.70583 -0.60239,4.0045c0,0 1.0925,2.51877 -1.55363,3.31881c-2.64614,0.80007 -3.73862,-1.71869 -3.73862,-1.71869c-2.08719,-5.13012 -1.90513,-7.50894 2.86478,-10.30827l1.97174,-0.70202c0,0 2.60263,-0.89535 3.79506,1.59111c1.19242,2.48646 -1.41019,3.38182 -1.41019,3.38182z" fill="#000000" stroke="none" stroke-width="0.5"/></g><path d="M234.04768,105.84901c-1.87266,-0.70225 -1.17041,-2.57491 -1.17041,-2.57491l1.727,-2.90303c2.28288,-1.01461 4.09511,-1.85693 6.59099,-2.16c0,0 1.98777,-0.22086 2.20863,1.7669c0.0366,0.32939 0.01255,0.61026 -0.05305,0.84965c0.06528,0.27798 0.06528,0.48225 0.06528,0.48225c-0.06099,0.53619 -0.41034,1.11915 -0.18297,1.60856c0.26804,0.57696 1.21461,0.62193 1.48643,1.19712c0.49138,1.03979 -0.18976,3.13565 0.94574,3.31798c3.29643,0.52933 6.19412,-1.30292 9.50729,0.64377c0.34609,0.20335 1.70828,2.25933 2.57155,2.42039c0.76631,0.14297 1.5582,-0.10284 2.33732,-0.0775c0.59455,0.01934 1.21722,0.42566 1.77205,0.21115c1.34296,-0.51923 1.13573,-2.96852 2.44943,-3.55787c1.06892,-0.47954 2.34308,0.01456 3.51462,0.02184l0.04114,-0.00821c0,0 1.1776,0 1.72558,0.90361c0.60611,0.15523 1.02188,0.571 1.02188,0.571c3.6162,3.68982 3.6001,7.12092 5.14949,11.66988l0.3359,0.62685c0,0 0.89443,1.78885 -0.89443,2.68328c-1.78885,0.89443 -2.68328,-0.89443 -2.68328,-0.89443l-0.04457,-0.09277c-0.10177,0.02783 -0.21093,0.05049 -0.328,0.06721c-1.9799,0.28284 -2.26274,-1.69706 -2.26274,-1.69706l-0.15796,-1.26359c-0.63531,-2.13188 -1.6042,-3.97773 -2.38334,-6.04815c-0.28203,-0.74944 0.00283,-2.75577 -0.66187,-2.30926c-0.66641,0.44765 -0.20826,1.64198 -0.63155,2.32412c-1.19178,1.92057 -2.61881,3.13262 -5.01801,3.2359c-1.95633,0.08421 -5.29125,-1.30266 -7.25556,-1.84945c-0.41578,-0.11574 -0.93144,-0.11976 -1.36516,-0.22915c-0.51746,0.54317 -1.08756,0.99121 -1.79806,1.18551c-0.99081,0.27097 -1.57059,-1.34421 -2.46513,-1.84911c-1.21481,-0.68567 -2.59871,-1.05075 -3.78605,-1.78296c0,0 -0.97117,-0.60698 -0.98439,-1.63722c-0.68891,-0.45294 -1.2904,-1.0601 -1.70349,-1.75343c-0.49865,-0.83694 -0.02661,-2.0086 -0.44441,-2.88869c-0.31312,-0.65958 -1.36477,-0.78697 -1.62446,-1.46936c-0.22974,-0.60369 -0.23089,-1.25603 -0.20571,-1.91397c-1.04715,0.35373 -2.02425,0.84363 -3.16457,1.35043l0.39376,0.65228c0,0 -0.70225,1.87266 -2.57491,1.17041z" fill="#9a0000" stroke="none" stroke-width="0.5"/><path d="M287.6421,233.31459c-2.23607,1.11803 -3.3541,-1.11803 -3.3541,-1.11803l-0.46101,-1.20889c-0.1389,-0.97233 -0.79786,-5.51527 -0.88631,-6.42679c-0.0525,-0.54103 0.28864,-1.19618 -0.03855,-1.63025c-0.43243,-0.57368 -1.42077,-0.45911 -1.92334,-0.97246c-0.75803,-0.77429 -3.1106,-5.16862 -3.33183,-6.08193c-0.84262,-3.47848 1.65166,-7.7725 0.59694,-11.10498c-0.49717,-1.57084 -3.23101,-1.39224 -4.06376,-2.81394c-0.47451,-0.8101 -0.78104,-1.66022 -0.94444,-2.52891c-0.015,0.28916 -0.06294,0.48092 -0.06294,0.48092l-0.1562,0.4901c-0.22134,2.62938 0.20443,5.62258 -0.24585,8.19228c-0.53464,3.0511 -2.34362,5.22766 -3.7914,7.83703c-0.65157,1.17434 -0.77395,2.79903 -1.8771,3.56498c-1.18137,0.82026 -2.83887,0.46333 -4.2583,0.69499c-1.62689,0.00033 -7.44458,0.13461 -8.62815,-0.52686c-1.12649,-0.62957 -1.86179,-1.42547 -2.34017,-2.33039c-1.77438,-0.49802 -3.35528,-1.35569 -4.35247,-2.97376c-2.45395,-3.98185 1.30304,-5.71431 0.1944,-9.1882c-0.59996,-1.87994 -3.32335,-2.70784 -3.66138,-4.65202c-0.62489,-3.59405 3.35061,-7.49052 5.79491,-9.15659c0,0 1.45251,-0.92433 2.71383,-0.03347c3.77821,-1.90981 7.71276,-0.4633 11.80079,0.36112c2.30682,0.46521 5.23677,0.26317 6.96933,2.40342c0.82088,1.01404 1.23609,2.0404 1.37283,3.0683c0.19168,0.226 0.31788,0.47409 0.39905,0.72039c-0.27264,-4.51911 2.9669,-9.30182 6.3536,-11.44288c0,0 2.14373,-1.28624 3.42997,0.85749c1.28624,2.14373 -0.85749,3.42997 -0.85749,3.42997c-2.76247,1.51933 -3.36234,3.59451 -3.45474,6.64063c-0.01473,0.48556 -0.42716,1.04811 -0.1532,1.44928c0.32035,0.4691 1.13128,0.29066 1.57962,0.63948c1.03599,0.80603 2.28828,1.55981 2.80047,2.76837c1.63043,3.84711 -1.26927,8.29301 -0.29189,12.0045c0.35671,1.35456 0.99919,2.71628 2.00112,3.69516c0.72414,0.70747 1.98445,0.83539 2.52079,1.69402c1.5004,2.40199 1.34436,7.38325 1.74162,10.1639l-0.0166,-0.32007c0,0 1.11803,2.23607 -1.11803,3.3541zM255.91756,213.67236c1.61692,0.14613 3.25906,0.12932 4.12782,0.27409c0.93736,0.15621 1.87476,0.35905 2.76724,0.68543c0.37492,0.13711 0.58465,0.72486 0.98192,0.68562c0.25973,-0.02565 -0.1408,-0.50661 -0.15682,-0.76711c-0.05251,-0.85375 -0.11552,-1.71293 -0.04814,-2.56564c0.14001,-1.77187 0.81091,-4.35779 1.20533,-6.05854c0.50491,-1.37409 4.11836,-6.52125 2.69844,-8.13399c-0.92536,-1.05102 -2.76739,-0.43521 -4.141,-0.70747c-2.46236,-0.48805 -6.81698,-2.50259 -9.03198,-0.50396c-0.58774,0.53032 -0.92689,1.28555 -1.43836,1.88977c-0.46207,0.54586 -0.9848,1.03731 -1.4779,1.55531c-0.18392,0.1932 -0.75405,0.4028 -0.55315,0.57828c0.73497,0.64198 1.97901,0.53928 2.64702,1.25068c1.65527,1.76278 2.36996,5.16592 2.62735,7.4233c0.04393,0.38525 -0.26679,2.64309 -0.20777,4.39422z" fill="#9a0000" stroke="none" stroke-width="0.5"/><path d="M220.74921,249.35365c-0.32294,0.50813 -0.67956,0.94141 -1.12232,1.17994c-3.60545,1.94234 -5.10164,0.56984 -8.30462,-0.71392c0,0 -2.29786,-0.9848 -1.31306,-3.28266c0.9848,-2.29786 3.28266,-1.31306 3.28266,-1.31306c0.17676,0.08336 2.7744,1.79396 3.69453,1.06373c0.47909,-0.38021 0.50649,-1.12639 0.8828,-1.60854c2.27368,-2.91321 2.93356,-4.27901 7.04721,-3.62675c1.44745,0.22951 2.88836,0.85129 4.0179,1.78506c0.71055,0.5874 0.53457,1.839 1.17181,2.50521c0.51425,0.53763 1.3939,0.52934 2.05577,0.86909c2.68568,1.37858 6.14129,2.57434 8.52991,4.41913c3.38351,2.61317 5.40627,6.3797 6.54324,10.4677c0.58001,0.78142 1.10136,1.57107 1.49602,2.3535c1.58748,3.14724 1.89686,7.39263 -0.07756,10.49341c-0.68958,1.08298 -1.49199,2.48699 -2.76033,2.68624c-0.25508,0.04007 -0.50966,0.05797 -0.76385,0.05773l0.03089,0.18534l-2.62002,0.43667c-0.14831,0.02742 -0.30121,0.04176 -0.45746,0.04176c-1.38071,0 -2.5,-1.11929 -2.5,-2.5c0,-1.18975 0.83109,-2.18539 1.9444,-2.43804l1.83775,-0.45944c0.10276,-0.21951 0.20552,-0.43903 0.30828,-0.65854c-0.10554,-2.52496 -0.35506,-5.48261 -1.06166,-8.29266c-4.68053,-7.00463 -11.47734,-12.23723 -19.84474,-13.65787z" fill="#9a0000" stroke="none" stroke-width="0.5"/></g></g></svg>