<svg version="1.1" xmlns="http://www.w3.org/2000/svg" xmlns:xlink="http://www.w3.org/1999/xlink" width="1119.75057" height="395.90466" viewBox="0,0,1119.75057,395.90466"><defs><linearGradient x1="49.67734" y1="208.93473" x2="77.10686" y2="208.93473" gradientUnits="userSpaceOnUse" id="color-1"><stop offset="0" stop-color="#ccfaff"/><stop offset="1" stop-color="#5ef7ff"/></linearGradient><linearGradient x1="14.15203" y1="156.20184" x2="49.90779" y2="156.20184" gradientUnits="userSpaceOnUse" id="color-2"><stop offset="0" stop-color="#ccfaff"/><stop offset="1" stop-color="#5ef7ff"/></linearGradient><linearGradient x1="156.25328" y1="184.51108" x2="197.00478" y2="184.51108" gradientUnits="userSpaceOnUse" id="color-3"><stop offset="0" stop-color="#ccfaff"/><stop offset="1" stop-color="#5ef7ff"/></linearGradient><linearGradient x1="217.87751" y1="184.51108" x2="258.62902" y2="184.51108" gradientUnits="userSpaceOnUse" id="color-4"><stop offset="0" stop-color="#ccfaff"/><stop offset="1" stop-color="#5ef7ff"/></linearGradient><linearGradient x1="279.50174" y1="184.51108" x2="320.25325" y2="184.51108" gradientUnits="userSpaceOnUse" id="color-5"><stop offset="0" stop-color="#ccfaff"/><stop offset="1" stop-color="#5ef7ff"/></linearGradient><linearGradient x1="343.11385" y1="194.45047" x2="379.8896" y2="194.45047" gradientUnits="userSpaceOnUse" id="color-6"><stop offset="0" stop-color="#ccfaff"/><stop offset="1" stop-color="#5ef7ff"/></linearGradient><linearGradient x1="493.74374" y1="185.06616" x2="534.49524" y2="185.06616" gradientUnits="userSpaceOnUse" id="color-7"><stop offset="0" stop-color="#ccfaff"/><stop offset="1" stop-color="#5ef7ff"/></linearGradient><linearGradient x1="555.36797" y1="185.06616" x2="596.11948" y2="185.06616" gradientUnits="userSpaceOnUse" id="color-8"><stop offset="0" stop-color="#ccfaff"/><stop offset="1" stop-color="#5ef7ff"/></linearGradient><linearGradient x1="616.9922" y1="185.06616" x2="657.74371" y2="185.06616" gradientUnits="userSpaceOnUse" id="color-9"><stop offset="0" stop-color="#ccfaff"/><stop offset="1" stop-color="#5ef7ff"/></linearGradient><linearGradient x1="680.60431" y1="195.00555" x2="717.38006" y2="195.00555" gradientUnits="userSpaceOnUse" id="color-10"><stop offset="0" stop-color="#ccfaff"/><stop offset="1" stop-color="#5ef7ff"/></linearGradient><linearGradient x1="146.962" y1="30.75128" x2="88.87311" y2="30.75128" gradientUnits="userSpaceOnUse" id="color-11"><stop offset="0" stop-color="#f1f1f1"/><stop offset="1" stop-color="#e6e6e6"/></linearGradient><linearGradient x1="125.91082" y1="23.47468" x2="67.82193" y2="23.47468" gradientUnits="userSpaceOnUse" id="color-12"><stop offset="0" stop-color="#f1f1f1"/><stop offset="1" stop-color="#e6e6e6"/></linearGradient><linearGradient x1="125.33788" y1="7.90558" x2="67.24899" y2="7.90558" gradientUnits="userSpaceOnUse" id="color-13"><stop offset="0" stop-color="#f1f1f1"/><stop offset="1" stop-color="#e6e6e6"/></linearGradient><linearGradient x1="86.32177" y1="6.06317" x2="50.96332" y2="6.06317" gradientUnits="userSpaceOnUse" id="color-14"><stop offset="0" stop-color="#f1f1f1"/><stop offset="1" stop-color="#e6e6e6"/></linearGradient><linearGradient x1="162.69158" y1="36.60353" x2="125.6494" y2="36.60353" gradientUnits="userSpaceOnUse" id="color-15"><stop offset="0" stop-color="#f1f1f1"/><stop offset="1" stop-color="#e6e6e6"/></linearGradient><linearGradient x1="270.96345" y1="58.50543" x2="329.05234" y2="58.50543" gradientUnits="userSpaceOnUse" id="color-16"><stop offset="0" stop-color="#f1f1f1"/><stop offset="1" stop-color="#e6e6e6"/></linearGradient><linearGradient x1="292.01463" y1="51.22883" x2="350.10352" y2="51.22883" gradientUnits="userSpaceOnUse" id="color-17"><stop offset="0" stop-color="#f1f1f1"/><stop offset="1" stop-color="#e6e6e6"/></linearGradient><linearGradient x1="292.58756" y1="35.65973" x2="350.67646" y2="35.65973" gradientUnits="userSpaceOnUse" id="color-18"><stop offset="0" stop-color="#f1f1f1"/><stop offset="1" stop-color="#e6e6e6"/></linearGradient><linearGradient x1="331.60368" y1="33.81732" x2="366.96213" y2="33.81732" gradientUnits="userSpaceOnUse" id="color-19"><stop offset="0" stop-color="#f1f1f1"/><stop offset="1" stop-color="#e6e6e6"/></linearGradient><linearGradient x1="255.23387" y1="64.35768" x2="292.27605" y2="64.35768" gradientUnits="userSpaceOnUse" id="color-20"><stop offset="0" stop-color="#f1f1f1"/><stop offset="1" stop-color="#e6e6e6"/></linearGradient><linearGradient x1="505.54561" y1="32.9716" x2="447.45672" y2="32.9716" gradientUnits="userSpaceOnUse" id="color-21"><stop offset="0" stop-color="#f1f1f1"/><stop offset="1" stop-color="#e6e6e6"/></linearGradient><linearGradient x1="484.49443" y1="25.69502" x2="426.40554" y2="25.69502" gradientUnits="userSpaceOnUse" id="color-22"><stop offset="0" stop-color="#f1f1f1"/><stop offset="1" stop-color="#e6e6e6"/></linearGradient><linearGradient x1="483.9215" y1="10.12591" x2="425.83261" y2="10.12591" gradientUnits="userSpaceOnUse" id="color-23"><stop offset="0" stop-color="#f1f1f1"/><stop offset="1" stop-color="#e6e6e6"/></linearGradient><linearGradient x1="444.90538" y1="8.28351" x2="409.54694" y2="8.28351" gradientUnits="userSpaceOnUse" id="color-24"><stop offset="0" stop-color="#f1f1f1"/><stop offset="1" stop-color="#e6e6e6"/></linearGradient><linearGradient x1="521.2752" y1="38.82386" x2="484.23301" y2="38.82386" gradientUnits="userSpaceOnUse" id="color-25"><stop offset="0" stop-color="#f1f1f1"/><stop offset="1" stop-color="#e6e6e6"/></linearGradient><linearGradient x1="552.94561" y1="54.06476" x2="611.0345" y2="54.06476" gradientUnits="userSpaceOnUse" id="color-26"><stop offset="0" stop-color="#f1f1f1"/><stop offset="1" stop-color="#e6e6e6"/></linearGradient><linearGradient x1="573.99679" y1="46.78817" x2="632.08568" y2="46.78817" gradientUnits="userSpaceOnUse" id="color-27"><stop offset="0" stop-color="#f1f1f1"/><stop offset="1" stop-color="#e6e6e6"/></linearGradient><linearGradient x1="574.56973" y1="31.21907" x2="632.65862" y2="31.21907" gradientUnits="userSpaceOnUse" id="color-28"><stop offset="0" stop-color="#f1f1f1"/><stop offset="1" stop-color="#e6e6e6"/></linearGradient><linearGradient x1="613.58584" y1="29.37665" x2="648.94429" y2="29.37665" gradientUnits="userSpaceOnUse" id="color-29"><stop offset="0" stop-color="#f1f1f1"/><stop offset="1" stop-color="#e6e6e6"/></linearGradient><linearGradient x1="537.21603" y1="59.91701" x2="574.25821" y2="59.91701" gradientUnits="userSpaceOnUse" id="color-30"><stop offset="0" stop-color="#f1f1f1"/><stop offset="1" stop-color="#e6e6e6"/></linearGradient></defs><g transform="translate(111.24625,22.73274)"><g stroke-miterlimit="10"><path d="M-109.99625,348.57259v-370.05534h918.47066v370.05534z" fill="#82f9ff" stroke="#62bbbf" stroke-width="2.5" stroke-linecap="butt"/><path d="M-86.65942,296.89821v-88.34654h1095.16375v88.34654z" fill="#0ed400" stroke="#262626" stroke-width="0" stroke-linecap="butt"/><path d="M123.09485,265.79793v-159.03128l30.52956,-15.26478l265.32967,-0.55508l-1.11017,174.85114z" fill="#16b0b8" stroke="#007ea1" stroke-width="6" stroke-linecap="butt"/><path d="M19.07504,254.25026c0,0 -9.57235,-108.78757 -1.28337,-140.4199c6.8813,-26.2603 27.36867,-33.88708 27.36867,-33.88708c0,0 22.1725,-7.76024 33.25875,-7.76024c11.08625,0 40.43221,10.14801 40.43221,10.14801l-2.60853,171.32227z" fill="#dead3c" stroke="#ad872f" stroke-width="3.5" stroke-linecap="butt"/><path d="M18.38128,259.24601c0,0 -8.14781,-101.15918 -1.09238,-130.57338c5.85724,-24.41888 23.2957,-31.51085 23.2957,-31.51085c0,0 18.87282,-7.21608 28.30923,-7.21608c9.43641,0 34.41515,9.43641 34.41515,9.43641l-2.22033,159.30882z" fill="#ffc846" stroke="#ad872f" stroke-width="3.5" stroke-linecap="butt"/><path d="M394.53043,113.98273l7.77116,-7.77116l16.65249,-15.54232" fill="none" stroke="#007ea1" stroke-width="6" stroke-linecap="round"/><path d="M46.69052,258.13584v-75.49129h33.86006v75.49129z" fill="#ffc846" stroke="#ad872f" stroke-width="3.5" stroke-linecap="butt"/><path d="M49.67734,225.81767v-33.76588h27.42951v33.76588z" fill="url(#color-1)" stroke="#0093bb" stroke-width="3.5" stroke-linecap="butt"/><path d="M14.15203,175.8602c0,0 -0.90595,-14.26057 -0.80998,-20.96247c0.08844,-6.17555 2.47523,-17.79916 2.47523,-17.79916l20.76852,-0.55508v40.42687z" fill="url(#color-2)" stroke="#0093bb" stroke-width="3.5" stroke-linecap="butt"/><path d="M70.6516,239.66778c0,4.18971 -3.23075,7.58613 -7.21608,7.58613c-3.98533,0 -7.21608,-3.39643 -7.21608,-7.58613c0,-4.18971 3.23075,-7.58613 7.21608,-7.58613c3.98533,0 7.21608,3.39643 7.21608,7.58613z" fill="#d4a539" stroke="#ad872f" stroke-width="2.5" stroke-linecap="butt"/><path d="M122.45935,258.74591v-150.08483h275.32117v150.08483z" fill="#19c8d1" stroke="#0093bb" stroke-width="6" stroke-linecap="butt"/><path d="M156.25328,225.26258v-81.50301h40.75151v81.50301z" fill="url(#color-3)" stroke="#0093bb" stroke-width="5.5" stroke-linecap="butt"/><path d="M217.87751,225.26258v-81.50301h40.75151v81.50301z" fill="url(#color-4)" stroke="#0093bb" stroke-width="5.5" stroke-linecap="butt"/><path d="M279.50174,225.26258v-81.50301h40.75151v81.50301z" fill="url(#color-5)" stroke="#0093bb" stroke-width="5.5" stroke-linecap="butt"/><path d="M340.13203,259.05651v-96.41211h43.73332v96.41211z" fill="#42ecff" stroke="#0093bb" stroke-width="5.5" stroke-linecap="butt"/><path d="M343.11385,215.32319v-41.74545h36.77575v41.74545z" fill="url(#color-6)" stroke="#0093bb" stroke-width="5.5" stroke-linecap="butt"/><text transform="translate(176.38054,133.57169) scale(0.62619,0.62619)" font-size="40" xml:space="preserve" fill="#ffc846" stroke="#ffc846" stroke-width="2" stroke-linecap="butt" font-family="Sans Serif" font-weight="normal" text-anchor="start"><tspan x="0" dy="0">Gege's Factory</tspan></text><path d="M459.47515,268.01826v-159.03128l30.52956,-15.26478l265.32967,-0.55508l-1.11017,174.85114z" fill="#16b0b8" stroke="#007ea1" stroke-width="6" stroke-linecap="butt"/><g stroke-linecap="butt"><path d="M459.94981,259.30099v-150.08483h275.32117v150.08483z" fill="#19c8d1" stroke="#0093bb" stroke-width="6"/><path d="M493.74374,225.81767v-81.50301h40.75151v81.50301z" fill="url(#color-7)" stroke="#0093bb" stroke-width="5.5"/><path d="M555.36797,225.81767v-81.50301h40.75151v81.50301z" fill="url(#color-8)" stroke="#0093bb" stroke-width="5.5"/><path d="M616.9922,225.81767v-81.50301h40.75151v81.50301z" fill="url(#color-9)" stroke="#0093bb" stroke-width="5.5"/><path d="M677.62249,259.6116v-96.4121h43.73333v96.4121z" fill="#42ecff" stroke="#0093bb" stroke-width="5.5"/><path d="M680.60431,215.87827v-41.74545h36.77575v41.74545z" fill="url(#color-10)" stroke="#0093bb" stroke-width="5.5"/><text transform="translate(513.871,134.12677) scale(0.6262,0.6262)" font-size="40" xml:space="preserve" fill="#ffc846" stroke="#ffc846" stroke-width="2" font-family="Sans Serif" font-weight="normal" text-anchor="start"><tspan x="0" dy="0">Gege's Factory</tspan></text></g><path d="M-81.65868,371.92192v-120.03045h873.46393v120.03045z" fill="#464646" stroke="#262626" stroke-width="2.5" stroke-linecap="butt"/><text transform="translate(57.94553,305.37455) scale(0.78312,0.78312)" font-size="40" xml:space="preserve" fill="#ffffff" stroke="none" stroke-width="1" stroke-linecap="butt" font-family="Sans Serif" font-weight="normal" text-anchor="start"><tspan x="0" dy="0">GONG FOR THE NEXT STATION!</tspan></text><g stroke="none" stroke-width="0" stroke-linecap="butt"><path d="M141.33272,44.19813c-9.48894,9.83395 -27.6646,11.78558 -40.59645,4.35909c-12.93185,-7.42649 -15.72286,-21.41883 -6.2339,-31.25278c9.48894,-9.83394 27.6646,-11.78558 40.59645,-4.35909c12.93185,7.42649 15.72286,21.41883 6.2339,31.25277z" fill="url(#color-11)"/><path d="M120.28154,36.92152c-9.48894,9.83395 -27.6646,11.78558 -40.59645,4.35909c-12.93185,-7.42649 -15.72286,-21.41883 -6.2339,-31.25277c9.48894,-9.83395 27.6646,-11.78558 40.59645,-4.35909c12.93185,7.42649 15.72286,21.41883 6.2339,31.25277z" fill="url(#color-12)"/><path d="M119.70861,21.35243c-9.48894,9.83395 -27.6646,11.78558 -40.59645,4.35909c-12.93185,-7.42649 -15.72286,-21.41883 -6.2339,-31.25277c9.48894,-9.83395 27.6646,-11.78559 40.59645,-4.35909c12.93185,7.42649 15.72286,21.41883 6.2339,31.25278z" fill="url(#color-13)"/><path d="M82.89526,14.24822c-5.77588,5.98588 -16.83931,7.17383 -24.71087,2.65335c-7.87157,-4.52047 -9.57044,-13.03755 -3.79456,-19.02343c5.77588,-5.98588 16.83932,-7.17383 24.71089,-2.65336c7.87157,4.52047 9.57043,13.03755 3.79455,19.02344z" fill="url(#color-14)"/><path d="M159.10191,45.17833c-6.05093,6.27092 -17.64119,7.51545 -25.88758,2.77971c-8.2464,-4.73572 -10.02618,-13.65838 -3.97525,-19.9293c6.05093,-6.27092 17.64119,-7.51544 25.88758,-2.77971c8.2464,4.73573 10.02618,13.65838 3.97525,19.92931z" fill="url(#color-15)"/></g><g stroke="none" stroke-width="0" stroke-linecap="butt"><path d="M276.59273,71.95227c-9.48896,-9.83394 -6.69794,-23.82628 6.2339,-31.25277c12.93185,-7.42649 31.10751,-5.47485 40.59645,4.35909c9.48896,9.83395 6.69794,23.82629 -6.2339,31.25278c-12.93185,7.42649 -31.10751,5.47486 -40.59645,-4.35909z" fill="url(#color-16)"/><path d="M303.87781,33.4229c12.93185,-7.42649 31.10751,-5.47486 40.59645,4.35909c9.48896,9.83394 6.69794,23.82628 -6.2339,31.25277c-12.93185,7.42649 -31.10751,5.47486 -40.59645,-4.35909c-9.48896,-9.83394 -6.69794,-23.82628 6.2339,-31.25277z" fill="url(#color-17)"/><path d="M298.21684,49.1066c-9.48896,-9.83395 -6.69794,-23.82629 6.2339,-31.25278c12.93185,-7.4265 31.10751,-5.47486 40.59645,4.35909c9.48896,9.83394 6.69794,23.82628 -6.2339,31.25277c-12.93185,7.42649 -31.10751,5.47486 -40.59645,-4.35909z" fill="url(#color-18)"/><path d="M338.82473,22.97893c7.87157,-4.52046 18.935,-3.33252 24.71089,2.65336c5.77588,5.98588 4.07701,14.50295 -3.79456,19.02343c-7.87157,4.52047 -18.93499,3.33253 -24.71087,-2.65335c-5.77588,-5.98589 -4.07702,-14.50296 3.79455,-19.02344z" fill="url(#color-19)"/><path d="M258.82354,72.93249c-6.05093,-6.27093 -4.27115,-15.19358 3.97525,-19.92931c8.24639,-4.73572 19.83666,-3.49121 25.88758,2.77971c6.05093,6.27092 4.27115,15.19358 -3.97525,19.9293c-8.24639,4.73573 -19.83666,3.49121 -25.88758,-2.77971z" fill="url(#color-20)"/></g><g stroke="none" stroke-width="0" stroke-linecap="butt"><path d="M499.91634,46.41845c-9.48894,9.83395 -27.6646,11.78558 -40.59645,4.35909c-12.93185,-7.42649 -15.72286,-21.41883 -6.2339,-31.25278c9.48894,-9.83394 27.6646,-11.78558 40.59645,-4.35909c12.93185,7.42649 15.72286,21.41883 6.2339,31.25277z" fill="url(#color-21)"/><path d="M478.86516,39.14186c-9.48894,9.83395 -27.6646,11.78558 -40.59645,4.35909c-12.93185,-7.42649 -15.72286,-21.41883 -6.2339,-31.25277c9.48894,-9.83395 27.6646,-11.78558 40.59645,-4.35909c12.93185,7.42649 15.72286,21.41883 6.2339,31.25277z" fill="url(#color-22)"/><path d="M478.29222,23.57277c-9.48894,9.83395 -27.6646,11.78558 -40.59645,4.35909c-12.93185,-7.42649 -15.72286,-21.41883 -6.2339,-31.25277c9.48894,-9.83395 27.6646,-11.78559 40.59645,-4.35909c12.93185,7.42649 15.72286,21.41883 6.2339,31.25278z" fill="url(#color-23)"/><path d="M441.47888,16.46855c-5.77588,5.98588 -16.83931,7.17383 -24.71087,2.65335c-7.87157,-4.52047 -9.57044,-13.03755 -3.79456,-19.02343c5.77588,-5.98588 16.83932,-7.17383 24.71089,-2.65336c7.87157,4.52047 9.57043,13.03755 3.79455,19.02344z" fill="url(#color-24)"/><path d="M517.68552,47.39866c-6.05093,6.27092 -17.64119,7.51545 -25.88758,2.77971c-8.2464,-4.73572 -10.02618,-13.65838 -3.97525,-19.9293c6.05093,-6.27092 17.64119,-7.51544 25.88758,-2.77971c8.2464,4.73573 10.02618,13.65838 3.97525,19.92931z" fill="url(#color-25)"/></g><g stroke="none" stroke-width="0" stroke-linecap="butt"><path d="M558.57489,67.5116c-9.48896,-9.83394 -6.69794,-23.82628 6.2339,-31.25277c12.93185,-7.42649 31.10751,-5.47485 40.59645,4.35909c9.48896,9.83395 6.69794,23.82629 -6.2339,31.25278c-12.93185,7.42649 -31.10751,5.47486 -40.59645,-4.35909z" fill="url(#color-26)"/><path d="M585.85997,28.98224c12.93185,-7.42649 31.10751,-5.47486 40.59645,4.35909c9.48896,9.83394 6.69794,23.82628 -6.2339,31.25277c-12.93185,7.42649 -31.10751,5.47486 -40.59645,-4.35909c-9.48896,-9.83394 -6.69794,-23.82628 6.2339,-31.25277z" fill="url(#color-27)"/><path d="M580.199,44.66593c-9.48896,-9.83395 -6.69794,-23.82629 6.2339,-31.25278c12.93185,-7.4265 31.10751,-5.47486 40.59645,4.35909c9.48896,9.83394 6.69794,23.82628 -6.2339,31.25277c-12.93185,7.42649 -31.10751,5.47486 -40.59645,-4.35909z" fill="url(#color-28)"/><path d="M620.8069,18.53826c7.87157,-4.52046 18.935,-3.33252 24.71089,2.65336c5.77588,5.98588 4.07701,14.50295 -3.79456,19.02343c-7.87157,4.52047 -18.93499,3.33253 -24.71087,-2.65335c-5.77588,-5.98589 -4.07702,-14.50296 3.79455,-19.02344z" fill="url(#color-29)"/><path d="M540.8057,68.49183c-6.05093,-6.27093 -4.27115,-15.19358 3.97525,-19.92931c8.24639,-4.73572 19.83666,-3.49121 25.88758,2.77971c6.05093,6.27092 4.27115,15.19358 -3.97525,19.9293c-8.24639,4.73573 -19.83666,3.49121 -25.88758,-2.77971z" fill="url(#color-30)"/></g><path d="M406.46472,233.15211v-21.64824h49.95747v21.64824z" fill="#464646" stroke="#262626" stroke-width="2.5" stroke-linecap="butt"/><path d="M118.21044,216.45923l-10.56008,-0.03027l0.01287,-18.8728l10.56008,0.03027z" fill="#464646" stroke="#262626" stroke-width="2.5" stroke-linecap="butt"/><path d="M119.48681,82.72462l-15.54232,16.65249" fill="none" stroke="#ad872f" stroke-width="3.5" stroke-linecap="round"/></g></g></svg>