<svg version="1.1" xmlns="http://www.w3.org/2000/svg" xmlns:xlink="http://www.w3.org/1999/xlink" width="258.28053" height="312.27379" viewBox="0,0,258.28053,312.27379"><g transform="translate(-118.1186,-5.68233)"><g data-paper-data="{&quot;isPaintingLayer&quot;:true}" fill-rule="nonzero" stroke-linejoin="miter" stroke-miterlimit="10" stroke-dasharray="" stroke-dashoffset="0" style="mix-blend-mode: normal"><g data-paper-data="{&quot;index&quot;:null}" stroke-linecap="butt"><path d="M351.96856,178.01561c2.36479,1.92938 1.32007,7.12361 -2.33345,11.60162c-3.65352,4.47801 -13.68209,3.55645 -16.04689,1.62707c-0.62609,-0.51081 -2.64534,-9.08832 -2.50917,-14.15793c0.161,-5.99411 5.33547,-9.97935 10.20174,-8.09667c4.86626,1.88268 -1.7519,15.53127 -0.20935,13.6406c3.65352,-4.47801 8.53232,-6.54408 10.89712,-4.61469z" fill="#d00000" stroke="#000000" stroke-width="1.5"/><g stroke="#af4c00"><path d="M337.46672,187.23067c0,0 -10.65218,31.15641 -34.0493,44.39675c-23.39711,13.24035 -45.20157,16.09507 -49.35916,8.74816c-2.91503,-5.15118 0.80942,-33.69181 13.19625,-43.61942c5.28001,-4.23174 21.88494,13.31194 29.43923,10.57563c26.53205,-9.61044 40.77298,-20.10112 40.77298,-20.10112z" fill="#ff6f00" stroke-width="3"/><path d="M288.95803,222.7875l4.09316,-2.3163l6.36984,11.2562l-4.09316,2.3163z" fill="#ffffff" stroke-width="0"/><path d="M297.17132,218.68002l4.09316,-2.3163l6.36984,11.2562l-4.09317,2.3163z" fill="#ffffff" stroke-width="0"/><path d="M303.01678,214.25219l3.69027,-2.91567l8.0181,10.14825l-3.69027,2.91567z" fill="#ffffff" stroke-width="0"/><path d="M308.29031,209.22026l3.01646,-3.60836l9.92298,8.29526l-3.01646,3.60836z" fill="#ffffff" stroke-width="0"/></g></g><g stroke="#000000" stroke-linecap="butt"><path d="M342.94235,155.22005l-5.88067,-0.94217l1.71799,-7.8485l2.66149,2.30113l3.21918,-1.35895z" data-paper-data="{&quot;index&quot;:null}" fill="#032b00" stroke-width="1.5"/><path d="M352.11892,168.39034l-88.99348,0.92168l-0.1735,-12.26168l88.99348,-0.92169z" data-paper-data="{&quot;index&quot;:null}" fill="#ffffff" stroke-width="3"/><path d="M341.70766,162.93682c-0.09025,-6.37822 5.95491,-11.61216 13.50225,-11.69033c7.54734,-0.07817 6.26378,-0.02043 15.02071,1.35779c0.32507,0.05116 3.27346,2.35979 4.66852,5.0173c1.66814,3.17776 1.68838,6.85438 0.14565,7.76665c-2.66395,1.5753 -14.12756,-2.67946 -13.32355,-1.64409c2.09708,2.70057 4.72021,2.73951 11.29809,6.58051c1.91035,1.1155 -3.22909,1.95767 -6.68419,2.58731c-4.43655,0.80849 -11.23885,0.40643 -13.16395,-0.50889c-7.54734,-3.5885 -11.37327,-3.08803 -11.46352,-9.46625z" data-paper-data="{&quot;index&quot;:null}" fill="#ffffff" stroke-width="3"/><path d="M344.48913,171.03613l-8.66603,0.08975l-0.24613,-17.39447l8.66603,-0.08975z" data-paper-data="{&quot;index&quot;:null}" fill="#032b00" stroke-width="1.5"/></g><g stroke="#000000" stroke-linecap="butt"><path d="M151.13509,148.70489l3.21918,1.35895l2.66149,-2.30112l1.71799,7.84849l-5.88068,0.94217z" fill="#032b00" stroke-width="1.5"/><path d="M143.85002,157.46199l88.99348,0.92168l-0.1735,12.26168l-88.99348,-0.92168z" fill="#ffffff" stroke-width="3"/><path d="M142.62426,173.73641c-1.9251,0.91532 -8.7274,1.31739 -13.16395,0.5089c-3.4551,-0.62964 -8.59454,-1.47181 -6.68419,-2.58731c6.57788,-3.84099 9.20101,-3.87994 11.29808,-6.5805c0.804,-1.03537 -10.65961,3.21938 -13.32356,1.64408c-1.54273,-0.91227 -1.52249,-4.58889 0.14566,-7.76665c1.39505,-2.65752 4.34344,-4.96615 4.66852,-5.01731c8.75692,-1.37822 7.47336,-1.43595 15.0207,-1.35778c7.54734,0.07817 13.5925,5.3121 13.50225,11.69032c-0.09025,6.37822 -3.91618,5.87775 -11.46352,9.46625z" fill="#ffffff" stroke-width="3"/><path d="M151.55244,154.97499l8.66603,0.08975l-0.24613,17.39447l-8.66603,-0.08975z" fill="#032b00" stroke-width="1.5"/></g><path d="M257.18673,291.12041v-58.84957h12.19001v58.84957c0,0 -0.83747,-1.11492 1.04495,10.71162c0.25284,1.58846 4.5549,8.34048 2.96234,10.66778c-0.77524,1.1329 -3.89978,-2.99295 -5.01302,-1.76985c-1.06805,1.17345 -3.11179,5.39577 -3.80528,5.72616c-2.18556,1.04122 -3.48887,-3.97679 -4.61868,-3.94819c-1.68988,0.04276 -3.53459,3.90577 -5.47303,1.03971c-2.17747,-3.21947 -1.10886,-9.06086 -0.77015,-9.45252c3.60661,-4.17044 3.48286,-12.9747 3.48286,-12.9747z" fill="#ffffff" stroke="#000000" stroke-width="3" stroke-linecap="butt"/><path d="M226.18673,289.1204v-58.84957h12.19001v58.84957c0,0 -0.83747,-1.11492 1.04495,10.71163c0.25283,1.58847 4.5549,8.34048 2.96234,10.66778c-0.77524,1.13291 -3.89978,-2.99294 -5.01301,-1.76984c-1.06805,1.17345 -3.11179,5.39577 -3.80528,5.72615c-2.18556,1.04122 -3.48887,-3.97678 -4.61868,-3.94819c-1.68988,0.04276 -3.53459,3.90577 -5.47303,1.0397c-2.17747,-3.21947 -1.10886,-9.06086 -0.77015,-9.45252c3.60661,-4.17044 3.48286,-12.97471 3.48286,-12.97471z" fill="#ffffff" stroke="#000000" stroke-width="3" stroke-linecap="butt"/><path d="M242.15307,162.57261v-13.35683h7.90123v13.35683z" fill="#ffffff" stroke="#000000" stroke-width="3" stroke-linecap="butt"/><g data-paper-data="{&quot;index&quot;:null}" stroke-linecap="butt"><path d="M299.80165,6.43714c3.04708,-0.17334 5.78332,4.36366 6.11156,10.13367c0.32823,5.77001 -7.69181,11.86104 -10.73889,12.03438c-0.80673,0.04589 -8.08743,-4.91822 -11.40975,-8.74989c-3.92818,-4.53042 -2.80175,-10.9638 2.05908,-12.86047c4.86083,-1.89667 9.19367,12.63985 9.05509,10.20369c-0.32823,-5.77001 1.87583,-10.58805 4.92291,-10.76138z" fill="#d00000" stroke="#000000" stroke-width="1.5"/><g stroke="#af4c00"><path d="M295.32557,23.02585c0,0 13.17753,30.17521 4.85731,55.73897c-8.32022,25.56376 -22.47747,42.391 -30.50473,39.77837c-5.62819,-1.8318 -22.15009,-25.40012 -19.71529,-41.08652c1.03786,-6.68648 25.13162,-4.95581 28.85681,-12.07464c13.08353,-25.00263 16.5059,-42.35618 16.5059,-42.35618z" fill="#ff6f00" stroke-width="3"/><path d="M283.54821,82.00615l1.45557,-4.4722l12.29855,4.0028l-1.45557,4.4722z" fill="#ffffff" stroke-width="0"/><path d="M286.83378,73.43091l1.45557,-4.4722l12.29855,4.0028l-1.45557,4.4722z" fill="#ffffff" stroke-width="0"/><path d="M288.15637,66.21802l0.7537,-4.64233l12.7664,2.07267l-0.7537,4.64232z" fill="#ffffff" stroke-width="0"/><path d="M288.64919,58.94563l-0.21103,-4.69838l12.92053,-0.58033l0.21103,4.69837z" fill="#ffffff" stroke-width="0"/></g></g><g stroke-linecap="butt"><path d="M191.72906,17.93758c-0.13859,2.43616 4.19426,-12.10036 9.05509,-10.20369c4.86083,1.89667 5.98727,8.33005 2.05908,12.86047c-3.32232,3.83167 -10.60302,8.79578 -11.40975,8.74989c-3.04708,-0.17334 -11.06712,-6.26437 -10.73889,-12.03438c0.32823,-5.77001 3.06447,-10.30701 6.11156,-10.13367c3.04708,0.17334 5.25115,4.99137 4.92291,10.76138z" fill="#d00000" stroke="#000000" stroke-width="1.5"/><g stroke="#af4c00"><path d="M207.78811,66.12109c3.72519,7.11883 27.81895,5.38817 28.85681,12.07464c2.4348,15.68639 -14.0871,39.25471 -19.71529,41.08652c-8.02726,2.61263 -22.18451,-14.21461 -30.50473,-39.77837c-8.32022,-25.56376 4.85731,-55.73897 4.85731,-55.73897c0,0 3.42237,17.35355 16.5059,42.35618z" fill="#ff6f00" stroke-width="3"/><path d="M190.76102,86.748l-1.45557,-4.4722l12.29855,-4.0028l1.45557,4.4722z" fill="#ffffff" stroke-width="0"/><path d="M187.47545,78.17277l-1.45557,-4.4722l12.29855,-4.0028l1.45557,4.4722z" fill="#ffffff" stroke-width="0"/><path d="M185.68502,69.02974l-0.7537,-4.64232l12.7664,-2.07267l0.7537,4.64233z" fill="#ffffff" stroke-width="0"/><path d="M185.03807,59.10436l0.21103,-4.69837l12.92053,0.58033l-0.21103,4.69838z" fill="#ffffff" stroke-width="0"/></g></g><path d="M287.1148,107.29931c0,10.05157 0.44481,17.90029 -5.13247,25.28671c-1.57852,2.09055 -7.10053,5.44199 -9.01707,7.20792c-4.07737,3.75696 -4.63262,10.48628 -9.90035,12.42693c-4.53246,1.66978 -13.65284,-1.18263 -18.74841,-1.18263c-5.39013,0 -11.01784,1.33322 -15.76835,-0.52545c-4.39372,-1.71908 -7.96907,-6.50857 -11.52888,-9.52455c-5.83481,-4.94343 -12.24561,-6.7367 -14.86315,-14.16595c-1.63055,-4.62792 -0.63792,-14.32095 -0.63792,-19.52297c0,-4.85677 -1.10667,-15.69593 0.32311,-20.13161c2.81964,-8.74747 10.06869,-10.2552 17.06924,-15.54091c4.21992,-3.18622 8.56281,-9.66575 13.76877,-10.96512c3.56,-0.88854 7.77397,2.89871 11.63718,2.89871c6.54691,0 16.51296,-1.78985 22.06112,0.89587c5.50529,2.66497 6.60278,9.7873 10.51256,14.47105c3.02695,3.62615 7.83591,6.82332 9.5823,11.32815c1.93206,4.98377 0.64232,11.3574 0.64232,17.04386z" fill="#ffffff" stroke="#000000" stroke-width="3" stroke-linecap="butt"/><g stroke="#000000" stroke-linecap="butt"><path d="M276.25062,103.98154c0,10.27017 -4.9167,18.59578 -10.98176,18.59578c-6.06506,0 -10.98176,-8.32562 -10.98176,-18.59578c0,-10.27017 4.9167,-18.59578 10.98176,-18.59578c6.06506,0 10.98176,8.32562 10.98176,18.59578z" fill="#ffffff" stroke-width="1.5"/><path d="M275.95777,101.35346c0,6.71616 -3.41521,12.16069 -7.62807,12.16069c-2.94399,0 -5.49845,-2.65875 -6.77015,-6.55223c-0.54811,-1.67812 4.44856,-5.82956 4.44856,-5.82956c0,0 -4.82165,-4.65941 -3.99199,-6.60567c1.37231,-3.21924 3.68803,-5.33392 6.31358,-5.33392c4.21287,0 7.62807,5.44453 7.62807,12.16069z" fill="#000000" stroke-width="0"/></g><path d="M217.74393,95.96775l12.46324,10.582l-14.10933,5.40858" fill="none" stroke="#000000" stroke-width="5" stroke-linecap="round"/><path d="M222.68219,87.99934l1.1489,-2.04249l0.76594,1.91484z" fill="none" stroke="#000000" stroke-width="1.5" stroke-linecap="round"/><path d="M265.00011,123.15719l2.01562,2.95624" fill="none" stroke="#000000" stroke-width="1" stroke-linecap="round"/><path d="M268.57447,121.70595l1.61249,2.14999" fill="none" stroke="#000000" stroke-width="1" stroke-linecap="round"/><path d="M237.84099,126.4603c0.93148,-0.63634 3.06506,-0.87075 3.85736,-0.84307c2.44411,0.08539 4.96903,1.30732 7.41954,0.95213c1.54047,-0.22329 5.34736,-1.25942 6.77737,-0.35507c0.11619,0.07348 0.22586,0.15454 0.33021,0.24177l0.04356,-0.06535l1.19116,0.79411c0.389,0.25122 0.6465,0.68859 0.6465,1.18611c0,0.74106 -0.57132,1.34868 -1.29752,1.40644l-1.3876,0.12615c-2.51831,0.57377 -3.53114,3.28178 -6.15866,3.99703c-1.74237,0.4743 -3.28526,-0.13728 -4.98549,-0.36908c-3.58355,-0.48856 -7.31143,-1.9254 -10.31602,-4.09009l-0.09583,0.23957l-1.31323,-0.52529c-0.53586,-0.20008 -0.91744,-0.71659 -0.91744,-1.32222c0,-0.77924 0.6317,-1.41093 1.41093,-1.41093c0.04907,0 0.09755,0.0025 0.14532,0.00739l1.41255,0.12841c1.10546,-0.00135 2.17094,-0.02552 3.23728,-0.098z" fill="#000000" stroke="none" stroke-width="0.5" stroke-linecap="butt"/><path d="M250.19252,130.42982l-1.41671,-3.16748l2.80778,-0.2784l-1.21961,3.5864z" fill="#ffffff" stroke="none" stroke-width="0" stroke-linecap="butt"/><path d="M264.20394,83.17082l1.22953,-2.18583l0.81969,2.04921z" fill="none" stroke="#000000" stroke-width="1.5" stroke-linecap="round"/><path d="M228.41999,195.87063l-0.7525,-38.75363h36.11989v29.34741l15.22095,59.77173l-61.09149,-1.45895z" fill="#39ff2b" stroke="#000000" stroke-width="3" stroke-linecap="butt"/><path d="M231.78957,177.34487l-6.24197,-19.40072l5.07404,-1.63252l6.24197,19.40072z" fill="#032b00" stroke="#000000" stroke-width="1.5" stroke-linecap="butt"/><path d="M253.14666,176.54007l7.61062,-18.90579l4.94459,1.99047l-7.61062,18.90579z" fill="#032b00" stroke="#000000" stroke-width="1.5" stroke-linecap="butt"/><path d="M230.10821,270.45344v-96.88407h33.23531v96.88407z" fill="#032b00" stroke="#000000" stroke-width="1.5" stroke-linecap="butt"/><path d="M221.32907,202.82153v-11.91455h9.71976v11.91455z" fill="#032b00" stroke="#000000" stroke-width="1.5" stroke-linecap="butt"/><path d="M263.02998,202.19444v-11.91454h9.71976v11.91454z" fill="#032b00" stroke="#000000" stroke-width="1.5" stroke-linecap="butt"/></g></g></svg>