<svg version="1.1" xmlns="http://www.w3.org/2000/svg" xmlns:xlink="http://www.w3.org/1999/xlink" width="70.51938" height="156.56819" viewBox="0,0,70.51938,156.56819"><g transform="translate(-205.47677,-139.06816)"><g data-paper-data="{&quot;isPaintingLayer&quot;:true}" fill-rule="nonzero" stroke-linejoin="miter" stroke-miterlimit="10" stroke-dasharray="" stroke-dashoffset="0" style="mix-blend-mode: normal"><g><path d="M225.84972,154.39565c5.27381,1.31846 4.59434,5.85723 2.5086,10.06214c-2.67736,5.39762 -8.60293,15.97191 -16.02974,14.11521c-4.78076,-1.19519 -4.13103,-11.20323 -4.66063,-14.7198c-0.33539,-2.22696 -2.5491,-3.40709 -2.14122,-6.24511c0.25642,-1.78412 2.77041,-5.37572 4.33816,-6.80095c1.91372,-1.73974 3.60593,0.52756 5.09229,0.54612c2.29009,0.0286 3.44165,-1.11669 5.80358,0.30047c0.56384,0.3383 1.6423,2.96784 1.69815,2.97853c0.97687,0.18706 2.09567,-0.52445 3.24703,-0.23662z" fill="#492f17" stroke="none" stroke-width="0.5" stroke-linecap="butt"/><path d="M256.29989,288.06156c0,3.6132 -2.76814,6.54228 -6.18281,6.54228c-3.41467,0 -6.18281,-2.92908 -6.18281,-6.54228c0,-3.6132 2.76814,-6.54227 6.18281,-6.54227c3.41467,0 6.18281,2.92907 6.18281,6.54227z" fill="#906e40" stroke="#664e2d" stroke-width="2" stroke-linecap="butt"/><path d="M239.79699,288.09407c0,3.6132 -2.76814,6.54228 -6.18281,6.54228c-3.41467,0 -6.18281,-2.92908 -6.18281,-6.54228c0,-3.6132 2.76814,-6.54227 6.18281,-6.54227c3.41467,0 6.18281,2.92907 6.18281,6.54227z" fill="#906e40" stroke="#664e2d" stroke-width="2" stroke-linecap="butt"/><path d="M245.5652,284.10001c0,0 -0.79827,-12.79179 -0.79827,-19.37792c0,-6.98564 0.79827,-21.40799 0.79827,-21.40799h8.09672c0,0 0.91231,13.31142 0.91231,19.93158c0,6.9583 -0.91231,20.85433 -0.91231,20.85433z" fill="#fca8ff" stroke="#ff77f4" stroke-width="1" stroke-linecap="butt"/><path d="M244.14424,285.65672v-3.73612h11.51969v3.73612z" fill="#fca8ff" stroke="#ff77f4" stroke-width="1" stroke-linecap="butt"/><path d="M229.04552,284.23717c0,0 -0.79827,-12.7918 -0.79827,-19.37792c0,-6.98564 0.79827,-21.40799 0.79827,-21.40799h8.09672c0,0 0.91231,13.31142 0.91231,19.93157c0,6.95829 -0.91231,20.85433 -0.91231,20.85433z" fill="#fca8ff" stroke="#ff77f4" stroke-width="1" stroke-linecap="butt"/><path d="M227.62456,285.79388v-3.73611h11.51968v3.73611z" fill="#fca8ff" stroke="#ff77f4" stroke-width="1" stroke-linecap="butt"/><path d="M269.32421,180.00001c0,8.32026 4.34382,14.06216 -0.04992,17.11982c-5.47314,3.80882 -19.73407,4.27874 -28.77122,4.27874c-10.0743,0 -23.62973,-0.18673 -28.88568,-5.26466c-3.2439,-3.13402 -1.29175,-9.00311 -1.29175,-16.1339c0,-2.37529 0.20979,-4.51805 0.6095,-6.44902c2.79981,-0.90161 3.2128,-2.90262 5.95751,-4.47102l0.09632,-0.38527c0.95798,-0.30702 1.84353,-0.7013 2.60881,-1.21906c0.88155,-0.59642 1.73189,-1.295 2.52953,-2.07245c1.55354,-0.69308 2.94908,-1.5095 3.40511,-2.10052c0.63216,-0.81929 1.60957,-3.06231 2.24511,-5.2443c3.60658,-0.75124 7.60299,-1.03928 11.82136,-1.03928c16.29201,0 29.72534,4.29638 29.72534,22.98092z" fill="#ffe6d1" stroke="#bfa895" stroke-width="3" stroke-linecap="butt"/><g stroke-linecap="butt"><g><path d="M235.29443,178.22155c0,5.59809 -4.60489,10.13625 -10.2853,10.13625c-5.68042,0 -10.28531,-4.53815 -10.28531,-10.13625c0,-5.59809 4.60489,-10.13624 10.28531,-10.13624c5.68042,0 10.2853,4.53815 10.2853,10.13624z" fill="#ffffff" stroke="#000000" stroke-width="1.5"/><path d="M232.43369,180.70672c0,4.14074 -3.44997,7.49748 -7.70574,7.49748c-4.25576,0 -7.70574,-3.35674 -7.70574,-7.49748c0,-4.14074 3.44997,-7.49747 7.70574,-7.49747c4.25576,0 7.70574,3.35673 7.70574,7.49747z" fill="#000000" stroke="none" stroke-width="0"/></g><path d="M227.17899,176.368c0.37753,-0.55019 0.77078,-1.04836 1.34248,-0.95626c3.54382,0.57089 2.29305,6.45513 0.01074,7.10192c-0.83193,0.23576 -1.49702,-0.86587 -2.24818,-1.29419c-1.48015,-0.84401 -3.77653,-1.46536 -1.86695,-4.33551c0.51211,-0.76972 1.8166,-0.34479 2.7249,-0.51719c0,0 0.01315,0 0.037,0.00123z" fill="#ffffff" stroke="none" stroke-width="0.5"/></g><g stroke-linecap="butt"><g><path d="M265.54967,178.4464c0,5.59809 -4.60489,10.13625 -10.2853,10.13625c-5.68042,0 -10.2853,-4.53815 -10.2853,-10.13625c0,-5.59809 4.60489,-10.13624 10.2853,-10.13624c5.68041,0 10.2853,4.53815 10.2853,10.13624z" fill="#ffffff" stroke="#000000" stroke-width="1.5"/><path d="M262.68893,180.93157c0,4.14074 -3.44998,7.49748 -7.70574,7.49748c-4.25576,0 -7.70574,-3.35674 -7.70574,-7.49748c0,-4.14074 3.44997,-7.49747 7.70574,-7.49747c4.25576,0 7.70574,3.35673 7.70574,7.49747z" fill="#000000" stroke="none" stroke-width="0"/></g><path d="M257.43423,176.59285c0.37753,-0.55019 0.77078,-1.04836 1.34248,-0.95626c3.54383,0.57089 2.29305,6.45513 0.01074,7.10192c-0.83193,0.23576 -1.49703,-0.86587 -2.24818,-1.29419c-1.48015,-0.84401 -3.77652,-1.46536 -1.86694,-4.33551c0.51211,-0.76972 1.8166,-0.3448 2.7249,-0.5172c0,0 0.01316,0 0.03701,0.00123z" fill="#ffffff" stroke="none" stroke-width="0.5"/></g><text transform="translate(233.50895,188.8258) rotate(90.48358) scale(0.5,0.5)" font-size="40" xml:space="preserve" fill="#000000" fill-rule="nonzero" stroke="none" stroke-width="1" stroke-linecap="butt" stroke-linejoin="miter" stroke-miterlimit="10" stroke-dasharray="" stroke-dashoffset="0" font-family="Handwriting" font-weight="normal" text-anchor="start" style="mix-blend-mode: normal"><tspan x="0" dy="0">3</tspan></text><path d="M225.32675,193.38157c0,2.06604 -1.69986,3.7409 -3.79674,3.7409c-2.09688,0 -3.79674,-1.67486 -3.79674,-3.7409c0,-2.06604 1.69986,-3.7409 3.79674,-3.7409c2.09688,0 3.79674,1.67486 3.79674,3.7409z" fill="#fca8ff" stroke="none" stroke-width="0" stroke-linecap="butt"/><path d="M265.51648,193.39198c0,2.06605 -1.69986,3.7409 -3.79674,3.7409c-2.09688,0 -3.79674,-1.67486 -3.79674,-3.7409c0,-2.06605 1.69986,-3.7409 3.79674,-3.7409c2.09688,0 3.79674,1.67486 3.79674,3.7409z" fill="#fca8ff" stroke="none" stroke-width="0" stroke-linecap="butt"/><path d="M226.13678,243.82585v-40.17932h31.07551v40.17932z" fill="#82dcff" stroke="#68b0cc" stroke-width="3" stroke-linecap="butt"/><path d="M242.15599,242.42526l-0.17507,-37.29061" fill="none" stroke="#68b0cc" stroke-width="3" stroke-linecap="round"/><path d="M243.38151,237.26778c0,0.97087 -0.68585,1.75791 -1.53189,1.75791c-0.84604,0 -1.53189,-0.78704 -1.53189,-1.75791c0,-0.97087 0.68585,-1.75791 1.53189,-1.75791c0.84604,0 1.53189,0.78704 1.53189,1.75791z" fill="#ff83e4" stroke="#68b0cc" stroke-width="3" stroke-linecap="butt"/><path d="M243.74206,226.3361c0,0.97087 -0.68585,1.75791 -1.53189,1.75791c-0.84604,0 -1.53189,-0.78705 -1.53189,-1.75791c0,-0.97087 0.68585,-1.75791 1.53189,-1.75791c0.84604,0 1.53189,0.78705 1.53189,1.75791z" fill="#ff83e4" stroke="#68b0cc" stroke-width="3" stroke-linecap="butt"/><path d="M243.66494,214.70414c0,0.92252 -0.68585,1.67037 -1.53189,1.67037c-0.84604,0 -1.53189,-0.74786 -1.53189,-1.67037c0,-0.92252 0.68585,-1.67037 1.53189,-1.67037c0.84604,0 1.53189,0.74786 1.53189,1.67037z" fill="#ff83e4" stroke="#68b0cc" stroke-width="3" stroke-linecap="butt"/><g fill="#3c3c3c" stroke="#2c2c2c" stroke-width="1.5" stroke-linecap="butt"><path d="M244.75999,206.10002l-0.05138,-2.79336l3.81222,-2.83229l1.3888,7.10373z" data-paper-data="{&quot;index&quot;:null}"/><path d="M235.23034,207.2364l1.60342,-6.43935l3.42398,2.77405l-0.17006,2.55552z"/><path d="M244.73215,202.4937c0.98501,1.27719 0.73223,3.12336 -0.56461,4.12352c-1.29684,1.00017 -3.14665,0.7756 -4.13166,-0.50159c-0.98501,-1.27719 -0.73223,-3.12336 0.56461,-4.12352c1.29684,-1.00017 3.14665,-0.7756 4.13166,0.50159z"/></g><path d="M217.29559,248.81544v-28.88709h7.00293v28.88709z" fill="#ffe6d1" stroke="#bfa895" stroke-width="2" stroke-linecap="butt"/><path d="M216.42975,220.12788l1.69555,-13.0506l5.35471,-4.56904l3.17247,0.7637l-2.32329,17.88226z" fill="#82dcff" stroke="#68b0cc" stroke-width="3" stroke-linecap="butt"/><g fill="#906e40" stroke="#664e2d" stroke-width="2" stroke-linecap="butt"><path d="M217.20805,250.3911v-9.89164h7.52815v9.89164z"/><path d="M226.51485,253.63642c-0.16255,1.32466 -0.27178,7.66074 -1.12187,8.55043c-0.17181,0.17982 -1.86283,-4.53759 -2.17025,-4.47405c-0.51262,0.10594 -0.1994,4.09285 -0.73101,4.58879c-1.19997,1.11945 -4.97581,0.64289 -5.50415,-1.09057c-0.86315,-2.83193 -1.98817,-5.64628 -1.59928,-8.81544c0.38889,-3.16917 3.19492,-5.46051 6.26743,-5.11786c3.07251,0.34265 5.24802,3.18954 4.85913,6.35871z"/><path d="M215.63239,241.5499v-3.32639h10.41686v3.32639z"/></g><path d="M259.24584,249.45664v-28.88709h7.00293v28.88709z" fill="#ffe6d1" stroke="#bfa895" stroke-width="2" stroke-linecap="butt"/><path d="M259.21516,221.79538l-2.32329,-17.88225l3.17246,-0.7637l5.35472,4.56905l1.69555,13.0506z" fill="#82dcff" stroke="#68b0cc" stroke-width="3" stroke-linecap="butt"/><g fill="#906e40" stroke="#664e2d" stroke-width="2" stroke-linecap="butt"><path d="M258.80816,251.0323v-9.89164h7.52815v9.89164z"/><path d="M261.88864,247.91891c3.07252,-0.34265 5.87854,1.94869 6.26744,5.11786c0.38889,3.16917 -0.73613,5.98351 -1.59928,8.81545c-0.52835,1.73346 -4.30418,2.21002 -5.50415,1.09057c-0.53161,-0.49593 -0.21838,-4.48284 -0.73101,-4.58879c-0.30741,-0.06354 -1.99843,4.65387 -2.17025,4.47406c-0.85009,-0.88968 -0.95932,-7.22577 -1.12187,-8.55043c-0.3889,-3.16917 1.78661,-6.01606 4.85913,-6.35871z"/><path d="M257.49511,242.1911v-3.32639h10.41686v3.32639z"/></g><path d="M268.82291,162.19963c0.15339,1.99411 -1.84071,2.1475 -1.84071,2.1475l-0.60841,-0.43611c-2.53994,2.53886 -5.88114,6.43198 -10.12525,4.08604c-2.65112,-1.46542 -2.29942,-3.16367 -2.34749,-5.50026c-0.02136,-1.03832 -0.06161,-2.08054 -0.20855,-3.10863c-0.03123,-0.21851 0.15884,-0.67622 -0.06125,-0.65937c-0.87546,0.06705 -0.77759,1.5748 -1.18993,2.34998c-1.95074,3.11239 -5.17418,7.25546 -9.49351,4.28927c-3.02555,-2.07772 -2.11598,-2.94607 -1.98313,-5.73563c0.02982,-0.62615 -0.02738,-1.25413 -0.00439,-1.88056c0.01627,-0.44327 0.07408,-0.88412 0.12203,-1.32509c0.0207,-0.19042 0.15933,-0.74451 0.08388,-0.56846c-1.31671,3.0722 -3.37401,7.74397 -7.48571,7.76471c-1.32954,0.00671 -2.96051,0.00921 -3.87165,-0.95906c-2.0493,-2.1778 0.23496,-6.62383 1.42231,-8.46587c0,0 1.1094,-1.6641 2.7735,-0.5547c1.6641,1.1094 0.5547,2.7735 0.5547,2.7735c-0.693,0.99036 -1.54851,2.47056 -1.74098,3.61217c-0.03244,0.19242 0.26787,-0.29572 0.44194,-0.38391c0.7815,-0.39594 1.72223,-0.68007 2.22656,-1.39641c0.97997,-1.39194 1.19014,-3.11425 2.54996,-4.29457c1.03581,-0.89907 2.20016,-2.29158 3.55425,-2.07323c5.13614,0.82823 2.97362,6.6088 3.01672,9.5353c0.00975,0.66188 2.21994,0.86182 2.52854,0.71108c1.08493,-0.52995 1.23335,-2.0764 1.87182,-3.10123c2.18947,-3.65392 4.99366,-6.24805 8.23871,-1.47269c0.75232,1.10711 0.68712,3.64526 0.65417,4.94339c-0.00007,0.00252 -0.39234,1.77902 0.24066,1.97664c2.41651,0.7544 4.03553,-2.02216 5.40366,-3.39085l3.13004,-0.72368c0,0 1.99411,-0.1534 2.1475,1.84071z" fill="#5b3e23" stroke="none" stroke-width="0.5" stroke-linecap="butt"/><path d="M207.73916,155.01992c0,-0.55228 0.44772,-1 1,-1c0.55228,0 1,0.44772 1,1c0,0.55228 -0.44772,1 -1,1c-0.55228,0 -1,-0.44772 -1,-1z" fill="#42ce61" stroke="none" stroke-width="0.5" stroke-linecap="butt"/><path d="M212.77168,155.16371c0,-0.55228 0.44772,-1 1,-1c0.55228,0 1,0.44772 1,1c0,0.55228 -0.44772,1 -1,1c-0.55228,0 -1,-0.44772 -1,-1z" fill="#42ce61" stroke="none" stroke-width="0.5" stroke-linecap="butt"/><path d="M208.17052,160.62758c0,-0.55228 0.44772,-1 1,-1c0.55228,0 1,0.44772 1,1c0,0.55228 -0.44772,1 -1,1c-0.55228,0 -1,-0.44772 -1,-1z" fill="#42ce61" stroke="none" stroke-width="0.5" stroke-linecap="butt"/><path d="M210.03974,151.28148c0,-0.55228 0.44772,-1 1,-1c0.55228,0 1,0.44772 1,1c0,0.55228 -0.44772,1 -1,1c-0.55228,0 -1,-0.44772 -1,-1z" fill="#42ce61" stroke="none" stroke-width="0.5" stroke-linecap="butt"/><path d="M211.33381,163.93467c0,-0.55228 0.44772,-1 1,-1c0.55228,0 1,0.44772 1,1c0,0.55228 -0.44772,1 -1,1c-0.55228,0 -1,-0.44772 -1,-1z" fill="#42ce61" stroke="none" stroke-width="0.5" stroke-linecap="butt"/><path d="M211.4776,158.75836c0,-0.55228 0.44772,-1 1,-1c0.55228,0 1,0.44772 1,1c0,0.55228 -0.44772,1 -1,1c-0.55228,0 -1,-0.44772 -1,-1z" fill="#42ce61" stroke="none" stroke-width="0.5" stroke-linecap="butt"/><path d="M215.6474,158.18322c0,-0.55228 0.44772,-1 1,-1c0.55228,0 1,0.44772 1,1c0,0.55228 -0.44772,1 -1,1c-0.55228,0 -1,-0.44772 -1,-1z" fill="#42ce61" stroke="none" stroke-width="0.5" stroke-linecap="butt"/><path d="M216.22255,153.43827c0,-0.55228 0.44772,-1 1,-1c0.55228,0 1,0.44772 1,1c0,0.55228 -0.44772,1 -1,1c-0.55228,0 -1,-0.44772 -1,-1z" fill="#42ce61" stroke="none" stroke-width="0.5" stroke-linecap="butt"/><path d="M210.18352,166.52282c0,-0.55228 0.44772,-1 1,-1c0.55228,0 1,0.44772 1,1c0,0.55228 -0.44772,1 -1,1c-0.55228,0 -1,-0.44772 -1,-1z" fill="#42ce61" stroke="none" stroke-width="0.5" stroke-linecap="butt"/><path d="M217.08526,162.49681c0,-0.55228 0.44772,-1 1,-1c0.55228,0 1,0.44772 1,1c0,0.55228 -0.44772,1 -1,1c-0.55228,0 -1,-0.44772 -1,-1z" fill="#42ce61" stroke="none" stroke-width="0.5" stroke-linecap="butt"/><path d="M221.39885,157.17672c0,-0.55228 0.44772,-1 1,-1c0.55228,0 1,0.44772 1,1c0,0.55228 -0.44772,1 -1,1c-0.55228,0 -1,-0.44772 -1,-1z" fill="#42ce61" stroke="none" stroke-width="0.5" stroke-linecap="butt"/><path d="M214.35332,166.52282c0,-0.55228 0.44772,-1 1,-1c0.55228,0 1,0.44772 1,1c0,0.55228 -0.44772,1 -1,1c-0.55228,0 -1,-0.44772 -1,-1z" fill="#42ce61" stroke="none" stroke-width="0.5" stroke-linecap="butt"/><path d="M253.77038,146.85024c2.19893,-1.5345 3.59715,-0.5103 5.95762,-1.53769c0.48021,-0.20901 0.44762,-2.53565 0.9731,-3.14872c2.5015,-2.91842 6.58974,-3.80763 10.19056,-2.52163c4.42988,1.5821 3.18259,8.19038 3.75204,11.58848c0.22191,1.32424 1.4131,2.45392 1.35003,3.79515c-0.0486,1.03344 -1.17967,1.59858 -1.50267,2.28142c-0.07459,0.15768 0.23929,0.25529 0.34055,0.39731c1.31928,1.85022 0.78445,4.4572 0.18558,6.41073c-2.28695,7.46013 -15.84779,-1.47888 -18.63402,-2.93561c-1.23838,-0.64746 -5.27308,-2.03091 -5.23862,-3.65059c-0.40638,-0.74547 -0.6373,-1.60036 -0.6373,-2.50918c0,-1.054 0.3106,-2.03545 0.84526,-2.85783c0.5733,-2.09576 1.3178,-4.54418 2.41787,-5.31185z" fill="#fff3bf" stroke="none" stroke-width="0.5" stroke-linecap="butt"/><path d="M264.46608,143.66081c0,-0.82843 0.67157,-1.5 1.5,-1.5c0.82843,0 1.5,0.67157 1.5,1.5c0,0.82843 -0.67157,1.5 -1.5,1.5c-0.82843,0 -1.5,-0.67157 -1.5,-1.5z" fill="#e890ff" stroke="none" stroke-width="0.5" stroke-linecap="butt"/><path d="M268.63588,154.01342c0,-0.82843 0.67157,-1.5 1.5,-1.5c0.82843,0 1.5,0.67157 1.5,1.5c0,0.82843 -0.67157,1.5 -1.5,1.5c-0.82843,0 -1.5,-0.67157 -1.5,-1.5z" fill="#e890ff" stroke="none" stroke-width="0.5" stroke-linecap="butt"/><path d="M257.9957,153.00691c0,-0.82843 0.67157,-1.5 1.5,-1.5c0.82843,0 1.5,0.67157 1.5,1.5c0,0.82843 -0.67157,1.5 -1.5,1.5c-0.82843,0 -1.5,-0.67157 -1.5,-1.5z" fill="#e890ff" stroke="none" stroke-width="0.5" stroke-linecap="butt"/><path d="M265.32879,149.41226c0,-0.82843 0.67157,-1.5 1.5,-1.5c0.82843,0 1.5,0.67157 1.5,1.5c0,0.82843 -0.67157,1.5 -1.5,1.5c-0.82843,0 -1.5,-0.67157 -1.5,-1.5z" fill="#e890ff" stroke="none" stroke-width="0.5" stroke-linecap="butt"/><path d="M254.97619,148.26197c0,-0.82843 0.67157,-1.5 1.5,-1.5c0.82843,0 1.5,0.67157 1.5,1.5c0,0.82843 -0.67157,1.5 -1.5,1.5c-0.82843,0 -1.5,-0.67157 -1.5,-1.5z" fill="#e890ff" stroke="none" stroke-width="0.5" stroke-linecap="butt"/><path d="M251.95668,152.43177c0,-0.82843 0.67157,-1.5 1.5,-1.5c0.82843,0 1.5,0.67157 1.5,1.5c0,0.82843 -0.67157,1.5 -1.5,1.5c-0.82843,0 -1.5,-0.67157 -1.5,-1.5z" fill="#e890ff" stroke="none" stroke-width="0.5" stroke-linecap="butt"/><path d="M263.74715,158.75836c0,-0.82843 0.67157,-1.5 1.5,-1.5c0.82843,0 1.5,0.67157 1.5,1.5c0,0.82843 -0.67157,1.5 -1.5,1.5c-0.82843,0 -1.5,-0.67157 -1.5,-1.5z" fill="#e890ff" stroke="none" stroke-width="0.5" stroke-linecap="butt"/><path d="M268.49209,163.21574c0,-0.82843 0.67157,-1.5 1.5,-1.5c0.82843,0 1.5,0.67157 1.5,1.5c0,0.82843 -0.67157,1.5 -1.5,1.5c-0.82843,0 -1.5,-0.67157 -1.5,-1.5z" fill="#e890ff" stroke="none" stroke-width="0.5" stroke-linecap="butt"/><path d="M269.64238,144.66731c0,-0.82843 0.67157,-1.5 1.5,-1.5c0.82843,0 1.5,0.67157 1.5,1.5c0,0.82843 -0.67157,1.5 -1.5,1.5c-0.82843,0 -1.5,-0.67157 -1.5,-1.5z" fill="#e890ff" stroke="none" stroke-width="0.5" stroke-linecap="butt"/></g></g></g></svg>