<svg version="1.1" xmlns="http://www.w3.org/2000/svg" xmlns:xlink="http://www.w3.org/1999/xlink" width="294.43828" height="415.029" viewBox="0,0,294.43828,415.029"><g transform="translate(-181.70614,62.51115)"><g data-paper-data="{&quot;isPaintingLayer&quot;:true}" fill-rule="nonzero" stroke-linejoin="miter" stroke-miterlimit="10" stroke-dasharray="" stroke-dashoffset="0" style="mix-blend-mode: normal"><path d="M272.32103,231.18551c2.58991,-2.29643 2.86926,-3.4355 5.5246,-5.47777c13.84285,-10.64679 21.42991,-16.81864 34.39086,-28.15751c3.1209,-2.73031 12.60784,-8.25063 15.89908,-10.50501c17.38095,-11.90534 33.25578,-22.8042 53.36873,-29.64859c4.15231,-1.41302 7.06791,-6.67254 9.88151,-9.5613c5.24707,-5.38725 6.47769,-12.20291 11.3404,-17.96188c2.57343,-3.04774 6.76941,-8.77772 10.38779,-10.85229c5.79072,-3.32007 15.3172,-3.22946 20.797,0.72074c2.7934,2.01367 3.84066,5.26466 5.75442,7.86332c2.15855,2.93107 3.68264,6.12381 4.48399,9.69193c0.71957,3.20399 0.12709,8.34597 -1.41251,11.60664c-0.5244,1.11062 -1.48371,2.13185 -1.64143,3.30872c-0.13868,1.03479 2.33825,-0.33564 3.44632,-0.13363c2.21583,0.40397 4.45098,0.64018 6.65545,1.01489c2.73088,0.46418 5.4066,1.35655 8.05865,2.00868c8.69776,2.13876 13.21979,0.41944 16.1052,9.62399c5.24902,16.74451 -16.96012,34.97669 -34.45562,34.9348c-4.57785,-0.01096 -10.18753,-0.54406 -14.51029,-1.6908c-1.69793,-0.45043 -3.49417,-0.70224 -4.93482,-1.53853c-0.60854,-0.35325 -1.03602,-1.73912 -1.62773,-1.28742c-0.76975,0.58762 -0.5729,1.71448 -0.9336,2.55203c-1.14491,2.65853 -3.38816,7.54442 -5.44301,9.79162c-4.01162,4.38713 -8.25352,8.66942 -12.46829,12.92392c-6.60286,6.6651 -15.68354,11.7131 -23.77069,16.62135c-13.18785,8.00395 -27.73426,14.58903 -42.32544,20.18658c-11.6934,4.48589 -24.0955,8.61987 -36.3592,11.32043c-3.59313,0.79124 -7.66073,1.62682 -11.34674,1.39669c-1.77268,-0.11067 -3.85793,-0.76214 -5.65352,-0.10153c-6.0319,2.21917 -10.88796,5.40368 -17.58196,5.37401c-8.15969,-0.03617 -8.60477,-8.6135 -10.15379,-13.42719c-0.60526,-0.60886 -1.13311,-1.29086 -1.56705,-2.03866c-0.25314,-0.29203 -0.4691,-0.65264 -0.59364,-1.20717c-0.10423,-0.25485 -0.19842,-0.51578 -0.28205,-0.78257c-1.0576,-3.37378 -0.19455,-6.94186 2.00738,-9.74402c3.22224,-6.41154 9.38147,-7.76476 13.96001,-11.82447z" fill="#230800" stroke="none" stroke-width="0.5" stroke-linecap="butt"/><path d="M248.58585,109.49742c0.60665,1.47062 2.27921,5.70779 4.55245,2.50345c1.67332,-2.3587 8.56493,-2.52655 10.96224,-0.3472c0.63935,0.58123 0.62284,1.95894 1.14371,2.72929c0.49454,0.7314 1.45913,0.79176 1.82109,1.65552c0.67873,1.61968 0.2399,8.73865 -0.4202,10.31386c-0.42532,1.01495 -4.15449,3.87485 -3.9592,6.12683c0.12851,1.48187 1.87506,1.68138 2.49253,2.91332c1.05503,2.10496 0.69113,7.66614 0.4202,10.31386c-0.15905,1.55435 -3.74313,4.77509 -3.93152,4.93295c-0.48372,0.40532 -1.83031,0.17562 -1.57922,0.86998c1.48323,4.1017 1.2335,6.0981 0.37737,10.19707c-0.11466,0.54895 -0.85721,1.4142 -0.77965,1.96876c0.2618,1.87193 1.45198,1.4515 2.10029,2.8223c0.00489,0.01033 0.88815,4.71483 0.93959,5.125c0.50836,4.05363 -1.23062,6.26453 -2.68339,8.59249c-0.56587,0.90677 -0.17135,2.37537 -0.35857,3.53834c-0.08254,0.51274 0.82137,0.06409 1.11695,0.40042c0.48961,0.55711 0.83729,1.32593 1.15367,2.08091c0.93988,2.24287 2.23317,4.35477 2.60469,6.88784c0.14235,0.97059 -1.19013,2.93056 -1.60853,3.83852c-0.76849,1.66766 -1.20368,3.64206 -2.14982,5.13023c-0.3195,0.50254 -0.97249,0.21799 -1.41954,0.48393c-0.99172,0.58994 -0.86915,3.10167 -1.26172,4.17232c-0.26857,0.73246 -1.69421,2.35148 -1.66352,3.07964c0.04508,1.0696 2.45168,3.42217 2.85603,4.06543c1.00082,1.5922 1.26173,4.77427 1.58043,6.72992c1.35871,8.33748 -2.01577,8.26708 -4.84597,12.46909c-0.20673,0.30694 0.39574,0.63527 0.59669,0.94927c0.56818,0.88782 1.56102,1.28977 1.93552,2.35172c0.33301,0.94431 -0.08537,2.13195 0.12787,3.13862c0.20246,0.95577 1.04542,1.59799 1.08589,2.59131c0.03518,0.86339 -1.30649,1.64682 -0.88681,2.29508c0.17474,0.26992 1.22894,2.82928 1.23442,2.96359c0.47281,11.60528 -4.9991,15.19346 -12.99769,13.99133c-1.28357,-0.19291 -2.63716,-0.40759 -3.75836,-1.28125c-0.59792,-0.46591 -0.53805,-1.782 -1.02501,-2.44602c-0.48695,-0.66402 -1.45209,-0.58239 -1.79376,-1.39773c-0.69967,-1.66965 -0.27595,-3.92821 -0.93959,-5.625c-0.92743,-2.37125 -2.50816,-4.37587 -2.93335,-7c-0.18807,-1.16067 0.98807,-1.98487 1.29744,-3.09615c0.10069,-0.36167 -1.20305,-2.0839 -1.45786,-2.77885c-0.69033,-1.8827 -0.96477,-4.02949 -1.30626,-6.125c-0.86124,-5.28485 2.2018,-9.39214 4.44613,-12.73668c0.33981,-0.50639 -2.12623,-3.50128 -2.40653,-4.13832c-0.75256,-1.71035 -1.19886,-5.15891 -0.93959,-7.125c0.22855,-1.73311 0.45444,-3.49309 0.93959,-5.125c0.13822,-0.46493 1.01675,-0.58159 0.82079,-1.00617c-0.28807,-0.62415 -1.31341,-2.5459 -1.37464,-3.12749c-0.3247,-3.08404 1.70233,-4.50963 0.52357,-7.93049c-0.05022,-0.14574 -0.86452,-1.79472 -0.76334,-2.30065c0.46291,-2.31452 2.43034,-7.77925 2.45074,-9.83536c0.01317,-1.32815 -1.076,-2.3486 -1.13003,-3.67483c-0.03083,-0.7568 1.22164,-4.4868 1.32951,-5.07117c0.28638,-1.55134 -2.07366,-5.74891 -1.74302,-8.00183c0.13243,-0.90235 0.75864,-1.5225 1.12302,-2.29707c0.37828,-0.80411 -0.21408,-2.0336 0.13757,-2.85986c0.58869,-1.3832 2.88158,-2.06763 2.39071,-3.52008c-1.02491,-3.03263 -1.57992,-5.32672 -2.13779,-8.75c-0.11941,-0.73273 0.61968,-1.35607 0.56049,-1.81524c-0.12173,-0.94445 -0.86973,-1.5541 -1.08541,-2.46682c-0.0895,-0.37874 0.27708,-0.75891 0.23034,-1.15169c-0.24387,-2.04928 -1.28696,-5.90751 -1.21894,-8.13925c0.05679,-1.86315 1.70669,-1.8421 1.44872,-4.06643c-0.16934,-1.4601 -2.72285,-4.1919 -3.39565,-5.73558c-0.93416,-2.14336 -1.78814,-9.85666 0.0991,-11.32722c1.30754,-3.0211 3.71922,-5.04778 6.47803,-5.04778c2.44616,0 4.61941,1.59335 5.99204,4.06047c0.22403,0.31556 0.42127,0.66741 0.58508,1.06453z" fill="#230800" stroke="none" stroke-width="0.5" stroke-linecap="butt"/><path d="M259.18674,324.12041v-58.84957h12.19001v58.84957c0,0 -0.83747,-1.11492 1.04495,10.71162c0.25284,1.58846 4.5549,8.34048 2.96234,10.66778c-0.77524,1.1329 -3.89978,-2.99295 -5.01302,-1.76985c-1.06805,1.17345 -3.11179,5.39577 -3.80528,5.72616c-2.18556,1.04122 -3.48887,-3.97679 -4.61868,-3.94819c-1.68988,0.04276 -3.53459,3.90577 -5.47303,1.03971c-2.17747,-3.21947 -1.10886,-9.06086 -0.77015,-9.45252c3.60661,-4.17044 3.48286,-12.9747 3.48286,-12.9747z" fill="#ffffff" stroke="#000000" stroke-width="3" stroke-linecap="butt"/><path d="M228.18676,322.12041v-58.84957h12.19001v58.84957c0,0 -0.83747,-1.11492 1.04495,10.71163c0.25283,1.58847 4.5549,8.34048 2.96234,10.66778c-0.77524,1.13291 -3.89978,-2.99294 -5.01301,-1.76984c-1.06805,1.17345 -3.11179,5.39577 -3.80528,5.72615c-2.18556,1.04122 -3.48887,-3.97678 -4.61868,-3.94819c-1.68988,0.04276 -3.53459,3.90577 -5.47303,1.0397c-2.17747,-3.21947 -1.10886,-9.06086 -0.77015,-9.45252c3.60661,-4.17044 3.48286,-12.97471 3.48286,-12.97471z" fill="#ffffff" stroke="#000000" stroke-width="3" stroke-linecap="butt"/><path d="M246.1531,95.07262v-13.35683h7.90123v13.35683z" fill="#ffffff" stroke="#000000" stroke-width="3" stroke-linecap="butt"/><g data-paper-data="{&quot;index&quot;:null}" stroke-linecap="butt"><path d="M303.80168,-61.06285c3.04708,-0.17334 5.78332,4.36366 6.11156,10.13367c0.32823,5.77001 -7.69181,11.86104 -10.73889,12.03438c-0.80673,0.04589 -8.08743,-4.91822 -11.40975,-8.74989c-3.92818,-4.53042 -2.80175,-10.9638 2.05908,-12.86047c4.86083,-1.89667 9.19367,12.63985 9.05509,10.20369c-0.32823,-5.77001 1.87583,-10.58805 4.92291,-10.76138z" fill="#d00000" stroke="#000000" stroke-width="1.5"/><g stroke="#af4c00"><path d="M299.3256,-44.47414c0,0 13.17753,30.17521 4.85731,55.73897c-8.32022,25.56376 -22.47747,42.391 -30.50473,39.77837c-5.62819,-1.8318 -22.15009,-25.40012 -19.71529,-41.08652c1.03786,-6.68648 25.13162,-4.95581 28.85681,-12.07464c13.08353,-25.00263 16.5059,-42.35618 16.5059,-42.35618z" fill="#ff6f00" stroke-width="3"/><path d="M287.54823,14.50616l1.45557,-4.4722l12.29855,4.0028l-1.45557,4.4722z" fill="#ffffff" stroke-width="0"/><path d="M290.83378,5.93092l1.45557,-4.4722l12.29855,4.0028l-1.45557,4.4722z" fill="#ffffff" stroke-width="0"/><path d="M292.15639,-1.28197l0.7537,-4.64233l12.7664,2.07267l-0.7537,4.64232z" fill="#ffffff" stroke-width="0"/><path d="M292.64922,-8.55436l-0.21103,-4.69838l12.92053,-0.58033l0.21103,4.69837z" fill="#ffffff" stroke-width="0"/></g></g><g stroke-linecap="butt"><path d="M195.72909,-49.56242c-0.13859,2.43616 4.19426,-12.10036 9.05509,-10.20369c4.86083,1.89667 5.98727,8.33005 2.05908,12.86047c-3.32232,3.83167 -10.60302,8.79578 -11.40975,8.74989c-3.04708,-0.17334 -11.06712,-6.26437 -10.73889,-12.03438c0.32823,-5.77001 3.06447,-10.30701 6.11156,-10.13367c3.04708,0.17334 5.25115,4.99137 4.92291,10.76138z" fill="#d00000" stroke="#000000" stroke-width="1.5"/><g stroke="#af4c00"><path d="M211.78814,-1.3789c3.72519,7.11883 27.81895,5.38817 28.85681,12.07464c2.4348,15.68639 -14.0871,39.25471 -19.71529,41.08652c-8.02726,2.61263 -22.18451,-14.21461 -30.50473,-39.77837c-8.32022,-25.56376 4.85731,-55.73897 4.85731,-55.73897c0,0 3.42237,17.35355 16.5059,42.35618z" fill="#ff6f00" stroke-width="3"/><path d="M194.76105,19.24801l-1.45557,-4.4722l12.29855,-4.0028l1.45557,4.4722z" fill="#ffffff" stroke-width="0"/><path d="M191.47548,10.67278l-1.45557,-4.4722l12.29855,-4.0028l1.45557,4.4722z" fill="#ffffff" stroke-width="0"/><path d="M189.68505,1.52975l-0.7537,-4.64232l12.7664,-2.07267l0.7537,4.64233z" fill="#ffffff" stroke-width="0"/><path d="M189.0381,-8.39563l0.21103,-4.69837l12.92053,0.58033l-0.21103,4.69838z" fill="#ffffff" stroke-width="0"/></g></g><path d="M291.11482,39.79932c0,10.05157 0.44481,17.90029 -5.13247,25.28671c-1.57852,2.09055 -7.10053,5.44199 -9.01707,7.20792c-4.07737,3.75696 -4.63262,10.48628 -9.90035,12.42693c-4.53246,1.66978 -13.65284,-1.18263 -18.74841,-1.18263c-5.39013,0 -11.01784,1.33322 -15.76835,-0.52545c-4.39372,-1.71908 -7.96907,-6.50857 -11.52888,-9.52455c-5.83481,-4.94343 -12.24561,-6.7367 -14.86315,-14.16595c-1.63055,-4.62792 -0.63792,-14.32095 -0.63792,-19.52297c0,-4.85677 -1.10667,-15.69593 0.32311,-20.13161c2.81964,-8.74747 10.06869,-10.2552 17.06924,-15.54091c4.21992,-3.18622 8.56281,-9.66575 13.76877,-10.96512c3.56,-0.88854 7.77397,2.89871 11.63718,2.89871c6.54691,0 16.51296,-1.78985 22.06112,0.89587c5.50529,2.66497 6.60278,9.7873 10.51256,14.47105c3.02695,3.62615 7.83591,6.82332 9.5823,11.32815c1.93206,4.98377 0.64232,11.3574 0.64232,17.04386z" fill="#ffffff" stroke="#000000" stroke-width="3" stroke-linecap="butt"/><path d="M280.25065,36.48155c0,10.27017 -4.9167,18.59578 -10.98176,18.59578c-6.06506,0 -10.98176,-8.32562 -10.98176,-18.59578c0,-10.27017 4.9167,-18.59578 10.98176,-18.59578c6.06506,0 10.98176,8.32562 10.98176,18.59578z" fill="#ff2b2b" stroke="#000000" stroke-width="1.5" stroke-linecap="butt"/><path d="M272.19218,37.04862c0,3.02228 -1.53685,5.47232 -3.43264,5.47232c-1.3248,0 -2.47431,-1.19644 -3.04657,-2.94851c-0.24665,-0.75516 2.00186,-2.62331 2.00186,-2.62331c0,0 -2.16975,-2.09674 -1.7964,-2.97256c0.61754,-1.44866 1.65962,-2.40027 2.84112,-2.40027c1.8958,0 3.43264,2.45004 3.43264,5.47232z" fill="#000000" stroke="#000000" stroke-width="0" stroke-linecap="butt"/><path d="M226.4679,15.35576l1.1489,-2.04249l0.76594,1.91484z" fill="none" stroke="#000000" stroke-width="1.5" stroke-linecap="round"/><path d="M271.01572,58.61344l-2.01562,-2.95624" fill="none" stroke="#000000" stroke-width="1" stroke-linecap="round"/><path d="M274.18696,56.35595l-1.61249,-2.14999" fill="none" stroke="#000000" stroke-width="1" stroke-linecap="round"/><path d="M268.20394,14.38493l1.22953,-2.18583l0.81969,2.04921z" fill="none" stroke="#000000" stroke-width="1.5" stroke-linecap="round"/><path d="M281.00836,279.23615l-61.09149,-1.45895l6.73664,-31.36832c1.45629,-0.63526 2.9086,-1.3677 4.30436,-1.67118c2.67538,-0.5817 5.78572,1.65166 7.77114,2.71055c3.1078,1.6575 8.53506,1.92182 12.021,1.708c2.18999,-0.13433 4.48678,-0.68721 6.54953,-1.37616c1.49705,-0.50001 2.88049,-2.45897 4.3474,-1.87639c1.75395,0.69657 3.00424,3.28299 4.8548,2.91288c2.14216,-0.42843 4.27681,-0.89802 6.40163,-1.40821z" fill="#39ff2b" stroke="#000000" stroke-width="3" stroke-linecap="butt"/><path d="M231.66752,89.61701h36.11989v27.42982c-0.09803,0.01719 -0.19732,0.03184 -0.29796,0.04379c-0.12076,0.01434 -2.91271,-1.95008 -3.49117,-2.0947c-1.40076,-0.35019 -4.1808,-0.48434 -5.74827,-0.33967c-3.27244,0.30202 -7.61021,1.11256 -10.54953,2.87616c-0.32591,0.19554 -2.69012,2.35358 -3.55787,2.22356c-2.36656,-0.3546 -4.7319,-3.21133 -6.76759,-4.06847c-1.7356,-0.73078 -3.48495,-1.16951 -5.22742,-1.34707z" fill="#39ff2b" stroke="#000000" stroke-width="3" stroke-linecap="butt"/><path d="M235.7896,109.84488l-6.24197,-19.40072l5.07404,-1.63252l6.24197,19.40072z" fill="#032b00" stroke="#000000" stroke-width="1.5" stroke-linecap="butt"/><path d="M257.14669,109.04008l7.61062,-18.90579l4.94459,1.99047l-7.61062,18.90579z" fill="#032b00" stroke="#000000" stroke-width="1.5" stroke-linecap="butt"/><path d="M234.10824,106.06938h33.23531v10.95014c-0.60193,-0.35213 -2.83495,-1.89602 -3.34527,-2.0236c-1.40076,-0.35019 -4.1808,-0.48434 -5.74827,-0.33967c-3.27244,0.30202 -7.61021,1.11256 -10.54953,2.87616c-0.32591,0.19554 -2.69012,2.35358 -3.55787,2.22356c-2.36656,-0.3546 -4.7319,-3.21133 -6.76759,-4.06847c-1.08523,-0.45694 -2.17584,-0.79969 -3.26677,-1.03582z" fill="#032b00" stroke="#000000" stroke-width="1.5" stroke-linecap="butt"/><path d="M239.60127,37.62386c0,10.27017 -4.9167,18.59578 -10.98176,18.59578c-6.06506,0 -10.98176,-8.32562 -10.98176,-18.59578c0,-10.27017 4.9167,-18.59578 10.98176,-18.59578c6.06506,0 10.98176,8.32562 10.98176,18.59578z" fill="#ff2b2b" stroke="#000000" stroke-width="1.5" stroke-linecap="butt"/><path d="M231.71929,37.15984c0,2.94019 -1.49511,5.32369 -3.33941,5.32369c-1.28882,0 -2.4071,-1.16394 -2.96383,-2.86843c-0.23995,-0.73465 1.94749,-2.55206 1.94749,-2.55206c0,0 -2.11082,-2.03979 -1.74761,-2.89182c0.60077,-1.40932 1.61454,-2.33508 2.76395,-2.33508c1.84431,0 3.33941,2.3835 3.33941,5.32369z" fill="#000000" stroke="#000000" stroke-width="0" stroke-linecap="butt"/><path d="M226.77864,56.48292l2.01562,2.95624" fill="none" stroke="#000000" stroke-width="1" stroke-linecap="round"/><path d="M232.57496,58.3558l-1.61249,-2.14999" fill="none" stroke="#000000" stroke-width="1" stroke-linecap="round"/><path d="M236.9416,61.19326c1.7971,-0.9121 5.91339,-1.2481 7.44197,-1.20842c4.7154,0.12239 9.58671,1.87386 14.31445,1.36474c2.97202,-0.32005 10.31661,-1.8052 13.07552,-0.50894c0.22416,0.10532 0.43575,0.22151 0.63707,0.34654l0.08404,-0.09367l2.29809,1.13824c0.75049,0.36009 1.24729,0.987 1.24729,1.70012c0,1.0622 -1.10224,1.93314 -2.50329,2.01593l-2.67708,0.18082c-4.85855,0.82242 -6.8126,4.70396 -11.88185,5.72917c-3.36154,0.67984 -6.33822,-0.19677 -9.61846,-0.52902c-6.91371,-0.70028 -14.10588,-2.75979 -19.90261,-5.86256l-0.18488,0.34339l-2.5336,-0.75293c-1.03383,-0.28679 -1.77001,-1.02713 -1.77001,-1.89521c0,-1.11693 1.21873,-2.02237 2.72209,-2.02237c0.09467,0 0.1882,0.00358 0.28036,0.01059l2.72522,0.18406c2.13275,-0.00194 4.18838,-0.03658 6.24566,-0.14047z" fill="#ffffff" stroke="#000000" stroke-width="1" stroke-linecap="butt"/><path d="M274.41008,62.9367l-11.27273,4l-10.18182,-3.36363l-8.36364,3.09091l-19.27272,-4.09091" fill="none" stroke="#000000" stroke-width="1" stroke-linecap="round"/><path d="M242.71579,108.67424c0.88391,0.32591 1.57645,1.92279 2.40788,1.47981c4.75434,-2.53309 8.65999,-0.97654 14.0956,-1.42538c2.74379,-0.22657 3.08496,-1.17834 6.9044,-0.8c2.59253,0.25681 7.07177,3.52031 5.38811,6.88762c-0.78871,1.57743 -2.06801,2.95351 -3.52792,3.94296c-1.31468,0.89102 -3.16673,-0.40724 -4.75305,-0.33059c-3.4178,0.16515 -4.05317,0.83271 -9.01366,0.83271c-0.54147,0 -2.17068,-0.77744 -2.71886,-0.43271c-1.05467,0.66324 -1.7363,1.74288 -2.9825,2.05443c-2.15918,0.53979 -9.35444,0.19057 -10.76894,-2.74582c-1.09349,-2.27 -9.42378,-1.50177 -9.15002,-5.47126c-0.33519,-0.69139 -0.52315,-1.46742 -0.52315,-2.28735c0,-2.89949 2.35051,-5.25 5.25,-5.25c0.05094,-0.04819 0.42801,-0.00607 0.51245,0.02469c0.97416,0.09437 1.8704,0.45497 2.61507,1.00813c2.13528,0.8585 4.23747,1.76531 6.2646,2.51275z" fill="#150500" stroke="none" stroke-width="0.5" stroke-linecap="butt"/><path d="M233.34936,243.12867c4.32242,0.01232 6.91763,0.82871 11.03451,1.86941c1.27467,0.32222 2.62947,1.85011 3.72688,1.93059c2.44664,0.17942 6.08085,-1.88129 8.76174,-2.35946c3.98074,-0.71001 11.39485,0.97229 12.71785,0.70976c0.5114,-0.10148 0.822,-0.85205 1.34122,-0.80473c5.19029,0.47299 8.73869,4.05522 5.10443,8.81674c-4.45601,5.83815 -9.54964,0.95714 -15.27781,1.33769c-5.49726,0.3652 -8.97219,3.77344 -14.87679,2.598c-3.40206,-0.67725 -6.08018,-3.37364 -9.59707,-3.598c-4.53185,-0.2891 -9.17923,0.63045 -11.33806,-4.06965c-0.14863,-0.19492 -0.28392,-0.40056 -0.40452,-0.61555c-0.30861,-0.40381 -0.62282,-0.8048 -0.50175,-1.24874c-0.10856,-0.42057 -0.16632,-0.86157 -0.16632,-1.31606c0,-2.89949 2.35051,-5.25 5.25,-5.25c0.65346,0 1.27904,0.11939 1.85612,0.33754c0.88543,0.33472 1.65666,0.90196 2.23921,1.62722c0.0513,0.02278 0.09507,0.03514 0.13036,0.03524z" fill="#150500" stroke="none" stroke-width="0.5" stroke-linecap="butt"/><path d="M239.18387,334.68026c3.76481,2.24038 13.4103,6.9539 8.68277,12.1085c-3.09133,3.37059 -7.66369,1.51918 -10.70256,-0.72396c-0.01283,-0.00947 -0.93949,1.57216 -1.07214,1.70822c-1.62129,1.66284 -1.98913,2.09055 -4.36826,2.33782c-5.44095,0.5655 -8.19752,-1.83254 -10.39375,-6.225c-2.26306,-4.52611 -0.39813,-10.04085 2.08144,-13.93731c0.91132,-1.43207 6.18068,-3.30554 7.37686,-1.21222c1.54739,0.91324 2.58545,2.59766 2.58545,4.52453c0,0.41473 -0.04809,0.81823 -0.139,1.20522c0.13567,1.7562 2.98308,-1.55089 5.94919,0.21419z" fill="#150500" stroke="none" stroke-width="0.5" stroke-linecap="butt"/><path d="M257.23019,334.17814c3.94553,-0.18473 4.87025,1.76281 5.3381,3.82372c0.07541,0.2612 0.13108,0.53078 0.1653,0.807c0.28805,1.50972 0.50992,2.93872 1.68051,3.48786c3.88043,1.82037 5.83129,-5.6018 9.80307,-4.51859c0.9292,0.25342 1.57333,1.11553 2.40414,1.60276c0.45187,0.265 1.86106,0.8295 1.99812,1.33208c0.34556,1.26706 0.08153,2.62868 0.00868,3.93999c-0.39854,7.17375 -5.69154,6.622 -10.29647,7.47145c-8.60852,1.58797 -13.20713,-1.61393 -15.28277,-9.91651c-0.49163,-0.79914 -0.77519,-1.73998 -0.77519,-2.74706c0,-2.57829 1.85858,-4.72249 4.30905,-5.16591c0.20348,-0.06575 0.41865,-0.10608 0.64746,-0.1168z" fill="#150500" stroke="none" stroke-width="0.5" stroke-linecap="butt"/><path d="M285.12367,53.73035c1.55362,1.25654 4.1585,1.88754 4.97996,3.58342c0.09434,0.19475 0.16515,0.40355 0.20815,0.62896c0.78248,4.10152 -2.68138,14.60499 -7.22227,16.15609c-1.96834,0.67236 -8.63932,5.43188 -10.71371,3.17727c-1.67569,-1.82128 -2.96784,-4.64765 -2.34787,-7.04361c0.43761,-1.69121 4.13057,-4.09285 5.54787,-4.94787c0.84951,-0.51249 2.60412,0.10528 2.8507,-0.85571c0.38404,-1.49677 1.11556,-8.98077 3.24893,-9.40745z" fill="#150500" stroke="none" stroke-width="0.5" stroke-linecap="butt"/><path d="M209.92367,49.13035c1.32862,0.75921 3.15911,1.01995 4.1851,2.07975c0.15647,0.16163 0.29423,0.34184 0.40865,0.54525c0.01501,0.02669 0.03494,0.09303 0.05921,0.19113c0.38133,0.72752 0.59704,1.5555 0.59704,2.43387c0,0.10491 -0.00308,0.2091 -0.00915,0.31248c0.20538,0.86239 0.43432,1.62938 0.65239,1.83157c2.4311,2.25406 2.05803,2.48625 3.15675,5.83979c0.32639,0.99621 1.67583,1.80478 1.4,2.81616c-1.04316,3.82493 -4.52079,6.62938 -8.275,4.59375c-2.78524,-1.51023 -5.80271,-8.62638 -6.52885,-11.40913c-0.35764,-1.37058 -2.33081,-5.41481 -0.17069,-6.64917z" fill="#150500" stroke="none" stroke-width="0.5" stroke-linecap="butt"/><path d="M193.80139,-60.78573c1.55494,0.38874 7.09319,2.6656 7.71603,3.75557c1.07819,1.88684 1.36074,14.97632 -2.25891,16.42726c-1.27935,0.51283 -4.6329,0.05061 -5.04482,0.28027c-1.65084,0.92037 -3.69894,1.73454 -5.82485,0.51973c-2.86917,-1.63953 -7.54961,-12.74177 -6.54348,-16.76628c1.4352,-5.7408 6.46251,-7.53766 11.33012,-4.44009z" fill="#150500" stroke="none" stroke-width="0.5" stroke-linecap="butt"/><path d="M311.71742,-13.23016c0.13161,0.23396 0.25262,0.53915 0.36359,0.89228c0.07336,0.2099 0.13377,0.42588 0.18026,0.64699c0.42178,1.69335 0.66959,4.00706 0.78558,5.17844c0.96538,9.7494 -1.41369,20.98275 -12.51529,22.21172c-2.32522,0.25741 -4.18941,-3.75867 -4.25788,-5.50443c-0.07054,-1.79862 -0.02269,-3.60014 0,-5.4c0.02309,-1.83144 0.52381,-3.60405 0.93518,-5.38701c0.67517,-2.92632 3.50113,-14.95545 7.50645,-14.67922c0.72134,-0.37306 1.54025,-0.58377 2.40837,-0.58377c1.7085,0 3.22639,0.81611 4.1851,2.07975c0.15647,0.16163 0.29423,0.34184 0.40865,0.54525z" fill="#150500" stroke="none" stroke-width="0.5" stroke-linecap="butt"/><g stroke-linecap="butt"><path d="M205.53498,170.98025l17.42473,-87.27582l12.01638,2.44652l-17.42473,87.27581z" fill="#ffffff" stroke="#000000" stroke-width="3"/><path d="M221.29904,175.20559c0.54208,2.06154 -0.3255,8.82026 -1.94345,13.02964c-1.26003,3.27818 -3.04156,8.17198 -3.78307,6.08777c-2.55325,-7.17654 -2.1046,-9.76131 -4.36898,-12.32322c-0.86813,-0.98221 1.18479,11.07194 -0.85762,13.39719c-1.18278,1.34659 -4.79175,0.64424 -7.60464,-1.58478c-2.35238,-1.8641 -4.07361,-5.18978 -4.06354,-5.51871c0.2712,-8.86057 -0.02378,-7.61002 1.45397,-15.01169c1.47776,-7.40167 7.74283,-12.37025 13.99346,-11.09763c6.25063,1.27262 5.04868,4.93916 7.17387,13.02144z" fill="#ffffff" stroke="#000000" stroke-width="3"/><path d="M215.77367,170.78859c2.61461,0 3.92709,1.30213 4.58593,2.60942c0.11674,0.02725 0.23551,0.05805 0.35636,0.09258c5.048,1.44229 3.60571,6.49029 3.60571,6.49029c-0.71116,2.48906 -1.43039,4.97582 -2.15513,7.46096l-0.41253,0.33692l0.21541,0.1077l-1.44914,2.89827c-0.84181,1.77579 -2.65079,3.00386 -4.74661,3.00386c-2.89949,0 -5.25,-2.35051 -5.25,-5.25v-5h0.39645c-0.31468,-1.68138 -0.39645,-3.52525 -0.39645,-6.5v-1c0,0 0,-5.25 5.25,-5.25z" fill="#150500" stroke="none" stroke-width="0.5"/><path d="M217.17173,151.34667c-3.16466,-0.20085 -4.29653,-2.19186 -4.69671,-3.73723c-2.14777,-0.47773 -3.84606,-2.28371 -4.08185,-4.59262c-0.06334,-0.62028 -0.01597,-1.22635 0.1261,-1.79857l0.66331,-2.96648l0.08815,0.01971l-0.03611,-0.23165c2.02462,-6.49899 3.94835,-13.09257 7.24043,-19.01971c0,0 2.60171,-4.56 7.16171,-1.95829c4.56,2.60171 1.95829,7.16171 1.95829,7.16171c-2.47347,4.17298 -3.94212,9.06056 -5.38094,13.80618c0.90325,1.28243 1.6569,2.73347 2.61806,3.95065l-0.08845,4.45937c0,0 -0.33254,5.23946 -5.572,4.90692z" fill="#150500" stroke="none" stroke-width="0.5"/></g><g data-paper-data="{&quot;index&quot;:null}" stroke-linecap="butt"><path d="M283.10242,176.42676l-17.42473,-87.27581l12.01638,-2.44652l17.42473,87.27582z" fill="#ffffff" stroke="#000000" stroke-width="3"/><path d="M279.35474,178.2056c2.12519,-8.08228 0.92324,-11.74882 7.17387,-13.02144c6.25063,-1.27262 12.5157,3.69596 13.99346,11.09763c1.47775,7.40167 1.18277,6.15112 1.45397,15.01169c0.01007,0.32893 -1.71116,3.65461 -4.06354,5.51871c-2.81289,2.22902 -6.42186,2.93137 -7.60464,1.58478c-2.04241,-2.32525 0.01051,-14.3794 -0.85762,-13.39719c-2.26438,2.56191 -1.81573,5.14668 -4.36898,12.32322c-0.74151,2.08421 -2.52304,-2.80959 -3.78307,-6.08777c-1.61795,-4.20938 -2.48553,-10.9681 -1.94345,-13.02964z" fill="#ffffff" stroke="#000000" stroke-width="3"/><path d="M290.1301,179.0386v1c0,2.97475 -0.08177,4.81862 -0.39645,6.5h0.39645v5c0,2.8995 -2.3505,5.25 -5.25,5.25c-2.09581,0 -3.90479,-1.22807 -4.7466,-3.00386l-1.44914,-2.89827l0.2154,-0.1077l-0.41253,-0.33692c-0.72474,-2.48514 -1.44398,-4.9719 -2.15514,-7.46096c0,0 -1.44229,-5.048 3.60571,-6.49028c0.12084,-0.03453 0.23962,-0.06534 0.35636,-0.09258c0.65884,-1.30729 1.97132,-2.60942 4.58593,-2.60942c5.25,0 5.25,5.25 5.25,5.25z" fill="#150500" stroke="none" stroke-width="0.5"/><path d="M277.91005,149.43975l-0.08846,-4.45937c0.96116,-1.21717 1.7148,-2.66822 2.61806,-3.95065c-1.43882,-4.74562 -2.90747,-9.63321 -5.38094,-13.80618c0,0 -2.60171,-4.56 1.95829,-7.16171c4.56,-2.60171 7.16171,1.95829 7.16171,1.95829c3.29209,5.92714 5.21582,12.52072 7.24043,19.01971l-0.03611,0.23165l0.08814,-0.01971l0.66332,2.96648c0.14207,0.57221 0.18944,1.17828 0.1261,1.79857c-0.23578,2.30891 -1.93407,4.11489 -4.08184,4.59262c-0.40017,1.54536 -1.53205,3.53637 -4.69671,3.73722c-5.23946,0.33254 -5.572,-4.90692 -5.572,-4.90692z" fill="#150500" stroke="none" stroke-width="0.5"/></g></g></g></svg>