<svg version="1.1" xmlns="http://www.w3.org/2000/svg" xmlns:xlink="http://www.w3.org/1999/xlink" width="157.9348" height="257.56665" viewBox="0,0,157.9348,257.56665"><g transform="translate(-147.63706,-39.7125)"><g data-paper-data="{&quot;isPaintingLayer&quot;:true}" fill-rule="nonzero" stroke-linejoin="miter" stroke-miterlimit="10" stroke-dasharray="" stroke-dashoffset="0" style="mix-blend-mode: normal"><path d="M253.57014,281.93766l-5.04156,-109.02156l17.34193,-2.26919l2.92524,63.25707c-2.5233,1.05778 -4.29575,3.55116 -4.29575,6.45853c0,3.13558 2.06164,5.78964 4.90335,6.68059l1.50872,32.62538z" fill="#d1ad7f" stroke="#ae916a" stroke-width="2" stroke-linecap="butt"/><path d="M216.84728,278.14682l-0.21567,-34.98437c0.53467,0.13073 1.09343,0.20005 1.66839,0.20005c3.86599,0 7,-3.13401 7,-7c0,-3.86599 -3.13401,-7 -7,-7c-0.60503,0 -1.19213,0.07676 -1.7521,0.22107l-0.3734,-60.57274l17.41887,-1.57308l0.67278,109.136zM225.3,212.5625c3.86599,0 7,-3.13401 7,-7c0,-3.86599 -3.13401,-7 -7,-7c-3.86599,0 -7,3.13401 -7,7c0,3.86599 3.13401,7 7,7z" fill="#d1ad7f" stroke="#ae916a" stroke-width="2" stroke-linecap="butt"/><path d="M221.65441,165.59076v-67.01289h33.17049v67.01289z" fill="#d1ad7f" stroke="#ae916a" stroke-width="2" stroke-linecap="butt"/><path d="M214.59997,281.53798l0.56688,-27.73111c2.27465,-1.15589 3.83315,-3.51812 3.83315,-6.24436c0,-1.59268 -0.5319,-3.06111 -1.42776,-4.23737c0.23922,0.02471 0.48201,0.03737 0.72776,0.03737c0.87757,0 1.71742,-0.16149 2.49146,-0.45637c3.84691,-0.02231 6.95854,-3.14771 6.95854,-6.99988c0,-3.86599 -3.13401,-7 -7,-7c-0.87757,0 -1.71742,0.16149 -2.49147,0.45637c-0.92047,0.00534 -1.79883,0.18834 -2.60255,0.51644l0.177,-8.65828c1.90731,-1.25046 3.16702,-3.40726 3.16702,-5.85828c0,-2.34837 -1.1564,-4.42664 -2.93082,-5.69644l0.15157,-7.41459c3.15982,-0.67564 5.52926,-3.48373 5.52926,-6.84523c0,-3.26199 -2.23121,-6.00284 -5.25073,-6.77966l0.52477,-25.67109l19.39255,3.49629l26.66475,-2.39021l3.30154,18.7814l2.86959,36.18755c-3.40443,0.94564 -4.64326,4.66213 -4.64326,4.66213l-0.85922,3.71359c0,0.83334 0,1.66666 0,2.5c0,0 0,2.69303 1.67037,4.73835c-2.69221,2.83205 -1.31115,6.97525 -1.31115,6.97525l0.64145,1.88614c0.92732,2.10268 2.18195,4.08691 3.66628,5.85341c-0.66694,1.5866 -0.66694,3.04685 -0.66694,3.04685c0,2 0,5 0,7c0,0 0,5.77553 5.24612,6.83434l1.23199,15.53621l-22.43687,-1.02405l-0.89238,-25.97568c1.87038,-1.25663 3.10115,-3.39187 3.10115,-5.81456c0,-2.59486 -1.41191,-4.85997 -3.5094,-6.06896l-0.81808,-23.81269c3.35686,-0.51615 5.92748,-3.41705 5.92748,-6.91835c0,-3.6655 -2.81738,-6.67298 -6.40478,-6.97505l-0.73636,-21.43412l-12.04227,1.28598v31.00733c-1.24696,1.26398 -2.01659,3.00004 -2.01659,4.91585c0,1.91582 0.76963,3.65187 2.01659,4.91585v55.65963zM225.25,212.90625c3.5803,0 6.5328,-2.68792 6.94962,-6.15588c0.066,-0.38609 0.10038,-0.78297 0.10038,-1.18787c0,-3.86599 -3.13401,-7 -7,-7c-3.5803,0 -6.5328,2.68792 -6.94962,6.15588c-0.066,0.38609 -0.10038,0.78296 -0.10038,1.18787c0,3.86599 3.13401,7 7,7z" fill="#444444" stroke="#3c3c3c" stroke-width="3" stroke-linecap="butt"/><path d="M204.78097,88.31765c0,0 -6.88181,-10.63492 -11.91305,-14.99297c-0.44695,-0.38715 -1.08002,-0.80721 -1.86968,-1.22226c-1.56569,-3.47794 -5.06169,-5.89929 -9.12324,-5.89929c-3.25408,0 -6.14513,1.55429 -7.97126,3.96097c-1.39327,0.32209 -2.80649,0.77539 -4.2201,1.38505c-4.37779,1.88805 -8.84008,4.60244 -12.97152,7.50696c0.26863,-0.90408 0.41288,-1.86169 0.41288,-2.85298c0,-2.49126 -0.911,-4.76976 -2.41802,-6.52052c0.84909,-1.06937 1.67671,-2.05467 2.46656,-2.92218c0.31489,0.09713 0.63642,0.17913 0.96374,0.24514c0.64241,0.12956 1.30713,0.19755 1.98773,0.19755c4.58904,1.03723 9.36881,-4.45117 10.32702,-8.59972c0.49131,-0.18348 0.98054,-0.3598 1.46509,-0.52895c1.83422,2.21648 4.60613,3.62866 7.70789,3.62866c4.359,0 8.0666,-2.78901 9.43564,-6.6799l92.79481,-0.42565l1.60572,33.9877l-33.71696,-0.11469l0.4284,10.87844l-22.64062,0.03298l-0.26575,-10.98788z" fill="#737373" stroke="#585858" stroke-width="3" stroke-linecap="butt"/><path d="M278.10875,100.62816v-58.87632h19.70653c-0.12483,0.6311 -0.19027,1.28355 -0.19027,1.95129c0,2.62196 1.00908,5.00823 2.66008,6.79165c-0.50642,0.63866 -0.93647,1.34063 -1.27632,2.09211c-3.46961,1.56909 -5.88376,5.06074 -5.88376,9.11624c0,2.19798 0.70913,4.23034 1.91108,5.88077c-2.52029,1.81565 -4.16108,4.77582 -4.16108,8.11923c0,4.03837 2.3938,7.51763 5.83985,9.09625c0.09737,0.72361 0.27213,1.42269 0.51568,2.08863c-2.09373,0.81978 -3.84366,2.32507 -4.97368,4.23978c-2.35899,1.34799 -2.13946,5.01917 -0.81487,8.40287c0.13288,0.37669 0.28768,0.74303 0.46287,1.0975z" fill="#737373" stroke="#585858" stroke-width="3" stroke-linecap="butt"/><path d="M229.13223,66.49205c0,8.64643 -7.18904,15.65574 -16.05717,15.65574c-8.86813,0 -16.05719,-7.00932 -16.05719,-15.65574c0,-8.64643 7.18905,-15.65575 16.05719,-15.65575c8.86813,0 16.05718,7.00932 16.05718,15.65575z" fill="#ff4242" stroke="#000000" stroke-width="3" stroke-linecap="butt"/><path d="M213.29391,66.79959l3.38007,2.85789c0,0 -2.59749,2.81416 -4.63572,2.81416c-2.84563,0 -5.15247,-2.30684 -5.15247,-5.15247c0,-2.84563 2.30684,-5.15247 5.15247,-5.15247c1.72106,0 3.24503,0.84383 4.18077,2.14032c0.61143,0.84716 -2.92512,2.49257 -2.92512,2.49257z" fill="#000000" stroke="none" stroke-width="0" stroke-linecap="butt"/><path d="M274.259,67.37958c0,8.64643 -7.18905,15.65575 -16.05718,15.65575c-8.86813,0 -16.05718,-7.00932 -16.05718,-15.65575c0,-8.64643 7.18905,-15.65575 16.05718,-15.65575c8.86813,0 16.05718,7.00932 16.05718,15.65575z" fill="#ff4242" stroke="#000000" stroke-width="3" stroke-linecap="butt"/><path d="M259.09333,66.20043l3.20741,2.7119c0,0 -2.46481,2.67041 -4.39891,2.67041c-2.70028,0 -4.88927,-2.189 -4.88927,-4.88927c0,-2.70027 2.189,-4.88927 4.88927,-4.88927c1.63315,0 3.07926,0.80072 3.9672,2.03099c0.5802,0.80388 -2.77571,2.36525 -2.77571,2.36525z" fill="#000000" stroke="none" stroke-width="0" stroke-linecap="butt"/><path d="M218.82475,151.29864c3.75735,-1.48204 6.42525,-5.23211 6.42525,-9.62411c0,-3.85039 -2.05048,-7.20741 -5.08788,-8.9754l0.43029,-5.9842c0.21738,0.01453 0.43665,0.02192 0.65759,0.02192c5.52285,0 10,-4.61229 10,-10.30185c0,-5.40519 -4.04078,-9.83809 -9.18014,-10.26772l0.51435,-7.15337l6.39806,0.13789c0,0 4.58577,6.28882 7.13883,6.23758c1.09198,-0.02192 4.32777,0.97055 6.96387,-0.57948c2.82149,-1.65903 4.4088,-5.86714 4.4088,-5.86714l6.19932,-0.55316l2.21521,22.68249c-0.05267,-0.00084 -0.10544,-0.00127 -0.15831,-0.00127c-5.52285,0 -10,4.6123 -10,10.30186c0,5.68956 4.47715,10.30185 10,10.30185c0.73705,0 1.45548,-0.08214 2.14713,-0.23803l0.09903,1.01403c-0.72202,-0.17071 -1.47387,-0.26091 -2.24617,-0.26091c-5.52285,0 -10,4.61229 -10,10.30185c0,5.68956 4.47715,10.30186 10,10.30186c1.47769,0 2.88051,-0.33019 4.14275,-0.92284l0.46653,4.777l-16.64387,-0.08127c-0.42552,-5.28575 -4.72467,-9.43891 -9.96541,-9.43891c-3.49372,0 -6.56897,1.84572 -8.3571,4.64228c-3.10783,0.11237 -5.85491,1.68572 -7.61397,4.07383z" fill="#00d12e" stroke="#00ac25" stroke-width="2" stroke-linecap="butt"/><path d="M230.39002,84.51678c0,0 5.32021,-0.95136 8.20716,-1.0271c2.40204,-0.06302 7.9288,0.60375 7.9288,0.60375" fill="none" stroke="#000000" stroke-width="2" stroke-linecap="round"/><path d="M246.64717,86.7285l0.61813,-5.02437" fill="none" stroke="#000000" stroke-width="2" stroke-linecap="round"/><path d="M240.92486,178.431l0.23278,2.21149" fill="none" stroke="#292929" stroke-width="3" stroke-linecap="round"/><path d="M240.45928,174.15393l-0.11639,-2.21149" fill="none" stroke="#292929" stroke-width="3" stroke-linecap="round"/><path d="M228.23787,170.53917l-8.96237,0.23279" fill="none" stroke="#292929" stroke-width="3" stroke-linecap="round"/><path d="M252.02812,169.18824l8.96237,-0.23279" fill="none" stroke="#292929" stroke-width="3" stroke-linecap="round"/><path d="M207.95706,168.22312l4.9666,-69.8545l10.05992,0.49283l-4.9666,69.8545z" fill="#d1ad7f" stroke="#ae916a" stroke-width="2" stroke-linecap="butt"/><path d="M208.68322,109.49279l9.7507,-12.06237l5.17082,2.44301v1.42455c-0.74525,0.20579 -1.47023,0.50563 -2.15744,0.90515c-0.37487,0.21793 -0.707,0.48034 -1.00489,0.77838c-2.32891,1.82612 -3.833,4.71733 -3.833,7.97162c0,4.56173 2.95543,8.41005 6.99533,9.61132v10.15202h-8.57896c0.24365,-0.87765 0.37416,-1.80474 0.37416,-2.76334c0,-4.45619 -2.82027,-8.23161 -6.71671,-9.52371z" fill="#00d12e" stroke="#00ac25" stroke-width="2" stroke-linecap="butt"/><path d="M254.82778,184.8782v-86.80004h10.07743v35.91374c-1.80342,0.83106 -3.05521,2.65465 -3.05521,4.77061c0,2.11596 1.25179,3.93955 3.05521,4.77061v0.51595c-2.32385,0.54084 -4.05521,2.62495 -4.05521,5.11344c0,2.48849 1.73136,4.5726 4.05521,5.11345v3.84146c-1.47512,0.92942 -2.45521,2.5728 -2.45521,4.4451c0,1.8723 0.98009,3.51568 2.45521,4.4451v17.8706z" fill="#d1ad7f" stroke="#ae916a" stroke-width="2" stroke-linecap="butt"/><path d="M253.48207,97.10932l5.3441,-2.44301l10.07743,12.06238v21.22368l-7.47127,-0.00001c1.37202,-1.71188 2.19267,-3.88472 2.19267,-6.24923c0,-5.52285 -4.47715,-10 -10,-10c-0.04773,0 -0.09537,0.00034 -0.14293,0.001z" fill="#00d12e" stroke="#00ac25" stroke-width="2" stroke-linecap="butt"/><path d="M260.09551,179.38143c4.08988,0 7.40538,4.78526 7.40538,10.68818c0,5.90292 -0.10905,10.53549 -4.19893,10.53549c-0.55953,0 -4.00615,0.17215 -5.07011,-1.10622c-1.1802,-1.41802 0.00835,-4.30418 -0.79666,-4.37368c-1.70278,-0.14702 -3.74207,5.61823 -4.44879,4.18307c-0.85964,-1.7457 -0.29627,-6.93387 -0.29627,-9.23866c0,-5.90292 3.3155,-10.68817 7.40538,-10.68817z" fill="#d1ad7f" stroke="#ae916a" stroke-width="2" stroke-linecap="butt"/><path d="M259.83544,180.24151c4.08988,0 7.40538,2.83697 7.40538,6.33657c0,1.06161 0.17467,3.1032 0.32777,4.68872c-0.40625,-0.10081 -0.83117,-0.1543 -1.26859,-0.1543c-1.32813,0 -2.54109,0.49317 -3.46571,1.30638c-0.23221,-0.01402 -0.45541,-0.01845 -0.66481,-0.01104c-0.50063,-0.48934 -1.09875,-0.87939 -1.76249,-1.13827c-0.30187,-0.13582 -0.58977,-0.23397 -0.8468,-0.28767c-0.9398,-0.19632 -1.81255,-0.15758 -2.59087,0.06324c-0.96272,-1.17952 -2.42807,-1.93265 -4.06933,-1.93265c-0.17015,0 -0.33841,0.00809 -0.50442,0.02392c0.02075,-0.82873 0.03449,-1.70114 0.03449,-2.55833c0,-3.49959 3.3155,-6.33657 7.40538,-6.33657z" fill="#333333" stroke="#282828" stroke-width="2" stroke-linecap="butt"/><path d="M254.47333,182.73293v-5.52412c1.03141,-0.95864 1.67667,-2.32712 1.67667,-3.84631c0,-1.03143 -0.29744,-1.99339 -0.81122,-2.80479c0.11245,0.01633 0.22605,0.0291 0.34069,0.03819c0.93363,1.45359 2.56462,2.4166 4.42053,2.4166c1.86883,0 3.5096,-0.97647 4.43993,-2.44703c0.28323,0.36732 0.61402,0.69608 0.98315,0.97706c-1.14525,0.96305 -1.87308,2.40652 -1.87308,4.01997c0,1.82267 0.92883,3.4284 2.33897,4.3697v2.80073z" fill="#333333" stroke="#282828" stroke-width="2" stroke-linecap="butt"/><path d="M264.04177,179.04902c2.64042,1.68027 0.78008,5.76573 -0.56448,7.27305c-1.49444,1.67536 -6.65146,-0.21839 -8.04906,-1.81633c-2.43693,-2.78625 2.43798,-7.1833 3.97343,-7.99823c1.9362,-1.02763 3.64359,1.34919 4.60447,2.47021z" fill="#333333" stroke="none" stroke-width="0.5" stroke-linecap="butt"/><g stroke-width="2"><path d="M213.36789,289.36403l-1.16937,-4.33684c0,0 1.98494,0.74238 5.07516,1.23591c2.94669,0.4706 6.95143,0.69244 9.06831,0.73145c2.30697,0.04251 6.08185,0.04589 8.69421,-0.33289c2.6095,-0.37836 4.05772,-1.13884 4.05772,-1.13884l0.11694,3.96511c0,0 -9.72693,0.80024 -14.26362,0.71323c-4.01332,-0.07697 -11.57934,-0.83714 -11.57934,-0.83714z" fill="#cfcfcf" stroke="#b1b1b1" stroke-linecap="butt"/><path d="M238.83912,283.54026c0,3.83228 -14.50253,3.09774 -20.01143,3.09774c-5.50889,0 -7.74436,-2.61103 -7.74436,-6.44331c0,-3.83228 4.46584,-6.93895 9.97474,-6.93895c3.30039,0 11.01085,-0.16233 15.07301,2.51858c2.71824,1.79397 2.70804,6.22958 2.70804,7.76593z" fill="#323232" stroke="#292929" stroke-linecap="butt"/><path d="M223.47431,277.34478l2.72601,-4.58466c0,0 7.56232,1.09967 9.79459,2.37525c1.33981,0.7656 2.7203,4.56369 2.7203,4.56369l-2.23038,1.36301z" fill="#dfdfdf" stroke="#bcbcbc" stroke-linecap="butt"/><path d="M221.47069,277.47659l-1.06313,-6.18655l4.0791,-2.99861l1.80659,4.08008z" fill="#323232" stroke="#292929" stroke-linecap="butt"/><path d="M225.33296,276.97305l4.08902,-2.23038l1.73474,4.33684l3.34556,-3.22165l2.23038,4.83248" fill="none" stroke="#292929" stroke-linecap="round"/></g><g stroke-width="2"><path d="M251.20122,291.53069l-1.16937,-4.33684c0,0 1.98494,0.74239 5.07516,1.23591c2.94669,0.4706 6.95143,0.69244 9.0683,0.73145c2.30696,0.04251 6.08186,0.04589 8.69421,-0.33288c2.6095,-0.37835 4.05772,-1.13884 4.05772,-1.13884l0.11694,3.96511c0,0 -9.72694,0.80024 -14.26362,0.71324c-4.01332,-0.07697 -11.57934,-0.83714 -11.57934,-0.83714z" fill="#cfcfcf" stroke="#b1b1b1" stroke-linecap="butt"/><path d="M276.67245,285.70694c0,3.83227 -14.50253,3.09774 -20.01143,3.09774c-5.50889,0 -7.74436,-2.61103 -7.74436,-6.44331c0,-3.83227 4.46584,-6.93895 9.97473,-6.93895c3.3004,0 11.01085,-0.16233 15.07301,2.51858c2.71824,1.79397 2.70805,6.22959 2.70805,7.76593z" fill="#323232" stroke="#292929" stroke-linecap="butt"/><path d="M261.30764,279.51144l2.72602,-4.58466c0,0 7.56232,1.09967 9.79459,2.37525c1.33981,0.7656 2.7203,4.56369 2.7203,4.56369l-2.23038,1.363z" fill="#dfdfdf" stroke="#bcbcbc" stroke-linecap="butt"/><path d="M259.30402,279.64328l-1.06313,-6.18654l4.0791,-2.99862l1.80659,4.08008z" fill="#323232" stroke="#292929" stroke-linecap="butt"/><path d="M263.16629,279.13972l4.08902,-2.23037l1.73474,4.33684l3.34557,-3.22165l2.23037,4.83249" fill="none" stroke="#292929" stroke-linecap="round"/></g><path d="M209.23447,159.78291c1.18467,0.24988 3.4104,1.82031 4.33488,1.9614c0.63995,0.09767 4.61392,-2.9875 5.13065,-2.9318c1.58647,0.17101 3.02795,1.2467 4.15625,2.375c1.07063,1.07063 1.06533,9.83979 0,10.55c-3.66696,2.44464 -5.86506,2.38231 -9.74755,3.22717c-1.33088,0.28961 -1.91227,2.24711 -3.4087,1.94782c-1.11262,-0.22252 -2.20677,-0.61961 -3.19192,-1.18256c-1.46485,-0.83706 -2.46247,-4.45493 -3.21387,-5.95771c-0.34752,-0.66008 -0.54421,-1.41194 -0.54421,-2.20973c0,-0.87974 0.23916,-1.70363 0.65601,-2.41018c1.11908,-2.62036 3.50209,-5.86011 5.82845,-5.36942z" fill="#ff6b57" stroke="none" stroke-width="0.5" stroke-linecap="butt"/><path d="M262.24656,129.45561c0.08296,-0.04148 0.16435,-0.08061 0.24424,-0.1174c0.41721,-0.23822 0.89229,-0.38667 1.39895,-0.41903c0.16314,-0.01473 0.31937,-0.01358 0.46988,0.00353c1.67354,0.13227 2.99039,1.53224 2.99039,3.23978c0.89941,1.79904 -2.90288,3.20538 -3,5c-0.13047,2.41093 3.06886,3.62587 2.30988,6.66179c-0.34735,1.38939 -3.54019,2.75622 -3.45202,3.88671c0.20042,2.56995 4.03132,4.61986 4.14214,7.85151c0.03951,1.15229 0.25592,3.70068 -0.40625,5.025c-0.18467,0.36934 -2.05876,2.40369 -1.88118,2.76564c1.2111,2.4685 5.84403,3.07152 1.66243,7.25311c-1.77913,1.77913 -7.98709,-2.39076 -8.58489,-4.78196c-1.04818,-4.1927 2.77232,-6.06518 2.70989,-9.73439c-0.03826,-2.24869 -3.74079,-4.10774 -4.27951,-6.26264c-0.31174,-1.24695 -0.65348,-3.32361 0.22262,-4.5182c0.22276,-0.30373 2.31669,-2.47742 2.16518,-2.80104c-1.89484,-4.04728 -1.51843,-10.06638 2.8916,-12.7124z" fill="#ff6b57" stroke="none" stroke-width="0.5" stroke-linecap="butt"/><path d="M226.74089,231.97855c0.95137,1.90274 1.03583,3.10369 0.08141,4.11874c-0.00438,1.55417 -0.21618,3.0344 -0.47854,3.89021c-0.14024,0.45747 -0.41691,0.85614 -0.79573,1.19663c0.47728,0.96481 -0.28945,2.70609 0.00198,3.89113c0.24895,1.01234 1.55779,1.64559 1.6,2.68723c0.10728,2.64743 0.57102,8.72598 -0.69703,12.18824c-0.64947,1.77329 -4.36835,4.44074 -4.50297,5.62842c-0.39759,3.50772 -1.86488,8.35529 -6.50344,7.09023c-2.73541,-0.74602 -1.15919,-4.88174 -1.19655,-6.89483c-0.05486,-2.95558 2.73459,-5.25672 4.18986,-7.41521c0.08375,-0.12423 0.15946,-0.27874 0.22762,-0.45914c-1.62899,-1.82844 0.09112,-5.94511 -0.21749,-8.03752c-0.2474,-1.67739 -4.42579,-6.50289 -3.07323,-8.48023c-0.69749,-0.52072 -1.12677,-1.19498 -1.12677,-2.01996c0,-1.09177 0.93132,-2.00069 1.625,-2.84375c0.05322,-0.06468 0.16497,-0.11514 0.29433,-0.15355c-1.25145,0.17693 -3.26129,0.39888 -3.71882,-0.4018c-0.95791,-0.56534 -1.60052,-1.60808 -1.60052,-2.8009c0,-1.05765 0.5052,-1.99729 1.28746,-2.59078c0.10005,-0.09687 0.21162,-0.18214 0.33754,-0.25297c0.90893,-0.51128 2.29307,-0.89485 3.84101,-1.09918c-0.36744,-2.0516 -0.17326,-4.43546 0.40847,-7.37293c0.10236,-0.5169 0.55091,-4.6485 1.45014,-6.74076l-0.04786,-0.13401l-0.13366,-0.15592l-0.10516,-0.21033l-0.0317,-0.01811l-0.02264,-0.09056l-0.0405,-0.081l-0.162,-0.72898l-0.13883,-0.55531l-0.09918,-0.11571l-0.30517,-0.61033l-0.03169,-0.01811l-0.02264,-0.09056l-0.0405,-0.081l-0.16199,-0.72898l-0.18112,-0.72447v-0.09056l-0.02025,-0.09112l0.02025,-0.03037v-3.77589l-0.02025,-0.03037l0.02025,-0.09112v-0.09056l0.18112,-0.72447l0.11592,-0.52164v-0.34213l0.2,-0.8v-0.4l0.2,-0.8l0.26173,-0.49075l0.18707,-0.52378l0.15857,-0.23786l0.06237,-0.1871l0.23305,-0.36623l0.146,-0.40881l0.4,-0.6l0.23952,-0.21775l0.16655,-0.27757l0.4,-0.4l0.5498,-0.32988l0.1233,-0.21578l0.40513,-0.10128l0.35809,-0.21485l0.23976,0.06539l0.16208,-0.04052c0.04583,-0.01254 0.09206,-0.0241 0.13866,-0.03466l0.32128,-0.08032h0.4c0.55395,0 1.07553,0.13859 1.53196,0.38299l0.09304,0.02326l0.02448,0.04285c0.47421,0.27988 0.87115,0.67675 1.15111,1.1509h0.38735l0.03037,-0.02025l0.09112,0.02025h0.09056l0.72447,0.18112l0.06886,0.0153l0.025,-0.01666l0.09112,0.02025h0.09056l0.72447,0.18111l0.69371,0.15416l0.40956,0.0315l0.6,0.2l0.19735,0.12559l0.01568,0.00348l0.02102,-0.00573l0.02755,0.01653l0.16412,0.03647l0.4,0.2l0.39667,0.34l0.44798,0.26879l0.02707,0.02707l1.12828,0.56413l0.39667,0.34l0.44798,0.2688l0.4,0.4l0.32988,0.54979l0.21578,0.1233l0.10128,0.40513l0.21486,0.35808l-0.06539,0.23976l0.15551,0.62203v0.78795l0.02025,0.03037l-0.02025,0.09112v0.09056l-0.18112,0.72447l-0.16199,0.72898l-0.0405,0.081l-0.02264,0.09056l-0.0317,0.01811l-0.00187,0.00375l-0.2599,0.77971l0.00961,0.03521l-0.04803,0.08005l-0.02864,0.08591l-0.40091,0.63002l-0.38421,0.64034l-0.06403,0.06403l-0.05012,0.07876l-0.0358,0.00715l-0.08673,0.08674l-0.46142,0.61523l-0.18155,0.14751l-0.12035,0.20058l-0.17244,0.17245l-0.46972,0.70457l0.00059,0.02733l-0.05641,0.05641l-0.09595,0.14392l-0.52774,0.47976l-0.50432,0.50431l-0.14832,0.089l-0.05903,0.05366l-0.02728,-0.00188l-0.69905,0.41943l-0.53565,0.3571l-0.40881,0.146l-0.01072,0.00682c0.00035,4.63616 -1.95375,12.21119 -3.19001,15.47786c0.21466,0.13017 0.41241,0.27145 0.59071,0.42428c0.10035,0.08602 0.19487,0.18139 0.28383,0.28523c0.56486,0.35346 1.03678,0.69906 1.1731,0.97171zM224.50577,209.3125l0.36649,-0.23322l0.08591,-0.02864l0.08005,-0.04802l0.03023,0.00825l0.22878,-0.15252l0.07463,-0.02665l0.05603,-0.05603l0.37333,-0.224l0.39461,-0.59193l0.23953,-0.21775l0.16654,-0.27757l0.23668,-0.23668l0.21889,-0.29184l-0.00758,-0.00649l-0.34172,-0.20503l-0.11778,-0.03926l-0.21485,-0.05372l-0.06886,-0.0153l-0.025,0.01666l-0.09112,-0.02025h-0.09056l-0.72446,-0.18112l-0.08498,-0.01889h-0.57851l-0.03037,0.02025l-0.09112,-0.02025h-0.09056l-0.29409,-0.07352l-0.15294,0.61176l-0.10297,0.19306v2.1687z" fill="#ff6b57" stroke="none" stroke-width="0.5" stroke-linecap="butt"/><path d="M280.14375,283.3375c1.2801,2.27568 1.27561,9.87198 -0.81875,11.06875c-1.13263,0.64722 -2.71898,-0.15085 -3.89065,0.42269c-7.40021,3.62241 -15.53242,1.47501 -23.50661,2.41679c-2.68114,0.31665 -6.39837,-1.63784 -4.55725,-4.94797c2.94252,-5.29035 11.45852,-3.22323 16.24436,-4.69179c0.79669,-0.24446 4.09688,-0.81241 4.35462,-0.9434c0.88173,-0.4481 1.19258,-1.7768 2.14229,-2.05302c1.29885,-0.37777 3.09246,2.03428 3.93824,0.97865c0.01801,-0.02247 0.03354,-0.04675 0.04686,-0.07265c-0.03081,-0.17973 -0.04686,-0.36451 -0.04686,-0.55304c0,-0.20409 0.01881,-0.40377 0.0548,-0.59743c0.08697,-0.46805 0.27424,-0.90086 0.53867,-1.27528c-1.57999,-1.85755 -2.70912,-5.17909 -1.49787,-6.70365c-2.2443,-2.29721 -3.28225,-7.7237 -3.2956,-9.61419c-0.00155,-0.22062 -0.22365,-0.23118 -0.37774,-0.32622c-1.73029,-1.06716 -2.73217,-2.97133 -3.41601,-4.65822c-1.98016,-4.88459 0.34739,-11.50769 0.19375,-15.49805c-0.00822,-0.21335 -1.56208,-1.52186 -1.67951,-1.6622c-1.30617,-1.56103 -1.42215,-4.61988 -1.32049,-6.46475c0.14945,-2.71225 7.03719,-8.05992 8.89949,-4.8009c0.95791,0.56534 1.60051,1.60807 1.60051,2.8009c0,1.05765 -0.5052,1.99729 -1.28746,2.59078c-0.10005,0.09687 -0.21162,0.18214 -0.33754,0.25297c-0.0589,0.03313 -0.12469,0.0579 -0.19579,0.07594c-0.43133,0.21153 -0.9164,0.33031 -1.42921,0.33031c-0.25534,0 -0.50379,-0.02945 -0.74216,-0.08513c-0.00507,0.02672 -0.00773,0.05571 -0.00784,0.08714c-0.00795,2.25386 2.4623,3.52833 3,5.94799c0.90492,4.07213 -1.63219,7.74581 -0.92671,12.09316c0.49163,3.02961 3.46068,4.28101 4.1456,7.18237c0.30167,1.27787 0.37834,2.25802 0.38112,3.61586c0.00156,0.76093 3.06075,4.2215 2.25822,6.83509c0.1786,0.15237 0.34049,0.32374 0.48255,0.51099c0.09686,0.10005 0.18214,0.21162 0.25297,0.33754c0.76252,1.35556 0.99448,4.51867 0.09194,6.57518c0.16776,0.14637 0.32034,0.30969 0.45508,0.48729c0.09686,0.10005 0.18214,0.21162 0.25297,0.33754z" fill="#ff6b57" stroke="none" stroke-width="0.5" stroke-linecap="butt"/><path d="M218.17025,270.38082c0.21112,4.50904 -4.42625,8.05506 -4.42025,12.87402c0.00036,0.28812 4.3464,1.36664 4.97774,1.62444c4.18487,1.70884 9.54941,0.10336 13.7605,1.93025c1.59152,0.69045 2.98838,1.4466 2.36473,3.94121c-0.26479,1.05917 -1.33002,1.80301 -2.2662,2.36472c-0.47877,0.28726 -1.11735,0.02751 -1.67501,0c-4.02988,-0.19883 -7.72255,-0.56844 -11.81166,-0.50296c-1.33602,0.02139 -3.24979,0.87836 -4.42509,-0.20625c-0.65263,-0.60227 -0.85864,-1.55545 -1.32181,-2.31317c-0.84303,-1.37915 -4.11693,-1.43065 -5.36008,-3.27714c-1.61169,-2.39389 -0.93882,-6.25626 -0.37633,-8.88119c0.30327,-1.41526 1.31489,-2.51172 1.979,-3.727c0.60082,-1.09945 2.05603,-6.29094 3.53696,-6.37322c0.50871,-0.33024 1.11559,-0.52204 1.76727,-0.52204c1.59608,0 2.92345,1.15055 3.19795,2.66751c0.0407,0.12596 0.06567,0.25917 0.07231,0.40081z" fill="#ff6b57" stroke="none" stroke-width="0.5" stroke-linecap="butt"/><path d="M303.14375,41.3375c0.19787,0.35176 0.30331,0.70084 0.35559,1.05029c0.03328,0.18655 0.05066,0.3786 0.05066,0.57471c0,0.06643 -0.00199,0.13241 -0.00592,0.19786c-0.00959,0.72512 -0.12242,1.46129 0.00592,2.23519c0.15404,0.92879 1.92532,1.71558 2,3.16696c0.08328,1.61842 -0.01226,4.41322 -1.35829,5.67898c0.63328,1.44891 -4.25257,5.55709 -4.56982,7.04614c-0.76484,3.58999 2.71447,7.11467 0.72186,11.09988c-0.79083,1.58166 -3.28848,2.29142 -3.99375,3.64405c-0.12003,0.2302 -0.06223,0.5268 0,0.77885c0.53801,2.17923 4.82025,2.5513 4.82025,5.93378c0,7.77017 -1.63274,7.17635 -5.22025,12.66035c-0.2831,0.43276 0.56248,0.87043 0.79375,1.33297c0.83249,1.66496 0.5913,4.41576 -0.60286,5.80895c-3.52339,4.11062 -11.45637,2.63708 -14.10654,3.88249c-3.12603,1.46903 -3.29524,2.03441 -5.88424,3.90046c-0.38047,0.27423 -0.74914,0.59971 -1.19666,0.74c-1.6542,0.51856 -3.21725,0.83271 -4.36033,-1.45345c-0.70291,-1.40582 0.73716,-3.12242 1.6022,-4.43471c3.10966,-4.71744 8.78377,-5.21237 14.18287,-5.26873c1.22243,-0.01276 2.55744,-0.86758 3.52481,-1.49829c0.02652,-0.0173 -0.45621,-1.3691 -0.47052,-1.42637c-0.33248,-1.32991 0.23636,-2.98327 0.56064,-4.27879c0.57957,-2.31542 3.50772,-3.45011 4.30584,-5.77624c1.74259,-5.07884 -4.28301,-4.09149 -4.44894,-8.37032c-0.04032,-1.03991 -0.37884,-4.19634 0.54311,-5.45345c0.75851,-1.03426 3.58559,-2.72152 3.85689,-3.69275c0.64684,-2.31566 -1.12415,-2.69202 -1.2,-4.6538c-0.21017,-5.43584 0.99786,-6.99862 3.92435,-11.07054c0.3046,-0.42383 1.02236,-1.42176 1.8208,-2.12222c-1.72078,-3.61739 -3.09856,-9.22672 -1.29605,-10.25673c0.56534,-0.95791 1.60807,-1.60052 2.8009,-1.60052c1.05764,0 1.99729,0.50521 2.59078,1.28747c0.09686,0.10005 0.18214,0.21162 0.25297,0.33753z" fill="#ff6b57" stroke="none" stroke-width="0.5" stroke-linecap="butt"/><path d="M184.59159,80.22227c-0.54396,-0.28691 -1.76362,-1.22113 -2.72988,-1.52114c-0.84083,3.6149 -2.41308,7.3071 -2.51171,11.02347c-0.06061,2.28358 1.10001,7.68791 -3.25,7.68791c-2.23478,0 -3.13831,-1.53854 -3.25,-3.25c-0.3767,-5.7721 1.1868,-10.93457 2.04731,-16.49558c0.02396,-0.15482 0.06557,-0.41327 0.12455,-0.73843c-2.44423,0.58004 -4.99056,0.72064 -7.41781,1.61854c-5.03962,1.86428 -10.72336,9.9689 -16.688,4.85635c-2.13026,-1.82593 -0.96731,-6.34026 -1.06605,-8.67366c-0.11461,-2.70839 -4.28475,-5.40622 -0.87521,-9.38402c3.28378,-3.83107 8.111,-2.47223 11.87613,-4.62439c2.19307,-1.25357 3.71399,-5.49439 6.02408,-6.20256c2.26609,-0.69468 5.02351,-0.79245 7.25274,0.16053c0.84302,0.36038 1.14479,1.97584 2.05045,1.83322c2.97064,-0.4678 4.51871,-1.7354 7.08207,-2.82952c0.1714,-0.11791 0.35468,-0.21979 0.54767,-0.30351c0.37718,-0.22686 0.76158,-0.43709 1.11164,-0.26206c0.05973,-0.00327 0.11989,-0.00493 0.18043,-0.00493c1.79493,0 3.25,1.45508 3.25,3.25c0,0.62304 -0.17532,1.20514 -0.47931,1.69965c-0.37214,0.60535 -0.93711,1.07944 -1.60934,1.33671c-0.07365,0.05957 -0.13236,0.1111 -0.17143,0.15356c-2.20701,2.39802 -8.28699,3.9106 -11.58991,3.66008c-1.68154,-0.12754 -3.03014,-2.92269 -4.2538,-2.6c-0.94631,0.24955 -2.16774,2.25919 -2.76225,2.99089c-1.69401,2.08493 -3.85451,2.65188 -5.95895,3.80286c-1.95246,1.06786 -4.59148,0.42271 -6.5269,1.65435c-0.25807,0.16423 -0.82591,0.40079 -0.6481,0.64969c2.13913,2.99436 1.6832,4.46713 2,8.39952c0.02861,0.35511 0.57167,-0.42543 0.85191,-0.6454c0.66095,-0.51878 1.42958,-0.95453 2.0829,-1.48291c1.66408,-1.34584 3.62237,-2.52792 5.62695,-3.37196c2.86423,-1.20599 6.43563,-1.02074 9.10962,-2.22738c4.75037,-2.14361 5.99694,-6.64201 13.10362,-4.4634c1.54754,0.47441 1.97239,3.38744 3.15861,4.46014c4.98566,4.50851 4.7216,10.63575 5.26639,16.98351c0.19833,2.31097 1.45348,5.99268 -1.19656,7.50699c-2.16556,1.23746 -4.92369,-1.23058 -4.92369,-3.48857c0,-1.9747 -0.03187,-3.93409 -0.20416,-5.83647c-2.68732,-1.30105 -2.42932,-4.1592 -4.63401,-5.32209z" fill="#ff6b57" stroke="none" stroke-width="0.5" stroke-linecap="butt"/></g></g></svg>