<svg version="1.1" xmlns="http://www.w3.org/2000/svg" xmlns:xlink="http://www.w3.org/1999/xlink" width="184.52669" height="269.05122" viewBox="0,0,184.52669,269.05122"><g transform="translate(-131.26967,-24.31641)"><g data-paper-data="{&quot;isPaintingLayer&quot;:true}" fill-rule="nonzero" stroke-linejoin="miter" stroke-miterlimit="10" stroke-dasharray="" stroke-dashoffset="0" style="mix-blend-mode: normal"><path d="M214.09997,281.53796l2.42407,-118.58248l19.39255,3.49629l26.66475,-2.39021l3.30154,18.7814l7.84523,98.93382l-22.43687,-1.02405l-3.33238,-96.99941l-12.04227,1.28598v96.49867z" fill="#444444" stroke="#3c3c3c" stroke-width="3" stroke-linecap="butt"/><path d="M229.65441,130.09074v-31.51289h17.17049v31.51289z" fill="#d1ad7f" stroke="#ae916a" stroke-width="2" stroke-linecap="butt"/><path d="M240.34288,165.99977l-0.1164,-2.21149" fill="none" stroke="#292929" stroke-width="3" stroke-linecap="round"/><path d="M204.78097,88.31763c0,0 -6.88181,-10.63492 -11.91305,-14.99297c-2.81162,-2.43542 -12.98793,-6.17302 -23.18428,-1.77553c-15.13147,6.52591 -31.27233,22.92376 -31.27233,22.92376c0,0 13.30763,-23.10401 20.78498,-29.73849c7.3295,-6.50328 23.64442,-9.68265 23.64442,-9.68265l99.01474,-0.45419l1.60572,33.9877l-33.71696,-0.11469l0.4284,10.87844l-22.64062,0.03298l-0.26575,-10.98788z" fill="#737373" stroke="#585858" stroke-width="3" stroke-linecap="butt"/><path d="M278.10875,100.62814v-58.87632h22.21243v58.87633z" fill="#737373" stroke="#585858" stroke-width="3" stroke-linecap="butt"/><g stroke-linecap="butt"><path d="M229.13223,66.49205c0,8.64643 -7.18904,15.65574 -16.05717,15.65574c-8.86813,0 -16.05719,-7.00932 -16.05719,-15.65574c0,-8.64643 7.18905,-15.65575 16.05719,-15.65575c8.86813,0 16.05718,7.00932 16.05718,15.65575z" fill="#ffffff" stroke="#000000" stroke-width="3"/><path d="M220.91804,66.76938l7.00594,5.9236c0,0 -5.38388,5.83298 -9.60855,5.83298c-5.8982,0 -10.67964,-4.78144 -10.67964,-10.67964c0,-5.8982 4.78144,-10.67964 10.67964,-10.67964c3.56728,0 6.72604,1.74902 8.66557,4.43629c1.26732,1.75592 -6.06296,5.16642 -6.06296,5.16642z" fill="#000000" stroke="none" stroke-width="0"/></g><g stroke-linecap="butt"><path d="M274.259,67.37956c0,8.64643 -7.18905,15.65575 -16.05718,15.65575c-8.86813,0 -16.05718,-7.00932 -16.05718,-15.65575c0,-8.64643 7.18905,-15.65575 16.05718,-15.65575c8.86813,0 16.05718,7.00932 16.05718,15.65575z" fill="#ffffff" stroke="#000000" stroke-width="3"/><path d="M266.0448,67.6569l7.00594,5.9236c0,0 -5.38387,5.83298 -9.60854,5.83298c-5.89821,0 -10.67964,-4.78144 -10.67964,-10.67965c0,-5.8982 4.78144,-10.67964 10.67964,-10.67964c3.56728,0 6.72604,1.74902 8.66557,4.43629c1.26732,1.75592 -6.06297,5.16642 -6.06297,5.16642z" fill="#000000" stroke="none" stroke-width="0"/></g><path d="M217.73608,161.94545l4.84814,-65.44985l6.39806,0.13385c0,0 4.58577,6.10455 7.13883,6.05482c1.09198,-0.02128 4.32777,0.94211 6.96387,-0.5625c2.82149,-1.61042 4.4088,-5.69523 4.4088,-5.69523l6.19932,-0.53695l6.66619,66.25788z" fill="#00d12e" stroke="#00ac25" stroke-width="2" stroke-linecap="butt"/><path d="M214.908,165.98556v-6.66618h49.49141v6.66618z" fill="#00d12e" stroke="#00ac25" stroke-width="2" stroke-linecap="butt"/><path d="M230.46244,84.98127c0,0 5.56677,-0.02478 7.94239,-0.38563c2.85519,-0.4337 8.01606,-2.03844 8.01606,-2.03844" fill="none" stroke="#000000" stroke-width="2" stroke-linecap="round"/><path d="M245.41086,80.13313l2.42408,4.44412" fill="none" stroke="#000000" stroke-width="2" stroke-linecap="round"/><path d="M196.72748,62.55864c0,0 3.1041,-6.74784 5.87311,-9.00677c2.23162,-1.82053 9.47932,-3.51758 9.47932,-3.51758l0.40401,-0.202c0,0 8.92955,1.4469 11.29397,3.48743c2.53866,2.19089 6.07853,9.03693 6.07853,9.03693z" fill="#737373" stroke="#585858" stroke-width="3" stroke-linecap="butt"/><path d="M241.65225,63.24414c0,0 3.10411,-6.74784 5.87312,-9.00677c2.23162,-1.82053 9.47932,-3.51758 9.47932,-3.51758l0.40401,-0.202c0,0 8.92954,1.4469 11.29396,3.48743c2.53866,2.19089 6.07853,9.03693 6.07853,9.03693z" fill="#737373" stroke="#585858" stroke-width="3" stroke-linecap="butt"/><text transform="translate(225.49119,119.70659) rotate(-7.05247) scale(0.22875,0.22875)" font-size="40" xml:space="preserve" fill="#000000" fill-rule="nonzero" stroke="none" stroke-width="1" stroke-linecap="butt" stroke-linejoin="miter" stroke-miterlimit="10" stroke-dasharray="" stroke-dashoffset="0" font-family="Sans Serif" font-weight="normal" text-anchor="start" style="mix-blend-mode: normal"><tspan x="0" dy="0">  I'M</tspan><tspan x="0" dy="46.15px">COOL</tspan></text><g><path d="M251.47697,141.72476c0,4.75659 -3.70574,8.61255 -8.277,8.61255c-4.57127,0 -8.27701,-3.85597 -8.27701,-8.61255c0,-4.75659 3.70574,-8.61256 8.27701,-8.61256c4.57127,0 8.277,3.85597 8.277,8.61256z" fill="#ffea00" stroke="#dcca00" stroke-width="1.5" stroke-linecap="butt"/><path d="M233.47562,143.69591v-6.24167h8.23177v6.24167z" fill="#5a5a5a" stroke="#393939" stroke-width="1.5" stroke-linecap="butt"/><path d="M245.54227,143.82197v-6.24167h8.23177v6.24167z" fill="#5a5a5a" stroke="#393939" stroke-width="1.5" stroke-linecap="butt"/><path d="M241.61693,139.35387v-1.89963h4.16111v1.89963z" fill="#5a5a5a" stroke="#393939" stroke-width="1.5" stroke-linecap="butt"/><path d="M240.26004,146.31922c0,0 1.91386,0.96823 2.88877,0.9539c1.06715,-0.01569 3.26245,-1.04435 3.26245,-1.04435" fill="none" stroke="#000000" stroke-width="1.5" stroke-linecap="round"/><path d="M238.50625,139.5348c0,-0.61888 0.50171,-1.12058 1.12059,-1.12058c0.61888,0 1.12058,0.5017 1.12058,1.12058c0,0.61888 -0.5017,1.12059 -1.12058,1.12059c-0.61888,0 -1.12059,-0.50171 -1.12059,-1.12059z" fill="#ffffff" stroke="none" stroke-width="0.5" stroke-linecap="butt"/><path d="M250.26593,139.62526c0,-0.61888 0.5017,-1.12059 1.12058,-1.12059c0.61888,0 1.12059,0.50171 1.12059,1.12059c0,0.61888 -0.50171,1.12058 -1.12059,1.12058c-0.61888,0 -1.12058,-0.5017 -1.12058,-1.12058z" fill="#ffffff" stroke="none" stroke-width="0.5" stroke-linecap="butt"/></g><path d="M309.50997,36.33091c0.95277,6.9074 -7.87606,7.10198 -18.76211,8.60356c-10.88605,1.50158 -19.70698,3.74152 -20.65976,-3.16587c-0.95277,-6.9074 7.09973,-13.72421 17.98578,-15.22578c10.88605,-1.50157 20.48331,2.88071 21.43609,9.7881z" fill="#6499ff" stroke="#517dd0" stroke-width="1.5" stroke-linecap="butt"/><path d="M315.03648,39.89158c0.37318,1.9221 -9.87619,5.01653 -22.89261,6.91159c-13.01642,1.89507 -23.87083,1.87313 -24.24402,-0.04897c-0.37318,-1.9221 9.87619,-5.01652 22.89261,-6.91159c13.01642,-1.89507 23.87084,-1.87314 24.24402,0.04896z" fill="#6499ff" stroke="#517dd0" stroke-width="1.5" stroke-linecap="butt"/><path d="M289.40756,26.6363c0.17948,1.1576 -1.19438,2.33158 -3.06859,2.62216c-1.87421,0.29058 -3.53904,-0.41229 -3.71852,-1.56989c-0.17948,-1.1576 1.19439,-2.33158 3.06859,-2.62215c1.87421,-0.29058 3.53904,0.41229 3.71852,1.56988z" fill="#6499ff" stroke="#517dd0" stroke-width="1.5" stroke-linecap="butt"/><text transform="translate(276.47825,39.37791) rotate(-7.56031) scale(0.15771,0.15771)" font-size="40" xml:space="preserve" fill="#000000" fill-rule="nonzero" stroke="none" stroke-width="1" stroke-linecap="butt" stroke-linejoin="miter" stroke-miterlimit="10" stroke-dasharray="" stroke-dashoffset="0" font-family="Sans Serif" font-weight="normal" text-anchor="start" style="mix-blend-mode: normal"><tspan x="0" dy="0">LET'S GO!</tspan></text><path d="M241.15764,176.24247l-0.23278,-2.21149" fill="none" stroke="#292929" stroke-width="3" stroke-linecap="round"/><path d="M240.45928,171.35391l-0.11639,-2.21149" fill="none" stroke="#292929" stroke-width="3" stroke-linecap="round"/><path d="M219.2755,170.77194l8.96237,-0.23279" fill="none" stroke="#292929" stroke-width="3" stroke-linecap="round"/><path d="M252.02812,169.18822l8.96237,-0.23279" fill="none" stroke="#292929" stroke-width="3" stroke-linecap="round"/><g stroke-linecap="butt"><path d="M209.18161,183.6423v-56.80005h10.07743v56.80005z" fill="#d1ad7f" stroke="#ae916a" stroke-width="2"/><path d="M206.43322,128.21645v-21.22368l10.07743,-12.06237l5.34409,2.44301v30.84304z" fill="#00d12e" stroke="#00ac25" stroke-width="2"/><path d="M221.39667,188.8337c0,2.30479 0.56337,7.49296 -0.29627,9.23866c-0.70672,1.43516 -2.74601,-4.33009 -4.44879,-4.18307c-0.80501,0.0695 0.38354,2.95566 -0.79665,4.37368c-1.06397,1.27838 -4.51059,1.10622 -5.07012,1.10622c-4.08988,0 -4.19893,-4.63258 -4.19893,-10.53549c0,-5.90292 3.31551,-10.68818 7.40538,-10.68818c4.08988,0 7.40538,4.78526 7.40538,10.68818z" fill="#d1ad7f" stroke="#ae916a" stroke-width="2"/><path d="M221.45675,184.54217c0,3.49959 0.22904,7.25269 0.22904,7.25269c0,0 -1.66783,-0.13764 -2.34521,0.19543c-0.62638,0.308 -1.27099,2.57816 -1.27099,2.57816l-1.7781,0.28709c0,0 -2.45965,-4.06887 -3.88378,-4.40075c-1.90848,-0.44475 -6.31521,0.97231 -6.31521,0.97231c0,0 0.55349,-4.99516 0.55349,-6.88494c0,-3.49959 3.31551,-6.33657 7.40538,-6.33657c4.08988,0 7.40538,2.83697 7.40538,6.33657z" fill="#333333" stroke="#282828" stroke-width="2"/><path d="M208.29784,180.49702v-12.82074h11.51564v12.82074z" fill="#333333" stroke="#282828" stroke-width="2"/><path d="M210.08068,177.74183c0.96088,-1.12103 2.66826,-3.49784 4.60446,-2.47021c1.53546,0.81493 6.41036,5.21198 3.97344,7.99822c-1.3976,1.59794 -6.55462,3.49169 -8.04906,1.81633c-1.34456,-1.50733 -3.20491,-5.59278 -0.56448,-7.27305z" fill="#333333" stroke="none" stroke-width="0.5"/></g><g data-paper-data="{&quot;index&quot;:null}" stroke-linecap="butt"><path d="M254.82778,184.87818v-56.80004h10.07743v56.80004z" fill="#d1ad7f" stroke="#ae916a" stroke-width="2"/><path d="M252.23207,129.45234v-30.84304l5.3441,-2.44301l10.07743,12.06238v21.22368z" fill="#00d12e" stroke="#00ac25" stroke-width="2"/><path d="M260.09552,179.38141c4.08988,0 7.40538,4.78526 7.40538,10.68818c0,5.90292 -0.10905,10.53549 -4.19893,10.53549c-0.55953,0 -4.00615,0.17215 -5.07011,-1.10622c-1.1802,-1.41802 0.00835,-4.30418 -0.79666,-4.37368c-1.70278,-0.14702 -3.74207,5.61823 -4.44879,4.18307c-0.85964,-1.7457 -0.29627,-6.93387 -0.29627,-9.23866c0,-5.90292 3.3155,-10.68817 7.40538,-10.68817z" fill="#d1ad7f" stroke="#ae916a" stroke-width="2"/><path d="M260.03544,179.44149c4.08988,0 7.40538,2.83697 7.40538,6.33657c0,1.88978 0.55351,6.88493 0.55351,6.88493c0,0 -4.40674,-1.41706 -6.31522,-0.97231c-1.42413,0.33187 -3.88378,4.40075 -3.88378,4.40075l-1.7781,-0.28709c0,0 -0.64461,-2.27016 -1.27099,-2.57815c-0.67738,-0.33308 -2.34521,-0.19543 -2.34521,-0.19543c0,0 0.22904,-3.7531 0.22904,-7.25269c0,-3.49959 3.3155,-6.33657 7.40538,-6.33657z" fill="#333333" stroke="#282828" stroke-width="2"/><path d="M254.27333,181.73291v-12.82074h11.51564v12.82074z" fill="#333333" stroke="#282828" stroke-width="2"/><path d="M264.04177,179.049c2.64042,1.68027 0.78008,5.76573 -0.56448,7.27305c-1.49444,1.67536 -6.65146,-0.21839 -8.04906,-1.81633c-2.43693,-2.78625 2.43798,-7.1833 3.97343,-7.99823c1.9362,-1.02763 3.64359,1.34919 4.60447,2.47021z" fill="#333333" stroke="none" stroke-width="0.5"/></g><g stroke-width="2"><path d="M213.36789,289.36401l-1.16937,-4.33684c0,0 1.98494,0.74238 5.07516,1.23591c2.94669,0.4706 6.95143,0.69244 9.06831,0.73145c2.30697,0.04251 6.08185,0.04589 8.69421,-0.33289c2.6095,-0.37836 4.05772,-1.13884 4.05772,-1.13884l0.11694,3.96511c0,0 -9.72693,0.80024 -14.26362,0.71323c-4.01332,-0.07697 -11.57934,-0.83714 -11.57934,-0.83714z" fill="#cfcfcf" stroke="#b1b1b1" stroke-linecap="butt"/><path d="M238.83912,283.54025c0,3.83228 -14.50253,3.09774 -20.01143,3.09774c-5.50889,0 -7.74436,-2.61103 -7.74436,-6.44331c0,-3.83228 4.46584,-6.93895 9.97474,-6.93895c3.30039,0 11.01085,-0.16233 15.07301,2.51858c2.71824,1.79397 2.70804,6.22958 2.70804,7.76593z" fill="#323232" stroke="#292929" stroke-linecap="butt"/><path d="M223.47431,277.34476l2.72601,-4.58466c0,0 7.56232,1.09967 9.79459,2.37525c1.33981,0.7656 2.7203,4.56369 2.7203,4.56369l-2.23038,1.36301z" fill="#dfdfdf" stroke="#bcbcbc" stroke-linecap="butt"/><path d="M221.47069,277.47659l-1.06313,-6.18655l4.0791,-2.99861l1.80659,4.08008z" fill="#323232" stroke="#292929" stroke-linecap="butt"/><path d="M225.33296,276.97303l4.08902,-2.23038l1.73474,4.33684l3.34556,-3.22165l2.23038,4.83248" fill="none" stroke="#292929" stroke-linecap="round"/></g><g stroke-width="2"><path d="M251.20122,291.53068l-1.16937,-4.33684c0,0 1.98494,0.74239 5.07516,1.23591c2.94669,0.4706 6.95143,0.69244 9.0683,0.73145c2.30696,0.04251 6.08186,0.04589 8.69421,-0.33288c2.6095,-0.37835 4.05772,-1.13884 4.05772,-1.13884l0.11694,3.96511c0,0 -9.72694,0.80024 -14.26362,0.71324c-4.01332,-0.07697 -11.57934,-0.83714 -11.57934,-0.83714z" fill="#cfcfcf" stroke="#b1b1b1" stroke-linecap="butt"/><path d="M276.67245,285.70692c0,3.83227 -14.50253,3.09774 -20.01143,3.09774c-5.50889,0 -7.74436,-2.61103 -7.74436,-6.44331c0,-3.83227 4.46584,-6.93895 9.97473,-6.93895c3.3004,0 11.01085,-0.16233 15.07301,2.51858c2.71824,1.79397 2.70805,6.22959 2.70805,7.76593z" fill="#323232" stroke="#292929" stroke-linecap="butt"/><path d="M261.30764,279.51143l2.72602,-4.58466c0,0 7.56232,1.09967 9.79459,2.37525c1.33981,0.7656 2.7203,4.56369 2.7203,4.56369l-2.23038,1.363z" fill="#dfdfdf" stroke="#bcbcbc" stroke-linecap="butt"/><path d="M259.30402,279.64326l-1.06313,-6.18654l4.0791,-2.99862l1.80659,4.08008z" fill="#323232" stroke="#292929" stroke-linecap="butt"/><path d="M263.16629,279.1397l4.08902,-2.23037l1.73474,4.33684l3.34557,-3.22165l2.23037,4.83249" fill="none" stroke="#292929" stroke-linecap="round"/></g></g></g></svg>