<svg version="1.1" xmlns="http://www.w3.org/2000/svg" xmlns:xlink="http://www.w3.org/1999/xlink" width="218.73194" height="300.82829" viewBox="0,0,218.73194,300.82829"><g transform="translate(-70.63411,-45.88489)"><g data-paper-data="{&quot;isPaintingLayer&quot;:true}" fill-rule="nonzero" stroke-linejoin="miter" stroke-miterlimit="10" stroke-dasharray="" stroke-dashoffset="0" style="mix-blend-mode: normal"><path d="M73.88411,140.93564v-91.80075h92.74714v91.80075l0.07361,20.10873l-24.77163,-20.10873z" fill="#2e2e2e" stroke="#161616" stroke-width="6.5" stroke-linecap="butt"/><text transform="translate(79.38209,63.06818) scale(0.29882,0.29882)" font-size="40" xml:space="preserve" fill="#ffffff" fill-rule="nonzero" stroke="none" stroke-width="1" stroke-linecap="butt" stroke-linejoin="miter" stroke-miterlimit="10" stroke-dasharray="" stroke-dashoffset="0" font-family="Sans Serif" font-weight="normal" text-anchor="start" style="mix-blend-mode: normal"><tspan x="0" dy="0">Let's beat this</tspan><tspan x="0" dy="48px">up!</tspan></text><path d="M265.98335,155.09899c1.3952,-2.79307 8.16109,-8.03168 11.43466,-2.52866c6.86014,11.53222 14.58503,39.91675 8.48462,49.44017c-9.01144,14.06787 -24.41416,20.24597 -32.5526,15.03274c-8.13843,-5.21323 6.06928,-15.84365 15.08072,-29.91151c9.01144,-14.06787 -7.58583,-21.74596 -2.4474,-32.03273z" fill="#c00000" stroke="#a30000" stroke-width="2.5" stroke-linecap="butt"/><path d="M276.27015,180.12314c0,15.05077 -3.64778,22.9707 -14.35775,35.83391c-2.29611,2.75773 11.46042,61.11794 0.26986,61.5716c-10.29764,0.41746 -18.30739,0.82701 -25.64,0.62839c-10.22821,-0.27705 -19.62226,-1.30383 -27.31426,-1.30383c-8.55337,0 0.39228,-48.6373 -6.05205,-56.83441c-10.03589,-12.76552 -20.6436,-22.26694 -20.6436,-39.89567c0,-26.32872 21.48392,-32.92237 47.3689,-32.92237c25.88498,0 46.3689,6.59365 46.3689,32.92237z" fill="#c00000" stroke="#a30000" stroke-width="2.5" stroke-linecap="butt"/><path d="M208.87502,278.45313c0,0 -4.23209,-1.95869 -4.89817,-5.97543c-1.39111,-8.389 0.16529,-23.23356 -0.11509,-30.27404c-0.2893,-7.2647 -1.48675,-19.25053 -1.48675,-19.25053l59.75,-1.5c0,0 0.80023,4.63554 2.04656,10.63648c1.23617,5.95203 2.91932,13.23919 2.72816,20.64641c-0.19103,7.40199 0.04552,17.24125 -0.31514,20.37617c-0.45173,3.92653 -5.20957,6.34094 -5.20957,6.34094c0,0 -15.2764,0.91904 -26.01673,0.73701c-5.98597,-0.10145 -26.48327,-1.73701 -26.48327,-1.73701z" fill="#ededed" stroke="#e0e0e0" stroke-width="2.5" stroke-linecap="butt"/><path d="M232.33786,201.818l-24.71284,-42.36487h47.5l-22.78716,42.68581z" fill="#ffffff" stroke="none" stroke-width="0" stroke-linecap="butt"/><text transform="translate(223.62502,184.24012) scale(0.62386,0.62386)" font-size="40" xml:space="preserve" fill="#c00000" fill-rule="nonzero" stroke="none" stroke-width="1" stroke-linecap="butt" stroke-linejoin="miter" stroke-miterlimit="10" stroke-dasharray="" stroke-dashoffset="0" font-family="Sans Serif" font-weight="normal" text-anchor="start" style="mix-blend-mode: normal"><tspan x="0" dy="0">B</tspan></text><g stroke-linecap="butt"><g><path d="M220.29003,193.84657c0.34322,8.34625 -6.48002,15.40427 -15.24014,15.76451c-8.76012,0.36024 -16.13983,-6.1137 -16.48305,-14.45995c-0.34322,-8.34625 6.48002,-15.40426 15.24014,-15.7645c8.76012,-0.36024 16.13983,6.1137 16.48305,14.45995z" fill="#ffffff" stroke="#000000" stroke-width="2"/><path d="M219.67305,193.01975c0.23089,5.61452 -4.27454,10.35896 -10.06315,10.597c-4.35579,0.17912 -7.85582,-1.62692 -9.5889,-5.22982c-0.57009,-1.18516 8.46159,-4.907 8.46159,-4.907c0,0 -8.94984,-3.58871 -8.37004,-4.92433c1.53087,-3.52648 4.46275,-5.09816 8.66123,-5.27081c5.78861,-0.23804 10.66839,4.12044 10.89927,9.73496z" fill="#000000" stroke="none" stroke-width="0"/></g><path d="M188.80459,189.77744c0,0 1.87882,-5.06023 3.98636,-6.70799c2.42639,-1.89705 10.58324,-4.06641 10.58324,-4.06641l0.3262,-0.18022c0,0 7.93615,0.76793 10.87757,2.42831c2.7361,1.54449 5.74111,8.23119 5.74111,8.23119z" fill="#c00000" stroke="#a30000" stroke-width="2.5"/></g><g stroke-linecap="butt"><g><path d="M274.62334,192.34657c0.34323,8.34625 -6.48002,15.40427 -15.24013,15.76451c-8.76012,0.36024 -16.13983,-6.1137 -16.48305,-14.45995c-0.34322,-8.34625 6.48002,-15.40426 15.24013,-15.7645c8.76011,-0.36024 16.13982,6.1137 16.48305,14.45995z" fill="#ffffff" stroke="#000000" stroke-width="2"/><path d="M274.00637,191.51975c0.23089,5.61452 -4.27454,10.35896 -10.06315,10.597c-4.35579,0.17912 -7.85582,-1.62692 -9.58889,-5.22982c-0.57009,-1.18516 8.46159,-4.907 8.46159,-4.907c0,0 -8.94984,-3.58871 -8.37004,-4.92433c1.53087,-3.52648 4.46276,-5.09816 8.66123,-5.27081c5.78861,-0.23804 10.66838,4.12044 10.89927,9.73496z" fill="#000000" stroke="none" stroke-width="0"/></g><path d="M243.13792,188.27744c0,0 1.87882,-5.06023 3.98636,-6.70799c2.42639,-1.89705 10.58324,-4.06641 10.58324,-4.06641l0.32621,-0.18022c0,0 7.93615,0.76793 10.87757,2.42831c2.7361,1.54449 5.74111,8.23119 5.74111,8.23119z" fill="#c00000" stroke="#a30000" stroke-width="2.5"/></g><path d="M241.66668,210.80209l-13.83333,3.66666" fill="none" stroke="#000000" stroke-width="2.5" stroke-linecap="round"/><path d="M243.16668,212.96876l-2.33333,-5.66666" fill="none" stroke="#000000" stroke-width="2.5" stroke-linecap="round"/><path d="M188.16669,174.96876l26.83334,0.16666" fill="none" stroke="#000000" stroke-width="3" stroke-linecap="round"/><path d="M274.33335,175.13542l-26.83333,-0.16666" fill="none" stroke="#000000" stroke-width="3" stroke-linecap="round"/><g stroke="#000000" stroke-width="3"><path d="M201.33335,223.63543l-7.33334,52.66667" fill="none" stroke-linecap="round"/><path d="M198.2663,281.03461c0,1.51741 -0.4784,4.34706 -1.04535,5.47725c-0.43309,0.86334 -0.39453,-2.99873 -1.97793,-2.92817c-1.46314,0.06521 -2.11228,4.23663 -2.83386,4.23663c-2.52473,0 -3.28571,-3.03807 -3.28571,-6.78571c0,-3.74765 2.0467,-6.78571 4.57143,-6.78571c2.52473,0 4.57143,3.03807 4.57143,6.78571z" fill="#000000" stroke-linecap="butt"/></g><g data-paper-data="{&quot;index&quot;:null}" stroke="#000000" stroke-width="3"><path d="M262.04438,221.40215l14.04975,51.28509" fill="none" stroke-linecap="round"/><path d="M276.13254,270.61184c2.50374,-0.32489 4.92437,2.42454 5.40664,6.14102c0.48226,3.71649 0.11856,6.82722 -2.38518,7.15212c-0.71558,0.09286 -1.89613,-3.96036 -3.35549,-3.83674c-1.57932,0.13378 -1.04409,3.95878 -1.58467,3.15835c-0.70767,-1.04784 -1.54622,-3.7924 -1.74149,-5.29719c-0.48226,-3.71649 1.15646,-6.99267 3.6602,-7.31757z" fill="#000000" stroke-linecap="butt"/></g><path d="M214.83772,278.82032l1.28571,59.85714l-5,2.71429" fill="none" stroke="#000000" stroke-width="3.5" stroke-linecap="round"/><path d="M260.55202,344.96319l-6.85714,-2.71429l0.28571,-63.71429" fill="none" stroke="#000000" stroke-width="3.5" stroke-linecap="round"/></g></g></svg>