<svg version="1.1" xmlns="http://www.w3.org/2000/svg" xmlns:xlink="http://www.w3.org/1999/xlink" width="736.25" height="545" viewBox="0,0,736.25,545"><defs><linearGradient x1="240" y1="418.8125" x2="240" y2="-124.1875" gradientUnits="userSpaceOnUse" id="color-1"><stop offset="0" stop-color="#1ec3ff"/><stop offset="1" stop-color="#ff77e2"/></linearGradient></defs><g transform="translate(106.5,125.1875)"><g data-paper-data="{&quot;isPaintingLayer&quot;:true}" fill-rule="nonzero" stroke-linejoin="miter" stroke-miterlimit="10" stroke-dasharray="" stroke-dashoffset="0" style="mix-blend-mode: normal"><path d="M585.5,-124.1875v543h-691v-543z" data-paper-data="{&quot;index&quot;:null}" fill="url(#color-1)" stroke="#000000" stroke-width="2" stroke-linecap="butt"/><path d="M182.54499,240.51767l-0.99508,-0.27641l-0.60087,0.24644l-2.49323,-1.10591l-2.62794,-0.72985l-0.30753,-0.57211l-0.94399,-0.41874l-5.60178,-4.36955l-0.50569,-0.64709l-0.70572,-0.42011l-14.10402,-14.00492l-0.21659,-0.35822l-0.38542,-0.12154l-1.38573,-2.80693l-1.62007,-2.67865l0.10495,-0.39024l-0.18529,-0.37532l-1.30701,-6.02511l0.21863,-6.96801l2.36471,-2.1281l0.69895,-3.10355l2.37373,-1.43121l0.21291,-1.47566l0.96179,-2.35129l0.69121,-2.44455l2.77611,-4.84249l0.67462,-0.70197l0.39477,-0.88995l8.7391,-11.20357l2.01847,-1.57748l1.83414,-1.78851l7.34466,-4.28217l1.50459,-0.43734l1.34173,-0.80901l9.21192,-2.82565l1.19306,-0.06288l1.11471,-0.4297l11.07923,-1.36921l1.06495,0.13054l1.04908,-0.22505l1.7349,0.05841l0.22281,-0.33593l0.18663,-0.83409l1.66072,-3.30991l1.1891,-2.68097l0.32673,-0.41887l-0.03934,-0.85127l0.34855,-1.73034l0.31046,-0.65298l0.02526,-0.20583l0.11268,-0.08434l0.19118,-0.40212l0.25567,-1.46758l1.31954,-2.97516l1.02418,-1.31301l0.67522,-1.52219l0.76794,-0.98451l1.65253,-3.04445l3.51235,-7.0002l0.87822,-1.02178l0.5462,-1.23158l4.85502,-6.22416l5.49293,-4.29286l3.67974,0.53093l3.43966,-1.41072l6.37273,2.82654l2.41618,1.88469l0.15155,0.01128l0.24721,0.29976l0.29721,0.23184l1.91389,2.44888l1.97765,2.39763l0.16214,0.34034l0.23926,0.30614l-0.02164,0.15032l2.65769,5.57704l0.10529,0.51981l0.30515,0.43382l0.30792,0.79887l5.32604,4.15447l2.40041,1.20437l1.02165,0.87823l1.23158,0.5462l0.98451,0.76794l6.52339,3.54082l3.70526,1.31355l0.44197,0.29317l0.52255,0.09104l5.9504,2.63927l1.31301,1.02418l1.52219,0.67522l6.3483,4.95186l1.16885,0.16858l0.07761,0.03172l0.0835,-0.00749l8.02929,1.25747l0.56467,0.23894l0.6132,-0.00054l7.54377,1.87992l0.23107,0.12295l0.26154,0.0097l4.0832,1.18268l2.2143,1.28828l2.34184,1.03871l3.661,2.85569l0.15149,0.01135l0.24719,0.29963l0.29721,0.23184l0.88918,1.13779l3.98471,2.70196l0.30705,0.34312l0.42084,0.18668l6.22416,4.85502l0.32663,0.41787l0.46691,0.25166l7.60597,6.93404l0.13023,0.19593l0.20322,0.11849l5.11626,4.992l1.04603,1.69576l1.35573,1.45985l2.629,4.77297l2.45209,3.68928l0.60531,1.70229l0.96782,1.52565l0.89621,2.70141l0.15928,2.1093l0.56373,0.76636l-0.35286,2.02559l0.15475,2.0503l-0.6353,0.70816l-0.36306,2.08397l-1.3196,2.97523l-1.02413,1.31293l-0.67522,1.52219l-0.63017,0.80788l0.55644,1.44355l0.1653,1.33711l0.54386,1.23257l0.92219,5.35519l4.15453,-2.76132c1.92992,-1.34886 4.15645,-2.14887 6.44203,-2.37079l0.38627,-0.1373l0.18712,0.09381c3.14814,-0.17194 6.37003,0.74993 9.05129,2.84138c5.12638,3.99873 6.58692,10.95525 3.85087,16.57536l0.01386,0.20363l-0.27028,0.2965c-0.35595,0.6597 -0.77171,1.2987 -1.24825,1.90963c-0.98808,1.26672 -2.15666,2.3096 -3.44109,3.12066l-5.97385,3.97046l-1.5179,0.53973l-1.33439,0.90268l-13.99234,5.10367l-0.20309,0.02137l-0.17248,0.1094l-2.86625,0.95096l-8.89046,11.39761l-0.89083,0.69617l-0.62202,0.94405l-3.01902,2.77443l-0.0436,0.16762l-0.35452,0.1982l-0.11839,0.10882l-2.81496,1.53135l-2.24277,1.25408l-1.47136,3.31729l-3.88403,4.97934l-1.71327,1.33899l-1.46499,1.60687l-1.34392,0.8932l-0.05868,0.14019l-0.36257,0.13977l-0.31391,0.2086l-2.92841,1.0412l-2.90003,1.11801l-0.37401,0.04622l-0.36607,0.13018l-0.13577,-0.06816l-1.33997,0.16559l-2.15822,-0.26464l-2.1721,0.10034l-3.46063,-0.69717l-1.82493,-0.86756l-1.95662,-0.50447l-4.22005,-2.29059l-0.83319,-0.76428l-1.03343,-0.45832l-10.42733,-8.13361l-3.40214,1.81523l-1.63891,1.2809l-0.85022,0.378l-0.66617,0.64965l-3.6724,2.14103l-1.71404,0.49824l-1.55803,0.87108l-3.8093,1.03319l-0.97337,0.01935l-0.90846,0.35018l-4.43162,0.54765l-2.15822,-0.26464l-2.1721,0.10034l-6.49989,-1.30949l-0.03741,0.00456l-3.08488,-0.37834l-3.09385,-0.29705l-0.35525,-0.12591l-0.38562,-0.04724l-0.09099,-0.12175l-1.521,-0.53922l-0.89414,-0.59304l-1.03893,-0.26784l-4.22005,-2.29059l-0.50066,-0.45926l-0.63802,-0.2336l-9.08844,-6.16276l-10.00086,-5.01796l-0.16986,-0.14599l-0.21681,-0.0559l-12.66009,-6.87184l-0.50073,-0.45932l-0.63808,-0.23353l-9.82183,-6.66014l-0.30698,-0.34307l-0.42084,-0.18668l-7.46905,-5.82607l-4.29286,-5.49293l0.51242,-3.55133z" fill="#fff5d4" stroke="none" stroke-width="0.5" stroke-linecap="butt"/><path d="M226.21036,144.10275c1.41496,-2.04909 4.22318,-2.56315 6.27227,-1.14819c2.04909,1.41496 2.56315,4.22318 1.14819,6.27227c-1.41496,2.04909 -4.22318,2.56315 -6.27227,1.14819c-2.04909,-1.41496 -2.56315,-4.22318 -1.14819,-6.27227z" fill="#37b33a" stroke="none" stroke-width="0.5" stroke-linecap="butt"/><path d="M-97.5,337.21875v-142c0,0 29.6631,-126.48056 68.12417,-185.57007c16.44612,-25.26694 51.03815,-17.3314 64.89377,-17.41382c25.80253,-0.15349 4.93824,202.76131 29.98206,205.98389c12.45294,1.60242 25.92943,12.64842 44.5172,16.39519c18.39958,3.70883 41.86791,2.12446 62.55024,2.58653c54.18678,1.2106 164.86471,3.79644 227.10557,1.25446c140.57902,-5.74138 226.82699,-23.23618 226.82699,-23.23618v142z" fill="#50351d" stroke="#3d2816" stroke-width="6.5" stroke-linecap="butt"/><path d="M66.78671,193.48797c2.09927,0.37755 4.35487,0.33469 6.4884,0.62009c1.46066,0.19539 2.8641,0.54464 4.12101,1.28797c1.18556,0.70114 2.14783,1.69404 3.07466,2.73323c0.80306,0.73293 1.54065,1.53868 2.2018,2.40802c9.00231,8.7716 -0.03902,21.54098 0.48392,31.46908c0.28435,5.3984 0.59829,10.81058 1.39332,16.15769c0.04902,0.32971 0.66299,-0.08179 0.9963,-0.08591c0.9421,-0.01167 1.88838,-0.05126 2.82626,0.03858c4.46559,0.42773 8.06742,3.3641 12.02564,0.4707c4.32443,-3.16108 6.89023,-8.48919 10.48727,-12.45837c2.92695,-3.22976 6.64792,-4.79261 10.27157,-6.85166c9.47876,-5.38605 20.34654,-12.23572 31.9711,-9.61142c3.17124,0.71592 6.37463,2.61145 9.74199,2.67381c3.15443,0.05842 6.53892,0.02699 9.57323,1.10531c5.85564,2.08096 12.63726,5.00188 18.06478,7.45215c5.16824,2.33321 11.76662,7.62073 16.07111,11.24179c2.2773,1.91572 2.88077,5.46967 6.44251,5.98737c7.10289,1.03241 17.61649,-5.80479 23.24543,-9.78328c7.09108,-5.01191 21.62905,-10.25831 30.17316,-10.9951c14.6701,-1.26504 31.21071,-5.10982 46.66701,-3.62936c7.26859,0.69621 14.92549,3.39998 21.72433,5.55886c5.43846,1.72691 12.81017,3.82301 18.62609,3.72757c2.53359,-0.04158 5.06352,-0.52808 7.59267,-0.37244c3.41396,0.21009 6.9225,1.74178 10.3047,1.84024c6.01096,0.17498 21.80889,0.10357 25.57034,-1.20129c0.94489,-0.32778 1.07928,-1.68464 1.58736,-2.5461c2.12907,-3.60991 4.57663,-6.62751 6.87089,-10.21236c1.4532,-2.27068 3.19878,-4.16936 5.13123,-6.03557c0.71692,-0.69235 0.46974,-2.3256 0.90953,-2.93824c2.96902,-4.13599 7.13327,-7.24703 11.95222,-8.89142c1.31844,-0.4499 4.94926,-0.58714 6.22567,-0.93668c19.78808,-5.41886 33.59421,-5.72886 51.72427,0.20989c3.40309,1.11473 6.76082,1.33624 10.06484,3.03014c5.87468,3.01182 10.78613,7.51061 16.93127,10.08382c4.46825,1.87103 9.53424,2.53302 13.5596,5.22792c3.23073,2.16291 3.42721,3.02989 6.69553,3.78385c4.33885,1.00092 12.84697,3.22473 17.29187,3.88573c1.62269,0.24131 3.77848,1.64801 4.90084,0.45149c4.76283,-5.07755 10.34141,-11.52866 18.38814,-10.06247c9.93529,1.8103 18.5499,11.09313 16.03272,21.57282c-0.72222,3.00681 -2.38699,5.7426 -4.07188,8.3356c-2.02956,3.12343 -8.01116,10.43924 -11.648,13.07113c-7.84441,5.6768 -22.00645,3.63296 -30.6365,1.96567c-2.86344,-0.55321 -6.15645,-2.08134 -9.11435,-2.45849c-4.7974,-0.61171 -14.62068,-1.73863 -18.96511,-4.00431c-2.0884,-1.08913 -4.45784,-3.71642 -6.44666,-4.63231c-3.35546,-1.54526 -6.89949,-2.64684 -10.30167,-4.08631c-4.60225,-1.94722 -9.03961,-4.70973 -13.35045,-7.25159c-1.59926,-0.94299 -3.09925,-2.8445 -4.89383,-3.34494c-3.66968,-1.02334 -9.77478,-4.03863 -13.13539,-3.86067c-6.47055,0.34265 -12.93081,0.92089 -19.36697,1.67007c-6.60109,0.76837 -6.00214,4.69677 -9.66516,8.92568c-7.27769,8.40199 -11.36318,20.37704 -22.58181,24.20521c-5.75177,1.9627 -14.48413,1.19247 -20.28065,1.42846c-6.78366,0.27618 -15.19767,1.34815 -22.02144,0.69455c-3.19793,-0.30631 -6.42693,-2.01712 -9.60221,-1.90082c-6.78497,0.24851 -12.30874,0.24214 -19.01348,-1.27149c-5.18654,-1.17089 -10.9462,-2.08679 -16.016,-3.66093c-1.77654,-0.5516 -11.29452,-4.04102 -13.66143,-3.91708c-7.94033,0.4158 -33.02845,1.28872 -46.85241,5.04392c-4.25311,1.15533 -7.70932,5.55124 -11.297,7.74922c-2.71162,1.66127 -6.17981,1.97253 -8.95479,3.4127c-11.69909,6.07164 -21.11937,9.46106 -35.41911,8.6944c-13.64757,-0.7317 -22.57349,-13.39269 -32.28274,-20.90929c-6.90591,-5.34634 -10.26651,-4.30792 -16.70918,-5.25964c-3.18137,-0.46996 -8.21224,-2.25687 -11.39993,-1.98199c-8.21074,0.70803 -18.21746,12.38256 -22.27816,17.39232c-1.36288,1.68141 -2.62682,5.04109 -4.72011,6.34375c-7.91387,4.92483 -17.52691,6.46264 -26.86544,6.33517c-2.9317,-0.04002 -6.60545,-2.47687 -8.90588,-2.34061c-11.90447,0.70514 -28.82487,-0.54646 -34.02638,-13.05541c-0.64996,-1.56307 -0.57688,-3.33954 -0.73556,-5.02491c-1.03109,-10.95157 -1.9762,-21.91157 -2.83516,-32.87798c-0.63,-8.04334 1.18336,-23.66707 3.23287,-23.08163c0.46807,-1.89725 0.92925,-3.80512 1.34118,-5.73572c0.58751,-2.75348 3.55095,-6.81135 6.24238,-7.79375z" fill="#fff5d4" stroke="none" stroke-width="0.5" stroke-linecap="butt"/><path d="M-64.5,289.6875c1.18671,-5.15764 6.63612,-16.91572 9.34181,-22.22293c5.38208,-10.55695 10.28132,-18.96912 18.98052,-27.32974c11.52835,-11.07965 26.63524,-11.36144 41.74673,-9.32233c6.28205,0.84768 12.26143,1.1386 18.11128,3.63932c4.04115,1.72753 6.40874,5.18253 10.2841,6.95738c4.00925,1.83617 8.65176,2.20267 12.7159,4.04262c4.63742,2.09949 9.62571,5.62532 14,8c2.39998,1.30288 4.3626,3.29035 6.62864,4.81432c1.86895,1.25691 5.54841,1.56311 7.69102,2.67136c5.83017,3.01561 8.54793,6.86275 16.47046,6.875c9.84246,0.01522 19.68779,0.23671 29.52742,0c5.66847,-0.13637 11.72378,-3.44561 17.15484,-4.80961c9.92113,-2.49167 18.85954,-4.21945 28.74463,-7.67515c5.7211,-2.00003 10.32747,-5.91628 15.97353,-7.82203c4.30942,-1.45459 9.28152,-1.82151 13.62236,-3.46092c12.43726,-4.69722 25.63209,-8.01364 39.00677,-8.23228c4.59437,-0.07511 18.3465,-0.87973 25.90625,0.39063c4.8725,0.81878 9.26471,4.0969 14.05118,4.80512c6.07436,0.89878 11.62337,3.46697 17.32734,5.59234c1.67454,0.62395 5.27757,2.63047 7.53325,3.17008c5.95984,1.42572 12.0484,3.04301 18.0488,4.12852c0.48107,0.08703 5.00673,0.36611 5.76231,0.60652c3.3267,1.05849 5.90711,3.00101 9.44851,3.3068c11.04459,0.95365 21.76783,1.27162 33.02066,1c2.31311,-0.05583 5.99763,-5.08574 7.37998,-6.61738c2.45181,-2.71659 5.17943,-4.06139 7.80669,-6.50837c3.74339,-3.48651 6.48638,-6.71322 10.71042,-10.07979c3.63122,-2.89408 8.23926,-4.3582 11.48706,-7.73921c8.17506,-8.51039 15.99776,-17.51159 23.84904,-26.19854c3.39306,-3.75421 5.18264,-10.539 7.86725,-14.72421c3.79817,-5.92121 8.5702,-10.27828 12.6018,-15.9027c6.70023,-9.34739 13.3021,-20.40668 22.69946,-27.1048c3.6062,-2.57038 10.80985,-3.45401 14.96479,-3.125c0.4685,0.0371 5.46493,-0.31522 7.26865,-0.13485c11.11703,1.1117 27.51856,12.31672 36.1938,18.70675c3.7458,2.75909 7.77574,5.80258 10.23636,9.78878c1.31029,2.12267 2.12743,5.26282 3.69383,7.1414c4.45731,5.34563 9.3384,11.97294 11.44938,18.86879c1.43163,4.67666 1.8035,9.79968 3.38002,14.5316c3.01067,9.03653 4.10436,17.91758 6.56675,27.03414c0.63048,2.33423 0.67171,5.97481 1.57116,8.31064c3.11966,8.10162 5.13565,16.95737 5.99728,25.57372c1.20309,12.03092 0.18873,35.88098 0.17799,38.17903c-0.07242,15.50352 -6.69107,23.81753 -16.34325,34.69859c-11.01468,12.41704 -24.77441,20.05633 -39.9023,26.73558c-9.91833,4.37913 -19.81814,11.66952 -30.8482,13.17521c-17.86812,2.43915 -34.60087,-0.32841 -52.04028,-0.60937c-15.27339,-0.24607 -30.55272,-0.24572 -45.82611,0c-10.3328,0.16624 -20.73477,1.96853 -31.03986,2c-18.66658,0.05701 -37.33336,0.03135 -56,0c-4.61106,-0.00774 -9.60591,-0.93884 -13.96012,-1c-17.96685,-0.25238 -35.93874,-0.23242 -53.90585,0c-7.26151,0.09393 -7.93586,0.82257 -14.02405,1.65985c-9.6415,1.32595 -19.33341,1.40459 -29.10997,1.34015c-11.42296,-0.07528 -22.19737,-3.88181 -33.47549,-4c-21.06821,-0.22079 -44.54115,-0.84424 -66.12697,-0.84424c-6.5505,0 -12.55288,-4.03627 -18.89892,-4.15576c-17.16317,-0.32317 -34.33284,0.12103 -51.49863,0c-2.24245,-0.01581 -4.41062,-0.96038 -6.65277,-1c-10.11416,-0.17872 -20.23156,0.03988 -30.34723,0c-4.42451,-0.01744 -10.41533,-0.96223 -13.97542,-4.03686c-2.43351,-2.10167 -5.03102,-4.06417 -7.11833,-6.51001c-0.49636,-0.58162 -0.32246,-1.50137 -0.59849,-2.21443c-3.19521,-8.25399 -6.21638,-13.77885 -6.30776,-23.2387c-0.05312,-5.49977 2.69634,-11.70634 0,-16.50009c-10.14692,-2.05972 -18.0622,-10.265 -19.69156,-20.56157c-0.20301,-1.28293 -0.30844,-2.59832 -0.30844,-3.93833c0,-1.30058 0.09931,-2.57796 0.29077,-3.82498c0.18425,-2.34669 0.43653,-5.11485 0.70923,-6.30002z" fill="#6bff66" stroke="#45a542" stroke-width="7.5" stroke-linecap="butt"/><g><path d="M11.90284,153.30051c0.81174,0.18264 1.65881,0.53607 2.49247,0.99678c0.84434,0.42778 1.62844,0.95935 2.33488,1.57856c0.77401,0.61814 1.48558,1.28362 2.0837,1.92994c0.05296,0.05723 1.53494,2.03007 1.62659,1.88323c0.80244,-1.28571 -0.42207,-2.78902 -0.40429,-4.11185c0.04493,-3.34102 1.024,-7.8444 3.99051,-10.09295c4.43821,-3.36407 12.90377,-3.31403 16.4181,1.61314c0.17012,0.23852 3.52184,-0.85215 4.00606,-0.88462c4.35815,-0.29228 9.68234,2.00795 13.0833,-0.73293c3.236,-2.60794 4.77519,-6.81555 9.84983,-6.70803c4.70851,0.09976 9.06993,3.25625 11.12749,7.17979c0.29865,0.5695 4.17738,2.71214 4.94082,3.7915c0.84053,1.18834 0.94634,2.73201 1.79697,3.90383c0.12222,0.16836 2.36001,-1.63971 2.66609,-1.80702c1.77935,-0.97265 3.81116,-1.8804 5.70209,-2.52303c9.29519,-3.15889 20.07,-1.72695 20.50963,10.27843c0.7954,21.72076 -18.7066,28.16175 -32.61733,40.00999c-0.23927,0.2038 0.34031,2.45105 0.36117,2.93121c0.35593,8.19374 0.66594,16.38982 0.90039,24.58794c0.15267,5.33859 2.76637,9.89829 3.51933,15.16548c0.03041,0.21273 0.06126,0.44249 0.09344,0.68472c-0.05952,1.07384 -0.1063,2.09605 -0.18399,2.9984c-0.15752,1.82953 -0.82363,3.66373 -0.79035,5.5062c0.0284,1.57267 0.11056,3.13355 0.19019,4.68524c-0.58758,1.52164 -1.58164,2.83304 -2.82247,3.99454c-1.41797,0.6767 -3.59052,1.32073 -4.82505,1.37931c-8.70144,0.41294 -15.8507,0.22355 -24.05913,-0.68948c-6.10332,-0.67888 -10.59955,-0.53192 -17.27975,-0.43804c-0.94529,0.01328 -1.93614,-2.58115 -2.57336,-4.56161c0.13356,-2.33 0.51204,-4.84522 0.35992,-7.72925c-0.81324,-15.41923 7.66902,-28.62879 -0.1515,-43.40499c-0.92529,-1.74825 -7.68807,-3.96945 -9.50898,-5.72924c-2.5508,-2.46516 -5.49113,-4.54607 -8.09568,-7.06555c-1.65835,-1.60419 -3.25776,-4.60358 -4.55957,-6.56047c-2.18008,-3.27713 -5.61144,-6.23306 -7.95488,-9.94786c-0.57578,-0.91271 -1.35347,-1.74719 -2.14906,-2.58018c-0.68009,-0.58762 -1.28957,-1.25587 -1.81318,-1.99059c-0.87087,-1.07543 -1.55224,-2.23882 -1.70554,-3.63134c-0.20926,-0.7916 -0.33468,-1.61853 -0.3659,-2.47111c-0.00235,-0.06409 -0.00416,-0.12806 -0.00542,-0.19193c-0.10686,-5.38276 3.6028,-9.98326 8.67708,-11.16324c1.35663,-0.49794 2.97635,-0.56867 5.13535,-0.08291z" fill="#94603a" stroke="#754b2e" stroke-width="3.5" stroke-linecap="butt"/><g stroke-width="3.5" stroke-linecap="butt"><path d="M69.74716,254.92086c0.05608,1.53137 -1.81458,2.84297 -4.17821,2.92952c-2.36364,0.08655 -4.32521,-1.0847 -4.38129,-2.61608c-0.05608,-1.53137 1.81457,-2.84297 4.17821,-2.92952c2.36364,-0.08655 4.32521,1.08471 4.38129,2.61608z" fill="#fff5d4" stroke="#ebecae"/><path d="M62.44091,252.77405c0,0 -0.98097,-9.88369 -1.16774,-14.98417c-0.19811,-5.40989 0.0111,-16.6016 0.0111,-16.6016l6.27033,-0.22961c0,0 1.08402,10.28287 1.27176,15.40971c0.19733,5.38871 -0.11512,16.17607 -0.11512,16.17607z" fill="#66b8ff" stroke="#4d8bc1"/><path d="M61.38462,254.0199l-0.10595,-2.89336l8.92117,-0.32669l0.10595,2.89336z" fill="#66b8ff" stroke="#4d8bc1"/></g><g stroke-width="3.5" stroke-linecap="butt"><path d="M56.95773,255.49555c0.05608,1.53137 -1.81457,2.84297 -4.17821,2.92952c-2.36364,0.08655 -4.32521,-1.08471 -4.38129,-2.61608c-0.05608,-1.53137 1.81457,-2.84297 4.17821,-2.92952c2.36364,-0.08655 4.32521,1.08471 4.38129,2.61608z" fill="#fff5d4" stroke="#ebecae"/><path d="M49.65148,253.34875c0,0 -0.98097,-9.8837 -1.16774,-14.98417c-0.19811,-5.40989 0.0111,-16.6016 0.0111,-16.6016l6.27033,-0.22961c0,0 1.08402,10.28287 1.27176,15.40971c0.19733,5.3887 -0.11512,16.17607 -0.11512,16.17607z" fill="#66b8ff" stroke="#4d8bc1"/><path d="M48.5952,254.5946l-0.10595,-2.89334l8.92117,-0.32669l0.10595,2.89334z" fill="#66b8ff" stroke="#4d8bc1"/></g><path d="M34.70299,166.94839l-0.08074,0.03684l-0.02589,0.04944l-0.22516,0.06513l-0.21323,0.09731l-0.05187,-0.02063l-0.08525,0.02465l-0.61012,0.02234l-0.06905,-0.0146l-0.06966,0.01139l-1.70223,-0.14131l-0.03406,-0.01159l-0.03208,0.01332l-0.24637,-0.10801l-0.2547,-0.08661l-0.01467,-0.03147l-0.03295,-0.01445l-0.41916,-0.32406l-0.37094,-0.47045l0.03787,-0.27076l-0.12564,-0.2428l0.077,-0.22542l-0.0676,-0.10885l-0.06675,-0.20786l-0.08971,-0.19903l-0.08517,-0.47206l0.00556,-0.08348l-0.02325,-0.08037l-0.04468,-1.22024l0.04554,-0.21539l0.02174,-0.21908l0.24634,-0.68783l0.07479,-0.11198l0.04353,-0.12742l0.4497,-0.69528l0.075,-0.07011l0.04957,-0.08991l0.65307,-0.70274l0.07727,-0.05031l0.05656,-0.07281l0.11736,-0.0921l-0.00392,-0.03442l-0.03385,-0.06519l-0.07379,-0.30956l-0.07003,-0.24211l-0.00167,-0.04562l-0.04967,-0.05382l-0.07276,-0.1331l-0.01568,-0.06012l-0.00972,-0.01493l0.00275,-0.01178l-0.00966,-0.03702l-0.06433,-0.11068l-0.07772,-0.26868l-0.00524,-0.143l-0.03976,-0.13747l-0.00393,-0.10723l-0.05965,-0.29165l-0.15607,-0.6547l0.00126,-0.11578l-0.03218,-0.11122l-0.02482,-0.6779l0.12394,-0.58614l0.27142,-0.16856l0.14825,-0.28301l0.5755,-0.16648l0.26316,-0.00964l0.0106,-0.00764l0.03283,0.00605l0.03238,-0.00119l0.26132,0.05526l0.26268,0.04836l0.02949,0.01342l0.03267,0.0069l0.00689,0.01108l0.48323,0.2199l0.03568,0.02837l0.04406,0.01166l0.06443,0.03553l0.58008,-0.02124l0.2245,-0.05352l0.11577,0.00128l0.11122,-0.03218l0.10723,-0.00393l0.62492,-0.12782l0.31638,-0.11849l0.04529,-0.00515l0.03941,-0.0229l0.53736,-0.15544l0.143,-0.00524l0.13747,-0.03976l0.69142,-0.02532l0.0862,-0.05354l0.00685,-0.0022l0.00507,-0.00511l0.59771,-0.3613l0.05035,-0.01551l0.04031,-0.03394l0.60019,-0.29351l0.022,-0.00469l0.01774,-0.01383l0.33399,-0.14799l0.2169,-0.03771l0.21148,-0.06117l0.39874,-0.0146l0.0106,-0.00763l0.03283,0.00604l0.03238,-0.00119l0.1214,0.02567l0.41153,-0.04262l0.03917,0.00559l0.03801,-0.01099l0.6779,-0.02482l0.0446,0.00942l0.04463,-0.00926l0.88377,0.03552l0.0194,0.00569l0.01991,-0.00345l0.6126,0.04545l0.16258,0.05371l0.16991,0.02106l0.43688,0.16859l0.36531,0.10709l0.13395,0.07851l0.14803,0.04683l0.20834,0.12813l0.12711,0.12995l0.07946,0.01924l0.0888,0.15276l0.12356,0.12632l-0.00263,0.08171l0.09136,0.15716l0.07772,0.26868l0.00524,0.143l0.03976,0.13747l0.00322,0.08799l0.11642,0.06419l0.08482,0.07882l0.10394,0.05101l0.3568,0.30127l0.12059,-0.41138c0.05236,-0.19545 0.15458,-0.3712 0.29266,-0.51219l0.01781,-0.03039l0.0175,-0.00418c0.19757,-0.1854 0.46049,-0.30293 0.75252,-0.31362c0.55834,-0.02045 1.0391,0.35639 1.16991,0.87738l0.01217,0.01262l-0.00138,0.03445c0.01306,0.06308 0.02106,0.12811 0.02349,0.19464c0.00505,0.13797 -0.01415,0.27119 -0.05378,0.39556l-0.1734,0.59152l-0.07001,0.11944l-0.03786,0.13317l-0.63819,1.10948l-0.01218,0.01263l-0.00529,0.01673l-0.13596,0.22105l0.04546,1.24137l-0.0201,0.09506l0.01129,0.09649l-0.04517,0.34945l0.0064,0.01344l-0.01236,0.03264l-0.00177,0.0137l-0.10049,0.25639l-0.07818,0.20652l0.08666,0.29957l0.01986,0.54233l-0.03865,0.18283l-0.00751,0.18672l-0.03902,0.13307l0.00389,0.01247l-0.01612,0.02924l-0.00912,0.03108l-0.13505,0.23043l-0.12894,0.23391l-0.02205,0.02372l-0.01688,0.02881l-0.0127,0.00302l-0.07899,0.085l-0.15661,0.10194l-0.13733,0.12672l-0.2662,0.14551l-0.16802,0.04385l-0.1566,0.07501l-0.40426,0.08269l-0.09707,-0.0042l-0.09332,0.027l-1.13569,0.04159l-0.12341,0.30755l-0.03698,0.17488l-0.03502,0.07188l-0.0079,0.07957l-0.12317,0.34392l-0.0852,0.12756l-0.05432,0.14346l-0.19344,0.27861l-0.06295,0.05511l-0.04039,0.07328l-0.26123,0.28109l-0.15661,0.10194l-0.13733,0.12672l-0.49997,0.2733l-0.0022,0.00237l-0.22384,0.14571l-0.21994,0.15154l-0.03033,0.01137l-0.02798,0.01822l-0.01272,-0.00298l-0.12987,0.04864l-0.09161,0.01044l-0.08315,0.03983l-0.40426,0.08269l-0.05834,-0.00252l-0.05488,0.01992l-0.93863,0.0972l-0.93535,0.22295l-0.01925,-0.0002l-0.01735,0.00831l-1.21279,0.24806l-0.05834,-0.00252l-0.05488,0.01993l-1.01438,0.10503l-0.03916,-0.00559l-0.03801,0.01099l-0.81349,0.02979l-0.58614,-0.12394l-0.16268,-0.26195z" fill="#fff5d4" stroke="none" stroke-width="3.5" stroke-linecap="butt"/><path d="M77.8884,171.48225c0.23595,6.44345 3.76277,10.76695 0.44684,13.2595c-4.13055,3.10487 -15.16129,3.87322 -22.15991,4.1295c-7.80183,0.2857 -18.30484,0.5255 -22.5192,-3.25794c-2.60105,-2.33508 -1.25568,-6.93563 -1.4579,-12.45793c-0.06736,-1.83949 0.03433,-3.50486 0.28913,-5.01159c2.14268,-0.77763 2.40577,-2.33898 4.48688,-3.63143l0.06367,-0.30109c0.73318,-0.26493 1.40779,-0.59538 1.98577,-1.01806c0.66578,-0.48688 1.3045,-1.052 1.90017,-1.6767c1.18345,-0.58079 2.24105,-1.25263 2.57744,-1.72327c0.46633,-0.65241 1.15966,-2.41718 1.58996,-4.12501c2.77174,-0.68405 5.8585,-1.02046 9.12533,-1.14009c12.617,-0.46202 23.142,2.48426 23.67187,16.95411z" fill="#50351d" stroke="#3d2816" stroke-width="3.5" stroke-linecap="butt"/><text transform="translate(50.9437,174.59486) rotate(88.38654) scale(0.38748,0.38748)" font-size="40" xml:space="preserve" fill="#000000" fill-rule="nonzero" stroke="none" stroke-width="7" stroke-linecap="butt" stroke-linejoin="miter" stroke-miterlimit="10" stroke-dasharray="" stroke-dashoffset="0" font-family="Handwriting" font-weight="normal" text-anchor="start" style="mix-blend-mode: normal"><tspan x="0" dy="0">3</tspan></text><path d="M32.41192,157.95105c-0.00783,-0.21385 0.15918,-0.39357 0.37304,-0.4014c0.21385,-0.00783 0.39357,0.15918 0.4014,0.37304c0.00783,0.21385 -0.15918,0.39357 -0.37304,0.4014c-0.21385,0.00783 -0.39357,-0.15918 -0.4014,-0.37304z" fill="#37b33a" stroke="none" stroke-width="3.5" stroke-linecap="butt"/><path d="M34.4573,160.04837c-0.00783,-0.21385 0.15918,-0.39357 0.37304,-0.4014c0.21385,-0.00783 0.39357,0.15918 0.4014,0.37304c0.00783,0.21385 -0.15918,0.39357 -0.37304,0.4014c-0.21385,0.00783 -0.39357,-0.15918 -0.4014,-0.37304z" fill="#37b33a" stroke="none" stroke-width="3.5" stroke-linecap="butt"/><path d="M35.68154,156.4058c-0.00783,-0.21385 0.15918,-0.39357 0.37304,-0.4014c0.21385,-0.00783 0.39357,0.15918 0.4014,0.37304c0.00783,0.21385 -0.15918,0.39357 -0.37304,0.4014c-0.21385,0.00783 -0.39357,-0.15918 -0.4014,-0.37304z" fill="#37b33a" stroke="none" stroke-width="3.5" stroke-linecap="butt"/><path d="M31.48367,162.2616c-0.00783,-0.21385 0.15918,-0.39357 0.37304,-0.4014c0.21385,-0.00783 0.39357,0.15918 0.4014,0.37304c0.00783,0.21385 -0.15918,0.39357 -0.37304,0.4014c-0.21385,0.00783 -0.39357,-0.15918 -0.4014,-0.37304z" fill="#37b33a" stroke="none" stroke-width="3.5" stroke-linecap="butt"/><path d="M35.20376,158.18823c-0.00783,-0.21385 0.15918,-0.39357 0.37304,-0.4014c0.21385,-0.00783 0.39357,0.15918 0.4014,0.37304c0.00783,0.21385 -0.15918,0.39357 -0.37304,0.4014c-0.21385,0.00783 -0.39357,-0.15918 -0.4014,-0.37304z" fill="#37b33a" stroke="none" stroke-width="3.5" stroke-linecap="butt"/><path d="M32.76595,163.91168c-0.00783,-0.21385 0.15918,-0.39357 0.37304,-0.4014c0.21385,-0.00783 0.39357,0.15918 0.4014,0.37304c0.00783,0.21385 -0.15918,0.39357 -0.37304,0.4014c-0.21385,0.00783 -0.39357,-0.15918 -0.4014,-0.37304z" fill="#37b33a" stroke="none" stroke-width="3.5" stroke-linecap="butt"/><path d="M37.61521,155.45252c-0.00783,-0.21385 0.15918,-0.39357 0.37304,-0.4014c0.21385,-0.00783 0.39357,0.15918 0.4014,0.37304c0.00783,0.21385 -0.15918,0.39357 -0.37304,0.4014c-0.21385,0.00783 -0.39357,-0.15918 -0.4014,-0.37304z" fill="#37b33a" stroke="none" stroke-width="3.5" stroke-linecap="butt"/><path d="M36.7068,160.30541c-0.00783,-0.21385 0.15918,-0.39357 0.37304,-0.4014c0.21385,-0.00783 0.39357,0.15918 0.4014,0.37304c0.00783,0.21385 -0.15918,0.39357 -0.37304,0.4014c-0.21385,0.00783 -0.39357,-0.15918 -0.4014,-0.37304z" fill="#37b33a" stroke="none" stroke-width="3.5" stroke-linecap="butt"/><path d="M39.87961,156.11632c-0.00783,-0.21385 0.15918,-0.39357 0.37304,-0.4014c0.21385,-0.00783 0.39357,0.15918 0.4014,0.37304c0.00783,0.21385 -0.15918,0.39357 -0.37304,0.4014c-0.21385,0.00783 -0.39357,-0.15918 -0.4014,-0.37304z" fill="#37b33a" stroke="none" stroke-width="3.5" stroke-linecap="butt"/><path d="M37.75003,157.2804c-0.00783,-0.21385 0.15918,-0.39357 0.37304,-0.4014c0.21385,-0.00783 0.39357,0.15918 0.4014,0.37304c0.00783,0.21385 -0.15918,0.39357 -0.37304,0.4014c-0.21385,0.00783 -0.39357,-0.15918 -0.4014,-0.37304z" fill="#37b33a" stroke="none" stroke-width="3.5" stroke-linecap="butt"/><path d="M46.99317,156.89104c0.03407,0.78061 2.2007,-1.54135 2.23883,-1.60257c0.82773,-1.32874 2.94889,-1.61657 4.31311,-1.81532c2.46382,-0.35895 2.80556,3.35738 3.10498,4.97322c0.15376,0.82983 2.37465,-1.21239 2.53025,-1.43084c1.14255,-1.60402 2.52547,-2.69233 4.65917,-2.86445c2.40372,-0.1939 1.77163,4.34923 3.31625,4.18912c1.78219,-0.18473 3.9957,-2.2465 5.72793,-1.01261c0.53524,0.38127 1.26025,1.74361 0.7431,2.46964c-1.34853,1.89319 -1.76543,-0.16314 -2.89895,0.14284c-3.40545,0.91926 -6.65272,1.71713 -7.43646,-2.91362c-0.07176,-0.42395 -2.04803,1.82514 -2.2007,1.99764c-1.32186,1.4937 -2.96717,2.36514 -5.01186,2.09802c-2.31566,-0.30251 -1.86639,-2.35601 -2.54636,-4.28726c-0.06666,-0.18934 0.05977,-0.56154 -0.13949,-0.58581c-2.72458,-0.33188 -3.64467,3.93356 -7.13011,3.3581c-1.91381,-0.31597 -2.81255,-4.69243 -1.60027,-5.68406c0.16642,-0.43328 0.55108,-0.76982 1.04194,-0.85229c0.73863,-0.1241 1.43802,0.37407 1.56212,1.11271c0.02484,0.14782 0.02475,0.29405 0.0028,0.43442c-0.00047,0.6079 -0.31733,1.33335 -0.27631,2.2731z" fill="#fff5d4" stroke="none" stroke-width="3.5" stroke-linecap="butt"/><path d="M70.51446,150.07137c1.25663,0.661 0.33328,1.43881 0.60421,2.41029c0.37905,1.35921 2.91511,1.45746 1.4316,5.10594c-0.81304,1.99955 -9.70253,-0.40388 -10.3264,-1.11201c-1.59097,-1.8058 0.38563,-3.47287 1.81495,-4.13213c0.2,-0.09225 -0.12545,-0.42227 -0.18614,-0.634c-0.42154,-1.47102 -0.01789,-2.83314 1.45587,-3.36901c1.26987,-0.46173 4.07219,-1.27951 5.3036,-1.10446c2.35467,0.33474 0.90303,2.28729 -0.19624,2.75103z" fill="#23170c" stroke="none" stroke-width="3.5" stroke-linecap="butt"/><path d="M65.80133,149.53289c-0.00392,-0.10692 0.07959,-0.19678 0.18651,-0.20069c0.10692,-0.00392 0.19678,0.07959 0.20069,0.18651c0.00392,0.10692 -0.07959,0.19678 -0.18651,0.20069c-0.10692,0.00392 -0.19678,-0.07959 -0.20069,-0.18651z" fill="#fd96ff" stroke="none" stroke-width="3.5" stroke-linecap="butt"/><path d="M68.06154,148.22825c-0.00392,-0.10692 0.07959,-0.19678 0.18651,-0.20069c0.10692,-0.00392 0.19678,0.07959 0.20069,0.18651c0.00392,0.10692 -0.07959,0.19678 -0.18651,0.20069c-0.10692,0.00392 -0.19678,-0.07959 -0.20069,-0.18651z" fill="#fd96ff" stroke="none" stroke-width="3.5" stroke-linecap="butt"/><path d="M67.75906,151.09036c-0.00392,-0.10692 0.07959,-0.19678 0.18651,-0.20069c0.10692,-0.00392 0.19678,0.07959 0.20069,0.18651c0.00392,0.10692 -0.07959,0.19678 -0.18651,0.20069c-0.10692,0.00392 -0.19678,-0.07959 -0.20069,-0.18651z" fill="#fd96ff" stroke="none" stroke-width="3.5" stroke-linecap="butt"/><path d="M69.09501,150.49839c-0.00392,-0.10692 0.07959,-0.19678 0.18651,-0.20069c0.10692,-0.00392 0.19678,0.07959 0.20069,0.18651c0.00392,0.10692 -0.07959,0.19678 -0.18651,0.20069c-0.10692,0.00392 -0.19678,-0.07959 -0.20069,-0.18651z" fill="#fd96ff" stroke="none" stroke-width="3.5" stroke-linecap="butt"/><path d="M65.7725,152.45286c-0.00392,-0.10692 0.07959,-0.19678 0.18651,-0.20069c0.10692,-0.00392 0.19678,0.07959 0.20069,0.18651c0.00392,0.10692 -0.07959,0.19678 -0.18651,0.20069c-0.10692,0.00392 -0.19678,-0.07959 -0.20069,-0.18651z" fill="#fd96ff" stroke="none" stroke-width="3.5" stroke-linecap="butt"/><path d="M68.64454,153.02651c-0.00392,-0.10692 0.07959,-0.19678 0.18651,-0.20069c0.10692,-0.00392 0.19678,0.07959 0.20069,0.18651c0.00392,0.10692 -0.07959,0.19678 -0.18651,0.20069c-0.10692,0.00392 -0.19678,-0.07959 -0.20069,-0.18651z" fill="#fd96ff" stroke="none" stroke-width="3.5" stroke-linecap="butt"/><path d="M64.03896,155.16373c-0.00392,-0.10692 0.07959,-0.19678 0.18651,-0.20069c0.10692,-0.00392 0.19678,0.07959 0.20069,0.18651c0.00392,0.10692 -0.07959,0.19678 -0.18651,0.20069c-0.10692,0.00392 -0.19678,-0.07959 -0.20069,-0.18651z" fill="#fd96ff" stroke="none" stroke-width="3.5" stroke-linecap="butt"/><path d="M68.55785,156.22013c-0.00392,-0.10692 0.07959,-0.19678 0.18651,-0.20069c0.10692,-0.00392 0.19678,0.07959 0.20069,0.18651c0.00392,0.10692 -0.07959,0.19678 -0.18651,0.20069c-0.10692,0.00392 -0.19678,-0.07959 -0.20069,-0.18651z" fill="#fd96ff" stroke="none" stroke-width="3.5" stroke-linecap="butt"/><path d="M66.53481,154.73292c-0.00392,-0.10692 0.07959,-0.19678 0.18651,-0.20069c0.10692,-0.00392 0.19678,0.07959 0.20069,0.18651c0.00392,0.10692 -0.07959,0.19678 -0.18651,0.20069c-0.10692,0.00392 -0.19678,-0.07959 -0.20069,-0.18651z" fill="#fd96ff" stroke="none" stroke-width="3.5" stroke-linecap="butt"/><path d="M44.195,183.09303c0.05859,1.6 -1.21034,2.94527 -2.83421,3.00473c-1.62389,0.05947 -2.9878,-1.18939 -3.04639,-2.78939c-0.05859,-1.6 1.21034,-2.94527 2.83421,-3.00473c1.62389,-0.05947 2.9878,1.18939 3.04639,2.78939z" fill="#fca8ff" stroke="none" stroke-width="3.5" stroke-linecap="butt"/><path d="M70.43689,153.77545c-0.00392,-0.10692 0.07959,-0.19678 0.18651,-0.20069c0.10692,-0.00392 0.19678,0.07959 0.20069,0.18651c0.00392,0.10692 -0.07959,0.19678 -0.18651,0.20069c-0.10692,0.00392 -0.19678,-0.07959 -0.20069,-0.18651z" fill="#fd96ff" stroke="none" stroke-width="3.5" stroke-linecap="butt"/><path d="M70.71474,155.80174c-0.00392,-0.10692 0.07959,-0.19678 0.18651,-0.20069c0.10692,-0.00392 0.19678,0.07959 0.20069,0.18651c0.00392,0.10692 -0.07959,0.19678 -0.18651,0.20069c-0.10692,0.00392 -0.19678,-0.07959 -0.20069,-0.18651z" fill="#fd96ff" stroke="none" stroke-width="3.5" stroke-linecap="butt"/><path d="M75.31937,181.96136c0.05859,1.60001 -1.21034,2.94527 -2.83421,3.00473c-1.62389,0.05947 -2.9878,-1.18939 -3.04639,-2.78939c-0.05859,-1.60001 1.21034,-2.94527 2.83421,-3.00473c1.62389,-0.05947 2.9878,1.18939 3.04639,2.78939z" fill="#fca8ff" stroke="none" stroke-width="3.5" stroke-linecap="butt"/><path d="M46.25285,222.13555l-1.13944,-31.11602l24.06577,-0.88127l1.13944,31.11602z" fill="#ff83e4" stroke="#cc68b6" stroke-width="3.5" stroke-linecap="butt"/><path d="M57.42576,191.72266l1.1931,28.87395" fill="none" stroke="#cc68b6" stroke-width="3.5" stroke-linecap="round"/><path d="M59.42168,216.56776c0.02753,0.75187 -0.48129,1.38083 -1.13649,1.40482c-0.6552,0.02399 -1.20866,-0.56606 -1.23619,-1.31794c-0.02753,-0.75187 0.48129,-1.38083 1.13649,-1.40482c0.6552,-0.02399 1.20866,0.56606 1.23619,1.31794z" fill="#ff83e4" stroke="#cc68b6" stroke-width="3.5" stroke-linecap="butt"/><path d="M59.3909,208.09172c0.02753,0.75187 -0.48129,1.38083 -1.13649,1.40482c-0.6552,0.02399 -1.20866,-0.56607 -1.23619,-1.31794c-0.02753,-0.75187 0.48129,-1.38083 1.13649,-1.40482c0.6552,-0.02399 1.20866,0.56607 1.23619,1.31794z" fill="#ff83e4" stroke="#cc68b6" stroke-width="3.5" stroke-linecap="butt"/><path d="M59.0013,199.08579c0.02616,0.71443 -0.48377,1.31303 -1.13897,1.33702c-0.6552,0.02399 -1.20755,-0.53572 -1.23371,-1.25013c-0.02616,-0.71443 0.48377,-1.31303 1.13897,-1.33702c0.6552,-0.02399 1.20755,0.53572 1.23371,1.25013z" fill="#ff83e4" stroke="#cc68b6" stroke-width="3.5" stroke-linecap="butt"/><g fill="#3c3c3c" stroke="#2c2c2c" stroke-width="3.5" stroke-linecap="butt"><path d="M59.60533,192.39146l-0.119,-2.1618l2.87198,-2.30152l1.27698,5.46195z" data-paper-data="{&quot;index&quot;:null}"/><path d="M52.25753,193.54175l1.05912,-5.03229l2.7303,2.05121l-0.05922,1.98389z"/><path d="M59.4815,189.59941c0.79904,0.96116 0.65564,2.39805 -0.32031,3.20939c-0.97595,0.81133 -2.41486,0.68989 -3.21389,-0.27127c-0.79904,-0.96116 -0.65564,-2.39805 0.32031,-3.20939c0.97595,-0.81133 2.41486,-0.68989 3.21389,0.27127z"/></g><g data-paper-data="{&quot;index&quot;:null}" stroke-width="3.5" stroke-linecap="butt"><path d="M20.15993,169.9842l16.07589,15.57876l-3.77667,3.89718l-16.07589,-15.57876z" fill="#50351d" stroke="#3d2816"/><path d="M35.57016,184.88479l11.20457,8.35095l-1.28591,2.17736l-5.4305,0.51587l-8.17717,-6.09457z" fill="#ff83e4" stroke="#cc68b6"/><g fill="#feffce" stroke="#ebecae"><path d="M19.51911,168.89088l5.50478,5.33454l-4.05993,4.18948l-5.50478,-5.33454z"/><path d="M18.67227,166.15085c1.97339,1.49271 2.38446,4.23872 0.91815,6.13338c-1.46631,1.89467 -4.25475,2.22053 -6.22814,0.72782c-1.97339,-1.49271 -2.93288,-3.63656 -4.04337,-5.64417c-0.67975,-1.22887 1.09134,-3.58717 2.36146,-3.65124c0.5627,-0.02839 2.61252,2.29606 2.94793,2.06791c0.20115,-0.13681 -1.51216,-3.62198 -1.31943,-3.62061c0.95358,0.00673 4.53856,3.36298 5.36341,3.98691z"/><path d="M25.14743,172.9282l1.85116,1.79392l-5.6178,5.79706l-1.85116,-1.79392z"/></g></g><g data-paper-data="{&quot;index&quot;:null}" stroke-width="3.5" stroke-linecap="butt"><path d="M99.74826,171.16237l-16.19903,15.45069l-3.74561,-3.92704l16.19903,-15.45069z" fill="#50351d" stroke="#3d2816"/><path d="M84.12422,186.99187l-8.22528,6.02949l-5.42624,-0.55895l-1.26858,-2.18749l11.27049,-8.26175z" fill="#ff83e4" stroke="#cc68b6"/><g fill="#feffce" stroke="#ebecae"><path d="M100.67867,170.3687l-5.54694,5.29069l-4.02654,-4.22156l5.54694,-5.29069z"/><path d="M96.55388,169.53983c-1.45123,-1.90626 -1.01838,-4.64891 0.9668,-6.12591c0.82977,-0.61735 4.44129,-3.94507 5.39488,-3.94421c0.19273,0.00018 -1.54818,3.47162 -1.34813,3.61004c0.3336,0.2308 2.4018,-2.07731 2.96426,-2.04445c1.26957,0.07415 3.02188,2.44642 2.33242,3.66987c-1.1264,1.99873 -2.10286,4.1349 -4.08805,5.61191c-1.98519,1.477 -4.77094,1.12902 -6.22218,-0.77724z"/><path d="M96.56356,175.98113l-1.86535,1.77917l-5.57162,-5.84147l1.86535,-1.77917z"/></g></g><path d="M39.90188,167.31748l5.70453,4.59613l-6.2411,3.57117" fill="none" stroke="#000000" stroke-width="3.5" stroke-linecap="round"/><path d="M73.31919,174.68734l-6.48558,-3.10513l5.35309,-5.00105" data-paper-data="{&quot;index&quot;:null}" fill="none" stroke="#000000" stroke-width="3.5" stroke-linecap="round"/></g><path d="M501.29888,79.47518c16.3488,3.51142 8.34347,15.26172 14.49732,25.4207c8.60999,14.21366 37.68505,7.28468 32.43089,53.37004c-2.8796,25.25717 -111.32508,26.19174 -120.64686,20.13902c-23.77175,-15.435 -6.64083,-40.61161 7.47934,-52.62213c1.97581,-1.68065 -2.76216,-4.3914 -4.12189,-6.60034c-9.44652,-15.34712 -9.18846,-32.07619 5.82703,-42.82804c12.93819,-9.2644 42.12782,-27.42728 56.6494,-29.34738c27.76778,-3.67153 17.49637,23.07795 6.49944,31.82401z" fill="#23170c" stroke="none" stroke-width="0.5" stroke-linecap="butt"/><path d="M446.13555,88.31602c-0.38353,-1.20031 0.27861,-2.48429 1.47891,-2.86782c1.20031,-0.38353 2.48429,0.27861 2.86782,1.47891c0.38353,1.20031 -0.27861,2.48429 -1.47891,2.86782c-1.20031,0.38353 -2.48429,-0.27861 -2.86782,-1.47891z" fill="#fd96ff" stroke="none" stroke-width="0.5" stroke-linecap="butt"/><path d="M467.63259,66.35059c-0.38353,-1.20031 0.27861,-2.48429 1.47891,-2.86782c1.20031,-0.38353 2.48429,0.27861 2.86782,1.47891c0.38353,1.20031 -0.27861,2.48429 -1.47891,2.86782c-1.20031,0.38353 -2.48429,-0.27861 -2.86782,-1.47891z" fill="#fd96ff" stroke="none" stroke-width="0.5" stroke-linecap="butt"/><path d="M473.27936,99.77144c-0.38353,-1.20031 0.27861,-2.48429 1.47891,-2.86782c1.20031,-0.38353 2.48429,0.27861 2.86782,1.47891c0.38353,1.20031 -0.27861,2.48429 -1.47891,2.86782c-1.20031,0.38353 -2.48429,-0.27861 -2.86782,-1.47891z" fill="#fd96ff" stroke="none" stroke-width="0.5" stroke-linecap="butt"/><path d="M486.554,88.82029c-0.38353,-1.20031 0.27861,-2.48429 1.47891,-2.86782c1.20031,-0.38353 2.48429,0.27861 2.86782,1.47891c0.38353,1.20031 -0.27861,2.48429 -1.47891,2.86782c-1.20031,0.38353 -2.48429,-0.27861 -2.86782,-1.47891z" fill="#fd96ff" stroke="none" stroke-width="0.5" stroke-linecap="butt"/><path d="M468.25,99.8125c0,-4.28021 3.46979,-7.75 7.75,-7.75c4.28021,0 7.75,3.46979 7.75,7.75c0,4.28021 -3.46979,7.75 -7.75,7.75c-4.28021,0 -7.75,-3.46979 -7.75,-7.75z" fill="#fd96ff" stroke="none" stroke-width="0.5" stroke-linecap="butt"/><path d="M443.25,87.3125c0,-4.28021 3.46979,-7.75 7.75,-7.75c4.28021,0 7.75,3.46979 7.75,7.75c0,4.28021 -3.46979,7.75 -7.75,7.75c-4.28021,0 -7.75,-3.46979 -7.75,-7.75z" fill="#fd96ff" stroke="none" stroke-width="0.5" stroke-linecap="butt"/><path d="M461.25,64.3125c0,-4.28021 3.46979,-7.75 7.75,-7.75c4.28021,0 7.75,3.46979 7.75,7.75c0,4.28021 -3.46979,7.75 -7.75,7.75c-4.28021,0 -7.75,-3.46979 -7.75,-7.75z" fill="#fd96ff" stroke="none" stroke-width="0.5" stroke-linecap="butt"/><path d="M485.75,87.3125c0,-4.28021 3.46979,-7.75 7.75,-7.75c4.28021,0 7.75,3.46979 7.75,7.75c0,4.28021 -3.46979,7.75 -7.75,7.75c-4.28021,0 -7.75,-3.46979 -7.75,-7.75z" fill="#fd96ff" stroke="none" stroke-width="0.5" stroke-linecap="butt"/><path d="M456.21875,146.6875c-1.92897,-3.42921 -1.46241,-5.98486 0.24165,-8.03568c0.95103,-1.49168 2.39841,-2.63613 4.10946,-3.20067c0.81005,-0.46288 1.49717,-1.38865 2.43014,-1.38865c3.52774,0 8.45029,5.18205 7.75,8.75c0,0.48422 -0.04441,0.95807 -0.12937,1.41769c-0.66607,3.60318 -3.82464,6.33231 -7.62063,6.33231c-2.52207,0 -4.76277,-1.20473 -6.17801,-3.07011c-0.23098,-0.23859 -0.43434,-0.50463 -0.60324,-0.80489z" fill="#fd96ff" stroke="none" stroke-width="0.5" stroke-linecap="butt"/><path d="M445.25,115.8125c0,-4.28021 3.46979,-7.75 7.75,-7.75c4.28021,0 7.75,3.46979 7.75,7.75c0,4.28021 -3.46979,7.75 -7.75,7.75c-4.28021,0 -7.75,-3.46979 -7.75,-7.75z" fill="#fd96ff" stroke="none" stroke-width="0.5" stroke-linecap="butt"/><path d="M488.25,141.8125c0,-4.28021 3.46979,-7.75 7.75,-7.75c4.28021,0 7.75,3.46979 7.75,7.75c0,4.28021 -3.46979,7.75 -7.75,7.75c-4.28021,0 -7.75,-3.46979 -7.75,-7.75z" fill="#fd96ff" stroke="none" stroke-width="0.5" stroke-linecap="butt"/><path d="M503.75,118.3125c0,-4.28021 3.46979,-7.75 7.75,-7.75c4.28021,0 7.75,3.46979 7.75,7.75c0,4.28021 -3.46979,7.75 -7.75,7.75c-4.28021,0 -7.75,-3.46979 -7.75,-7.75z" fill="#fd96ff" stroke="none" stroke-width="0.5" stroke-linecap="butt"/><path d="M529.25,156.8125c0,-4.28021 3.46979,-7.75 7.75,-7.75c4.28021,0 7.75,3.46979 7.75,7.75c0,4.28021 -3.46979,7.75 -7.75,7.75c-4.28021,0 -7.75,-3.46979 -7.75,-7.75z" fill="#fd96ff" stroke="none" stroke-width="0.5" stroke-linecap="butt"/><path d="M434.75,174.3125c0,-4.28021 3.46979,-7.75 7.75,-7.75c4.28021,0 7.75,3.46979 7.75,7.75c0,4.28021 -3.46979,7.75 -7.75,7.75c-4.28021,0 -7.75,-3.46979 -7.75,-7.75z" fill="#fd96ff" stroke="none" stroke-width="0.5" stroke-linecap="butt"/><path d="M424.25,149.3125c0,-4.28021 3.46979,-7.75 7.75,-7.75c4.28021,0 7.75,3.46979 7.75,7.75c0,4.28021 -3.46979,7.75 -7.75,7.75c-4.28021,0 -7.75,-3.46979 -7.75,-7.75z" fill="#fd96ff" stroke="none" stroke-width="0.5" stroke-linecap="butt"/><path d="M476.25,171.8125c0,-4.28021 3.46979,-7.75 7.75,-7.75c4.28021,0 7.75,3.46979 7.75,7.75c0,4.28021 -3.46979,7.75 -7.75,7.75c-4.28021,0 -7.75,-3.46979 -7.75,-7.75z" fill="#fd96ff" stroke="none" stroke-width="0.5" stroke-linecap="butt"/><path d="M222,147.21875c0,-4.28021 3.46979,-7.75 7.75,-7.75c4.28021,0 7.75,3.46979 7.75,7.75c0,4.28021 -3.46979,7.75 -7.75,7.75c-4.28021,0 -7.75,-3.46979 -7.75,-7.75z" fill="#37b33a" stroke="none" stroke-width="0.5" stroke-linecap="butt"/><path d="M261,169.21875c0,-4.28021 3.46979,-7.75 7.75,-7.75c4.28021,0 7.75,3.46979 7.75,7.75c0,4.28021 -3.46979,7.75 -7.75,7.75c-4.28021,0 -7.75,-3.46979 -7.75,-7.75z" fill="#37b33a" stroke="none" stroke-width="0.5" stroke-linecap="butt"/><path d="M214,181.21875c0,-4.28021 3.46979,-7.75 7.75,-7.75c4.28021,0 7.75,3.46979 7.75,7.75c0,4.28021 -3.46979,7.75 -7.75,7.75c-4.28021,0 -7.75,-3.46979 -7.75,-7.75z" fill="#37b33a" stroke="none" stroke-width="0.5" stroke-linecap="butt"/><path d="M290,194.21875c0,-4.28021 3.46979,-7.75 7.75,-7.75c4.28021,0 7.75,3.46979 7.75,7.75c0,4.28021 -3.46979,7.75 -7.75,7.75c-4.28021,0 -7.75,-3.46979 -7.75,-7.75z" fill="#37b33a" stroke="none" stroke-width="0.5" stroke-linecap="butt"/><path d="M287,154.21875c0,-4.28021 3.46979,-7.75 7.75,-7.75c4.28021,0 7.75,3.46979 7.75,7.75c0,4.28021 -3.46979,7.75 -7.75,7.75c-4.28021,0 -7.75,-3.46979 -7.75,-7.75z" fill="#37b33a" stroke="none" stroke-width="0.5" stroke-linecap="butt"/><path d="M239,115.21875c0,-4.28021 3.46979,-7.75 7.75,-7.75c4.28021,0 7.75,3.46979 7.75,7.75c0,4.28021 -3.46979,7.75 -7.75,7.75c-4.28021,0 -7.75,-3.46979 -7.75,-7.75z" fill="#37b33a" stroke="none" stroke-width="0.5" stroke-linecap="butt"/><path d="M185,166.21875c0,-4.28021 3.46979,-7.75 7.75,-7.75c4.28021,0 7.75,3.46979 7.75,7.75c0,4.28021 -3.46979,7.75 -7.75,7.75c-4.28021,0 -7.75,-3.46979 -7.75,-7.75z" fill="#37b33a" stroke="none" stroke-width="0.5" stroke-linecap="butt"/><path d="M165,190.21875c0,-4.28021 3.46979,-7.75 7.75,-7.75c4.28021,0 7.75,3.46979 7.75,7.75c0,4.28021 -3.46979,7.75 -7.75,7.75c-4.28021,0 -7.75,-3.46979 -7.75,-7.75z" fill="#37b33a" stroke="none" stroke-width="0.5" stroke-linecap="butt"/><path d="M231,200.21875c0,-4.28021 3.46979,-7.75 7.75,-7.75c4.28021,0 7.75,3.46979 7.75,7.75c0,4.28021 -3.46979,7.75 -7.75,7.75c-4.28021,0 -7.75,-3.46979 -7.75,-7.75z" fill="#37b33a" stroke="none" stroke-width="0.5" stroke-linecap="butt"/><path d="M334,192.21875c0,-4.28021 3.46979,-7.75 7.75,-7.75c4.28021,0 7.75,3.46979 7.75,7.75c0,4.28021 -3.46979,7.75 -7.75,7.75c-4.28021,0 -7.75,-3.46979 -7.75,-7.75z" fill="#37b33a" stroke="none" stroke-width="0.5" stroke-linecap="butt"/><g stroke-linecap="butt"><path d="M354.00411,315.28277v-159.35329h21.38507v159.35329z" fill="#e8e8e8" stroke="#aeaeae" stroke-width="5"/><path d="M368.8357,204.06027c0,3.90514 -1.85311,7.07087 -4.13905,7.07087c-2.28593,0 -4.13905,-3.16574 -4.13905,-7.07087c0,-3.90514 1.85311,-7.07087 4.13905,-7.07087c2.28593,0 4.13905,3.16574 4.13905,7.07087z" fill="#333333" stroke="none" stroke-width="0"/><path d="M416.77965,133.3627c0,29.24704 -23.0095,52.95645 -51.39316,52.95645c-28.38366,0 -51.39316,-23.70941 -51.39316,-52.95645c0,-29.24704 23.0095,-52.95645 51.39316,-52.95645c28.38366,0 51.39316,23.70941 51.39316,52.95645z" fill="#e87070" stroke="#a65050" stroke-width="5"/><path d="M306.75,149.73528v-24.48936h118.30775v24.48936z" fill="#e87070" stroke="#a65050" stroke-width="5"/></g><path d="M-11.99589,269.28278v-159.35329h21.38507v159.3533z" fill="#e8e8e8" stroke="#aeaeae" stroke-width="5" stroke-linecap="butt"/><path d="M2.8357,158.06026c0,3.90514 -1.85312,7.07087 -4.13905,7.07087c-2.28593,0 -4.13904,-3.16574 -4.13904,-7.07087c0,-3.90514 1.85311,-7.07087 4.13904,-7.07087c2.28593,0 4.13905,3.16573 4.13905,7.07087z" fill="#333333" stroke="none" stroke-width="0" stroke-linecap="butt"/><path d="M50.77966,87.3627c0,29.24704 -23.0095,52.95645 -51.39316,52.95645c-28.38365,0 -51.39316,-23.70942 -51.39316,-52.95645c0,-29.24704 23.00951,-52.95645 51.39317,-52.95645c28.38366,0 51.39316,23.70941 51.39316,52.95645z" fill="#6fa8e8" stroke="#517aa8" stroke-width="5" stroke-linecap="butt"/><path d="M-59.25,103.73528v-24.48936h118.30775v24.48936z" fill="#6fa8e8" stroke="#517aa8" stroke-width="5" stroke-linecap="butt"/></g></g></svg>