<svg version="1.1" xmlns="http://www.w3.org/2000/svg" xmlns:xlink="http://www.w3.org/1999/xlink" width="58" height="50" viewBox="0,0,58,50"><g transform="translate(-211,-155)"><g data-paper-data="{&quot;isPaintingLayer&quot;:true}" fill-rule="nonzero" stroke-linecap="butt" stroke-linejoin="miter" stroke-miterlimit="10" stroke-dasharray="" stroke-dashoffset="0" style="mix-blend-mode: normal"><path d="M213,203v-46h54v46z" fill="#2e2e2e" stroke="#161616" stroke-width="4"/><g fill="#ffffff" stroke="#ffffff" stroke-width="1" font-family="&quot;Helvetica Neue&quot;, Helvetica, Arial, sans-serif" font-weight="400" font-size="16" text-anchor="start"><g data-paper-data="{&quot;index&quot;:null}"/><g/><g/><g data-paper-data="{&quot;index&quot;:null}"/></g><path d="M236.69671,190.04415c4.40064,0.16497 8.80544,0.45922 13.17344,0.84389c0.93245,0.08212 5.65961,0.23696 6.26964,0.59886c0.13462,0.07987 0.2642,0.16603 0.38944,0.25762l0.03785,-0.06489l1.93826,1.13065c0.68803,0.38487 1.15316,1.12062 1.15316,1.96501c0,1.12935 -0.83205,2.06437 -1.91659,2.22547l-2.92622,0.4877l-0.00225,-0.01348l-0.0431,0.02056c-2.01548,0.22922 -2.30799,0.00923 -3.93318,1.01543c-0.91587,0.56704 -1.59748,1.58353 -2.63608,1.86927c-3.52918,0.97096 -8.51625,-0.5598 -12.18989,-0.55685c-1.77641,0.00143 -7.07218,0.62999 -8.33108,-0.66775c-1.45263,-1.49745 -1.81286,-2.92432 -1.50591,-4.22691l-0.90279,-0.31863c-0.90017,-0.29417 -1.55049,-1.14071 -1.55049,-2.13914c0,-1.1679 0.88983,-2.12798 2.02851,-2.23924l2.93572,-0.32619l0.0049,0.04414l0.11914,-0.05446c0.70767,-0.0006 1.41609,0.00278 2.12509,0.00998c0.98572,-0.56598 1.96974,-1.02116 2.78785,-1.34481c0,0 2.10003,-0.8077 2.90773,1.29232c0.02502,0.06504 0.04724,0.12885 0.06683,0.19143z" fill="#c0c0c0" stroke="none" stroke-width="0.5"/><path d="M236.87685,194.23559l3.11461,-18.10835l0.04449,0.19264l4.53844,17.91571z" fill="#ffffff" stroke="#ffffff" stroke-width="4.5"/></g></g></svg>