<svg version="1.1" xmlns="http://www.w3.org/2000/svg" xmlns:xlink="http://www.w3.org/1999/xlink" width="270.61114" height="202.0546" viewBox="0,0,270.61114,202.0546"><defs><linearGradient x1="239.12037" y1="98.20938" x2="239.12037" y2="157.11886" gradientUnits="userSpaceOnUse" id="color-1"><stop offset="0" stop-color="#2a96bd"/><stop offset="1" stop-color="#2a96bd" stop-opacity="0"/></linearGradient></defs><g transform="translate(-103.8148,-94.95937)"><g data-paper-data="{&quot;isPaintingLayer&quot;:true}" fill-rule="nonzero" stroke-linecap="butt" stroke-linejoin="miter" stroke-miterlimit="10" stroke-dasharray="" stroke-dashoffset="0" style="mix-blend-mode: normal"><path d="M107.06481,129.71715v-31.50778h264.11114v31.50778l-0.29039,27.4017l-29.54086,-27.4017z" fill="url(#color-1)" stroke="#1e6b87" stroke-width="6.5"/><text transform="translate(112.06279,110.26118) scale(0.27434,0.27434)" font-size="40" xml:space="preserve" fill="#ffffff" fill-rule="nonzero" stroke="none" stroke-width="1" stroke-linecap="butt" stroke-linejoin="miter" stroke-miterlimit="10" stroke-dasharray="" stroke-dashoffset="0" font-family="Sans Serif" font-weight="normal" text-anchor="start" style="mix-blend-mode: normal"><tspan x="0" dy="0">You really think that you can escape from</tspan><tspan x="0" dy="48px">me!?</tspan><tspan x="0" dy="48px"> </tspan></text><path d="M277.80241,240.96567l-54.73837,-63.46917l28.54694,-24.34923l67.93373,85.24089l4.93387,7.01165l-5.26027,5.34067l-5.50209,-6.93613l-6.5353,4.6349l-16.78766,-17.3363z" fill="#2a96bd" stroke="#1e6b87" stroke-width="2"/><path d="M243.10662,281.03361l-15.39757,-40.02077l-1.70342,-29.79847l5.39118,-9.77537l17.37153,0.27232l6.26507,8.14799l2.50481,29.44572l-8.49756,41.45626z" fill="#2a96bd" stroke="#1e6b87" stroke-width="2"/><path d="M216.22802,203.17769v-46.35536h47.54396v46.35536z" fill="#36c0f3" stroke="#1e6b87" stroke-width="2"/><path d="M222.07918,188.79116v-17.29238h10.89284v17.29238z" fill="#ffffff" stroke="#1e6b87" stroke-width="1.5"/><path d="M217.44972,178.03448v-0.40849h3.54017v0.40849z" fill="#ffffff" stroke="#1e6b87" stroke-width="1.5"/><path d="M210.95196,164.59253l0.13616,-10.3482l5.57986,-0.19172l-0.26899,-4.33101l48.81872,0.30353l0.06187,4.12565l5.85532,-0.17877l1.22545,10.62052h-42.20975l-0.18795,12.97548l0.11598,7.465l-9.18999,-0.08567l-1.0858,-7.32914l-9.25936,0.04574z" fill="#2a96bd" stroke="#1e6b87" stroke-width="2"/><path d="M244.85592,188.8291v-17.29238h10.89284v17.29238z" fill="#ffffff" stroke="#1e6b87" stroke-width="1.5"/><path d="M247.75324,184.69963v-9.61829h5.07932v9.61829z" fill="#bd2a2a" stroke="#942020" stroke-width="2"/><path d="M256.83804,178.07242v-0.40848h3.54018v0.40848z" fill="#ffffff" stroke="#1e6b87" stroke-width="1.5"/><path d="M235.09972,196.96213v-3.94179h8.88245v3.94179z" fill="#000000" stroke="none" stroke-width="NaN"/><path d="M243.24708,195.80264v-1.39122h3.74561v1.39122z" fill="#000000" stroke="none" stroke-width="0"/><path d="M231.96422,195.69906v-1.39122h3.74561v1.39122z" fill="#000000" stroke="none" stroke-width="0"/><path d="M217.68861,272.5719v-12.68175h14.02453v12.68175z" fill="#86dfff" stroke="#6cb2cc" stroke-width="2"/><path d="M251.96312,259.40607v-9.35741h10.3482v9.35741z" fill="#86dfff" stroke="#6cb2cc" stroke-width="2"/><path d="M233.81583,284.99237v-9.11116h10.07588v9.11116z" fill="#86dfff" stroke="#6cb2cc" stroke-width="2"/><path d="M226.01675,248.20414v-8.98804h9.93972v8.98804z" fill="#86dfff" stroke="#6cb2cc" stroke-width="2"/><path d="M246.40288,243.49473v-14.52861h16.06694v14.52861z" fill="#86dfff" stroke="#6cb2cc" stroke-width="2"/><path d="M195.63741,270.11933l16.87762,-61.01403l10.34088,3.52l-16.87762,61.01403z" fill="#2a96bd" stroke="#1e6b87" stroke-width="2"/><path d="M190.11908,282.40774l2.59133,-12.49527l16.52549,2.39625l-2.59133,12.49527l-1.67634,8.58352l-5.22566,-0.56718l1.03021,-8.86777l-2.88583,11.86439l-11.21933,-2.59404z" fill="#86dfff" stroke="#6cb2cc" stroke-width="2"/><path d="M277.30628,273.60139l-16.87761,-61.01403l10.34088,-3.52l16.87762,61.01403z" data-paper-data="{&quot;index&quot;:null}" fill="#2a96bd" stroke="#1e6b87" stroke-width="2"/><path d="M296.61696,293.18498l-11.21933,2.59404l-2.88583,-11.86439l1.03021,8.86777l-5.22566,0.56718l-1.67634,-8.58352l-2.59133,-12.49526l16.52549,-2.39625l2.59133,12.49526z" data-paper-data="{&quot;index&quot;:null}" fill="#86dfff" stroke="#6cb2cc" stroke-width="2"/><path d="M202.42304,209.36045v-8.98804h9.93972v8.98804z" fill="#86dfff" stroke="#6cb2cc" stroke-width="2"/><path d="M222.67302,224.30017v-8.98804h9.93972v8.98804z" fill="#86dfff" stroke="#6cb2cc" stroke-width="2"/><path d="M251.90959,216.90956v-8.98804h9.93972v8.98804z" fill="#86dfff" stroke="#6cb2cc" stroke-width="2"/><path d="M275.69973,227.21982v-8.98804h9.93972v8.98804z" fill="#86dfff" stroke="#6cb2cc" stroke-width="2"/></g></g></svg>