<svg version="1.1" xmlns="http://www.w3.org/2000/svg" xmlns:xlink="http://www.w3.org/1999/xlink" width="96.25944" height="101.81375" viewBox="0,0,96.25944,101.81375"><g transform="translate(-193.13976,-131.93493)"><g data-paper-data="{&quot;isPaintingLayer&quot;:true}" fill-rule="nonzero" stroke-linecap="butt" stroke-linejoin="miter" stroke-miterlimit="10" stroke-dasharray="" stroke-dashoffset="0" style="mix-blend-mode: normal"><path d="M262.14572,159.90195c0,16.80253 -10.29891,30.42367 -23.00327,30.42367c-12.70435,0 -23.00327,-13.62114 -23.00327,-30.42367c0,-16.80253 10.29891,-26.71347 23.00327,-26.71347c12.70435,0 23.00327,9.91094 23.00327,26.71347z" fill="#cbcb00" stroke="#a38400" stroke-width="2"/><path d="M264.43637,187.40227c0,16.62609 -8.97267,34.06175 -24.9229,34.06175c-15.95023,0 -23.68617,-19.66178 -23.68617,-36.28787c0,-16.62609 8.23063,-17.9842 24.18086,-17.9842c15.95023,0 24.42821,3.58423 24.42821,20.21032z" fill="#5cc600" stroke="#4ca300" stroke-width="2"/><path d="M235.67959,149.8844c0,4.30309 -3.54371,7.79143 -7.9151,7.79143c-4.37139,0 -7.9151,-3.48834 -7.9151,-7.79143c0,-4.30309 3.54371,-7.79143 7.9151,-7.79143c4.37139,0 7.9151,3.48834 7.9151,7.79143z" fill="#000000" stroke="none" stroke-width="0"/><path d="M259.97265,149.61352c0,4.30309 -3.54371,7.79143 -7.9151,7.79143c-4.37139,0 -7.9151,-3.48834 -7.9151,-7.79143c0,-4.30309 3.54371,-7.79143 7.9151,-7.79143c4.37139,0 7.9151,3.48834 7.9151,7.79143z" fill="#000000" stroke="none" stroke-width="0"/><path d="M228.15745,146.41131c0,-1.51878 1.23122,-2.75 2.75,-2.75c1.51878,0 2.75,1.23122 2.75,2.75c0,1.51878 -1.23122,2.75 -2.75,2.75c-1.51878,0 -2.75,-1.23122 -2.75,-2.75z" fill="#ffffff" stroke="none" stroke-width="0.5"/><path d="M230.95858,150.4589c2.80718,2.80718 0.21753,5.87789 -3.02983,5.15625c-2.14974,-0.47772 -4.66602,-0.59489 -5.61081,-2.69117c-0.18142,-0.36694 -0.28337,-0.78017 -0.28337,-1.21722c0,-1.51878 1.23122,-2.75 2.75,-2.75c0.40357,0 0.78684,0.08693 1.1321,0.24309c1.70954,0.30559 4.48304,0.70016 5.04192,1.25904z" fill="#ffffff" stroke="none" stroke-width="0.5"/><path d="M252.97996,146.74227c0,-1.51878 1.23122,-2.75 2.75,-2.75c1.51878,0 2.75,1.23122 2.75,2.75c0,1.51878 -1.23122,2.75 -2.75,2.75c-1.51878,0 -2.75,-1.23122 -2.75,-2.75z" fill="#ffffff" stroke="none" stroke-width="0.5"/><path d="M245.86418,151.04484c0.39768,-0.69595 0.53426,-1.65477 1.0894,-2.1922c0.08466,-0.08196 0.17906,-0.15412 0.2856,-0.21405c2.68391,-1.50973 10.67063,1.58426 9.61031,4.76523c-0.29213,0.87639 -1.23909,1.43482 -2.06536,1.84796c-0.38291,0.19146 -7.14714,-1.10451 -7.56567,-1.83694z" fill="#ffffff" stroke="none" stroke-width="0.5"/><path d="M239.26386,169.22589l-4.54358,-7.95127h9.22915l-4.54358,7.95127z" fill="#ff9f09" stroke="#c57d08" stroke-width="2"/><g data-paper-data="{&quot;index&quot;:null}"><path d="M241.56441,156.63043c1.69055,0 3.06101,1.30817 3.06101,2.92187c0,1.6137 -1.37046,2.92187 -3.06101,2.92187c-1.69055,0 -3.06101,-1.30817 -3.06101,-2.92187c0,-1.6137 1.37046,-2.92187 3.06101,-2.92187z" fill="#00a9ff" stroke="#0081c1" stroke-width="1.5"/><path d="M240.47873,161.60774c-0.58044,0 -1.05099,-0.47054 -1.05099,-1.05099c0,-0.58044 0.47054,-1.05099 1.05099,-1.05099c0.58044,0 1.05099,0.47054 1.05099,1.05099c0,0.58044 -0.47054,1.05099 -1.05099,1.05099z" fill="#003e5d" stroke="none" stroke-width="0.5"/></g><g><path d="M238.89213,159.52668c0,1.6137 -1.37046,2.92187 -3.06101,2.92187c-1.69055,0 -3.06101,-1.30817 -3.06101,-2.92187c0,-1.6137 1.37046,-2.92187 3.06101,-2.92187c1.69055,0 3.06101,1.30817 3.06101,2.92187z" fill="#00a9ff" stroke="#0081c1" stroke-width="1.5"/><path d="M235.8658,160.53114c0,-0.58044 0.47054,-1.05099 1.05099,-1.05099c0.58044,0 1.05099,0.47054 1.05099,1.05099c0,0.58044 -0.47054,1.05099 -1.05099,1.05099c-0.58044,0 -1.05099,-0.47054 -1.05099,-1.05099z" fill="#003e5d" stroke="none" stroke-width="0.5"/></g><path d="M222.65139,167.14225c-1.75,0 -1.75,-1.75 -1.75,-1.75l0.04482,-0.17444c-0.14199,-0.61528 -0.28397,-1.23055 -0.42596,-1.84583c0,0 -0.3935,-1.70518 1.31168,-2.09869c1.70518,-0.3935 2.09869,1.31168 2.09869,1.31168c0.14199,0.61528 0.28397,1.23055 0.42596,1.84583l0.04482,0.96145c0,0 0,1.75 -1.75,1.75z" fill="#000000" stroke="none" stroke-width="0.5"/><path d="M228.29116,162.11789c0.28777,0.25824 0.51184,0.66036 0.51184,1.28654c0,1.75 -1.75,1.75 -1.75,1.75l-1.77534,-1.12179c-0.23664,-0.61528 -0.47329,-1.23055 -0.70993,-1.84583c0,0 -0.62821,-1.63335 1.00514,-2.26157c1.63335,-0.62821 2.26157,1.00514 2.26157,1.00514c0.15224,0.39583 0.30449,0.79167 0.45673,1.1875z" fill="#000000" stroke="none" stroke-width="0.5"/><path d="M251.29652,165.79502c-0.64011,-0.96016 -0.22498,-1.70927 0.13205,-2.10817c0,-0.42544 0,-0.85089 0,-1.27633c0,0 0,-1.75 1.75,-1.75c1.75,0 1.75,1.75 1.75,1.75c0,0.70993 0,1.41987 0,2.1298l-1.20524,1.74006c0,0 -1.45609,0.97073 -2.42681,-0.48536z" fill="#000000" stroke="none" stroke-width="0.5"/><path d="M257.43818,167.42621c-1.75,0 -1.75,-1.75 -1.75,-1.75c0,-0.61528 0,-1.51453 0,-2.1298c0,0 0,-1.75 1.75,-1.75c1.75,0 1.75,1.75 1.75,1.75c0,0.61528 0,1.23055 0,1.84583v0.28397c0,0 0,1.75 -1.75,1.75z" fill="#000000" stroke="none" stroke-width="0.5"/><path d="M225.24464,159.11268c0.17413,1.74132 -1.56718,1.91545 -1.56718,1.91545l-1.46932,0.14622l-1.9698,0.1407c-0.04707,0.0038 -0.09466,0.00573 -0.1427,0.00573c-0.9665,0 -1.75,-0.7835 -1.75,-1.75c0,-0.55122 0.25485,-1.04292 0.65316,-1.36369l1.55053,-1.26861c0,0 1.35443,-1.10817 2.46259,0.24626c0.10222,0.12494 0.18349,0.24778 0.2468,0.36784l0.07048,-0.00708c0,0 1.74132,-0.17413 1.91545,1.56718z" fill="#0084ff" stroke="none" stroke-width="0.5"/><path d="M260.4244,160.80233c-0.37963,1.70833 -2.08796,1.3287 -2.08796,1.3287l-1.45165,-0.33211c-0.94133,-0.57218 -2.42018,-0.69164 -2.82399,-1.71654c-0.1195,-0.30329 0.0684,-0.54579 0.35854,-0.76808c-0.47569,-0.19547 -1.00294,-0.62879 -1.00294,-1.58935c0,-1.75 1.75,-1.75 1.75,-1.75h1.98782c0.9665,0 1.75,0.7835 1.75,1.75c0,0.32741 -0.08991,0.63382 -0.2464,0.89589l0.43788,0.09353c0,0 1.70833,0.37963 1.3287,2.08796z" fill="#0084ff" stroke="none" stroke-width="0.5"/><g><path d="M199.65346,159.35454c-5.64096,-12.98167 -7.21124,-24.81014 -3.50733,-26.41961c3.70391,-1.60947 11.27943,7.60953 16.92038,20.5912c5.64096,12.98167 7.21124,24.81014 3.50733,26.41961c-3.70391,1.60947 -11.27943,-7.60953 -16.92038,-20.5912z" fill="#cbcb00" stroke="#a38400" stroke-width="2"/><path d="M206.436,172.25392c-1.70248,-0.40507 -1.29741,-2.10754 -1.29741,-2.10754l0.77003,-2.18956c1.64807,-1.62256 1.73345,-2.22613 4.3799,-2.3959c0.38569,-0.02475 0.74831,0.79861 1.02945,0.53341c0.73472,-0.69307 0.32141,-2.50274 1.30437,-2.73497c2.65396,-0.62701 3.77601,2.66583 4.54998,4.13889c0,0 0.79048,1.5613 -0.77082,2.35178c-1.5613,0.79048 -2.35178,-0.77082 -2.35178,-0.77082c-0.14,-0.29139 -0.31836,-0.57021 -0.48026,-0.85443c-0.05646,0.35527 -0.18317,0.66937 -0.45875,0.87555c-2.08443,1.55944 -2.76092,-0.90134 -4.6799,1.28311l0.11272,0.57306c0,0 -0.40507,1.70248 -2.10754,1.29741z" fill="#000000" stroke="none" stroke-width="0.5"/><path d="M201.14474,160.61384c-1.743,-0.1563 -1.58671,-1.8993 -1.58671,-1.8993l0.20904,-2.05923c1.37372,-2.65434 3.77861,-4.77667 7.26906,-4.6111c0.58257,0.02763 0.56384,1.25472 1.14283,1.32489c0.59561,0.07218 0.89462,-1.05107 1.49285,-1.00549c3.76784,0.28713 3.29377,1.32213 4.02214,4.02814c0,0 0.31867,1.72074 -1.40208,2.03941c-1.72074,0.31867 -2.03941,-1.40208 -2.03941,-1.40208c0.06049,-2.56104 -0.71532,0.00362 -2.70466,-0.21739c-0.61058,-0.06782 -0.64628,-1.28154 -1.25704,-1.3478c-0.82972,-0.09001 -2.95872,1.37918 -3.13798,2.07847l-0.10874,1.48473c0,0 -0.1563,1.743 -1.8993,1.58671z" fill="#000000" stroke="none" stroke-width="0.5"/><path d="M197.62786,150.17817c-1.74771,0.08947 -1.83718,-1.65825 -1.83718,-1.65825l0.01319,-1.81602c0.36496,-1.03434 0.41907,-2.2391 1.09487,-3.10301c2.32687,-2.97453 6.98211,-1.40988 9.99658,-1.25259c0,0 1.74747,0.09398 1.65349,1.84146c-0.09398,1.74747 -1.84146,1.65349 -1.84146,1.65349c-3.22867,-0.17835 -6.65494,-1.96047 -7.55847,1.89065l0.13722,0.60708c0,0 0.08947,1.74771 -1.65825,1.83718z" fill="#000000" stroke="none" stroke-width="0.5"/><path d="M195.25317,141.0286c-1.74174,-0.1698 -1.57195,-1.91154 -1.57195,-1.91154l0.65647,-2.53282c0.93705,-0.9208 3.14972,-3.23943 4.23984,-3.43435c0.92605,-0.16558 1.7488,0.69405 2.62319,1.04107c0,0 1.54726,0.81763 0.72962,2.36488c-0.81763,1.54726 -2.36488,0.72962 -2.36488,0.72962c-1.03521,-1.15044 -1.82005,0.85547 -2.77354,1.79412l0.37278,0.37708c0,0 -0.1698,1.74174 -1.91154,1.57195z" fill="#000000" stroke="none" stroke-width="0.5"/><path d="M211.30153,177.42055c-1.5633,-0.78653 -0.77676,-2.34981 -0.77676,-2.34981l0.61161,-1.18377c2.21074,-2.837 3.80392,-2.89017 7.05684,-1.49459c0,0 1.59209,0.72644 0.86566,2.31854c-0.72644,1.59209 -2.31854,0.86566 -2.31854,0.86566c-1.44566,-0.72353 -1.97214,-1.32049 -2.70376,0.26971l-0.38521,0.79751c0,0 -0.78653,1.5633 -2.34981,0.77676z" fill="#000000" stroke="none" stroke-width="0.5"/></g><g data-paper-data="{&quot;index&quot;:null}"><path d="M259.81719,178.03284c-3.42121,-2.14584 -0.09775,-13.60591 7.42315,-25.59676c7.5209,-11.99084 16.39123,-19.97179 19.81244,-17.82594c3.42122,2.14585 0.09775,13.60591 -7.42315,25.59676c-7.5209,11.99084 -16.39123,19.97179 -19.81244,17.82593z" fill="#cbcb00" stroke="#a38400" stroke-width="2"/><path d="M269.10279,170.34716l0.19725,-0.54972c-1.57032,-2.44713 -2.6076,-0.11536 -4.43505,-1.9693c-0.24161,-0.24511 -0.31987,-0.57465 -0.3225,-0.93436c-0.20263,0.25677 -0.42072,0.50575 -0.60277,0.77289c0,0 -1.01531,1.42535 -2.44067,0.41003c-1.42536,-1.01532 -0.41004,-2.44067 -0.41004,-2.44067c0.98579,-1.34059 2.58817,-4.42833 5.11834,-3.41106c0.93713,0.37678 0.25754,2.10416 0.88022,2.89943c0.23826,0.3043 0.72007,-0.45548 1.0977,-0.37328c2.59121,0.56408 2.58527,1.17362 3.97184,3.02462l0.43354,2.28016c0,0 0.14562,1.74393 -1.59831,1.88955c-1.74393,0.14562 -1.88955,-1.59831 -1.88955,-1.59831z" fill="#000000" stroke="none" stroke-width="0.5"/><path d="M276.3263,159.37558l0.11476,-1.48429c-0.07254,-0.71825 -1.95759,-2.48962 -2.79143,-2.52485c-0.61379,-0.02592 -0.8308,1.16875 -1.44465,1.14441c-2,-0.07932 -2.38312,-2.73123 -2.70673,-0.19c0,0 -0.5727,1.65365 -2.22633,1.08095c-1.65363,-0.5727 -1.08095,-2.22633 -1.08095,-2.22633c1.12529,-2.56647 0.81151,-3.66077 4.57987,-3.38058c0.59832,0.04449 0.7258,1.19984 1.3255,1.21765c0.58297,0.01731 0.74816,-1.19876 1.3283,-1.13886c3.47592,0.35885 5.53596,2.81732 6.4968,5.6474l-0.1016,2.06732c0,0 -0.10642,1.74675 -1.85319,1.64035c-1.74676,-0.10641 -1.64034,-1.85318 -1.64034,-1.85318z" fill="#000000" stroke="none" stroke-width="0.5"/><path d="M281.64172,149.37246l0.22656,-0.57969c-0.31678,-3.94299 -3.97125,-2.69391 -7.19023,-3.00095c0,0 -1.74185,-0.1687 -1.57315,-1.91055c0.1687,-1.74185 1.91055,-1.57315 1.91055,-1.57315c3.00404,0.29578 7.84107,-0.55429 9.69638,2.73508c0.53884,0.95535 0.41198,2.15463 0.61797,3.23194l-0.25885,1.79753c0,0 -0.35011,1.71461 -2.06473,1.3645c-1.71462,-0.35011 -1.3645,-2.06473 -1.3645,-2.06473z" fill="#000000" stroke="none" stroke-width="0.5"/><path d="M285.0693,140.90588l0.42504,-0.31702c-0.80221,-1.07082 -1.2779,-3.17162 -2.47368,-2.18915c0,0 -1.65223,0.57677 -2.22899,-1.07545c-0.57677,-1.65223 1.07546,-2.22899 1.07546,-2.22899c0.91649,-0.2122 1.85865,-0.93897 2.74948,-0.63662c1.04864,0.35592 2.88925,2.97969 3.67789,4.0304l0.26988,2.60256c0,0 -0.09288,1.74753 -1.84041,1.65465c-1.74753,-0.09288 -1.65466,-1.84041 -1.65466,-1.84041z" fill="#000000" stroke="none" stroke-width="0.5"/><path d="M263.20109,175.20565l-0.26147,-0.84619c-0.48532,-1.68181 -1.09522,-1.17041 -2.63291,-0.67145c0,0 -1.68292,0.4799 -2.16281,-1.20301c-0.47991,-1.68291 1.20301,-2.16281 1.20301,-2.16281c3.42519,-0.89284 4.99245,-0.60176 6.75355,2.53424l0.42749,1.26199c0,0 0.54361,1.66342 -1.11981,2.20704c-1.66342,0.54361 -2.20704,-1.11981 -2.20704,-1.11981z" fill="#000000" stroke="none" stroke-width="0.5"/></g><path d="M233.32292,202.66433c0,4.56214 -4.32274,8.26048 -9.65511,8.26048c-5.33237,0 -9.65511,-3.69834 -9.65511,-8.26048c0,-4.56214 4.32274,-8.26048 9.65511,-8.26048c5.33237,0 9.65511,3.69834 9.65511,8.26048z" fill="#ff7474" stroke="#bb5454" stroke-width="1.5"/><path d="M263.41238,226.01597c-0.6174,4.52017 -5.40088,7.59948 -10.68419,6.87784c-5.28331,-0.72164 -9.06578,-4.97096 -8.44838,-9.49113c0.6174,-4.52017 5.40088,-7.59948 10.68419,-6.87784c5.28331,0.72164 9.06578,4.97096 8.44838,9.49113z" fill="#ff7474" stroke="#bb5454" stroke-width="1.5"/></g></g></svg>