<svg version="1.1" xmlns="http://www.w3.org/2000/svg" xmlns:xlink="http://www.w3.org/1999/xlink" width="140.39168" height="148.299" viewBox="0,0,140.39168,148.299"><g transform="translate(-185.38503,-148.71497)"><g data-paper-data="{&quot;isPaintingLayer&quot;:true}" fill-rule="nonzero" stroke-linecap="butt" stroke-linejoin="miter" stroke-miterlimit="10" stroke-dasharray="" stroke-dashoffset="0" style="mix-blend-mode: normal"><path d="M277.80242,240.96568l-54.73837,-63.46917l28.54694,-24.34923l67.93373,85.24089l4.93387,7.01165l-5.26027,5.34067l-5.50209,-6.93613l-6.5353,4.6349l-16.78766,-17.3363z" fill="#2a96bd" stroke="#1e6b87" stroke-width="2"/><path d="M243.10663,281.03362l-15.39757,-40.02077l-1.70342,-29.79847l5.39118,-9.77537l17.37153,0.27232l6.26507,8.14799l2.50481,29.44572l-8.49756,41.45626z" fill="#2a96bd" stroke="#1e6b87" stroke-width="2"/><path d="M216.22803,203.1777v-46.35536h47.54396v46.35536z" fill="#36c0f3" stroke="#1e6b87" stroke-width="2"/><path d="M222.07919,188.79117v-17.29238h10.89284v17.29238z" fill="#ffffff" stroke="#1e6b87" stroke-width="1.5"/><path d="M217.44973,178.03449v-0.40849h3.54017v0.40849z" fill="#ffffff" stroke="#1e6b87" stroke-width="1.5"/><path d="M210.95197,164.59254l0.13616,-10.3482l5.57986,-0.19172l-0.26899,-4.33101l48.81872,0.30353l0.06187,4.12565l5.85532,-0.17877l1.22545,10.62052h-42.20975l-0.18795,12.97548l0.11598,7.465l-9.18999,-0.08567l-1.0858,-7.32914l-9.25936,0.04574z" fill="#2a96bd" stroke="#1e6b87" stroke-width="2"/><path d="M244.85593,188.82911v-17.29238h10.89284v17.29238z" fill="#ffffff" stroke="#1e6b87" stroke-width="1.5"/><path d="M247.75325,184.69964v-9.61829h5.07932v9.61829z" fill="#bd2a2a" stroke="#942020" stroke-width="2"/><path d="M256.83805,178.07243v-0.40848h3.54018v0.40848z" fill="#ffffff" stroke="#1e6b87" stroke-width="1.5"/><path d="M235.09973,196.96214v-3.94179h8.88245v3.94179z" fill="#000000" stroke="none" stroke-width="NaN"/><path d="M243.24709,195.80265v-1.39122h3.74561v1.39122z" fill="#000000" stroke="none" stroke-width="0"/><path d="M231.96423,195.69907v-1.39122h3.74561v1.39122z" fill="#000000" stroke="none" stroke-width="0"/><path d="M217.68862,272.57191v-12.68175h14.02453v12.68175z" fill="#86dfff" stroke="#6cb2cc" stroke-width="2"/><path d="M251.96313,259.40608v-9.35741h10.3482v9.35741z" fill="#86dfff" stroke="#6cb2cc" stroke-width="2"/><path d="M233.81584,284.99237v-9.11116h10.07588v9.11116z" fill="#86dfff" stroke="#6cb2cc" stroke-width="2"/><path d="M226.01676,248.20415v-8.98804h9.93972v8.98804z" fill="#86dfff" stroke="#6cb2cc" stroke-width="2"/><path d="M246.40289,243.49474v-14.52861h16.06694v14.52861z" fill="#86dfff" stroke="#6cb2cc" stroke-width="2"/><path d="M195.63742,270.11933l16.87762,-61.01403l10.34088,3.52l-16.87762,61.01403z" fill="#2a96bd" stroke="#1e6b87" stroke-width="2"/><path d="M190.11909,282.40774l2.59133,-12.49527l16.52549,2.39625l-2.59133,12.49527l-1.67634,8.58352l-5.22566,-0.56718l1.03021,-8.86777l-2.88583,11.86439l-11.21933,-2.59404z" fill="#86dfff" stroke="#6cb2cc" stroke-width="2"/><path d="M277.30629,273.6014l-16.87761,-61.01403l10.34088,-3.52l16.87762,61.01403z" data-paper-data="{&quot;index&quot;:null}" fill="#2a96bd" stroke="#1e6b87" stroke-width="2"/><path d="M296.61697,293.18499l-11.21933,2.59404l-2.88583,-11.86439l1.03021,8.86777l-5.22566,0.56718l-1.67634,-8.58352l-2.59133,-12.49526l16.52549,-2.39625l2.59133,12.49526z" data-paper-data="{&quot;index&quot;:null}" fill="#86dfff" stroke="#6cb2cc" stroke-width="2"/><path d="M202.42305,209.36046v-8.98804h9.93972v8.98804z" fill="#86dfff" stroke="#6cb2cc" stroke-width="2"/><path d="M222.67303,224.30018v-8.98804h9.93972v8.98804z" fill="#86dfff" stroke="#6cb2cc" stroke-width="2"/><path d="M251.9096,216.90957v-8.98804h9.93972v8.98804z" fill="#86dfff" stroke="#6cb2cc" stroke-width="2"/><path d="M275.69973,227.21983v-8.98804h9.93972v8.98804z" fill="#86dfff" stroke="#6cb2cc" stroke-width="2"/></g></g></svg>