<svg version="1.1" xmlns="http://www.w3.org/2000/svg" xmlns:xlink="http://www.w3.org/1999/xlink" width="120.01014" height="104.58041" viewBox="0,0,120.01014,104.58041"><g transform="translate(-189.10532,-123.77383)"><g data-paper-data="{&quot;isPaintingLayer&quot;:true}" fill-rule="nonzero" stroke-linejoin="miter" stroke-miterlimit="10" stroke-dasharray="" stroke-dashoffset="0" style="mix-blend-mode: normal"><path d="M255.29453,211.65388c0,1.57268 0.03045,3.42403 -0.25921,4.9154c-0.30853,1.58849 -0.94909,2.76857 -1.32277,2.76857c-0.33938,0 -0.84534,-0.76691 -1.12326,-1.91604c-0.31541,-1.30413 -0.38156,-3.10056 -0.38156,-4.82704c0,-1.34728 -0.04662,-5.35088 0.13117,-7.0057c0.25079,-2.33429 0.79534,-2.16803 1.21932,-2.16803c0.36783,0 1.07979,0.0303 1.42572,1.72036c0.33546,1.63895 0.31061,4.91352 0.31061,6.51248z" fill="#ffbf68" stroke="#dea75b" stroke-width="1.5" stroke-linecap="butt"/><path d="M260.83441,218.43679c0,1.82342 0.03531,3.96995 -0.30054,5.6991c-0.35772,1.84175 -1.10041,3.20999 -1.53368,3.20999c-0.39349,0 -0.98011,-0.88918 -1.30235,-2.22153c-0.3657,-1.51206 -0.4424,-3.59491 -0.4424,-5.59665c0,-1.56209 -0.05406,-6.20401 0.15208,-8.12267c0.29077,-2.70646 0.92215,-2.51369 1.41372,-2.51369c0.42648,0 1.25195,0.03513 1.65303,1.99465c0.38895,1.90026 0.36013,5.69692 0.36013,7.55081z" fill="#ffbf68" stroke="#dea75b" stroke-width="1.5" stroke-linecap="butt"/><path d="M226.11689,211.11015c0,1.82342 0.03531,3.96995 -0.30054,5.6991c-0.35772,1.84175 -1.10041,3.20999 -1.53368,3.20999c-0.3935,0 -0.98011,-0.88918 -1.30235,-2.22153c-0.36569,-1.51206 -0.4424,-3.59491 -0.4424,-5.59665c0,-1.56209 -0.05406,-6.20401 0.15208,-8.12267c0.29077,-2.70646 0.92215,-2.51369 1.41372,-2.51369c0.42648,0 1.25195,0.03513 1.65303,1.99465c0.38895,1.90026 0.36013,5.69692 0.36013,7.55081z" fill="#ffbf68" stroke="#dea75b" stroke-width="1.5" stroke-linecap="butt"/><path d="M256.311,200.64806l21.85242,-39.69838l24.30558,18.30674l2.32351,14.03368l-39.78239,14.80429z" fill="#774220" stroke="#532e16" stroke-width="2.5" stroke-linecap="butt"/><path d="M220.79963,218.69515c0,1.82342 0.03531,3.96995 -0.30054,5.6991c-0.35772,1.84175 -1.10041,3.20999 -1.53368,3.20999c-0.39349,0 -0.98011,-0.88918 -1.30235,-2.22153c-0.36569,-1.51206 -0.4424,-3.59491 -0.4424,-5.59665c0,-1.56209 -0.05406,-6.20401 0.15208,-8.12267c0.29077,-2.70646 0.92215,-2.51369 1.41372,-2.51369c0.42648,0 1.25195,0.03513 1.65303,1.99465c0.38895,1.90026 0.36013,5.69692 0.36013,7.55081z" fill="#ffbf68" stroke="#dea75b" stroke-width="1.5" stroke-linecap="butt"/><path d="M213.93959,209.54901c0,0 -7.26951,-14.62574 -7.26951,-24.85362c0,-9.77392 -0.03257,-25.1555 8.96573,-38.60606c8.9983,-13.45057 12.51892,-11.27759 19.86727,-11.49257c8.91346,-0.26076 22.33112,1.03397 28.61883,10.76561c6.28771,9.73164 10.17731,29.26952 10.17731,40.05997c0,8.84089 -7.99646,24.6113 -7.99646,24.6113c0,0 -18.84963,2.66548 -28.1218,2.66548c-8.10568,0 -24.24136,-3.15012 -24.24136,-3.15012z" fill="#774220" stroke="#532e16" stroke-width="2.5" stroke-linecap="butt"/><path d="M230.81424,181.93693c0,6.15998 -4.93625,11.15363 -11.02542,11.15363c-6.08918,0 -11.02542,-4.99366 -11.02542,-11.15363c0,-6.15998 4.93624,-11.15362 11.02542,-11.15362c6.08918,0 11.02542,4.99365 11.02542,11.15362z" fill="#ffffff" stroke="#000000" stroke-width="1.5" stroke-linecap="butt"/><path d="M226.02552,176.36816c0,3.24296 -2.73136,5.87189 -6.10066,5.87189c-3.3693,0 -6.10067,-2.62893 -6.10067,-5.87189c0,-3.24296 2.73136,-5.87189 6.10067,-5.87189c3.3693,0 6.10066,2.62893 6.10066,5.87189z" fill="#000000" stroke="#000000" stroke-width="0" stroke-linecap="butt"/><path d="M220.48904,175.32525c-3.133,-1.8798 3.31794,-4.13717 3.43607,-1.15582c0.09444,2.3836 -3.74183,2.5632 -3.42863,1.15379z" fill="#ffffff" stroke="none" stroke-width="0.5" stroke-linecap="butt"/><path d="M220.18518,177.00904c0.52215,0.52215 0.52215,0.8485 0,1.37065c-0.88248,0.88248 -3.66025,0.08278 -4.61439,-0.4897c-0.281,-0.1686 -0.83689,-1.1616 -0.3698,-1.42851c0.13624,-0.23085 0.38754,-0.38571 0.675,-0.38571c0.17063,0 0.32852,0.05456 0.45716,0.14719c1.24408,0.33228 3.70487,0.63893 3.85203,0.78608z" fill="#ffffff" stroke="none" stroke-width="0.5" stroke-linecap="butt"/><path d="M225.66748,179.72713c-0.01845,1.14964 -2.87949,2.83824 -3.6664,1.46115c-0.39094,-0.23072 -0.6532,-0.65628 -0.6532,-1.14309c0,-0.73254 0.59384,-1.32638 1.32638,-1.32638c0.19242,0 0.37528,0.04098 0.54031,0.11468c1.18298,-0.4647 2.47594,-0.54146 2.4529,0.89364z" fill="#ffffff" stroke="none" stroke-width="0.5" stroke-linecap="butt"/><path d="M271.27281,182.40154c0,6.15998 -4.93625,11.15363 -11.02542,11.15363c-6.08918,0 -11.02542,-4.99365 -11.02542,-11.15363c0,-6.15998 4.93625,-11.15363 11.02542,-11.15363c6.08918,0 11.02542,4.99365 11.02542,11.15363z" fill="#ffffff" stroke="#000000" stroke-width="1.5" stroke-linecap="butt"/><path d="M266.56136,177.79215c0,3.42897 -2.88803,6.20869 -6.45059,6.20869c-3.56257,0 -6.4506,-2.77972 -6.4506,-6.20869c0,-3.42897 2.88803,-6.20869 6.4506,-6.20869c3.56257,0 6.45059,2.77972 6.45059,6.20869z" fill="#000000" stroke="#000000" stroke-width="0" stroke-linecap="butt"/><path d="M261.65741,175.42945c-3.19882,-1.91929 3.38764,-4.22408 3.50825,-1.18011c0.09643,2.43368 -3.82044,2.61705 -3.50066,1.17803z" fill="#ffffff" stroke="none" stroke-width="0.5" stroke-linecap="butt"/><path d="M262.84282,177.75015c0.87038,0.87038 0.87038,1.41438 0,2.28476c-1.47102,1.47102 -6.10132,0.13799 -7.69177,-0.81628c-0.4684,-0.28104 -1.39503,-1.93628 -0.61642,-2.3812c0.2271,-0.38481 0.64599,-0.64296 1.12517,-0.64296c0.28442,0 0.5476,0.09095 0.76205,0.24535c2.07378,0.55388 6.1757,1.06504 6.42099,1.31033z" fill="#ffffff" stroke="none" stroke-width="0.5" stroke-linecap="butt"/><path d="M267.03737,182.56164c-0.02087,1.30013 -3.25641,3.20976 -4.14632,1.65241c-0.44211,-0.26092 -0.7387,-0.74219 -0.7387,-1.29273c0,-0.82843 0.67158,-1.5 1.5,-1.5c0.21761,0 0.4244,0.04633 0.61104,0.12968c1.33783,-0.52553 2.80003,-0.61233 2.77398,1.01063z" fill="#ffffff" stroke="none" stroke-width="0.5" stroke-linecap="butt"/><path d="M247.10731,185.965c0,2.00386 -2.80588,3.62832 -6.2671,3.62832c-3.46122,0 -6.2671,-1.62446 -6.2671,-3.62832c0,-2.00386 2.80588,-3.62832 6.2671,-3.62832c3.46122,0 6.2671,1.62446 6.2671,3.62832z" fill="#0a0a0a" stroke="none" stroke-width="0" stroke-linecap="butt"/><path d="M240.65718,188.05311l-0.1367,7.58699c0,0 -2.18558,0.62414 -3.42494,0.7243c-1.30604,0.10554 -4.51962,-1.13711 -4.51962,-1.13711" fill="none" stroke="#0a0a0a" stroke-width="2" stroke-linecap="round"/><path d="M248.32613,195.30975c0,0 -2.27637,1.51126 -3.46388,1.52483c-1.1984,0.01369 -3.69414,-1.1132 -3.69414,-1.1132l0.14876,-6.43134" fill="none" stroke="#0a0a0a" stroke-width="2" stroke-linecap="round"/><path d="M210.16668,170.40775l1.88889,-2.22222l18.88889,-0.77778l-2.66667,3z" data-paper-data="{&quot;index&quot;:null}" fill="#0a0a0a" stroke="none" stroke-width="0" stroke-linecap="butt"/><path d="M251.50001,170.96332l-2.66666,-3l18.88889,0.77778l1.88889,2.22222z" data-paper-data="{&quot;index&quot;:null}" fill="#0a0a0a" stroke="none" stroke-width="0" stroke-linecap="butt"/><path d="M205.85989,131.38165c2.28246,0.51874 14.62438,3.22359 16.74278,4.72841c2.18446,1.55174 -1.78794,3.07197 -3.68045,4.06254c-1.1174,0.58486 -2.85602,1.78002 -6.35349,1.75018c-2.47943,-0.02115 -8.16372,-1.45526 -10.08695,-1.89236c-2.4645,-0.56011 -4.98525,-1.33483 -6.63893,-2.67283c-1.45715,-1.17899 -2.21834,-2.89543 -1.9946,-3.87989c0.24636,-1.08398 2.35321,-2.55922 4.82413,-2.93884c2.31986,-0.35641 4.94254,0.33256 7.1875,0.84278z" data-paper-data="{&quot;index&quot;:null}" fill="#774220" stroke="#532e16" stroke-width="2" stroke-linecap="butt"/><path d="M280.67191,144.96395c-2.53567,1.12425 -7.8395,2.25559 -11.03058,2.5327c-3.29059,0.28575 -4.59503,-1.55054 -5.24415,-2.51025c-0.74818,-1.1062 -1.97283,-2.41011 1.28639,-4.70571c2.31052,-1.6274 8.74181,-4.32075 10.87837,-5.26804c2.7379,-1.21391 5.70346,-2.3044 8.32819,-2.39842c2.31278,-0.08285 4.42181,0.69802 5.02072,1.5835c0.65945,0.975 0.68526,4.08234 -1.28934,6.00421c-1.85388,1.80438 -5.45558,3.65625 -7.94958,4.76203z" data-paper-data="{&quot;index&quot;:null}" fill="#774220" stroke="#532e16" stroke-width="2" stroke-linecap="butt"/><path d="M220.54137,152.67918c-1.80405,0.77316 -5.56896,4.35659 -7.4456,3.25071c-0.77735,-0.45808 -2.58118,-1.72836 -2.72853,-2.61484c-0.54427,-3.27441 2.67195,-10.42782 6.34128,-12.03793c0.16295,-0.71924 0.37511,-1.40216 0.62214,-2.01364c0.09726,-2.76273 1.47788,-5.36632 3.70423,-7.02622c0.55234,-0.41181 2.84886,-0.47621 3.10703,-0.96311c0.62294,-1.17487 0.4883,-1.93663 1.17407,-2.83414c3.48704,-4.56365 10.09485,-0.66863 14.49112,-1.99314c2.58863,-0.7799 3.39524,-2.48805 6.99321,-1.50679c1.15312,0.31449 1.46715,2.20073 2.06295,3.09443h1.97031c1.05307,-0.70205 3.70641,0.88164 4.86928,1.36331c3.61481,1.4973 7.00325,5.47141 6.89403,9.45232c0.96832,0.86889 1.76827,1.89079 2.23149,3.03751c4.14673,2.71684 6.01895,10.83495 1.82845,13.22952c-2.83419,1.61954 -3.84029,-1.62591 -5.2663,-2.4708c-0.99368,-0.58874 -2.31455,0.05858 -3.4578,0.2228c-3.66124,0.52591 -4.19547,2.41617 -7.00065,3.11599c-4.63935,1.15739 -13.74147,0.27519 -15.24679,0.26821c-1.33113,-0.00617 -2.68878,-0.55456 -4.01758,-0.49923c-1.80192,0.07503 -2.23998,2.83274 -4.75533,1.80124c-3.54017,-1.45176 -1.95661,-6.27493 -5.32129,-5.31359z" fill="#8e2626" stroke="none" stroke-width="0.5" stroke-linecap="butt"/><path d="M294.10076,132.17858c3.47759,3.88671 -3.11432,12.05565 -6.06923,13.8286c-1.39427,0.83656 -3.65709,0.75458 -5.19747,0.75458c-4.5359,0 -9.06964,-3.72052 -8.18656,-8.53549c0.07026,-0.38308 0.12673,-0.97111 0.21175,-1.63879c0.00563,-0.63044 0.11273,-1.23666 0.30574,-1.80311c0.34829,-1.50939 0.98658,-2.8969 2.31732,-2.97083c0.90002,-0.58426 1.97373,-0.92361 3.1267,-0.92361c0.14275,0 0.28428,0.0052 0.42441,0.01543c4.22658,0.01321 8.32362,-4.02857 13.06734,1.27323z" fill="#8e2626" stroke="none" stroke-width="0.5" stroke-linecap="butt"/><path d="M208.29072,142.92778c-2.49433,1.29536 -8.82281,3.25478 -11.22603,1.07004c-0.80718,-0.7338 -2.74449,-3.37558 -3.60817,-3.75896c-0.46977,-0.20853 -1.13056,-0.08371 -1.46813,-0.47129c-0.80292,-0.92187 -1.17047,-2.14838 -1.8196,-3.18431c-0.13349,-0.21303 -1.16451,-1.5196 -1.0554,-1.84694c1.20391,-3.61172 5.12558,-7.53481 8.69072,-9.05064c1.9612,-0.83387 7.52277,-0.80584 9.0073,1.527c0.17492,-0.01602 0.35212,-0.02421 0.53122,-0.02421c3.17564,0 5.75,2.57436 5.75,5.75c0,0.6025 -0.09267,1.18335 -0.26452,1.72909c-0.14566,0.46255 -0.34821,0.89988 -0.59945,1.30377c-1.27,2.83383 -0.78362,5.31835 -3.93794,6.95646z" fill="#8e2626" stroke="none" stroke-width="0.5" stroke-linecap="butt"/><path d="M275.54393,158.2114c0.21362,-0.12016 0.45236,-0.21421 0.71192,-0.28489c0.36616,-0.11934 0.75709,-0.18386 1.16308,-0.18386c0.10327,0 0.20557,0.00417 0.30674,0.01236c2.85212,0.00233 6.79735,1.51452 8.71166,2.53549c2.77209,1.47845 5.2023,4.42695 7.20316,6.81942c1.06784,1.27683 2.69864,2.1701 3.94497,3.25029c4.0523,3.5121 6.70091,8.41727 8.68161,13.22117c1.43781,3.48718 4.23511,7.74885 1.51165,11.23224c-2.90465,3.71514 -9.61654,4.26789 -13.75424,5.23205c-2.25083,0.52448 -4.46359,1.57878 -6.84161,1.25366c-0.93251,-0.12749 -4.56343,-4.12095 -5.28403,-5.20184c-0.33645,-0.50467 0.12273,-1.88516 -0.47029,-1.7578c-0.9874,0.21206 -3.17879,-1.13517 -3.66226,-1.98125c-1.77359,-3.10377 2.03264,-4.10044 3.20147,-5.44177c0.80795,-0.92719 -1.2279,-2.17039 -1.50486,-3.36862c-0.33736,-1.45952 -2.92891,-3.97612 -3.94359,-5.13639c-2.00638,-2.29426 -2.0484,-9.74381 -2.75798,-12.58213c-0.2571,-1.02839 0.22643,-2.77704 1.01282,-3.45109c-0.06878,-0.284 -0.10522,-0.58063 -0.10522,-0.88578c0,-1.22036 0.58293,-2.30457 1.48554,-2.98936c0.11545,-0.11177 0.24417,-0.21017 0.38946,-0.29189z" fill="#8e2626" stroke="none" stroke-width="0.5" stroke-linecap="butt"/><path d="M240.88705,199.4941c-0.08907,0.52952 -0.17965,1.15526 -0.39992,1.63456c-0.23462,0.51051 -0.60178,0.85732 -0.77699,0.82785c-0.15912,-0.02677 -0.3529,-0.32488 -0.41812,-0.73371c-0.07402,-0.46397 -0.00329,-1.07404 0.09449,-1.65534c0.07631,-0.45363 0.2812,-1.8053 0.45828,-2.34845c0.24979,-0.76617 0.49569,-0.66724 0.69447,-0.6338c0.17246,0.02901 0.50454,0.09536 0.57101,0.69168c0.06446,0.57829 -0.13266,1.67886 -0.22322,2.21723z" fill="#ffbf68" stroke="#dea75b" stroke-width="0.5" stroke-linecap="butt"/><path d="M240.18452,198.99258l-0.46667,2.73333" fill="none" stroke="#dea75b" stroke-width="0.5" stroke-linecap="round"/><path d="M227.43452,128.94049c0,-0.55228 0.44772,-1 1,-1c0.55228,0 1,0.44772 1,1c0,0.55228 -0.44772,1 -1,1c-0.55228,0 -1,-0.44772 -1,-1z" fill="#000000" stroke="none" stroke-width="0.5" stroke-linecap="butt"/><path d="M243.76785,145.94049c0,-0.55228 0.44772,-1 1,-1c0.55228,0 1,0.44772 1,1c0,0.55228 -0.44772,1 -1,1c-0.55228,0 -1,-0.44772 -1,-1z" fill="#000000" stroke="none" stroke-width="0.5" stroke-linecap="butt"/><path d="M250.60119,131.10716c0,-0.55228 0.44772,-1 1,-1c0.55228,0 1,0.44772 1,1c0,0.55228 -0.44772,1 -1,1c-0.55228,0 -1,-0.44772 -1,-1z" fill="#000000" stroke="none" stroke-width="0.5" stroke-linecap="butt"/><path d="M232.60119,140.77383c0,-0.55228 0.44772,-1 1,-1c0.55228,0 1,0.44772 1,1c0,0.55228 -0.44772,1 -1,1c-0.55228,0 -1,-0.44772 -1,-1z" fill="#000000" stroke="none" stroke-width="0.5" stroke-linecap="butt"/><path d="M247.60119,138.10716c0,-0.55228 0.44772,-1 1,-1c0.55228,0 1,0.44772 1,1c0,0.55228 -0.44772,1 -1,1c-0.55228,0 -1,-0.44772 -1,-1z" fill="#000000" stroke="none" stroke-width="0.5" stroke-linecap="butt"/><path d="M258.60119,147.94049c0,-0.55228 0.44772,-1 1,-1c0.55228,0 1,0.44772 1,1c0,0.55228 -0.44772,1 -1,1c-0.55228,0 -1,-0.44772 -1,-1z" fill="#000000" stroke="none" stroke-width="0.5" stroke-linecap="butt"/><path d="M233.26785,150.94049c0,-0.55228 0.44772,-1 1,-1c0.55228,0 1,0.44772 1,1c0,0.55228 -0.44772,1 -1,1c-0.55228,0 -1,-0.44772 -1,-1z" fill="#000000" stroke="none" stroke-width="0.5" stroke-linecap="butt"/><path d="M218.26785,143.60716c0,-0.55228 0.44772,-1 1,-1c0.55228,0 1,0.44772 1,1c0,0.55228 -0.44772,1 -1,1c-0.55228,0 -1,-0.44772 -1,-1z" fill="#000000" stroke="none" stroke-width="0.5" stroke-linecap="butt"/><path d="M214.26785,149.44049c0,-0.55228 0.44772,-1 1,-1c0.55228,0 1,0.44772 1,1c0,0.55228 -0.44772,1 -1,1c-0.55228,0 -1,-0.44772 -1,-1z" fill="#000000" stroke="none" stroke-width="0.5" stroke-linecap="butt"/><path d="M195.43452,129.94049c0,-0.55228 0.44772,-1 1,-1c0.55228,0 1,0.44772 1,1c0,0.55228 -0.44772,1 -1,1c-0.55228,0 -1,-0.44772 -1,-1z" fill="#000000" stroke="none" stroke-width="0.5" stroke-linecap="butt"/><path d="M195.26785,135.94049c0,-0.55228 0.44772,-1 1,-1c0.55228,0 1,0.44772 1,1c0,0.55228 -0.44772,1 -1,1c-0.55228,0 -1,-0.44772 -1,-1z" fill="#000000" stroke="none" stroke-width="0.5" stroke-linecap="butt"/><path d="M199.10119,132.27383c0,-0.55228 0.44772,-1 1,-1c0.55228,0 1,0.44772 1,1c0,0.55228 -0.44772,1 -1,1c-0.55228,0 -1,-0.44772 -1,-1z" fill="#000000" stroke="none" stroke-width="0.5" stroke-linecap="butt"/><path d="M202.76785,139.77383c0,-0.55228 0.44772,-1 1,-1c0.55228,0 1,0.44772 1,1c0,0.55228 -0.44772,1 -1,1c-0.55228,0 -1,-0.44772 -1,-1z" fill="#000000" stroke="none" stroke-width="0.5" stroke-linecap="butt"/><path d="M206.76785,130.60716c0,-0.55228 0.44772,-1 1,-1c0.55228,0 1,0.44772 1,1c0,0.55228 -0.44772,1 -1,1c-0.55228,0 -1,-0.44772 -1,-1z" fill="#000000" stroke="none" stroke-width="0.5" stroke-linecap="butt"/><path d="M277.26785,135.60716c0,-0.55228 0.44772,-1 1,-1c0.55228,0 1,0.44772 1,1c0,0.55228 -0.44772,1 -1,1c-0.55228,0 -1,-0.44772 -1,-1z" fill="#000000" stroke="none" stroke-width="0.5" stroke-linecap="butt"/><path d="M280.10119,143.44049c0,-0.55228 0.44772,-1 1,-1c0.55228,0 1,0.44772 1,1c0,0.55228 -0.44772,1 -1,1c-0.55228,0 -1,-0.44772 -1,-1z" fill="#000000" stroke="none" stroke-width="0.5" stroke-linecap="butt"/><path d="M287.60119,133.44049c0,-0.55228 0.44772,-1 1,-1c0.55228,0 1,0.44772 1,1c0,0.55228 -0.44772,1 -1,1c-0.55228,0 -1,-0.44772 -1,-1z" fill="#000000" stroke="none" stroke-width="0.5" stroke-linecap="butt"/><path d="M285.43452,140.77383c0,-0.55228 0.44772,-1 1,-1c0.55228,0 1,0.44772 1,1c0,0.55228 -0.44772,1 -1,1c-0.55228,0 -1,-0.44772 -1,-1z" fill="#000000" stroke="none" stroke-width="0.5" stroke-linecap="butt"/><path d="M280.10119,163.77383c0,-0.55228 0.44772,-1 1,-1c0.55228,0 1,0.44772 1,1c0,0.55228 -0.44772,1 -1,1c-0.55228,0 -1,-0.44772 -1,-1z" fill="#000000" stroke="none" stroke-width="0.5" stroke-linecap="butt"/><path d="M287.10119,190.27383c0,-0.55228 0.44772,-1 1,-1c0.55228,0 1,0.44772 1,1c0,0.55228 -0.44772,1 -1,1c-0.55228,0 -1,-0.44772 -1,-1z" fill="#000000" stroke="none" stroke-width="0.5" stroke-linecap="butt"/><path d="M287.76785,174.10716c0,-0.55228 0.44772,-1 1,-1c0.55228,0 1,0.44772 1,1c0,0.55228 -0.44772,1 -1,1c-0.55228,0 -1,-0.44772 -1,-1z" fill="#000000" stroke="none" stroke-width="0.5" stroke-linecap="butt"/><path d="M303.60119,189.60716c0,-0.55228 0.44772,-1 1,-1c0.55228,0 1,0.44772 1,1c0,0.55228 -0.44772,1 -1,1c-0.55228,0 -1,-0.44772 -1,-1z" fill="#000000" stroke="none" stroke-width="0.5" stroke-linecap="butt"/><path d="M279.26785,178.60716c0,-0.55228 0.44772,-1 1,-1c0.55228,0 1,0.44772 1,1c0,0.55228 -0.44772,1 -1,1c-0.55228,0 -1,-0.44772 -1,-1z" fill="#000000" stroke="none" stroke-width="0.5" stroke-linecap="butt"/><path d="M240.98922,130.93921c-0.43655,0.29103 -0.79675,0.20033 -1.04055,0.04834c0.03587,0.40787 -0.23328,0.74431 -0.23328,0.74431c-0.32969,0.38022 -0.56617,0.87357 -0.62781,1.37304l0.3711,0.15444c0,0 0.5145,0.85749 -0.343,1.37199c-0.17601,0.10561 -0.33757,0.15341 -0.48319,0.16268c-0.10626,0.20139 -0.29594,0.3984 -0.63453,0.46008l0.08962,0.35534c0,0 0.1644,0.98639 -0.82199,1.15079c-0.98639,0.1644 -1.15079,-0.82199 -1.15079,-0.82199l0.03314,-0.54693c-0.5557,-0.13217 -1.12206,-0.21807 -1.68816,-0.29419c0,0 -0.98995,-0.14142 -0.84853,-1.13137c0.14142,-0.98995 1.13137,-0.84853 1.13137,-0.84853c0.69557,0.10405 1.37276,0.32266 2.02616,0.59724c0.01077,-0.84915 -0.07914,-1.67449 -0.50091,-2.28931v0.18202c0,0 0,1 -1,1c-1,0 -1,-1 -1,-1v-0.33333c0.00116,-0.92749 0.07126,-1.85518 0.17278,-2.7771c0,0 0.11043,-0.99388 1.10432,-0.88345c0.99388,0.11043 0.88345,1.10432 0.88345,1.10432c-0.00996,0.08876 -0.0196,0.17757 -0.02888,0.26644c0.76339,0.45037 1.29772,0.99013 1.66305,1.62163c0.02984,-0.04154 0.06021,-0.08262 0.09108,-0.1232c0,0 0.42811,-0.53514 1.01853,-0.365c-0.81387,-0.77928 -1.16715,-1.57785 -2.2338,-2.14206c0,0 -0.86824,-0.49614 -0.3721,-1.36438c0.49614,-0.86824 1.36438,-0.3721 1.36438,-0.3721c0.73164,0.43963 1.14797,0.89855 1.56094,1.36913c0.13934,0.00277 0.27693,0.00995 0.41303,0.02104c-0.38274,-0.46456 -0.85412,-0.86202 -1.35815,-1.18987c0,0 -0.83205,-0.5547 -0.27735,-1.38675c0.5547,-0.83205 1.38675,-0.27735 1.38675,-0.27735c0.70285,0.47749 1.35562,1.04903 1.89284,1.70736l0.35594,1.04883c0,0 0.05911,0.23644 0.00224,0.50504c0.64777,0.19114 1.29252,0.41617 1.969,0.6093l0.59905,0.42108c0,0 0.70711,0.70711 0,1.41421c-0.20672,0.20672 -0.41344,0.29257 -0.60249,0.31056c0.26466,0.21809 0.35691,0.54095 0.35691,0.54095c0.09649,0.45785 0.39319,0.90601 0.77961,1.18202c0.20389,-0.10389 0.47473,-0.14085 0.81945,0.00689c0.91915,0.39392 0.52523,1.31306 0.52523,1.31306c-0.49797,1.13802 -0.58865,1.8692 -0.58581,3.10608l0.20472,-0.59514c0,0 0.92848,0.37139 0.55709,1.29987c-0.37139,0.92848 -1.29987,0.55709 -1.29987,0.55709l-1.46194,-1.26181c0.00206,-1.01094 0.07882,-1.81083 0.30987,-2.65172l-0.03124,-0.01623c-0.27626,-0.20045 -0.53295,-0.43647 -0.76327,-0.69828l-0.07903,0.21735c0,0 -0.35112,0.93633 -1.28745,0.58521c-0.93633,-0.35112 -0.58521,-1.28745 -0.58521,-1.28745l0.45238,-1.16063c0.04298,-0.43473 -0.22842,-0.84678 -0.56489,-1.18442c-0.06107,0.0674 -0.13676,0.13288 -0.22979,0.1949z" fill="#ffdd66" stroke="none" stroke-width="0.5" stroke-linecap="butt"/><path d="M251.46397,133.08774c-0.98058,0.19612 -1.1767,-0.78446 -1.1767,-0.78446l0.25921,-0.1974c-0.46324,-0.31653 -0.97562,-0.57156 -1.50866,-0.75416c-0.07562,0.17711 -0.22301,0.35 -0.48942,0.4832c-0.89443,0.44721 -1.34164,-0.44721 -1.34164,-0.44721l-0.27224,-0.78055c0.01435,-0.93346 0.34701,-1.77284 -0.80809,-1.67672c0,0 -0.98995,-0.14142 -0.84853,-1.13137c0.14142,-0.98995 1.13137,-0.84853 1.13137,-0.84853c1.69878,0.39652 2.26485,1.03239 2.44609,2.3265c0.20113,-0.00839 0.35388,0.03526 0.35388,0.03526c0.8615,0.25432 1.69488,0.63782 2.44665,1.12947l0.59255,1.46927c0,0 0.19612,0.98058 -0.78446,1.1767z" fill="#ffdd66" stroke="none" stroke-width="0.5" stroke-linecap="butt"/><path d="M249.10345,139.42689l-1.69231,-0.63725c0.30383,-2.10931 0.54648,-2.96286 2.30201,-4.18119c0,0 0.83205,-0.5547 1.38675,0.27735c0.04995,0.07493 0.08866,0.1476 0.11774,0.21783c0.31274,-0.14773 0.65495,-0.28845 1.03242,-0.43279c0,0 0.93633,-0.35112 1.28745,0.58521c0.35112,0.93633 -0.58521,1.28745 -0.58521,1.28745c-1.09703,0.40154 -1.77079,0.64512 -2.27145,1.45285c0.12026,0.21798 0.16955,0.5151 -0.01858,0.89137c-0.3114,0.62279 -0.83962,0.59511 -1.13174,0.52085c-0.2315,0.05093 -0.42709,0.01833 -0.42709,0.01833z" fill="#ffdd66" stroke="none" stroke-width="0.5" stroke-linecap="butt"/><path d="M242.60119,142.10716c-1,0 -1,-1 -1,-1v-0.16667c0,-2.39003 0.52635,-3.19105 -1.94139,-3.87181c0,0 -0.96152,-0.27472 -0.6868,-1.23625c0.27472,-0.96152 1.23625,-0.6868 1.23625,-0.6868c3.45589,1.01454 3.39195,2.60794 3.39195,5.79486v0.16667c0,0 0,1 -1,1z" fill="#ffdd66" stroke="none" stroke-width="0.5" stroke-linecap="butt"/><path d="M232.26785,141.60716c-1,0 -1,-1 -1,-1v-0.16667c0.01091,-1.47321 0.28637,-2.46383 0.93891,-3.78055c0,0 0.44721,-0.89443 1.34164,-0.44721c0.89443,0.44721 0.44721,1.34164 0.44721,1.34164c-0.53023,1.04945 -0.73885,1.7069 -0.72776,2.88612v0.16667c0,0 0,1 -1,1z" fill="#ffdd66" stroke="none" stroke-width="0.5" stroke-linecap="butt"/><path d="M230.76785,130.77383c-0.07901,0 -0.15177,-0.00624 -0.21879,-0.01774c-0.33893,0.48544 -0.54335,1.02428 -0.53516,1.68696c0.22092,0.13672 0.42062,0.3839 0.42062,0.83078c0,1 -1,1 -1,1l-1.31973,-0.8356c-0.2275,-1.56644 0.09839,-2.74395 0.81628,-3.78981c-0.24065,-0.09565 -0.48746,-0.16623 -0.75313,-0.22283c-0.17833,0.44303 -0.26125,0.94206 -0.24343,1.5149l0.13681,0.42413c0,0 0.24254,0.97014 -0.72761,1.21268c-0.97014,0.24254 -1.21268,-0.72761 -1.21268,-0.72761l-0.19652,-0.9092c0.01774,-0.8419 0.15178,-1.57506 0.4093,-2.22953c-0.0655,-0.14627 -0.09711,-0.3302 -0.06824,-0.56117c0.08932,-0.71458 0.62891,-0.85024 0.92394,-0.8702c0.40325,-0.48139 0.90618,-0.92054 1.51364,-1.33782c0,0 0.83205,-0.5547 1.38675,0.27735c0.5547,0.83205 -0.27735,1.38675 -0.27735,1.38675c-0.08668,0.0554 -0.17053,0.11167 -0.25152,0.16891c0.25276,0.09545 0.49947,0.20711 0.74576,0.33946c0.09759,-0.08872 0.19772,-0.17744 0.30027,-0.26634c0,0 0.75926,-0.65079 1.41005,0.10847c0.65079,0.75926 -0.10847,1.41005 -0.10847,1.41005c-0.07902,0.06682 -0.15682,0.13323 -0.23315,0.19947l0.08236,0.20794c0,0 0,1 -1,1z" fill="#ffdd66" stroke="none" stroke-width="0.5" stroke-linecap="butt"/><path d="M231.2242,135.89177c-0.08032,0.29561 -0.30845,0.71539 -0.95635,0.71539c-1,0 -1,-1 -1,-1l0.29289,-0.87377c0.82872,-0.82647 1.50298,-1.66908 2.41575,-2.4071c0,0 0.78087,-0.6247 1.40556,0.15617c0.6247,0.78087 -0.15617,1.40556 -0.15617,1.40556c-0.76124,0.60105 -1.33973,1.30989 -2.00168,2.00374z" fill="#ffdd66" stroke="none" stroke-width="0.5" stroke-linecap="butt"/><path d="M258.08408,135.38918c-0.94868,0.31623 -1.26491,-0.63246 -1.26491,-0.63246l0.28588,0.05202c-1.01179,-0.57987 -1.66814,-1.06479 -2.83719,-1.03491c0,0 -1,0 -1,-1c0,-1 1,-1 1,-1c0.31649,0.00538 0.60804,0.03115 0.88301,0.07524c-0.7455,-0.35484 -1.45795,-0.78462 -2.13092,-1.2615c0,0 -0.81373,-0.58124 -0.2325,-1.39497c0.58124,-0.81373 1.39497,-0.2325 1.39497,-0.2325c0.66855,0.48196 1.38688,0.90705 2.14601,1.22792l0.83384,1.1386c0,0 0.33856,0.67711 -0.16261,1.14763c0.34953,0.17415 0.70722,0.3755 1.09766,0.59801l0.61921,1.05202c0,0 0.31623,0.94868 -0.63246,1.26491z" fill="#ffdd66" stroke="none" stroke-width="0.5" stroke-linecap="butt"/><path d="M225.10119,138.60716c-1,0 -1,-1 -1,-1l0.152,-0.86333c0.60928,-0.96663 1.33588,-1.86621 2.14089,-2.67711c0,0 0.70711,-0.70711 1.41421,0c0.70711,0.70711 0,1.41421 0,1.41421c-0.7042,0.69834 -1.33719,1.47958 -1.85911,2.32289l0.152,-0.19667c0,0 0,1 -1,1z" fill="#ffdd66" stroke="none" stroke-width="0.5" stroke-linecap="butt"/><path d="M246.99313,136.56868c-0.96152,-0.27472 -0.6868,-1.23625 -0.6868,-1.23625l0.39409,-1.32626c0.30679,-0.43786 0.61357,-0.87573 0.92036,-1.31359c0,0 0.58124,-0.81373 1.39497,-0.2325c0.81373,0.58124 0.2325,1.39497 0.2325,1.39497c-0.24877,0.33991 -0.49754,0.67983 -0.7463,1.01974l-0.27257,1.00708c0,0 -0.27472,0.96152 -1.23625,0.6868z" fill="#ffdd66" stroke="none" stroke-width="0.5" stroke-linecap="butt"/><path d="M283.65589,163.10588c-0.83205,0.5547 -1.38675,-0.27735 -1.38675,-0.27735l-0.45622,-0.77136c-0.77007,-0.25236 -1.52741,-0.54512 -2.27232,-0.86419c0,0 -0.91915,-0.39392 -0.52523,-1.31306c0.39392,-0.91915 1.31306,-0.52523 1.31306,-0.52523c0.90519,0.38817 1.81557,0.76421 2.72768,1.13581l0.87712,1.22864c0,0 0.5547,0.83205 -0.27735,1.38675z" fill="#ffdd66" stroke="none" stroke-width="0.5" stroke-linecap="butt"/><path d="M285.49313,171.90202c-0.96152,-0.27472 -0.6868,-1.23625 -0.6868,-1.23625l0.38721,-1.31168c0.39144,-0.59041 0.74142,-1.22234 0.95896,-1.89649c0,0 0.31623,-0.94868 1.26491,-0.63246c0.94868,0.31623 0.63246,1.26491 0.63246,1.26491c-0.25292,0.74033 -0.60535,1.45371 -1.04104,2.10351l-0.27946,1.02165c0,0 -0.27472,0.96152 -1.23625,0.6868z" fill="#ffdd66" stroke="none" stroke-width="0.5" stroke-linecap="butt"/><path d="M296.48922,173.60588c-0.83205,0.5547 -1.38675,-0.27735 -1.38675,-0.27735l-0.14147,-0.28648c-0.96402,-0.84754 -1.59302,-0.94338 -2.85982,-0.93489c0,0 -1,0 -1,-1c0,-1 1,-1 1,-1c1.75283,0.00944 2.77228,0.30039 4.14018,1.39845l0.5252,0.71352c0,0 0.5547,0.83205 -0.27735,1.38675z" fill="#ffdd66" stroke="none" stroke-width="0.5" stroke-linecap="butt"/><path d="M299.04987,180.09006c-0.31623,0.94868 -1.26491,0.63246 -1.26491,0.63246l-1.10987,-0.37734c-0.82785,-0.51276 -1.65165,-1.03254 -2.46194,-1.57263c0,0 -0.83205,-0.5547 -0.27735,-1.38675c0.5547,-0.83205 1.38675,-0.27735 1.38675,-0.27735c0.7284,0.4857 1.46455,0.95982 2.20473,1.42737l0.89013,0.28933c0,0 0.94868,0.31623 0.63246,1.26491z" fill="#ffdd66" stroke="none" stroke-width="0.5" stroke-linecap="butt"/><path d="M304.98922,182.27254c-0.83205,0.5547 -1.38675,-0.27735 -1.38675,-0.27735l-0.60796,-0.92071c-0.60777,-0.60633 -1.27471,-1.15636 -1.97456,-1.65359c0,0 -0.81373,-0.58124 -0.2325,-1.39497c0.58124,-0.81373 1.39497,-0.2325 1.39497,-0.2325c0.83978,0.6027 1.62852,1.28149 2.35877,2.01308l0.72537,1.07929c0,0 0.5547,0.83205 -0.27735,1.38675z" fill="#ffdd66" stroke="none" stroke-width="0.5" stroke-linecap="butt"/><path d="M301.71539,188.73186c-0.6247,0.78087 -1.40556,0.15617 -1.40556,0.15617l-1.10994,-1.01435c-0.0329,-0.47773 -0.0658,-0.95546 -0.0987,-1.43319c0,0 0,-1 1,-1c1,0 1,1 1,1c-0.0329,0.18894 -0.0658,0.37787 -0.0987,0.56681l0.55673,0.31899c0,0 0.78087,0.6247 0.15617,1.40556z" fill="#ffdd66" stroke="none" stroke-width="0.5" stroke-linecap="butt"/><path d="M307.22741,189.6476c-0.62355,-0.62355 -0.14736,-1.24711 -0.02612,-1.38576c0.04595,-0.58207 -0.60671,-0.6075 -1.32736,-0.9022c0,0 -0.91915,-0.39392 -0.52523,-1.31306c0.39392,-0.91915 1.31306,-0.52523 1.31306,-0.52523c1.84863,0.81949 2.61461,1.3239 2.42581,3.41688l-0.44595,0.70937c0,0 -0.70711,0.70711 -1.41421,0zM307.18466,188.37614l-0.06987,0.23329c0.03236,-0.08549 0.05538,-0.16291 0.06987,-0.23329z" fill="#ffdd66" stroke="none" stroke-width="0.5" stroke-linecap="butt"/><path d="M292.82895,166.38771c-0.44721,0.89443 -1.34164,0.44721 -1.34164,0.44721l-1,-0.5c-0.75806,-0.38519 -1.54338,-0.77903 -2.38385,-0.90803c0,0 -0.98639,-0.1644 -0.82199,-1.15079c0.1644,-0.98639 1.15079,-0.82199 1.15079,-0.82199c1.03242,0.18223 2.00921,0.62831 2.94948,1.09197l1,0.5c0,0 0.89443,0.44721 0.44721,1.34164z" fill="#ffdd66" stroke="none" stroke-width="0.5" stroke-linecap="butt"/><path d="M280.89408,167.48093c-0.70711,-0.70711 0,-1.41421 0,-1.41421l1.37377,-0.95956c0.5,0 1,0 1.5,0c0,0 1,0 1,1c0,1 -1,1 -1,1c-0.5,0 -1,0 -1.5,0l0.04044,0.37377c0,0 -0.70711,0.70711 -1.41421,0z" fill="#ffdd66" stroke="none" stroke-width="0.5" stroke-linecap="butt"/><path d="M291.76785,137.27383c-0.03842,0 -0.07537,-0.00148 -0.1109,-0.00432c0.10855,0.09664 0.21461,0.19579 0.31801,0.29721l0.40824,0.89088c0,0 0.31623,0.94868 -0.63246,1.26491c-0.94868,0.31623 -1.26491,-0.63246 -1.26491,-0.63246l0.07491,-0.10912c-0.45295,-0.46459 -0.98923,-0.86369 -1.57344,-1.14601c0,0 -0.89443,-0.44721 -0.44721,-1.34164c0.44721,-0.89443 1.34164,-0.44721 1.34164,-0.44721c0.32698,0.16764 0.64356,0.35885 0.94685,0.56982c-0.06073,-0.18755 -0.06073,-0.34206 -0.06073,-0.34206l0.05132,-0.18377c-0.18492,-0.62124 -0.62319,-1.16126 -1.09176,-1.60912c0,0 -0.70711,-0.70711 0,-1.41421c0.70711,-0.70711 1.41421,0 1.41421,0c0.66374,0.6857 1.25433,1.49201 1.57491,2.39088l0.05132,0.81623c0,0 0,1 -1,1z" fill="#ffdd66" stroke="none" stroke-width="0.5" stroke-linecap="butt"/><path d="M283.43452,131.77383c0,-1 1,-1 1,-1l0.45737,0.00772c0.98594,0.12795 1.96131,0.37767 2.89376,0.72262c0,0 0.93633,0.35112 0.58521,1.28745c-0.35112,0.93633 -1.28745,0.58521 -1.28745,0.58521c-0.78336,-0.29846 -1.6072,-0.51139 -2.43958,-0.61072l-0.2093,0.00772c0,0 -1,0 -1,-1z" fill="#ffdd66" stroke="none" stroke-width="0.5" stroke-linecap="butt"/><path d="M296.32255,137.77254c-0.83205,0.5547 -1.38675,-0.27735 -1.38675,-0.27735l-0.28215,-0.43001c-0.79173,-0.99138 -1.48257,-2.00897 -2.31172,-2.9739c0,0 -0.65079,-0.75926 0.10847,-1.41005c0.75926,-0.65079 1.41005,0.10847 1.41005,0.10847c0.84246,0.98514 1.54745,2.01863 2.35495,3.0261l0.38451,0.56999c0,0 0.5547,0.83205 -0.27735,1.38675z" fill="#ffdd66" stroke="none" stroke-width="0.5" stroke-linecap="butt"/><path d="M285.87343,128.32661c0.44721,-0.89443 1.34164,-0.44721 1.34164,-0.44721l0.20235,0.11241c0.81577,0.27576 1.59748,0.65573 2.34658,1.08044c0,0 0.86824,0.49614 0.3721,1.36438c-0.49614,0.86824 -1.36438,0.3721 -1.36438,0.3721c-0.63218,-0.36453 -1.29329,-0.69232 -1.98676,-0.91956l-0.46432,-0.22092c0,0 -0.89443,-0.44721 -0.44721,-1.34164z" fill="#ffdd66" stroke="none" stroke-width="0.5" stroke-linecap="butt"/><path d="M201.43452,124.77383c0,1 -1,1 -1,1l0.11388,-0.10557c-1.3556,0.67602 -2.52793,0.95604 -2.44721,2.60557c0,0 0,1 -1,1c-1,0 -1,-1 -1,-1c0.07507,-2.54821 1.40203,-3.31645 3.55279,-4.39443l0.78055,-0.10557c0,0 1,0 1,1z" fill="#ffdd66" stroke="none" stroke-width="0.5" stroke-linecap="butt"/><path d="M192.60119,135.60716c-1,0 -1,-1 -1,-1l0.01361,-0.49773c0.24265,-1.42376 0.27317,-2.52011 0.69523,-3.95628c0,0 0.28735,-0.95783 1.24517,-0.67048c0.95783,0.28735 0.67048,1.24517 0.67048,1.24517c-0.40859,1.32979 -0.41867,2.36807 -0.6381,3.71038l0.01361,0.16893c0,0 0,1 -1,1z" fill="#ffdd66" stroke="none" stroke-width="0.5" stroke-linecap="butt"/><path d="M202.21654,140.59006c-0.31623,0.94868 -1.26491,0.63246 -1.26491,0.63246l-0.34817,-0.12896c-2.00621,-0.48927 -2.29716,-1.31323 -2.3356,-3.31973c0,0 0,-1 1,-1c1,0 1,1 1,1c-0.02561,0.89691 -0.28967,1.3726 0.6644,1.34694l0.65183,0.20438c0,0 0.94868,0.31623 0.63246,1.26491z" fill="#ffdd66" stroke="none" stroke-width="0.5" stroke-linecap="butt"/><path d="M205.26785,129.77383c0,1 -1,1 -1,1l0.11388,-0.10557c-0.69707,0.34504 -1.38465,0.73038 -1.98919,1.21977c0,0 -0.78087,0.6247 -1.40556,-0.15617c-0.6247,-0.78087 0.15617,-1.40556 0.15617,-1.40556c0.71974,-0.57021 1.52428,-1.03338 2.34415,-1.44689l0.78055,-0.10557c0,0 1,0 1,1z" fill="#ffdd66" stroke="none" stroke-width="0.5" stroke-linecap="butt"/><path d="M198.2893,141.77449c0.14522,0.00693 0.97855,0.08647 0.97855,0.99934c0,1 -1,1 -1,1l-0.95803,-0.21913c-1.85387,-1.48725 -2.2044,-2.41285 -2.20864,-4.78087c0,0 0,-1 1,-1c1,0 1,1 1,1c-0.00344,1.72601 0.02826,2.04402 1.18812,3.00066z" fill="#ffdd66" stroke="none" stroke-width="0.5" stroke-linecap="butt"/><path d="M191.26785,141.10716c-1,0 -1,-1 -1,-1l0.05132,-0.48289c0.77368,-2.31692 1.20555,-3.87712 3.80726,-4.34039c0,0 0.98995,-0.14142 1.13137,0.84853c0.14142,0.98995 -0.84853,1.13137 -0.84853,1.13137c-1.66069,0.13724 -1.71561,1.55887 -2.19274,2.99294l0.05132,-0.14956c0,0 0,1 -1,1z" fill="#ffdd66" stroke="none" stroke-width="0.5" stroke-linecap="butt"/><path d="M217.0731,199.39951c1.64283,0.79118 3.5921,1.69073 5.00427,2.74359c0.5164,0.38501 8.45714,1.89505 11.65128,2.63358c6.10945,1.41259 4.36546,2.38467 4.24201,2.64101c-0.17074,0.35452 -4.05972,0.33057 -5.39993,0.04279c-1.52098,-0.3266 -14.26417,-3.49457 -16.06766,-4.36311c-1.40738,-0.67779 -5.61304,-2.6432 -7.25224,-3.66142c-2.31226,-1.4363 -1.86462,-1.9215 -1.65133,-2.36439c0.18505,-0.38424 0.57487,-1.11272 2.51435,-0.62385c1.88083,0.47409 5.28897,2.1474 6.95926,2.9518z" fill="#ffbf68" stroke="#dea75b" stroke-width="1.5" stroke-linecap="butt"/><path d="M263.39939,198.89952c1.48095,-0.80439 4.50275,-2.47772 6.17038,-2.9518c1.71963,-0.48887 2.06526,0.23961 2.22933,0.62385c0.18911,0.44288 0.586,0.9281 -1.46414,2.36439c-1.45339,1.01822 -5.1823,2.98363 -6.43014,3.66141c-1.59906,0.86855 -12.89771,4.03652 -14.24628,4.36312c-1.18829,0.28778 -4.63643,0.31173 -4.78781,-0.04279c-0.10946,-0.25634 -1.65575,-1.22842 3.76115,-2.64101c2.83206,-0.73853 9.87266,-2.24857 10.33053,-2.63358c1.2521,-1.05286 2.9804,-1.95241 4.43701,-2.74359z" data-paper-data="{&quot;index&quot;:null}" fill="#ffbf68" stroke="#dea75b" stroke-width="1.5" stroke-linecap="butt"/><path d="M243.29347,202.79072c6.29372,2.09791 2.53435,10.23785 -3.46188,8.58389c-3.55334,-0.98013 -3.88823,-4.03262 -2.49372,-6.26084c0.095,-0.7367 0.64812,-1.32986 1.36441,-1.48454c1.13744,-0.85131 2.64549,-1.2764 4.31071,-0.86009z" fill="#8e2626" stroke="none" stroke-width="0.5" stroke-linecap="butt"/><path d="M238.4623,204.89536c0,-0.27614 0.22386,-0.5 0.5,-0.5c0.27614,0 0.5,0.22386 0.5,0.5c0,0.27614 -0.22386,0.5 -0.5,0.5c-0.27614,0 -0.5,-0.22386 -0.5,-0.5z" fill="#000000" stroke="none" stroke-width="0.5" stroke-linecap="butt"/><path d="M244.35119,204.78424c0,-0.27614 0.22386,-0.5 0.5,-0.5c0.27614,0 0.5,0.22386 0.5,0.5c0,0.27614 -0.22386,0.5 -0.5,0.5c-0.27614,0 -0.5,-0.22386 -0.5,-0.5z" fill="#000000" stroke="none" stroke-width="0.5" stroke-linecap="butt"/><path d="M240.12896,209.45091c0,-0.27614 0.22386,-0.5 0.5,-0.5c0.27614,0 0.5,0.22386 0.5,0.5c0,0.27614 -0.22386,0.5 -0.5,0.5c-0.27614,0 -0.5,-0.22386 -0.5,-0.5z" fill="#000000" stroke="none" stroke-width="0.5" stroke-linecap="butt"/><path d="M242.4623,207.00647c0,-0.27614 0.22386,-0.5 0.5,-0.5c0.27614,0 0.5,0.22386 0.5,0.5c0,0.27614 -0.22386,0.5 -0.5,0.5c-0.27614,0 -0.5,-0.22386 -0.5,-0.5z" fill="#000000" stroke="none" stroke-width="0.5" stroke-linecap="butt"/><path d="M244.01785,210.3398c0,-0.27614 0.22386,-0.5 0.5,-0.5c0.27614,0 0.5,0.22386 0.5,0.5c0,0.27614 -0.22386,0.5 -0.5,0.5c-0.27614,0 -0.5,-0.22386 -0.5,-0.5z" fill="#000000" stroke="none" stroke-width="0.5" stroke-linecap="butt"/><path d="M237.24007,208.45091c0,-0.27614 0.22386,-0.5 0.5,-0.5c0.27614,0 0.5,0.22386 0.5,0.5c0,0.27614 -0.22386,0.5 -0.5,0.5c-0.27614,0 -0.5,-0.22386 -0.5,-0.5z" fill="#000000" stroke="none" stroke-width="0.5" stroke-linecap="butt"/></g></g></svg>