<svg version="1.1" xmlns="http://www.w3.org/2000/svg" xmlns:xlink="http://www.w3.org/1999/xlink" width="102.25062" height="197.50139" viewBox="0,0,102.25062,197.50139"><g transform="translate(-203.33334,-118.35766)"><g data-paper-data="{&quot;isPaintingLayer&quot;:true}" fill-rule="nonzero" stroke-linejoin="miter" stroke-miterlimit="10" stroke-dasharray="" stroke-dashoffset="0" style="mix-blend-mode: normal"><path d="M279.57283,308.01813c0,3.9162 0.12342,6.99774 -12.40909,7.09091c-15.81105,0.11755 -13.95454,-3.35652 -13.95454,-7.27272c0,-3.9162 6.14724,-6.9091 13.95454,-6.9091c7.8073,0 12.40909,3.17471 12.40909,7.09091z" fill="#ffffff" stroke="#e5e5e5" stroke-width="1.5" stroke-linecap="butt"/><path d="M254.2092,306.74541c0,3.9162 0.12342,6.99774 -12.40909,7.09091c-15.81105,0.11755 -13.95454,-3.35653 -13.95454,-7.27273c0,-3.9162 6.14724,-6.90909 13.95454,-6.90909c7.8073,0 12.40909,3.17471 12.40909,7.09091z" fill="#ffffff" stroke="#e5e5e5" stroke-width="1.5" stroke-linecap="butt"/><path d="M240.15003,251.05627v-42.8h29.9v42.8z" fill="#790000" stroke="#560000" stroke-width="3.5" stroke-linecap="butt"/><path d="M249.48949,227.71747c-1.00191,0.22265 -1.85975,0.02517 -2.51204,-0.40283c-0.40382,-0.19305 -0.73712,-0.49158 -0.94617,-0.90967c-0.08213,-0.16427 -0.14585,-0.31833 -0.19326,-0.46324c-0.55952,-1.33078 -0.13041,-2.96754 1.75731,-3.4608c0.20049,-2.31435 0.0135,-4.64631 -0.00155,-6.96936c-0.00483,-0.74432 -1.03989,-4.15524 -0.23022,-4.61791l1.29272,-0.73869c0.73362,0.41922 1.19079,1.04244 1.47511,1.77355c0.40202,1.03373 0.4585,2.28313 0.46239,3.47645c0.00826,2.53676 -0.18057,5.24272 0.60605,7.6341c1.78949,1.26665 1.87185,3.8558 -1.41855,4.6784z" fill="#000000" stroke="none" stroke-width="0.5" stroke-linecap="butt"/><path d="M262.3293,211.68063c0.61523,3.46981 0.90208,7.17248 0.1435,10.64577c-0.40537,1.85606 2.69624,5.14072 -0.83751,6.02416c-2.50364,0.62591 -5.30803,-1.32781 -4.19565,-3.99141c0.41037,-0.98264 2.09133,-1.67729 2.09164,-2.36535c0.00164,-3.65302 -0.125,-6.45124 -0.125,-9.59647c-0.04066,-0.13617 -0.0625,-0.28046 -0.0625,-0.42985c0,-0.82843 0.67157,-1.5 1.5,-1.5c0.33883,0 0.65141,0.11234 0.90255,0.3018c0.28788,0.18382 0.50731,0.48459 0.58298,0.91135z" fill="#000000" stroke="none" stroke-width="0.5" stroke-linecap="butt"/><path d="M303.83396,156.85123c0,24.56313 -50.63168,52.13932 -50.63168,52.13932c0,0 -48.11894,-27.19928 -48.11894,-51.76241c0,-16.26875 7.51187,-39.01082 22.16364,-36.99521c11.44632,1.57465 25.95785,17.2121 25.95785,17.2121c0,0 15.73257,-14.70777 24.02627,-15.8367c11.42665,-1.55539 26.60286,19.89324 26.60286,35.24291z" fill="#b60000" stroke="#560000" stroke-width="3.5" stroke-linecap="butt"/><path d="M282.62503,185.57289c0,14.77071 -12.14427,26.74474 -27.125,26.74474c-14.98073,0 -27.125,-11.97403 -27.125,-26.74474c0,-14.77071 12.14427,-26.74474 27.125,-26.74474c14.98073,0 27.125,11.97403 27.125,26.74474z" fill="#d80000" stroke="#560000" stroke-width="3.5" stroke-linecap="butt"/><path d="M241.1185,206.37508l-1.32533,-12.63513l3.23274,-0.61232l2.07114,15.43697c0,0 -1.36713,-0.41666 -2.00825,-0.76949c-0.68248,-0.37559 -1.97029,-1.42003 -1.97029,-1.42003z" fill="#a0d9e3" stroke="none" stroke-width="0" stroke-linecap="butt"/><g stroke-linecap="butt"><path d="M291.87503,139.48684c0,6.85314 -5.20469,12.4087 -11.625,12.4087c-6.42031,0 -11.625,-5.55557 -11.625,-12.4087c0,-6.85314 5.20469,-12.40871 11.625,-12.40871c6.42031,0 11.625,5.55557 11.625,12.40871z" fill="#000000" stroke="#000000" stroke-width="0"/><path d="M282.90135,134.82815c0,-1.80219 1.46097,-3.26316 3.26316,-3.26316c1.80219,0 3.26316,1.46097 3.26316,3.26316c0,1.80219 -1.46097,3.26316 -3.26316,3.26316c-1.80219,0 -3.26316,-1.46097 -3.26316,-3.26316z" fill="#ffffff" stroke="none" stroke-width="0.5"/><path d="M275.84477,147.02418c-2.7928,-0.3491 -6.56734,-1.79893 -4.16053,-6.07764c0.0996,-0.17708 0.22204,-0.33297 0.36152,-0.47315c0.43971,-0.52044 1.03938,-0.90137 1.72318,-1.06692c0.34728,-0.176 0.68787,-0.35949 0.98588,-0.58433c1.4933,-1.12667 3.51981,0.40067 4.53806,1.03803c0.98111,0.61411 3.97665,-0.71814 5.47569,-0.6086c0.26266,0.01919 0.8987,0.80834 0.96206,0.87918c0.37934,0.42411 1.25522,0.00555 1.65756,0.40789c2.31682,2.31682 1.31511,4.5314 -0.62321,6.4073c-1.52603,1.47688 -8.56898,0.0644 -10.35396,-0.38185z" fill="#ffffff" stroke="none" stroke-width="0.5"/></g><g stroke-linecap="butt"><path d="M239.12503,137.48684c0,6.85314 -5.20469,12.40871 -11.625,12.40871c-6.42031,0 -11.625,-5.55557 -11.625,-12.40871c0,-6.85314 5.20469,-12.40871 11.625,-12.40871c6.42031,0 11.625,5.55557 11.625,12.40871z" fill="#000000" stroke="#000000" stroke-width="0"/><path d="M230.15135,132.82815c0,-1.80219 1.46097,-3.26316 3.26316,-3.26316c1.80219,0 3.26315,1.46097 3.26315,3.26316c0,1.80219 -1.46096,3.26316 -3.26315,3.26316c-1.80219,0 -3.26316,-1.46097 -3.26316,-3.26316z" fill="#ffffff" stroke="none" stroke-width="0.5"/><path d="M223.09477,145.02418c-2.7928,-0.3491 -6.56734,-1.79893 -4.16052,-6.07764c0.0996,-0.17708 0.22204,-0.33297 0.36152,-0.47315c0.43971,-0.52044 1.03938,-0.90137 1.72317,-1.06692c0.34728,-0.176 0.68787,-0.35949 0.98588,-0.58433c1.4933,-1.12667 3.51981,0.40067 4.53806,1.03803c0.98111,0.61411 3.97665,-0.71814 5.4757,-0.6086c0.26266,0.01919 0.8987,0.80834 0.96206,0.87918c0.37933,0.42411 1.25521,0.00555 1.65756,0.40789c2.31682,2.31682 1.31511,4.5314 -0.62321,6.4073c-1.52603,1.47688 -8.56898,0.0644 -10.35396,-0.38185z" fill="#ffffff" stroke="none" stroke-width="0.5"/></g><path d="M251.40426,153.49525c-0.35566,0.09037 -0.66376,0.19864 -0.90027,0.32182l-0.31331,0.81461c-0.1562,0.43619 -0.57322,0.74826 -1.06313,0.74826c-0.62348,0 -1.12891,-0.50543 -1.12891,-1.12892c0,-0.03333 0.00144,-0.06633 0.00427,-0.09893l0.08936,-1.16172l0.23561,0.01812l-0.10799,-0.45926c0.33254,-0.27433 0.62195,-0.62051 0.95274,-0.89775c0.18903,-0.292 0.50926,-0.49117 0.87724,-0.51405l1.25509,-0.08965l0.00003,0.00044c0.4873,0.03355 0.74765,-0.15084 0.86969,-0.45725c-0.05045,-0.26627 -0.10023,-0.54165 -0.01915,-0.74974c0.00933,-0.02397 0.01887,-0.04784 0.02858,-0.07162l-0.02115,-0.00282l0.05006,-0.37547c-0.0819,-0.55877 -0.23772,-1.1559 -0.3033,-1.61379c-1.80529,-0.52999 -3.38868,-1.37049 -4.17701,-2.29021c-1.02002,-1.19002 -0.93928,-4.14329 0.56883,-4.94761c0.16938,-0.1532 0.35431,-0.2895 0.55215,-0.40627c0.36093,-0.63162 3.16335,-0.79909 3.52516,-0.82924c3.17264,-0.26439 10.81544,2.20548 8.07804,6.99594c-1.00101,1.75177 -3.40586,2.24001 -5.89653,1.99662c0.02038,0.08486 0.03116,0.17344 0.03116,0.26454v1.17407h-0.03368c-0.04135,0.10503 -0.10681,0.21756 -0.15622,0.3251l-0.00063,0.00473l-0.00144,-0.00019c-0.02362,0.05183 -0.04337,0.10244 -0.05475,0.15045c-0.00053,0.04719 -0.00153,0.09404 -0.00301,0.14055c0.00533,0.01968 0.01368,0.03842 0.02554,0.05607c0.07604,0.00012 0.15478,0.00044 0.23589,0.00107c0.12997,-0.12024 0.27167,-0.35689 0.43376,-0.361c0.55097,-0.01397 1.16329,0.02923 1.61797,0.34074c0.04513,0.03092 0.0891,0.06316 0.13201,0.09659l0.01594,-0.02922l0.20667,0.11274c1.85342,0.27709 3.61535,1.02701 3.26824,3.04816c-0.01836,0.10692 -0.04486,0.2109 -0.07811,0.31244l0.05649,0.0121l-0.26638,1.24308c-0.10048,0.52053 -0.55854,0.91368 -1.10842,0.91368c-0.57113,0 -1.04321,-0.42412 -1.11846,-0.97458l-0.14954,-0.97203c-0.41434,-0.57791 -1.54127,-0.869 -2.80528,-0.94499c-0.55343,0.06566 -1.06305,0.10773 -1.55494,0.11444c-0.05366,0.04051 -0.10868,0.07953 -0.16497,0.11691c-0.55647,0.36946 -1.12946,0.17475 -1.68394,0.05306z" fill="#000000" stroke="none" stroke-width="0.5" stroke-linecap="butt"/><path d="M217.30003,156.05627c0,-2.8995 2.3505,-5.25 5.25,-5.25c2.8995,0 5.25,2.3505 5.25,5.25c0,2.8995 -2.3505,5.25 -5.25,5.25c-2.8995,0 -5.25,-2.3505 -5.25,-5.25z" fill="#e24d4d" stroke="none" stroke-width="0.5" stroke-linecap="butt"/><path d="M277.90003,158.65625c0,-2.8995 2.3505,-5.25 5.25,-5.25c2.8995,0 5.25,2.3505 5.25,5.25c0,2.8995 -2.3505,5.25 -5.25,5.25c-2.8995,0 -5.25,-2.3505 -5.25,-5.25z" fill="#e24d4d" stroke="none" stroke-width="0.5" stroke-linecap="butt"/><path d="M265.15558,197.05627c0,-2.8995 2.3505,-5.25 5.25,-5.25c2.8995,0 5.25,2.3505 5.25,5.25c0,2.8995 -2.3505,5.25 -5.25,5.25c-2.8995,0 -5.25,-2.3505 -5.25,-5.25z" fill="#e24d4d" stroke="none" stroke-width="0.5" stroke-linecap="butt"/><path d="M298.87611,285.81845c0,0 -5.28075,1.20856 -8.27417,1.20926c-3.1374,0.00073 -10.13857,-1.20494 -10.13857,-1.20494l4.43853,-43.37739l-14.4,-15.39186l0.7,-16.29726l26.7,27.313z" data-paper-data="{&quot;index&quot;:null}" fill="#790000" stroke="#560000" stroke-width="3" stroke-linecap="butt"/><path d="M234.55003,303.35625c0,0 3.02684,-14.92268 3.85584,-23.02498c0.92675,-9.05766 1.44416,-28.77502 1.44416,-28.77502h11.7l18.25118,-0.09938c0,0 2.29283,21.53305 3.51494,30.95565c1.02684,7.91702 3.3344,21.85353 3.3344,21.85353l-14.55163,-0.0935c0,0 -0.34334,-10.65396 -0.78272,-20.81917c-0.27689,-6.40589 -0.86991,-12.07509 -2.06752,-16.46952c-2.3089,-8.47207 -7.34543,-5.59155 -7.76219,-1.39079c-0.23062,2.32447 0.2014,10.10864 1.07999,19.72513c0.70918,7.76231 1.88356,17.93804 1.88356,17.93804z" fill="#790000" stroke="#560000" stroke-width="3.5" stroke-linecap="butt"/><path d="M253.87503,252.77606l0.5,7.41667" fill="none" stroke="#560000" stroke-width="3.5" stroke-linecap="round"/><path d="M248.35867,232.29073c-0.42374,1.55374 0.96866,4.29751 0.13,5.76516c-0.94659,1.65653 -5.65121,-2.44305 -5.25423,-5.10617c0.42459,-2.84824 5.03119,-3.50213 5.03119,-0.81406z" fill="#530000" stroke="none" stroke-width="0.5" stroke-linecap="butt"/><path d="M253.83324,231.51429c0.28066,1.12264 -1.2983,7.30355 -3.03775,6.81433c-1.33173,-0.37455 -2.23238,-5.89619 -1.16165,-7.34347c0.11185,-0.15118 0.39691,-0.39315 0.54734,-0.35213c0.08011,-0.02068 0.16411,-0.03168 0.25068,-0.03168c0.03275,0 0.06512,0.00158 0.09706,0.00465c0.66397,0.01687 3.04878,-0.11389 3.30433,0.9083z" fill="#530000" stroke="none" stroke-width="0.5" stroke-linecap="butt"/><path d="M262.02437,232.27759c1.39813,0.79894 1.16825,6.58836 -0.85791,6.08182c-1.82006,-0.45502 -3.84856,-4.63831 -3.43415,-6.29595c0.3991,-1.59639 3.3003,-1.14588 4.04852,-0.27296z" fill="#530000" stroke="none" stroke-width="0.5" stroke-linecap="butt"/><path d="M267.84094,233.87408c-0.02654,1.72239 -2.85887,6.38663 -4.52529,5.43438c-1.09876,-0.62787 0.38893,-5.19831 0.38893,-6.4753c-0.16907,-0.17909 -0.27273,-0.42062 -0.27273,-0.68635c0,-0.31008 0.14114,-0.58721 0.36268,-0.77063c1.2089,-1.71077 4.09239,-0.48577 4.04641,2.49791z" fill="#530000" stroke="none" stroke-width="0.5" stroke-linecap="butt"/><path d="M247.66004,242.14286c1.31694,0.52677 3.67001,6.82212 1.22636,6.82212c-1.39422,0 -4.89134,-4.27773 -4.57624,-5.53812c0.22328,-0.89311 2.48159,-2.6957 3.26363,-1.32712z" fill="#530000" stroke="none" stroke-width="0.5" stroke-linecap="butt"/><path d="M251.20458,240.99908c5.77594,-1.44398 3.39697,6.95257 0.13637,7.60227c-0.8895,0.17724 -1.50288,-3.49117 -1.11164,-5.80038c-0.12954,-0.1686 -0.20655,-0.37966 -0.20655,-0.60871c0,-0.51279 0.38597,-0.93543 0.88324,-0.99326c0.08606,-0.07641 0.17987,-0.13412 0.28177,-0.17051z" fill="#530000" stroke="none" stroke-width="0.5" stroke-linecap="butt"/><path d="M263.55352,248.09402c-0.86425,1.29637 -1.81488,0.72289 -2.61243,-0.47538c-0.99245,-0.66329 -1.89276,-1.83624 -1.91836,-2.74456c-0.01732,-0.61443 0.05849,-1.147 0.20047,-1.59848c-0.07825,-0.40287 -0.10816,-0.72586 -0.0797,-0.91679c0.30948,-2.07614 3.36265,-2.4147 3.87923,-0.34838v0.71101c0.0587,0.22275 0.09091,0.47286 0.09091,0.75017l0.06106,0.11447c0.41561,1.66245 0.47177,2.7849 0.30148,3.49895c0.2422,0.31303 0.321,0.64351 0.07735,1.00898z" fill="#530000" stroke="none" stroke-width="0.5" stroke-linecap="butt"/><path d="M268.07651,242.41779c1.34958,0.77119 -2.2729,6.57084 -3.27909,5.99588c-0.82926,-0.47386 -1.2047,-3.6673 -0.84526,-5.74708c-0.01333,-0.06512 -0.02033,-0.13254 -0.02033,-0.20161c0,-0.24234 0.08621,-0.46454 0.22962,-0.63762c0.16349,-0.46651 0.38792,-0.801 0.67947,-0.91919c1.02268,-0.41458 3.22727,0.13995 3.22727,1.49656z" fill="#530000" stroke="none" stroke-width="0.5" stroke-linecap="butt"/><path d="M248.64289,183.62998c0,5.32122 -4.12537,9.63492 -9.21428,9.63492c-5.08891,0 -9.21429,-4.3137 -9.21429,-9.63492c0,-5.32122 3.26818,-4.42928 7.14245,-7.72883c5.25466,-4.47517 11.28612,2.40761 11.28612,7.72883z" fill="#ffffff" stroke="#000000" stroke-width="1.5" stroke-linecap="butt"/><path d="M245.02246,186.09431c-1.07051,2.91067 -4.3787,4.3727 -7.38905,3.26553c-3.01035,-1.10717 -4.58291,-4.36427 -3.5124,-7.27494c1.07051,-2.91067 4.3787,-4.37271 7.38906,-3.26554c1.65118,0.60728 -1.05887,5.37771 -1.05887,5.37771c0,0 5.0546,0.58306 4.57127,1.89723z" fill="#000000" stroke="#000000" stroke-width="1.5" stroke-linecap="butt"/><path d="M235.27802,182.85949c0.29506,-0.87807 2.50389,-2.50706 3.25886,-1.18586c0.36843,0.21744 0.61559,0.61849 0.61559,1.07727c0,0.69036 -0.55964,1.25 -1.25,1.25c-0.11571,0 -0.22775,-0.01572 -0.3341,-0.04515c-1.32777,0.58014 -2.85904,0.59608 -2.29035,-1.09626z" fill="#ffffff" stroke="none" stroke-width="0.5" stroke-linecap="butt"/><path d="M241.11309,187.36033c-1.06734,0.10435 -1.95638,1.27266 -3.25073,0.97739c-2.5147,-0.57367 1.72029,-3.13373 2.41289,-3.32769c0.37902,-0.10615 0.73647,-0.07524 1.03546,0.04519c0.04847,0.01499 0.09647,0.03362 0.14365,0.05601c0.16541,0.07847 0.30141,0.19389 0.40278,0.33172c0.4255,0.49464 0.44102,1.25278 -0.34175,1.77397z" fill="#ffffff" stroke="none" stroke-width="0.5" stroke-linecap="butt"/><path d="M234.36136,199.40941l2.68706,-2.66008c0,0 0.71684,-0.68015 1.9395,0.26642c1.42224,1.10109 1.12573,1.99365 1.12573,1.99365l-3.1591,3.56124c0,0 -1.17181,-1.05137 -1.48927,-1.43179c-0.47878,-0.57375 -1.10393,-1.72944 -1.10393,-1.72944z" fill="#49cde3" stroke="#3fb0c4" stroke-width="0.25" stroke-linecap="butt"/><path d="M236.5396,202.0495l-1.71626,-1.79885l1.84382,-1.75917l1.71626,1.79886z" fill="#cff8ff" stroke="#a6f2ff" stroke-width="0.25" stroke-linecap="butt"/><g stroke-width="0.25" stroke-linecap="butt"><path d="M260.55485,184.48118l7.61729,-7.20667c0,0 0.91579,-0.86893 2.47779,0.34036c1.81697,1.40668 1.43816,2.54697 1.43816,2.54697l-8.26735,7.27659c0,0 -0.83881,0.77257 -2.65487,-0.84184c-1.17586,-1.25017 -0.61102,-2.11541 -0.61102,-2.11541z" fill="#49cde3" stroke="#3fb0c4"/><path d="M264.36982,185.63376l-1.7654,-1.89644l4.83221,-4.41924l1.81242,2.03749z" fill="#cff8ff" stroke="#a6f2ff"/></g><g stroke-width="0.25" stroke-linecap="butt"><path d="M263.88948,177.30539l7.50251,7.12894c0,0 0.90446,0.85695 -0.20536,2.45988c-1.29097,1.86458 -2.43468,1.5511 -2.43468,1.5511l-7.60555,-7.76594c0,0 -0.80545,-0.78614 0.6903,-2.66073c1.17038,-1.22451 2.05278,-0.71325 2.05278,-0.71325z" fill="#49cde3" stroke="#3fb0c4"/><path d="M262.95385,181.12577l1.77638,-1.83947l4.60912,4.53043l-1.91291,1.89321z" fill="#cff8ff" stroke="#a6f2ff"/></g><path d="M249.71431,201.1709c0,0 0.52677,-1.04666 1.27117,-1.61972c0.61688,-0.47489 1.38321,-0.49474 2.12306,-0.49474c0.52325,0 1.4958,-1.42862 2.51679,-1.15972c1.36831,0.36038 3.41179,1.2939 3.41179,1.2939" fill="none" stroke="#030404" stroke-width="1.5" stroke-linecap="round"/><path d="M249.54856,202.0908l-1.42857,-2.85715" fill="none" stroke="#030404" stroke-width="1.5" stroke-linecap="round"/><path d="M259.89425,199.90492l-1.78571,-2.21429" fill="none" stroke="#030404" stroke-width="1.5" stroke-linecap="round"/><path d="M239.10904,192.70576c0,1.30444 -1.11311,2.36189 -2.4862,2.36189c-1.37309,0 -2.4862,-1.05745 -2.4862,-2.36189c0,-1.30444 1.11311,-2.36189 2.4862,-2.36189c1.37309,0 2.4862,1.05745 2.4862,2.36189z" fill="#a0d9e3" stroke="none" stroke-width="0" stroke-linecap="butt"/><path d="M211.90924,235.89517l26.7,-27.313l0.7,16.29726l-14.4,15.39186l4.43853,43.37739c0,0 -7.00117,1.20567 -10.13857,1.20494c-2.99342,-0.0007 -8.27417,-1.20926 -8.27417,-1.20926z" data-paper-data="{&quot;index&quot;:null}" fill="#790000" stroke="#560000" stroke-width="3" stroke-linecap="butt"/></g></g></svg>