<svg version="1.1" xmlns="http://www.w3.org/2000/svg" xmlns:xlink="http://www.w3.org/1999/xlink" width="102.3613" height="223.2593" viewBox="0,0,102.3613,223.2593"><g transform="translate(-191.76442,-90.853)"><g data-paper-data="{&quot;isPaintingLayer&quot;:true}" fill-rule="nonzero" stroke-linejoin="miter" stroke-miterlimit="10" stroke-dasharray="" stroke-dashoffset="0" style="mix-blend-mode: normal"><path d="M288.7096,242.30912c0.24237,1.79909 1.17278,9.60721 0.70268,10.91626c-0.48613,1.35371 -2.38957,-3.80457 -3.14072,-2.71882c-0.88373,1.27739 -1.95029,3.94549 -3.29486,4.12663c-3.59259,0.48397 -6.48916,-4.72304 -7.27702,-10.57144c-0.78787,-5.8484 1.48581,-10.98181 5.0784,-11.46578c3.59259,-0.48397 7.14366,3.86476 7.93152,9.71316z" fill="#ff33fd" stroke="#a220a0" stroke-width="1" stroke-linecap="butt"/><path d="M209.59674,239.67119c0,1.81534 -0.12036,9.67778 -0.76102,10.91235c-0.66252,1.27669 -1.86024,-4.08955 -2.74963,-3.11379c-1.04636,1.14796 -2.45958,3.6498 -3.81629,3.6498c-3.62504,0 -5.8005,-5.54712 -5.8005,-11.44835c0,-5.90123 2.93868,-10.68512 6.56372,-10.68512c3.62504,0 6.56372,4.7839 6.56372,10.68513z" fill="#ff33fd" stroke="#a220a0" stroke-width="1" stroke-linecap="butt"/><path d="M216.19805,307.94876v-84.14333l42.44653,-0.62794l1.97425,85.39921l-12.58977,0.88782c0,0 -7.94431,-66.79176 -10.90733,-66.83365c-2.4238,-0.03427 -7.09582,67.21363 -7.09582,67.21363z" fill="#383838" stroke="#272727" stroke-width="0.5" stroke-linecap="butt"/><path d="M241.51306,157.0955l-4.50967,-1.2099" fill="none" stroke="#d5da73" stroke-width="1" stroke-linecap="round"/><path d="M226.08394,157.45205v-15.58218h8.27501v15.58218c0,0 5.60071,0.52772 10.75748,3.59241c5.4848,3.25964 10.50957,9.08849 9.21727,9.80675c-5.64236,3.13601 -44.20864,2.27468 -45.20148,2.27468c-0.68345,0 2.72681,-6.35005 7.31279,-10.42034c4.22941,-3.7538 9.63893,-5.2535 9.63893,-5.2535z" fill="#ff33fd" stroke="#a220a0" stroke-width="1" stroke-linecap="butt"/><path d="M293.62572,236.42733c0,1.65841 -19.73216,3.04643 -22.89477,3.94579c-1.20556,0.34283 -6.19762,-18.5059 -11.98256,-34.33115c-6.03321,-16.50442 -12.85838,-30.0096 -13.65025,-29.40153c-1.99479,1.53178 0.88561,5.04692 2.41189,20.03297c1.26439,12.41462 13.53324,23.93576 11.90694,24.61171c-4.8516,2.01652 -35.72939,4.91389 -43.50682,1.17957c-0.34393,-0.16514 5.98353,-14.46704 5.25316,-25.77488c-1.0704,-16.57246 -1.3288,-19.28903 -3.15315,-18.66703c-1.90692,0.65014 -2.99553,57.51962 -5.00572,59.00127c-4.6343,3.41577 -18.11921,0.39773 -20.26996,0.18198c-3.62713,-0.36384 14.92752,-65.53707 14.92752,-66.59047c0,-0.98572 3.02379,-5.64726 7.37783,-9.14723c3.85639,-3.09995 9.15942,-4.39738 10.59852,-4.48331c2.1004,-0.12542 -2.37889,1.16182 -4.91638,3.95423c-1.44788,1.59333 1.06589,2.83261 2.43994,3.0068c2.85432,0.36184 7.12283,1.16992 9.80716,1.16992c2.64836,0 10.75516,1.06644 10.08078,-2.21009c-0.31145,-1.51323 -0.50619,-2.09152 -2.83366,-3.83354c-1.46819,-1.09888 -4.36891,-0.63098 -5.56621,-1.23036c-1.02835,-0.51479 -1.10038,-1.63243 -0.53711,-1.56979c0.90771,0.10093 7.26176,0.0731 12.22646,3.20265c1.25395,0.79044 4.16691,3.462 7.93955,9.4313c4.80896,7.60903 10.85247,18.53392 17.20624,29.38576c11.091,18.94275 22.14059,37.66293 22.14059,38.13544z" fill="#e5ff99" stroke="#d5da73" stroke-width="1" stroke-linecap="butt"/><path d="M239.15525,158.60352l2.1531,-0.1604l3.05292,1.83319l2.24952,2.93312v2.74979l-0.96408,2.38316l-3.21359,0.54996l-2.24952,-0.18332l-4.17768,-0.18331h-4.33835l-3.85632,-0.36664l-4.8204,-0.73328l-3.69563,-2.38316l-0.96408,-3.48307l2.70873,-2.17477l2.31379,-1.20991" fill="none" stroke="#d5da73" stroke-width="1" stroke-linecap="round"/><path d="M224.0192,165.31303l-1.34971,1.3199" fill="none" stroke="#d5da73" stroke-width="1" stroke-linecap="round"/><path d="M219.58444,164.3231h0.86767" fill="none" stroke="#d5da73" stroke-width="1" stroke-linecap="round"/><path d="M222.7752,158.83483l-2.80513,3.39843l-0.77126,-0.87993" fill="none" stroke="#d5da73" stroke-width="1" stroke-linecap="round"/><path d="M235.21182,156.52502l7.60693,2.18851l-1.54253,1.75987l1.2533,1.86986l2.98865,0.10998" fill="none" stroke="#d5da73" stroke-width="1" stroke-linecap="round"/><path d="M242.33671,165.20304l2.98864,1.31991" fill="none" stroke="#d5da73" stroke-width="1" stroke-linecap="round"/><path d="M228.8396,165.31303l-0.57844,1.97985" fill="none" stroke="#d5da73" stroke-width="1" stroke-linecap="round"/><path d="M231.73184,165.97298l0.38563,1.97986" fill="none" stroke="#d5da73" stroke-width="1" stroke-linecap="round"/><path d="M237.51632,166.41295l0.28922,1.3199" fill="none" stroke="#d5da73" stroke-width="1" stroke-linecap="round"/><path d="M240.69778,165.97298l1.63893,2.08984" fill="none" stroke="#d5da73" stroke-width="1" stroke-linecap="round"/><path d="M210.06889,151.1656v-47.0676l43.19408,-0.70425l2.42974,47.4831z" fill="#ffacfe" stroke="#ff64fc" stroke-width="1" stroke-linecap="butt"/><path d="M235.80627,110.47455c0,0 -5.23833,-6.02856 -8.62791,-7.99111c-3.5417,-2.05065 -12.186,-4.0601 -12.186,-4.0601l3.07151,-1.21489l-1.74034,-4.18972c0,0 8.10562,3.20053 11.71861,5.22802c3.24264,1.81965 8.96867,6.38097 8.96867,6.38097z" fill="#c12cbf" stroke="#732d72" stroke-width="1" stroke-linecap="butt"/><path d="M237.31601,109.09581c0,0 -4.80626,-5.38121 -7.50857,-7.51616c-2.54634,-2.01173 -8.26519,-4.94586 -8.26519,-4.94586l3.05428,-0.87145l-0.54655,-3.92341c0,0 6.07275,3.7616 8.80481,5.84992c2.50378,1.91383 6.96253,6.20225 6.96253,6.20225z" fill="#ff4efc" stroke="#ff64fc" stroke-width="1" stroke-linecap="butt"/><path d="M210.40029,150.55161v-46.20133h35.80603v46.20133z" fill="#ff33fd" stroke="#a220a0" stroke-width="1" stroke-linecap="butt"/><path d="M249.62879,150.87684l-0.86627,-29.74211" fill="none" stroke="#ff64fc" stroke-width="1" stroke-linecap="round"/><path d="M251.93885,104.96427v19.92433" fill="none" stroke="#ff64fc" stroke-width="1" stroke-linecap="round"/><path d="M252.22762,130.95251l2.31007,19.63557" fill="none" stroke="#ff64fc" stroke-width="1" stroke-linecap="round"/><path d="M245.46926,126.20622c0,4.47289 -3.31069,8.09889 -7.39464,8.09889c-4.08394,0 -7.39464,-3.626 -7.39464,-8.09889c0,-4.47289 3.3107,-8.09889 7.39464,-8.09889c4.08395,0 7.39464,3.626 7.39464,8.09889z" fill="#ffffff" stroke="#000000" stroke-width="1" stroke-linecap="butt"/><path d="M237.71798,127.13068c0,0 2.82613,1.1842 2.5844,1.61538c-0.52263,0.93222 -1.53233,1.56382 -2.69217,1.56382c-1.69631,0 -3.07143,-1.351 -3.07143,-3.01755c0,-1.66655 1.37513,-3.01755 3.07143,-3.01755c1.22085,0 2.27533,0.48426 2.77054,1.49782c0.19286,0.39474 -2.66277,1.35807 -2.66277,1.35807z" fill="#000000" stroke="none" stroke-width="1" stroke-linecap="butt"/><path d="M243.21446,135.44072c0.83673,0.31304 1.67721,2.95544 1.67721,3.1928c0,0.34771 -0.66202,1.02223 -0.92458,1.35793c-1.73621,2.21998 -3.38527,3.6352 -6.27761,3.79589c-1.46777,0.08155 -1.37667,-1.81776 -1.64934,-2.64874c-0.09882,-0.30113 -0.97941,-1.57986 -0.91003,-1.82005c0.46076,-1.5951 1.96406,-3.55265 3.57547,-4.08978l0.69784,-0.12106c0.09186,0 0.18233,0.00601 0.27101,0.01765c1.21819,0.05791 2.25677,-0.16473 3.54001,0.31537z" fill="#ff17ce" stroke="none" stroke-width="1" stroke-linecap="butt"/><path d="M235.4529,137.05663l0.43997,-2.85979" fill="none" stroke="#000000" stroke-width="1" stroke-linecap="round"/><path d="M239.96257,137.05663l0.76994,-2.96978" fill="none" stroke="#000000" stroke-width="1" stroke-linecap="round"/><path d="M235.91781,111.93908c0,0 3.27348,-0.5297 4.45537,-0.19495c1.07659,0.30492 2.34962,2.12233 2.34962,2.12233" fill="none" stroke="#000000" stroke-width="1" stroke-linecap="round"/><path d="M209.56482,129.08619l-0.03468,-4.57154l12.59874,-2.45069l1.13459,4.57154z" fill="#e7ff17" stroke="#c0c300" stroke-width="1" stroke-linecap="butt"/><path d="M226.93652,123.20383c0,3.37476 -5.41504,6.11054 -5.41504,6.11054c0,0 -5.21632,-2.73578 -5.21632,-6.11054c0,-1.0935 1.32359,-3.646 1.70444,-4.11303c2.25251,-2.76219 4.10802,2.77169 4.10802,2.77169c0,0 3.07269,-3.77081 3.62624,-3.20215c1.43411,1.47329 1.19265,2.55657 1.19265,4.54349z" fill="#e7ff17" stroke="#c0c300" stroke-width="1" stroke-linecap="butt"/><g fill="#3b3e27" stroke="none" stroke-width="1" stroke-linecap="butt"><path d="M222.74928,123.84602c0,0.74092 -0.56726,1.34154 -1.26701,1.34154c-0.69975,0 -1.267,-0.60063 -1.267,-1.34154c0,-0.74092 0.56726,-1.34153 1.267,-1.34153c0.69975,0 1.26701,0.60063 1.26701,1.34153z"/><path d="M219.87989,126.82721l1.34153,-2.45948l0.63351,0.07453l1.04342,2.27316z"/></g><path d="M214.86975,226.66569l1.44612,-3.48307l44.02628,-0.73328l3.05292,3.84972z" fill="#e5ff99" stroke="#d5da73" stroke-width="1" stroke-linecap="butt"/><path d="M220.33286,226.48237l0.8034,-3.29975" fill="none" stroke="#d5da73" stroke-width="1" stroke-linecap="round"/><path d="M229.00959,226.11574l-0.64273,-2.56648" fill="none" stroke="#d5da73" stroke-width="1" stroke-linecap="round"/><path d="M237.36493,225.74909l-1.6068,-2.56647" fill="none" stroke="#d5da73" stroke-width="1" stroke-linecap="round"/><path d="M244.75621,222.81597l2.73156,2.93312" fill="none" stroke="#d5da73" stroke-width="1" stroke-linecap="round"/><path d="M256.16447,225.56577l-3.37427,-3.11643" fill="none" stroke="#d5da73" stroke-width="1" stroke-linecap="round"/><path d="M214.78934,312.97157v-4.05998h16.46261v4.05998z" fill="#141414" stroke="#272727" stroke-width="0.5" stroke-linecap="butt"/><path d="M232.5421,307.25495c0,2.84954 -4.35278,5.15956 -9.72221,5.15956c-5.36943,0 -9.72221,-2.31002 -9.72221,-5.15956c0,-2.84954 4.35278,-5.15956 9.72221,-5.15956c5.36943,0 9.72221,2.31002 9.72221,5.15956z" fill="#282828" stroke="#272727" stroke-width="0.5" stroke-linecap="butt"/><path d="M246.09294,313.80879v-4.05998h17.83641v4.05998z" fill="#141414" stroke="#272727" stroke-width="0.5" stroke-linecap="butt"/><path d="M264.60893,308.70274c0,2.84954 -4.35278,5.15956 -9.72221,5.15956c-5.36943,0 -9.72221,-2.31002 -9.72221,-5.15956c0,-2.84954 4.35278,-5.15956 9.72221,-5.15956c5.36943,0 9.72221,2.31002 9.72221,5.15956z" fill="#282828" stroke="#272727" stroke-width="0.5" stroke-linecap="butt"/><path d="M221.35714,144.57364l-0.42857,-0.11158c0,0 2.40779,-5.41336 5.35249,-5.41336c3.37688,0 9.07608,5.98478 9.07608,5.98478l-0.71429,0.25444c0,0 -3.60423,-2.83686 -6.66272,-2.83686c-3.30355,0 -6.62299,2.12257 -6.62299,2.12257z" fill="#571156" stroke="#4f104e" stroke-width="1" stroke-linecap="butt"/><g fill="#fffe3d" stroke="#ffde00" stroke-width="0.5" stroke-linecap="butt"><path d="M227.2713,160.57024c0,1.32162 -1.08364,2.39299 -2.42038,2.39299c-1.33674,0 -2.42037,-1.07137 -2.42037,-2.39299c0,-1.32162 1.08363,-2.39299 2.42037,-2.39299c1.33674,0 2.42038,1.07138 2.42038,2.39299z"/><path d="M229.8691,162.73249c0,1.32162 -1.08363,2.39299 -2.42037,2.39299c-1.33674,0 -2.42037,-1.07137 -2.42037,-2.39299c0,-1.32162 1.08363,-2.39299 2.42037,-2.39299c1.33674,0 2.42037,1.07138 2.42037,2.39299z"/><path d="M233.02566,164.52731c0,1.32162 -1.08364,2.39299 -2.42038,2.39299c-1.33674,0 -2.42037,-1.07137 -2.42037,-2.39299c0,-1.32162 1.08363,-2.39299 2.42037,-2.39299c1.33674,0 2.42038,1.07138 2.42038,2.39299z"/><path d="M236.50499,163.07434c0,1.32162 -1.08364,2.39299 -2.42037,2.39299c-1.33674,0 -2.42037,-1.07137 -2.42037,-2.39299c0,-1.32162 1.08363,-2.393 2.42037,-2.393c1.33674,0 2.42037,1.07138 2.42037,2.393z"/><path d="M238.63132,160.26247c0,1.32162 -1.08364,2.39299 -2.42038,2.39299c-1.33674,0 -2.42037,-1.07137 -2.42037,-2.39299c0,-1.32162 1.08363,-2.393 2.42037,-2.393c1.33674,0 2.42038,1.07138 2.42038,2.393z"/><path d="M238.3229,157.17156c0,1.32162 -1.08363,2.39299 -2.42037,2.39299c-1.33674,0 -2.42037,-1.07137 -2.42037,-2.39299c0,-1.32162 1.08364,-2.39299 2.42037,-2.39299c1.33674,0 2.42037,1.07137 2.42037,2.39299z"/><path d="M227.2713,157.15168c0,1.32162 -1.08364,2.39299 -2.42038,2.39299c-1.33674,0 -2.42036,-1.07137 -2.42036,-2.39299c0,-1.32162 1.08363,-2.393 2.42036,-2.393c1.33674,0 2.42038,1.07138 2.42038,2.393z"/></g></g></g></svg>