<svg version="1.1" xmlns="http://www.w3.org/2000/svg" xmlns:xlink="http://www.w3.org/1999/xlink" width="58" height="50" viewBox="0,0,58,50"><g transform="translate(-211,-155)"><g data-paper-data="{&quot;isPaintingLayer&quot;:true}" fill-rule="nonzero" stroke-linejoin="miter" stroke-miterlimit="10" stroke-dasharray="" stroke-dashoffset="0" style="mix-blend-mode: normal"><path d="M213,203v-46h54v46z" fill="#2e2e2e" stroke="#161616" stroke-width="4" stroke-linecap="butt"/><g fill="#bdbdbd" stroke="#a5a5a5" stroke-width="1"><path d="M227.25885,193.13641l-5.61036,-0.75944l0.07043,-0.04587l1.87012,-4.82914z" stroke-linecap="butt"/><path d="M258.74138,172.63132l-31.4121,20.45921l-3.5322,-5.42317l31.41209,-20.45921z" stroke-linecap="butt"/><path d="M255.29352,166.95262c0.60292,-0.39269 1.91319,0.55029 2.92658,2.1062c1.01339,1.55591 1.34615,3.13556 0.74323,3.52825c-0.60292,0.39269 -1.91319,-0.55029 -2.92658,-2.1062c-1.01339,-1.55591 -1.34615,-3.13556 -0.74323,-3.52825z" stroke-linecap="butt"/><path d="M256.39446,168.64295c0.36953,-0.24068 1.01824,0.10027 1.44893,0.76154c0.43069,0.66127 0.48028,1.39244 0.11075,1.63311c-0.36953,0.24068 -1.01824,-0.10027 -1.44893,-0.76154c-0.43069,-0.66127 -0.48028,-1.39244 -0.11075,-1.63311z" stroke-linecap="butt"/><path d="M223.50611,193.07293l-2.58648,-0.12093l-0.18349,-0.28172l1.35116,-2.08373z" stroke-linecap="butt"/><path d="M256.394,171.95343l-24.53121,15.77696" stroke-linecap="round"/><path d="M254.6754,169.16076l-28.57355,18.81104" stroke-linecap="round"/></g></g></g></svg>