<svg version="1.1" xmlns="http://www.w3.org/2000/svg" xmlns:xlink="http://www.w3.org/1999/xlink" width="140.39168" height="148.29901" viewBox="0,0,140.39168,148.29901"><defs><linearGradient x1="273.77131" y1="153.14727" x2="273.77131" y2="250.74048" gradientUnits="userSpaceOnUse" id="color-1"><stop offset="0" stop-color="#2a96bd"/><stop offset="1" stop-color="#2a96bd" stop-opacity="0"/></linearGradient><linearGradient x1="273.77131" y1="153.14727" x2="273.77131" y2="250.74048" gradientUnits="userSpaceOnUse" id="color-2"><stop offset="0" stop-color="#1e6b87"/><stop offset="1" stop-color="#1e6b87" stop-opacity="0"/></linearGradient><linearGradient x1="241.77193" y1="201.439" x2="241.77193" y2="281.03361" gradientUnits="userSpaceOnUse" id="color-3"><stop offset="0" stop-color="#2a96bd"/><stop offset="1" stop-color="#2a96bd" stop-opacity="0"/></linearGradient><linearGradient x1="241.77193" y1="201.439" x2="241.77193" y2="281.03361" gradientUnits="userSpaceOnUse" id="color-4"><stop offset="0" stop-color="#1e6b87"/><stop offset="1" stop-color="#1e6b87" stop-opacity="0"/></linearGradient><linearGradient x1="240" y1="156.82233" x2="240" y2="203.17769" gradientUnits="userSpaceOnUse" id="color-5"><stop offset="0" stop-color="#36c0f3"/><stop offset="1" stop-color="#36c0f3" stop-opacity="0"/></linearGradient><linearGradient x1="240" y1="156.82233" x2="240" y2="203.17769" gradientUnits="userSpaceOnUse" id="color-6"><stop offset="0" stop-color="#1e6b87"/><stop offset="1" stop-color="#1e6b87" stop-opacity="0"/></linearGradient><linearGradient x1="241.45192" y1="149.7216" x2="241.45192" y2="185.03301" gradientUnits="userSpaceOnUse" id="color-7"><stop offset="0" stop-color="#2a96bd"/><stop offset="1" stop-color="#2a96bd" stop-opacity="0"/></linearGradient><linearGradient x1="241.45192" y1="149.7216" x2="241.45192" y2="185.03301" gradientUnits="userSpaceOnUse" id="color-8"><stop offset="0" stop-color="#1e6b87"/><stop offset="1" stop-color="#1e6b87" stop-opacity="0"/></linearGradient><linearGradient x1="209.24666" y1="209.1053" x2="209.24666" y2="273.63933" gradientUnits="userSpaceOnUse" id="color-9"><stop offset="0" stop-color="#2a96bd"/><stop offset="1" stop-color="#2a96bd" stop-opacity="0"/></linearGradient><linearGradient x1="209.24666" y1="209.1053" x2="209.24666" y2="273.63933" gradientUnits="userSpaceOnUse" id="color-10"><stop offset="0" stop-color="#1e6b87"/><stop offset="1" stop-color="#1e6b87" stop-opacity="0"/></linearGradient><linearGradient x1="197.95176" y1="269.91247" x2="197.95176" y2="295.81696" gradientUnits="userSpaceOnUse" id="color-11"><stop offset="0" stop-color="#86dfff"/><stop offset="1" stop-color="#86dfff" stop-opacity="0"/></linearGradient><linearGradient x1="197.95176" y1="269.91247" x2="197.95176" y2="295.81696" gradientUnits="userSpaceOnUse" id="color-12"><stop offset="0" stop-color="#6cb2cc"/><stop offset="1" stop-color="#6cb2cc" stop-opacity="0"/></linearGradient><linearGradient x1="274.03792" y1="209.06736" x2="274.03792" y2="273.60139" gradientUnits="userSpaceOnUse" id="color-13"><stop offset="0" stop-color="#2a96bd"/><stop offset="1" stop-color="#2a96bd" stop-opacity="0"/></linearGradient><linearGradient x1="274.03792" y1="209.06736" x2="274.03792" y2="273.60139" gradientUnits="userSpaceOnUse" id="color-14"><stop offset="0" stop-color="#1e6b87"/><stop offset="1" stop-color="#1e6b87" stop-opacity="0"/></linearGradient><linearGradient x1="285.33282" y1="269.87455" x2="285.33282" y2="295.77902" gradientUnits="userSpaceOnUse" id="color-15"><stop offset="0" stop-color="#86dfff"/><stop offset="1" stop-color="#86dfff" stop-opacity="0"/></linearGradient><linearGradient x1="285.33282" y1="269.87455" x2="285.33282" y2="295.77902" gradientUnits="userSpaceOnUse" id="color-16"><stop offset="0" stop-color="#6cb2cc"/><stop offset="1" stop-color="#6cb2cc" stop-opacity="0"/></linearGradient><linearGradient x1="201.625" y1="213.70313" x2="201.625" y2="217.45313" gradientUnits="userSpaceOnUse" id="color-17"><stop offset="0" stop-color="#000000" stop-opacity="0"/><stop offset="1" stop-color="#000000" stop-opacity="0"/></linearGradient><linearGradient x1="278.625" y1="254.45313" x2="278.625" y2="252.70313" gradientUnits="userSpaceOnUse" id="color-18"><stop offset="0" stop-color="#000000" stop-opacity="0"/><stop offset="1" stop-color="#000000" stop-opacity="0"/></linearGradient><linearGradient x1="265.125" y1="191.45313" x2="265.125" y2="195.20313" gradientUnits="userSpaceOnUse" id="color-19"><stop offset="0" stop-color="#000000" stop-opacity="0"/><stop offset="1" stop-color="#000000" stop-opacity="0"/></linearGradient><linearGradient x1="219.625" y1="159.70313" x2="219.625" y2="163.45313" gradientUnits="userSpaceOnUse" id="color-20"><stop offset="0" stop-color="#000000" stop-opacity="0"/><stop offset="1" stop-color="#000000" stop-opacity="0"/></linearGradient><linearGradient x1="256.125" y1="264.95313" x2="256.125" y2="268.70313" gradientUnits="userSpaceOnUse" id="color-21"><stop offset="0" stop-color="#000000" stop-opacity="0"/><stop offset="1" stop-color="#000000" stop-opacity="0"/></linearGradient><linearGradient x1="230.125" y1="239.45313" x2="230.125" y2="243.20313" gradientUnits="userSpaceOnUse" id="color-22"><stop offset="0" stop-color="#000000" stop-opacity="0"/><stop offset="1" stop-color="#000000" stop-opacity="0"/></linearGradient><linearGradient x1="208.625" y1="272.95313" x2="208.625" y2="276.70313" gradientUnits="userSpaceOnUse" id="color-23"><stop offset="0" stop-color="#000000" stop-opacity="0"/><stop offset="1" stop-color="#000000" stop-opacity="0"/></linearGradient></defs><g transform="translate(-185.38502,-148.71496)"><g data-paper-data="{&quot;isPaintingLayer&quot;:true}" fill-rule="nonzero" stroke-linecap="butt" stroke-linejoin="miter" stroke-miterlimit="10" stroke-dasharray="" stroke-dashoffset="0" style="mix-blend-mode: normal"><path d="M277.80241,240.96567l-54.73837,-63.46917l28.54694,-24.34923l67.93373,85.24089l4.93387,7.01165l-5.26027,5.34067l-5.50209,-6.93613l-6.5353,4.6349l-16.78766,-17.3363z" fill="url(#color-1)" stroke="url(#color-2)" stroke-width="2"/><path d="M243.10662,281.03361l-15.39757,-40.02077l-1.70342,-29.79847l5.39118,-9.77537l17.37153,0.27232l6.26507,8.14799l2.50481,29.44572l-8.49756,41.45626z" fill="url(#color-3)" stroke="url(#color-4)" stroke-width="2"/><path d="M216.22802,203.17769v-46.35536h47.54396v46.35536z" fill="url(#color-5)" stroke="url(#color-6)" stroke-width="2"/><path d="M222.07918,188.79116v-17.29238h10.89284v17.29238z" fill="#ffffff" stroke="#1e6b87" stroke-width="1.5"/><path d="M225.1147,184.81415v-9.68191h5.11291v9.68191z" fill="#661717" stroke="#4f1212" stroke-width="2"/><path d="M217.44972,178.03448v-0.40849h3.54017v0.40849z" fill="#ffffff" stroke="#1e6b87" stroke-width="1.5"/><path d="M210.95196,164.59253l0.13616,-10.3482l5.57986,-0.19172l-0.26899,-4.33101l48.81872,0.30353l0.06187,4.12565l5.85532,-0.17877l1.22545,10.62052h-42.20975l-0.18795,12.97548l0.11598,7.465l-9.18999,-0.08567l-1.0858,-7.32914l-9.25936,0.04574z" fill="url(#color-7)" stroke="url(#color-8)" stroke-width="2"/><path d="M244.85592,188.8291v-17.29238h10.89284v17.29238z" fill="#ffffff" stroke="#1e6b87" stroke-width="1.5"/><path d="M247.23977,185.01176v-9.68191h5.11291v9.68191z" fill="#661717" stroke="#4f1212" stroke-width="2"/><path d="M256.83804,178.07242v-0.40848h3.54018v0.40848z" fill="#ffffff" stroke="#1e6b87" stroke-width="1.5"/><path d="M234.89972,197.08685v-1.39122h8.88245v1.39122z" fill="#000000" stroke="none" stroke-width="NaN"/><path d="M243.24708,195.80264v-1.39122h3.74561v1.39122z" fill="#000000" stroke="none" stroke-width="0"/><path d="M231.96422,195.69906v-1.39122h3.74561v1.39122z" fill="#000000" stroke="none" stroke-width="0"/><path d="M195.63741,270.11933l16.87762,-61.01403l10.34088,3.52l-16.87762,61.01403z" fill="url(#color-9)" stroke="url(#color-10)" stroke-width="2"/><path d="M190.11908,282.40774l2.59133,-12.49527l16.52549,2.39625l-2.59133,12.49527l-1.67634,8.58352l-5.22566,-0.56718l1.03021,-8.86777l-2.88583,11.86439l-11.21933,-2.59404z" fill="url(#color-11)" stroke="url(#color-12)" stroke-width="2"/><path d="M277.30628,273.60139l-16.87761,-61.01403l10.34088,-3.52l16.87762,61.01403z" data-paper-data="{&quot;index&quot;:null}" fill="url(#color-13)" stroke="url(#color-14)" stroke-width="2"/><path d="M296.61696,293.18498l-11.21933,2.59404l-2.88583,-11.86439l1.03021,8.86777l-5.22566,0.56718l-1.67634,-8.58352l-2.59133,-12.49526l16.52549,-2.39625l2.59133,12.49526z" data-paper-data="{&quot;index&quot;:null}" fill="url(#color-15)" stroke="url(#color-16)" stroke-width="2"/><path d="M190.375,217.45313v-3.75h22.5v3.75z" fill="#145c34" stroke="url(#color-17)" stroke-width="0"/><path d="M267.375,252.70313v1.75h22.5v-1.75z" fill="#145c34" stroke="url(#color-18)" stroke-width="0"/><path d="M253.875,195.20313v-3.75h22.5v3.75z" fill="#145c34" stroke="url(#color-19)" stroke-width="0"/><path d="M208.375,163.45313v-3.75h22.5v3.75z" fill="#145c34" stroke="url(#color-20)" stroke-width="0"/><path d="M244.875,268.70313v-3.75h22.5v3.75z" fill="#145c34" stroke="url(#color-21)" stroke-width="0"/><path d="M218.875,243.20313v-3.75h22.5v3.75z" fill="#145c34" stroke="url(#color-22)" stroke-width="0"/><path d="M197.375,276.70313v-3.75h22.5v3.75z" fill="#145c34" stroke="url(#color-23)" stroke-width="0"/><text transform="translate(202.125,265.0035) scale(0.34255,0.34255)" font-size="40" xml:space="preserve" fill="#145c34" fill-rule="nonzero" stroke="none" stroke-width="1" stroke-linecap="butt" stroke-linejoin="miter" stroke-miterlimit="10" stroke-dasharray="" stroke-dashoffset="0" font-family="Pixel" font-weight="normal" text-anchor="start" style="mix-blend-mode: normal"><tspan x="0" dy="0">Error: 1001</tspan></text></g></g></svg>