<svg version="1.1" xmlns="http://www.w3.org/2000/svg" xmlns:xlink="http://www.w3.org/1999/xlink" width="82.49282" height="159.75857" viewBox="0,0,82.49282,159.75857"><g transform="translate(-207.69309,-148.33669)"><g data-paper-data="{&quot;isPaintingLayer&quot;:true}" fill-rule="nonzero" stroke-linejoin="miter" stroke-miterlimit="10" stroke-dasharray="" stroke-dashoffset="0" style="mix-blend-mode: normal"><path d="M261.89631,274.47017c-0.94582,1.65519 -1.95743,2.16462 -2.93115,2.74413c-0.77845,0.46329 -1.53267,0.97137 -2.20969,2.14548c-0.72603,1.2591 2.1387,2.24587 2.67777,2.61868c2.05618,1.42203 1.77608,3.89067 0.17276,5.57383c-2.54939,2.67634 -13.39753,-1.01111 -9.74115,-7.21639c0.13412,-0.22761 -0.87288,-1.54437 -0.62487,-1.97839c0.88101,-1.54176 5.63375,-6.17651 7.49419,-6.37105c0.87707,-0.09171 3.27755,-0.81436 3.80788,0.11372z" fill="#fff5d4" stroke="none" stroke-width="0.5" stroke-linecap="butt"/><path d="M234.88154,263.39661c0.02602,0.04625 0.04763,0.10331 0.06579,0.1688c0.17803,0.36418 0.27796,0.77352 0.27796,1.2062c0,0.21511 -0.0247,0.42445 -0.07141,0.62534c0.01923,0.07071 0.0426,0.13061 0.07141,0.17638c3.04649,4.83967 6.64202,9.52112 2.40372,15.64945c-1.6902,2.44393 -5.3856,6.1277 -7.4175,1.59237c-2.49574,-5.57062 4.27472,-5.66036 3.52895,-7.31271c-1.07365,-2.3788 -3.13701,-0.77989 -4.40814,-2.68659c-1.56593,-2.3489 0.34529,-2.47161 0.39298,-4.3808c0.04223,-1.69061 -1.08831,-4.22013 0.38001,-5.05917c0.47837,-0.81054 1.36068,-1.35428 2.36999,-1.35428c0.89493,0 1.69001,0.42748 2.1922,1.0894c0.08196,0.08466 0.15412,0.17906 0.21405,0.2856z" fill="#fff5d4" stroke="none" stroke-width="0.5" stroke-linecap="butt"/><path d="M227.32863,228.55513c0.09966,-0.05606 0.21925,-0.10559 0.35618,-0.14885c0.31508,-0.12575 0.65887,-0.1949 1.01882,-0.1949c0.02456,0 0.04904,0.00032 0.07344,0.00096c2.66159,-0.23405 7.42685,0.55639 8.125,1.77814c0.83084,1.45398 0.22496,7.53865 -0.53881,8.8116c-1.43656,2.39427 -10.14023,6.20868 -10.14023,0.64553c0,-1.22184 3.01563,-4.24365 3.82007,-5.6349c0.13872,-0.2399 -0.00956,-0.30729 -0.29776,-0.3055c-0.32129,0.13161 -0.67303,0.20416 -1.04171,0.20416c-0.22047,0 -0.43488,-0.02594 -0.64034,-0.07495c-1.20995,-0.28856 -2.10966,-1.37674 -2.10966,-2.67505c0,-0.89493 0.42748,-1.69001 1.0894,-2.1922c0.08466,-0.08196 0.17906,-0.15412 0.2856,-0.21405z" fill="#fff5d4" stroke="none" stroke-width="0.5" stroke-linecap="butt"/><path d="M218.60097,219.32104c0.2326,0.13292 1.04415,0.48588 2.10937,0.98551c4.22404,1.98123 12.43694,6.26865 4.35633,8.28615c-1.907,0.47612 -7.76782,-2.43455 -8.79068,-3.6754c-0.58132,-0.70521 -0.74189,-3.84377 -0.04502,-4.24198z" fill="#fff5d4" stroke="none" stroke-width="0.5" stroke-linecap="butt"/><path d="M222.23325,208.28013l6.85603,-3.84729l3.31075,1.52343l-6.12232,18.21663c-0.0036,-0.00137 -0.00722,-0.00274 -0.01085,-0.0041c-0.03723,-0.01396 -0.07385,-0.02657 -0.10985,-0.03788c-0.23894,-0.51146 -0.75796,-0.86584 -1.35975,-0.86584c-0.04096,0 -0.08155,0.00164 -0.12168,0.00486c-0.08355,-0.2064 -0.168,-0.41156 -0.26209,-0.60354l0.16516,-0.4542c0.06598,-0.16901 0.10219,-0.35291 0.10219,-0.54528c0,-0.82843 -0.67157,-1.5 -1.5,-1.5c-0.66065,0 -1.22155,0.4271 -1.42164,1.02025l-0.05819,0.16002c-0.13595,-0.08741 -0.28694,-0.15346 -0.44822,-0.19341c-0.11301,-0.23561 -0.22413,-0.47471 -0.34361,-0.69829v-0.00089c0,-0.82843 -0.67157,-1.5 -1.5,-1.5c-0.3168,0 -0.61066,0.09821 -0.8528,0.26584z" fill="#ff83e4" stroke="#cc68b6" stroke-width="3" stroke-linecap="butt"/><g stroke-width="1" stroke-linecap="butt"><path d="M260.4007,303.44322c0,2.20851 -2.76338,3.99887 -6.17217,3.99887c-3.40879,0 -6.17216,-1.79035 -6.17216,-3.99887c0,-2.20851 2.76337,-3.99887 6.17216,-3.99887c3.40879,0 6.17217,1.79036 6.17217,3.99887z" fill="#fff5d4" stroke="#ebecae"/><path d="M249.99111,299.96594c0,0 -0.89156,-14.2867 -0.89156,-21.64251c0,-7.80201 0.89156,-23.90983 0.89156,-23.90983h9.04294c0,0 0.78257,11.41834 0.97606,19.21821c-2.43529,-0.80885 -5.36722,-0.8147 -6.50168,1.07605c-0.66134,1.10224 -1.0582,2.30831 -1.20584,3.49985c-1.06801,0.37756 -1.83317,1.39616 -1.83317,2.59346c0,0.02421 0.00031,0.04835 0.00094,0.07242c-0.33784,1.52029 0.57567,2.32237 1.75307,2.55126c0.4972,0.49435 1.18238,0.79984 1.93891,0.79984c0.03608,0 0.07201,-0.00069 0.10775,-0.00207c0.11822,0.09982 0.2414,0.19396 0.36949,0.28202c0.27603,0.73058 0.84517,1.30325 2.27628,1.66278c0.73941,0.18576 1.55513,0.12211 2.31176,-0.13464c0.17847,0.39782 0.32079,0.80705 0.51692,1.12332c-0.2999,6.5559 -0.71049,12.80986 -0.71049,12.80986z" fill="#66b8ff" stroke="#4d8bc1"/><path d="" fill="#66b8ff" stroke="#4d8bc1"/><path d="M248.40409,301.70457v-4.17274h12.86593v4.17274z" fill="#66b8ff" stroke="#4d8bc1"/></g><g stroke-width="1" stroke-linecap="butt"><path d="M241.95045,303.59639c0,2.20851 -2.76337,3.99887 -6.17216,3.99887c-3.40879,0 -6.17216,-1.79036 -6.17216,-3.99887c0,-2.20851 2.76337,-3.99887 6.17216,-3.99887c3.40879,0 6.17216,1.79036 6.17216,3.99887z" fill="#fff5d4" stroke="#ebecae"/><path d="M231.54086,300.11913c0,0 -0.68048,-10.90432 -0.85245,-18.56492c1.07912,1.14518 3.49734,1.73573 4.09434,1.43723c1.88299,-0.94149 1.84145,-2.53528 1.1509,-3.90882c1.34857,-0.17643 2.38979,-1.32993 2.38979,-2.72662c0,-0.6041 -0.19479,-1.1627 -0.52497,-1.61643c0.33019,-0.45373 0.52497,-1.01233 0.52497,-1.61643c0,-1.51878 -1.23122,-2.75 -2.75,-2.75c-0.03486,0 -0.06958,0.00065 -0.10413,0.00193c-0.04415,-0.10873 -0.09176,-0.21741 -0.14251,-0.3257c0.02184,-0.13962 0.03318,-0.28273 0.03318,-0.42849c0,-1.12694 -0.67786,-2.09555 -1.64809,-2.52034c-0.12295,-0.21494 -0.27614,-0.43786 -0.45265,-0.66037c-0.16303,-1.05215 -1.02989,-2.49686 -2.11967,-3.83066c0.20711,-4.53476 0.40127,-8.04274 0.40127,-8.04274h9.04294c0,0 1.01893,14.86705 1.01893,22.26087c0,7.77147 -1.01893,23.29146 -1.01893,23.29146z" fill="#66b8ff" stroke="#4d8bc1"/><path d="M229.95384,301.85776v-4.17273h12.86592v4.17273z" fill="#66b8ff" stroke="#4d8bc1"/></g><path d="M214.56814,174.89283l-0.11823,0.04881l-0.03991,0.06984l-0.32772,0.08192l-0.31223,0.12891l-0.07361,-0.03244l-0.12408,0.03102h-0.8799l-0.09867,-0.02467l-0.10092,0.01273l-2.44417,-0.2933l-0.04844,-0.01848l-0.0469,0.01749l-0.34914,-0.16856l-0.36226,-0.13818l-0.01948,-0.0461l-0.04668,-0.02254l-0.5866,-0.48883l-0.50944,-0.69712l0.06882,-0.38795l-0.16816,-0.35632l0.12279,-0.32058l-0.09162,-0.16033l-0.08518,-0.30288l-0.11871,-0.29138l-0.09777,-0.68437l0.01241,-0.11994l-0.02924,-0.11698v-1.7598l0.07695,-0.30781l0.04288,-0.31438l0.39106,-0.97766l0.11362,-0.15732l0.0694,-0.18121l0.68436,-0.97766l0.11172,-0.09702l0.07613,-0.12688l0.97766,-0.97767l0.11394,-0.06837l0.08531,-0.10189l0.17387,-0.12645l-0.00383,-0.04978l-0.04531,-0.09567l-0.08995,-0.44974l-0.0881,-0.35239v-0.06579l-0.06869,-0.08014l-0.09777,-0.19553l-0.01942,-0.08742l-0.01321,-0.02202l0.00458,-0.01682l-0.01196,-0.05383l-0.08683,-0.16279l-0.09777,-0.39106v-0.20624l-0.05001,-0.20009v-0.15464l-0.07053,-0.42319l-0.19024,-0.95117l0.00793,-0.16668l-0.04048,-0.16188v-0.97766l0.20941,-0.83765l0.39979,-0.22845l0.22844,-0.39978l0.83765,-0.20941h0.37952l0.01566,-0.01044l0.04698,0.01044h0.04668l0.37345,0.09336l0.37577,0.0835l0.04176,0.02089l0.04668,0.01167l0.00934,0.01633l0.68437,0.34218l0.04988,0.04274l0.06285,0.01912l0.09092,0.05456h0.83659l0.32616,-0.06524l0.16667,0.00794l0.16188,-0.04048h0.15464l0.90677,-0.15113l0.4619,-0.15397l0.06549,-0.00504l0.05797,-0.03091l0.78214,-0.19553h0.20624l0.20009,-0.05001h0.99716l0.12699,-0.07257l0.01,-0.00281l0.00758,-0.00709l0.8799,-0.48883l0.07334,-0.01968l0.05984,-0.04676l0.8799,-0.39106l0.03193,-0.0056l0.02628,-0.01898l0.48884,-0.19554l0.31438,-0.04287l0.30782,-0.07695h0.57505l0.01566,-0.01043l0.04696,0.01043h0.04668l0.1735,0.04338l0.59495,-0.03967l0.05612,0.01012l0.05532,-0.01383h0.97766l0.06373,0.01593l0.06477,-0.01099l1.27097,0.09777l0.02764,0.00921l0.02887,-0.00391l0.8799,0.09777l0.23132,0.08592l0.2436,0.03929l0.62032,0.26585l0.52049,0.17349l0.18878,0.12013l0.21073,0.07527l0.2933,0.19554l0.17623,0.19385l0.11343,0.0319l0.11984,0.22469l0.17129,0.18844l-0.0081,0.11755l0.12329,0.23117l0.09777,0.39107v0.20623l0.05001,0.20009v0.1269l0.1643,0.09859l0.118,0.11799l0.147,0.07894l0.49799,0.45272l0.19537,-0.58613c0.08572,-0.27874 0.24221,-0.52647 0.44851,-0.72224l0.02726,-0.04283l0.02542,-0.00509c0.29434,-0.2566 0.6792,-0.412 1.10036,-0.412c0.80523,0 1.47777,0.56809 1.63869,1.32535l0.01686,0.01883l-0.00381,0.04954c0.01549,0.09154 0.02357,0.18561 0.02357,0.28157c0,0.19897 -0.03468,0.38983 -0.09833,0.56688l-0.28094,0.8428l-0.10712,0.16833l-0.06155,0.1898l-0.97767,1.56427l-0.0182,0.01756l-0.00851,0.02382l-0.20747,0.3112v1.79028l-0.03396,0.13584l0.01117,0.13957l-0.08349,0.50091l0.00851,0.01969l-0.01952,0.04636l-0.00327,0.01965l-0.15825,0.36398l-0.12349,0.29331l0.10901,0.43604v0.78213l-0.06531,0.26127l-0.02066,0.26852l-0.0632,0.1896l0.00495,0.01816l-0.02476,0.04127l-0.01476,0.04428l-0.20666,0.32475l-0.19804,0.33009l-0.033,0.033l-0.02583,0.0406l-0.01845,0.00369l-0.11824,0.11824l-0.23092,0.13856l-0.20448,0.17526l-0.39106,0.19553l-0.2443,0.05429l-0.2295,0.09978l-0.5866,0.09777l-0.13959,-0.01117l-0.13583,0.03396h-1.63787l-0.19397,0.43643l-0.06248,0.24993l-0.05423,0.10168l-0.01557,0.11419l-0.19554,0.48883l-0.12943,0.17922l-0.0858,0.20375l-0.2933,0.39107l-0.09358,0.07604l-0.06204,0.1034l-0.39106,0.39106l-0.23092,0.13856l-0.20448,0.17526l-0.73451,0.36725l-0.00331,0.00329l-0.33008,0.19804l-0.32476,0.20666l-0.04428,0.01476l-0.04126,0.02476l-0.01816,-0.00496l-0.18961,0.0632l-0.13249,0.0102l-0.12186,0.05298l-0.5866,0.09777l-0.08388,-0.00671l-0.0801,0.02579l-1.35699,0.09048l-1.35889,0.27178l-0.02771,-0.00132l-0.02543,0.01106l-1.7598,0.2933l-0.08389,-0.00671l-0.0801,0.0258l-1.4665,0.09777l-0.05611,-0.01012l-0.05532,0.01383h-1.1732l-0.83765,-0.20941l-0.22048,-0.38584z" fill="#fff5d4" stroke="none" stroke-width="0.5" stroke-linecap="butt"/><path d="M276.52671,183.70034c0,9.2926 4.85146,15.70553 -0.05575,19.12052c-6.11276,4.25394 -22.04028,4.77877 -32.13356,4.77877c-11.25163,0 -26.39121,-0.20855 -32.26139,-5.87991c-3.623,-3.50028 -1.44271,-10.05525 -1.44271,-18.01938c0,-2.65288 0.23431,-5.04605 0.68073,-7.20268c3.12701,-1.00698 3.58826,-3.24183 6.65373,-4.99352l0.10758,-0.43029c1.06993,-0.3429 2.05897,-0.78326 2.91369,-1.36152c0.98457,-0.66612 1.93429,-1.44634 2.82514,-2.31465c1.73509,-0.77408 3.29372,-1.68591 3.80305,-2.346c0.70604,-0.91504 1.79767,-3.42019 2.50748,-5.85717c4.02806,-0.83903 8.49151,-1.16074 13.20286,-1.16074c18.19597,0 33.19918,4.79847 33.19918,25.66658z" fill="#50351d" stroke="#3d2816" stroke-width="3" stroke-linecap="butt"/><path d="M240.94469,182.65695c0,6.25231 -5.14304,11.32082 -11.48729,11.32082c-6.34426,0 -11.4873,-5.0685 -11.4873,-11.32082c0,-6.25231 5.14304,-11.32081 11.4873,-11.32081c6.34426,0 11.48729,5.0685 11.48729,11.32081z" fill="#ff4040" stroke="#000000" stroke-width="1.5" stroke-linecap="butt"/><path d="M232.05845,182.80585c0,1.61169 -1.34283,2.91823 -2.99929,2.91823c-1.65646,0 -2.99929,-1.30653 -2.99929,-2.91823c0,-1.61169 1.34283,-2.91823 2.99929,-2.91823c1.65646,0 2.99929,1.30653 2.99929,2.91823z" fill="none" stroke="#000000" stroke-width="2.5" stroke-linecap="butt"/><path d="M272.31106,181.96516c0,6.25231 -5.14304,11.32082 -11.48729,11.32082c-6.34426,0 -11.48729,-5.0685 -11.48729,-11.32082c0,-6.25231 5.14304,-11.32081 11.48729,-11.32081c6.34425,0 11.48729,5.0685 11.48729,11.32081z" fill="#ff4040" stroke="#000000" stroke-width="1.5" stroke-linecap="butt"/><path d="M211.74295,161.81361c0,-0.30841 0.25002,-0.55843 0.55843,-0.55843c0.30841,0 0.55843,0.25002 0.55843,0.55843c0,0.30841 -0.25002,0.55843 -0.55843,0.55843c-0.30841,0 -0.55843,-0.25002 -0.55843,-0.55843z" fill="#37b33a" stroke="none" stroke-width="0.5" stroke-linecap="butt"/><path d="M214.57819,164.94214c0,-0.30841 0.25002,-0.55843 0.55843,-0.55843c0.30841,0 0.55843,0.25002 0.55843,0.55843c0,0.30841 -0.25002,0.55843 -0.55843,0.55843c-0.30841,0 -0.55843,-0.25002 -0.55843,-0.55843z" fill="#37b33a" stroke="none" stroke-width="0.5" stroke-linecap="butt"/><path d="M216.53352,159.76051c0,-0.30841 0.25002,-0.55843 0.55843,-0.55843c0.30841,0 0.55843,0.25002 0.55843,0.55843c0,0.30841 -0.25002,0.55843 -0.55843,0.55843c-0.30841,0 -0.55843,-0.25002 -0.55843,-0.55843z" fill="#37b33a" stroke="none" stroke-width="0.5" stroke-linecap="butt"/><path d="M210.17869,167.97291c0,-0.30841 0.25002,-0.55843 0.55843,-0.55843c0.30841,0 0.55843,0.25002 0.55843,0.55843c0,0.30841 -0.25002,0.55843 -0.55843,0.55843c-0.30841,0 -0.55843,-0.25002 -0.55843,-0.55843z" fill="#37b33a" stroke="none" stroke-width="0.5" stroke-linecap="butt"/><path d="M215.75139,162.30244c0,-0.30841 0.25002,-0.55843 0.55843,-0.55843c0.30841,0 0.55843,0.25002 0.55843,0.55843c0,0.30841 -0.25002,0.55843 -0.55843,0.55843c-0.30841,0 -0.55843,-0.25002 -0.55843,-0.55843z" fill="#37b33a" stroke="none" stroke-width="0.5" stroke-linecap="butt"/><path d="M211.93849,170.41706c0,-0.30841 0.25002,-0.55843 0.55843,-0.55843c0.30841,0 0.55843,0.25002 0.55843,0.55843c0,0.30841 -0.25002,0.55843 -0.55843,0.55843c-0.30841,0 -0.55843,-0.25002 -0.55843,-0.55843z" fill="#37b33a" stroke="none" stroke-width="0.5" stroke-linecap="butt"/><path d="M219.36875,158.48953c0,-0.30841 0.25002,-0.55843 0.55843,-0.55843c0.30841,0 0.55843,0.25002 0.55843,0.55843c0,0.30841 -0.25002,0.55843 -0.55843,0.55843c-0.30841,0 -0.55843,-0.25002 -0.55843,-0.55843z" fill="#37b33a" stroke="none" stroke-width="0.5" stroke-linecap="butt"/><path d="M217.80448,165.43097c0,-0.30841 0.25002,-0.55843 0.55843,-0.55843c0.30841,0 0.55843,0.25002 0.55843,0.55843c0,0.30841 -0.25002,0.55843 -0.55843,0.55843c-0.30841,0 -0.55843,-0.25002 -0.55843,-0.55843z" fill="#37b33a" stroke="none" stroke-width="0.5" stroke-linecap="butt"/><path d="M222.59504,159.56498c0,-0.30841 0.25002,-0.55843 0.55843,-0.55843c0.30841,0 0.55843,0.25002 0.55843,0.55843c0,0.30841 -0.25002,0.55843 -0.55843,0.55843c-0.30841,0 -0.55843,-0.25002 -0.55843,-0.55843z" fill="#37b33a" stroke="none" stroke-width="0.5" stroke-linecap="butt"/><path d="M219.46652,161.12924c0,-0.30841 0.25002,-0.55843 0.55843,-0.55843c0.30841,0 0.55843,0.25002 0.55843,0.55843c0,0.30841 -0.25002,0.55843 -0.55843,0.55843c-0.30841,0 -0.55843,-0.25002 -0.55843,-0.55843z" fill="#37b33a" stroke="none" stroke-width="0.5" stroke-linecap="butt"/><path d="M232.79947,161.05596c0.0079,1.12607 3.25084,-2.10387 3.30899,-2.19003c1.26222,-1.87006 4.33238,-2.17274 6.30768,-2.38703c3.56744,-0.38703 3.86364,4.98342 4.20965,7.32642c0.17769,1.20328 3.48403,-1.62091 3.71965,-1.92732c1.73016,-2.24993 3.7793,-3.74443 6.86142,-3.87979c3.47218,-0.15249 2.32221,6.35741 4.55529,6.20828c2.57653,-0.17206 5.87328,-3.02478 8.30305,-1.15632c0.75078,0.57734 1.72312,2.5777 0.94,3.59609c-2.04206,2.65554 -2.53405,-0.32807 -4.18274,0.05284c-4.95317,1.14436 -9.67214,2.12221 -10.55667,-4.58854c-0.08098,-0.61438 -3.04594,2.52063 -3.2749,2.76102c-1.98258,2.08159 -4.3982,3.2499 -7.32897,2.75734c-3.31917,-0.55783 -2.5638,-3.49168 -3.44127,-6.30901c-0.08602,-0.27621 0.11571,-0.80561 -0.17,-0.85107c-3.90658,-0.62168 -5.45668,5.47307 -10.44624,4.46046c-2.73969,-0.55601 -3.80328,-6.90659 -2.005,-8.27084c0.26253,-0.61525 0.8343,-1.07966 1.54561,-1.17255c1.07036,-0.13979 2.05137,0.6146 2.19115,1.68496c0.02798,0.21419 0.02014,0.42481 -0.01888,0.62582c-0.03275,0.87551 -0.52735,1.90362 -0.51785,3.25926z" fill="#fff5d4" stroke="none" stroke-width="0.5" stroke-linecap="butt"/><path d="M267.03565,152.47447c1.77499,1.01828 0.40414,2.08983 0.74309,3.50328c0.47424,1.97759 4.12161,2.25285 1.79257,7.42932c-1.27644,2.83697 -13.95274,-1.09341 -14.81394,-2.14619c-2.19616,-2.6847 0.73856,-4.98145 2.83191,-5.85558c0.29292,-0.12232 -0.15842,-0.61479 -0.23464,-0.92293c-0.52954,-2.14087 0.12366,-4.08137 2.27449,-4.77542c1.85328,-0.59804 5.93244,-1.62804 7.69674,-1.31098c3.37365,0.60629 1.17996,3.34189 -0.42773,3.95181z" fill="#23170c" stroke="none" stroke-width="0.5" stroke-linecap="butt"/><path d="M260.27596,151.45035c0,-0.15421 0.12501,-0.27922 0.27922,-0.27922c0.15421,0 0.27922,0.12501 0.27922,0.27922c0,0.15421 -0.12501,0.27922 -0.27922,0.27922c-0.15421,0 -0.27922,-0.12501 -0.27922,-0.27922z" fill="#fd96ff" stroke="none" stroke-width="0.5" stroke-linecap="butt"/><path d="M263.60003,149.69054c0,-0.15421 0.12501,-0.27922 0.27922,-0.27922c0.15421,0 0.27922,0.12501 0.27922,0.27922c0,0.15421 -0.12501,0.27922 -0.27922,0.27922c-0.15421,0 -0.27922,-0.12501 -0.27922,-0.27922z" fill="#fd96ff" stroke="none" stroke-width="0.5" stroke-linecap="butt"/><path d="M263.01343,153.79674c0,-0.15421 0.12501,-0.27922 0.27922,-0.27922c0.15421,0 0.27922,0.12501 0.27922,0.27922c0,0.15421 -0.12501,0.27922 -0.27922,0.27922c-0.15421,0 -0.27922,-0.12501 -0.27922,-0.27922z" fill="#fd96ff" stroke="none" stroke-width="0.5" stroke-linecap="butt"/><path d="M264.96875,153.01462c0,-0.15421 0.12501,-0.27922 0.27922,-0.27922c0.15421,0 0.27922,0.12501 0.27922,0.27922c0,0.15421 -0.12501,0.27922 -0.27922,0.27922c-0.15421,0 -0.27922,-0.12501 -0.27922,-0.27922z" fill="#fd96ff" stroke="none" stroke-width="0.5" stroke-linecap="butt"/><path d="M260.08043,155.65431c0,-0.15421 0.12501,-0.27922 0.27922,-0.27922c0.15421,0 0.27922,0.12501 0.27922,0.27922c0,0.15421 -0.12501,0.27922 -0.27922,0.27922c-0.15421,0 -0.27922,-0.12501 -0.27922,-0.27922z" fill="#fd96ff" stroke="none" stroke-width="0.5" stroke-linecap="butt"/><path d="M264.18662,156.63198c0,-0.15421 0.12501,-0.27922 0.27922,-0.27922c0.15421,0 0.27922,0.12501 0.27922,0.27922c0,0.15421 -0.12501,0.27922 -0.27922,0.27922c-0.15421,0 -0.27922,-0.12501 -0.27922,-0.27922z" fill="#fd96ff" stroke="none" stroke-width="0.5" stroke-linecap="butt"/><path d="M257.44073,159.46721c0,-0.15421 0.12501,-0.27922 0.27922,-0.27922c0.15421,0 0.27922,0.12501 0.27922,0.27922c0,0.15421 -0.12501,0.27922 -0.27922,0.27922c-0.15421,0 -0.27922,-0.12501 -0.27922,-0.27922z" fill="#fd96ff" stroke="none" stroke-width="0.5" stroke-linecap="butt"/><path d="M263.89331,161.22701c0,-0.15421 0.12501,-0.27922 0.27922,-0.27922c0.15421,0 0.27922,0.12501 0.27922,0.27922c0,0.15421 -0.12501,0.27922 -0.27922,0.27922c-0.15421,0 -0.27922,-0.12501 -0.27922,-0.27922z" fill="#fd96ff" stroke="none" stroke-width="0.5" stroke-linecap="butt"/><path d="M261.05809,158.97837c0,-0.15421 0.12501,-0.27922 0.27922,-0.27922c0.15421,0 0.27922,0.12501 0.27922,0.27922c0,0.15421 -0.12501,0.27922 -0.27922,0.27922c-0.15421,0 -0.27922,-0.12501 -0.27922,-0.27922z" fill="#fd96ff" stroke="none" stroke-width="0.5" stroke-linecap="butt"/><path d="M227.3875,198.64573c0,2.30749 -1.89851,4.17808 -4.24044,4.17808c-2.34193,0 -4.24044,-1.87059 -4.24044,-4.17808c0,-2.30749 1.89851,-4.17808 4.24044,-4.17808c2.34193,0 4.24044,1.87059 4.24044,4.17808z" fill="#fca8ff" stroke="none" stroke-width="0" stroke-linecap="butt"/><path d="M266.72855,157.80516c0,-0.15421 0.12501,-0.27922 0.27922,-0.27922c0.15421,0 0.27922,0.12501 0.27922,0.27922c0,0.15421 -0.12501,0.27922 -0.27922,0.27922c-0.15421,0 -0.27922,-0.12501 -0.27922,-0.27922z" fill="#fd96ff" stroke="none" stroke-width="0.5" stroke-linecap="butt"/><path d="M267.02185,160.73817c0,-0.15421 0.12501,-0.27922 0.27922,-0.27922c0.15421,0 0.27922,0.12501 0.27922,0.27922c0,0.15421 -0.12501,0.27922 -0.27922,0.27922c-0.15421,0 -0.27922,-0.12501 -0.27922,-0.27922z" fill="#fd96ff" stroke="none" stroke-width="0.5" stroke-linecap="butt"/><path d="M272.27399,198.65735c0,2.3075 -1.89851,4.17808 -4.24044,4.17808c-2.34193,0 -4.24044,-1.87059 -4.24044,-4.17808c0,-2.3075 1.89851,-4.17808 4.24044,-4.17808c2.34193,0 4.24044,1.87059 4.24044,4.17808z" fill="#fca8ff" stroke="none" stroke-width="0" stroke-linecap="butt"/><path d="M228.29219,254.98516l0,-11.71935l0.40131,-0.03344l-0.01579,-0.18953c0.35455,-0.01006 0.69039,-0.09085 0.99505,-0.28962c0.2076,-0.13545 0.3218,-0.31906 0.37428,-0.53566c0.05418,-0.01645 0.10826,-0.03382 0.16217,-0.05208c2.41909,0.04809 4.69179,-1.85333 5.70115,-4.16041c0.58325,-0.48917 0.96772,-1.04238 1.01644,-1.60139c0.08827,-1.01283 -0.17943,-1.71734 -0.64395,-2.19243c-0.34753,-2.02019 -1.259,-3.82922 -3.03391,-3.22658c-0.55256,-0.25062 -1.14905,-0.44492 -1.76743,-0.58886c-0.40747,-0.14403 -0.87042,-0.20964 -1.33483,-0.23168c-0.61888,-0.0735 -1.24373,-0.10362 -1.85448,-0.09582v-19.95802h34.70714v44.87486z" fill="#ff83e4" stroke="#cc68b6" stroke-width="3" stroke-linecap="butt"/><path d="M245.98795,211.77233l0.19553,41.64856" fill="none" stroke="#cc68b6" stroke-width="3" stroke-linecap="round"/><path d="M247.55222,247.66068c0,1.08433 -0.766,1.96335 -1.71091,1.96335c-0.94491,0 -1.71091,-0.87902 -1.71091,-1.96335c0,-1.08433 0.766,-1.96335 1.71091,-1.96335c0.94491,0 1.71091,0.87902 1.71091,1.96335z" fill="#ff83e4" stroke="#cc68b6" stroke-width="3" stroke-linecap="butt"/><path d="M247.95491,235.45148c0,1.08433 -0.766,1.96335 -1.71091,1.96335c-0.94491,0 -1.71091,-0.87903 -1.71091,-1.96335c0,-1.08433 0.766,-1.96335 1.71091,-1.96335c0.94491,0 1.71091,0.87903 1.71091,1.96335z" fill="#ff83e4" stroke="#cc68b6" stroke-width="3" stroke-linecap="butt"/><path d="M247.86877,222.46015c0,1.03033 -0.766,1.86558 -1.71091,1.86558c-0.94491,0 -1.71091,-0.83526 -1.71091,-1.86558c0,-1.03033 0.766,-1.86558 1.71091,-1.86558c0.94491,0 1.71091,0.83526 1.71091,1.86558z" fill="#ff83e4" stroke="#cc68b6" stroke-width="3" stroke-linecap="butt"/><g fill="#3c3c3c" stroke="#2c2c2c" stroke-width="1.5" stroke-linecap="butt"><path d="M249.0918,212.85051l-0.05738,-3.1198l4.25773,-3.16328l1.5511,7.9339z" data-paper-data="{&quot;index&quot;:null}"/><path d="M238.44847,214.1197l1.7908,-7.19188l3.82412,3.09824l-0.18993,2.85417z"/><path d="M249.0607,208.82274c1.10012,1.42645 0.8178,3.48837 -0.63059,4.60541c-1.44839,1.11705 -3.51438,0.86624 -4.6145,-0.56021c-1.10012,-1.42645 -0.8178,-3.48837 0.63059,-4.60541c1.44839,-1.11705 3.51438,-0.86624 4.6145,0.56021z"/></g><g data-paper-data="{&quot;index&quot;:null}" stroke-linecap="butt"><path d="M274.82767,258.95501l-5.9399,-31.71146l7.68762,-1.43998l5.9399,31.71146z" fill="#50351d" stroke="#3d2816" stroke-width="2"/><path d="M269.10615,228.59554l-6.22748,-19.15293l3.3256,-1.49071l3.47867,1.99742c-2.42797,1.58005 -2.34078,3.85136 -0.61922,4.67388c-0.00359,0.05751 -0.00541,0.1155 -0.00541,0.17391c0,1.51878 1.23122,2.75 2.75,2.75c0.92719,0 1.7472,-0.45886 2.24535,-1.16187c0.19286,0.18522 0.39432,0.3502 0.59575,0.48639l2.9175,8.97292z" fill="#ff83e4" stroke="#cc68b6" stroke-width="3"/><g fill="#feffce" stroke="#ebecae" stroke-width="2"><path d="M274.67118,260.77473l-2.03396,-10.85877l8.2642,-1.54798l2.03396,10.85877z"/><path d="M277.41267,256.7235c3.30248,-1.00793 6.854,0.93044 7.93258,4.3295c1.07858,3.39907 0.42225,6.7199 0.05703,10.00621c-0.22357,2.01159 -4.27058,3.31115 -5.81806,2.329c-0.68556,-0.43511 -1.16152,-4.87624 -1.74605,-4.88714c-0.35053,-0.00655 -1.23686,5.51981 -1.46246,5.35776c-1.11614,-0.80187 -2.53892,-7.735 -2.98974,-9.15575c-1.07858,-3.39906 0.72424,-6.97164 4.02672,-7.97957z"/><path d="M271.41179,251.33909l-0.68399,-3.65162l11.43534,-2.14196l0.68399,3.65162z"/></g></g><path d="M252.42202,198.46775c0,2.90355 -3.4653,5.25734 -7.73997,5.25734c-4.27467,0 -7.73997,-2.35379 -7.73997,-5.25734c0,-2.90355 3.4653,-5.25734 7.73997,-5.25734c4.27467,0 7.73997,2.35379 7.73997,5.25734z" fill="#000000" stroke="none" stroke-width="0" stroke-linecap="butt"/><path d="M240.69211,196.48482v-1.35421h7.81272v1.35421z" fill="#ffffff" stroke="none" stroke-width="0" stroke-linecap="butt"/><path d="M241.65105,201.7668v-1.09737h6.331v1.09737z" fill="#ffffff" stroke="none" stroke-width="0" stroke-linecap="butt"/><path d="M263.59477,182.68717c0,1.61169 -1.34282,2.91822 -2.99929,2.91822c-1.65646,0 -2.9993,-1.30653 -2.9993,-2.91822c0,-1.61169 1.34283,-2.91823 2.9993,-2.91823c1.65646,0 2.99929,1.30653 2.99929,2.91823z" fill="none" stroke="#000000" stroke-width="2.5" stroke-linecap="butt"/><path d="M274.36765,237.54576c0.60101,0.01427 1.04031,0.60299 1.56591,0.89481c0.60473,0.33574 1.12339,-1.16516 1.80164,-1.02951c1.64702,0.3294 3.47324,1.08295 4.375,2.5c1.39735,2.19584 2.45175,5.86673 3.2057,8.30383c2.07445,6.70552 10.58035,27.19746 -1.38441,29.36945c-2.08264,0.37807 -6.27865,-2.49796 -6.86873,-2.38677c-0.50861,0.09584 -0.85267,0.92007 -1.3481,0.77034c-1.60781,-0.48592 -3.15562,-1.34489 -4.375,-2.5c-0.73879,-0.69985 -0.58172,-3.69812 -0.625,-4.52053c-0.30437,-5.78312 -2.00808,-10.51353 -2.02053,-16.56519c-0.00471,-2.291 -3.6089,-9.84009 -1.06021,-11.29648l4.30908,-2.46233c0.03757,0 0.07504,0.00041 0.11241,0.00124c0.98896,-0.02824 1.10332,-1.10756 2.31223,-1.07886z" fill="#fff5d4" stroke="none" stroke-width="0.5" stroke-linecap="butt"/><path d="M270.6542,243.75808c0,-0.41421 0.33579,-0.75 0.75,-0.75c0.41421,0 0.75,0.33579 0.75,0.75c0,0.41421 -0.33579,0.75 -0.75,0.75c-0.41421,0 -0.75,-0.33579 -0.75,-0.75z" fill="#37b33a" stroke="none" stroke-width="0.5" stroke-linecap="butt"/><path d="M277.25461,242.68046c0,-0.41421 0.33579,-0.75 0.75,-0.75c0.41421,0 0.75,0.33579 0.75,0.75c0,0.41421 -0.33579,0.75 -0.75,0.75c-0.41421,0 -0.75,-0.33579 -0.75,-0.75z" fill="#37b33a" stroke="none" stroke-width="0.5" stroke-linecap="butt"/><path d="M277.25461,250.62789c0,-0.41421 0.33579,-0.75 0.75,-0.75c0.41421,0 0.75,0.33579 0.75,0.75c0,0.41421 -0.33579,0.75 -0.75,0.75c-0.41421,0 -0.75,-0.33579 -0.75,-0.75z" fill="#37b33a" stroke="none" stroke-width="0.5" stroke-linecap="butt"/><path d="M271.73182,251.84021c0,-0.41421 0.33579,-0.75 0.75,-0.75c0.41421,0 0.75,0.33579 0.75,0.75c0,0.41421 -0.33579,0.75 -0.75,0.75c-0.41421,0 -0.75,-0.33579 -0.75,-0.75z" fill="#37b33a" stroke="none" stroke-width="0.5" stroke-linecap="butt"/><path d="M277.25461,264.50221c0,-0.41421 0.33579,-0.75 0.75,-0.75c0.41421,0 0.75,0.33579 0.75,0.75c0,0.41421 -0.33579,0.75 -0.75,0.75c-0.41421,0 -0.75,-0.33579 -0.75,-0.75z" fill="#37b33a" stroke="none" stroke-width="0.5" stroke-linecap="butt"/><path d="M281.69978,256.68949c0,-0.41421 0.33579,-0.75 0.75,-0.75c0.41421,0 0.75,0.33579 0.75,0.75c0,0.41421 -0.33579,0.75 -0.75,0.75c-0.41421,0 -0.75,-0.33579 -0.75,-0.75z" fill="#37b33a" stroke="none" stroke-width="0.5" stroke-linecap="butt"/><path d="M273.21354,260.46115c0,-0.41421 0.33579,-0.75 0.75,-0.75c0.41421,0 0.75,0.33579 0.75,0.75c0,0.41421 -0.33579,0.75 -0.75,0.75c-0.41421,0 -0.75,-0.33579 -0.75,-0.75z" fill="#37b33a" stroke="none" stroke-width="0.5" stroke-linecap="butt"/><path d="M286.54905,267.06155c0,-0.41421 0.33579,-0.75 0.75,-0.75c0.41421,0 0.75,0.33579 0.75,0.75c0,0.41421 -0.33579,0.75 -0.75,0.75c-0.41421,0 -0.75,-0.33579 -0.75,-0.75z" fill="#37b33a" stroke="none" stroke-width="0.5" stroke-linecap="butt"/><path d="M278.06282,272.31493c0,-0.41421 0.33579,-0.75 0.75,-0.75c0.41421,0 0.75,0.33579 0.75,0.75c0,0.41421 -0.33579,0.75 -0.75,0.75c-0.41421,0 -0.75,-0.33579 -0.75,-0.75z" fill="#37b33a" stroke="none" stroke-width="0.5" stroke-linecap="butt"/><path d="M287.35727,275.27838c0,-0.41421 0.33579,-0.75 0.75,-0.75c0.41421,0 0.75,0.33579 0.75,0.75c0,0.41421 -0.33579,0.75 -0.75,0.75c-0.41421,0 -0.75,-0.33579 -0.75,-0.75z" fill="#37b33a" stroke="none" stroke-width="0.5" stroke-linecap="butt"/><path d="M285.47144,260.99995c0,-0.41421 0.33579,-0.75 0.75,-0.75c0.41421,0 0.75,0.33579 0.75,0.75c0,0.41421 -0.33579,0.75 -0.75,0.75c-0.41421,0 -0.75,-0.33579 -0.75,-0.75z" fill="#37b33a" stroke="none" stroke-width="0.5" stroke-linecap="butt"/><path d="M273.88705,270.56381c0,-0.41421 0.33579,-0.75 0.75,-0.75c0.41421,0 0.75,0.33579 0.75,0.75c0,0.41421 -0.33579,0.75 -0.75,0.75c-0.41421,0 -0.75,-0.33579 -0.75,-0.75z" fill="#37b33a" stroke="none" stroke-width="0.5" stroke-linecap="butt"/><path d="M252.29087,277.82272l0.09126,-0.13146c-0.03173,0.17221 -0.05823,0.34448 -0.07954,0.51644c-0.05806,0.02053 -0.11523,0.04295 -0.17143,0.06719z" fill="#ffffff" stroke="none" stroke-width="0.5" stroke-linecap="butt"/><path d="" fill="#ffffff" stroke="none" stroke-width="0.5" stroke-linecap="butt"/><path d="M262.80946,274.4075c0,0 1.40969,-0.51261 1.9223,0.89708c0.51261,1.40969 -0.89708,1.9223 -0.89708,1.9223l-0.08827,0.03178c-0.01348,-0.08297 -0.03067,-0.1647 -0.0514,-0.24501c0.21708,-0.79597 -0.44594,-1.65762 -1.53357,-2.36781z" fill="#ffffff" stroke="none" stroke-width="0.5" stroke-linecap="butt"/><path d="M231.16707,266.79215c0,-0.27614 0.22386,-0.5 0.5,-0.5c0.27614,0 0.5,0.22386 0.5,0.5c0,0.27614 -0.22386,0.5 -0.5,0.5c-0.27614,0 -0.5,-0.22386 -0.5,-0.5z" fill="#37b33a" stroke="none" stroke-width="0.5" stroke-linecap="butt"/><path d="M229.14654,269.35149c0,-0.27614 0.22386,-0.5 0.5,-0.5c0.27614,0 0.5,0.22386 0.5,0.5c0,0.27614 -0.22386,0.5 -0.5,0.5c-0.27614,0 -0.5,-0.22386 -0.5,-0.5z" fill="#37b33a" stroke="none" stroke-width="0.5" stroke-linecap="butt"/><path d="M231.43648,269.21678c0,-0.27614 0.22386,-0.5 0.5,-0.5c0.27614,0 0.5,0.22386 0.5,0.5c0,0.27614 -0.22386,0.5 -0.5,0.5c-0.27614,0 -0.5,-0.22386 -0.5,-0.5z" fill="#37b33a" stroke="none" stroke-width="0.5" stroke-linecap="butt"/><path d="M233.72641,273.25785c0,-0.27614 0.22386,-0.5 0.5,-0.5c0.27614,0 0.5,0.22386 0.5,0.5c0,0.27614 -0.22386,0.5 -0.5,0.5c-0.27614,0 -0.5,-0.22386 -0.5,-0.5z" fill="#37b33a" stroke="none" stroke-width="0.5" stroke-linecap="butt"/><path d="M235.07343,272.44964c0,-0.27614 0.22386,-0.5 0.5,-0.5c0.27614,0 0.5,0.22386 0.5,0.5c0,0.27614 -0.22386,0.5 -0.5,0.5c-0.27614,0 -0.5,-0.22386 -0.5,-0.5z" fill="#37b33a" stroke="none" stroke-width="0.5" stroke-linecap="butt"/><path d="M232.9182,278.37653c0,-0.27614 0.22386,-0.5 0.5,-0.5c0.27614,0 0.5,0.22386 0.5,0.5c0,0.27614 -0.22386,0.5 -0.5,0.5c-0.27614,0 -0.5,-0.22386 -0.5,-0.5z" fill="#37b33a" stroke="none" stroke-width="0.5" stroke-linecap="butt"/><path d="M233.32231,280.80117c0,-0.27614 0.22386,-0.5 0.5,-0.5c0.27614,0 0.5,0.22386 0.5,0.5c0,0.27614 -0.22386,0.5 -0.5,0.5c-0.27614,0 -0.5,-0.22386 -0.5,-0.5z" fill="#37b33a" stroke="none" stroke-width="0.5" stroke-linecap="butt"/><path d="M235.74694,277.02951c0,-0.27614 0.22386,-0.5 0.5,-0.5c0.27614,0 0.5,0.22386 0.5,0.5c0,0.27614 -0.22386,0.5 -0.5,0.5c-0.27614,0 -0.5,-0.22386 -0.5,-0.5z" fill="#37b33a" stroke="none" stroke-width="0.5" stroke-linecap="butt"/><path d="M257.29929,276.89481c0,-0.27614 0.22386,-0.5 0.5,-0.5c0.27614,0 0.5,0.22386 0.5,0.5c0,0.27614 -0.22386,0.5 -0.5,0.5c-0.27614,0 -0.5,-0.22386 -0.5,-0.5z" fill="#37b33a" stroke="none" stroke-width="0.5" stroke-linecap="butt"/><path d="M255.14405,276.89481c0,-0.27614 0.22386,-0.5 0.5,-0.5c0.27614,0 0.5,0.22386 0.5,0.5c0,0.27614 -0.22386,0.5 -0.5,0.5c-0.27614,0 -0.5,-0.22386 -0.5,-0.5z" fill="#37b33a" stroke="none" stroke-width="0.5" stroke-linecap="butt"/><path d="M253.39292,280.80117c0,-0.27614 0.22386,-0.5 0.5,-0.5c0.27614,0 0.5,0.22386 0.5,0.5c0,0.27614 -0.22386,0.5 -0.5,0.5c-0.27614,0 -0.5,-0.22386 -0.5,-0.5z" fill="#37b33a" stroke="none" stroke-width="0.5" stroke-linecap="butt"/><path d="M256.35637,282.28289c0,-0.27614 0.22386,-0.5 0.5,-0.5c0.27614,0 0.5,0.22386 0.5,0.5c0,0.27614 -0.22386,0.5 -0.5,0.5c-0.27614,0 -0.5,-0.22386 -0.5,-0.5z" fill="#37b33a" stroke="none" stroke-width="0.5" stroke-linecap="butt"/><path d="M257.43399,284.03402c0,-0.27614 0.22386,-0.5 0.5,-0.5c0.27614,0 0.5,0.22386 0.5,0.5c0,0.27614 -0.22386,0.5 -0.5,0.5c-0.27614,0 -0.5,-0.22386 -0.5,-0.5z" fill="#37b33a" stroke="none" stroke-width="0.5" stroke-linecap="butt"/><path d="M255.00935,278.91534c0,-0.27614 0.22386,-0.5 0.5,-0.5c0.27614,0 0.5,0.22386 0.5,0.5c0,0.27614 -0.22386,0.5 -0.5,0.5c-0.27614,0 -0.5,-0.22386 -0.5,-0.5z" fill="#37b33a" stroke="none" stroke-width="0.5" stroke-linecap="butt"/></g></g></svg>