<svg version="1.1" xmlns="http://www.w3.org/2000/svg" xmlns:xlink="http://www.w3.org/1999/xlink" width="136.42102" height="221.9511" viewBox="0,0,136.42102,221.9511"><g transform="translate(-175.86168,-67.22486)"><g data-paper-data="{&quot;isPaintingLayer&quot;:true}" fill-rule="nonzero" stroke-linejoin="miter" stroke-miterlimit="10" stroke-dasharray="" stroke-dashoffset="0" style="mix-blend-mode: normal"><path d="M221.1612,219.63103l0.40365,-61.75868h39.55785l1.61461,62.96964z" fill="#f1ecec" stroke="#a5a5a5" stroke-width="1" stroke-linecap="butt"/><path d="M239.32552,158.07417l1.81643,61.75868" fill="none" stroke="#474747" stroke-width="1" stroke-linecap="round"/><path d="M270.6536,161.59998l4.73811,-74.79434l1.35375,-0.33844l2.36905,68.7025z" fill="#ffb935" stroke="#a77923" stroke-width="2" stroke-linecap="butt"/><path d="M206.68921,156.18499l15.22962,-69.7178h53.81132l-4.73811,75.47122z" fill="#ffb935" stroke="#a77923" stroke-width="2" stroke-linecap="butt"/><path d="M275.05327,140.27852l-0.67687,18.27554" fill="none" stroke="#a77923" stroke-width="2" stroke-linecap="round"/><path d="M276.06858,116.92644v16.92179" fill="none" stroke="#a77923" stroke-width="2" stroke-linecap="round"/><path d="M277.42232,140.61694l1.0153,13.87587" fill="none" stroke="#a77923" stroke-width="2" stroke-linecap="round"/><path d="M231.99098,138.65047c0,0 4.88182,-1.32747 7.49794,-1.27461c1.82247,0.03683 6.69743,1.56149 6.69743,1.56149" fill="none" stroke="#000000" stroke-width="1.5" stroke-linecap="round"/><path d="M246.9949,141.52446l-1.00913,-4.84382" fill="none" stroke="#000000" stroke-width="1.5" stroke-linecap="round"/><path d="M231.45431,137.28612l-1.21096,3.83469" fill="none" stroke="#000000" stroke-width="1.5" stroke-linecap="round"/><g stroke="#000000" stroke-linecap="butt"><path d="M239.39136,117.93386c-1.07766,5.88333 -6.44731,9.82917 -11.99345,8.81327c-5.54614,-1.0159 -9.16855,-6.60883 -8.09089,-12.49216c1.07766,-5.88333 6.44731,-9.82916 11.99345,-8.81327c5.54614,1.0159 9.16855,6.60883 8.09089,12.49216z" fill="#ffffff" stroke-width="1"/><path d="M234.99049,111.54258c2.54021,0.90294 2.22593,4.52938 1.03305,6.66392c-1.61382,2.88776 -8.55027,5.25086 -8.55027,5.25086c0,0 -6.16769,-5.53438 -5.42903,-9.56695c0.37461,-2.04513 2.97797,-4.44583 4.24191,-3.50356c1.22828,0.91569 3.38338,5.56106 3.38338,5.56106c0,0 2.78076,-5.30827 5.32097,-4.40533z" fill="#000000" stroke-width="0"/></g><path d="M269.61958,118.4937c-1.07766,5.88333 -6.44731,9.82917 -11.99345,8.81327c-5.54614,-1.0159 -9.16855,-6.60883 -8.09089,-12.49216c1.07766,-5.88333 6.44731,-9.82916 11.99345,-8.81327c5.54614,1.0159 9.16855,6.60883 8.09089,12.49216z" fill="#ffffff" stroke="#000000" stroke-width="1" stroke-linecap="butt"/><path d="M252.21802,106.26736l-0.02693,-0.66008l17.74501,-7.60167l0.02693,0.66008z" fill="#000000" stroke="none" stroke-width="NaN" stroke-linecap="butt"/><path d="M224.41274,95.61897l0.62287,-0.35366l14.47038,12.77912l-0.62286,0.35367z" fill="#000000" stroke="none" stroke-width="NaN" stroke-linecap="butt"/><g fill="#000000" stroke="#000000" stroke-width="0.5" stroke-linecap="butt"><path d="M253.04967,120.6087l6.36854,-10.56906l0.1355,0.1355l6.23303,10.43356z"/><path d="M265.83178,113.32525l-6.24931,10.63999l-0.13702,-0.13397l-6.34994,-10.36283z"/></g><path d="M243.73535,212.86987c0,1.39332 -1.17469,2.52282 -2.62373,2.52282c-1.44905,0 -2.62373,-1.12951 -2.62373,-2.52282c0,-1.39332 1.17469,-2.52282 2.62373,-2.52282c1.44905,0 2.62373,1.12951 2.62373,2.52282z" fill="#2f2f2f" stroke="none" stroke-width="0" stroke-linecap="butt"/><path d="M243.12769,202.05338c0,1.39331 -1.17468,2.52282 -2.62373,2.52282c-1.44905,0 -2.62374,-1.12951 -2.62374,-2.52282c0,-1.39331 1.17469,-2.52282 2.62374,-2.52282c1.44905,0 2.62373,1.1295 2.62373,2.52282z" fill="#2f2f2f" stroke="none" stroke-width="0" stroke-linecap="butt"/><path d="M242.52002,189.94282c0,1.39331 -1.17468,2.52282 -2.62373,2.52282c-1.44905,0 -2.62374,-1.12951 -2.62374,-2.52282c0,-1.39331 1.17469,-2.52282 2.62374,-2.52282c1.44905,0 2.62373,1.1295 2.62373,2.52282z" fill="#2f2f2f" stroke="none" stroke-width="0" stroke-linecap="butt"/><path d="M242.63129,178.69497c0,1.39331 -1.17468,2.52282 -2.62373,2.52282c-1.44905,0 -2.62374,-1.12951 -2.62374,-2.52282c0,-1.39331 1.17469,-2.52282 2.62374,-2.52282c1.44905,0 2.62373,1.1295 2.62373,2.52282z" fill="#2f2f2f" stroke="none" stroke-width="0" stroke-linecap="butt"/><path d="M242.02363,168.59742c0,1.39331 -1.17469,2.52282 -2.62374,2.52282c-1.44905,0 -2.62374,-1.12951 -2.62374,-2.52282c0,-1.39331 1.17469,-2.52282 2.62374,-2.52282c1.44905,0 2.62374,1.1295 2.62374,2.52282z" fill="#2f2f2f" stroke="none" stroke-width="0" stroke-linecap="butt"/><g fill="#3c3c3c" stroke="#2c2c2c" stroke-width="0.5" stroke-linecap="butt"><path d="M241.853,161.83515l-0.05379,-2.9247l3.99147,-2.96547l1.4541,7.43775z" data-paper-data="{&quot;index&quot;:null}"/><path d="M231.87526,163.02497l1.67882,-6.74213l3.58498,2.90449l-0.17806,2.67568z"/><path d="M241.82385,158.05927c1.03133,1.33725 0.76666,3.27022 -0.59116,4.31741c-1.35782,1.0472 -3.29461,0.81207 -4.32594,-0.52518c-1.03133,-1.33725 -0.76666,-3.27022 0.59116,-4.31741c1.35782,-1.0472 3.29461,-0.81207 4.32594,0.52518z"/></g><path d="M220.11883,230.19611v-11.93426h44.71752v11.93426l4.02187,54.23513l-16.2437,-0.02773l-1.0065,-54.35119c0,0 -5.58408,-0.86272 -8.62717,-0.86272c-2.99517,0 -8.91475,1.0065 -8.91475,1.0065l1.4511,53.71194l-13.52914,-0.94239z" fill="#333333" stroke="#2c2c2c" stroke-width="1" stroke-linecap="butt"/><path d="M217.81825,222.13544v-3.1633h49.31868v3.1633z" fill="#151515" stroke="#191919" stroke-width="0.5" stroke-linecap="butt"/><path d="M221.55669,223.42952v-5.60766h2.44437v5.60766z" fill="#333333" stroke="#2c2c2c" stroke-width="1" stroke-linecap="butt"/><path d="M239.96133,223.57331v-5.89524h2.58815v5.89524z" fill="#333333" stroke="#2c2c2c" stroke-width="1" stroke-linecap="butt"/><path d="M261.52926,223.28573v-5.60766h2.44437v5.60766z" fill="#333333" stroke="#2c2c2c" stroke-width="1" stroke-linecap="butt"/><path d="M220.73319,287.55818v-3.1633h15.40057v3.1633z" fill="#0a0a0a" stroke="#0c0c0c" stroke-width="1" stroke-linecap="butt"/><path d="M238.37968,284.03542c0,1.94557 -4.34533,3.52276 -9.70557,3.52276c-5.36024,0 -9.70557,-1.57719 -9.70557,-3.52276c0,-1.94557 4.34533,-3.52276 9.70557,-3.52276c5.36024,0 9.70557,1.57719 9.70557,3.52276z" fill="#0a0a0a" stroke="#0c0c0c" stroke-width="1" stroke-linecap="butt"/><path d="M253.34014,288.67595v-3.1633h15.40058v3.1633z" fill="#0a0a0a" stroke="#0c0c0c" stroke-width="1" stroke-linecap="butt"/><path d="M270.98664,285.15319c0,1.94557 -4.34534,3.52276 -9.70557,3.52276c-5.36024,0 -9.70557,-1.57719 -9.70557,-3.52276c0,-1.94557 4.34533,-3.52277 9.70557,-3.52277c5.36024,0 9.70557,1.5772 9.70557,3.52277z" fill="#0a0a0a" stroke="#0c0c0c" stroke-width="1" stroke-linecap="butt"/><g data-paper-data="{&quot;index&quot;:null}" stroke-linecap="butt"><path d="M188.83845,91.50369c1.71325,4.06068 0.99653,8.24089 -1.60084,9.33675c-2.59737,1.09586 -6.09182,-1.3076 -7.80507,-5.36828c-0.33813,-0.80143 -0.55327,-1.4107 -0.8403,-2.30618c-1.16724,-3.64173 -1.78609,-7.90007 0.29865,-8.77965c0.94956,-0.40063 4.16153,1.41551 5.22002,1.86026c0.65027,0.27323 1.14725,-2.99351 1.7589,-2.45607c1.11609,0.98068 2.26653,6.04902 2.96865,7.71316z" fill="#ffb935" stroke="#a77923" stroke-width="2"/><path d="M190.43607,94.15477c0,0 6.81101,18.32158 11.96848,27.38259c6.72656,11.81769 24.94872,37.47607 24.94872,37.47607l-9.55696,5.58958c0,0 -17.97695,-25.63735 -24.75717,-37.30201c-5.52465,-9.50458 -12.93422,-27.54212 -12.93422,-27.54212z" fill="#f1ecec" stroke="#a5a5a5" stroke-width="1"/><path d="M191.74788,92.85117l1.34145,3.17947l-13.77769,5.81297l-1.34145,-3.17947z" fill="#f1ecec" stroke="#a5a5a5" stroke-width="1"/></g><path d="M300.85711,111.45622c-2.43187,-1.42593 -2.59611,-5.66394 -0.36685,-9.46588c0.9136,-1.55811 2.71657,-6.4326 3.95126,-7.25901c0.67664,-0.4529 0.74241,2.85078 1.42281,2.66488c1.10755,-0.3026 4.52931,-1.68338 5.41837,-1.16208c1.9519,1.1445 0.78182,5.28544 -0.85137,8.74337c-0.4016,0.85029 -0.69453,1.42621 -1.1345,2.17657c-2.22926,3.80193 -6.00786,5.72807 -8.43973,4.30214z" fill="#ffb935" stroke="#a77923" stroke-width="2" stroke-linecap="butt"/><path d="M308.06998,111.31613c0,0 -9.70344,16.91443 -16.42291,25.61544c-8.24658,10.67847 -29.42002,33.74641 -29.42002,33.74641l-8.74445,-6.79069c0,0 21.41928,-23.05674 29.63267,-33.89392c6.29748,-8.30923 15.4446,-25.58349 15.4446,-25.58349z" fill="#f1ecec" stroke="#a5a5a5" stroke-width="1" stroke-linecap="butt"/><path d="M310.32947,110.50979l-1.74549,2.97687l-12.89978,-7.56379l1.74549,-2.97687z" fill="#f1ecec" stroke="#a5a5a5" stroke-width="1" stroke-linecap="butt"/><g stroke-width="1"><path d="M179.47652,73.74724l4.46679,-5.17742v0.10152l3.65465,5.0759z" fill="#ffcf9c" stroke="#d6a066" stroke-linecap="butt"/><path d="M179.47652,119.1258v-45.27704h7.81689v45.27704z" fill="#ff972b" stroke="#b76e1f" stroke-linecap="butt"/><path d="M187.49644,119.3796c0,0.86904 -1.81805,1.57353 -4.06072,1.57353c-2.24267,0 -4.06072,-0.70449 -4.06072,-1.57353c0,-0.86904 1.81805,-1.57353 4.06072,-1.57353c2.24267,0 4.06072,0.70449 4.06072,1.57353z" fill="#ffcf9c" stroke="#d6a066" stroke-linecap="butt"/><path d="M185.06001,119.3796c0,0.53264 -0.77267,0.96442 -1.72581,0.96442c-0.95314,0 -1.72581,-0.43179 -1.72581,-0.96442c0,-0.53264 0.77267,-0.96442 1.72581,-0.96442c0.95314,0 1.72581,0.43179 1.72581,0.96442z" fill="#202020" stroke="none" stroke-linecap="butt"/><path d="M182.01447,69.99108l1.82732,-2.53795h0.40607l1.21822,2.74099z" fill="#202020" stroke="none" stroke-linecap="butt"/><path d="M181.70991,117.19696l0.20304,-35.22676" fill="none" stroke="#b76e1f" stroke-linecap="round"/><path d="M185.66912,117.29848l-0.20304,-41.31784" fill="none" stroke="#b76e1f" stroke-linecap="round"/></g><path d="M182.1812,89.72537c0,3.42754 -1.19082,6.20611 -2.65976,6.20611c-1.46895,0 -2.65976,-2.77857 -2.65976,-6.20611c0,-3.42754 1.19082,-6.20611 2.65976,-6.20611c1.46895,0 2.65976,2.77857 2.65976,6.20611z" fill="#ffb935" stroke="#a77923" stroke-width="2" stroke-linecap="butt"/></g></g></svg>