<svg version="1.1" xmlns="http://www.w3.org/2000/svg" xmlns:xlink="http://www.w3.org/1999/xlink" width="218.49175" height="162.21328" viewBox="0,0,218.49175,162.21328"><g transform="translate(-169.55447,-145.71495)"><g data-paper-data="{&quot;isPaintingLayer&quot;:true}" fill-rule="nonzero" stroke-linecap="butt" stroke-linejoin="miter" stroke-miterlimit="10" stroke-dasharray="" stroke-dashoffset="0" style="mix-blend-mode: normal"><path d="M346.23154,270.16797l-81.31909,-20.29363l9.28374,-36.35416l104.65364,30.47319l8.07403,2.88381l-1.21834,7.39654l-8.49474,-2.49448l-2.66701,7.5551l-23.71209,-4.48439z" fill="#2a96bd" stroke="#1e6b87" stroke-width="2"/><path d="M248.60663,295.0336l-15.39757,-40.02077l-1.70342,-29.79847l5.39118,-9.77537l17.37153,0.27232l6.26507,8.14798l2.50481,29.44572l-8.49756,41.45627z" fill="#2a96bd" stroke="#1e6b87" stroke-width="2"/><path d="M221.22802,208.17768v-46.35536h47.54396v46.35536z" fill="#36c0f3" stroke="#1e6b87" stroke-width="2"/><path d="M227.07918,193.79115v-17.29238h10.89284v17.29238z" fill="#ffffff" stroke="#1e6b87" stroke-width="1.5"/><path d="M231.01444,194.69664v-10.22467h5.39954v10.22467z" fill="#2a96bd" stroke="#1e6b87" stroke-width="2"/><path d="M222.44972,183.03447v-0.40849h3.54017v0.40849z" fill="#ffffff" stroke="#1e6b87" stroke-width="1.5"/><path d="M205.61862,161.59252l0.13616,-10.3482l5.57986,-0.19172l-0.26899,-4.33101l48.81872,0.30353l0.06187,4.12565l5.85532,-0.17877l1.22545,10.62052h-42.20975l-0.18795,12.97548l0.11598,7.465l-9.18999,-0.08567l-1.0858,-7.32914l-9.25936,0.04574z" fill="#2a96bd" stroke="#1e6b87" stroke-width="2"/><path d="M249.85592,193.82909v-17.29238h10.89284v17.29238z" fill="#ffffff" stroke="#1e6b87" stroke-width="1.5"/><path d="M255.2711,190.05677v-8.26114h4.36263v8.26114z" fill="#2a96bd" stroke="#1e6b87" stroke-width="2"/><path d="M261.83804,183.07241v-0.40848h3.54018v0.40848z" fill="#ffffff" stroke="#1e6b87" stroke-width="1.5"/><path d="M239.99971,199.48684v-1.39122h8.88245v1.39122z" fill="#000000" stroke="none" stroke-width="none"/><path d="M248.24708,200.80263v-1.39122h3.74561v1.39122z" fill="#000000" stroke="none" stroke-width="0"/><path d="M236.96422,200.69905v-1.39122h3.74561v1.39122z" fill="#000000" stroke="none" stroke-width="0"/><path d="M209.71658,273.9993l-5.88442,-11.23389l12.42337,-6.50748l5.88442,11.23389z" fill="#86dfff" stroke="#6cb2cc" stroke-width="2"/><path d="M257.29645,275.90605v-9.35741h10.3482v9.35741z" fill="#86dfff" stroke="#6cb2cc" stroke-width="2"/><path d="M338.81583,236.3257v-9.11117h10.07588v9.11117z" fill="#86dfff" stroke="#6cb2cc" stroke-width="2"/><path d="M280.80699,198.98265l3.48462,-8.28507l9.16231,3.85358l-3.48462,8.28507z" fill="#86dfff" stroke="#6cb2cc" stroke-width="2"/><path d="M220.73621,207.82805v-14.52861h16.06695v14.52861z" fill="#86dfff" stroke="#6cb2cc" stroke-width="2"/><path d="M189.04493,282.05865l-13.36022,-61.87948l10.79358,-1.68012l13.36022,61.87949z" fill="#2a96bd" stroke="#1e6b87" stroke-width="2"/><path d="M189.85853,295.50467l-3.50241,-12.27109l15.75068,-5.54527l3.50241,12.27109l2.49786,8.38139l-4.89223,1.92231l-3.20212,-8.33337l2.9488,11.8489l-11.1421,2.90797z" fill="#86dfff" stroke="#6cb2cc" stroke-width="2"/><path d="M293.8653,226.87597l-8.54582,-62.72587l10.71942,-2.10194l8.54583,62.72587z" data-paper-data="{&quot;index&quot;:null}" fill="#2a96bd" stroke="#1e6b87" stroke-width="2"/><path d="M310.37633,248.87155l-11.46582,1.06658l-1.26926,-12.14416l-0.16789,8.92583l-5.25453,-0.13848l-0.51051,-8.73077l-0.89284,-12.72987l16.69755,-0.15924l0.89284,12.72987z" data-paper-data="{&quot;index&quot;:null}" fill="#86dfff" stroke="#6cb2cc" stroke-width="2"/><path d="M175.07482,257.28722l-4.17051,-7.96189l8.80492,-4.6121l4.17051,7.96189z" fill="#86dfff" stroke="#6cb2cc" stroke-width="2"/><path d="M227.67302,229.30016v-8.98804h9.93972v8.98804z" fill="#86dfff" stroke="#6cb2cc" stroke-width="2"/><path d="M263.24292,165.90956v-8.98804h9.93972v8.98804z" fill="#86dfff" stroke="#6cb2cc" stroke-width="2"/><path d="M296.43215,191.10681l3.48462,-8.28507l9.16231,3.85358l-3.48462,8.28507z" fill="#86dfff" stroke="#6cb2cc" stroke-width="2"/></g></g></svg>