<svg version="1.1" xmlns="http://www.w3.org/2000/svg" xmlns:xlink="http://www.w3.org/1999/xlink" width="182.16141" height="74.65749" viewBox="0,0,182.16141,74.65749"><g transform="translate(-152.79059,-215.01945)"><g data-paper-data="{&quot;isPaintingLayer&quot;:true}" fill-rule="nonzero" stroke-linejoin="miter" stroke-miterlimit="10" stroke-dasharray="" stroke-dashoffset="0" style="mix-blend-mode: normal"><path d="M266.60766,253.94576l-61.64037,2.72323l-2.71889,-27.9718l62.70975,-4.20936z" fill="#f1ecec" stroke="#a5a5a5" stroke-width="1" stroke-linecap="butt"/><path d="M265.43569,239.80732l-61.48778,4.29307" fill="none" stroke="#474747" stroke-width="1" stroke-linecap="round"/><path d="M258.31092,238.31271c1.39003,-0.06788 2.59759,0.70773 2.69719,1.73237c0.0996,1.02464 -0.9465,1.91029 -2.33652,1.97817c-1.39003,0.06788 -2.59759,-0.70773 -2.69719,-1.73237c-0.0996,-1.02464 0.9465,-1.91029 2.33652,-1.97817z" fill="#2f2f2f" stroke="none" stroke-width="0" stroke-linecap="butt"/><path d="M247.56178,239.26933c1.39002,-0.06788 2.59759,0.70773 2.69719,1.73237c0.0996,1.02464 -0.9465,1.9103 -2.33652,1.97818c-1.39002,0.06788 -2.59759,-0.70773 -2.69719,-1.73237c-0.0996,-1.02464 0.94649,-1.91029 2.33652,-1.97817z" fill="#2f2f2f" stroke="none" stroke-width="0" stroke-linecap="butt"/><path d="M235.52162,240.289c1.39002,-0.06788 2.59759,0.70773 2.69719,1.73237c0.0996,1.02464 -0.9465,1.9103 -2.33652,1.97818c-1.39002,0.06788 -2.59759,-0.70773 -2.69719,-1.73237c-0.0996,-1.02464 0.94649,-1.91029 2.33652,-1.97817z" fill="#2f2f2f" stroke="none" stroke-width="0" stroke-linecap="butt"/><path d="M224.29272,240.75827c1.39002,-0.06788 2.59759,0.70773 2.69719,1.73237c0.0996,1.02464 -0.9465,1.9103 -2.33652,1.97818c-1.39002,0.06788 -2.59759,-0.70773 -2.69719,-1.73237c-0.0996,-1.02464 0.94649,-1.91029 2.33652,-1.97817z" fill="#2f2f2f" stroke="none" stroke-width="0" stroke-linecap="butt"/><path d="M214.26082,241.67987c1.39002,-0.06788 2.59759,0.70773 2.69719,1.73237c0.0996,1.02464 -0.9465,1.9103 -2.33652,1.97818c-1.39002,0.06788 -2.59759,-0.70773 -2.69719,-1.73237c-0.0996,-1.02464 0.94649,-1.9103 2.33652,-1.97818z" fill="#2f2f2f" stroke="none" stroke-width="0" stroke-linecap="butt"/><path d="M277.2194,254.16814l-11.90604,0.58139l-3.07352,-31.62026l11.90604,-0.58139l53.83044,-5.48605l1.0888,11.48745l-54.15348,3.3595c0,0 -0.47688,3.99059 -0.26772,6.1424c0.20586,2.11792 1.61685,6.25469 1.61685,6.25469l53.48518,-3.64274l-0.01028,9.61252z" fill="#333333" stroke="#2c2c2c" stroke-width="1" stroke-linecap="butt"/><path d="M269.33591,256.18759l-3.15582,0.1541l-3.38977,-34.87379l3.15582,-0.1541z" fill="#151515" stroke="#191919" stroke-width="0.5" stroke-linecap="butt"/><path d="M270.36998,253.48106l-5.5944,0.27318l-0.16801,-1.72844l5.5944,-0.27318z" fill="#333333" stroke="#2c2c2c" stroke-width="1" stroke-linecap="butt"/><path d="M269.24845,240.45993l-5.8813,0.28719l-0.17789,-1.83011l5.8813,-0.28719z" fill="#333333" stroke="#2c2c2c" stroke-width="1" stroke-linecap="butt"/><path d="M267.47914,225.22301l-5.5944,0.27318l-0.16801,-1.72844l5.5944,-0.27318z" fill="#333333" stroke="#2c2c2c" stroke-width="1" stroke-linecap="butt"/><path d="M334.40359,250.93925l-3.15582,0.1541l-1.05851,-10.88992l3.15582,-0.1541z" fill="#0a0a0a" stroke="#0c0c0c" stroke-width="1" stroke-linecap="butt"/><path d="M329.67628,238.63284c1.94097,-0.09478 3.81309,2.90102 4.18151,6.6913c0.36842,3.79029 -0.90638,6.93975 -2.84735,7.03453c-1.94097,0.09478 -3.81309,-2.90102 -4.18151,-6.6913c-0.36842,-3.79029 0.90638,-6.93975 2.84735,-7.03453z" fill="#0a0a0a" stroke="#0c0c0c" stroke-width="1" stroke-linecap="butt"/><path d="M333.27758,227.82806l-3.15582,0.1541l-1.05851,-10.88992l3.15582,-0.1541z" fill="#0a0a0a" stroke="#0c0c0c" stroke-width="1" stroke-linecap="butt"/><path d="M328.55027,215.52164c1.94097,-0.09478 3.81309,2.90102 4.18151,6.6913c0.36842,3.79029 -0.90638,6.93975 -2.84735,7.03453c-1.94097,0.09478 -3.8131,-2.90102 -4.18152,-6.6913c-0.36842,-3.79029 0.90639,-6.93975 2.84736,-7.03453z" fill="#0a0a0a" stroke="#0c0c0c" stroke-width="1" stroke-linecap="butt"/><path d="M213.20821,264.53758c0,5.96518 -5.85248,10.80091 -13.07188,10.80091c-7.2194,0 -13.07188,-4.83573 -13.07188,-10.80091c0,-5.96518 5.85248,-10.80091 13.07188,-10.80091c7.2194,0 13.07188,4.83573 13.07188,10.80091z" fill="#ffb935" stroke="#a77923" stroke-width="2" stroke-linecap="butt"/><path d="M212.29409,229.68423c0,6.3662 -5.89341,11.52702 -13.16329,11.52702c-7.26988,0 -13.16329,-5.16082 -13.16329,-11.52702c0,-6.3662 5.89341,-11.52702 13.16329,-11.52702c7.26988,0 13.16329,5.16082 13.16329,11.52702z" fill="#ffb935" stroke="#a77923" stroke-width="2" stroke-linecap="butt"/><path d="M212.84256,242.845c0,10.22602 -7.08027,18.51584 -15.81423,18.51584c-8.73396,0 -15.81423,-8.28982 -15.81423,-18.51584c0,-10.22602 7.08027,-18.51584 15.81423,-18.51584c8.73396,0 15.81423,8.28982 15.81423,18.51584z" fill="#ffb935" stroke="#a77923" stroke-width="2" stroke-linecap="butt"/><path d="M196.02281,252.37521c0,7.16824 -5.23858,12.97924 -11.7007,12.97924c-6.46212,0 -11.7007,-5.811 -11.7007,-12.97924c0,-7.16824 5.23858,-12.97924 11.7007,-12.97924c6.46212,0 11.7007,5.811 11.7007,12.97924z" fill="#ffb935" stroke="#a77923" stroke-width="2" stroke-linecap="butt"/><path d="M196.57128,233.49631c0,7.06798 -7.32583,12.79771 -16.3627,12.79771c-9.03687,0 -16.3627,-5.72973 -16.3627,-12.79771c0,-7.06798 7.32583,-12.79771 16.3627,-12.79771c9.03687,0 16.3627,5.72973 16.3627,12.79771z" fill="#ffb935" stroke="#a77923" stroke-width="2" stroke-linecap="butt"/><path d="M179.93434,239.84979c0,7.06798 -5.85248,12.79771 -13.07188,12.79771c-7.2194,0 -13.07188,-5.72973 -13.07188,-12.79771c0,-7.06798 5.85248,-12.79771 13.07188,-12.79771c7.2194,0 13.07188,5.72973 13.07188,12.79771z" fill="#ffb935" stroke="#a77923" stroke-width="2" stroke-linecap="butt"/><path d="M181.76258,255.82424c0,4.46135 -4.74747,8.07799 -10.60376,8.07799c-5.8563,0 -10.60376,-3.61664 -10.60376,-8.07799c0,-4.46135 4.74747,-8.07799 10.60376,-8.07799c5.8563,0 10.60376,3.61664 10.60376,8.07799z" fill="#ffb935" stroke="#a77923" stroke-width="2" stroke-linecap="butt"/><path d="M171.27671,244.98238c0.54034,0.95377 2.50557,3.91289 2.52413,4.94221c0.05513,3.05673 -3.40693,4.36487 -6.3059,3.64526c-1.90965,-0.47403 -5.77806,-7.23895 -3.34719,-8.61818c0.714,-1.20123 2.03093,-2.00706 3.53742,-2.00706c1.33576,0 2.52249,0.63354 3.27204,1.61449c0.12233,0.12547 0.23004,0.26537 0.31949,0.42327z" fill="#ffb935" stroke="none" stroke-width="0.5" stroke-linecap="butt"/><path d="M170.34502,238.85139c0.27821,-0.73778 0.34328,-1.6033 0.70759,-2.28832c0.08589,-0.1615 0.18842,-0.31298 0.31429,-0.45037c0.37193,-0.40598 0.77729,-0.68115 1.20231,-0.88496c0.26181,-0.13421 0.54003,-0.24127 0.83088,-0.31743c0.83555,-0.25772 1.70958,-0.39672 2.53051,-0.81197c2.6739,-1.35253 2.66102,-3.73716 5.83197,-4.40525c2.53534,-0.53417 3.14308,1.58167 4.35132,2.9954c1.83082,2.14221 3.42657,4.81014 3.40977,7.88105c-0.00846,1.54509 0.03696,3.09066 0,4.63533c-0.00665,0.27814 -0.40069,0.79199 -0.12255,0.82572c0.92487,0.11216 1.86523,0.05676 2.79521,0c0.59757,-0.03647 0.53389,-1.07836 0.92408,-1.52922c0.8188,-0.94611 2.45139,-1.26244 2.85424,-2.44401c0.03204,-0.09397 -0.12834,-0.15214 -0.19507,-0.22597c-1.30965,-1.449 -1.79449,-3.23527 -3.09097,-4.77374c-2.8708,-3.40664 -1.24372,-8.96826 1.42339,-11.87516c0.72347,-0.78851 1.11946,-2.46892 2.17579,-2.81854c3.67128,-1.21509 5.20098,-0.45566 6.42474,3.1896c0.90292,2.68956 -3.41796,4.41872 -3.13357,6.86592c0.13451,1.15751 4.5889,6.18116 5.15445,7.11706c2.75826,4.56453 -2.00711,7.06956 -4.6283,9.56904c-1.14031,1.08736 -0.42982,2.75959 -2.59802,4.12958c-5.34691,3.37847 -14.62568,1.46814 -16.21479,-4.84327c-0.29604,-1.17576 0.1864,-7.91013 -0.10629,-7.86806c-1.58467,0.22777 -5.92371,3.7977 -7.59376,2.31403z" fill="#ffb935" stroke="none" stroke-width="0.5" stroke-linecap="butt"/><path d="M203.89162,254.08502c1.14609,0.76118 1.83618,2.12621 2.29455,3.41743c0.36269,1.02169 -0.81862,2.47386 -1.0769,3.40168c-0.82201,2.95294 -4.21584,8.56752 -7.43365,9.36627c-4.22223,1.04808 -7.9846,-2.0091 -5.46684,-6.38395c0.46926,-0.81539 2.02835,-1.28252 2.71642,-2.11667c1.22982,-1.49094 -0.62386,-4.9859 1.03383,-5.92644l3.53742,-2.00706c0.26596,0 0.52601,0.02512 0.77788,0.07309c1.24954,-0.01034 2.61158,-0.4923 3.61729,0.17565z" fill="#ffb935" stroke="none" stroke-width="0.5" stroke-linecap="butt"/><g data-paper-data="{&quot;index&quot;:null}" stroke-linecap="butt"><path d="M246.01274,274.60892c1.53695,-1.28414 4.93666,0.52027 7.59347,4.03025c0.52436,0.69274 0.89211,1.22399 1.41113,2.00803c2.1107,3.1885 4.02922,6.99904 2.79561,8.02973c-0.56189,0.46946 -3.55176,-0.83109 -4.48427,-1.11965c-0.57287,-0.17727 0.18308,2.85293 -0.45208,2.43075c-1.15901,-0.77036 -3.74733,-5.26013 -4.83615,-6.69859c-2.65682,-3.50999 -3.56465,-7.3964 -2.0277,-8.68054z" fill="#ffb935" stroke="#a77923" stroke-width="2"/><path d="M245.95299,281.05066c0,0 -11.31035,-15.93808 -18.22186,-23.62334c-9.01422,-10.02338 -31.25061,-31.38767 -31.25061,-31.38767l5.12022,-6.14349c0,0 22.04854,21.37214 31.04972,31.25023c7.33433,8.04885 18.98807,23.66232 18.98807,23.66232z" fill="#f1ecec" stroke="#a5a5a5" stroke-width="1"/><path d="M245.4344,282.38247l-2.08025,-2.74828l8.15268,-6.81169l2.08025,2.74828z" fill="#f1ecec" stroke="#a5a5a5" stroke-width="1"/></g></g></g></svg>