<svg version="1.1" xmlns="http://www.w3.org/2000/svg" xmlns:xlink="http://www.w3.org/1999/xlink" width="65.04699" height="143.09435" viewBox="0,0,65.04699,143.09435"><g transform="translate(-207.6931,-148.33668)"><g data-paper-data="{&quot;isPaintingLayer&quot;:true}" fill-rule="nonzero" stroke-linejoin="miter" stroke-miterlimit="10" stroke-dasharray="" stroke-dashoffset="0" style="mix-blend-mode: normal"><g stroke-width="1" stroke-linecap="butt"><path d="M254.88558,287.21344c0,1.97742 -2.47422,3.58044 -5.52633,3.58044c-3.05211,0 -5.52633,-1.60302 -5.52633,-3.58044c0,-1.97742 2.47422,-3.58044 5.52633,-3.58044c3.05211,0 5.52633,1.60302 5.52633,3.58044z" fill="#fff5d4" stroke="#ebecae"/><path d="M245.5652,284.10001c0,0 -0.79827,-12.7918 -0.79827,-19.37792c0,-6.98564 0.79827,-21.40798 0.79827,-21.40798h8.09672c0,0 0.91231,13.31142 0.91231,19.93158c0,6.9583 -0.91231,20.85433 -0.91231,20.85433z" fill="#66b8ff" stroke="#4d8bc1"/><path d="M244.14425,285.65673v-3.73612h11.51968v3.73612z" fill="#66b8ff" stroke="#4d8bc1"/></g><g stroke-width="1" stroke-linecap="butt"><path d="M238.36589,287.3506c0,1.97742 -2.47423,3.58044 -5.52634,3.58044c-3.05211,0 -5.52633,-1.60301 -5.52633,-3.58044c0,-1.97742 2.47422,-3.58044 5.52633,-3.58044c3.05211,0 5.52634,1.60302 5.52634,3.58044z" fill="#fff5d4" stroke="#ebecae"/><path d="M229.04552,284.23715c0,0 -0.79827,-12.79179 -0.79827,-19.37792c0,-6.98564 0.79827,-21.40799 0.79827,-21.40799h8.09672c0,0 0.91231,13.31142 0.91231,19.93158c0,6.9583 -0.91231,20.85433 -0.91231,20.85433z" fill="#66b8ff" stroke="#4d8bc1"/><path d="M227.62456,285.79388v-3.73612h11.51969v3.73612z" fill="#66b8ff" stroke="#4d8bc1"/></g><path d="M213.84876,172.11409l-0.10586,0.0437l-0.03573,0.06253l-0.29343,0.07335l-0.27956,0.11542l-0.06591,-0.02905l-0.1111,0.02777h-0.78783l-0.08835,-0.02209l-0.09036,0.0114l-2.18842,-0.26261l-0.04337,-0.01655l-0.04199,0.01566l-0.31261,-0.15092l-0.32435,-0.12372l-0.01744,-0.04128l-0.0418,-0.02018l-0.52522,-0.43768l-0.45613,-0.62418l0.06162,-0.34736l-0.15056,-0.31904l0.10994,-0.28704l-0.08203,-0.14355l-0.07627,-0.27119l-0.10629,-0.26089l-0.08754,-0.61276l0.01111,-0.10739l-0.02618,-0.10474v-1.57566l0.0689,-0.2756l0.03839,-0.28148l0.35014,-0.87536l0.10173,-0.14086l0.06214,-0.16225l0.61275,-0.87536l0.10003,-0.08687l0.06816,-0.1136l0.87536,-0.87537l0.10202,-0.06122l0.07638,-0.09123l0.15568,-0.11322l-0.00343,-0.04457l-0.04057,-0.08566l-0.08054,-0.40268l-0.07888,-0.31552v-0.05891l-0.0615,-0.07175l-0.08754,-0.17507l-0.01739,-0.07827l-0.01183,-0.01972l0.0041,-0.01506l-0.01071,-0.0482l-0.07774,-0.14576l-0.08754,-0.35014v-0.18466l-0.04478,-0.17915v-0.13846l-0.06315,-0.37891l-0.17033,-0.85164l0.0071,-0.14924l-0.03624,-0.14494v-0.87536l0.1875,-0.75l0.35796,-0.20455l0.20454,-0.35795l0.75,-0.1875h0.33981l0.01402,-0.00935l0.04206,0.00935h0.0418l0.33437,0.08359l0.33645,0.07476l0.03739,0.0187l0.0418,0.01045l0.00836,0.01462l0.61276,0.30638l0.04466,0.03827l0.05627,0.01712l0.08141,0.04885h0.74905l0.29203,-0.05841l0.14923,0.00711l0.14494,-0.03624h0.13846l0.81189,-0.13532l0.41357,-0.13786l0.05864,-0.00451l0.0519,-0.02768l0.7003,-0.17507h0.18466l0.17915,-0.04478h0.89282l0.1137,-0.06498l0.00895,-0.00252l0.00679,-0.00635l0.78783,-0.43768l0.06567,-0.01762l0.05358,-0.04187l0.78783,-0.35014l0.02859,-0.00501l0.02353,-0.01699l0.43769,-0.17508l0.28148,-0.03838l0.27561,-0.0689h0.51488l0.01402,-0.00934l0.04205,0.00934h0.0418l0.15535,0.03884l0.5327,-0.03552l0.05025,0.00906l0.04953,-0.01238h0.87536l0.05706,0.01426l0.05799,-0.00984l1.13798,0.08754l0.02475,0.00825l0.02585,-0.0035l0.78783,0.08754l0.20712,0.07693l0.21811,0.03518l0.55541,0.23803l0.46603,0.15534l0.16903,0.10756l0.18868,0.06739l0.26261,0.17508l0.15779,0.17357l0.10156,0.02856l0.1073,0.20118l0.15337,0.16872l-0.00725,0.10525l0.11039,0.20698l0.08754,0.35015v0.18465l0.04478,0.17915v0.11362l0.14711,0.08827l0.10565,0.10564l0.13162,0.07068l0.44588,0.40535l0.17493,-0.5248c0.07675,-0.24957 0.21687,-0.47138 0.40158,-0.64667l0.02441,-0.03835l0.02276,-0.00456c0.26354,-0.22975 0.60813,-0.36889 0.98522,-0.36889c0.72097,0 1.32314,0.50865 1.46722,1.18667l0.0151,0.01686l-0.00341,0.04436c0.01387,0.08196 0.0211,0.16619 0.0211,0.25211c0,0.17815 -0.03105,0.34904 -0.08804,0.50756l-0.25154,0.75461l-0.09591,0.15072l-0.05511,0.16994l-0.87537,1.40059l-0.0163,0.01572l-0.00762,0.02133l-0.18576,0.27864v1.60295l-0.03041,0.12163l0.01,0.12497l-0.07475,0.4485l0.00762,0.01763l-0.01748,0.04151l-0.00293,0.01759l-0.14169,0.32589l-0.11057,0.26262l0.0976,0.39041v0.70029l-0.05848,0.23393l-0.0185,0.24042l-0.05659,0.16976l0.00443,0.01626l-0.02217,0.03695l-0.01322,0.03965l-0.18504,0.29077l-0.17732,0.29555l-0.02955,0.02955l-0.02313,0.03635l-0.01652,0.0033l-0.10587,0.10587l-0.20676,0.12406l-0.18308,0.15692l-0.35014,0.17507l-0.21874,0.04861l-0.20549,0.08934l-0.52522,0.08754l-0.12498,-0.01l-0.12162,0.03041h-1.46649l-0.17367,0.39076l-0.05594,0.22378l-0.04856,0.09104l-0.01394,0.10224l-0.17508,0.43768l-0.11589,0.16047l-0.07682,0.18243l-0.26261,0.35015l-0.08379,0.06808l-0.05555,0.09258l-0.35014,0.35014l-0.20676,0.12406l-0.18308,0.15692l-0.65765,0.32882l-0.00296,0.00295l-0.29554,0.17732l-0.29078,0.18504l-0.03965,0.01322l-0.03694,0.02217l-0.01626,-0.00444l-0.16977,0.05659l-0.11863,0.00913l-0.10911,0.04744l-0.52522,0.08754l-0.0751,-0.00601l-0.07172,0.02309l-1.215,0.08101l-1.2167,0.24334l-0.02481,-0.00118l-0.02277,0.0099l-1.57566,0.26261l-0.07511,-0.00601l-0.07172,0.0231l-1.31305,0.08754l-0.05024,-0.00906l-0.04953,0.01238h-1.05044l-0.75,-0.1875l-0.19741,-0.34547z" fill="#fff5d4" stroke="none" stroke-width="0.5" stroke-linecap="butt"/><path d="M269.32421,180.00001c0,8.32026 4.34382,14.06216 -0.04992,17.11982c-5.47314,3.80882 -19.73407,4.27874 -28.77122,4.27874c-10.0743,0 -23.62973,-0.18673 -28.88568,-5.26466c-3.2439,-3.13402 -1.29175,-9.00311 -1.29175,-16.1339c0,-2.37529 0.20979,-4.51805 0.6095,-6.44902c2.79981,-0.90161 3.2128,-2.90262 5.95751,-4.47102l0.09632,-0.38527c0.95798,-0.30702 1.84353,-0.7013 2.60881,-1.21906c0.88155,-0.59642 1.73189,-1.295 2.52953,-2.07245c1.55354,-0.69308 2.94908,-1.5095 3.40511,-2.10052c0.63216,-0.81929 1.60957,-3.06231 2.24511,-5.2443c3.60658,-0.75124 7.60299,-1.03928 11.82136,-1.03928c16.29201,0 29.72534,4.29638 29.72534,22.98092z" fill="#50351d" stroke="#3d2816" stroke-width="3" stroke-linecap="butt"/><text transform="translate(233.81456,192.52857) rotate(53.51089) scale(0.5,0.5)" font-size="40" xml:space="preserve" fill="#000000" fill-rule="nonzero" stroke="none" stroke-width="1" stroke-linecap="butt" stroke-linejoin="miter" stroke-miterlimit="10" stroke-dasharray="" stroke-dashoffset="0" font-family="Handwriting" font-weight="normal" text-anchor="start" style="mix-blend-mode: normal"><tspan x="0" dy="0">3</tspan></text><path d="M211.31919,160.40343c0,-0.27614 0.22386,-0.5 0.5,-0.5c0.27614,0 0.5,0.22386 0.5,0.5c0,0.27614 -0.22386,0.5 -0.5,0.5c-0.27614,0 -0.5,-0.22386 -0.5,-0.5z" fill="#37b33a" stroke="none" stroke-width="0.5" stroke-linecap="butt"/><path d="M213.85776,163.2046c0,-0.27614 0.22386,-0.5 0.5,-0.5c0.27614,0 0.5,0.22386 0.5,0.5c0,0.27614 -0.22386,0.5 -0.5,0.5c-0.27614,0 -0.5,-0.22386 -0.5,-0.5z" fill="#37b33a" stroke="none" stroke-width="0.5" stroke-linecap="butt"/><path d="M215.60849,158.56516c0,-0.27614 0.22386,-0.5 0.5,-0.5c0.27614,0 0.5,0.22386 0.5,0.5c0,0.27614 -0.22386,0.5 -0.5,0.5c-0.27614,0 -0.5,-0.22386 -0.5,-0.5z" fill="#37b33a" stroke="none" stroke-width="0.5" stroke-linecap="butt"/><path d="M209.91861,165.91824c0,-0.27614 0.22386,-0.5 0.5,-0.5c0.27614,0 0.5,0.22386 0.5,0.5c0,0.27614 -0.22386,0.5 -0.5,0.5c-0.27614,0 -0.5,-0.22386 -0.5,-0.5z" fill="#37b33a" stroke="none" stroke-width="0.5" stroke-linecap="butt"/><path d="M214.9082,160.84111c0,-0.27614 0.22386,-0.5 0.5,-0.5c0.27614,0 0.5,0.22386 0.5,0.5c0,0.27614 -0.22386,0.5 -0.5,0.5c-0.27614,0 -0.5,-0.22386 -0.5,-0.5z" fill="#37b33a" stroke="none" stroke-width="0.5" stroke-linecap="butt"/><path d="M211.49427,168.10665c0,-0.27614 0.22386,-0.5 0.5,-0.5c0.27614,0 0.5,0.22386 0.5,0.5c0,0.27614 -0.22386,0.5 -0.5,0.5c-0.27614,0 -0.5,-0.22386 -0.5,-0.5z" fill="#37b33a" stroke="none" stroke-width="0.5" stroke-linecap="butt"/><path d="M218.14705,157.42718c0,-0.27614 0.22386,-0.5 0.5,-0.5c0.27614,0 0.5,0.22386 0.5,0.5c0,0.27614 -0.22386,0.5 -0.5,0.5c-0.27614,0 -0.5,-0.22386 -0.5,-0.5z" fill="#37b33a" stroke="none" stroke-width="0.5" stroke-linecap="butt"/><path d="M216.74646,163.64228c0,-0.27614 0.22386,-0.5 0.5,-0.5c0.27614,0 0.5,0.22386 0.5,0.5c0,0.27614 -0.22386,0.5 -0.5,0.5c-0.27614,0 -0.5,-0.22386 -0.5,-0.5z" fill="#37b33a" stroke="none" stroke-width="0.5" stroke-linecap="butt"/><path d="M221.03576,158.39009c0,-0.27614 0.22386,-0.5 0.5,-0.5c0.27614,0 0.5,0.22386 0.5,0.5c0,0.27614 -0.22386,0.5 -0.5,0.5c-0.27614,0 -0.5,-0.22386 -0.5,-0.5z" fill="#37b33a" stroke="none" stroke-width="0.5" stroke-linecap="butt"/><path d="M218.23459,159.79065c0,-0.27614 0.22386,-0.5 0.5,-0.5c0.27614,0 0.5,0.22386 0.5,0.5c0,0.27614 -0.22386,0.5 -0.5,0.5c-0.27614,0 -0.5,-0.22386 -0.5,-0.5z" fill="#37b33a" stroke="none" stroke-width="0.5" stroke-linecap="butt"/><path d="M230.17243,159.72506c0.00707,1.00824 2.91068,-1.88373 2.96275,-1.96087c1.13015,-1.67438 3.87906,-1.94539 5.64767,-2.13726c3.19416,-0.34653 3.45936,4.46197 3.76917,6.55981c0.1591,1.07737 3.11947,-1.4513 3.33044,-1.72565c1.54912,-2.01451 3.38385,-3.35263 6.14347,-3.47382c3.10886,-0.13653 2.07922,5.69219 4.07864,5.55867c2.30693,-0.15406 5.25872,-2.70828 7.43425,-1.03533c0.67222,0.51693 1.54282,2.30798 0.84164,3.21981c-1.82839,2.37767 -2.2689,-0.29374 -3.74507,0.04731c-4.43489,1.02462 -8.66008,1.90015 -9.45206,-4.10841c-0.07251,-0.55009 -2.72722,2.25688 -2.93223,2.47212c-1.77513,1.86378 -3.93799,2.90984 -6.56209,2.46882c-2.97186,-0.49946 -2.29553,-3.12632 -3.08119,-5.64886c-0.07702,-0.24731 0.1036,-0.72131 -0.15221,-0.76202c-3.49781,-0.55663 -4.88571,4.90039 -9.35318,3.99373c-2.45302,-0.49783 -3.40532,-6.18391 -1.7952,-7.40541c0.23506,-0.55087 0.747,-0.96669 1.38388,-1.04986c0.95836,-0.12516 1.83672,0.55029 1.96188,1.50865c0.02505,0.19178 0.01803,0.38036 -0.0169,0.56034c-0.02932,0.7839 -0.47217,1.70443 -0.46366,2.91822z" fill="#fff5d4" stroke="none" stroke-width="0.5" stroke-linecap="butt"/><path d="M260.82626,152.0415c1.58926,0.91173 0.36185,1.87116 0.66534,3.13671c0.42462,1.77066 3.69034,2.01712 1.605,6.65194c-1.14288,2.54012 -12.49278,-0.979 -13.26386,-1.92162c-1.96636,-2.40378 0.66128,-4.46021 2.53559,-5.24287c0.26227,-0.10952 -0.14184,-0.55046 -0.21009,-0.82636c-0.47413,-1.91686 0.11072,-3.65431 2.0365,-4.27574c1.65936,-0.53546 5.31169,-1.45769 6.89138,-1.1738c3.02064,0.54285 1.05649,2.99221 -0.38297,3.53831z" fill="#23170c" stroke="none" stroke-width="0.5" stroke-linecap="butt"/><path d="M254.77388,151.12454c0,-0.13807 0.11193,-0.25 0.25,-0.25c0.13807,0 0.25,0.11193 0.25,0.25c0,0.13807 -0.11193,0.25 -0.25,0.25c-0.13807,0 -0.25,-0.11193 -0.25,-0.25z" fill="#fd96ff" stroke="none" stroke-width="0.5" stroke-linecap="butt"/><path d="M257.75013,149.54888c0,-0.13807 0.11193,-0.25 0.25,-0.25c0.13807,0 0.25,0.11193 0.25,0.25c0,0.13807 -0.11193,0.25 -0.25,0.25c-0.13807,0 -0.25,-0.11193 -0.25,-0.25z" fill="#fd96ff" stroke="none" stroke-width="0.5" stroke-linecap="butt"/><path d="M257.22491,153.22542c0,-0.13807 0.11193,-0.25 0.25,-0.25c0.13807,0 0.25,0.11193 0.25,0.25c0,0.13807 -0.11193,0.25 -0.25,0.25c-0.13807,0 -0.25,-0.11193 -0.25,-0.25z" fill="#fd96ff" stroke="none" stroke-width="0.5" stroke-linecap="butt"/><path d="M258.97564,152.52513c0,-0.13807 0.11193,-0.25 0.25,-0.25c0.13807,0 0.25,0.11193 0.25,0.25c0,0.13807 -0.11193,0.25 -0.25,0.25c-0.13807,0 -0.25,-0.11193 -0.25,-0.25z" fill="#fd96ff" stroke="none" stroke-width="0.5" stroke-linecap="butt"/><path d="M254.59881,154.88861c0,-0.13807 0.11193,-0.25 0.25,-0.25c0.13807,0 0.25,0.11193 0.25,0.25c0,0.13807 -0.11193,0.25 -0.25,0.25c-0.13807,0 -0.25,-0.11193 -0.25,-0.25z" fill="#fd96ff" stroke="none" stroke-width="0.5" stroke-linecap="butt"/><path d="M258.27535,155.76397c0,-0.13807 0.11193,-0.25 0.25,-0.25c0.13807,0 0.25,0.11193 0.25,0.25c0,0.13807 -0.11193,0.25 -0.25,0.25c-0.13807,0 -0.25,-0.11193 -0.25,-0.25z" fill="#fd96ff" stroke="none" stroke-width="0.5" stroke-linecap="butt"/><path d="M252.23532,158.30255c0,-0.13807 0.11193,-0.25 0.25,-0.25c0.13807,0 0.25,0.11193 0.25,0.25c0,0.13807 -0.11193,0.25 -0.25,0.25c-0.13807,0 -0.25,-0.11193 -0.25,-0.25z" fill="#fd96ff" stroke="none" stroke-width="0.5" stroke-linecap="butt"/><path d="M258.01274,159.87821c0,-0.13807 0.11193,-0.25 0.25,-0.25c0.13807,0 0.25,0.11193 0.25,0.25c0,0.13807 -0.11193,0.25 -0.25,0.25c-0.13807,0 -0.25,-0.11193 -0.25,-0.25z" fill="#fd96ff" stroke="none" stroke-width="0.5" stroke-linecap="butt"/><path d="M255.47417,157.86486c0,-0.13807 0.11193,-0.25 0.25,-0.25c0.13807,0 0.25,0.11193 0.25,0.25c0,0.13807 -0.11193,0.25 -0.25,0.25c-0.13807,0 -0.25,-0.11193 -0.25,-0.25z" fill="#fd96ff" stroke="none" stroke-width="0.5" stroke-linecap="butt"/><path d="M228.4249,190.55282c0,2.06604 -1.69986,3.7409 -3.79674,3.7409c-2.09688,0 -3.79674,-1.67486 -3.79674,-3.7409c0,-2.06604 1.69986,-3.7409 3.79674,-3.7409c2.09688,0 3.79674,1.67486 3.79674,3.7409z" fill="#ff8787" stroke="none" stroke-width="0" stroke-linecap="butt"/><path d="M260.5513,156.81442c0,-0.13807 0.11193,-0.25 0.25,-0.25c0.13807,0 0.25,0.11193 0.25,0.25c0,0.13807 -0.11193,0.25 -0.25,0.25c-0.13807,0 -0.25,-0.11193 -0.25,-0.25z" fill="#fd96ff" stroke="none" stroke-width="0.5" stroke-linecap="butt"/><path d="M260.81391,159.44052c0,-0.13807 0.11193,-0.25 0.25,-0.25c0.13807,0 0.25,0.11193 0.25,0.25c0,0.13807 -0.11193,0.25 -0.25,0.25c-0.13807,0 -0.25,-0.11193 -0.25,-0.25z" fill="#fd96ff" stroke="none" stroke-width="0.5" stroke-linecap="butt"/><path d="M262.95714,191.10204c0,2.06605 -1.69986,3.7409 -3.79674,3.7409c-2.09688,0 -3.79674,-1.67486 -3.79674,-3.7409c0,-2.06605 1.69986,-3.7409 3.79674,-3.7409c2.09688,0 3.79674,1.67486 3.79674,3.7409z" fill="#ff8787" stroke="none" stroke-width="0" stroke-linecap="butt"/><path d="M226.13678,243.82585v-40.17932h31.07551v40.17932z" fill="#ff83e4" stroke="#cc68b6" stroke-width="3" stroke-linecap="butt"/><path d="M242.15599,242.42526l-0.17507,-37.29061" fill="none" stroke="#cc68b6" stroke-width="3" stroke-linecap="round"/><path d="M243.38151,237.26778c0,0.97087 -0.68585,1.75791 -1.53189,1.75791c-0.84604,0 -1.53189,-0.78704 -1.53189,-1.75791c0,-0.97087 0.68585,-1.75791 1.53189,-1.75791c0.84604,0 1.53189,0.78704 1.53189,1.75791z" fill="#ff83e4" stroke="#cc68b6" stroke-width="3" stroke-linecap="butt"/><path d="M243.74206,226.3361c0,0.97087 -0.68585,1.75791 -1.53189,1.75791c-0.84604,0 -1.53189,-0.78705 -1.53189,-1.75791c0,-0.97087 0.68585,-1.75791 1.53189,-1.75791c0.84604,0 1.53189,0.78705 1.53189,1.75791z" fill="#ff83e4" stroke="#cc68b6" stroke-width="3" stroke-linecap="butt"/><path d="M243.66494,214.70414c0,0.92252 -0.68585,1.67037 -1.53189,1.67037c-0.84604,0 -1.53189,-0.74786 -1.53189,-1.67037c0,-0.92252 0.68585,-1.67037 1.53189,-1.67037c0.84604,0 1.53189,0.74786 1.53189,1.67037z" fill="#ff83e4" stroke="#cc68b6" stroke-width="3" stroke-linecap="butt"/><g fill="#3c3c3c" stroke="#2c2c2c" stroke-width="1.5" stroke-linecap="butt"><path d="M244.75999,206.10002l-0.05138,-2.79335l3.81222,-2.8323l1.3888,7.10374z" data-paper-data="{&quot;index&quot;:null}"/><path d="M235.23035,207.2364l1.60342,-6.43935l3.42398,2.77405l-0.17006,2.55552z"/><path d="M244.73216,202.4937c0.98502,1.27719 0.73222,3.12336 -0.56462,4.12352c-1.29684,1.00017 -3.14665,0.77559 -4.13166,-0.5016c-0.98502,-1.27719 -0.73223,-3.12335 0.56461,-4.12352c1.29684,-1.00017 3.14665,-0.7756 4.13166,0.50159z"/></g><g stroke-linecap="butt"><path d="M217.29559,248.81544v-28.88709h7.00294v28.88709z" fill="#50351d" stroke="#3d2816" stroke-width="2"/><path d="M216.42975,220.12788l1.69555,-13.0506l5.35471,-4.56905l3.17246,0.7637l-2.32328,17.88225z" fill="#ff83e4" stroke="#cc68b6" stroke-width="3"/><g fill="#feffce" stroke="#ebecae" stroke-width="2"><path d="M217.20805,250.3911v-9.89164h7.52815v9.89164z"/><path d="M226.51485,253.63642c-0.16255,1.32466 -0.27178,7.66074 -1.12187,8.55042c-0.17182,0.17982 -1.86284,-4.53759 -2.17025,-4.47405c-0.51263,0.10595 -0.1994,4.09286 -0.73101,4.58879c-1.19997,1.11945 -4.97581,0.64289 -5.50415,-1.09057c-0.86315,-2.83193 -1.98817,-5.64628 -1.59928,-8.81545c0.38889,-3.16917 3.19492,-5.46051 6.26744,-5.11786c3.07252,0.34265 5.24802,3.18955 4.85913,6.35872z"/><path d="M215.63239,241.5499v-3.32639h10.41686v3.32639z"/></g></g><g data-paper-data="{&quot;index&quot;:null}" stroke-linecap="butt"><path d="M259.24584,249.45664v-28.88709h7.00293v28.88709z" fill="#50351d" stroke="#3d2816" stroke-width="2"/><path d="M259.21516,221.79538l-2.32328,-17.88225l3.17246,-0.7637l5.35471,4.56905l1.69555,13.0506z" fill="#ff83e4" stroke="#cc68b6" stroke-width="3"/><g fill="#feffce" stroke="#ebecae" stroke-width="2"><path d="M258.80816,251.0323v-9.89164h7.52815v9.89164z"/><path d="M261.88864,247.91891c3.07252,-0.34265 5.87854,1.94869 6.26743,5.11786c0.38889,3.16917 -0.73614,5.98351 -1.59928,8.81544c-0.52835,1.73346 -4.30417,2.21002 -5.50415,1.09057c-0.53161,-0.49593 -0.21838,-4.48284 -0.73101,-4.58879c-0.30741,-0.06354 -1.99844,4.65387 -2.17025,4.47406c-0.85009,-0.88968 -0.95933,-7.22576 -1.12188,-8.55042c-0.38889,-3.16917 1.78662,-6.01607 4.85913,-6.35872z"/><path d="M257.49511,242.1911v-3.32639h10.41686v3.32639z"/></g></g><path d="M220.53554,172.83554l7.13921,6.1963l-8.21683,4.31047" fill="none" stroke="#000000" stroke-width="3" stroke-linecap="round"/><path d="M260.9622,183.89713l-8.21683,-4.31046l7.13922,-6.1963" data-paper-data="{&quot;index&quot;:null}" fill="none" stroke="#000000" stroke-width="3" stroke-linecap="round"/><text transform="translate(255.5581,175.52958) scale(0.5,0.5)" font-size="40" xml:space="preserve" fill="#bd0000" fill-rule="nonzero" stroke="none" stroke-width="1" stroke-linecap="butt" stroke-linejoin="miter" stroke-miterlimit="10" stroke-dasharray="" stroke-dashoffset="0" font-family="Sans Serif" font-weight="normal" text-anchor="start" style="mix-blend-mode: normal"><tspan x="0" dy="0">#</tspan></text></g></g></svg>