<svg version="1.1" xmlns="http://www.w3.org/2000/svg" xmlns:xlink="http://www.w3.org/1999/xlink" width="100.77392" height="95.8045" viewBox="0,0,100.77392,95.8045"><defs><linearGradient x1="221.72224" y1="191.62996" x2="221.72224" y2="208.18551" gradientUnits="userSpaceOnUse" id="color-1"><stop offset="0" stop-color="#f3ab1c"/><stop offset="1" stop-color="#b78533"/></linearGradient><linearGradient x1="256.64531" y1="192.93765" x2="256.64531" y2="209.4932" gradientUnits="userSpaceOnUse" id="color-2"><stop offset="0" stop-color="#f3ab1c"/><stop offset="1" stop-color="#b78533"/></linearGradient><linearGradient x1="239.96206" y1="204.23162" x2="238.80161" y2="211.08978" gradientUnits="userSpaceOnUse" id="color-3"><stop offset="0" stop-color="#fabc40"/><stop offset="1" stop-color="#c18b36"/></linearGradient></defs><g transform="translate(-205.42008,-132.79972)"><g data-paper-data="{&quot;isPaintingLayer&quot;:true}" fill-rule="nonzero" stroke-linejoin="miter" stroke-miterlimit="10" stroke-dasharray="" stroke-dashoffset="0" style="mix-blend-mode: normal"><path d="M256.311,200.64804l21.85242,-39.69838l24.30558,18.30674l2.32351,14.03368l-39.78239,14.80429z" fill="#4a4a4a" stroke="#333333" stroke-width="2.5" stroke-linecap="butt"/><path d="M259.2273,208.84875c0,1.80068 0.07086,3.92043 -0.6031,5.62801c-0.71785,1.81877 -2.20822,3.16995 -3.07768,3.16995c-0.78963,0 -1.96682,-0.87809 -2.61345,-2.19382c-0.73385,-1.4932 -0.88778,-3.55007 -0.88778,-5.52684c0,-1.54261 -0.10848,-6.12662 0.30517,-8.02135c0.5835,-2.6727 1.85051,-2.48233 2.83696,-2.48233c0.85583,0 2.51233,0.0347 3.31719,1.96977c0.78052,1.87655 0.72268,5.62586 0.72268,7.45661z" fill="#353535" stroke="#191919" stroke-width="2" stroke-linecap="butt"/><path d="M265.50003,217.03057c0,1.80068 0.07085,3.92043 -0.6031,5.62801c-0.71785,1.81877 -2.20821,3.16995 -3.07767,3.16995c-0.78963,0 -1.96682,-0.87809 -2.61345,-2.19383c-0.73385,-1.4932 -0.88777,-3.55007 -0.88777,-5.52684c0,-1.54261 -0.10848,-6.12662 0.30517,-8.02135c0.5835,-2.6727 1.8505,-2.48233 2.83695,-2.48233c0.85583,0 2.51233,0.03469 3.31719,1.96976c0.78052,1.87655 0.72269,5.62586 0.72269,7.45661z" fill="#353535" stroke="#191919" stroke-width="2" stroke-linecap="butt"/><path d="M232.13639,208.21239c0,1.80068 0.07085,3.92043 -0.6031,5.62801c-0.71784,1.81877 -2.20821,3.16995 -3.07767,3.16995c-0.78963,0 -1.96682,-0.87809 -2.61345,-2.19382c-0.73385,-1.4932 -0.88778,-3.55007 -0.88778,-5.52684c0,-1.54261 -0.10848,-6.12662 0.30518,-8.02135c0.5835,-2.6727 1.85051,-2.48233 2.83695,-2.48233c0.85582,0 2.51233,0.03469 3.31719,1.96976c0.78052,1.87656 0.72269,5.62586 0.72269,7.45662z" fill="#353535" stroke="#191919" stroke-width="2" stroke-linecap="butt"/><path d="M224.5,218.69513c0,1.82342 0.07175,3.96995 -0.61072,5.6991c-0.72691,1.84175 -2.23611,3.20999 -3.11655,3.20999c-0.79961,0 -1.99166,-0.88918 -2.64647,-2.22153c-0.74312,-1.51206 -0.89899,-3.59491 -0.89899,-5.59665c0,-1.56209 -0.10985,-6.20401 0.30903,-8.12267c0.59087,-2.70646 1.87388,-2.51369 2.87279,-2.51369c0.86663,0 2.54406,0.03513 3.35909,1.99465c0.79038,1.90026 0.73182,5.69692 0.73182,7.55081z" fill="#353535" stroke="#191919" stroke-width="2" stroke-linecap="butt"/><path d="M213.93959,209.54899c0,0 -7.26951,-14.62574 -7.26951,-24.85362c0,-9.77392 -0.03257,-25.1555 8.96573,-38.60606c8.9983,-13.45057 12.51892,-11.27759 19.86727,-11.49257c8.91346,-0.26076 22.33112,1.03397 28.61883,10.76561c6.28771,9.73164 10.17731,29.26952 10.17731,40.05997c0,8.84089 -7.99646,24.6113 -7.99646,24.6113c0,0 -18.84963,2.66548 -28.1218,2.66548c-8.10568,0 -24.24136,-3.15012 -24.24136,-3.15012z" fill="#4a4a4a" stroke="#333333" stroke-width="2.5" stroke-linecap="butt"/><g stroke-linecap="butt"><path d="M230.81424,181.93692c0,6.15998 -4.93625,11.15363 -11.02542,11.15363c-6.08918,0 -11.02542,-4.99366 -11.02542,-11.15363c0,-6.15998 4.93624,-11.15362 11.02542,-11.15362c6.08918,0 11.02542,4.99365 11.02542,11.15362z" fill="#ffffff" stroke="#000000" stroke-width="1.5"/><path d="M229.86888,181.72244c0,4.59543 -3.87047,8.32075 -8.64493,8.32075c-4.77446,0 -8.64494,-3.72532 -8.64494,-8.32075c0,-4.59543 3.87047,-8.32075 8.64494,-8.32075c4.77446,0 8.64493,3.72532 8.64493,8.32075z" fill="#000000" stroke="#000000" stroke-width="0"/><path d="M221.96852,180.12694c-4.99993,-2.99996 5.29507,-6.60247 5.48359,-1.84457c0.15072,3.80397 -5.97155,4.09059 -5.47172,1.84133z" fill="#ffffff" stroke="none" stroke-width="0.5"/><path d="M222.93765,183.02722c0.87038,0.87038 0.87038,1.41438 0,2.28476c-1.47102,1.47102 -6.10132,0.13799 -7.69178,-0.81628c-0.4684,-0.28104 -1.39503,-1.93628 -0.61642,-2.3812c0.2271,-0.38481 0.64599,-0.64295 1.12517,-0.64295c0.28442,0 0.54761,0.09095 0.76205,0.24535c2.07378,0.55388 6.1757,1.06504 6.42099,1.31033z" fill="#ffffff" stroke="none" stroke-width="0.5"/><path d="M226.57879,187.90788c-0.02086,1.30013 -3.25641,3.20976 -4.14632,1.65241c-0.44211,-0.26092 -0.7387,-0.74219 -0.7387,-1.29272c0,-0.82843 0.67157,-1.5 1.5,-1.5c0.21761,0 0.4244,0.04634 0.61104,0.12969c1.33783,-0.52553 2.80003,-0.61234 2.77398,1.01062z" fill="#ffffff" stroke="none" stroke-width="0.5"/></g><g stroke-linecap="butt"><path d="M271.27281,182.40152c0,6.15998 -4.93625,11.15363 -11.02542,11.15363c-6.08918,0 -11.02542,-4.99365 -11.02542,-11.15363c0,-6.15998 4.93625,-11.15363 11.02542,-11.15363c6.08918,0 11.02542,4.99365 11.02542,11.15363z" fill="#ffffff" stroke="#000000" stroke-width="1.5"/><path d="M270.32746,182.18704c0,4.59543 -3.87047,8.32075 -8.64493,8.32075c-4.77447,0 -8.64494,-3.72532 -8.64494,-8.32075c0,-4.59543 3.87047,-8.32075 8.64494,-8.32075c4.77447,0 8.64493,3.72532 8.64493,8.32075z" fill="#000000" stroke="#000000" stroke-width="0"/><path d="M262.4271,180.59154c-4.99993,-2.99996 5.29507,-6.60247 5.48359,-1.84457c0.15073,3.80397 -5.97156,4.09059 -5.47172,1.84133z" fill="#ffffff" stroke="none" stroke-width="0.5"/><path d="M263.39623,183.49182c0.87038,0.87038 0.87038,1.41438 0,2.28476c-1.47102,1.47102 -6.10132,0.13799 -7.69177,-0.81628c-0.4684,-0.28104 -1.39503,-1.93628 -0.61642,-2.3812c0.2271,-0.38481 0.64599,-0.64296 1.12517,-0.64296c0.28442,0 0.5476,0.09095 0.76205,0.24535c2.07378,0.55388 6.1757,1.06504 6.42099,1.31033z" fill="#ffffff" stroke="none" stroke-width="0.5"/><path d="M267.03737,188.37248c-0.02087,1.30013 -3.25641,3.20976 -4.14632,1.65241c-0.44211,-0.26092 -0.7387,-0.74219 -0.7387,-1.29273c0,-0.82843 0.67158,-1.5 1.5,-1.5c0.21761,0 0.4244,0.04633 0.61104,0.12968c1.33783,-0.52553 2.80003,-0.61233 2.77398,1.01063z" fill="#ffffff" stroke="none" stroke-width="0.5"/></g><path d="M247.0892,185.82663c0,2.00386 -2.80588,3.62832 -6.2671,3.62832c-3.46122,0 -6.2671,-1.62446 -6.2671,-3.62832c0,-2.00386 2.80588,-3.62832 6.2671,-3.62832c3.46122,0 6.2671,1.62446 6.2671,3.62832z" fill="#0a0a0a" stroke="none" stroke-width="0" stroke-linecap="butt"/><path d="M240.65718,188.05309l-0.1367,7.58699c0,0 -2.18558,0.62414 -3.42494,0.7243c-1.30604,0.10554 -4.51962,-1.13711 -4.51962,-1.13711" fill="none" stroke="#0a0a0a" stroke-width="2" stroke-linecap="round"/><path d="M248.32613,195.30973c0,0 -2.27637,1.51126 -3.46388,1.52483c-1.1984,0.01369 -3.69414,-1.1132 -3.69414,-1.1132l0.14876,-6.43134" fill="none" stroke="#0a0a0a" stroke-width="2" stroke-linecap="round"/><path d="M243.17615,200.56297l-0.76192,-3.29404l2.60056,0.1825z" fill="#fdfdfd" stroke="#000000" stroke-width="0.5" stroke-linecap="butt"/><path d="M210.16668,170.40774l1.88889,-2.22222l18.88889,-0.77778l-2.66667,3z" data-paper-data="{&quot;index&quot;:null}" fill="#0a0a0a" stroke="none" stroke-width="0" stroke-linecap="butt"/><path d="M251.50001,170.9633l-2.66666,-3l18.88889,0.77778l1.88889,2.22222z" data-paper-data="{&quot;index&quot;:null}" fill="#0a0a0a" stroke="none" stroke-width="0" stroke-linecap="butt"/><path d="M262.368,197.34945c0.41438,-0.93479 -2.16875,-1.46883 -0.14433,-2.81496c0.38921,-0.2588 0.94077,-0.18702 1.39898,-0.09481c0.31681,0.06376 0.31103,0.72177 0.53197,0.48592c0.82591,-0.88162 2.71616,-2.03506 3.22675,-0.15405c0.19394,0.71446 -0.3036,1.53739 -0.10484,2.20851c0.19949,0.67357 1.2102,0.99743 0.70988,1.91867c-0.1991,0.3666 -1.03146,0.35339 -0.98795,0.76829c0.05788,0.55198 -0.04852,1.27745 -0.51067,1.58476c-1.70411,1.13315 -1.77536,-0.62176 -2.4644,-1.29487c-0.16362,-0.15984 -1.14767,0.1236 -1.48016,0.00798c-1.20552,-0.41922 -1.04038,-1.99827 -0.16173,-2.58252z" fill="#8e8e8e" stroke="none" stroke-width="0.5" stroke-linecap="butt"/><path d="M213.02983,198.93039c-0.42112,-0.93177 -2.54021,0.63896 -2.19555,-1.76761c0.06626,-0.46267 0.48724,-0.82621 0.86125,-1.10652c0.2586,-0.19381 0.7455,0.24885 0.71679,-0.07304c-0.10731,-1.20328 0.29169,-3.3814 2.03469,-2.50913c0.66204,0.33131 0.94433,1.2506 1.57726,1.54944c0.63525,0.29993 1.55009,-0.23811 1.90384,0.74873c0.14077,0.39271 -0.42357,1.00468 -0.08516,1.24863c0.45022,0.32454 0.9204,0.88719 0.84171,1.43658c-0.29013,2.02579 -1.6464,0.90985 -2.60743,0.97533c-0.2282,0.01555 -0.67237,0.93827 -0.98009,1.10922c-1.11574,0.6198 -2.18337,-0.55527 -2.03378,-1.59978z" fill="#8e8e8e" stroke="none" stroke-width="0.5" stroke-linecap="butt"/><path d="M221.96328,153.6062c-0.47143,-1.04308 -2.84367,0.71528 -2.45783,-1.97876c0.07418,-0.51795 0.54545,-0.92491 0.96414,-1.2387c0.28949,-0.21696 0.83456,0.27858 0.80242,-0.08176c-0.12013,-1.34702 0.32653,-3.78534 2.27775,-2.80887c0.74113,0.37089 1.05714,1.4 1.76568,1.73453c0.71114,0.33576 1.73526,-0.26655 2.13128,0.83817c0.15759,0.43962 -0.47417,1.12469 -0.09533,1.39778c0.504,0.36331 1.03035,0.99317 0.94227,1.6082c-0.32479,2.26779 -1.84308,1.01854 -2.9189,1.09184c-0.25547,0.01741 -0.75269,1.05036 -1.09717,1.24173c-1.24902,0.69384 -2.4442,-0.62161 -2.27673,-1.79089z" fill="#8e8e8e" stroke="none" stroke-width="0.5" stroke-linecap="butt"/><path d="M254.01149,161.74738c0.07656,-0.969 -2.40827,-0.63267 -1.0178,-2.47863c0.26733,-0.3549 0.78457,-0.4646 1.22455,-0.52652c0.30421,-0.04282 0.50669,0.54906 0.63037,0.26785c0.46236,-1.0512 1.79333,-2.68202 2.84481,-1.15647c0.39938,0.57945 0.21294,1.4744 0.60297,2.01346c0.39146,0.54104 1.39997,0.51247 1.24207,1.49643c-0.06284,0.39156 -0.81339,0.6424 -0.64344,1.00071c0.2261,0.47669 0.35964,1.16081 0.04221,1.58222c-1.17046,1.55389 -1.78818,0.00275 -2.61847,-0.38338c-0.19716,-0.09169 -0.99011,0.47303 -1.32474,0.47428c-1.21329,0.00453 -1.56354,-1.46351 -0.96004,-2.2647z" fill="#8e8e8e" stroke="none" stroke-width="0.5" stroke-linecap="butt"/><path d="M235.04582,164.58424c-0.36861,-0.89942 -2.43481,0.52124 -2.02612,-1.75339c0.07857,-0.43731 0.49078,-0.76846 0.85556,-1.02213c0.25222,-0.17539 0.69984,0.26159 0.68343,-0.04518c-0.06132,-1.14675 0.39127,-3.20254 2.0177,-2.31502c0.61776,0.33711 0.8549,1.21997 1.4461,1.52525c0.59337,0.30639 1.48065,-0.17387 1.7834,0.77559c0.12048,0.37783 -0.43632,0.94016 -0.12306,1.18334c0.41676,0.32352 0.84444,0.87392 0.75113,1.3932c-0.34403,1.91473 -1.59483,0.80878 -2.51002,0.83854c-0.21732,0.00707 -0.67044,0.86867 -0.96855,1.02068c-1.08089,0.55115 -2.05549,-0.60123 -1.8781,-1.58848z" fill="#8e8e8e" stroke="none" stroke-width="0.5" stroke-linecap="butt"/><path d="M238.56529,148.94167c0.11188,-1.41601 -3.51922,-0.92453 -1.48731,-3.62204c0.39064,-0.51861 1.1465,-0.67892 1.78944,-0.76941c0.44454,-0.06257 0.74043,0.80235 0.92117,0.39141c0.67566,-1.53613 2.62062,-3.91927 4.15715,-1.68996c0.58362,0.84676 0.31117,2.15455 0.88113,2.94229c0.57204,0.79062 2.04579,0.74888 1.81504,2.18675c-0.09182,0.57219 -1.18861,0.93874 -0.94026,1.46235c0.3304,0.69659 0.52554,1.69629 0.06168,2.31211c-1.71041,2.27071 -2.61308,0.00401 -3.82639,-0.56024c-0.28811,-0.13398 -1.44686,0.69124 -1.93585,0.69307c-1.77299,0.00663 -2.28481,-2.13863 -1.40291,-3.30943z" fill="#8e8e8e" stroke="none" stroke-width="0.5" stroke-linecap="butt"/><path d="M249.38009,154.92465c0.06073,-0.76862 -1.91025,-0.50184 -0.80732,-1.96606c0.21204,-0.2815 0.62233,-0.36852 0.97132,-0.41764c0.2413,-0.03396 0.40191,0.43552 0.50002,0.21246c0.36675,-0.83382 1.42249,-2.1274 2.25653,-0.91732c0.31679,0.45963 0.1689,1.1695 0.47828,1.59709c0.31051,0.42915 1.11047,0.40649 0.98521,1.18698c-0.04984,0.31059 -0.64518,0.50956 -0.51038,0.79377c0.17934,0.37811 0.28527,0.92076 0.03348,1.25503c-0.92842,1.23256 -1.4184,0.00218 -2.07699,-0.3041c-0.15639,-0.07273 -0.78537,0.37521 -1.05079,0.3762c-0.96239,0.0036 -1.24021,-1.16086 -0.76151,-1.79638z" fill="#8e8e8e" stroke="none" stroke-width="0.5" stroke-linecap="butt"/><path d="M207.11318,194.74912l-1.16872,-3.11916c0,0 7.25849,5.20847 12.14381,7.34436c5.54854,2.42586 19.41175,6.45193 19.41175,6.45193l-1.05185,2.75926c0,0 -14.09063,-4.19849 -19.38904,-6.62533c-4.24404,-1.94391 -9.94594,-6.81106 -9.94594,-6.81106z" fill="url(#color-1)" stroke="#f3ab1c" stroke-width="0.5" stroke-linecap="butt"/><path d="M271.25436,196.05681c0,0 -5.7019,4.86715 -9.94594,6.81106c-5.29841,2.42684 -19.38904,6.62533 -19.38904,6.62533l-1.05185,-2.75926c0,0 13.86321,-4.02607 19.41175,-6.45193c4.88532,-2.13589 12.14381,-7.34436 12.14381,-7.34436l-1.16872,3.11916z" data-paper-data="{&quot;index&quot;:null}" fill="url(#color-2)" stroke="#f3ab1c" stroke-width="0.5" stroke-linecap="butt"/><path d="M239.03599,210.03156c-0.27768,0.18463 -0.54202,0.32498 -0.76523,0.36657c-0.03268,0.00609 -0.06542,0.01147 -0.09821,0.01621l0.00928,0.02373l-0.70594,0.27608c-0.1652,0.06794 -0.35081,0.09194 -0.5399,0.05994c-0.24214,-0.04097 -0.4487,-0.16679 -0.59438,-0.34181c-0.29117,-0.21417 -0.45372,-0.58081 -0.3893,-0.96151c0.0375,-0.22163 0.14609,-0.41347 0.29843,-0.55608c0.05384,-0.19216 0.14211,-0.32278 0.14211,-0.32278c0.05802,-0.08583 0.11515,-0.1735 0.17189,-0.26238c-0.0835,-0.04033 -0.16589,-0.07854 -0.24691,-0.114l-1.23489,-0.54054c-0.41722,-0.17188 -0.67547,-0.61471 -0.59701,-1.0784c0.08819,-0.52117 0.5694,-0.87752 1.08848,-0.81671l1.1171,0.12209l-0.00088,0.00806c0.0099,-0.00152 0.01979,-0.00302 0.0297,-0.00448c0.28395,-0.04201 0.56187,0.12955 0.84832,0.14799c0.21893,0.01408 0.4382,0.01548 0.65762,0.01196c0.06063,-0.15575 0.12935,-0.30804 0.20838,-0.45575l0.17386,-0.67874c0.1221,-0.49839 0.61046,-0.82514 1.12444,-0.73817c0.26905,0.04552 0.49417,0.19579 0.64066,0.40194l0.54385,0.76537l-0.02843,0.0202c0.0431,0.04734 0.08458,0.09625 0.1242,0.147c0.07326,0.09385 0.1311,0.19296 0.17649,0.29621c0.32361,-0.03509 0.6938,-0.08217 1.04434,-0.06255c0.14207,-0.02095 0.27764,-0.02841 0.41725,-0.02338l-0.01767,-0.13431l0.87247,-0.11485c0.10234,-0.01589 0.20893,-0.01583 0.31665,0.0024c0.5381,0.09105 0.9005,0.60108 0.80945,1.13917c-0.05555,0.32833 -0.2671,0.59125 -0.54584,0.72566l-0.59825,0.29728c-0.25424,0.50557 -1.04922,0.87725 -1.81114,1.11467c-0.02227,0.01387 -0.04454,0.02769 -0.06683,0.04144l0.24215,0.30158c0.17254,0.21285 0.2562,0.496 0.2069,0.7874c-0.09105,0.5381 -0.60108,0.90051 -1.13917,0.80946l-0.85099,-0.144l0.00653,-0.0386c-0.06048,-0.0005 -0.12102,-0.00301 -0.18163,-0.00787c-0.32758,-0.02624 -0.58837,-0.29014 -0.85793,-0.48551z" fill="url(#color-3)" stroke="#f3ab1c" stroke-width="1" stroke-linecap="butt"/><g stroke="#cb5959" stroke-width="0.5"><path d="M241.55628,201.20088c-0.14085,1.61123 -0.86758,2.86385 -1.6232,2.79779c-0.75561,-0.06606 -1.25397,-1.42577 -1.11312,-3.037c0.08698,-0.99498 0.32392,-2.86815 0.76659,-3.82132c0.27417,-0.59036 0.7048,-0.57109 0.9938,-0.54583c0.338,0.02955 0.66743,-0.17283 0.83795,0.62826c0.21068,0.98977 0.21583,3.0876 0.13798,3.9781z" fill="#fc7070" stroke-linecap="butt"/><path d="M239.98388,203.88147l0.10287,-3.03207" fill="none" stroke-linecap="round"/></g><path d="M222.64788,148.90123c-1.40385,1.82466 -2.98465,4.02789 -4.99885,5.23278c-2.14536,1.28335 -4.70899,1.4906 -5.59003,0.81275c-0.80015,-0.61561 -1.30844,-2.42316 -0.93791,-4.26055c0.42051,-2.08521 1.86811,-4.28948 3.40924,-6.29258c1.20265,-1.56316 4.66652,-6.2928 6.56286,-7.89027c2.67497,-2.25339 4.77635,-2.44155 6.01002,-2.70364c2.08945,-0.44389 6.11874,-1.80618 5.4257,0.78215c-0.67209,2.51006 -8.45373,12.46421 -9.88103,14.31935z" fill="#656565" stroke="#595959" stroke-width="2" stroke-linecap="butt"/><path d="M256.73723,150.86989c-1.26128,1.92597 -3.33693,4.68729 -5.25385,6.04161c-2.04174,1.44251 -5.1378,1.17711 -6.06775,0.5681c-0.84457,-0.5531 -1.48862,-2.31684 -1.25864,-4.17705c0.26099,-2.11112 1.53708,-4.41891 2.9217,-6.53323c1.08051,-1.64994 4.17534,-6.6289 5.94493,-8.36572c2.49618,-2.44996 3.718,-1.35887 4.77309,-0.66792c0.91537,0.59946 2.66284,1.79686 2.16828,4.43033c-0.4796,2.55384 -1.94542,6.74572 -3.22777,8.70387z" fill="#656565" stroke="#595959" stroke-width="2" stroke-linecap="butt"/></g></g></svg>