<svg version="1.1" xmlns="http://www.w3.org/2000/svg" xmlns:xlink="http://www.w3.org/1999/xlink" width="292.24525" height="337.31573" viewBox="0,0,292.24525,337.31573"><g transform="translate(-56.67752,-22.28954)"><g data-paper-data="{&quot;isPaintingLayer&quot;:true}" fill-rule="nonzero" stroke-linejoin="miter" stroke-miterlimit="10" stroke-dasharray="" stroke-dashoffset="0" style="mix-blend-mode: normal"><path d="M59.92753,130.53954v-105h106.08247v105l0.08419,23l-28.33333,-23z" fill="#2e2e2e" stroke="#161616" stroke-width="6.5" stroke-linecap="butt"/><text transform="translate(66.21602,47.60975) scale(0.38108,0.38108)" font-size="40" xml:space="preserve" fill="#ffffff" fill-rule="nonzero" stroke="none" stroke-width="1" stroke-linecap="butt" stroke-linejoin="miter" stroke-miterlimit="10" stroke-dasharray="" stroke-dashoffset="0" font-family="Sans Serif" font-weight="normal" text-anchor="start" style="mix-blend-mode: normal"><tspan x="0" dy="0">I could be</tspan><tspan x="0" dy="48px">baking right</tspan><tspan x="0" dy="48px">now...</tspan></text><path d="M166.04549,332.36075l25.06587,-151.85869l13.20648,3.65872l-25.06588,151.85869z" data-paper-data="{&quot;index&quot;:null}" fill="#ce0000" stroke="#950000" stroke-width="3.5" stroke-linecap="butt"/><g data-paper-data="{&quot;index&quot;:null}" fill="#820000" stroke="none" stroke-width="0" stroke-linecap="butt"><path d="M177.41662,302.03902c0.26457,-1.52402 1.40175,-2.53379 2.53996,-2.25538c1.1382,0.27842 1.8464,1.7396 1.58183,3.26363c-0.26458,1.52403 -1.40174,2.53381 -2.53995,2.25538c-1.1382,-0.27841 -1.84641,-1.73959 -1.58184,-3.26362z"/><path d="M174.1451,306.09938c0.20071,-1.15616 1.0634,-1.92219 1.92686,-1.71098c0.86347,0.21121 1.40073,1.31969 1.20002,2.47584c-0.20071,1.15616 -1.0634,1.92219 -1.92686,1.71098c-0.86346,-0.21121 -1.40073,-1.31969 -1.20002,-2.47584z"/><path d="M176.59789,297.57332c0.62417,0.15269 1.02735,0.86877 0.90051,1.59942c-0.12684,0.73064 -0.73568,1.1992 -1.35985,1.04651c-0.62418,-0.15268 -1.02733,-0.86877 -0.90049,-1.59942c0.12685,-0.73066 0.73566,-1.19918 1.35983,-1.04651z"/></g><g data-paper-data="{&quot;index&quot;:null}" fill="#820000" stroke="none" stroke-width="0" stroke-linecap="butt"><path d="M195.6701,215.74472c1.13932,0.27021 1.85988,1.64071 1.60941,3.06109c-0.25047,1.42037 -1.37712,2.35276 -2.51644,2.08255c-1.13932,-0.27021 -1.85988,-1.6407 -1.6094,-3.06107c0.25047,-1.42038 1.37712,-2.35278 2.51644,-2.08257z"/><path d="M189.92288,221.58827c0.19,-1.07752 1.04471,-1.78486 1.90902,-1.57988c0.86431,0.20499 1.41094,1.24468 1.22093,2.3222c-0.19,1.07753 -1.0447,1.78487 -1.90901,1.57988c-0.86431,-0.20498 -1.41095,-1.24468 -1.22093,-2.3222z"/><path d="M190.94685,214.61557c0.12007,-0.68096 0.72393,-1.11287 1.34871,-0.96468c0.62478,0.14819 1.03393,0.82034 0.91385,1.50129c-0.12009,0.68096 -0.72393,1.11286 -1.34871,0.96469c-0.62478,-0.14818 -1.03394,-0.82033 -0.91385,-1.50129z"/></g><path d="M181.57876,330.57191c2.3461,12.50943 -6.37919,24.27688 -19.4885,26.28335c-9.58506,1.46706 -18.85993,-2.69031 -24.07108,-9.92134c-1.21308,-1.68326 26.93268,-6.20508 32.48976,-10.73234c3.22032,-2.62354 -14.81186,-5.77608 -15.04326,-7.00991c-0.72107,-3.84475 -21.75624,1.02691 -20.57978,-2.41581c2.65129,-7.75865 9.62817,-13.83143 18.70836,-15.2212c13.10931,-2.00647 25.6384,6.50785 27.98451,19.01727z" data-paper-data="{&quot;index&quot;:null}" fill="#f3f3f3" stroke="#c1c1c1" stroke-width="5.5" stroke-linecap="butt"/><path d="M300.99343,332.42417l-25.06588,-151.85869l13.20648,-3.65872l25.06587,151.8587z" data-paper-data="{&quot;index&quot;:null}" fill="#ce0000" stroke="#950000" stroke-width="3.5" stroke-linecap="butt"/><g data-paper-data="{&quot;index&quot;:null}" fill="#820000" stroke="none" stroke-width="0" stroke-linecap="butt"><path d="M302.82882,298.44373c0.26457,1.52403 -0.44365,2.98521 -1.58185,3.26362c-1.13821,0.27842 -2.27537,-0.73135 -2.53995,-2.25538c-0.26457,-1.52403 0.44364,-2.98521 1.58183,-3.26363c1.13821,-0.27841 2.27539,0.73136 2.53996,2.25538z"/><path d="M306.10033,302.50408c0.20071,1.15616 -0.33656,2.26464 -1.20002,2.47585c-0.86346,0.21121 -1.72615,-0.55482 -1.92686,-1.71099c-0.20071,-1.15616 0.33655,-2.26464 1.20002,-2.47585c0.86346,-0.21121 1.72616,0.55482 1.92687,1.71099z"/><path d="M305.00738,295.02454c0.12684,0.73065 -0.27631,1.44675 -0.90049,1.59942c-0.62417,0.15269 -1.233,-0.31587 -1.35984,-1.04651c-0.12684,-0.73065 0.27633,-1.44674 0.9005,-1.59943c0.62417,-0.15268 1.23299,0.31586 1.35983,1.04651z"/></g><g data-paper-data="{&quot;index&quot;:null}" fill="#820000" stroke="none" stroke-width="0" stroke-linecap="butt"><path d="M287.09178,214.23198c0.25047,1.42037 -0.47008,2.79086 -1.60941,3.06107c-1.13933,0.27021 -2.26597,-0.66218 -2.51644,-2.08255c-0.25047,-1.42038 0.47009,-2.79088 1.6094,-3.06108c1.13933,-0.27021 2.26597,0.66218 2.51644,2.08256z"/><path d="M290.32256,217.99298c0.19001,1.07752 -0.35662,2.11722 -1.22093,2.32219c-0.86431,0.20499 -1.71901,-0.50235 -1.90902,-1.57988c-0.19002,-1.07753 0.35662,-2.11722 1.22093,-2.3222c0.86431,-0.20498 1.71902,0.50236 1.90902,1.57988z"/><path d="M289.29859,211.02028c0.12009,0.68096 -0.28907,1.35312 -0.91385,1.50129c-0.62479,0.14817 -1.22862,-0.28372 -1.34871,-0.96469c-0.12009,-0.68096 0.28907,-1.35311 0.91385,-1.50129c0.62478,-0.14818 1.22863,0.28372 1.34871,0.96468z"/></g><path d="M298.66666,326.97663c2.34611,-12.50942 14.8752,-21.02374 27.98451,-19.01727c9.08018,1.38978 16.05707,7.46256 18.70836,15.22121c1.17645,3.44272 -19.85871,-1.42894 -20.57978,2.41581c-0.2314,1.23384 -18.26357,4.38638 -15.04326,7.00991c5.55708,4.52726 33.70283,9.04908 32.48976,10.73234c-5.21115,7.23104 -14.48602,11.38841 -24.07108,9.92134c-13.10932,-2.00647 -21.8346,-13.77393 -19.4885,-26.28335z" fill="#ce0000" stroke="#950000" stroke-width="3.5" stroke-linecap="butt"/><path d="M252.16668,313.60417v-115.33333h16.33333v115.33333z" data-paper-data="{&quot;index&quot;:null}" fill="#ce0000" stroke="#950000" stroke-width="3.5" stroke-linecap="butt"/><g data-paper-data="{&quot;index&quot;:null}" fill="#820000" stroke="none" stroke-width="0" stroke-linecap="butt"><path d="M262.17033,278.58078c1.4017,0 2.53801,1.21485 2.53801,2.71345c0,1.4986 -1.1363,2.71345 -2.53801,2.71345c-1.4017,0 -2.53802,-1.21485 -2.53802,-2.71345c0,-1.4986 1.13631,-2.71345 2.53802,-2.71345z"/><path d="M258.52565,283.82054c1.06336,0 1.92539,0.92162 1.92539,2.05848c0,1.13687 -0.86203,2.05848 -1.92539,2.05848c-1.06336,0 -1.92539,-0.92161 -1.92539,-2.05848c0,-1.13687 0.86203,-2.05848 1.92539,-2.05848z"/><path d="M257.74926,277.27083c0.76867,0 1.39182,0.58243 1.39182,1.30089c0,0.71846 -0.62314,1.30089 -1.39182,1.30089c-0.76867,0 -1.39181,-0.58243 -1.39181,-1.30089c0,-0.71846 0.62313,-1.30089 1.39181,-1.30089z"/></g><g data-paper-data="{&quot;index&quot;:null}" fill="#820000" stroke="none" stroke-width="0" stroke-linecap="butt"><path d="M264.79533,217.58078c1.4017,0 2.53801,1.21486 2.53801,2.71345c0,1.49859 -1.13631,2.71345 -2.53801,2.71345c-1.4017,0 -2.53801,-1.21485 -2.53801,-2.71345c0,-1.49859 1.13631,-2.71345 2.53801,-2.71345z"/><path d="M261.15064,222.82054c1.06336,0 1.92539,0.92162 1.92539,2.05848c0,1.13687 -0.86203,2.05848 -1.92539,2.05848c-1.06336,0 -1.92539,-0.92162 -1.92539,-2.05848c0,-1.13687 0.86203,-2.05848 1.92539,-2.05848z"/><path d="M260.37426,216.27084c0.76868,0 1.39182,0.58243 1.39182,1.30088c0,0.71846 -0.62313,1.30089 -1.39182,1.30089c-0.76868,0 -1.39182,-0.58243 -1.39182,-1.30089c0,-0.71846 0.62313,-1.30088 1.39182,-1.30088z"/></g><path d="M249.83334,333.9375v-26.33333h20.33334v26.33333z" data-paper-data="{&quot;index&quot;:null}" fill="#d3d3d3" stroke="#a0a0a0" stroke-width="3.5" stroke-linecap="butt"/><path d="M265.50001,324.27084v-15.66667" data-paper-data="{&quot;index&quot;:null}" fill="none" stroke="#a0a0a0" stroke-width="3.5" stroke-linecap="round"/><path d="M259.83333,318.60417v-10.33333" data-paper-data="{&quot;index&quot;:null}" fill="none" stroke="#a0a0a0" stroke-width="3.5" stroke-linecap="round"/><path d="M254.16668,322.60417l-0.33334,-14" data-paper-data="{&quot;index&quot;:null}" fill="none" stroke="#a0a0a0" stroke-width="3.5" stroke-linecap="round"/><path d="M248.83334,346.60417v-16.33333h30.33334v16.33333z" data-paper-data="{&quot;index&quot;:null}" fill="#393939" stroke="#2b2b2b" stroke-width="3.5" stroke-linecap="butt"/><path d="M212.83335,313.60417v-115.33333h16.33333v115.33333z" fill="#ce0000" stroke="#950000" stroke-width="3.5" stroke-linecap="butt"/><g fill="#820000" stroke="none" stroke-width="0" stroke-linecap="butt"><path d="M221.70104,281.29423c0,1.4986 -1.13631,2.71345 -2.53801,2.71345c-1.4017,0 -2.53801,-1.21485 -2.53801,-2.71345c0,-1.4986 1.13631,-2.71345 2.53801,-2.71345c1.4017,0 2.53801,1.21485 2.53801,2.71345z"/><path d="M224.7331,285.87902c0,1.13687 -0.86203,2.05848 -1.92539,2.05848c-1.06336,0 -1.92539,-0.92161 -1.92539,-2.05848c0,-1.13687 0.86203,-2.05848 1.92539,-2.05848c1.06336,0 1.92539,0.92162 1.92539,2.05848z"/><path d="M224.97589,278.57172c0,0.71846 -0.62313,1.30089 -1.39181,1.30089c-0.76868,0 -1.39182,-0.58243 -1.39182,-1.30089c0,-0.71846 0.62314,-1.30089 1.39182,-1.30089c0.76868,0 1.39181,0.58243 1.39181,1.30089z"/></g><g fill="#820000" stroke="none" stroke-width="0" stroke-linecap="butt"><path d="M219.07604,220.29423c0,1.49859 -1.1363,2.71345 -2.53801,2.71345c-1.4017,0 -2.53802,-1.21485 -2.53802,-2.71345c0,-1.49859 1.13631,-2.71345 2.53802,-2.71345c1.4017,0 2.53801,1.21486 2.53801,2.71345z"/><path d="M222.1081,224.87902c0,1.13687 -0.86203,2.05848 -1.92539,2.05848c-1.06336,0 -1.92539,-0.92162 -1.92539,-2.05848c0,-1.13687 0.86203,-2.05848 1.92539,-2.05848c1.06336,0 1.92539,0.92162 1.92539,2.05848z"/><path d="M222.35089,217.57172c0,0.71846 -0.62313,1.30089 -1.39181,1.30089c-0.76868,0 -1.39182,-0.58243 -1.39182,-1.30089c0,-0.71846 0.62314,-1.30088 1.39182,-1.30088c0.76868,0 1.39181,0.58243 1.39181,1.30088z"/></g><path d="M294.00001,173.5c0,20.71068 -28.6619,39 -56,39c-27.3381,0 -52,-17.78932 -52,-38.5c0,-20.71068 25.6619,-38.5 53,-38.5c27.3381,0 55,17.28932 55,38z" fill="#ce0000" stroke="#950000" stroke-width="3.5" stroke-linecap="butt"/><path d="M211.16668,333.9375v-26.33333h20.33334v26.33333z" fill="#d3d3d3" stroke="#a0a0a0" stroke-width="3.5" stroke-linecap="butt"/><path d="M215.83335,308.60417v15.66667" fill="none" stroke="#a0a0a0" stroke-width="3.5" stroke-linecap="round"/><path d="M221.50001,308.27083v10.33333" fill="none" stroke="#a0a0a0" stroke-width="3.5" stroke-linecap="round"/><path d="M227.50001,308.60417l-0.33334,14" fill="none" stroke="#a0a0a0" stroke-width="3.5" stroke-linecap="round"/><path d="M202.16668,346.60417v-16.33333h30.33334v16.33333z" fill="#393939" stroke="#2b2b2b" stroke-width="3.5" stroke-linecap="butt"/><g data-paper-data="{&quot;index&quot;:null}" fill="#820000" stroke="none" stroke-width="0" stroke-linecap="butt"><path d="M210.60372,189.86062c0,1.83371 -1.40367,3.32024 -3.13519,3.32024c-1.73151,0 -3.13519,-1.48652 -3.13519,-3.32024c0,-1.83371 1.40367,-3.32024 3.13519,-3.32024c1.73152,0 3.13519,1.48652 3.13519,3.32024z"/><path d="M214.34921,195.47069c0,1.3911 -1.06486,2.51881 -2.37842,2.51881c-1.31356,0 -2.37842,-1.12771 -2.37842,-2.51881c0,-1.3911 1.06486,-2.51881 2.37842,-2.51881c1.31356,0 2.37842,1.12771 2.37842,2.51881z"/><path d="M214.64913,186.52929c0,0.87912 -0.76975,1.5918 -1.7193,1.5918c-0.94955,0 -1.7193,-0.71268 -1.7193,-1.5918c0,-0.87912 0.76975,-1.59179 1.7193,-1.59179c0.94955,0 1.7193,0.71267 1.7193,1.59179z"/></g><g data-paper-data="{&quot;index&quot;:null}" fill="#820000" stroke="none" stroke-width="0" stroke-linecap="butt"><path d="M279.46853,169.20705c1.73152,0 3.13519,1.48652 3.13519,3.32024c0,1.83372 -1.40367,3.32024 -3.13519,3.32024c-1.73152,0 -3.1352,-1.48652 -3.1352,-3.32024c0,-1.83372 1.40368,-3.32025 3.1352,-3.32025z"/><path d="M286.34921,178.13736c0,1.39109 -1.06486,2.5188 -2.37842,2.5188c-1.31356,0 -2.37842,-1.1277 -2.37842,-2.5188c0,-1.3911 1.06486,-2.51881 2.37842,-2.51881c1.31356,0 2.37842,1.12771 2.37842,2.51881z"/><path d="M286.64913,169.19596c0,0.87912 -0.76975,1.5918 -1.7193,1.5918c-0.94954,0 -1.7193,-0.71268 -1.7193,-1.5918c0,-0.87912 0.76976,-1.59179 1.7193,-1.59179c0.94955,0 1.7193,0.71267 1.7193,1.59179z"/></g><g stroke-linecap="butt"><path d="M230.0527,163.54167c0,8.00813 -6.21265,14.5 -13.87634,14.5c-7.66369,0 -13.87634,-6.49187 -13.87634,-14.5c0,-8.00813 6.21265,-14.5 13.87634,-14.5c7.66369,0 13.87634,6.49187 13.87634,14.5z" fill="#ffffff" stroke="#000000" stroke-width="1.5"/><path d="M221.16394,163.89356c0,0 6.51523,3.87994 5.61377,5.36295c-1.5627,2.57084 -4.05793,4.47007 -7.12222,4.47007c-4.83195,0 -8.74902,-4.2223 -8.74902,-9.43077c0,-5.20847 3.91707,-9.43077 8.74902,-9.43077c3.01815,0 5.67935,1.64735 7.25198,4.1534c0.9451,1.50605 -5.74353,4.87511 -5.74353,4.87511z" fill="#000000" stroke="none" stroke-width="0"/></g><g stroke-linecap="butt"><path d="M271.45268,163.94166c0,8.00813 -6.21265,14.5 -13.87634,14.5c-7.66369,0 -13.87634,-6.49187 -13.87634,-14.5c0,-8.00813 6.21265,-14.5 13.87634,-14.5c7.6637,0 13.87634,6.49187 13.87634,14.5z" fill="#ffffff" stroke="#000000" stroke-width="1.5"/><path d="M262.56394,164.29356c0,0 6.51522,3.87995 5.61377,5.36295c-1.56271,2.57084 -4.05793,4.47007 -7.12223,4.47007c-4.83195,0 -8.74902,-4.2223 -8.74902,-9.43077c0,-5.20847 3.91707,-9.43077 8.74902,-9.43077c3.01815,0 5.67935,1.64735 7.25198,4.1534c0.9451,1.50605 -5.74353,4.87511 -5.74353,4.87511z" fill="#000000" stroke="none" stroke-width="0"/></g><path d="M244.30001,183.46666c0,0 -4.77009,2.05228 -7.1938,1.98303c-2.22614,-0.0636 -6.8062,-2.38303 -6.8062,-2.38303" fill="none" stroke="#000000" stroke-width="1.5" stroke-linecap="round"/><g stroke="#c1c1c1" stroke-width="2.5"><path d="M213.3252,138.85145l-0.0516,-29.05858l50.59075,-1.27172l1.08576,29.74802c0,0 -21.42322,-5.13297 -29.49473,-4.93007c-8.73898,0.21967 -22.13018,5.51235 -22.13018,5.51235z" fill="#f3f3f3" stroke-linecap="butt"/><path d="M201.45939,111.24176l-0.46226,-12.37148c0,0 3.61561,-6.7144 30.197,-7.0946c13.21219,-0.18898 20.18488,1.78158 28.35686,2.57449c8.91827,0.86533 18.3675,-1.44519 18.3675,-1.44519l1.008,16.38947z" fill="#f3f3f3" stroke-linecap="butt"/><path d="M213.33559,100.86396l0.35475,9.49439" fill="none" stroke-linecap="round"/><path d="M236.58203,108.91898l-0.35476,-9.49439" fill="none" stroke-linecap="round"/><path d="M262.76212,100.19747l0.32251,8.63126" fill="none" stroke-linecap="round"/></g><path d="M166.86985,312.70485l2.06832,-29.99059l21.02788,6.54967l-6.89438,35.16138z" fill="#f3f3f3" stroke="#c1c1c1" stroke-width="3.5" stroke-linecap="butt"/><path d="M299.4799,327.64339c2.34611,-12.50942 14.8752,-21.02374 27.98451,-19.01727c9.08019,1.38977 16.05707,7.46255 18.70836,15.2212c1.17646,3.44272 -19.85871,-1.42894 -20.57978,2.41581c-0.2314,1.23383 -18.26358,4.38637 -15.04326,7.00991c5.55708,4.52726 33.70284,9.04908 32.48976,10.73234c-5.21115,7.23103 -14.48602,11.3884 -24.07108,9.92134c-13.10931,-2.00647 -21.8346,-13.77392 -19.4885,-26.28335z" data-paper-data="{&quot;index&quot;:null}" fill="#f3f3f3" stroke="#c1c1c1" stroke-width="5.5" stroke-linecap="butt"/><path d="M299.41601,323.22036l-6.89438,-35.16138l21.02788,-6.54967l2.06832,29.99059z" data-paper-data="{&quot;index&quot;:null}" fill="#f3f3f3" stroke="#c1c1c1" stroke-width="3.5" stroke-linecap="butt"/><path d="M216.34115,213.07525l-32.88248,-28.16l3.91791,-4.57495l32.88248,28.15999z" fill="#f3f3f3" stroke="#c1c1c1" stroke-width="3.5" stroke-linecap="butt"/><path d="M258.4367,207.29535l32.88248,-28.16l3.91791,4.57496l-32.88248,28.15999z" data-paper-data="{&quot;index&quot;:null}" fill="#f3f3f3" stroke="#c1c1c1" stroke-width="3.5" stroke-linecap="butt"/><path d="M204.44426,323.04643c0,0 5.86023,-43.18269 5.86023,-63.08364c0,-20.41795 -5.86023,-57.91285 -5.86023,-57.91285h72.04635c0,0 -4.82608,36.75132 -4.82608,57.22341c0,19.84026 4.82608,63.77308 4.82608,63.77308z" fill="#f3f3f3" stroke="#c1c1c1" stroke-width="3.5" stroke-linecap="butt"/><path d="M200.99706,267.20189v-17.58068h13.78877v17.58068z" fill="#f3f3f3" stroke="#c1c1c1" stroke-width="3.5" stroke-linecap="butt"/><path d="M268.39126,269.44414v-17.58069h13.78877v17.58069z" fill="#f3f3f3" stroke="#c1c1c1" stroke-width="3.5" stroke-linecap="butt"/><text transform="translate(218.90495,244.53219) scale(0.23968,0.26564)" font-size="40" xml:space="preserve" fill="#000000" fill-rule="nonzero" stroke="#000000" stroke-width="1" stroke-linecap="butt" stroke-linejoin="miter" stroke-miterlimit="10" stroke-dasharray="" stroke-dashoffset="0" font-family="Handwriting" font-weight="normal" text-anchor="start" style="mix-blend-mode: normal"><tspan x="0" dy="0">Your opinion </tspan><tspan x="0" dy="46.15px">is not on </tspan><tspan x="0" dy="46.15px">the recipe</tspan></text></g></g></svg>