<svg version="1.1" xmlns="http://www.w3.org/2000/svg" xmlns:xlink="http://www.w3.org/1999/xlink" width="58" height="50" viewBox="0,0,58,50"><g transform="translate(-211,-155)"><g data-paper-data="{&quot;isPaintingLayer&quot;:true}" fill-rule="nonzero" stroke-linejoin="miter" stroke-miterlimit="10" stroke-dasharray="" stroke-dashoffset="0" style="mix-blend-mode: normal"><path d="M213,203v-46h54v46z" fill="#2e2e2e" stroke="#161616" stroke-width="4" stroke-linecap="butt"/><g fill="#ffffff" stroke="#ffffff" stroke-linecap="butt"><path d="M231.95114,168.72603c2.74316,2.25097 3.58722,5.75712 1.88527,7.83122c-1.70195,2.07409 -5.30542,1.93071 -8.04858,-0.32026c-2.74316,-2.25097 -2.98149,-5.26008 -1.27954,-7.33417c1.70195,-2.07409 4.6997,-2.42775 7.44285,-0.17678z" stroke-width="2"/><path d="M236.74768,172.03618c2.71435,2.22733 4.35884,6.02798 2.22205,8.63199c-2.13679,2.60401 -6.38309,1.23296 -9.09745,-0.99437c-2.71435,-2.22733 -1.83345,-3.75299 0.30334,-6.357c2.13679,-2.60401 3.85771,-3.50795 6.57205,-1.28062z" stroke-width="2"/><path d="M226.77014,171.70484c0.70252,0.57647 0.79728,1.62232 0.21166,2.336c-0.58562,0.71367 -1.62986,0.82489 -2.33237,0.24842c-0.70252,-0.57647 -0.79728,-1.62232 -0.21166,-2.336c0.58562,-0.71367 1.62986,-0.82489 2.33237,-0.24842z" stroke-width="0"/><path d="M229.98035,167.70251c0.70252,0.57647 0.79728,1.62232 0.21166,2.336c-0.58562,0.71367 -1.62986,0.82489 -2.33237,0.24842c-0.70252,-0.57647 -0.79728,-1.62232 -0.21166,-2.336c0.58562,-0.71367 1.62986,-0.82489 2.33237,-0.24842z" stroke-width="0"/><path d="M225.19541,172.46762c-0.24796,-0.20347 -0.28402,-0.56941 -0.08055,-0.81736c0.20347,-0.24796 0.56941,-0.28402 0.81736,-0.08055c0.24796,0.20347 0.28402,0.56941 0.08055,0.81736c-0.20347,0.24796 -0.56941,0.28402 -0.81736,0.08055z" stroke-width="0.5"/><path d="M226.23147,172.55256c0.83437,-0.08223 0.98876,0.75192 0.4359,1.18541c-0.36598,0.28697 -0.72221,0.68207 -1.19102,0.55549c-0.08421,-0.01954 -0.16533,-0.05825 -0.23668,-0.11681c-0.24796,-0.20347 -0.28402,-0.56941 -0.08055,-0.81736c0.05407,-0.06589 0.1196,-0.11682 0.19135,-0.15226c0.27891,-0.23815 0.71488,-0.6381 0.881,-0.65447z" stroke-width="0.5"/><path d="M228.57481,168.45947c-0.24796,-0.20347 -0.28402,-0.56941 -0.08055,-0.81736c0.20347,-0.24796 0.56941,-0.28402 0.81736,-0.08055c0.24796,0.20347 0.28402,0.56941 0.08055,0.81736c-0.20347,0.24796 -0.56941,0.28402 -0.81736,0.08055z" stroke-width="0.5"/><path d="M228.32398,170.19759c-0.06035,-0.15816 -0.19859,-0.30891 -0.21195,-0.47153c-0.00204,-0.0248 -0.00118,-0.04988 0.00331,-0.0753c0.11307,-0.64042 1.68814,-1.52983 2.06542,-0.93059c0.10394,0.1651 0.06825,0.39451 0.02501,0.58475c-0.02004,0.08816 -1.13779,1.01886 -1.31343,0.98907z" stroke-width="0.5"/><path d="M230.40797,173.71078l-1.9068,-0.32342l1.23639,-1.50673l0.68943,1.80698z" stroke-width="2"/><g data-paper-data="{&quot;index&quot;:null}"><path d="M228.65984,171.64784c0.22647,-0.27599 0.62364,-0.32448 0.88709,-0.1083c0.26345,0.21618 0.29342,0.61517 0.06695,0.89117c-0.22647,0.27599 -0.62364,0.32448 -0.88709,0.1083c-0.26345,-0.21618 -0.29342,-0.61517 -0.06695,-0.89117z" stroke-width="1.5"/><path d="M229.32699,172.49187c-0.07776,0.09476 -0.21762,0.10855 -0.31238,0.03079c-0.09476,-0.07776 -0.10855,-0.21762 -0.03079,-0.31238c0.07776,-0.09476 0.21762,-0.10855 0.31238,-0.03079c0.09476,0.07776 0.10855,0.21762 0.03079,0.31238z" stroke-width="0.5"/></g><g><path d="M228.77469,172.47211c0.26345,0.21618 0.29342,0.61517 0.06695,0.89117c-0.22647,0.27599 -0.62364,0.32448 -0.88709,0.1083c-0.26345,-0.21618 -0.29342,-0.61517 -0.06695,-0.89117c0.22647,-0.27599 0.62364,-0.32448 0.88709,-0.1083z" stroke-width="1.5"/><path d="M228.53325,173.10074c-0.09476,-0.07776 -0.10855,-0.21762 -0.03079,-0.31238c0.07776,-0.09476 0.21762,-0.10855 0.31238,-0.03079c0.09476,0.07776 0.10855,0.21762 0.03079,0.31238c-0.07776,0.09476 -0.21762,0.10855 -0.31238,0.03079z" stroke-width="0.5"/></g><path d="M227.84229,176.14377c-0.23444,0.2857 -0.52014,0.05126 -0.52014,0.05126l-0.02248,-0.03068c-0.11947,-0.05924 -0.23894,-0.11849 -0.35841,-0.17774c0,0 -0.3311,-0.16419 -0.16691,-0.4953c0.16419,-0.3311 0.4953,-0.16691 0.4953,-0.16691c0.11947,0.05924 0.23894,0.11849 0.35841,0.17774l0.16297,0.12149c0,0 0.2857,0.23444 0.05126,0.52014z" stroke-width="0.5"/><path d="M227.77756,174.54994c0.08071,-0.01238 0.17638,0.0049 0.27861,0.08879c0.2857,0.23444 0.05126,0.52014 0.05126,0.52014l-0.42097,0.13956c-0.13215,-0.04379 -0.2643,-0.08758 -0.39645,-0.13137c0,0 -0.35082,-0.11626 -0.23456,-0.46707c0.11626,-0.35082 0.46707,-0.23456 0.46707,-0.23456c0.08502,0.02818 0.17004,0.05635 0.25505,0.08452z" stroke-width="0.5"/><path d="M231.45982,171.28673c-0.24251,-0.02413 -0.30919,-0.19225 -0.32649,-0.30398c-0.06946,-0.057 -0.13891,-0.11399 -0.20837,-0.17099c0,0 -0.2857,-0.23444 -0.05126,-0.52014c0.23444,-0.2857 0.52014,-0.05126 0.52014,-0.05126c0.1159,0.09511 0.23181,0.19021 0.34771,0.28532l0.12262,0.42988c0,0 -0.03659,0.36776 -0.40435,0.33118z" stroke-width="0.5"/><path d="M232.54889,170.50257c-0.23444,0.2857 -0.52014,0.05126 -0.52014,0.05126c-0.10045,-0.08243 -0.24726,-0.2029 -0.34771,-0.28532c0,0 -0.2857,-0.23444 -0.05126,-0.52014c0.23444,-0.2857 0.52014,-0.05126 0.52014,-0.05126c0.10045,0.08243 0.2009,0.16485 0.30134,0.24728l0.04636,0.03804c0,0 0.2857,0.23444 0.05126,0.52014z" stroke-width="0.5"/><path d="M226.8788,174.64472c0.30761,0.20485 0.10277,0.51246 0.10277,0.51246l-0.17297,0.25947l-0.24091,0.34044c-0.00568,0.00819 -0.01174,0.01622 -0.01818,0.02407c-0.12948,0.15779 -0.36235,0.18074 -0.52014,0.05126c-0.08999,-0.07384 -0.13612,-0.18132 -0.13513,-0.28932l0.00061,-0.42309c0,0 0.00053,-0.36958 0.37011,-0.36905c0.03409,0.00005 0.06503,0.00324 0.09311,0.00899l0.00829,-0.01246c0,0 0.20485,-0.30761 0.51246,-0.10277z" stroke-width="0.5"/><path d="M231.86754,169.12768c0.22804,0.29083 -0.06279,0.51888 -0.06279,0.51888l-0.24869,0.1925c-0.21952,0.07703 -0.43714,0.30246 -0.65856,0.23108c-0.06553,-0.02112 -0.07994,-0.08428 -0.07736,-0.16143c-0.09564,0.05148 -0.23701,0.0795 -0.39383,-0.04918c-0.2857,-0.23444 -0.05126,-0.52014 -0.05126,-0.52014l0.2663,-0.32453c0.12948,-0.15779 0.36235,-0.18074 0.52014,-0.05126c0.05345,0.04386 0.09143,0.09959 0.11325,0.16024l0.07393,-0.05896c0,0 0.29083,-0.22804 0.51888,0.06279z" stroke-width="0.5"/><g><path d="M223.48994,178.85509c-2.87507,-0.81817 -5.01653,-2.14642 -4.78309,-2.96673c0.23343,-0.82031 2.75338,-0.82204 5.62844,-0.00388c2.87507,0.81817 5.01653,2.14642 4.78309,2.96673c-0.23343,0.82031 -2.75338,0.82204 -5.62844,0.00388z" stroke-width="2"/><path d="M226.5045,179.47587c-0.29421,0.22368 -0.51788,-0.07052 -0.51788,-0.07052l-0.25431,-0.41904c-0.04412,-0.48643 -0.13121,-0.58123 0.19561,-1.03603c0.04763,-0.06629 0.23063,-0.01518 0.22499,-0.09661c-0.01472,-0.2128 -0.36554,-0.38776 -0.27176,-0.57934c0.25317,-0.51728 0.94108,-0.25934 1.28525,-0.18835c0,0 0.36079,0.08011 0.28069,0.4409c-0.08011,0.36079 -0.4409,0.28069 -0.4409,0.28069c-0.06633,-0.01618 -0.13574,-0.02441 -0.20383,-0.03606c0.05044,0.05681 0.08474,0.11957 0.08148,0.19219c-0.02465,0.54921 -0.51702,0.33 -0.41747,0.93593l0.10866,0.05837c0,0 0.22368,0.29421 -0.07052,0.51788z" stroke-width="0.5"/><path d="M223.89531,178.78033c-0.25902,0.26362 -0.52265,0.0046 -0.52265,0.0046l-0.30819,-0.31c-0.24931,-0.57986 -0.27363,-1.2568 0.22101,-1.80447c0.08255,-0.09141 0.28038,0.07604 0.3694,-0.00909c0.09158,-0.08757 -0.05174,-0.28686 0.03583,-0.37842c0.55164,-0.57667 0.6571,-0.36061 1.19645,-0.11701c0,0 0.32362,0.1785 0.14512,0.50211c-0.1785,0.32362 -0.50211,0.14512 -0.50211,0.14512c-0.41001,-0.35297 -0.09524,0.11726 -0.39783,0.41243c-0.09287,0.0906 -0.2958,-0.06618 -0.38844,0.02466c-0.12585,0.1234 -0.1712,0.6678 -0.08106,0.79075l0.22783,0.21666c0,0 0.26362,0.25902 0.0046,0.52265z" stroke-width="0.5"/><path d="M221.72046,177.95647c-0.21952,0.29732 -0.51685,0.07779 -0.51685,0.07779l-0.29472,-0.24544c-0.11997,-0.19815 -0.30941,-0.36838 -0.35992,-0.59445c-0.1739,-0.77837 0.70519,-1.32877 1.1347,-1.79983c0,0 0.24944,-0.2727 0.52215,-0.02326c0.2727,0.24944 0.02326,0.52215 0.02326,0.52215c-0.46165,0.50322 -1.2116,0.82384 -0.70391,1.48727l0.11749,0.05893c0,0 0.29732,0.21952 0.07779,0.51685z" stroke-width="0.5"/><path d="M219.90858,177.11843c-0.26106,0.26161 -0.52267,0.00055 -0.52267,0.00055l-0.32556,-0.44649c-0.0248,-0.27634 -0.10691,-0.9482 0.00731,-1.15228c0.09703,-0.17337 0.34759,-0.19252 0.52138,-0.28879c0,0 0.34076,-0.14307 0.48383,0.1977c0.14307,0.34076 -0.1977,0.48383 -0.1977,0.48383c-0.3265,0.01489 -0.10416,0.41174 -0.07865,0.69316l0.1115,-0.01034c0,0 0.26161,0.26106 0.00055,0.52267z" stroke-width="0.5"/><path d="M227.99981,179.37367c-0.33784,0.14986 -0.48769,-0.18799 -0.48769,-0.18799l-0.11133,-0.25843c-0.167,-0.74099 0.03775,-1.00821 0.70137,-1.35231c0,0 0.33188,-0.16261 0.49449,0.16928c0.16261,0.33188 -0.16928,0.49449 -0.16928,0.49449c-0.31179,0.13908 -0.47978,0.14507 -0.31818,0.47755l0.0786,0.16973c0,0 0.14986,0.33784 -0.18799,0.48769z" stroke-width="0.5"/></g><g data-paper-data="{&quot;index&quot;:null}"><path d="M234.59922,171.53511c-0.80865,0.27107 -2.23437,-1.80677 -3.18444,-4.64099c-0.95006,-2.83421 -1.0647,-5.35154 -0.25604,-5.62262c0.80865,-0.27107 2.23437,1.80677 3.18444,4.64099c0.95006,2.83421 1.0647,5.35154 0.25604,5.62262z" stroke-width="2"/><path d="M234.58842,168.98953l-0.06332,-0.10585c-0.60989,-0.07147 -0.36816,0.41026 -0.91565,0.46024c-0.07238,0.00661 -0.13667,-0.02476 -0.19574,-0.07252c0.01477,0.06748 0.0262,0.13644 0.04543,0.20195c0,0 0.09668,0.3567 -0.26003,0.45339c-0.3567,0.09668 -0.45339,-0.26003 -0.45339,-0.26003c-0.0868,-0.34053 -0.37624,-1.01578 0.1288,-1.29258c0.18706,-0.10252 0.37802,0.23984 0.59128,0.24472c0.0816,0.00187 0.02211,-0.17857 0.08612,-0.22921c0.43922,-0.34747 0.53794,-0.26484 1.02589,-0.24324l0.43033,0.23469c0,0 0.30422,0.20985 0.09436,0.51407c-0.20985,0.30422 -0.51407,0.09436 -0.51407,0.09436z" stroke-width="0.5"/><path d="M233.76493,166.34042l-0.22695,-0.21758c-0.12698,-0.08438 -0.6687,-0.01393 -0.78616,0.11748c-0.08646,0.09674 0.07951,0.29221 -0.0067,0.38917c-0.28088,0.31589 -0.76515,0.02317 -0.39363,0.41644c0,0 0.19325,0.31503 -0.12178,0.50828c-0.31503,0.19325 -0.50828,-0.12178 -0.50828,-0.12178c-0.26825,-0.52753 -0.48894,-0.6229 0.06164,-1.20058c0.08741,-0.09172 0.29312,0.04224 0.37636,-0.05328c0.08092,-0.09285 -0.09548,-0.28273 -0.00798,-0.36942c0.52424,-0.5194 1.20158,-0.52637 1.79233,-0.3041l0.32389,0.29354c0,0 0.27092,0.25138 0.01954,0.5223c-0.25138,0.27092 -0.5223,0.01954 -0.5223,0.01954z" stroke-width="0.5"/><path d="M232.84392,164.13255l-0.06429,-0.11464c-0.68616,-0.47651 -0.97182,0.28745 -1.45318,0.77184c0,0 -0.26089,0.26177 -0.52266,0.00088c-0.26177,-0.26089 -0.00088,-0.52266 -0.00088,-0.52266c0.45073,-0.45081 0.95994,-1.35438 1.74551,-1.21661c0.22816,0.04001 0.40695,0.22139 0.61043,0.33208l0.25878,0.28307c0,0 0.23302,0.28686 -0.05384,0.51988c-0.28686,0.23302 -0.51988,-0.05384 -0.51988,-0.05384z" stroke-width="0.5"/><path d="M231.92085,162.43874l0.00518,-0.11186c-0.28229,-0.01249 -0.68899,-0.21626 -0.68878,0.11058c0,0 -0.12718,0.34701 -0.47419,0.21983c-0.34701,-0.12718 -0.21983,-0.47419 -0.21983,-0.47419c0.08814,-0.17805 0.0957,-0.42923 0.2644,-0.53416c0.19859,-0.12352 0.87352,-0.07252 1.15071,-0.06051l0.46104,0.30459c0,0 0.27286,0.24928 0.02358,0.52213c-0.24928,0.27286 -0.52213,0.02358 -0.52213,0.02358z" stroke-width="0.5"/><path d="M234.59099,170.60391l-0.17318,-0.07067c-0.33959,-0.14607 -0.3378,0.02201 -0.46234,0.33989c0,0 -0.14711,0.33904 -0.48614,0.19193c-0.33904,-0.1471 -0.19193,-0.48614 -0.19193,-0.48614c0.3131,-0.6788 0.57058,-0.89568 1.31848,-0.76307l0.2633,0.09927c0,0 0.34439,0.13409 0.2103,0.47849c-0.13409,0.34439 -0.47849,0.2103 -0.47849,0.2103z" stroke-width="0.5"/></g><path d="M235.0712,179.16031c0.74481,0.61117 0.76949,1.81235 0.05514,2.6829c-0.71436,0.87056 -1.89724,1.08083 -2.64205,0.46966c-0.74481,-0.61117 -0.76949,-1.81235 -0.05514,-2.6829c0.71436,-0.87056 1.89724,-1.08083 2.64205,-0.46966z" stroke-width="1.5"/><path d="M242.91451,177.37627c0.65524,0.70634 0.51714,1.89981 -0.30845,2.66568c-0.8256,0.76587 -2.02606,0.81413 -2.68131,0.10778c-0.65524,-0.70634 -0.51714,-1.89981 0.30845,-2.66568c0.8256,-0.76587 2.02606,-0.81413 2.68131,-0.10778z" stroke-width="1.5"/></g><path d="M251.71992,188.00459l10.43516,6.81895" fill="none" stroke="#ffffff" stroke-width="2" stroke-linecap="round"/><path d="M249.43886,193.73556l-2.66922,-8.81394l9.61641,-0.69118z" fill="#ffffff" stroke="#ffffff" stroke-width="2" stroke-linecap="round"/></g></g></svg>