<svg version="1.1" xmlns="http://www.w3.org/2000/svg" xmlns:xlink="http://www.w3.org/1999/xlink" width="58" height="50" viewBox="0,0,58,50"><g transform="translate(-291,-155)"><g stroke-miterlimit="10"><path d="M293,203v-46h54v46z" fill="#2e2e2e" stroke="#161616" stroke-width="4"/><text transform="translate(305.0625,199.38281) scale(0.1831,0.1831)" font-size="40" xml:space="preserve" fill="#cacaca" stroke="none" stroke-width="1" font-family="Sans Serif" font-weight="normal" text-anchor="start"><tspan x="0" dy="0">Whoosh!</tspan></text><g fill="#cacaca" stroke="#848484" stroke-width="0.5"><path d="M334.14434,172.66625c0,0 -0.08584,4.63026 -0.8686,4.53234c-0.66788,-0.08355 -1.9704,-4.88748 -2.76986,-4.98748c-1.32533,-0.16578 -4.26742,-1.30012 -7.41826,-1.55905c-2.99676,-0.24628 -6.16466,0.3879 -8.98271,0.03539c-3.99887,-0.50021 -6.69213,-1.36503 -6.69213,-1.36503l0.54873,-4.38671c0,0 -0.3889,-2.6128 7.46274,-1.17815c2.03712,0.37222 3.14863,2.33328 7.45838,3.10162c5.47464,0.97601 11.81043,1.42036 11.81043,1.42036z"/><path d="M333.89819,178.85439l-0.14851,-0.01858c0,0 -1.39331,-0.79568 -2.16403,-2.11005c-0.52568,-0.89648 -1.38961,-2.9179 -1.48311,-3.5812c-0.27942,-1.9822 0.00963,-5.62368 0.00963,-5.62368l5.10068,0.82369z"/></g><g fill="#cacaca" stroke="#848484" stroke-width="0.5"><path d="M317.79976,188.62004c0,0 -3.52488,3.00364 -3.97019,2.35248c-0.37995,-0.55559 2.35511,-4.71417 1.9003,-5.37921c-0.75398,-1.1025 -1.85375,-4.05768 -3.7475,-6.58919c-1.80114,-2.40771 -4.37514,-4.36024 -5.9783,-6.7045c-2.27493,-3.32654 -3.4117,-5.91676 -3.4117,-5.91676l3.64918,-2.49558c0,0 1.69928,-2.02248 5.82711,4.80888c1.07097,1.7724 0.33863,3.90427 2.61872,7.64132c2.89639,4.74713 6.76156,9.78698 6.76156,9.78698z"/><path d="M313.00182,192.53584l-0.08449,-0.12354c0,0 -0.32723,-1.57077 0.14655,-3.01891c0.32315,-0.98772 1.26475,-2.97415 1.69959,-3.48368c1.29951,-1.52266 4.21846,-3.71894 4.21846,-3.71894l2.7627,4.36611z"/></g></g></g></svg>