<svg version="1.1" xmlns="http://www.w3.org/2000/svg" xmlns:xlink="http://www.w3.org/1999/xlink" width="241.041" height="303.14117" viewBox="0,0,241.041,303.14117"><defs><radialGradient cx="234.88629" cy="119.36476" r="45.61247" gradientUnits="userSpaceOnUse" id="color-1"><stop offset="0" stop-color="#484848" stop-opacity="0"/><stop offset="1" stop-color="#484848"/></radialGradient><radialGradient cx="235.09943" cy="126.6116" r="50.51474" gradientUnits="userSpaceOnUse" id="color-2"><stop offset="0" stop-color="#484848" stop-opacity="0"/><stop offset="1" stop-color="#484848"/></radialGradient></defs><g transform="translate(-113.73557,-76.41258)"><g data-paper-data="{&quot;isPaintingLayer&quot;:true}" fill-rule="nonzero" stroke-linejoin="miter" stroke-miterlimit="10" stroke-dasharray="" stroke-dashoffset="0" style="mix-blend-mode: normal"><path d="M194.70307,128.64799c-2.37256,-3.49687 -2.6922,-4.0124 -2.87456,-9.44123c-0.05056,-1.50521 5.73613,-8.18171 5.99697,-8.55946c0.52399,-0.75883 0.06929,-1.82898 0.35836,-2.71937c1.59407,-4.91021 2.97763,-6.81171 6.989,-8.92044c2.85757,-1.50219 5.23166,-0.58233 7.95948,-0.77465c3.86575,-0.27255 8.42027,-1.98235 12.44817,-2.24511c3.21235,-0.20956 8.35513,2.22457 10.08564,2.95083c1.3249,0.55604 2.02342,2.25478 3.53395,2.34416c2.75127,0.16278 5.25274,-1.47053 7.83764,-1.40536c1.66994,0.0421 3.75989,0.92176 5.37388,0.84332c3.34526,-0.16256 8.91637,-1.81946 12.06747,-2.72148c1.52646,-0.43696 3.57456,-1.43815 4.96704,-0.78401c0.74393,0.34947 0.90444,1.58584 1.54333,2.13046c0.97123,0.82791 3.07445,2.16184 3.05834,4.22182c-0.0078,0.99761 -0.81122,1.97675 -0.97754,2.99435c-0.17432,1.06653 0.31698,2.0906 -0.02453,3.13671c-0.46732,1.43146 -2.2944,2.14531 -2.5871,3.60353c-0.71231,3.54868 -0.52424,6.78229 -2.43712,10.40092c-11.01732,20.84164 -26.10504,4.6655 -39.27447,7.41896c-4.80841,1.00534 -8.43732,3.85976 -13.26019,3.78102c-0.6826,-0.01114 -1.78872,1.51692 -2.33423,1.86703c-2.19203,1.40684 -5.63261,2.63575 -7.99516,3.14808c-5.4432,1.18038 -10.93435,-4.16166 -9.73144,-10.69454z" fill="#131313" stroke="none" stroke-width="0.5" stroke-linecap="butt"/><path d="M234.87188,254.06953c-0.5,1.20755 0.36603,3.39836 0.37051,4.67604c0.079,22.4998 0.04651,45.00007 0,67.5c-0.0142,6.86916 -0.34689,14.08926 -0.82813,21c-0.09689,1.39139 -0.80053,3.0142 -0.82813,4.37768c-0.11161,5.51245 0.3291,11.22539 -1.00928,16.49732c-0.459,1.80803 -2.19178,2.72638 -3.45407,3.84567c-2.10076,1.86277 -14.62839,6.04475 -16.79211,6.529c-1.65705,0.37085 -3.77705,0.94916 -5.45177,1.00034c-3.7254,0.11385 -7.45327,0.03084 -11.17977,0c-1.22792,-0.01016 -5.86666,-1.35368 -6.9356,-2.21875c-0.6145,-0.4973 -0.57796,-1.69507 -1.10104,-2.3267c-0.52307,-0.63163 -1.5598,-0.55398 -1.92682,-1.32955c-0.68821,-1.45432 -0.83938,-3.2126 -1.00928,-4.875c-1.07603,-10.52806 5.63055,-17.42081 13.80228,-19.24966c2.23713,-0.50068 9.66343,-1.33092 11.00203,-2.70711c0.10087,-0.10371 0.27149,-1.10277 0.44966,-2.36744c0.00831,-0.58536 0.04421,-1.16081 0.10755,-1.71823c0.06078,-0.5349 0.17443,-1.07822 0.31682,-1.62579c0.11444,-0.98477 0.20236,-1.81459 0.23481,-2.19649c0.32246,-3.79488 -0.24971,-8.97998 0.5435,-12.81132c0.20783,-1.00384 0.53071,-1.95653 0.76419,-2.93853c-0.01366,-9.55935 -0.04124,-19.11873 0.00398,-28.67788c0.03034,-6.41232 2.61438,-12.70024 2.69143,-19.19291c0.16252,-13.69525 1.10789,-27.47671 -0.14469,-41.08959c-0.04114,-0.39885 -0.06234,-0.80519 -0.06234,-1.2175c0,-3.42765 1.46475,-6.44218 3.67963,-8.18069c0.89616,-3.176 2.44844,-5.96883 5.02789,-6.74753c4.002,-1.20814 8.37147,-1.96819 12.37699,-0.75899c2.28201,0.6889 4.07505,3.31035 6.33952,4.44911c1.63974,0.8246 6.15743,1.63636 8.08208,1.55212c0.71756,-0.0314 3.53616,-0.65136 4.51366,0.3028c11.24187,10.97341 9.58153,35.25225 10.18567,51.04795c0.09295,2.43021 2.01042,6.24744 2.65968,8.28697c1.77183,5.56588 3.81509,11.50612 4.55242,17.47599c0.97261,7.87479 0.84055,14.47684 1.06921,22.99632c0.06189,2.30582 2.37899,11.57619 3.07145,14.06359c0.45067,1.61886 1.83986,5.83663 3.08088,6.99651c0.77565,0.72494 4.88665,-0.9153 6.06261,-0.94169c4.00194,-0.08981 8.00535,-0.0309 12.0079,0c3.01084,0.02325 12.84536,4.12556 14.10411,7.875c2.3184,6.90585 0.64304,13.94174 -3.48527,18.92684c-6.94793,8.38989 -30.82914,4.19195 -33.27968,4.19816c-0.96558,0.00245 -2.09281,-0.90222 -3.05149,-0.73784c-2.80574,0.48108 -5.98546,1.37832 -8.55159,-0.48091c-3.9231,-2.84237 -5.38443,-7.38915 -7.77096,-11.74705c-8.2621,-15.0869 -8.92175,-29.10622 -11.34553,-46.61976c-1.01449,-7.3304 -1.91313,-14.69443 -2.53042,-22.22232c-0.1637,-1.99633 -1.07349,-3.99071 -1.07349,-5.98716c0,-7.33733 -0.93605,-15.13082 -1.60595,-22.45496c-0.30779,-3.36512 0.22931,-9.45103 -1.0572,-12.24335c-0.5124,-1.11214 -2.13054,0.59352 -3.15302,0.28485z" fill="#171717" stroke="none" stroke-width="0.5" stroke-linecap="butt"/><path d="" fill="#ffffff" stroke="#000000" stroke-width="1.5" stroke-linecap="butt"/><path d="" fill="#000000" stroke="#000000" stroke-width="1.5" stroke-linecap="butt"/><path d="" fill="#ff7575" stroke="#000000" stroke-width="1.5" stroke-linecap="butt"/><path d="M229.99045,183.4338v-22.55025h13.11596v22.55025z" fill="#00a7dc" stroke="#00779c" stroke-width="1" stroke-linecap="butt"/><path d="M214.69985,165.53839l14.36923,0.1817c0,0 -0.69872,4.03564 6.90409,4.19029c11.31242,0.2301 9.59048,-3.41868 9.59048,-3.41868l13.66898,-0.95331v70.87454c-1.25881,-1.21349 -2.97107,-1.95981 -4.85763,-1.95981c-0.53177,0 -1.04969,0.0593 -1.54751,0.17164c-2.40814,-0.46369 -5.01682,-0.13547 -6.95249,0.95336c-0.12539,0.07053 -0.24418,0.14772 -0.35696,0.23096c-0.44822,0.24542 -0.86665,0.53845 -1.24848,0.8723c-3.11024,-1.73929 -7.53953,-1.70924 -10.39456,-0.10325c-0.2712,0.15255 -0.51149,0.33624 -0.72699,0.54486c-0.17703,0.13431 -0.34748,0.27686 -0.51077,0.42706c-0.87002,-1.10773 -1.79371,-1.68705 -2.8033,-2.05348c-0.60549,-0.25435 -1.25428,-0.426 -1.93224,-0.50084c-0.53137,-0.10594 -1.08624,-0.20694 -1.66801,-0.33622l-0.00392,0.00262c-0.10747,0 -0.21411,0.00167 -0.31991,0.00497c-1.2805,-1.6512 -3.28357,-2.71397 -5.53485,-2.71397c-2.33529,0 -4.40348,1.14356 -5.67515,2.90124z" fill="#005771" stroke="#003849" stroke-width="2.5" stroke-linecap="butt"/><path d="M280.49876,119.36476c0,23.30763 -20.4214,42.20219 -45.61247,42.20219c-25.19107,0 -45.61247,-18.89456 -45.61247,-42.20219c0,-23.30762 20.4214,-42.20218 45.61247,-42.20218c25.19107,0 45.61247,18.89456 45.61247,42.20218z" fill="url(#color-1)" stroke="#2f2f2f" stroke-width="1.5" stroke-linecap="butt"/><path d="M184.58469,133.00587v-12.78854h101.02948v12.78854z" fill="url(#color-2)" stroke="#2f2f2f" stroke-width="1.5" stroke-linecap="butt"/><path d="M232.20611,162.87972c0,0 -6.89324,-0.66278 -12.07652,-2.31267c-6.96033,-2.21554 -13.28523,-6.30161 -16.57724,-8.97395c-6.28558,-5.10241 -11.64711,-18.58724 -11.64711,-18.58724h86.96208c0,0 -7.68054,18.05786 -18.40046,23.30213c-3.89436,1.90516 -9.22384,4.45481 -14.86362,5.41259c-6.70322,1.13838 -13.00477,1.19306 -13.00477,1.19306z" fill="#00a7dc" stroke="#00779c" stroke-width="1" stroke-linecap="butt"/><path d="M271.99887,113.82138c0,7.87629 -6.84871,14.26129 -15.29702,14.26129c-8.44831,0 -15.29702,-6.385 -15.29702,-14.26129c0,-7.87629 6.84871,-14.26129 15.29702,-14.26129c8.44831,0 15.29702,6.385 15.29702,14.26129z" fill="#ff5a5a" stroke="#000000" stroke-width="2" stroke-linecap="butt"/><path d="M229.07066,114.33559c0,7.74869 -6.73776,14.03025 -15.04921,14.03025c-8.31144,0 -15.0492,-6.28156 -15.0492,-14.03025c0,-7.74869 6.73776,-14.03025 15.0492,-14.03025c8.31144,0 15.04921,6.28156 15.04921,14.03025z" fill="#ff5a5a" stroke="#000000" stroke-width="2" stroke-linecap="butt"/><path d="M218.07426,114.10765c0,1.59235 6.40686,3.37324 5.70999,4.67769c-1.51661,2.83891 -4.59885,4.76378 -7.97769,4.76378c-4.93139,0 -8.92906,-4.10018 -8.92906,-9.15801c0,-5.05783 3.99768,-9.15801 8.92906,-9.15801c3.18253,0 5.97619,1.7077 7.55739,4.27842c0.8689,1.41265 -5.28969,2.80244 -5.28969,4.59613z" fill="#000000" stroke="none" stroke-width="0" stroke-linecap="butt"/><path d="M258.83975,114.14673c0,1.59235 6.40686,3.37324 5.70999,4.67769c-1.51661,2.83892 -4.59885,4.76379 -7.97769,4.76379c-4.93138,0 -8.92906,-4.10019 -8.92906,-9.15802c0,-5.05783 3.99768,-9.15802 8.92906,-9.15802c3.18253,0 5.97618,1.7077 7.55739,4.27842c0.86889,1.41265 -5.28969,2.80244 -5.28969,4.59614z" fill="#000000" stroke="none" stroke-width="0" stroke-linecap="butt"/><g data-paper-data="{&quot;index&quot;:null}" stroke-linecap="butt"><path d="M146.155,125.31874l48.07139,32.01446l-5.1019,7.66078l-48.07139,-32.01446z" fill="#00a7dc" stroke="#00779c" stroke-width="1"/><path d="M192.88458,153.95139l26.23817,17.47403l-3.57134,5.36255l-10.40246,0.26024l-19.15195,-12.75477z" fill="#005771" stroke="#003849" stroke-width="2.5"/><path d="M149.75488,133.84516c-2.76273,3.56658 -9.11533,3.2719 -14.18892,-0.6582c-5.07359,-3.93009 -10.3288,-5.64146 -5.02965,-12.48245c2.48311,-3.2056 3.9615,-1.26664 6.34968,-1.13862c1.4332,0.07684 -3.13532,-3.27128 -2.27159,-4.72764c1.38196,-2.33015 9.79079,4.53014 10.95632,5.43297c5.07359,3.93009 6.94689,10.00735 4.18416,13.57393z" fill="#00a7dc" stroke="#00779c" stroke-width="1"/></g><g data-paper-data="{&quot;index&quot;:null}" stroke-linecap="butt"><path d="M329.59583,116.48662l-43.17605,38.3616l-6.1134,-6.88064l43.17605,-38.3616z" fill="#00a7dc" stroke="#00779c" stroke-width="1"/><path d="M289.42016,153.72145l-17.20162,15.28351l-10.33831,1.18248l-4.27938,-4.81646l23.56622,-20.93841z" fill="#005771" stroke="#003849" stroke-width="2.5"/><path d="M321.0977,118.54869c-3.22992,-3.14974 -2.21604,-9.42781 2.26457,-14.0225c1.02929,-1.05551 8.40735,-9.01392 10.0986,-6.89755c1.05705,1.32274 -3.00393,5.27113 -1.59517,4.99661c2.34746,-0.45745 3.54316,-2.58239 6.44617,0.24855c6.19525,6.04145 1.2276,8.46393 -3.25301,13.0586c-4.48062,4.59467 -10.73124,5.76603 -13.96116,2.61629z" fill="#00a7dc" stroke="#00779c" stroke-width="1"/></g><path d="M241.82526,96.24977c0,0 5.32488,-3.63852 8.34602,-4.08056c7.39928,-1.08263 11.44297,3.16015 11.44297,3.16015" fill="none" stroke="#000000" stroke-width="2" stroke-linecap="round"/><path d="M219.375,144.95313l-6.75,-8.5h42.25l-0.25,6.25c0,0 -11.27125,7.68277 -17.02227,7.8942c-5.57697,0.20504 -18.22773,-5.6442 -18.22773,-5.6442z" fill="#ffffff" stroke="#000000" stroke-width="2.5" stroke-linecap="butt"/><path d="M252.625,138.20313l-8.75,6l-6.75,-4.5l-4.75,4l-17,-6" fill="none" stroke="#000000" stroke-width="2.5" stroke-linecap="round"/><path d="M205.32526,95.74977c0,0 5.32488,-3.63852 8.34602,-4.08056c7.39928,-1.08263 11.44297,3.16015 11.44297,3.16015" fill="none" stroke="#000000" stroke-width="2" stroke-linecap="round"/><g fill="#232323" stroke="#090909" stroke-width="2" stroke-linecap="butt"><path d="M140.26958,330.46392l87.25117,-210.07316l19.88539,-1.48029l-84.93249,220.12078z"/><path d="M118.09771,351.67238l-0.76221,-21.69306l62.78363,-2.20598l0.76221,21.69306z"/></g><path d="M119.21077,352.2102l-0.25837,-6.57839l60.69083,-1.90764l0.25837,6.57839z" fill="#000000" stroke="none" stroke-width="0" stroke-linecap="butt"/><path d="M215.125,219.92875c5.29251,-2.97709 19.68677,-2.14384 24.875,-1.71875c1.66942,0.13678 3.42068,0.38771 4.875,1.21875c1.35034,0.77162 1.77224,2.77876 3.19998,3.39552c0.38669,0.16705 0.69322,-0.48633 1.07502,-0.66427c1.51822,-0.70759 3.05553,-1.38188 4.63125,-1.95c1.19335,-0.43026 2.88478,0.74461 4.27908,0.74045c1.26861,-0.00379 2.83862,-1.03885 3.8,-0.21111c2.48206,2.13703 4.41468,5.06841 5.45042,8.17562c1.128,3.38399 -3.028,7.79709 -4.86033,9.72067c-0.8474,0.8896 -6.72131,2.10683 -8.70984,2.85492c-9.14238,3.43939 -20.09284,7.63436 -25.99024,-2.44732c-0.26901,-0.45987 0.43713,-1.04906 0.31345,-1.56727c-0.09159,-0.38379 -3.34209,0.32127 -3.54327,0.35392c-2.17809,0.35346 -8.16905,1.3077 -9.46898,-0.96717c-2.87373,-1.69603 -4.80154,-4.82423 -4.80154,-8.4027c0,-3.17293 1.51563,-5.99187 3.8624,-7.77233c0.30017,-0.29059 0.63485,-0.54643 1.0126,-0.75892z" fill="#131313" stroke="none" stroke-width="0.5" stroke-linecap="butt"/><path d="M341,92.21c5.51221,-0.54368 10.48361,1.26695 12.75783,6.27935c0.1833,0.40399 0.93072,0.44803 0.99183,0.88743c0.25792,1.85465 -1.41041,9.14943 -1.92701,9.63506c-1.16019,1.09065 -3.27343,1.19259 -4.00198,2.60849c-1.99549,3.87814 -8.05225,13.20677 -11.87025,15.01529c-1.38278,0.655 -4.38487,0.9316 -5.64355,1.80609c-3.5467,2.46414 -3.12671,4.80567 -7.72151,5.99794c-0.92201,0.23924 -1.80586,-0.69903 -2.75694,-0.75189c-1.75151,-0.09735 -3.5909,1.42646 -5.32842,1.02224c-1.63145,-0.37954 -3.50371,-0.25686 -4.875,-1.21875c-1.15446,-0.80979 -1.30415,-2.50821 -2.0989,-3.67307c-0.80722,-1.18316 -2.69871,-3.32044 -2.7761,-4.85818c-0.18462,-3.66846 5.99586,-8.14041 6.35893,-9.43571c0.37737,-1.34633 0.23205,-3.02075 1.21545,-4.0147c1.79681,-1.8161 4.40958,-3.33032 5.75387,-5.59198c1.7685,-2.97536 2.89382,-6.36771 5.10662,-9.12901c0.30011,-0.63308 0.66641,-1.22868 1.08996,-1.77785c1.78285,-2.31163 4.58011,-3.80074 7.72516,-3.80074c1.87667,0 3.62951,0.53021 5.11688,1.44901c0.69894,0.16398 2.27381,-0.38891 2.88312,-0.44901z" fill="#131313" stroke="none" stroke-width="0.5" stroke-linecap="butt"/><path d="M157.27476,147.28427c-8.35321,5.56881 -14.63121,-6.98269 -21.02476,-8.07427c-4.75309,-0.8115 -10.32183,0.28917 -14.64427,-2.46147c-7.44991,-4.74085 -11.12876,-16.64 -4.15758,-23.61118c3.24339,-3.24339 8.01647,-4.4654 12.55184,-3.92735c1.03651,0.12297 2.02785,1.02284 3.03785,0.75946c1.1053,-0.28823 1.69151,-1.54013 2.60182,-2.23013c1.6246,-1.23143 3.86995,-1.70316 5.90537,-1.59008c0.89189,0.04955 1.38229,1.204 2.22972,1.48648c0.84742,0.28247 1.88196,-0.26118 2.67566,0.14865c3.85637,1.99123 4.79279,6.878 7.44209,10.05135c0.96301,0.64048 1.80564,1.44762 2.48669,2.38025c1.69393,1.29881 3.36008,2.10931 5.15205,3.86903c1.00878,0.99063 0.48038,1.71671 1.9657,2.98663c1.27746,1.0922 3.05734,1.19518 4.41138,2.27588c2.59182,2.0686 8.60069,7.7639 7.40242,12.15753c-0.5238,1.92061 -2.24126,3.29146 -3.31281,4.96922c-0.59345,0.92919 -0.92142,2.87472 -2.1376,3.20641c-3.27762,0.8939 -9.23561,0.12595 -11.45162,-2.45939z" fill="#131313" stroke="none" stroke-width="0.5" stroke-linecap="butt"/></g></g></svg>