<svg version="1.1" xmlns="http://www.w3.org/2000/svg" xmlns:xlink="http://www.w3.org/1999/xlink" width="226.64659" height="358.41256" viewBox="0,0,226.64659,358.41256"><g transform="translate(-138.29495,0.77543)"><g data-paper-data="{&quot;isPaintingLayer&quot;:true}" fill-rule="nonzero" stroke-linejoin="miter" stroke-miterlimit="10" stroke-dasharray="" stroke-dashoffset="0" style="mix-blend-mode: normal"><g><g stroke-linecap="butt"><path d="M214.33495,294.94492c0,18.0305 -0.23049,44.29878 -4.82537,56.42236c-1.86969,4.93315 -6.90437,5.26985 -9.13417,5.26985c-2.10888,0 -7.03554,-0.46641 -8.82793,-4.93456c-4.76023,-11.86654 -5.13161,-38.32932 -5.13161,-56.75764c0,-25.36723 5.57444,-20.71417 13.28409,-20.71417c7.70965,0 14.63501,-4.65305 14.63501,20.71417z" fill="#0077ff" stroke="#000000" stroke-width="2"/><path d="M196.09749,333.91886c1.43279,0.59653 2.78036,1.46645 4.29834,1.78955c1.33287,0.28369 3.07995,-3.00012 4.70781,-2.69017c11.72728,2.23286 5.02517,20.84565 -3.40764,22.95385c-6.51465,1.62866 -10.61123,-6.12917 -11.13228,-11.33427c-0.19174,-1.91543 -1.89683,-6.4729 0.31383,-7.73614z" fill="#002ccd" stroke="none" stroke-width="0.5"/></g><g stroke-linecap="butt"><path d="M281.62632,294.01463c0,18.0305 -0.2305,44.29878 -4.82539,56.42236c-1.86969,4.93315 -6.90437,5.26985 -9.13417,5.26985c-2.10888,0 -7.03554,-0.4664 -8.82795,-4.93456c-4.76023,-11.86654 -5.13161,-38.32932 -5.13161,-56.75765c0,-25.36723 5.57444,-20.71417 13.28408,-20.71417c7.70963,0 14.63502,-4.65307 14.63502,20.71417z" fill="#0077ff" stroke="#000000" stroke-width="2"/><path d="M263.38885,332.98855c1.43279,0.59653 2.78036,1.46646 4.29834,1.78956c1.33287,0.28369 3.07995,-3.00012 4.70781,-2.69018c11.72728,2.23286 5.02517,20.84565 -3.40764,22.95385c-6.51465,1.62866 -10.61123,-6.12917 -11.13226,-11.33429c-0.19174,-1.91543 -1.89683,-6.4729 0.31383,-7.73614z" fill="#002ccd" stroke="none" stroke-width="0.5"/></g><g stroke-linecap="butt"><g><path d="M318.01002,227.73273c33.18768,19.0327 21.31306,85.74466 16.84729,93.53171c-4.46577,7.78705 0.54859,-43.85096 -32.63907,-62.88366c-33.18768,-19.0327 -61.71885,-30.84636 -57.25307,-38.63341c4.46577,-7.78705 39.85719,-11.04732 73.04485,7.98536z" fill="#0046ff" stroke="#000000" stroke-width="2"/><path d="M299.07255,241.47573c-8.94535,4.99991 -21.45303,-1.59017 -29.77543,-6.59163c-2.86396,-1.72114 -8.00214,-6.97961 -5.06983,-10.33582c1.30257,-1.49087 3.80048,-1.53285 5.12155,-3.00735c1.23872,-1.3826 1.55383,-3.62848 3.88357,-4.9965c1.3211,-0.77575 6.05332,-0.02095 7.6025,-0.0289c4.66526,-0.02392 10.59501,-1.58069 14.9958,0.88389c4.95221,2.77338 9.95744,5.46363 14.77112,8.47103c0.88248,0.55134 1.97821,1.15906 2.25043,2.16338c1.99067,7.34396 -5.70505,16.51167 -13.42642,12.08355z" fill="#002ccd" stroke="none" stroke-width="0.5"/><path d="M336.27099,280.07317c-0.98485,4.31748 -6.44644,4.86364 -9.74351,3.15089c-4.20618,-2.185 -11.17323,-13.61855 -10.11033,-18.48516c0.81217,-3.71869 4.57134,-12.30456 9.76165,-7.57138c0.74708,0.10327 1.48725,0.34875 2.18163,0.74697c1.49499,0.85737 2.48607,2.25544 2.86811,3.80635c2.92761,5.50295 5.79549,15.05111 5.04245,18.35232z" fill="#002ccd" stroke="none" stroke-width="0.5"/><path d="M323.77253,249.3835c-8.68282,1.65124 -11.77187,-12.47071 -1.12217,-12.4542c0.27942,-0.06805 0.56374,-0.11637 0.85073,-0.1443c1.75918,-0.6252 3.33115,0.04644 4.43271,1.35316c2.24283,1.84256 2.89534,5.08745 1.40315,7.68943c-0.65122,1.13556 -1.61446,1.98039 -2.71967,2.48841c-0.77342,0.48244 -1.71547,0.85271 -2.84474,1.06747z" fill="#002ccd" stroke="none" stroke-width="0.5"/></g><g><path d="M310.75793,203.40629c37.26742,8.64892 45.14387,75.95014 43.11451,84.69444c-2.02937,8.74431 -12.12556,-42.14474 -49.39299,-50.79366c-37.26742,-8.64892 -67.99369,-11.72914 -65.96433,-20.47345c2.02937,-8.74431 34.97538,-22.07626 72.2428,-13.42733z" fill="#0046ff" stroke="#000000" stroke-width="2"/><path d="M296.59045,222.02837c-7.12255,7.36803 -20.99962,4.66655 -30.41107,2.27875c-3.23873,-0.8217 -9.67549,-4.37426 -7.8361,-8.43373c0.81707,-1.80326 3.19665,-2.5641 4.03615,-4.35702c0.78719,-1.68117 0.44096,-3.92248 2.27697,-5.90445c1.04112,-1.12388 5.78989,-1.76643 7.27091,-2.22097c4.45999,-1.36883 9.68851,-4.5701 14.6132,-3.47994c5.54175,1.22676 11.1103,2.35865 16.58693,3.84946c1.00402,0.2733 2.2285,0.53906 2.77889,1.42214c4.02473,6.45741 -0.69892,17.4555 -9.3695,15.44325z" fill="#002ccd" stroke="none" stroke-width="0.5"/><path d="M343.34249,248.25305c0.30259,4.41803 -4.76921,6.51664 -8.4202,5.8279c-4.65769,-0.87864 -14.62704,-9.81604 -15.01334,-14.78239c-0.29517,-3.79489 0.82715,-13.10019 7.16227,-10.06564c0.74511,-0.11665 1.52464,-0.09515 2.30438,0.08581c1.67874,0.38961 3.03103,1.44232 3.84425,2.81705c4.39073,4.42438 9.89126,12.73918 10.12264,16.11728z" fill="#002ccd" stroke="none" stroke-width="0.5"/><path d="M322.5216,222.47404c-7.83727,4.086 -14.86909,-8.54432 -4.66744,-11.60092c0.2479,-0.14579 0.50621,-0.27405 0.77294,-0.38359c1.504,-1.10613 3.20289,-0.91658 4.63461,0.01681c2.67904,1.11717 4.23996,4.03585 3.56186,6.95768c-0.29593,1.27516 -0.97447,2.36198 -1.88612,3.16724c-0.60136,0.68504 -1.39654,1.31137 -2.41584,1.84278z" fill="#002ccd" stroke="none" stroke-width="0.5"/></g><g><path d="M305.21611,192.57755c38.23724,1.25667 59.01718,65.75227 58.72233,74.72413c-0.29485,8.97188 -20.0693,-38.9927 -58.30654,-40.24937c-38.23724,-1.25667 -68.97743,1.68097 -68.68258,-7.29089c0.29487,-8.97186 30.02955,-28.44054 68.26678,-27.18387z" fill="#0046ff" stroke="#000000" stroke-width="2"/><path d="M294.92941,213.59379c-5.55827,8.60953 -19.69579,8.65081 -29.39165,8.1337c-3.33661,-0.17796 -10.34017,-2.41462 -9.32305,-6.75376c0.45181,-1.9275 2.63866,-3.1354 3.11447,-5.05712c0.44616,-1.80192 -0.32819,-3.93351 1.08856,-6.23395c0.80337,-1.30448 5.33737,-2.85583 6.70209,-3.58899c4.10982,-2.20784 8.61815,-6.3624 13.66078,-6.2481c5.67445,0.12863 11.35677,0.15901 17.01856,0.55932c1.03796,0.07338 2.29073,0.09662 3.00194,0.85617c5.20072,5.55419 2.69986,17.25958 -6.19635,16.96722z" fill="#002ccd" stroke="none" stroke-width="0.5"/><path d="M345.87995,230.25295c1.15373,4.27546 -3.41475,7.31786 -7.12998,7.35032c-4.73966,0.04141 -16.25313,-6.79273 -17.59531,-11.58986c-1.02559,-3.66558 -1.72935,-13.01186 5.07403,-11.26363c0.70835,-0.25896 1.47724,-0.38905 2.27726,-0.36275c1.72245,0.05661 3.25321,0.82706 4.31763,2.01796c5.16545,3.48879 12.17423,10.57887 13.05637,13.84795z" fill="#002ccd" stroke="none" stroke-width="0.5"/><path d="M320.45458,209.00165c-6.89598,5.52846 -16.24393,-5.49821 -6.82882,-10.47537c0.21491,-0.19109 0.44345,-0.36703 0.68386,-0.52622c1.26092,-1.37684 2.96431,-1.52036 4.54987,-0.88238c2.84483,0.57634 4.9422,3.13687 4.84367,6.13475c-0.043,1.30835 -0.49786,2.50612 -1.23603,3.47289c-0.45706,0.78867 -1.1157,1.55733 -2.01255,2.27634z" fill="#002ccd" stroke="none" stroke-width="0.5"/></g></g><path d="M206.22941,168.85869v-31.52156h34.67372v31.52156z" fill="#0077ff" stroke="#000000" stroke-width="2" stroke-linecap="butt"/><path d="M192.94532,203.98271l-6.97977,-67.0959h21.38962v31.52156l34.89887,0.67546l-1.17899,-30.89562l-0.21117,-0.06088l21.31366,0.48332l-0.38428,63.76344l26.12393,82.96129l-42.7027,0.97729c0,0 -3.49242,-9.991 -6.04179,-20.0407c-2.70742,-10.67276 -4.61027,-21.44055 -9.3029,-21.39644c-3.7013,0.03481 -2.58738,10.18973 -3.23642,19.84763c-0.70969,10.56036 -2.99866,20.70264 -2.99866,20.70264l-46.45018,0.96324z" fill="#ff77e7" stroke="#000000" stroke-width="2" stroke-linecap="butt"/><path d="M218.16259,210.06185l-1.12577,12.60863l-17.33687,-1.35091l3.15215,-15.31047" fill="none" stroke="#000000" stroke-width="2" stroke-linecap="round"/><path d="M256.85936,207.10518l3.15217,15.31049l-17.33687,1.35091l-1.12577,-12.60863" data-paper-data="{&quot;index&quot;:null}" fill="none" stroke="#000000" stroke-width="2" stroke-linecap="round"/><g><path d="M306.32672,272.5538c-1.36409,0.40047 -5.15217,2.29104 -8.96816,0.1345c-1.56163,-0.88253 -2.77822,-5.28316 -4.38322,-6.29038c-2.82883,-1.77524 -2.7158,11.74679 -4.76421,10.34057c-2.12881,-1.46141 -6.3645,-17.81699 -6.3645,-17.81699l-27.39184,-117.74878l22.80157,-6.69379l27.39184,117.74878c0,0 5.33003,19.25414 1.67852,20.3261z" fill="#0077ff" stroke="#000000" stroke-width="2" stroke-linecap="butt"/><path d="M304.61629,248.06235c0.03334,0.03104 1.02823,8.60035 1.08265,8.82777c1.15559,4.82959 6.64671,13.34331 -1.59025,16.27778c-6.86416,2.4454 -9.48947,-14.52731 -10.50847,-19.97179c-0.14142,-0.75561 -0.30625,-1.50728 -0.49195,-2.25538c-0.06572,-0.18949 -0.12225,-0.38496 -0.16904,-0.586c-0.02382,-0.10237 -0.04477,-0.20487 -0.06296,-0.30742c-3.29804,-12.17118 -11.8971,-23.43666 -14.83009,-35.53963c-2.0935,-8.63883 -4.35835,-17.12479 -5.14402,-25.96411c-0.37411,-4.20904 3.42418,-6.29075 2.55535,-10.20674c-3.09147,-13.93388 -6.23865,-22.96992 -8.31741,-35.75385c-0.44012,-2.70659 1.91369,-7.39912 5.12517,-7.65012c7.06148,-0.55189 6.7634,10.79122 8.09474,16.16377c3.09614,12.49429 4.02693,18.6023 5.40386,27.17265c1.52256,1.78761 1.54406,4.92083 1.86105,7.66696c0.44658,0.70799 0.9175,1.41985 1.10066,2.16483c1.56027,6.34574 2.6342,11.49616 3.96593,17.04819c3.09624,12.90832 5.69624,30.08387 11.67747,41.85005z" fill="#002ccd" stroke="none" stroke-width="0.5" stroke-linecap="butt"/><path d="M255.84782,140.83903l20.90443,-6.13685l30.69453,129.85902l0.6472,4.86902l-0.64038,2.46454l-1.65251,1.24399l-3.40832,1.00057" fill="none" stroke="#000000" stroke-width="2" stroke-linecap="round"/></g><g><path d="M143.57438,249.62472l32.96472,-116.31173l22.45717,7.77137l-32.9647,116.31172c0,0 -5.00928,16.13547 -7.20523,17.49391c-2.11303,1.30714 -1.3566,-12.19421 -4.26669,-10.5556c-1.65111,0.92969 -3.07577,5.26743 -4.67763,6.07464c-3.91429,1.97248 -7.60809,-0.09623 -8.95159,-0.56114c-3.59636,-1.24452 2.64397,-20.22316 2.64397,-20.22316z" fill="#0077ff" stroke="#000000" stroke-width="2" stroke-linecap="butt"/><path d="M144.10209,244.41557c6.53442,-11.4682 9.94889,-28.50053 13.65595,-41.24688c1.59445,-5.48235 2.91227,-10.57585 4.77278,-16.84012c0.21842,-0.73542 0.72268,-1.42406 1.20243,-2.11c0.44734,-2.72793 0.61793,-5.8566 2.22383,-7.5697c1.78326,-8.49509 3.0037,-14.55189 6.69095,-26.88468c1.58553,-5.30309 1.82763,-16.64754 8.85482,-15.7602c3.19588,0.40355 5.3237,5.20278 4.75528,7.88535c-2.6848,12.67049 -6.25845,21.54652 -10.00957,35.31749c-1.05422,3.87021 2.64069,6.13032 2.06669,10.31678c-1.20545,8.7919 -3.8716,17.16047 -6.37386,25.68987c-3.50568,11.94965 -12.63114,22.79314 -16.5047,34.79358c-0.02303,0.10158 -0.04886,0.20296 -0.07751,0.30407c-0.05627,0.19859 -0.12207,0.39113 -0.19673,0.57728c-0.2211,0.73841 -0.42151,1.48139 -0.59873,2.22941c-1.27695,5.38983 -4.70706,22.21837 -11.44705,19.44904c-8.08797,-3.32317 -2.19789,-11.56591 -0.81376,-16.33504c0.06517,-0.22457 1.46675,-8.73682 1.50154,-8.76623z" fill="#002ccd" stroke="none" stroke-width="0.5" stroke-linecap="butt"/><path d="M144.78445,271.61884l-3.35684,-1.16165l-1.59144,-1.32123l-0.52236,-2.49223l0.8782,-4.83271l36.83998,-128.25105l20.58868,7.12476" fill="none" stroke="#000000" stroke-width="2" stroke-linecap="round"/></g><g><path d="M173.05028,136.68618c0,0 3.30839,-3.54346 3.08367,-8.20386c-0.53267,-11.04677 -4.44316,-30.93047 -3.88292,-36.86899c1.36216,-14.4388 5.3974,-34.79232 5.3974,-34.79232c0,0 7.02692,-14.71365 15.20355,-22.32542c8.95004,-8.33177 19.4248,-9.62683 27.15176,-9.62683c5.44482,0 20.72062,3.23336 28.31672,9.04474c12.1687,9.30966 16.26782,22.9075 16.26782,22.9075c0,0 7.29106,20.82903 7.29106,36.05558c0,6.73368 -2.05485,25.70032 -3.10725,35.28858c-0.48507,4.41937 6.90048,7.80885 6.90048,7.80885z" fill="#0077ff" stroke="#000000" stroke-width="2" stroke-linecap="butt"/><path d="M185.36769,81.60908c0,-1.33806 1.0847,-2.42276 2.42276,-2.42276c1.33806,0 2.42276,1.0847 2.42276,2.42276c0,1.33806 -1.0847,2.42276 -2.42276,2.42276c-1.33806,0 -2.42276,-1.0847 -2.42276,-2.42276z" fill="#000000" stroke="none" stroke-width="0.5" stroke-linecap="butt"/><path d="M182.65872,93.60591c0,-1.33806 1.0847,-2.42276 2.42276,-2.42276c1.33806,0 2.42276,1.0847 2.42276,2.42276c0,1.33806 -1.0847,2.42276 -2.42276,2.42276c-1.33806,0 -2.42276,-1.0847 -2.42276,-2.42276z" fill="#000000" stroke="none" stroke-width="0.5" stroke-linecap="butt"/><path d="M193.88157,88.57498c0,-1.33806 1.0847,-2.42276 2.42276,-2.42276c1.33806,0 2.42276,1.0847 2.42276,2.42276c0,1.33806 -1.0847,2.42276 -2.42276,2.42276c-1.33806,0 -2.42276,-1.0847 -2.42276,-2.42276z" fill="#000000" stroke="none" stroke-width="0.5" stroke-linecap="butt"/><path d="M250.38276,79.28711c0,-1.33806 1.08472,-2.42276 2.42276,-2.42276c1.33804,0 2.42276,1.0847 2.42276,2.42276c0,1.33806 -1.08472,2.42276 -2.42276,2.42276c-1.33804,0 -2.42276,-1.0847 -2.42276,-2.42276z" fill="#000000" stroke="none" stroke-width="0.5" stroke-linecap="butt"/><path d="M241.09489,88.96197c0,-1.33806 1.0847,-2.42276 2.42276,-2.42276c1.33806,0 2.42276,1.0847 2.42276,2.42276c0,1.33806 -1.0847,2.42276 -2.42276,2.42276c-1.33806,0 -2.42276,-1.0847 -2.42276,-2.42276z" fill="#000000" stroke="none" stroke-width="0.5" stroke-linecap="butt"/><path d="M255.02669,89.73596c0,-1.33806 1.08472,-2.42276 2.42276,-2.42276c1.33804,0 2.42276,1.0847 2.42276,2.42276c0,1.33806 -1.08472,2.42276 -2.42276,2.42276c-1.33804,0 -2.42276,-1.0847 -2.42276,-2.42276z" fill="#000000" stroke="none" stroke-width="0.5" stroke-linecap="butt"/><path d="M236.55176,100.6894c-2.82655,0 -2.82655,-2.82655 -2.82655,-2.82655v-0.387c0,-3.8163 1.0621,-8.86006 -2.39026,-10.08407c-0.8526,1.82986 -2.51204,3.29747 -4.91899,3.8992h-8.87679c-1.48454,0.9897 -4.04321,-1.75506 -4.73528,-2.16798c-0.56287,-0.33583 -0.99566,-0.85901 -1.30511,-1.49919c-1.51406,1.112 -1.53206,3.01401 -1.53206,6.36909v2.32197c0,0 0,2.82655 -2.82655,2.82655c-2.82655,0 -2.82655,-2.82655 -2.82655,-2.82655v-2.32197c0,-1.07362 -0.05307,-6.68192 0.21516,-7.27359c1.33563,-2.94611 4.05344,-4.41559 6.93929,-5.22368c0.60831,-1.6421 1.69423,-2.98741 3.19345,-3.36221c3.19848,-0.79962 12.62753,-2.06858 14.86887,0.28437c0.98889,1.03812 1.67451,2.20915 2.06858,3.41391c3.03528,0.6247 6.11787,2.1492 7.51247,5.15739c1.09126,2.3539 0.26686,7.82568 0.26686,10.48676v0.387c0,0 0,2.82655 -2.82655,2.82655z" fill="#000000" stroke="none" stroke-width="0.5" stroke-linecap="butt"/><path d="M247.87035,116.86198c0.51296,4.15973 2.03353,14.63486 -4.63444,15.559c-1.76784,0.24501 -2.90145,-2.09662 -4.19903,-3.322c-2.6834,-2.53412 -3.11781,-5.43987 -5.4116,-8.11984c-10.38,1.73809 -21.46491,-1.27687 -31.68339,-3.31687c0,0 -2.77167,-0.55434 -2.21734,-3.32599c0.55434,-2.77165 3.32599,-2.21732 3.32599,-2.21732c12.21666,2.4476 27.00727,7.31841 38.58203,-0.01224l1.78197,-0.90522c0,0 2.52815,-1.26407 3.79221,1.26407c0.82664,1.65329 0.03153,2.76597 -0.61774,3.33809zM242.32186,123.52311c0.01137,-1.76407 0.15633,-3.55233 0.00459,-5.33801c-0.04965,0.02486 -0.09935,0.04952 -0.14906,0.07406l-0.09647,0.80382c0,0 -0.33106,-0.13243 -0.711,-0.4208c-0.60259,0.27461 -1.20925,0.5263 -1.81962,0.7564c0.97447,1.31207 1.96127,2.75201 2.77157,4.12455z" fill="#000000" stroke="none" stroke-width="0.5" stroke-linecap="butt"/><path d="M243.82295,129.25973l-6.99219,-9.10572l7.90378,-3.01837l-0.47943,12.38238z" fill="#ffffff" stroke="none" stroke-width="0" stroke-linecap="butt"/><path d="M212.30858,62.02309c0,6.15527 -3.9818,11.14514 -8.89359,11.14514c-4.91179,0 -8.89357,-4.98985 -8.89357,-11.14514c0,-6.15527 3.98179,-11.14512 8.89357,-11.14512c4.91179,0 8.89359,4.98983 8.89359,11.14512z" fill="#000000" stroke="none" stroke-width="0" stroke-linecap="butt"/><path d="M204.94499,62.65827c-1.52989,0.51787 -2.04778,-1.01203 -2.04778,-1.01203l0.09909,0.14233c-0.23367,-0.36463 -0.53973,-0.72634 -0.85966,-1.08535c-4.93075,1.30969 -8.235,0.23283 -10.52829,-3.50922c-0.56875,-0.63486 -0.95042,-1.34765 -1.0424,-2.04093c-0.2555,-0.59569 -0.49584,-1.23649 -0.72234,-1.92302l0.07278,-0.22779l-0.09916,0.00476l-0.07709,-1.60159c-0.05076,-0.71528 0.38276,-1.40255 1.09371,-1.64321c0.79413,-0.26881 1.65174,0.11527 1.98947,0.86391l0.85473,1.82955l-0.05926,0.02768c0.05442,0.07909 0.10688,0.15968 0.15711,0.24194c0.33977,0.55633 0.12881,1.59563 0.30349,2.39984c0.16623,0.30979 0.33717,0.59285 0.51414,0.85024c0.14151,0.09762 0.31716,0.17168 0.53543,0.21569c0.63483,0.12799 1.9201,-0.11802 3.12158,-0.37929c0.02862,-0.01153 0.05773,-0.02231 0.08732,-0.03234c0.14558,-0.04928 0.29327,-0.07661 0.4395,-0.0838c0.79442,-0.17657 1.49852,-0.33534 1.87672,-0.36125l0.12222,0.73424c1.07469,-0.00972 1.89456,0.33113 2.68416,1.04931c0.44375,0.0652 0.94756,0.32092 1.20372,1.07769c0.05319,0.15711 0.08476,0.30356 0.09864,0.43986c0.30094,0.41592 0.61419,0.88418 0.95071,1.40609l0.24347,0.56886c0,0 0.51787,1.52989 -1.01203,2.04776z" fill="#000000" stroke="none" stroke-width="0.5" stroke-linecap="butt"/><path d="M238.67747,50.17282c4.91179,0 8.89357,4.98985 8.89357,11.14512c0,6.15527 -3.98179,11.14512 -8.89357,11.14512c-4.91179,0 -8.89359,-4.98985 -8.89359,-11.14512c0,-6.15527 3.9818,-11.14512 8.89359,-11.14512z" fill="#000000" stroke="none" stroke-width="0" stroke-linecap="butt"/><path d="M236.13543,59.90536l0.24347,-0.56886c0.33654,-0.52193 0.64978,-0.99018 0.95072,-1.40609c0.01387,-0.1363 0.04545,-0.28275 0.09864,-0.43986c0.25617,-0.75677 0.75995,-1.01249 1.20371,-1.07769c0.78961,-0.71819 1.60949,-1.05905 2.68416,-1.04931l0.12224,-0.73424c0.37819,0.02591 1.08228,0.18469 1.87672,0.36125c0.14624,0.00719 0.29393,0.03452 0.4395,0.08378c0.02959,0.01001 0.0587,0.0208 0.08732,0.03234c1.20146,0.26127 2.48673,0.50726 3.12158,0.37929c0.21827,-0.044 0.39394,-0.11805 0.53543,-0.21567c0.17696,-0.25739 0.34789,-0.54047 0.51414,-0.85024c0.17466,-0.80421 -0.03629,-1.84351 0.30349,-2.39984c0.05025,-0.08226 0.10269,-0.16284 0.15711,-0.24194l-0.05926,-0.02768l0.85473,-1.82955c0.33773,-0.74863 1.19534,-1.1327 1.98947,-0.86391c0.71097,0.24066 1.14449,0.92793 1.09373,1.64321l-0.07709,1.60157l-0.09916,-0.00476l0.0728,0.22779c-0.22651,0.68653 -0.46685,1.32733 -0.72235,1.92302c-0.09198,0.6933 -0.47365,1.40609 -1.0424,2.04093c-2.29329,3.74203 -5.59754,4.8189 -10.52829,3.5092c-0.31993,0.35899 -0.62599,0.72071 -0.85966,1.08535l0.09909,-0.14231c0,0 -0.51787,1.52989 -2.04778,1.01203c-1.52989,-0.51787 -1.01203,-2.04776 -1.01203,-2.04776z" fill="#000000" stroke="none" stroke-width="0.5" stroke-linecap="butt"/><path d="M227.11226,25.51247l29.09879,-24.66632l0.13075,0.29034l1.03596,43.0108c0,0 -8.27477,-11.47386 -13.69008,-13.52616c-5.96993,-2.2625 -16.57541,-5.10866 -16.57541,-5.10866z" fill="#0046ff" stroke="#000000" stroke-width="2" stroke-linecap="butt"/><path d="M256.71608,12.87957c-0.13855,0.548 -0.23321,1.07008 -0.23824,1.52346c-0.02313,2.08851 1.10928,3.15753 0.86799,5.50153c-2.55136,6.7687 -8.6197,1.16357 -11.89341,-1.82343c-0.98114,-0.89523 -2.78234,-1.22033 -3.16587,-2.7522c-0.2495,-0.99658 0.17596,-2.11405 0.68931,-3.00394c1.15026,-1.99399 4.70945,-2.51112 6.53977,-3.57701c1.6341,-0.95163 2.87895,-3.58783 4.10624,-5.06058c0,0 1.03402,-1.24081 2.27482,-0.20679c0.22096,0.18413 0.36976,0.3748 0.46514,0.56386c-0.10862,2.90133 0.18565,5.89278 0.50311,8.33808c-0.04521,0.16468 -0.09517,0.33066 -0.14884,0.49702z" fill="#002ccd" stroke="none" stroke-width="0.5" stroke-linecap="butt"/><path d="M256.88906,6.52264l-0.45031,17.78716l0.67546,-21.16447v21.83995" fill="none" stroke="#000000" stroke-width="1.5" stroke-linecap="round"/><path d="M235.49944,19.13125l20.48902,-17.78716" fill="none" stroke="#000000" stroke-width="1.5" stroke-linecap="round"/><path d="M192.58552,115.49795c0.54346,2.17384 -0.1976,3.23992 -0.28931,5.43365c-0.0445,1.0643 3.01233,2.87168 3.2573,4.40104c1.26327,7.88659 -6.91298,7.90777 -11.94095,6.27173c-3.56281,-1.15931 -5.56346,-5.54445 -5.06146,-8.92878c0.28262,-1.90543 0.23992,-4.20641 0.37979,-6.51709c-0.09688,-0.43007 -0.148,-0.87744 -0.148,-1.33676c0,-1.06018 0.27238,-2.05673 0.75099,-2.92349c0.71405,-2.72911 2.21929,-5.09165 5.52419,-6.32157c4.93097,-1.83506 11.9262,5.25598 7.3604,9.16951z" fill="#002ccd" stroke="none" stroke-width="0.5" stroke-linecap="butt"/><path d="M252.31465,96.67791c1.67757,-0.4194 3.66657,1.35905 4.86141,1.14769c1.97552,-0.34946 2.51232,-2.92735 4.89155,-2.79518c11.70502,0.65027 5.65712,22.15383 0.80093,26.77966c-2.03642,1.93984 -6.65709,4.76128 -9.36538,1.91811c-1.80198,-1.89172 -3.23194,-3.98644 -3.34646,-6.65494c-0.0976,-2.27419 1.94798,-5.50723 0.09418,-6.82819c-0.25917,0.03384 -0.52351,0.05131 -0.79192,0.05131c-0.23087,0 -0.45872,-0.01292 -0.68288,-0.03807c-3.02365,-0.33927 -5.37402,-2.90456 -5.37402,-6.01882c0,-1.21913 0.36018,-2.35415 0.97996,-3.30442c0.22546,-0.50011 0.53641,-0.92213 1.01539,-1.18894c0.70628,-0.6388 1.56387,-1.11343 2.51258,-1.36366c1.40155,-0.71615 2.76312,-1.29417 4.40465,-1.70456z" fill="#002ccd" stroke="none" stroke-width="0.5" stroke-linecap="butt"/><path d="M195.3135,46.15663c-2.31855,0.12881 -4.10401,-6.49616 -2.60706,-8.56962c5.01987,-6.95325 22.17206,-15.02972 28.62205,-6.52948c2.01911,2.66093 0.87555,6.49493 -1.12216,8.83378c-3.07004,3.59429 -8.57364,2.23317 -10.78323,3.57559c-5.33813,3.2431 -4.92863,7.20155 -11.82459,3.26098z" fill="#002ccd" stroke="none" stroke-width="0.5" stroke-linecap="butt"/><path d="M241.3687,32.87156c2.11216,-13.01268 20.6924,9.15567 12.47811,11.34955c-2.05246,0.54817 -3.59439,0.13186 -4.8757,-1.62523c-0.77649,-1.06482 -0.98232,-4.0592 -2.09494,-3.35294c-0.05973,0.03791 -0.11767,0.07703 -0.17407,0.11715c-0.5835,1.22716 -1.83461,2.0755 -3.28385,2.0755c-2.00708,0 -3.63414,-1.62706 -3.63414,-3.63414c0,-0.70144 0.19873,-1.35649 0.54296,-1.91186c0.38958,-0.97033 0.86208,-1.91172 1.04164,-3.01801z" fill="#0077ff" stroke="none" stroke-width="0.5" stroke-linecap="butt"/><path d="M255.31708,31.20371c-0.38525,6.93435 -15.91298,-3.39884 -16.56036,-4.53174c-1.07112,-0.63216 -1.78969,-1.79815 -1.78969,-3.13196c0,-2.00708 1.62706,-3.63414 3.63414,-3.63414c0.90044,0 1.72441,0.32749 2.35928,0.86985c5.65984,0.48841 12.60336,5.98709 12.35665,10.42798z" fill="#0046ff" stroke="none" stroke-width="0.5" stroke-linecap="butt"/></g></g></g></g></svg>