<svg version="1.1" xmlns="http://www.w3.org/2000/svg" xmlns:xlink="http://www.w3.org/1999/xlink" width="241.27974" height="378.21992" viewBox="0,0,241.27974,378.21992"><g transform="translate(-72.78478,23.10669)"><g data-paper-data="{&quot;isPaintingLayer&quot;:true}" fill-rule="nonzero" stroke-linejoin="miter" stroke-miterlimit="10" stroke-dasharray="" stroke-dashoffset="0" style="mix-blend-mode: normal"><path d="M76.03478,71.94406v-91.80075h92.74714v91.80075l0.07361,20.10873l-24.77163,-20.10873z" fill="#2e2e2e" stroke="#161616" stroke-width="6.5" stroke-linecap="butt"/><path d="M214.649,201.36359v-87.96104h59.9932v87.96104z" fill="#2f2f2f" stroke="#1b1b1b" stroke-width="2.5" stroke-linecap="butt"/><path d="M180.6719,116.91861v-72.88675h132.39262v72.88675z" fill="#575757" stroke="#383838" stroke-width="2" stroke-linecap="butt"/><path d="M309.13104,81.04586c0,14.88599 -12.16479,26.95347 -27.17083,26.95347c-15.00604,0 -27.17083,-12.06748 -27.17083,-26.95347c0,-14.88599 12.16479,-26.95347 27.17083,-26.95347c15.00604,0 27.17083,12.06748 27.17083,26.95347z" fill="#2b2b2b" stroke="none" stroke-width="0" stroke-linecap="butt"/><path d="M299.78427,82.66705c0,9.2037 -7.78547,16.66478 -17.38933,16.66478c-9.60386,0 -17.38933,-7.46107 -17.38933,-16.66478c0,-9.2037 7.78547,-16.66478 17.38933,-16.66478c9.60386,0 17.38933,7.46107 17.38933,16.66478z" fill="#ffffff" stroke="#000000" stroke-width="2" stroke-linecap="butt"/><path d="M286.55286,84.27768c0,1.70787 9.23662,3.72346 8.48949,5.15105c-1.80487,3.44868 -5.51431,5.81412 -9.79727,5.81412c-6.05589,0 -10.96516,-4.72911 -10.96516,-10.56277c0,-5.83366 4.90927,-10.56277 10.96516,-10.56277c4.69696,0 8.70416,2.84483 10.26606,6.84338c0.4519,1.15687 -8.95829,2.00793 -8.95829,3.317z" fill="#000000" stroke="none" stroke-width="0" stroke-linecap="butt"/><path d="M266.45472,72.95801c0,0 3.29151,-3.93508 5.67601,-5.64042c2.61736,-1.87187 8.8151,-3.63389 8.8151,-3.63389h0.86947c0,0 5.63394,0.56973 7.83782,1.99061c1.10048,0.7095 2.4857,1.60146 3.783,2.74824c2.13371,1.88613 4.02958,4.03415 4.02958,4.03415z" fill="#2b2b2b" stroke="#000000" stroke-width="1.5" stroke-linecap="butt"/><path d="M302.10285,58.3201c0,2.24694 -2.01125,4.06845 -4.49224,4.06845c-2.481,0 -4.49224,-1.82151 -4.49224,-4.06845c0,-2.24694 2.01125,-4.06845 4.49224,-4.06845c2.481,0 4.49224,1.82151 4.49224,4.06845z" fill="#ffa221" stroke="#bb7718" stroke-width="1" stroke-linecap="butt"/><path d="M194.65127,44.27996v-3.47787h25.64927v3.47787z" fill="#343434" stroke="#252525" stroke-width="2" stroke-linecap="butt"/><path d="M225.80716,102.53422l25.64927,-0.28982" fill="none" stroke="#000000" stroke-width="2.5" stroke-linecap="round"/><path d="M245.05383,174.41013l-10.18089,-28.54749c0,0 -7.90649,-3.25295 -7.90649,-5.36171c0,-2.46284 4.71845,-4.57845 4.71845,-7.24556c0,-8.24968 0,-16.23004 0,-16.23004h28.46796c0,0 0,11.6428 0,18.83844c0,1.16867 5.50485,2.91345 5.50485,4.34733c0,2.61771 -8.40308,5.79644 -8.40308,5.79644l-11.25712,28.40258z" fill="#d0d0d0" stroke="none" stroke-width="0" stroke-linecap="butt"/><path d="M246.38453,163.59659l-4.21612,-19.26353l0.15861,-27.45264h8.40484l-0.46535,26.95386l-3.73707,20.43207z" fill="#262626" stroke="none" stroke-width="0" stroke-linecap="butt"/><path d="M214.21427,212.81157v-14.20129h61.15249v14.20129z" fill="#222222" stroke="#1b1b1b" stroke-width="2.5" stroke-linecap="butt"/><path d="M214.21427,343.43082v-130.93723h21.01211v130.93723z" fill="#222222" stroke="#1b1b1b" stroke-width="2.5" stroke-linecap="butt"/><path d="M215.44601,218.27618v-15.61311h19.12827v15.61311z" fill="#222222" stroke="none" stroke-width="0" stroke-linecap="butt"/><path d="M209.4322,352.55904v-14.3462h30.43133v14.3462z" fill="#151515" stroke="#131313" stroke-width="2.5" stroke-linecap="butt"/><path d="M254.20973,344.73502v-130.93724h21.01211v130.93724z" fill="#222222" stroke="#1b1b1b" stroke-width="2.5" stroke-linecap="butt"/><path d="M255.44148,219.58038v-15.61311h19.12827v15.61311z" fill="#222222" stroke="none" stroke-width="0" stroke-linecap="butt"/><path d="M249.42767,353.86323v-14.3462h30.43133v14.3462z" fill="#151515" stroke="#131313" stroke-width="2.5" stroke-linecap="butt"/><g stroke-linecap="butt"><path d="M219.8658,274.00816c0,4.75159 3.83659,21.26113 -3.43785,21.77333c-1.23835,0.08719 -1.25084,-12.70693 -2.60274,-11.14206c-2.60169,3.01154 0.65837,12.01837 -9.39245,12.62696c-17.64192,1.06824 -15.43303,-10.41307 -15.43303,-23.25823c0,-12.84517 6.9096,-23.25823 15.43303,-23.25823c8.52343,0 15.43303,10.41307 15.43303,23.25823z" fill="#575757" stroke="#383838" stroke-width="2"/><path d="M191.60814,256.04823v-117.34058c0,0 4.08838,-11.97304 7.67016,-15.3541c3.92258,-3.70277 17.54438,-5.98524 17.54438,-5.98524h0.43473v138.67992z" fill="#2f2f2f" stroke="#1b1b1b" stroke-width="2.5"/><path d="M186.39134,263.00397v-12.17253h35.2134v12.17253z" fill="#d0d0d0" stroke="#9c9c9c" stroke-width="2"/></g><g stroke-linecap="butt"><path d="M302.0304,278.79023c0,4.75159 3.83659,21.26113 -3.43784,21.77333c-1.23835,0.08719 -1.25084,-12.70692 -2.60274,-11.14206c-2.6017,3.01154 0.65837,12.01837 -9.39245,12.62696c-17.64192,1.06824 -15.43303,-10.41307 -15.43303,-23.25823c0,-12.84517 6.9096,-23.25823 15.43303,-23.25823c8.52343,0 15.43303,10.41307 15.43303,23.25823z" fill="#575757" stroke="#383838" stroke-width="2"/><path d="M272.46853,260.83031l2.6084,-129.11579l-0.43473,-15.21567c0,0 23.4756,16.22006 23.4756,25.68667c0,23.03683 0,118.64478 0,118.64478z" fill="#2f2f2f" stroke="#1b1b1b" stroke-width="2.5"/><path d="M268.55593,267.78604v-12.17253h35.2134v12.17253z" fill="#d0d0d0" stroke="#9c9c9c" stroke-width="2"/></g><text transform="translate(80.75,-7.81235) scale(0.30175,0.30175)" font-size="40" xml:space="preserve" fill="#ffffff" fill-rule="nonzero" stroke="none" stroke-width="1" stroke-linecap="butt" stroke-linejoin="miter" stroke-miterlimit="10" stroke-dasharray="" stroke-dashoffset="0" font-family="Sans Serif" font-weight="normal" text-anchor="start" style="mix-blend-mode: normal"><tspan x="0" dy="0">Let's take a</tspan><tspan x="0" dy="46.150000000000006px">shoot!</tspan></text><g fill="#1d1d1d" stroke="none" stroke-width="0" stroke-linecap="butt"><path d="M249.16254,181.10102c0,1.96865 -1.63137,3.56456 -3.64377,3.56456c-2.01239,0 -3.64377,-1.59591 -3.64377,-3.56456c0,-1.96865 1.63137,-3.56455 3.64377,-3.56455c2.01239,0 3.64377,1.5959 3.64377,3.56455z"/><path d="M249.28008,192.38495c0,1.96865 -1.63137,3.56456 -3.64377,3.56456c-2.01239,0 -3.64377,-1.59591 -3.64377,-3.56456c0,-1.96865 1.63138,-3.56455 3.64377,-3.56455c2.01239,0 3.64377,1.5959 3.64377,3.56455z"/></g></g></g></svg>