<svg version="1.1" xmlns="http://www.w3.org/2000/svg" xmlns:xlink="http://www.w3.org/1999/xlink" width="163.43756" height="226.43602" viewBox="0,0,163.43756,226.43602"><g transform="translate(-224.676,-93.75689)"><g stroke-miterlimit="10"><path d="M343.86894,313.93394c0.61531,4 -8.06732,5.96044 -11.81745,3.52107c-4.13714,-2.6911 -4.89684,-13.80678 -4.89684,-13.80678c0,0 -0.57143,-16.98858 -0.57143,-26.28571c0,-10.50689 0.57143,-33.57143 0.57143,-33.57143h12.85715c0,0 -0.71428,24.31403 -0.71428,35c0,8.96127 0.71428,24.85715 0.71428,24.85715c0,0 3.51532,8.06358 3.85714,10.28571z" fill="#ffb8c1" stroke="#d17b86" stroke-width="2" stroke-linecap="butt"/><path d="M306.32858,304.31489c0,0 0.71429,-15.89588 0.71429,-24.85714c0,-10.68597 -0.71429,-35 -0.71429,-35h12.85714c0,0 0.57143,23.06454 0.57143,33.57143c0,9.29714 -0.57143,26.28571 -0.57143,26.28571c0,0 -0.75971,11.11568 -4.89684,13.80679c-3.75013,2.43937 -12.43276,0.47893 -11.81745,-3.52107c0.34182,-2.22213 3.85714,-10.28571 3.85714,-10.28571z" fill="#ffb8c1" stroke="#d17b86" stroke-width="2" stroke-linecap="butt"/><path d="M350.67307,152.98735c-3.88733,6.67598 -19.74393,54.96149 -29.80586,72.28899c-8.04425,13.85287 -11.06079,-1.93301 -11.06079,-1.93301c0,0 -13.72987,23.01611 -19.36924,23.27883c-6.72544,0.31332 -6.22509,-22.08354 -16.15704,-21.57737c-9.49133,0.4837 -15.65644,-1.06376 -21.50441,-3.19542c-9.13273,-3.32899 6.56528,-17.89665 -2.40833,-19.94861c-9.1456,-2.09129 -21.45586,8.3568 -24.46346,6.67807c-4.47432,-2.49741 13.13989,-24.73265 13.13989,-24.73265c0,0 -12.92567,7.79385 -4.73605,-4.18886c9.59475,-14.03866 40.93957,-48.88724 47.521,-60.18998c12.19902,-20.95022 40.69712,-27.09807 56.35093,-17.98308c15.65381,9.115 24.69238,30.55288 12.49336,51.5031z" fill="#ff8acf" stroke="#a94f88" stroke-width="1" stroke-linecap="butt"/><path d="M322.70916,178.16946c-21.50574,0 -38.93959,-17.18655 -38.93959,-38.38725c0,-21.20069 17.43385,-38.38725 38.93959,-38.38725c4.39623,0 8.6223,0.7182 12.56408,2.04206c-0.50139,0.71702 -0.87045,1.48569 -1.07342,2.29755c-0.93111,3.72445 -1.33122,5.90393 -1.05573,9.82484c0.08946,1.27327 0.37268,3.78526 1.25,5c0.42333,0.58615 1.38555,1.05835 1.25464,1.76943c-1.15482,6.27299 0.96719,10.58893 5.41501,14.6324c1.69509,1.54099 5.2,0.93505 7.43304,1.4933h1.43273c3.64682,2.32071 7.73008,3.85068 11.64838,3.66242c-1.22406,20.1135 -18.15824,36.0525 -38.86874,36.0525z" fill="#ffbb66" stroke="#c18d4d" stroke-width="2" stroke-linecap="butt"/><path d="M294.82559,142.30271c0.97828,0.65219 1.88584,1.76122 1.95656,2.93484c0.07377,1.22425 -0.74309,3.53691 -0.72503,4.82802c0.02167,1.55021 1.52528,2.48566 1.31824,5.09032c-0.15455,1.9443 -4.41055,2.14287 -5.72436,1.35661c-2.79951,-1.67539 -3.26162,-4.04608 -3.84282,-6.95207c-0.53607,-0.61494 -0.86073,-1.41897 -0.86073,-2.29883c0,-1.74685 1.27973,-3.19479 2.9528,-3.45747c1.52774,-1.46544 3.34255,-2.55661 4.92535,-1.50141z" fill="#a97b43" stroke="none" stroke-width="0.5" stroke-linecap="butt"/><path d="M315.96011,148.25137c0,4.94201 -3.96937,8.9483 -8.86583,8.9483c-4.89646,0 -8.86582,-4.00629 -8.86582,-8.9483c0,-4.94201 3.96936,-8.9483 8.86582,-8.9483c4.89646,0 8.86583,4.00628 8.86583,8.9483z" fill="#ff77cd" stroke="#a94f88" stroke-width="1" stroke-linecap="butt"/><path d="M318.20437,142.35053c0,8.36832 -5.2813,7.86589 -11.59184,7.86589c-6.31054,0 -11.26064,0.50243 -11.26064,-7.86589c0,-8.36832 5.11571,-15.15219 11.42624,-15.15219c6.31054,0 11.42624,6.78386 11.42624,15.15219z" fill="#ffffff" stroke="#000000" stroke-width="1" stroke-linecap="butt"/><path d="M300.63638,150.20532l-3.11463,3.11463" fill="none" stroke="#000000" stroke-width="1" stroke-linecap="round"/><path d="M305.12512,150.38855l-2.93142,3.29784" fill="none" stroke="#000000" stroke-width="1" stroke-linecap="round"/><path d="M295.74626,138.35895l-4.144,2.16516" fill="none" stroke="#000000" stroke-width="1" stroke-linecap="round"/><path d="M296.17427,136.05833l-4.26716,2.27766" fill="none" stroke="#000000" stroke-width="1" stroke-linecap="round"/><path d="M313.3499,135.81947c0,3.9505 -2.76308,7.15301 -6.1715,7.15301c-3.40843,0 -6.1715,-3.20251 -6.1715,-7.15301c0,-3.9505 2.76307,-7.15301 6.1715,-7.15301c3.40843,0 6.1715,3.20251 6.1715,7.15301z" fill="#000000" stroke="#000000" stroke-width="1" stroke-linecap="butt"/><path d="M308.59963,130.83739c0.12987,-0.25055 0.21652,-0.74596 0.55198,-0.88662c2.32098,-0.97324 0.43371,5.57638 -1.14054,2.64148c-0.18303,-0.11454 -0.32835,-0.31181 -0.39185,-0.56369c-0.1257,-0.49862 0.11681,-1.02241 0.54167,-1.16994c0.14598,-0.05069 0.29451,-0.05036 0.43168,-0.00786c0.00238,-0.00443 0.00473,-0.00888 0.00705,-0.01337z" fill="#ffffff" stroke="none" stroke-width="0.5" stroke-linecap="butt"/><path d="M330.05685,157.04546c0,0 -5.74354,2.69525 -7.73589,2.7392c-2.08392,0.04597 -6.57544,-1.11904 -6.57544,-1.11904" fill="none" stroke="#000000" stroke-width="1" stroke-linecap="round"/><path d="M294.02884,160.59543c0,-2.33068 1.88939,-4.22007 4.22006,-4.22007c2.33068,0 4.22007,1.88939 4.22007,4.22007c0,2.33068 -1.88939,4.22007 -4.22007,4.22007c-2.33068,0 -4.22006,-1.88939 -4.22006,-4.22007z" fill="#fea8ff" stroke="none" stroke-width="0.5" stroke-linecap="butt"/><path d="M343.76301,158.39476c0,-2.33068 1.88939,-4.22007 4.22006,-4.22007c2.33068,0 4.22007,1.88939 4.22007,4.22007c0,2.33068 -1.88939,4.22007 -4.22007,4.22007c-2.33068,0 -4.22006,-1.88939 -4.22006,-4.22007z" fill="#fea8ff" stroke="none" stroke-width="0.5" stroke-linecap="butt"/><path d="M359.69178,115.72362c-2.63436,4.5317 -12.80751,6.47557 -20.93653,1.75003c-8.12902,-4.72554 -11.13561,-14.33104 -8.50126,-18.86274c2.63436,-4.5317 7.62254,2.05439 15.75156,6.77994c8.12902,4.72555 16.32059,5.80107 13.68623,10.33277z" fill="#ff8acf" stroke="#a94f88" stroke-width="1" stroke-linecap="butt"/><path d="M277.61742,117.03857c-4.24525,-4.97316 8.43698,-13.97196 17.10375,-18.84568c8.83303,-4.96721 31.94556,-5.37737 36.19081,-0.40421c4.24525,4.97316 -19.72745,11.30814 -29.70395,14.9358c-9.34454,3.39787 -19.34536,9.28724 -23.59061,4.31408z" fill="#ff8acf" stroke="#a94f88" stroke-width="1" stroke-linecap="butt"/><path d="M330.40889,117.40846c3.82355,3.27733 2.52713,6.83856 0.81841,10.83072c-0.61077,1.42698 -0.96339,5.02888 -3.50882,4.51979c-3.20506,-0.64101 -5.01828,-4.86168 -5.28724,-8.79122c-0.29461,-0.51278 -0.46308,-1.10725 -0.46308,-1.74106c0,-0.83346 0.29132,-1.59887 0.77769,-2.19997c0.21082,-0.79 0.51778,-1.4789 0.92317,-2.00964c1.50781,-1.97404 4.65868,-3.80281 6.38155,-0.78779z" fill="#a97b43" stroke="none" stroke-width="0.5" stroke-linecap="butt"/><path d="M340.64061,169.65797c-1.90915,2.71544 -8.7746,4.32936 -11.21566,1.78216c-1.6877,-1.76108 0.6447,-3.63981 1.01038,-4.89556c1.75158,-6.01502 10.77363,-11.52485 11.45225,-2.70272c0.16737,0.29979 0.29194,0.62672 0.36543,0.97254c0.97179,1.08613 -0.96161,3.91795 -1.61239,4.84358z" fill="#a97b43" stroke="none" stroke-width="0.5" stroke-linecap="butt"/><path d="M352.91403,147.12595c-0.81985,3.2794 -0.79737,4.5976 -4.39839,5.98765c-2.08322,0.80416 -5.77242,-0.72794 -5.45067,-3.17974c0.32688,-2.49089 4.12898,-8.70389 6.45355,-8.70389c3.17487,0 3.96758,3.17678 3.3955,5.46511z" fill="#a97b43" stroke="none" stroke-width="0.5" stroke-linecap="butt"/><path d="M317.02943,182.70426v-4.50066h8.29808v4.50066z" fill="#ffbb66" stroke="#c18d4d" stroke-width="2" stroke-linecap="butt"/><path d="M286.3687,259.35605c0,0 18.67425,-26.94657 20.97451,-39.48062c1.03198,-5.62324 0.4385,-14.26333 1.17544,-20.67544c0.90131,-7.84233 2.32237,-15.51122 2.32237,-15.51122c0,0 6.80342,-0.1402 10.12099,-0.22212c4.10735,-0.10142 12.66358,-0.34046 12.66358,-0.34046c0,0 1.4933,5.70702 2.38222,13.87604c0.84236,7.74113 0.21205,18.07483 1.13573,24.03255c1.85093,11.93852 15.89113,36.91481 15.89113,36.91481c0,0 3.22184,5.98075 -38.97646,5.77337c-18.07712,-0.08884 -27.6895,-4.36691 -27.6895,-4.36691z" fill="#ff6478" stroke="#d24457" stroke-width="2" stroke-linecap="butt"/><g stroke-width="2" stroke-linecap="butt"><path d="M277.95698,140.28588l31.92882,44.36476l-2.45228,10.45509l-35.81704,-48.37186z" fill="#ffbb66" stroke="#c18d4d"/><path d="M278.45482,135.64398l5.545,6.83323l-11.95816,9.70373l-5.545,-6.83323z" fill="#ffb8c1" stroke="#d17b86"/><path d="M257.34605,129.88936c0,0 2.56546,-3.49159 4.12006,-3.9738c1.39254,-0.43194 4.775,1.21472 4.775,1.21472c0,0 0.40217,-6.46125 1.80286,-4.66147c2.08931,2.68464 8.06116,16.17308 8.06116,16.17308l-7.44076,5.79077l-11.31833,-14.54331z" fill="#ffb8c1" stroke="#d17b86"/></g><g stroke-width="2" stroke-linecap="butt"><path d="M372.94869,146.0672l-35.81704,48.37186l-2.45228,-10.45509l31.92882,-44.36475z" fill="#ffbb66" stroke="#c18d4d"/><path d="M378.06852,144.68104l-5.545,6.83323l-11.95816,-9.70373l5.545,-6.83323z" fill="#ffb8c1" stroke="#d17b86"/><path d="M387.21913,129.22268l-11.31833,14.54331l-7.44076,-5.79077c0,0 5.97184,-13.48844 8.06116,-16.17308c1.40069,-1.79978 1.80286,4.66147 1.80286,4.66147c0,0 3.38246,-1.64666 4.775,-1.21472c1.5546,0.48221 4.12006,3.9738 4.12006,3.9738z" fill="#ffb8c1" stroke="#d17b86"/></g></g></g></svg>