<svg version="1.1" xmlns="http://www.w3.org/2000/svg" xmlns:xlink="http://www.w3.org/1999/xlink" width="156.23479" height="229.45562" viewBox="0,0,156.23479,229.45562"><defs><linearGradient x1="302.20087" y1="152.78663" x2="272.04777" y2="220.3965" gradientUnits="userSpaceOnUse" id="color-1"><stop offset="0" stop-color="#b87e5c"/><stop offset="1" stop-color="#b38d76"/></linearGradient><linearGradient x1="334.90787" y1="157.39447" x2="408.76894" y2="162.37916" gradientUnits="userSpaceOnUse" id="color-2"><stop offset="0" stop-color="#b87e5c"/><stop offset="1" stop-color="#b38d76"/></linearGradient><linearGradient x1="304.02009" y1="208.10807" x2="304.02009" y2="282.13714" gradientUnits="userSpaceOnUse" id="color-3"><stop offset="0" stop-color="#b87e5c"/><stop offset="1" stop-color="#b38d76"/></linearGradient><linearGradient x1="319.76813" y1="113.80187" x2="319.76813" y2="138.75045" gradientUnits="userSpaceOnUse" id="color-4"><stop offset="0" stop-color="#97674b"/><stop offset="1" stop-color="#d8bdad"/></linearGradient><linearGradient x1="331.88036" y1="211.74127" x2="394.34586" y2="251.4699" gradientUnits="userSpaceOnUse" id="color-5"><stop offset="0" stop-color="#b87e5c"/><stop offset="1" stop-color="#b38d76"/></linearGradient></defs><g transform="translate(-255.47036,-54.45273)"><g stroke-miterlimit="10"><g stroke="#7e563f" stroke-width="1.5" stroke-linecap="butt"><path d="M272.44475,220.12433c0,0 -12.03808,-3.90406 -11.16001,-5.87287c0.74919,-1.67985 14.34467,-1.26782 15.24144,-3.27859c1.48668,-3.33347 6.79057,-10.12443 9.97152,-18.15688c3.02539,-7.63963 3.88477,-16.42638 7.0459,-23.51434c4.48571,-10.05795 8.88714,-16.4125 8.88714,-16.4125c0,0 3.24967,0.10583 6.67946,1.63547c3.39637,1.51474 4.354,3.2853 4.354,3.2853c0,0 1.43409,-1.70935 -3.43063,19.74169c-2.59208,5.03045 -8.02229,7.08488 -13.4561,17.7426c-6.90252,13.5384 -13.09926,29.75088 -13.09926,29.75088z" fill="url(#color-1)"/><path d="M256.46081,214.56309l0.16659,-0.37353c0,0 3.18761,-3.01063 7.23667,-3.98126c2.76167,-0.66202 8.73348,-1.31445 10.54206,-1.03181c5.40474,0.84464 14.69606,4.49425 14.69606,4.49425l-6.20705,12.68171z" fill="#9a8172"/></g><g stroke="#7e563f" stroke-width="1.5" stroke-linecap="butt"><path d="M407.52918,174.65626c0,0 -17.22778,-2.10896 -32.42246,-2.34303c-11.96157,-0.18426 -16.31797,3.65367 -21.97663,3.59085c-21.23432,-5.73725 -19.05262,-6.20489 -19.05262,-6.20489c0,0 -1.11675,-1.67477 -0.86635,-5.38517c0.25287,-3.7469 1.67981,-6.66844 1.67981,-6.66844c0,0 7.67544,-0.91674 18.66335,-0.17519c7.74331,0.52257 15.91102,3.87425 24.07839,4.77492c8.58731,0.94698 17.07069,-0.56314 20.71237,-0.31738c2.19668,0.14824 8.19366,-12.06007 10.02883,-11.93621c2.15084,0.14515 -0.03123,12.61092 -0.03123,12.61092z" fill="url(#color-2)"/><path d="M408.95741,174.75265l-14.11215,-0.44787c0,0 1.12178,-9.91916 2.90411,-15.091c0.59642,-1.73065 3.96715,-6.7032 5.84438,-8.8342c2.75233,-3.12438 6.90453,-4.53291 6.90453,-4.53291l0.40807,0.02753z" fill="#9a8172"/></g><path d="M304.27178,281.72686c0,0 -12.58441,1.33775 -12.58441,-0.81799c0,-1.83934 12.58441,-7.00067 12.58441,-9.20235c0,-3.64997 2.07792,-12.01242 1.71131,-20.644c-0.34868,-8.20947 -3.14279,-16.58434 -3.14279,-24.34526c0,-11.0129 1.43148,-18.6092 1.43148,-18.6092h12.08103c0,0 6.95289,-1.94076 5.72591,19.83618c-0.31834,5.65005 -5.25888,9.32914 -5.88047,21.27597c-0.7896,15.17595 0.15456,32.50664 0.15456,32.50664z" fill="url(#color-3)" stroke="#7e563f" stroke-width="1.5" stroke-linecap="butt"/><path d="M330.32531,145.65372c0.76941,-0.40198 1.8828,-0.59801 3.12872,0.39873c2.3426,1.87409 0.46852,4.21669 0.46852,4.21669l-4.31444,1.91763c-1.16582,-0.58309 -2.61792,-0.78722 -3.49747,-1.74926c-1.2963,-1.41787 -2.44279,-7.21287 -2.07581,-8.73003c0.26945,-1.11395 1.76135,-1.52251 2.36165,-2.49879c1.03769,-1.68762 0.33093,-3.95876 1.25101,-5.65336c0.02932,-0.054 0.05899,-0.1078 0.08898,-0.16138l-0.03976,-0.01255l1.20639,-3.82024c0.3627,-1.24893 1.51541,-2.1618 2.88133,-2.1618c0.37829,0 0.74022,0.07002 1.07355,0.1978c0.25065,-0.87979 0.55494,-1.65544 0.79012,-2.1079c0.54282,-1.04432 1.65084,-1.6808 2.41387,-2.57691c0.73582,-0.86416 1.19428,-1.98489 2.07745,-2.69779c0.71536,-0.57743 2.12837,-0.22595 2.55408,-1.04077c0.3641,-0.69688 -1.08533,-1.44074 -0.86349,-2.19506c0.58465,-1.98799 1.34723,-4.07179 2.65564,-5.67517c-0.00014,-1.32249 -0.00025,-4.90662 0.00291,-5.27136l-0.03317,-0.34831c-0.19005,-0.34047 -0.31569,-0.72179 -0.36044,-1.12747l-0.39819,-3.18552c-0.01914,-0.13694 -0.02903,-0.27684 -0.02903,-0.41905c0,-1.65685 1.34314,-3 3,-3c0.07635,0 0.15202,0.00285 0.22694,0.00845l-1.85232,-1.23488c-0.82711,-0.53416 -1.37462,-1.46412 -1.37462,-2.52196c0,-1.06085 0.55063,-1.99309 1.38168,-2.52651c-1.76475,-1.40242 -3.37192,-3.0845 -3.41319,-4.14258c-0.00765,-0.19608 0.04566,-0.35531 0.14484,-0.48679c-1.39738,-2.4727 1.06491,-3.98795 1.06491,-3.98795l2.61806,-1.61111c0.46573,-0.29748 1.01907,-0.46989 1.61269,-0.46989c1.65686,0 3,1.34315 3,3c0,0.68629 -0.23044,1.31876 -0.61818,1.82425l-0.80953,1.07937c0.0043,0.00169 0.00853,0.0035 0.01268,0.00543c1.46303,0.68045 3.04537,1.31802 4.14671,2.49721c1.31793,1.4111 3.60555,3.23671 2.87975,5.02594c-0.33605,0.82842 -1.03983,1.31337 -1.89443,1.65744c1.77215,3.21952 1.27687,8.82581 -1.71479,10.32957c-0.57574,0.28939 -1.19363,0.37338 -1.83391,0.34824c0.20312,1.29997 0.24071,2.79214 0.24071,5.04409v3.68094c0,1.42311 -0.9909,2.61478 -2.32038,2.92269c0.38682,0.91935 0.57396,2.06579 0.02267,3.19047c-0.73674,1.50299 -2.77038,1.90254 -3.98982,3.04915c-1.20488,1.13293 -2.44543,2.29505 -3.27956,3.72315c-1.86138,3.18686 2.03706,10.74148 -5.74792,10.55379c-0.16955,-0.00409 -0.32959,-0.02865 -0.48132,-0.07112c-0.52832,1.74093 -1.13953,3.43318 -1.2429,3.60944c-0.35307,0.60208 -1.47801,0.5306 -1.72827,1.18215c-0.28024,0.72961 0.07393,1.46067 0.60709,2.0229z" fill="#463124" stroke="none" stroke-width="0.5" stroke-linecap="butt"/><path d="M329.48911,200.17192l5.59389,5.22873c0,0 2.4515,21.29223 0.32106,29.62739c-1.90388,7.4488 -12.0635,18.58734 -12.0635,18.58734c0,0 -1.47818,1.91127 -3.65438,4.1376c-2.2458,2.29752 -6.17129,5.74951 -9.04642,6.96375c-1.38954,0.58684 0.2624,-2.3432 -0.79471,-3.11469c-0.48564,-0.35442 -2.58066,0.33714 -3.22608,0.34368c-0.99854,0.01011 0.18332,-1.30291 0.22826,-1.87889c0.07746,-0.99249 -3.30876,0.2578 -1.90579,-1.29549c2.39468,-2.65125 10.08766,-8.12275 10.08766,-8.12275c0,0 8.62203,-13.57307 10.9482,-21.53301c2.56065,-8.76233 3.51182,-28.94364 3.51182,-28.94364z" fill="#463124" stroke="#302219" stroke-width="1.5" stroke-linecap="butt"/><path d="M310.24924,150.50779v-23.19375h18.37757v23.19375z" fill="#b87e5c" stroke="#7e563f" stroke-width="1.5" stroke-linecap="butt"/><path d="M347.25171,101.93644c0,15.89227 -12.4324,32.90192 -27.51627,32.90192c-15.08387,0 -27.10728,-17.00965 -27.10728,-32.90192c0,-15.89227 12.2279,-31.71228 27.31178,-31.71228c15.08387,0 27.31178,15.82001 27.31178,31.71228z" fill="#b87e5c" stroke="#7e563f" stroke-width="1.5" stroke-linecap="butt"/><path d="M333.6739,126.27616c0,6.88936 -6.22582,12.4743 -13.90577,12.4743c-7.67994,0 -13.90578,-5.58493 -13.90578,-12.4743c0,-6.88936 7.11302,-20.20554 14.79296,-20.20554c7.67994,0 13.01858,13.31618 13.01858,20.20555z" fill="url(#color-4)" stroke="#7e563f" stroke-width="1.5" stroke-linecap="butt"/><path d="M330.34798,131.43757c0,3.27527 -6.90869,6.54389 -11.14257,6.54389c-4.23388,0 -9.71109,-3.47312 -9.71109,-6.74839c0,-3.27527 5.47721,-1.63597 9.7111,-1.63597c4.23388,0 11.14257,-1.4348 11.14257,1.84047z" fill="#463124" stroke="#302219" stroke-width="1.5" stroke-linecap="butt"/><path d="M314.17825,133.90462l2.4081,2.02786" fill="none" stroke="#302219" stroke-width="1.5" stroke-linecap="round"/><path d="M322.92344,135.4255l3.0418,-1.64764" fill="none" stroke="#302219" stroke-width="1.5" stroke-linecap="round"/><path d="M310.376,92.24611c0,0 -3.10518,0.89149 -4.86837,0.93502c-1.65154,0.04078 -5.39772,-0.68154 -5.39772,-0.68154" fill="none" stroke="#302219" stroke-width="1.5" stroke-linecap="round"/><path d="M330.0012,88.89959c0,0 3.40867,-3.32471 5.12952,-3.38766c1.74314,-0.06377 5.26331,3.00744 5.26331,3.00744" fill="none" stroke="#302219" stroke-width="1.5" stroke-linecap="round"/><path d="M343.00572,101.04216c0,6.34399 -3.48978,10.25608 -7.79462,10.25608c-4.30485,0 -7.79462,-3.91209 -7.79462,-10.25608c0,-6.34399 3.48977,-7.38438 7.79462,-7.38438c4.30485,0 7.79462,1.04039 7.79462,7.38438z" fill="#ffffff" stroke="#000000" stroke-width="1" stroke-linecap="butt"/><path d="M342.94425,102.00785c0,2.8699 -2.08161,5.19642 -4.64943,5.19642c-2.56781,0 -4.64943,-2.32652 -4.64943,-5.19642c0,-2.8699 2.08161,-5.19642 4.64943,-5.19642c2.56781,0 4.64943,2.32652 4.64943,5.19642z" fill="#000000" stroke="#000000" stroke-width="1" stroke-linecap="butt"/><path d="M313.02498,101.09923c0,6.34399 -3.48978,10.25608 -7.79462,10.25608c-4.30485,0 -7.79462,-3.91209 -7.79462,-10.25608c0,-6.34399 3.48977,-7.38438 7.79462,-7.38438c4.30485,0 7.79462,1.04039 7.79462,7.38438z" fill="#ffffff" stroke="#000000" stroke-width="1" stroke-linecap="butt"/><path d="M312.96352,102.46492c0,2.8699 -2.08161,5.19642 -4.64943,5.19642c-2.56781,0 -4.64943,-2.32652 -4.64943,-5.19642c0,-2.8699 2.08161,-5.19642 4.64943,-5.19642c2.56781,0 4.64943,2.32652 4.64943,5.19642z" fill="#000000" stroke="#000000" stroke-width="1" stroke-linecap="butt"/><g stroke-linecap="butt"><path d="M297.15001,81.86695c0,0 -2.85492,-5.96359 -1.75069,-10.00356c0.97063,-3.55124 8.02707,-12.95968 8.02707,-12.95968l4.39498,-3.14969c0,0 1.96984,10.96648 1.61924,14.96155c-0.37421,4.26421 -3.79831,9.86898 -3.79831,9.86898z" fill="#997764" stroke="#4e3527" stroke-width="1.5"/><path d="M304.84602,65.40827c0.2825,0.10207 0.565,0.20415 0.84751,0.30622c0,0 0.93981,0.34167 0.59814,1.28148c-0.34168,0.93982 -1.28149,0.59815 -1.28149,0.59815c-0.06691,-0.0245 -0.13382,-0.04899 -0.20073,-0.07348l0.09749,0.44008l-0.19213,0.04257c-0.08846,0.35696 -0.22317,0.72041 -0.38567,1.08265c0.26314,0.32508 0.30291,0.79451 0.06576,1.16665c-0.17806,0.27942 -0.47178,0.44048 -0.77886,0.46057l-0.17013,0.01298c-0.24799,0.41273 -0.495,0.80615 -0.70806,1.16646c-0.39141,0.66196 0.90014,1.40413 0.79463,2.16588c-0.05223,0.37705 -0.48831,0.60323 -0.98423,0.78373c-0.17589,0.37039 -0.42122,0.60992 -0.64957,0.7675l0.03946,0.03778c-0.21248,0.116 -0.43028,0.25732 -0.63083,0.42061l-0.00159,0.02949c0.37599,0.3026 0.93935,0.54392 0.77991,0.92337c-0.5564,1.32423 -1.40778,1.46411 -2.27235,1.23404l-0.00562,0.05402l-1.10751,-0.11529c-0.15651,-0.01297 -0.31225,-0.06313 -0.45389,-0.15339c-0.46575,-0.2968 -0.60271,-0.91499 -0.3059,-1.38073c0.10042,-0.15758 0.23764,-0.27754 0.39329,-0.35577l0.60096,-0.31614c0.01716,-0.04234 0.03716,-0.08512 0.05962,-0.12771c-0.10723,-0.24062 -0.15548,-0.48016 -0.0597,-0.71708c0.0579,-0.14321 0.19064,-0.25346 0.36206,-0.34309l-0.44129,-0.26308c0.47048,-0.48018 0.84395,-0.89769 1.15444,-1.31638c-0.34351,-1.28498 0.33715,-1.65275 0.89009,-2.09894c0.00702,-0.02256 0.0144,-0.04489 0.02214,-0.067c0.07464,-0.21314 0.22102,-0.50364 0.40178,-0.8327c0.01666,-0.35981 -0.02952,-0.74773 0.1535,-1.00514c0.01504,-0.69678 0.16756,-1.22901 0.44228,-1.74182c-0.12498,-0.16934 -0.19715,-0.32627 -0.07234,-0.45928c0.13872,-0.14782 0.31828,-0.21395 0.51875,-0.23822c0.02281,-0.03135 0.04604,-0.06285 0.06968,-0.09457c-0.10494,-0.12204 -0.17719,-0.26615 -0.21376,-0.41869l-0.49613,-0.64636c-0.2618,-0.32501 -0.30095,-0.79336 -0.06425,-1.16479c0.2835,-0.44487 0.8602,-0.58976 1.31721,-0.34322l1.34235,0.70607l-0.06944,0.132c0.19978,0.0982 0.3815,0.22457 0.53662,0.39241c0.02072,0.02243 0.03999,0.04516 0.05783,0.06817z" fill="#49392f" stroke="none" stroke-width="0.5"/></g><g stroke-linecap="butt"><path d="M338.71518,73.05642c0,0 6.36993,-1.60056 10.55224,-0.68853c3.91834,0.85447 13.80137,5.99931 13.80137,5.99931l-4.31514,3.25821c0,0 -11.0824,3.93605 -14.76159,3.80563c-4.18554,-0.14838 -9.029,-4.64902 -9.029,-4.64902z" fill="#997764" stroke="#4e3527" stroke-width="1.5"/><path d="M353.01436,78.40948c0.11407,0.19806 0.18062,0.40916 0.21489,0.6291l0.14668,-0.02699l0.27449,1.49166c0.09934,0.50969 -0.21065,1.01711 -0.71974,1.15534c-0.42505,0.11541 -0.86053,-0.06139 -1.09287,-0.40805l-0.46938,-0.66604c-0.13475,-0.08032 -0.25081,-0.19219 -0.33608,-0.3287c-0.03731,0.01312 -0.07431,0.02591 -0.11103,0.03837c-0.08285,0.18417 -0.19942,0.3359 -0.38183,0.42433c-0.16412,0.07956 -0.29246,-0.03606 -0.41693,-0.20577c-0.57134,0.10961 -1.12484,0.09681 -1.79452,-0.09624c-0.30021,0.0981 -0.6568,-0.06145 -1.00527,-0.15265c-0.36794,0.07461 -0.68884,0.12789 -0.91454,0.1357c-0.02341,0.00081 -0.04693,0.0012 -0.07055,0.0012c-0.59055,0.39506 -1.14424,0.9354 -2.26873,0.22498c-0.49213,0.17179 -1.00188,0.40404 -1.60034,0.71027l-0.11981,-0.4996c-0.13659,0.13697 -0.28134,0.23088 -0.4353,0.24352c-0.2547,0.02092 -0.46902,-0.09645 -0.66681,-0.27044c-0.04736,0.00877 -0.09414,0.01511 -0.13966,0.0189l-0.4807,0.47961c-0.12102,0.12531 -0.27637,0.2206 -0.45671,0.26957c-0.53299,0.14472 -1.08238,-0.17004 -1.22709,-0.70303c-0.04401,-0.16208 -0.04553,-0.3257 -0.01134,-0.47898l0.2196,-1.09162l0.05326,0.01071c0.0377,-0.89386 0.42468,-1.66503 1.85449,-1.80203c0.40971,-0.03926 0.47239,0.57041 0.64937,1.01942l0.02861,0.00726c0.21559,-0.14284 0.41532,-0.30871 0.58932,-0.47703l0.02432,0.04893c0.21843,-0.1711 0.52012,-0.33401 0.92607,-0.39168c0.31993,-0.41972 0.66566,-0.7687 1.04116,-0.70633c0.75862,0.126 1.08271,1.57993 1.83116,1.40331c0.40741,-0.09615 0.85652,-0.21485 1.32436,-0.32875l0.06303,-0.15856c0.11058,-0.28718 0.35178,-0.51965 0.67153,-0.60647c0.42586,-0.11563 0.86218,0.06207 1.09419,0.41004c0.39419,-0.04731 0.78126,-0.06772 1.14838,-0.04593l0.09782,-0.17075l0.39111,0.22407c-0.00347,-0.07116 -0.00693,-0.14234 -0.0104,-0.2135c0,0 -0.04643,-0.99892 0.95248,-1.04536c0.99891,-0.04644 1.04537,0.95247 1.04537,0.95247c0.01336,0.30008 0.0267,0.60017 0.04006,0.90025c0.01666,0.02388 0.03263,0.04903 0.04786,0.07549z" fill="#49392f" stroke="none" stroke-width="0.5"/></g><path d="M337.47375,181.11803c0,17.95752 14.72491,30.60997 -20.65416,29.85651c-27.94753,3.29398 -13.70128,-11.89899 -13.70128,-29.85651c0,-17.95752 -4.15767,-31.68016 17.17772,-32.51496c20.32358,-0.79522 17.17772,14.55745 17.17772,32.51496z" fill="#b87e5c" stroke="#7e563f" stroke-width="1.5" stroke-linecap="butt"/><path d="M329.62227,184.4646c0.53728,9.67104 1.85699,17.97516 -10.31212,19.71361c-2.14105,0.30587 -5.48883,0.85227 -6.94587,-0.85358c-1.51829,-1.77757 -4.15304,-7.22052 -4.05253,-9.53132c0.08927,-2.05236 1.42246,-4.6628 1.22698,-6.4677c-0.24388,-2.25177 -1.50694,-4.31115 -1.84047,-6.41558c-0.45758,-2.88714 1.0288,-9.57552 2.14842,-11.31233c0.85478,-1.32597 -0.52443,-5.77389 1.03224,-8.36834c1.0631,-1.77184 2.6293,-2.02272 4.28375,-2.21422c0.51888,-0.22567 1.09159,-0.35081 1.69351,-0.35081c0.15066,0 0.29949,0.00783 0.4461,0.02313c2.78577,-0.68758 4.16794,-4.61031 7.55126,-3.85847c4.48111,0.9958 4.32379,6.6396 5.29388,10.26237c0.68723,2.56642 2.59195,4.70604 3.25147,7.34413c0.44399,1.77598 0.13748,4.85421 -0.94646,6.48011c-0.2427,0.36405 -2.13594,1.59043 -2.14391,1.91437c-0.03044,1.23791 -0.21937,2.4106 -0.84237,3.50084z" fill="#b38d76" stroke="none" stroke-width="0.5" stroke-linecap="butt"/><path d="M324.76551,77.2502l0.09283,-0.01833l0.51205,2.59307c0.13718,0.63812 0.05823,1.28475 -0.19584,1.85233c0.07919,0.26327 0.14175,0.54339 0.18624,0.8414c0.00992,0.06645 -0.11358,0.31398 -0.33729,0.67249c0.78524,2.79005 0.2754,5.55795 -2.89451,7.83924c-2.8222,2.03105 -8.39943,4.00714 -10.02298,-2.23733c-0.08462,-0.32545 -0.00854,-0.7362 0.1865,-1.1951c-0.06103,-0.11717 -0.11502,-0.23974 -0.16126,-0.36735c-0.24822,-0.68509 -0.23153,-1.40164 -0.00241,-2.03747l0.45783,-1.30204l-2.61408,-0.05115c-1.23122,0.0046 -2.38841,-0.75482 -2.8319,-1.97885c-0.47179,-1.30212 0.01345,-2.71786 1.09524,-3.47709c-0.00233,-0.03284 -0.00166,-0.06811 0.0022,-0.10597c0.43014,-4.22654 6.09137,-9.49371 10.79195,-7.79631c0.92846,0.33527 1.42299,0.94741 1.63244,1.6277c1.0732,-0.15583 1.82604,0.28591 2.32062,0.79243c0.72076,0.18992 1.46599,0.69694 1.89471,1.88018c0.37813,1.04363 0.2302,1.84102 -0.10627,2.43151z" fill="#463124" stroke="none" stroke-width="0.5" stroke-linecap="butt"/><g stroke="#7e563f" stroke-width="1.5" stroke-linecap="butt"><path d="M394.13475,251.03734c0,0 -5.62479,11.3366 -7.44379,10.1797c-1.55203,-0.98711 0.84644,-14.37569 -1.01133,-15.55725c-3.07983,-1.9588 -9.02089,-8.19996 -16.50095,-12.52286c-7.11424,-4.1115 -15.68044,-6.24832 -22.22908,-10.41332c-9.29266,-5.91021 -14.93416,-11.19474 -14.93416,-11.19474l6.48343,-10.19394c0,0 2.09375,-6.90837 19.81059,5.81383c4.59666,3.30078 5.04966,9.44403 14.79677,16.37994c12.38168,8.81063 27.51195,17.31469 27.51195,17.31469z" fill="url(#color-5)"/><path d="M386.29283,266.03461l-0.34511,-0.21949c0,0 -2.5114,-3.59412 -2.87862,-7.74166c-0.25047,-2.82885 -0.02138,-8.83182 0.52305,-10.57951c1.62699,-5.22279 6.59785,-13.8795 6.59785,-13.8795l11.63605,7.99721z" fill="#9a8172"/></g><g stroke="#373737" stroke-width="1.5" stroke-linecap="butt"><path d="M339.9643,74.26339c0,4.80389 -8.3774,8.69821 -18.71144,8.69821c-10.33404,0 -18.71144,-3.89432 -18.71144,-8.69821c0,-4.80389 8.3774,-8.69821 18.71144,-8.69821c10.33404,0 18.71144,3.89432 18.71144,8.69821z" fill="#505050"/><path d="M309.28981,75.68351v-18.28399l12.0653,5.85798l11.86081,-5.85798v18.28399z" fill="#505050"/><path d="M310.10778,72.48825v-3.01775h22.49463v3.01775z" fill="#fefefe"/></g><g stroke="#3e3e3e" stroke-width="1.5"><path d="M301.71893,122.35966v-8.17987h13.08779v8.17987z" fill-opacity="0.60392" fill="#6d6d6d" stroke-linecap="butt"/><path d="M315.21311,118.59294c0,0 3.98706,-1.09778 5.72405,-1.13654c1.80662,-0.04032 4.91499,0.8991 4.91499,0.8991" fill="none" stroke-linecap="round"/><path d="M326.14612,122.65623v-8.17987h13.08778v8.17987z" fill-opacity="0.60392" fill="#6d6d6d" stroke-linecap="butt"/></g><path d="M326.67202,150.95674c0,3.10586 -3.29603,5.62366 -7.36188,5.62366c-4.06585,0 -7.36188,-2.5178 -7.36188,-5.62366c0,-3.10586 3.29603,-5.62366 7.36188,-5.62366c4.06585,0 7.36188,2.5178 7.36188,5.62366z" fill="#616161" stroke="#3e3e3e" stroke-width="1.5" stroke-linecap="butt"/><g stroke="#3e3e3e" stroke-width="1.5"><path d="M298.78911,157.29593v-11.04282l12.88329,3.06745l-0.2045,2.65846z" fill="#616161" stroke-linecap="butt"/><path d="M299.03244,148.9279l4.13221,0.73462" fill="none" stroke-linecap="round"/><path d="M299.67523,151.86636l1.74471,-0.36731" fill="none" stroke-linecap="round"/><path d="M299.67523,153.88655l3.67308,-1.0101" fill="none" stroke-linecap="round"/></g><g stroke="#3e3e3e" stroke-width="1.5"><path d="M327.77677,152.38769l-0.2045,-2.65846l12.88329,-3.06745v11.04282z" fill="#616161" stroke-linecap="butt"/><path d="M340.21224,149.33656l-4.13221,0.73462" fill="none" stroke-linecap="round"/><path d="M337.82474,151.90771l1.74471,0.36731" fill="none" stroke-linecap="round"/><path d="M335.89637,153.2851l3.67307,1.0101" fill="none" stroke-linecap="round"/></g><path d="M287.40867,283.15835v-0.409c0,0 1.68493,-4.04793 4.98755,-6.58364c2.25255,-1.72948 7.44079,-4.75774 9.20767,-5.23627c5.28012,-1.43003 15.25231,-1.88137 15.25231,-1.88137l-0.50338,14.11027z" fill="#9a8172" stroke="#7e563f" stroke-width="1.5" stroke-linecap="butt"/></g></g></svg>