<svg version="1.1" xmlns="http://www.w3.org/2000/svg" xmlns:xlink="http://www.w3.org/1999/xlink" width="127.21078" height="238.52627" viewBox="0,0,127.21078,238.52627"><g transform="translate(-166.91494,-75.58602)"><g data-paper-data="{&quot;isPaintingLayer&quot;:true}" fill-rule="nonzero" stroke-linejoin="miter" stroke-miterlimit="10" stroke-dasharray="" stroke-dashoffset="0" style="mix-blend-mode: normal"><path d="M288.7096,242.30912c0.24236,1.79909 1.17278,9.60722 0.70269,10.91626c-0.48613,1.35371 -2.38957,-3.80458 -3.14073,-2.71882c-0.88373,1.27739 -1.95028,3.9455 -3.29485,4.12663c-3.59259,0.48398 -6.48916,-4.72304 -7.27703,-10.57144c-0.78787,-5.8484 1.48581,-10.98181 5.0784,-11.46578c3.59259,-0.48398 7.14365,3.86475 7.93152,9.71315z" fill="#ff33fd" stroke="#a220a0" stroke-width="1" stroke-linecap="butt"/><path d="M175.90291,101.48729c1.30366,-1.26331 7.0337,-6.64838 8.36612,-7.04745c1.37788,-0.41269 -1.64229,4.18184 -0.32264,4.1415c1.55256,-0.04745 4.33267,-0.7736 5.27682,0.2007c2.52269,2.60326 0.05303,8.0258 -4.18484,12.1325c-4.23787,4.1067 -9.71838,5.32547 -12.24107,2.72221c-2.52269,-2.60326 -1.13226,-8.04276 3.10561,-12.14946z" fill="#ff33fd" stroke="#a220a0" stroke-width="1" stroke-linecap="butt"/><path d="M216.19805,307.94876v-84.14334l42.44653,-0.62794l1.97425,85.39922l-12.58977,0.88782c0,0 -7.94431,-66.79176 -10.90733,-66.83365c-2.42379,-0.03427 -7.09582,67.21363 -7.09582,67.21363z" fill="#383838" stroke="#272727" stroke-width="0.5" stroke-linecap="butt"/><path d="M241.51305,157.0955l-4.50966,-1.20991" fill="none" stroke="#d5da73" stroke-width="1" stroke-linecap="round"/><path d="M226.08394,157.45205v-15.58218h8.27501v15.58218c0,0 5.60071,0.52772 10.75748,3.59241c5.4848,3.25964 10.50957,9.08848 9.21727,9.80675c-5.64236,3.13601 -44.20865,2.27468 -45.20149,2.27468c-0.68345,0 2.72681,-6.35006 7.3128,-10.42034c4.22941,-3.75381 9.63893,-5.25349 9.63893,-5.25349z" fill="#ff33fd" stroke="#a220a0" stroke-width="1" stroke-linecap="butt"/><path d="M293.62572,236.42733c0,1.65842 -19.73216,3.04644 -22.89477,3.9458c-1.20556,0.34283 -6.19762,-18.5059 -11.98256,-34.33115c-6.03321,-16.50443 -12.85839,-30.00961 -13.65026,-29.40153c-1.99479,1.53178 0.88562,5.04692 2.4119,20.03298c1.26439,12.41462 13.53324,23.93576 11.90694,24.61171c-4.8516,2.01652 -35.72939,4.91389 -43.50682,1.17957c-0.34394,-0.16514 5.98352,-14.46704 5.25316,-25.77488c-1.07041,-16.57246 -1.32879,-19.28902 -3.15315,-18.66703c-0.78305,0.26697 -11.97552,3.41159 -23.07106,-1.12299c-15.92486,-6.50826 -25.74993,-57.5823 -25.43467,-65.5424c6.19904,0.41577 19.71413,-1.43561 17.56338,-1.65135c-3.62713,-0.36384 16.76084,51.96293 18.92751,55.0762c0.56307,0.80907 4.69046,0.18607 9.0445,-3.31391c3.85639,-3.09995 9.15942,-4.39738 10.59852,-4.4833c2.1004,-0.12541 -2.37889,1.16182 -4.91638,3.95423c-1.44788,1.59334 1.06589,2.8326 2.43995,3.00679c2.85432,0.36184 7.12283,1.16992 9.80716,1.16992c2.64836,0 10.75515,1.06644 10.08078,-2.2101c-0.31145,-1.51323 -0.50619,-2.09152 -2.83366,-3.83354c-1.46819,-1.09888 -4.36891,-0.63097 -5.56621,-1.23035c-1.02835,-0.51479 -1.10038,-1.63243 -0.53711,-1.56979c0.90771,0.10094 7.26176,0.07311 12.22646,3.20265c1.25396,0.79044 4.16691,3.462 7.93955,9.43129c4.80896,7.60903 10.85248,18.53392 17.20624,29.38576c11.091,18.94275 22.14059,37.66293 22.14059,38.13544z" fill="#e5ff99" stroke="#d5da73" stroke-width="1" stroke-linecap="butt"/><path d="M239.15524,158.60351l2.15311,-0.16041l3.05292,1.83319l2.24952,2.93312v2.74979l-0.96408,2.38316l-3.2136,0.54996l-2.24952,-0.18332l-4.17768,-0.18332h-4.33836l-3.85632,-0.36664l-4.8204,-0.73328l-3.69563,-2.38316l-0.96408,-3.48308l2.70872,-2.17477l2.31379,-1.20991" fill="none" stroke="#d5da73" stroke-width="1" stroke-linecap="round"/><path d="M224.0192,165.31302l-1.34971,1.3199" fill="none" stroke="#d5da73" stroke-width="1" stroke-linecap="round"/><path d="M220.45211,164.3231h-0.86767" fill="none" stroke="#d5da73" stroke-width="1" stroke-linecap="round"/><path d="M222.7752,158.83483l-2.80513,3.39843l-0.77126,-0.87994" fill="none" stroke="#d5da73" stroke-width="1" stroke-linecap="round"/><path d="M235.21182,156.52501l7.60693,2.18851l-1.54253,1.75987l1.2533,1.86986l2.98864,0.10999" fill="none" stroke="#d5da73" stroke-width="1" stroke-linecap="round"/><path d="M245.32534,166.52293l-2.98864,-1.3199" fill="none" stroke="#d5da73" stroke-width="1" stroke-linecap="round"/><path d="M228.8396,165.31302l-0.57845,1.97985" fill="none" stroke="#d5da73" stroke-width="1" stroke-linecap="round"/><path d="M231.73183,165.97298l0.38563,1.97985" fill="none" stroke="#d5da73" stroke-width="1" stroke-linecap="round"/><path d="M237.80553,167.73285l-0.28922,-1.3199" fill="none" stroke="#d5da73" stroke-width="1" stroke-linecap="round"/><path d="M240.69777,165.97298l1.63893,2.08984" fill="none" stroke="#d5da73" stroke-width="1" stroke-linecap="round"/><path d="M210.06889,151.1656v-47.06761l43.19407,-0.70426l2.42974,47.48311z" fill="#ffacfe" stroke="#ff64fc" stroke-width="1" stroke-linecap="butt"/><path d="M233.87314,112.15792c0,0 -4.56971,-6.54991 -7.73213,-8.86075c-3.30436,-2.41455 -11.68691,-5.32908 -11.68691,-5.32908l3.18299,-0.88243l-1.28638,-4.3506c0,0 7.72065,4.04178 11.09834,6.44086c3.03146,2.15315 8.24167,7.2958 8.24167,7.2958z" fill="#c12cbf" stroke="#732d72" stroke-width="1" stroke-linecap="butt"/><path d="M234.02808,111.96046c0,0 -3.24669,-6.44334 -5.30304,-9.20592c-1.93767,-2.60314 -6.70021,-6.9197 -6.70021,-6.9197l3.17577,-0.04975l0.48938,-3.93095c0,0 4.88979,5.20748 6.98697,7.93274c1.92195,2.49756 5.11635,7.79537 5.11635,7.79537z" fill="#ff4efc" stroke="#ff64fc" stroke-width="1" stroke-linecap="butt"/><path d="M210.40029,150.55161v-46.20133h35.80604v46.20133z" fill="#ff33fd" stroke="#a220a0" stroke-width="1" stroke-linecap="butt"/><path d="M248.76251,121.13473l0.86627,29.74211" fill="none" stroke="#ff64fc" stroke-width="1" stroke-linecap="round"/><path d="M251.93885,104.96426v19.92433" fill="none" stroke="#ff64fc" stroke-width="1" stroke-linecap="round"/><path d="M252.22762,130.95251l2.31006,19.63557" fill="none" stroke="#ff64fc" stroke-width="1" stroke-linecap="round"/><path d="M245.46926,126.20621c0,4.47289 -3.31069,8.09889 -7.39464,8.09889c-4.08395,0 -7.39464,-3.626 -7.39464,-8.09889c0,-4.47289 3.31069,-8.09889 7.39464,-8.09889c4.08395,0 7.39464,3.626 7.39464,8.09889z" fill="#ffffff" stroke="#000000" stroke-width="1" stroke-linecap="butt"/><path d="M238.68726,125.23777c0,0 4.2751,1.79135 3.90943,2.4436c-0.79058,1.41017 -2.31795,2.3656 -4.07245,2.3656c-2.56601,0 -4.64617,-2.04367 -4.64617,-4.56466c0,-2.52099 2.08016,-4.56466 4.64617,-4.56466c1.84678,0 3.4419,0.73253 4.19101,2.26577c0.29174,0.59712 -4.02799,2.05436 -4.02799,2.05436z" fill="#000000" stroke="none" stroke-width="1" stroke-linecap="butt"/><path d="M230.11657,123.05238c0,0 0.14781,-2.23155 0.84667,-2.94824c0.28613,-0.29343 0.45136,-0.86584 0.90554,-1.2149c0.80278,-0.61699 1.90989,-0.97259 1.90989,-0.97259c0,0 1.33127,-0.51357 3.9438,-0.51357c2.77671,0 5.21146,0.92443 5.21146,0.92443c0,0 1.85375,1.27397 2.31674,2.11805c0.35025,0.63854 0.21856,3.01768 0.21856,3.01768z" fill="#811a80" stroke="#5c125b" stroke-width="1" stroke-linecap="butt"/><path d="M243.21446,134.44072c0.83673,0.31304 1.67721,2.95543 1.67721,3.19279c0,0.34771 -0.66203,1.02224 -0.92458,1.35793c-1.73621,2.21998 -3.38527,3.63519 -6.27761,3.79588c-1.46777,0.08154 -1.37666,-1.81775 -1.64934,-2.64874c-0.09881,-0.30114 -0.97941,-1.57986 -0.91003,-1.82005c0.46076,-1.5951 1.96406,-3.55265 3.57547,-4.08978l0.69784,-0.12105c0.09186,0 0.18233,0.00601 0.27101,0.01765c1.21819,0.05791 2.25677,-0.16473 3.54,0.31537z" fill="#ff17ce" stroke="none" stroke-width="1" stroke-linecap="butt"/><path d="M235.4529,137.05663l0.43997,-2.85979" fill="none" stroke="#000000" stroke-width="1" stroke-linecap="round"/><path d="M239.96257,137.05663l0.76994,-2.96978" fill="none" stroke="#000000" stroke-width="1" stroke-linecap="round"/><path d="M236.20352,112.22479c0,0 3.27348,-0.5297 4.45538,-0.19495c1.07659,0.30492 2.34962,2.12233 2.34962,2.12233" fill="none" stroke="#000000" stroke-width="1" stroke-linecap="round"/><path d="M209.56482,129.08619l-0.03468,-4.57154l12.59874,-2.45069l1.13459,4.57154z" fill="#e7ff17" stroke="#c0c300" stroke-width="1" stroke-linecap="butt"/><path d="M226.93651,123.20383c0,3.37476 -5.41504,6.11054 -5.41504,6.11054c0,0 -5.21632,-2.73578 -5.21632,-6.11054c0,-1.09349 1.3236,-3.64601 1.70445,-4.11303c2.25251,-2.76219 4.10803,2.77169 4.10803,2.77169c0,0 3.0727,-3.77082 3.62624,-3.20216c1.43411,1.47329 1.19264,2.55657 1.19264,4.54349z" fill="#e7ff17" stroke="#c0c300" stroke-width="1" stroke-linecap="butt"/><g fill="#3b3e27" stroke="none" stroke-width="1" stroke-linecap="butt"><path d="M222.74928,123.84602c0,0.74091 -0.56726,1.34153 -1.267,1.34153c-0.69975,0 -1.267,-0.60063 -1.267,-1.34153c0,-0.74091 0.56726,-1.34153 1.267,-1.34153c0.69975,0 1.267,0.60063 1.267,1.34153z"/><path d="M219.87989,126.8272l1.34153,-2.45948l0.63351,0.07453l1.04342,2.27316z"/></g><path d="M231.69565,138.73653c0,0 -4.14748,2.7911 -6.03843,2.83837c-1.76704,0.04418 -5.33576,-0.81339 -5.33576,-0.81339z" fill="#4f104e" stroke="#4f104e" stroke-width="1" stroke-linecap="round"/><path d="M214.86975,226.66569l1.44612,-3.48308l44.02628,-0.73327l3.05292,3.84971z" fill="#e5ff99" stroke="#d5da73" stroke-width="1" stroke-linecap="butt"/><path d="M220.33286,226.48237l0.8034,-3.29976" fill="none" stroke="#d5da73" stroke-width="1" stroke-linecap="round"/><path d="M229.00958,226.11573l-0.64272,-2.56648" fill="none" stroke="#d5da73" stroke-width="1" stroke-linecap="round"/><path d="M237.36493,225.74908l-1.6068,-2.56648" fill="none" stroke="#d5da73" stroke-width="1" stroke-linecap="round"/><path d="M244.75621,222.81597l2.73156,2.93312" fill="none" stroke="#d5da73" stroke-width="1" stroke-linecap="round"/><path d="M252.79019,222.44934l3.37428,3.11643" fill="none" stroke="#d5da73" stroke-width="1" stroke-linecap="round"/><path d="M214.78934,312.97157v-4.05998h16.46261v4.05998z" fill="#141414" stroke="#272727" stroke-width="0.5" stroke-linecap="butt"/><path d="M232.5421,307.25495c0,2.84955 -4.35278,5.15956 -9.72221,5.15956c-5.36943,0 -9.72221,-2.31001 -9.72221,-5.15956c0,-2.84955 4.35278,-5.15956 9.72221,-5.15956c5.36943,0 9.72221,2.31001 9.72221,5.15956z" fill="#282828" stroke="#272727" stroke-width="0.5" stroke-linecap="butt"/><path d="M246.09294,313.80878v-4.05998h17.83642v4.05998z" fill="#141414" stroke="#272727" stroke-width="0.5" stroke-linecap="butt"/><path d="M264.60892,308.70274c0,2.84955 -4.35278,5.15956 -9.72221,5.15956c-5.36943,0 -9.72221,-2.31001 -9.72221,-5.15956c0,-2.84955 4.35278,-5.15956 9.72221,-5.15956c5.36943,0 9.72221,2.31001 9.72221,5.15956z" fill="#282828" stroke="#272727" stroke-width="0.5" stroke-linecap="butt"/><g stroke-width="1"><path d="M167.67277,83.6328l1.71495,-6.61943l0.04492,0.09104l5.52334,2.93496z" fill="#ffcf9c" stroke="#d6a066" stroke-linecap="butt"/><path d="M187.75107,124.32771l-20.03339,-40.60386l7.01009,-3.45868l20.03339,40.60386z" fill="#ff972b" stroke="#b76e1f" stroke-linecap="butt"/><path d="M195.05553,121.0068c0.38452,0.77934 -0.93418,2.21554 -2.94537,3.20784c-2.0112,0.9923 -3.95331,1.16494 -4.33783,0.38559c-0.38452,-0.77934 0.93418,-2.21554 2.94537,-3.20784c2.0112,-0.9923 3.95331,-1.16494 4.33783,-0.38559z" fill="#ffcf9c" stroke="#d6a066" stroke-linecap="butt"/><path d="M192.87057,122.08483c0.23567,0.47766 -0.2662,1.20676 -1.12096,1.62849c-0.85476,0.42173 -1.73873,0.37638 -1.9744,-0.10127c-0.23567,-0.47766 0.2662,-1.20676 1.12096,-1.62849c0.85476,-0.42173 1.73873,-0.37638 1.9744,0.10127z" fill="#202020" stroke="none" stroke-linecap="butt"/><path d="M168.28681,79.14138l0.51577,-3.08452l0.36416,-0.17967l2.30527,1.91907z" fill="#202020" stroke="none" stroke-linecap="butt"/><path d="M188.90051,121.60976l-15.40443,-31.68074" fill="none" stroke="#b76e1f" stroke-linecap="round"/><path d="M174.03233,82.98553l18.46367,36.96347" fill="none" stroke="#b76e1f" stroke-linecap="round"/></g><path d="M185.94805,94.68415c1.13223,2.21239 0.95405,4.5668 -0.39797,5.25872c-1.35202,0.69192 -3.3659,-0.54068 -4.49812,-2.75307c-1.13223,-2.21239 -0.95405,-4.5668 0.39797,-5.25872c1.35202,-0.69192 3.3659,0.54068 4.49812,2.75307z" fill="#ff33fd" stroke="#a220a0" stroke-width="1" stroke-linecap="butt"/><path d="M185.25,97.2703c3.12962,0 5.66667,2.20127 5.66667,4.91667c0,2.7154 -2.53706,4.91667 -5.66667,4.91667c-3.12962,0 -5.66667,-2.20127 -5.66667,-4.91667c0,-2.7154 2.53706,-4.91667 5.66667,-4.91667z" fill="#ff33fd" stroke="#a220a0" stroke-width="1" stroke-linecap="butt"/><g fill="#fffe3d" stroke="#ffde00" stroke-width="0.5" stroke-linecap="butt"><path d="M226.82686,160.79245c0,1.32162 -1.08364,2.39299 -2.42038,2.39299c-1.33674,0 -2.42037,-1.07137 -2.42037,-2.39299c0,-1.32162 1.08363,-2.39299 2.42037,-2.39299c1.33674,0 2.42038,1.07138 2.42038,2.39299z"/><path d="M229.42465,162.9547c0,1.32162 -1.08363,2.39299 -2.42037,2.39299c-1.33674,0 -2.42037,-1.07137 -2.42037,-2.39299c0,-1.32162 1.08363,-2.39299 2.42037,-2.39299c1.33674,0 2.42037,1.07138 2.42037,2.39299z"/><path d="M232.58121,164.74953c0,1.32162 -1.08364,2.39299 -2.42038,2.39299c-1.33674,0 -2.42037,-1.07137 -2.42037,-2.39299c0,-1.32162 1.08363,-2.39299 2.42037,-2.39299c1.33674,0 2.42038,1.07138 2.42038,2.39299z"/><path d="M236.06055,163.29656c0,1.32162 -1.08364,2.39299 -2.42038,2.39299c-1.33674,0 -2.42037,-1.07137 -2.42037,-2.39299c0,-1.32162 1.08363,-2.393 2.42037,-2.393c1.33674,0 2.42038,1.07138 2.42038,2.393z"/><path d="M238.18687,160.48469c0,1.32162 -1.08364,2.39299 -2.42038,2.39299c-1.33674,0 -2.42037,-1.07137 -2.42037,-2.39299c0,-1.32162 1.08363,-2.393 2.42037,-2.393c1.33674,0 2.42038,1.07138 2.42038,2.393z"/><path d="M237.87846,157.39378c0,1.32162 -1.08364,2.39299 -2.42037,2.39299c-1.33674,0 -2.42037,-1.07137 -2.42037,-2.39299c0,-1.32162 1.08363,-2.39299 2.42037,-2.39299c1.33674,0 2.42037,1.07137 2.42037,2.39299z"/><path d="M226.82686,157.3739c0,1.32162 -1.08364,2.39299 -2.42038,2.39299c-1.33674,0 -2.42037,-1.07137 -2.42037,-2.39299c0,-1.32162 1.08363,-2.393 2.42037,-2.393c1.33674,0 2.42038,1.07138 2.42038,2.393z"/></g></g></g></svg>