<svg version="1.1" xmlns="http://www.w3.org/2000/svg" xmlns:xlink="http://www.w3.org/1999/xlink" width="220.62143" height="327.25378" viewBox="0,0,220.62143,327.25378"><g transform="translate(-133.36289,9.29765)"><g data-paper-data="{&quot;isPaintingLayer&quot;:true}" fill-rule="nonzero" stroke-linejoin="miter" stroke-miterlimit="10" stroke-dasharray="" stroke-dashoffset="0" style="mix-blend-mode: normal"><g data-paper-data="{&quot;index&quot;:null}" stroke-linecap="butt"><path d="M317.88394,12.52039c0.64403,-5.74335 3.62486,-10.12354 6.65785,-9.78343c3.03301,0.34011 4.96966,5.27172 4.32563,11.01506c-0.64403,5.74334 -9.57195,10.40317 -12.60494,10.06307c-0.803,-0.09005 -7.14813,-6.20481 -9.78084,-10.53936c-3.11282,-5.125 -0.92348,-11.27838 4.18658,-12.33304c5.11006,-1.05466 6.94381,14.0026 7.21572,11.5777z" fill="#d00000" stroke="#000000" stroke-width="1.5"/><g stroke="#af4c00"><path d="M293.97208,57.32847c17.09112,-22.45449 23.37517,-38.98836 23.37517,-38.98836c0,0 7.93062,31.95772 -4.55875,55.76418c-12.48936,23.80646 -29.268,38.02127 -36.74345,34.0995c-5.2413,-2.7497 -17.57689,-28.75494 -12.54601,-43.81087c2.14447,-6.41774 25.60679,-0.67113 30.47303,-7.06444z" fill="#ff6f00" stroke-width="3"/><path d="M295.84584,74.51013l2.18494,-4.16477l11.45313,6.00854l-2.18494,4.16478z" fill="#ffffff" stroke-width="0"/><path d="M300.52292,66.60732l2.18494,-4.16477l11.45313,6.00855l-2.18493,4.16477z" fill="#ffffff" stroke-width="0"/><path d="M303.03636,59.71836l1.52153,-4.45019l12.23803,4.18421l-1.52153,4.45018z" fill="#ffffff" stroke-width="0"/><path d="M304.74176,52.63162l0.57986,-4.66723l12.83487,1.59463l-0.57986,4.66722z" fill="#ffffff" stroke-width="0"/></g></g><g data-paper-data="{&quot;index&quot;:null}" stroke-linecap="butt"><path d="M351.96857,178.01562c2.36479,1.92938 1.32007,7.12361 -2.33345,11.60162c-3.65352,4.47801 -13.68209,3.55645 -16.04689,1.62707c-0.62609,-0.51081 -2.64534,-9.08832 -2.50917,-14.15793c0.161,-5.99411 5.33547,-9.97935 10.20174,-8.09667c4.86626,1.88268 -1.7519,15.53127 -0.20935,13.6406c3.65352,-4.47801 8.53232,-6.54408 10.89712,-4.61469z" fill="#d00000" stroke="#000000" stroke-width="1.5"/><g stroke="#af4c00"><path d="M337.46673,187.23068c0,0 -10.65218,31.15641 -34.0493,44.39675c-23.39711,13.24035 -45.20157,16.09507 -49.35916,8.74816c-2.91503,-5.15118 0.80942,-33.69181 13.19625,-43.61942c5.28001,-4.23174 21.88494,13.31194 29.43923,10.57563c26.53205,-9.61044 40.77298,-20.10112 40.77298,-20.10112z" fill="#ff6f00" stroke-width="3"/><path d="M288.95804,222.78751l4.09316,-2.3163l6.36984,11.2562l-4.09316,2.3163z" fill="#ffffff" stroke-width="0"/><path d="M297.17133,218.68003l4.09316,-2.3163l6.36984,11.2562l-4.09317,2.3163z" fill="#ffffff" stroke-width="0"/><path d="M303.01679,214.2522l3.69027,-2.91567l8.0181,10.14825l-3.69027,2.91567z" fill="#ffffff" stroke-width="0"/><path d="M308.29032,209.22027l3.01646,-3.60836l9.92298,8.29526l-3.01646,3.60836z" fill="#ffffff" stroke-width="0"/></g></g><path d="M257.18674,291.12041v-58.84957h12.19001v58.84957c0,0 -0.83747,-1.11492 1.04495,10.71162c0.25284,1.58846 4.5549,8.34048 2.96234,10.66778c-0.77524,1.1329 -3.89978,-2.99295 -5.01302,-1.76985c-1.06805,1.17345 -3.11179,5.39577 -3.80528,5.72616c-2.18556,1.04122 -3.48887,-3.97679 -4.61868,-3.94819c-1.68988,0.04276 -3.53459,3.90577 -5.47303,1.03971c-2.17747,-3.21947 -1.10886,-9.06086 -0.77015,-9.45252c3.60661,-4.17044 3.48286,-12.9747 3.48286,-12.9747z" fill="#ffffff" stroke="#000000" stroke-width="3" stroke-linecap="butt"/><path d="M226.18674,289.12041v-58.84957h12.19001v58.84957c0,0 -0.83747,-1.11492 1.04495,10.71163c0.25283,1.58847 4.5549,8.34048 2.96234,10.66778c-0.77524,1.13291 -3.89978,-2.99294 -5.01301,-1.76984c-1.06805,1.17345 -3.11179,5.39577 -3.80528,5.72615c-2.18556,1.04122 -3.48887,-3.97678 -4.61868,-3.94819c-1.68988,0.04276 -3.53459,3.90577 -5.47303,1.0397c-2.17747,-3.21947 -1.10886,-9.06086 -0.77015,-9.45252c3.60661,-4.17044 3.48286,-12.97471 3.48286,-12.97471z" fill="#ffffff" stroke="#000000" stroke-width="3" stroke-linecap="butt"/><path d="M242.15308,162.57262v-13.35683h7.90123v13.35683z" fill="#ffffff" stroke="#000000" stroke-width="3" stroke-linecap="butt"/><g data-paper-data="{&quot;index&quot;:null}" stroke-linecap="butt"><path d="M187.88562,-8.47359c3.02974,0.36796 4.92101,5.31715 4.22424,11.05433c-0.29418,2.4223 4.95992,-11.80719 9.68942,-9.60338c4.7295,2.20381 5.442,8.69608 1.23197,12.96587c-3.56068,3.61123 -11.1441,8.09931 -11.94624,8.0019c-3.02974,-0.36796 -10.64361,-6.95967 -9.94685,-12.69686c0.69676,-5.73718 3.7177,-10.0898 6.74745,-9.72185z" fill="#d00000" stroke="#000000" stroke-width="1.5"/><g stroke="#af4c00"><path d="M191.29107,8.36753c0,0 2.30498,17.53698 13.76188,43.32553c3.26204,7.34261 27.41717,7.15715 28.02507,13.89632c1.42611,15.81004 -16.56997,38.2729 -22.30384,39.74083c-8.17799,2.09365 -21.22953,-15.60497 -27.89698,-41.64872c-6.66746,-26.04375 8.41385,-55.31395 8.41385,-55.31395z" fill="#ff6f00" stroke-width="3"/><path d="M186.74092,71.18822l-1.16643,-4.55617l12.52947,-3.20766l1.16643,4.55617z" fill="#ffffff" stroke-width="0"/><path d="M184.01077,62.42033l-1.16643,-4.55617l12.52947,-3.20766l1.16643,4.55617z" fill="#ffffff" stroke-width="0"/><path d="M182.80903,53.18148l-0.45511,-4.68103l12.87286,-1.25156l0.45512,4.68104z" fill="#ffffff" stroke-width="0"/><path d="M182.7985,43.23505l0.51123,-4.67524l12.85692,1.40587l-0.51123,4.67525z" fill="#ffffff" stroke-width="0"/></g></g><path d="M287.11481,107.29932c0,10.05157 0.44481,17.90029 -5.13247,25.28671c-1.57852,2.09055 -7.10053,5.44199 -9.01707,7.20792c-4.07737,3.75696 -4.63262,10.48628 -9.90035,12.42693c-4.53246,1.66978 -13.65284,-1.18263 -18.74841,-1.18263c-5.39013,0 -11.01784,1.33322 -15.76835,-0.52545c-4.39372,-1.71908 -7.96907,-6.50857 -11.52888,-9.52455c-5.83481,-4.94343 -12.24561,-6.7367 -14.86315,-14.16595c-1.63055,-4.62792 -0.63792,-14.32095 -0.63792,-19.52297c0,-4.85677 -1.10667,-15.69593 0.32311,-20.13161c2.81964,-8.74747 10.06869,-10.2552 17.06924,-15.54091c4.21992,-3.18622 8.56281,-9.66575 13.76877,-10.96512c3.56,-0.88854 7.77397,2.89871 11.63718,2.89871c6.54691,0 16.51296,-1.78985 22.06112,0.89587c5.50529,2.66497 6.60278,9.7873 10.51256,14.47105c3.02695,3.62615 7.83591,6.82332 9.5823,11.32815c1.93206,4.98377 0.64232,11.3574 0.64232,17.04386z" fill="#ffffff" stroke="#000000" stroke-width="3" stroke-linecap="butt"/><g stroke="#000000" stroke-linecap="butt"><path d="M276.25063,103.98155c0,10.27017 -4.9167,18.59578 -10.98176,18.59578c-6.06506,0 -10.98176,-8.32562 -10.98176,-18.59578c0,-10.27017 4.9167,-18.59578 10.98176,-18.59578c6.06506,0 10.98176,8.32562 10.98176,18.59578z" fill="#ffffff" stroke-width="1.5"/><path d="M275.95778,101.35347c0,6.71616 -3.41521,12.16069 -7.62807,12.16069c-2.94399,0 -5.49845,-2.65875 -6.77015,-6.55223c-0.54811,-1.67812 4.44856,-5.82956 4.44856,-5.82956c0,0 -4.82165,-4.65941 -3.99199,-6.60567c1.37231,-3.21924 3.68803,-5.33392 6.31358,-5.33392c4.21287,0 7.62807,5.44453 7.62807,12.16069z" fill="#000000" stroke-width="0"/></g><path d="M217.74394,95.96776l12.46324,10.582l-14.10933,5.40858" fill="none" stroke="#000000" stroke-width="5" stroke-linecap="round"/><path d="M222.6822,87.99935l1.1489,-2.04249l0.76594,1.91484z" fill="none" stroke="#000000" stroke-width="1.5" stroke-linecap="round"/><path d="M267.01572,126.11344l-2.01562,-2.95624" fill="none" stroke="#000000" stroke-width="1" stroke-linecap="round"/><path d="M268.57446,121.70596l1.61249,2.14999" fill="none" stroke="#000000" stroke-width="1" stroke-linecap="round"/><path d="M237.841,126.46031c0.93148,-0.63634 3.06506,-0.87075 3.85736,-0.84307c2.44411,0.08539 4.96903,1.30732 7.41954,0.95213c1.54047,-0.22329 5.34736,-1.25942 6.77737,-0.35507c0.11619,0.07348 0.22586,0.15454 0.33021,0.24177l0.04356,-0.06535l1.19116,0.79411c0.389,0.25122 0.6465,0.68859 0.6465,1.18611c0,0.74106 -0.57132,1.34868 -1.29752,1.40644l-1.3876,0.12615c-2.51831,0.57377 -3.53114,3.28178 -6.15866,3.99703c-1.74237,0.4743 -3.28526,-0.13728 -4.98549,-0.36908c-3.58355,-0.48856 -7.31143,-1.9254 -10.31602,-4.09009l-0.09583,0.23957l-1.31323,-0.52529c-0.53586,-0.20008 -0.91744,-0.71659 -0.91744,-1.32222c0,-0.77924 0.6317,-1.41093 1.41093,-1.41093c0.04907,0 0.09755,0.0025 0.14532,0.00739l1.41255,0.12841c1.10546,-0.00135 2.17094,-0.02552 3.23728,-0.098z" fill="#000000" stroke="none" stroke-width="0.5" stroke-linecap="butt"/><path d="M250.19253,130.42983l-1.41671,-3.16748l2.80778,-0.2784l-1.21961,3.5864z" fill="#ffffff" stroke="none" stroke-width="0" stroke-linecap="butt"/><path d="M264.20394,83.17082l1.22953,-2.18583l0.81969,2.04921z" fill="none" stroke="#000000" stroke-width="1.5" stroke-linecap="round"/><path d="M228.42,195.87064l-0.7525,-38.75363h36.11989v29.34741l15.22095,59.77173l-61.09149,-1.45895z" fill="#39ff2b" stroke="#000000" stroke-width="3" stroke-linecap="butt"/><path d="M231.78958,177.34488l-6.24197,-19.40072l5.07404,-1.63252l6.24197,19.40072z" fill="#032b00" stroke="#000000" stroke-width="1.5" stroke-linecap="butt"/><path d="M253.14667,176.54008l7.61062,-18.90579l4.94459,1.99047l-7.61062,18.90579z" fill="#032b00" stroke="#000000" stroke-width="1.5" stroke-linecap="butt"/><path d="M230.10822,270.45345v-96.88407h33.23531v96.88407z" fill="#032b00" stroke="#000000" stroke-width="1.5" stroke-linecap="butt"/><path d="M221.32908,202.82154v-11.91455h9.71976v11.91455z" fill="#032b00" stroke="#000000" stroke-width="1.5" stroke-linecap="butt"/><path d="M263.02997,202.19445v-11.91454h9.71976v11.91454z" fill="#032b00" stroke="#000000" stroke-width="1.5" stroke-linecap="butt"/><g data-paper-data="{&quot;index&quot;:null}" stroke="#000000" stroke-linecap="butt"><path d="M332.69005,117.11072l-3.24107,1.30588l-0.2651,3.50834l-6.75179,-4.35474l3.50618,-4.81421z" data-paper-data="{&quot;index&quot;:null}" fill="#032b00" stroke-width="1.5"/><path d="M331.68245,105.76421l-63.76197,62.08944l-8.52181,-8.81803l63.76197,-62.08946z" data-paper-data="{&quot;index&quot;:null}" fill="#ffffff" stroke-width="3"/><path d="M319.62211,108.15392c-4.43284,-4.58692 -1.36673,-6.92938 1.45567,-14.79538c0.71991,-2.00638 5.26048,-7.08734 8.9768,-9.64187c2.8942,-1.98943 7.13273,-5.01564 6.56441,-2.87769c-1.95687,7.36156 -3.78968,9.23855 -3.37289,12.63225c0.15978,1.30111 5.28977,-9.79846 8.28962,-10.55946c1.73725,-0.44071 4.31502,2.18093 5.37243,5.61062c0.88428,2.8682 0.421,6.58414 0.22654,6.8496c-5.23853,7.1513 -4.28755,6.2873 -9.69506,11.55297c-5.40752,5.26567 -13.38469,5.81589 -17.81753,1.22898z" data-paper-data="{&quot;index&quot;:null}" fill="#ffffff" stroke-width="3"/><path d="M327.97347,112.95835l-6.20903,6.04616l-12.08907,-12.5093l6.20903,-6.04616z" data-paper-data="{&quot;index&quot;:null}" fill="#032b00" stroke-width="1.5"/></g><g data-paper-data="{&quot;index&quot;:null}" stroke="#000000" stroke-linecap="butt"><path d="M158.62768,120.55563l4.24959,4.17266l-5.94445,5.40498l-0.83799,-3.41708l-3.4116,-0.75557z" fill="#032b00" stroke-width="1.5"/><path d="M158.76974,104.50429l73.09768,50.76828l-6.95702,10.09845l-73.09768,-50.76828z" fill="#ffffff" stroke-width="3"/><path d="M160.23477,100.62317c4.07656,7.2953 7.4859,9.10212 3.86703,14.35508c-3.61887,5.25296 -11.57802,6.021 -17.77728,1.71545c-6.19925,-4.30553 -5.11924,-3.60954 -11.46164,-9.80284c-0.23545,-0.22991 -1.30303,-3.81921 -0.90205,-6.79373c0.47947,-3.55682 2.59143,-6.5664 4.37748,-6.41715c3.08411,0.25772 9.96824,10.36346 9.91207,9.05379c-0.14652,-3.41603 -2.26284,-4.96636 -5.40274,-11.9063c-0.91189,-2.01549 3.76628,0.27312 6.94804,1.75993c4.08555,1.90915 9.39929,6.17497 10.4391,8.03578z" fill="#ffffff" stroke-width="3"/><path d="M166.52266,106.76396l7.11813,4.94373l-9.86926,14.32571l-7.11813,-4.94373z" fill="#032b00" stroke-width="1.5"/></g></g></g></svg>