<svg version="1.1" xmlns="http://www.w3.org/2000/svg" xmlns:xlink="http://www.w3.org/1999/xlink" width="66.93492" height="95.37303" viewBox="0,0,66.93492,95.37303"><g transform="translate(-206.53255,-132.18849)"><g data-paper-data="{&quot;isPaintingLayer&quot;:true}" fill-rule="nonzero" stroke-linecap="butt" stroke-linejoin="miter" stroke-miterlimit="10" stroke-dasharray="" stroke-dashoffset="0" style="mix-blend-mode: normal"><path d="M262.14572,159.90195c0,16.80253 -10.29891,30.42367 -23.00327,30.42367c-12.70435,0 -23.00327,-13.62114 -23.00327,-30.42367c0,-16.80253 10.29891,-26.71347 23.00327,-26.71347c12.70435,0 23.00327,9.91094 23.00327,26.71347z" fill="#cbcb00" stroke="#a38400" stroke-width="2"/><path d="M264.43637,187.40227c0,16.62609 -8.97267,34.06175 -24.9229,34.06175c-15.95023,0 -23.68617,-19.66178 -23.68617,-36.28787c0,-16.62609 8.23063,-17.9842 24.18086,-17.9842c15.95023,0 24.42821,3.58423 24.42821,20.21032z" fill="#5cc600" stroke="#4ca300" stroke-width="2"/><path d="M235.67959,149.8844c0,4.30309 -3.54371,7.79143 -7.9151,7.79143c-4.37139,0 -7.9151,-3.48834 -7.9151,-7.79143c0,-4.30309 3.54371,-7.79143 7.9151,-7.79143c4.37139,0 7.9151,3.48834 7.9151,7.79143z" fill="#000000" stroke="none" stroke-width="0"/><path d="M259.97265,149.61352c0,4.30309 -3.54371,7.79143 -7.9151,7.79143c-4.37139,0 -7.9151,-3.48834 -7.9151,-7.79143c0,-4.30309 3.54371,-7.79143 7.9151,-7.79143c4.37139,0 7.9151,3.48834 7.9151,7.79143z" fill="#000000" stroke="none" stroke-width="0"/><path d="M228.15745,146.41131c0,-1.51878 1.23122,-2.75 2.75,-2.75c1.51878,0 2.75,1.23122 2.75,2.75c0,1.51878 -1.23122,2.75 -2.75,2.75c-1.51878,0 -2.75,-1.23122 -2.75,-2.75z" fill="#ffffff" stroke="none" stroke-width="0.5"/><path d="M230.95858,150.4589c2.80718,2.80718 0.21753,5.87789 -3.02983,5.15625c-2.14974,-0.47772 -4.66602,-0.59489 -5.61081,-2.69117c-0.18142,-0.36694 -0.28337,-0.78017 -0.28337,-1.21722c0,-1.51878 1.23122,-2.75 2.75,-2.75c0.40357,0 0.78684,0.08693 1.1321,0.24309c1.70954,0.30559 4.48304,0.70016 5.04192,1.25904z" fill="#ffffff" stroke="none" stroke-width="0.5"/><path d="M252.97996,146.74227c0,-1.51878 1.23122,-2.75 2.75,-2.75c1.51878,0 2.75,1.23122 2.75,2.75c0,1.51878 -1.23122,2.75 -2.75,2.75c-1.51878,0 -2.75,-1.23122 -2.75,-2.75z" fill="#ffffff" stroke="none" stroke-width="0.5"/><path d="M245.86418,151.04484c0.39768,-0.69595 0.53426,-1.65477 1.0894,-2.1922c0.08466,-0.08196 0.17906,-0.15412 0.2856,-0.21405c2.68391,-1.50973 10.67063,1.58426 9.61031,4.76523c-0.29213,0.87639 -1.23909,1.43482 -2.06536,1.84796c-0.38291,0.19146 -7.14714,-1.10451 -7.56567,-1.83694z" fill="#ffffff" stroke="none" stroke-width="0.5"/><path d="M239.26386,169.22589l-4.54358,-7.95127h9.22915l-4.54358,7.95127z" fill="#ff9f09" stroke="#c57d08" stroke-width="2"/><g data-paper-data="{&quot;index&quot;:null}"><path d="M241.56441,156.63043c1.69055,0 3.06101,1.30817 3.06101,2.92187c0,1.6137 -1.37046,2.92187 -3.06101,2.92187c-1.69055,0 -3.06101,-1.30817 -3.06101,-2.92187c0,-1.6137 1.37046,-2.92187 3.06101,-2.92187z" fill="#00a9ff" stroke="#0081c1" stroke-width="1.5"/><path d="M240.47873,161.60774c-0.58044,0 -1.05099,-0.47054 -1.05099,-1.05099c0,-0.58044 0.47054,-1.05099 1.05099,-1.05099c0.58044,0 1.05099,0.47054 1.05099,1.05099c0,0.58044 -0.47054,1.05099 -1.05099,1.05099z" fill="#003e5d" stroke="none" stroke-width="0.5"/></g><g><path d="M238.89213,159.52668c0,1.6137 -1.37046,2.92187 -3.06101,2.92187c-1.69055,0 -3.06101,-1.30817 -3.06101,-2.92187c0,-1.6137 1.37046,-2.92187 3.06101,-2.92187c1.69055,0 3.06101,1.30817 3.06101,2.92187z" fill="#00a9ff" stroke="#0081c1" stroke-width="1.5"/><path d="M235.8658,160.53114c0,-0.58044 0.47054,-1.05099 1.05099,-1.05099c0.58044,0 1.05099,0.47054 1.05099,1.05099c0,0.58044 -0.47054,1.05099 -1.05099,1.05099c-0.58044,0 -1.05099,-0.47054 -1.05099,-1.05099z" fill="#003e5d" stroke="none" stroke-width="0.5"/></g><path d="M222.65139,167.14225c-1.75,0 -1.75,-1.75 -1.75,-1.75l0.04482,-0.17444c-0.14199,-0.61528 -0.28397,-1.23055 -0.42596,-1.84583c0,0 -0.3935,-1.70518 1.31168,-2.09869c1.70518,-0.3935 2.09869,1.31168 2.09869,1.31168c0.14199,0.61528 0.28397,1.23055 0.42596,1.84583l0.04482,0.96145c0,0 0,1.75 -1.75,1.75z" fill="#000000" stroke="none" stroke-width="0.5"/><path d="M228.29116,162.11789c0.28777,0.25824 0.51184,0.66036 0.51184,1.28654c0,1.75 -1.75,1.75 -1.75,1.75l-1.77534,-1.12179c-0.23664,-0.61528 -0.47329,-1.23055 -0.70993,-1.84583c0,0 -0.62821,-1.63335 1.00514,-2.26157c1.63335,-0.62821 2.26157,1.00514 2.26157,1.00514c0.15224,0.39583 0.30449,0.79167 0.45673,1.1875z" fill="#000000" stroke="none" stroke-width="0.5"/><path d="M251.29652,165.79502c-0.64011,-0.96016 -0.22498,-1.70927 0.13205,-2.10817c0,-0.42544 0,-0.85089 0,-1.27633c0,0 0,-1.75 1.75,-1.75c1.75,0 1.75,1.75 1.75,1.75c0,0.70993 0,1.41987 0,2.1298l-1.20524,1.74006c0,0 -1.45609,0.97073 -2.42681,-0.48536z" fill="#000000" stroke="none" stroke-width="0.5"/><path d="M257.43818,167.42621c-1.75,0 -1.75,-1.75 -1.75,-1.75c0,-0.61528 0,-1.51453 0,-2.1298c0,0 0,-1.75 1.75,-1.75c1.75,0 1.75,1.75 1.75,1.75c0,0.61528 0,1.23055 0,1.84583v0.28397c0,0 0,1.75 -1.75,1.75z" fill="#000000" stroke="none" stroke-width="0.5"/><path d="M225.24464,159.11268c0.17413,1.74132 -1.56718,1.91545 -1.56718,1.91545l-1.46932,0.14622l-1.9698,0.1407c-0.04707,0.0038 -0.09466,0.00573 -0.1427,0.00573c-0.9665,0 -1.75,-0.7835 -1.75,-1.75c0,-0.55122 0.25485,-1.04292 0.65316,-1.36369l1.55053,-1.26861c0,0 1.35443,-1.10817 2.46259,0.24626c0.10222,0.12494 0.18349,0.24778 0.2468,0.36784l0.07048,-0.00708c0,0 1.74132,-0.17413 1.91545,1.56718z" fill="#0084ff" stroke="none" stroke-width="0.5"/><path d="M260.4244,160.80233c-0.37963,1.70833 -2.08796,1.3287 -2.08796,1.3287l-1.45165,-0.33211c-0.94133,-0.57218 -2.42018,-0.69164 -2.82399,-1.71654c-0.1195,-0.30329 0.0684,-0.54579 0.35854,-0.76808c-0.47569,-0.19547 -1.00294,-0.62879 -1.00294,-1.58935c0,-1.75 1.75,-1.75 1.75,-1.75h1.98782c0.9665,0 1.75,0.7835 1.75,1.75c0,0.32741 -0.08991,0.63382 -0.2464,0.89589l0.43788,0.09353c0,0 1.70833,0.37963 1.3287,2.08796z" fill="#0084ff" stroke="none" stroke-width="0.5"/><g><path d="M222.99064,195.83298c-2.17786,13.98575 -7.17822,24.81971 -11.16861,24.19833c-3.99039,-0.62138 -5.45974,-12.46281 -3.28188,-26.44856c2.17786,-13.98575 7.17822,-24.81971 11.16861,-24.19833c3.99039,0.62138 5.45974,12.46281 3.28188,26.44856z" fill="#cbcb00" stroke="#a38400" stroke-width="2"/><path d="M224.15995,181.30612c1.22177,1.25291 -0.03114,2.47468 -0.03114,2.47468l-1.82181,1.43809c-2.26039,0.48936 -2.65538,0.95365 -4.98221,-0.31851c-0.33911,-0.1854 -0.20508,-1.07503 -0.58447,-1.00134c-0.9915,0.19258 -1.61029,1.94267 -2.56503,1.61309c-2.57775,-0.88985 -1.76443,-4.2722 -1.63042,-5.93081c0,0 0.16726,-1.74199 1.90925,-1.57473c1.74199,0.16726 1.57473,1.90925 1.57473,1.90925c-0.03758,0.32108 -0.03602,0.65207 -0.05126,0.97881c0.23774,-0.26997 0.51281,-0.46758 0.85594,-0.49437c2.59531,-0.20262 1.8506,2.23838 4.64045,1.41919l0.21129,-0.54448c0,0 1.25291,-1.22177 2.47468,0.03114z" fill="#000000" stroke="none" stroke-width="0.5"/><path d="M222.40425,193.97129c1.38908,1.0644 0.32469,2.45348 0.32469,2.45348l-1.27811,1.62805c-2.58049,1.50787 -5.74766,2.01467 -8.60822,0.00771c-0.47744,-0.33497 0.19476,-1.36173 -0.2569,-1.73072c-0.46463,-0.37958 -1.3181,0.40952 -1.79917,0.05101c-3.0299,-2.25804 -2.07573,-2.87894 -1.24368,-5.55489c0,0 0.65119,-1.62433 2.27552,-0.97314c1.62433,0.65119 0.97314,2.27552 0.97314,2.27552c-1.42102,2.1315 0.60632,0.37957 2.16892,1.63041c0.47961,0.38391 -0.13945,1.42849 0.34114,1.81117c0.65289,0.51987 3.23759,0.41735 3.7631,-0.0776l0.88607,-1.1963c0,0 1.0644,-1.38908 2.45348,-0.32469z" fill="#000000" stroke="none" stroke-width="0.5"/><path d="M219.7936,204.66971c1.52452,0.85927 0.66525,2.38379 0.66525,2.38379l-0.98254,1.52732c-0.86163,0.67871 -1.55178,1.66768 -2.58489,2.03612c-3.55709,1.26856 -6.65342,-2.54355 -9.11625,-4.2889c0,0 -1.42619,-1.01414 -0.41205,-2.44033c1.01414,-1.42619 2.44033,-0.41205 2.44033,-0.41205c2.63254,1.87772 4.57417,5.21619 7.39756,2.44564l0.20879,-0.58633c0,0 0.85927,-1.52452 2.38379,-0.66525z" fill="#000000" stroke="none" stroke-width="0.5"/><path d="M216.90585,213.67052c1.38079,1.07513 0.30566,2.45593 0.30566,2.45593l-1.90948,1.78886c-1.28427,0.27676 -4.39402,1.05223 -5.41934,0.63381c-0.871,-0.35545 -1.10633,-1.52185 -1.65949,-2.28277c0,0 -0.86994,-1.51846 0.64852,-2.38839c1.51846,-0.86994 2.38839,0.64852 2.38839,0.64852c0.25929,1.52576 1.99538,0.25076 3.30308,-0.03229l-0.11327,-0.518c0,0 1.07513,-1.38079 2.45593,-0.30566z" fill="#000000" stroke="none" stroke-width="0.5"/><path d="M222.81266,174.33817c0.90013,1.50076 -0.60063,2.40088 -0.60063,2.40088l-1.14996,0.67303c-3.38541,1.21448 -4.75994,0.4072 -6.76187,-2.51195c0,0 -0.9566,-1.4654 0.5088,-2.42201c1.4654,-0.9566 2.42201,0.5088 2.42201,0.5088c0.83443,1.38461 0.95995,2.17061 2.42871,1.21838l0.75206,-0.46777c0,0 1.50076,-0.90013 2.40088,0.60063z" fill="#000000" stroke="none" stroke-width="0.5"/></g><g data-paper-data="{&quot;index&quot;:null}"><path d="M260.29125,170.12482c3.99039,-0.62139 8.99075,10.21258 11.16861,24.19833c2.17786,13.98575 0.70851,25.82717 -3.28188,26.44856c-3.9904,0.62139 -8.99075,-10.21258 -11.16861,-24.19833c-2.17786,-13.98575 -0.70851,-25.82717 3.28189,-26.44855z" fill="#cbcb00" stroke="#a38400" stroke-width="2"/><path d="M258.31474,182.01538l0.21129,0.54448c2.78985,0.81919 2.04514,-1.62181 4.64045,-1.41918c0.34313,0.02679 0.61821,0.2244 0.85594,0.49437c-0.01523,-0.32674 -0.01368,-0.65773 -0.05125,-0.97881c0,0 -0.16726,-1.74198 1.57473,-1.90924c1.74199,-0.16726 1.90925,1.57473 1.90925,1.57473c0.13401,1.65861 0.94734,5.04096 -1.63041,5.93081c-0.95475,0.32958 -1.57353,-1.4205 -2.56504,-1.61309c-0.37939,-0.07369 -0.24536,0.81594 -0.58446,1.00134c-2.32684,1.27215 -2.72183,0.80787 -4.98221,0.31851l-1.82181,-1.43809c0,0 -1.25291,-1.22177 -0.03114,-2.47468c1.22177,-1.25291 2.47468,-0.03114 2.47468,-0.03114z" fill="#000000" stroke="none" stroke-width="0.5"/><path d="M260.04923,195.03637l0.88608,1.1963c0.52551,0.49496 3.11021,0.59748 3.7631,0.07761c0.48059,-0.38268 -0.13846,-1.42725 0.34114,-1.81116c1.5626,-1.25083 3.58995,0.50109 2.16893,-1.6304c0,0 -0.65119,-1.62434 0.97314,-2.27552c1.62433,-0.65118 2.27552,0.97314 2.27552,0.97314c0.83205,2.67595 1.78622,3.29685 -1.24367,5.55489c-0.48107,0.35852 -1.33454,-0.43058 -1.79917,-0.05101c-0.45167,0.36899 0.22054,1.39575 -0.2569,1.73072c-2.86057,2.00697 -6.02774,1.50016 -8.60822,-0.00771l-1.27812,-1.62805c0,0 -1.06439,-1.38908 0.32469,-2.45349c1.38908,-1.0644 2.45348,0.32469 2.45348,0.32469z" fill="#000000" stroke="none" stroke-width="0.5"/><path d="M262.5902,206.07537l0.20879,0.58633c2.82339,2.77056 4.76502,-0.56791 7.39757,-2.44563c0,0 1.42619,-1.01414 2.44033,0.41205c1.01414,1.42619 -0.41205,2.44033 -0.41205,2.44033c-2.46282,1.74535 -5.55915,5.55747 -9.11624,4.2889c-1.0331,-0.36844 -1.72325,-1.35741 -2.58488,-2.03611l-0.98254,-1.52733c0,0 -0.85927,-1.52451 0.66525,-2.38378c1.52452,-0.85927 2.38378,0.66525 2.38378,0.66525z" fill="#000000" stroke="none" stroke-width="0.5"/><path d="M265.55008,214.71658l-0.11327,0.518c1.3077,0.28305 3.04379,1.55805 3.30309,0.0323c0,0 0.86994,-1.51846 2.38839,-0.64852c1.51846,0.86994 0.64851,2.3884 0.64851,2.3884c-0.55316,0.76092 -0.78848,1.92732 -1.65948,2.28277c-1.02531,0.41842 -4.13507,-0.35705 -5.41934,-0.63381l-1.90948,-1.78886c0,0 -1.07513,-1.38079 0.30566,-2.45592c1.38079,-1.07513 2.45593,0.30566 2.45593,0.30566z" fill="#000000" stroke="none" stroke-width="0.5"/><path d="M259.58823,174.47793l0.75206,0.46777c1.46877,0.95222 1.59428,0.16624 2.42871,-1.21838c0,0 0.95661,-1.46541 2.42201,-0.5088c1.46541,0.9566 0.5088,2.42201 0.5088,2.42201c-2.00193,2.91914 -3.37646,3.72642 -6.76187,2.51195l-1.14996,-0.67303c0,0 -1.50075,-0.90013 -0.60063,-2.40088c0.90013,-1.50075 2.40088,-0.60063 2.40088,-0.60063z" fill="#000000" stroke="none" stroke-width="0.5"/></g><path d="M240.9677,218.37859c0,4.56214 -4.32274,8.26048 -9.65511,8.26048c-5.33237,0 -9.65511,-3.69834 -9.65511,-8.26048c0,-4.56214 4.32274,-8.26048 9.65511,-8.26048c5.33237,0 9.65511,3.69834 9.65511,8.26048z" fill="#ff7474" stroke="#bb5454" stroke-width="1.5"/><path d="M262.86414,218.55104c0,4.56214 -4.32274,8.26048 -9.65511,8.26048c-5.33237,0 -9.65511,-3.69834 -9.65511,-8.26048c0,-4.56214 4.32274,-8.26048 9.65511,-8.26048c5.33237,0 9.65511,3.69834 9.65511,8.26048z" fill="#ff7474" stroke="#bb5454" stroke-width="1.5"/></g></g></svg>