<svg version="1.1" xmlns="http://www.w3.org/2000/svg" xmlns:xlink="http://www.w3.org/1999/xlink" width="117.9617" height="205.6287" viewBox="0,0,117.9617,205.6287"><g transform="translate(-172.00002,-141.08448)"><g data-paper-data="{&quot;isPaintingLayer&quot;:true}" fill-rule="nonzero" stroke-linejoin="miter" stroke-miterlimit="10" stroke-dasharray="" stroke-dashoffset="0" style="mix-blend-mode: normal"><path d="M224.5,206.85417c-3.25,0 -3.25,-3.25 -3.25,-3.25l0.01123,-1.39677c-0.12067,-1.61663 0.55638,-3.66342 -0.56935,-4.82993c-0.74639,-0.77343 -2.215,-0.83468 -2.6695,-1.8087c-0.31787,-0.68122 -0.53836,-7.9662 -0.70981,-8.99665c-0.07619,-0.4579 -0.19582,-0.92354 -0.3497,-1.3909c-1.14426,-0.0708 -2.12824,-0.7337 -2.64928,-1.68604l-1.18658,-2.07652c-0.06822,-0.07892 -0.13647,-0.15716 -0.20472,-0.23475c-0.78674,-0.12553 -1.56932,-0.58718 -2.17356,-1.08638c-0.46766,-0.38636 -0.90025,-0.83067 -1.31196,-1.31193c-2.31915,0.66486 -4.7318,1.06012 -7.49666,0.6519c-1.56143,-0.23054 -3.41064,-0.24586 -4.53595,-1.53401c-0.57181,-0.65456 -0.82523,-1.76672 -1.56133,-2.13266c-0.28627,-0.14231 -0.62831,-0.20221 -1.0058,-0.21458c-0.55525,0.14056 -1.13167,0.21458 -1.72285,0.21458c-0.1856,0 -0.36974,-0.0073 -0.55223,-0.02166c-4.22378,-0.33236 -7.56193,-4.44894 -7.56193,-9.47834c0,-3.09157 1.26134,-5.83823 3.21437,-7.57304c0.24981,-0.28314 0.52834,-0.53242 0.84271,-0.73946c0.2386,-0.15714 0.49144,-0.27345 0.75249,-0.36655c0.81202,-0.42445 1.69454,-0.69728 2.62132,-0.78775c0.50568,-0.26308 1.46931,-3.571 1.85115,-4.1772c1.66598,-2.64489 5.31003,-5.16898 7.87158,-6.66851c3.93062,-2.30097 13.08533,-1.17638 15.58531,-1.1875c4.04631,-0.018 7.5823,-3.20367 11.81778,-3.33333c2.94097,-0.09003 5.95401,-0.7472 8.82593,0c2.43718,0.6341 4.78223,1.99081 7.26246,2c8.44264,0.03129 14.75649,-0.27914 22.5913,1.67695c2.37612,0.59324 5.56366,0.65726 7.42355,2.52373c0.92826,0.93155 1.7752,2.30175 2.49665,3.94715c4.25909,2.07186 9.04955,7.79961 9.76006,11.35218c0.15013,0.75064 -1.32989,2.41563 -1.75201,3.06602c-2.19457,3.38129 -3.63409,4.78402 -6.45176,4.68959c-0.6186,1.90476 -1.5697,3.49436 -2.91411,4.54371c-0.61854,0.48279 -1.5215,-0.13039 -2.22674,0.14484c-0.70524,0.27523 -1.11337,1.40008 -1.85562,1.44836c-3.63718,0.23658 -4.72834,-1.56789 -7.15428,-3.90683c-0.85448,-0.82383 -7.08467,2.84003 -9.55261,3.89732c-3.46646,1.48506 -14.93247,0.45784 -16.77276,0.28365c-1.38945,-0.13152 -2.80011,-0.4819 -4.05708,-1.1875c-0.54811,-0.30768 -2.04928,-3.00763 -3.22905,-3.16293c-0.1808,0.3524 -0.36246,0.7687 -0.59354,0.96677c-1.43982,1.23413 -3.67009,1.55507 -5.52376,1.96699c-1.99797,0.44399 -4.29359,0.27985 -6.53007,0.11715c2.07334,2.98007 3.7951,6.21656 4.38418,9.49824c0.30627,1.70619 0.40451,3.45201 0.39383,5.18543c-0.00384,0.62322 -0.7509,1.27952 -0.43698,1.81792c0.36495,0.62593 1.56213,0.27856 1.99717,0.85796c2.0218,2.69272 1.81504,5.37722 2.09731,8.5034l0.01123,1.93656c0,0 0,3.25 -3.25,3.25z" fill="#fff4ce" stroke="none" stroke-width="0.5" stroke-linecap="butt"/><path d="M285.90263,202.0105c-9.01144,14.06787 -24.41416,20.24597 -32.5526,15.03274c-8.13843,-5.21323 6.06928,-15.84365 15.08072,-29.91151c6.41456,-10.01384 -0.14664,-16.79002 -2.60759,-23.57408c5.63585,-0.31528 11.53827,0.67933 17.25766,1.93634c4.44739,13.07339 7.20774,29.66958 2.82181,36.51651z" fill="#c00000" stroke="#a30000" stroke-width="2.5" stroke-linecap="butt"/><path d="M276.27015,180.12314c0,15.05077 -3.64778,22.9707 -14.35775,35.83391c-2.29611,2.75773 11.46042,61.11794 0.26986,61.5716c-10.29764,0.41746 -18.30739,0.82701 -25.64,0.62839c-10.22821,-0.27705 -19.62226,-1.30383 -27.31426,-1.30383c-8.55337,0 0.39228,-48.6373 -6.05205,-56.83441c-10.03589,-12.76552 -20.6436,-22.26694 -20.6436,-39.89567c0,-5.46757 0.9265,-10.08407 2.6265,-13.96717c4.08993,0.0713 8.17445,0.23522 12.19335,0.60759c5.04919,0.46783 9.72043,1.34063 14.81447,1.34063c4.76978,-0.0158 9.71616,1.48484 14.2793,2.61579c8.26614,2.04872 19.89604,1.70855 26.89102,-3.53768c5.80894,-3.51776 12.46908,-4.10248 19.25227,-3.45058c2.37279,4.34492 3.68089,9.73803 3.68089,16.39143z" fill="#c00000" stroke="#a30000" stroke-width="2.5" stroke-linecap="butt"/><path d="M208.87502,278.45313c0,0 -4.23209,-1.95869 -4.89817,-5.97543c-1.39111,-8.389 0.16529,-23.23356 -0.11509,-30.27404c-0.2893,-7.2647 -1.48675,-19.25053 -1.48675,-19.25053l59.75,-1.5c0,0 0.80023,4.63554 2.04656,10.63648c1.23617,5.95203 2.91932,13.23919 2.72816,20.64641c-0.19103,7.40199 0.04552,17.24125 -0.31514,20.37617c-0.45173,3.92653 -5.20957,6.34094 -5.20957,6.34094c0,0 -15.2764,0.91904 -26.01673,0.73701c-5.98597,-0.10145 -26.48327,-1.73701 -26.48327,-1.73701z" fill="#ededed" stroke="#e0e0e0" stroke-width="2.5" stroke-linecap="butt"/><path d="M232.33786,202.318l-19.6641,-33.70989c4.61235,0.08603 9.37058,1.52093 13.77221,2.61185c7.02959,1.74224 16.49181,1.75687 23.46743,-1.50422l-17.57554,32.9232z" fill="#ffffff" stroke="none" stroke-width="0" stroke-linecap="butt"/><path d="M219.29003,202.1799c0.34322,8.34625 -6.48002,15.40427 -15.24014,15.76451c-8.76012,0.36024 -16.13983,-6.1137 -16.48305,-14.45995c-0.34322,-8.34625 6.48002,-15.40426 15.24014,-15.7645c8.76012,-0.36024 16.13983,6.1137 16.48305,14.45995z" fill="#ff5858" stroke="#000000" stroke-width="2" stroke-linecap="butt"/><path d="M202.34475,198.91172c0.09406,2.28722 -1.74134,4.21999 -4.09948,4.31696c-1.77444,0.07297 -3.20027,-0.66276 -3.90628,-2.1305c-0.23224,-0.48281 3.44705,-1.999 3.44705,-1.999c0,0 -3.64595,-1.46195 -3.40975,-2.00605c0.62364,-1.4366 1.81802,-2.07686 3.52838,-2.14719c2.35814,-0.09697 4.34604,1.67856 4.44009,3.96578z" fill="#000000" stroke="none" stroke-width="0" stroke-linecap="butt"/><path d="M187.80459,191.77744c0,0 1.87882,-3.05854 3.98636,-4.0545c2.42639,-1.14663 10.58324,-2.45785 10.58324,-2.45785l0.3262,-0.10893c0,0 7.93615,0.46416 10.87757,1.46774c2.7361,0.93354 5.74111,4.97517 5.74111,4.97517z" fill="#c00000" stroke="#a30000" stroke-width="2.5" stroke-linecap="butt"/><path d="M285.62334,190.34657c0.34323,8.34625 -6.48002,15.40427 -15.24013,15.76451c-8.76012,0.36024 -16.13983,-6.1137 -16.48305,-14.45995c-0.34322,-8.34625 6.48002,-15.40426 15.24013,-15.7645c8.76011,-0.36024 16.13982,6.1137 16.48305,14.45995z" fill="#ff5858" stroke="#000000" stroke-width="2" stroke-linecap="butt"/><path d="M280.00594,192.68139c0.24262,5.89971 -4.49168,10.88516 -10.57433,11.13529c-4.57705,0.18822 -8.25486,-1.70956 -10.07597,-5.49547c-0.59905,-1.24536 8.89141,-5.15626 8.89141,-5.15626c0,0 -9.40446,-3.771 -8.79521,-5.17446c1.60863,-3.70561 4.68945,-5.35713 9.10119,-5.53855c6.08265,-0.25013 11.2103,4.32975 11.45292,10.22946z" fill="#000000" stroke="none" stroke-width="0" stroke-linecap="butt"/><path d="M256.80458,182.61077c0,0 1.83908,-3.38243 3.90204,-4.48384c2.37506,-1.26805 10.35935,-2.71811 10.35935,-2.71811l0.31931,-0.12046c0,0 7.76827,0.51331 10.64746,1.62316c2.67822,1.03239 5.61966,5.50199 5.61966,5.50199z" fill="#c00000" stroke="#a30000" stroke-width="2.5" stroke-linecap="butt"/><path d="M241.66668,210.80209l-13.83333,3.66666" fill="none" stroke="#000000" stroke-width="2.5" stroke-linecap="round"/><path d="M243.16668,212.96876l-2.33333,-5.66666" fill="none" stroke="#000000" stroke-width="2.5" stroke-linecap="round"/><path d="M173.50002,180.30209l26.83334,0.16666" fill="none" stroke="#000000" stroke-width="3" stroke-linecap="round"/><path d="M282.49475,176.03365l-25.8228,-7.29646" fill="none" stroke="#000000" stroke-width="3" stroke-linecap="round"/><g stroke="#000000" stroke-width="3"><path d="M206.66668,239.96876l-7.33334,52.66667" fill="none" stroke-linecap="round"/><path d="M203.59963,297.36794c0,1.51741 -0.4784,4.34706 -1.04535,5.47725c-0.43309,0.86334 -0.39453,-2.99873 -1.97793,-2.92817c-1.46314,0.06521 -2.11228,4.23663 -2.83386,4.23663c-2.52473,0 -3.28571,-3.03807 -3.28571,-6.78571c0,-3.74765 2.0467,-6.78571 4.57143,-6.78571c2.52473,0 4.57143,3.03807 4.57143,6.78571z" fill="#000000" stroke-linecap="butt"/></g><g data-paper-data="{&quot;index&quot;:null}" stroke="#000000" stroke-width="3"><path d="M257.37772,220.73548l14.04975,51.28509" fill="none" stroke-linecap="round"/><path d="M271.46587,269.94517c2.50374,-0.32489 4.92437,2.42454 5.40664,6.14102c0.48226,3.71649 0.11856,6.82722 -2.38518,7.15212c-0.71558,0.09286 -1.89613,-3.96036 -3.35549,-3.83674c-1.57932,0.13378 -1.04409,3.95878 -1.58467,3.15835c-0.70767,-1.04784 -1.54622,-3.7924 -1.74149,-5.29719c-0.48226,-3.71649 1.15646,-6.99267 3.6602,-7.31757z" fill="#000000" stroke-linecap="butt"/></g><path d="M223.24974,281.78796l-29.34075,52.18861l-5.68548,-0.20647" fill="none" stroke="#000000" stroke-width="3.5" stroke-linecap="round"/><path d="M260.55202,344.96319l-6.85714,-2.71429l0.28571,-63.71429" fill="none" stroke="#000000" stroke-width="3.5" stroke-linecap="round"/><path d="M237.70604,173.07959c-0.25118,1.70298 -1.12271,3.2225 -1.12271,3.2225l-7.16667,0.16667c0,0 6.69652,-1.49064 9.33333,0.83333c2.63681,2.32397 1.23862,4.75728 -1.5,6.83333c-2.73862,2.07605 -8.83333,1 -8.83333,1v-12.73904" fill="none" stroke="#c00000" stroke-width="2.5" stroke-linecap="round"/><path d="M201,156.27083c0,-0.82843 0.67157,-1.5 1.5,-1.5c0.82843,0 1.5,0.67157 1.5,1.5c0,0.82843 -0.67157,1.5 -1.5,1.5c-0.82843,0 -1.5,-0.67157 -1.5,-1.5z" fill="#dcd3b2" stroke="none" stroke-width="0.5" stroke-linecap="butt"/><path d="M218.33333,151.9375c0,-0.82843 0.67157,-1.5 1.5,-1.5c0.82843,0 1.5,0.67157 1.5,1.5c0,0.82843 -0.67157,1.5 -1.5,1.5c-0.82843,0 -1.5,-0.67157 -1.5,-1.5z" fill="#dcd3b2" stroke="none" stroke-width="0.5" stroke-linecap="butt"/><path d="M221.33333,161.27083c0,-0.82843 0.67157,-1.5 1.5,-1.5c0.82843,0 1.5,0.67157 1.5,1.5c0,0.82843 -0.67157,1.5 -1.5,1.5c-0.82843,0 -1.5,-0.67157 -1.5,-1.5z" fill="#dcd3b2" stroke="none" stroke-width="0.5" stroke-linecap="butt"/><path d="M239,153.9375c0,-0.82843 0.67157,-1.5 1.5,-1.5c0.82843,0 1.5,0.67157 1.5,1.5c0,0.82843 -0.67157,1.5 -1.5,1.5c-0.82843,0 -1.5,-0.67157 -1.5,-1.5z" fill="#dcd3b2" stroke="none" stroke-width="0.5" stroke-linecap="butt"/><path d="M237.66667,163.9375c0,-0.82843 0.67157,-1.5 1.5,-1.5c0.82843,0 1.5,0.67157 1.5,1.5c0,0.82843 -0.67157,1.5 -1.5,1.5c-0.82843,0 -1.5,-0.67157 -1.5,-1.5z" fill="#dcd3b2" stroke="none" stroke-width="0.5" stroke-linecap="butt"/><path d="M232.66667,154.27083c0,-0.82843 0.67157,-1.5 1.5,-1.5c0.82843,0 1.5,0.67157 1.5,1.5c0,0.82843 -0.67157,1.5 -1.5,1.5c-0.82843,0 -1.5,-0.67157 -1.5,-1.5z" fill="#dcd3b2" stroke="none" stroke-width="0.5" stroke-linecap="butt"/><path d="M235.16667,147.4375c0.82843,0 1.5,0.67157 1.5,1.5c0,0.82843 -0.67157,1.5 -1.5,1.5c-0.69173,0 -1.27411,-0.46823 -1.44746,-1.10504c-0.17099,0.06779 -0.35742,0.10504 -0.55254,0.10504c-0.82843,0 -1.5,-0.67157 -1.5,-1.5c0,-0.82843 0.67157,-1.5 1.5,-1.5c0.69173,0 1.27411,0.46823 1.44746,1.10504c0.17099,-0.06779 0.35742,-0.10504 0.55254,-0.10504z" fill="#dcd3b2" stroke="none" stroke-width="0.5" stroke-linecap="butt"/><path d="M250.66667,149.27083c0,-0.82843 0.67157,-1.5 1.5,-1.5c0.82843,0 1.5,0.67157 1.5,1.5c0,0.82843 -0.67157,1.5 -1.5,1.5c-0.82843,0 -1.5,-0.67157 -1.5,-1.5z" fill="#dcd3b2" stroke="none" stroke-width="0.5" stroke-linecap="butt"/><path d="M261.33333,151.9375c0,-0.82843 0.67157,-1.5 1.5,-1.5c0.82843,0 1.5,0.67157 1.5,1.5c0,0.82843 -0.67157,1.5 -1.5,1.5c-0.82843,0 -1.5,-0.67157 -1.5,-1.5z" fill="#dcd3b2" stroke="none" stroke-width="0.5" stroke-linecap="butt"/><path d="M270.33333,151.27083c0,-0.82843 0.67157,-1.5 1.5,-1.5c0.82843,0 1.5,0.67157 1.5,1.5c0,0.82843 -0.67157,1.5 -1.5,1.5c-0.82843,0 -1.5,-0.67157 -1.5,-1.5z" fill="#dcd3b2" stroke="none" stroke-width="0.5" stroke-linecap="butt"/><path d="M275.33333,157.27083c0,-0.82843 0.67157,-1.5 1.5,-1.5c0.82843,0 1.5,0.67157 1.5,1.5c0,0.82843 -0.67157,1.5 -1.5,1.5c-0.82843,0 -1.5,-0.67157 -1.5,-1.5z" fill="#dcd3b2" stroke="none" stroke-width="0.5" stroke-linecap="butt"/><path d="M284.33333,158.27083c0,-0.82843 0.67157,-1.5 1.5,-1.5c0.82843,0 1.5,0.67157 1.5,1.5c0,0.82843 -0.67157,1.5 -1.5,1.5c-0.82843,0 -1.5,-0.67157 -1.5,-1.5z" fill="#dcd3b2" stroke="none" stroke-width="0.5" stroke-linecap="butt"/><path d="M262.66667,159.9375c0,-0.69173 0.46823,-1.27411 1.10504,-1.44746c-0.06779,-0.17099 -0.10504,-0.35742 -0.10504,-0.55254c0,-0.82843 0.67157,-1.5 1.5,-1.5c0.82843,0 1.5,0.67157 1.5,1.5c0,0.69173 -0.46823,1.27411 -1.10504,1.44746c0.06779,0.17099 0.10504,0.35742 0.10504,0.55254c0,0.82843 -0.67157,1.5 -1.5,1.5c-0.82843,0 -1.5,-0.67157 -1.5,-1.5z" fill="#dcd3b2" stroke="none" stroke-width="0.5" stroke-linecap="butt"/><path d="M260.66667,146.27083c0,-0.82843 0.67157,-1.5 1.5,-1.5c0.82843,0 1.5,0.67157 1.5,1.5c0,0.82843 -0.67157,1.5 -1.5,1.5c-0.82843,0 -1.5,-0.67157 -1.5,-1.5z" fill="#dcd3b2" stroke="none" stroke-width="0.5" stroke-linecap="butt"/><path d="M256,153.27083c0,-0.82843 0.67157,-1.5 1.5,-1.5c0.82843,0 1.5,0.67157 1.5,1.5c0,0.82843 -0.67157,1.5 -1.5,1.5c-0.82843,0 -1.5,-0.67157 -1.5,-1.5z" fill="#dcd3b2" stroke="none" stroke-width="0.5" stroke-linecap="butt"/><path d="M246.66667,144.27083c0,-0.82843 0.67157,-1.5 1.5,-1.5c0.82843,0 1.5,0.67157 1.5,1.5c0,0.82843 -0.67157,1.5 -1.5,1.5c-0.82843,0 -1.5,-0.67157 -1.5,-1.5z" fill="#dcd3b2" stroke="none" stroke-width="0.5" stroke-linecap="butt"/><path d="M233,142.60417c0,-0.82843 0.67157,-1.5 1.5,-1.5c0.82843,0 1.5,0.67157 1.5,1.5c0,0.82843 -0.67157,1.5 -1.5,1.5c-0.82843,0 -1.5,-0.67157 -1.5,-1.5z" fill="#dcd3b2" stroke="none" stroke-width="0.5" stroke-linecap="butt"/><path d="M238.66667,147.9375c0,-0.82843 0.67157,-1.5 1.5,-1.5c0.47121,0 0.89167,0.21728 1.16667,0.55711c0.27499,-0.33983 0.69546,-0.55711 1.16667,-0.55711c0.82843,0 1.5,0.67157 1.5,1.5c0,0.82843 -0.67157,1.5 -1.5,1.5c-0.47121,0 -0.89167,-0.21728 -1.16667,-0.55711c-0.27499,0.33983 -0.69546,0.55711 -1.16667,0.55711c-0.82843,0 -1.5,-0.67157 -1.5,-1.5z" fill="#dcd3b2" stroke="none" stroke-width="0.5" stroke-linecap="butt"/><path d="M221.33333,144.60417c0,-0.82843 0.67157,-1.5 1.5,-1.5c0.82843,0 1.5,0.67157 1.5,1.5c0,0.82843 -0.67157,1.5 -1.5,1.5c-0.82843,0 -1.5,-0.67157 -1.5,-1.5z" fill="#dcd3b2" stroke="none" stroke-width="0.5" stroke-linecap="butt"/><path d="M224.66667,147.27083c0,-0.82843 0.67157,-1.5 1.5,-1.5c0.82843,0 1.5,0.67157 1.5,1.5c0,0.82843 -0.67157,1.5 -1.5,1.5c-0.82843,0 -1.5,-0.67157 -1.5,-1.5z" fill="#dcd3b2" stroke="none" stroke-width="0.5" stroke-linecap="butt"/><path d="M210.33333,145.27083c0,-0.82843 0.67157,-1.5 1.5,-1.5c0.82843,0 1.5,0.67157 1.5,1.5c0,0.82843 -0.67157,1.5 -1.5,1.5c-0.82843,0 -1.5,-0.67157 -1.5,-1.5z" fill="#dcd3b2" stroke="none" stroke-width="0.5" stroke-linecap="butt"/><path d="M213.33333,148.60417c0,-0.82843 0.67157,-1.5 1.5,-1.5c0.82843,0 1.5,0.67157 1.5,1.5c0,0.82843 -0.67157,1.5 -1.5,1.5c-0.82843,0 -1.5,-0.67157 -1.5,-1.5z" fill="#dcd3b2" stroke="none" stroke-width="0.5" stroke-linecap="butt"/><path d="M200.33333,147.60417c0,-0.82843 0.67157,-1.5 1.5,-1.5c0.82843,0 1.5,0.67157 1.5,1.5c0,0.82843 -0.67157,1.5 -1.5,1.5c-0.82843,0 -1.5,-0.67157 -1.5,-1.5z" fill="#dcd3b2" stroke="none" stroke-width="0.5" stroke-linecap="butt"/><path d="M206.33333,148.9375c0,-0.82843 0.67157,-1.5 1.5,-1.5c0.82843,0 1.5,0.67157 1.5,1.5c0,0.82843 -0.67157,1.5 -1.5,1.5c-0.82843,0 -1.5,-0.67157 -1.5,-1.5z" fill="#dcd3b2" stroke="none" stroke-width="0.5" stroke-linecap="butt"/><path d="M204.33333,145.9375c0,-0.82843 0.67157,-1.5 1.5,-1.5c0.82843,0 1.5,0.67157 1.5,1.5c0,0.82843 -0.67157,1.5 -1.5,1.5c-0.82843,0 -1.5,-0.67157 -1.5,-1.5z" fill="#dcd3b2" stroke="none" stroke-width="0.5" stroke-linecap="butt"/><path d="M206,152.9375c0,-0.82843 0.67157,-1.5 1.5,-1.5c0.82843,0 1.5,0.67157 1.5,1.5c0,0.82843 -0.67157,1.5 -1.5,1.5c-0.82843,0 -1.5,-0.67157 -1.5,-1.5z" fill="#dcd3b2" stroke="none" stroke-width="0.5" stroke-linecap="butt"/><path d="M195.66667,151.9375c0,-0.82843 0.67157,-1.5 1.5,-1.5c0.82843,0 1.5,0.67157 1.5,1.5c0,0.82843 -0.67157,1.5 -1.5,1.5c-0.82843,0 -1.5,-0.67157 -1.5,-1.5z" fill="#dcd3b2" stroke="none" stroke-width="0.5" stroke-linecap="butt"/><path d="M198,157.27083c0,-0.82843 0.67157,-1.5 1.5,-1.5c0.82843,0 1.5,0.67157 1.5,1.5c0,0.82843 -0.67157,1.5 -1.5,1.5c-0.82843,0 -1.5,-0.67157 -1.5,-1.5z" fill="#dcd3b2" stroke="none" stroke-width="0.5" stroke-linecap="butt"/><path d="M191.66667,155.60417c0,-0.82843 0.67157,-1.5 1.5,-1.5c0.82843,0 1.5,0.67157 1.5,1.5c0,0.82843 -0.67157,1.5 -1.5,1.5c-0.82843,0 -1.5,-0.67157 -1.5,-1.5z" fill="#dcd3b2" stroke="none" stroke-width="0.5" stroke-linecap="butt"/><path d="M194,160.60417c0,-0.82843 0.67157,-1.5 1.5,-1.5c0.82843,0 1.5,0.67157 1.5,1.5c0,0.82843 -0.67157,1.5 -1.5,1.5c-0.82843,0 -1.5,-0.67157 -1.5,-1.5z" fill="#dcd3b2" stroke="none" stroke-width="0.5" stroke-linecap="butt"/><path d="M186.66667,159.9375c0,-0.82843 0.67157,-1.5 1.5,-1.5c0.82843,0 1.5,0.67157 1.5,1.5c0,0.82843 -0.67157,1.5 -1.5,1.5c-0.82843,0 -1.5,-0.67157 -1.5,-1.5z" fill="#dcd3b2" stroke="none" stroke-width="0.5" stroke-linecap="butt"/><path d="M199.33333,163.27083c0,-0.82843 0.67157,-1.5 1.5,-1.5c0.82843,0 1.5,0.67157 1.5,1.5c0,0.82843 -0.67157,1.5 -1.5,1.5c-0.82843,0 -1.5,-0.67157 -1.5,-1.5z" fill="#dcd3b2" stroke="none" stroke-width="0.5" stroke-linecap="butt"/><path d="M202.66667,160.60417c0,-0.82843 0.67157,-1.5 1.5,-1.5c0.82843,0 1.5,0.67157 1.5,1.5c0,0.82843 -0.67157,1.5 -1.5,1.5c-0.82843,0 -1.5,-0.67157 -1.5,-1.5z" fill="#dcd3b2" stroke="none" stroke-width="0.5" stroke-linecap="butt"/><path d="M212.66667,164.60417c0,-0.82843 0.67157,-1.5 1.5,-1.5c0.82843,0 1.5,0.67157 1.5,1.5c0,0.82843 -0.67157,1.5 -1.5,1.5c-0.82843,0 -1.5,-0.67157 -1.5,-1.5z" fill="#dcd3b2" stroke="none" stroke-width="0.5" stroke-linecap="butt"/><path d="M211.33333,158.60417c0,-0.82843 0.67157,-1.5 1.5,-1.5c0.82843,0 1.5,0.67157 1.5,1.5c0,0.82843 -0.67157,1.5 -1.5,1.5c-0.82843,0 -1.5,-0.67157 -1.5,-1.5z" fill="#dcd3b2" stroke="none" stroke-width="0.5" stroke-linecap="butt"/><path d="M218,157.9375c0,-0.82843 0.67157,-1.5 1.5,-1.5c0.82843,0 1.5,0.67157 1.5,1.5c0,0.82843 -0.67157,1.5 -1.5,1.5c-0.82843,0 -1.5,-0.67157 -1.5,-1.5z" fill="#dcd3b2" stroke="none" stroke-width="0.5" stroke-linecap="butt"/><path d="M210.33333,155.27083c0,-0.82843 0.67157,-1.5 1.5,-1.5c0.82843,0 1.5,0.67157 1.5,1.5c0,0.82843 -0.67157,1.5 -1.5,1.5c-0.82843,0 -1.5,-0.67157 -1.5,-1.5z" fill="#dcd3b2" stroke="none" stroke-width="0.5" stroke-linecap="butt"/><path d="M227,157.27083c0,1.5 -1.5,1.5 -1.5,1.5h-1.66667c0,0 -1.5,0 -1.5,-1.5c0,-1.5 1.5,-1.5 1.5,-1.5h1.66667c0,0 1.5,0 1.5,1.5z" fill="#dcd3b2" stroke="none" stroke-width="0.5" stroke-linecap="butt"/><path d="M228.33333,164.27083c0,-0.82843 0.67157,-1.5 1.5,-1.5c0.82843,0 1.5,0.67157 1.5,1.5c0,0.82843 -0.67157,1.5 -1.5,1.5c-0.82843,0 -1.5,-0.67157 -1.5,-1.5z" fill="#dcd3b2" stroke="none" stroke-width="0.5" stroke-linecap="butt"/><path d="M220.33333,165.60417c0,-0.82843 0.67157,-1.5 1.5,-1.5c0.82843,0 1.5,0.67157 1.5,1.5c0,0.82843 -0.67157,1.5 -1.5,1.5c-0.82843,0 -1.5,-0.67157 -1.5,-1.5z" fill="#dcd3b2" stroke="none" stroke-width="0.5" stroke-linecap="butt"/><path d="M233.66667,167.27083c0,-0.82843 0.67157,-1.5 1.5,-1.5c0.82843,0 1.5,0.67157 1.5,1.5c0,0.82843 -0.67157,1.5 -1.5,1.5c-0.82843,0 -1.5,-0.67157 -1.5,-1.5z" fill="#dcd3b2" stroke="none" stroke-width="0.5" stroke-linecap="butt"/><path d="M230.66667,160.60417c0,-0.82843 0.67157,-1.5 1.5,-1.5c0.82843,0 1.5,0.67157 1.5,1.5c0,0.82843 -0.67157,1.5 -1.5,1.5c-0.82843,0 -1.5,-0.67157 -1.5,-1.5z" fill="#dcd3b2" stroke="none" stroke-width="0.5" stroke-linecap="butt"/><path d="M240.33333,159.9375c0,-0.82843 0.67157,-1.5 1.5,-1.5c0.82843,0 1.5,0.67157 1.5,1.5c0,0.82843 -0.67157,1.5 -1.5,1.5c-0.82843,0 -1.5,-0.67157 -1.5,-1.5z" fill="#dcd3b2" stroke="none" stroke-width="0.5" stroke-linecap="butt"/><path d="M246.33333,163.9375c0,-0.82843 0.67157,-1.5 1.5,-1.5c0.82843,0 1.5,0.67157 1.5,1.5c0,0.82843 -0.67157,1.5 -1.5,1.5c-0.82843,0 -1.5,-0.67157 -1.5,-1.5z" fill="#dcd3b2" stroke="none" stroke-width="0.5" stroke-linecap="butt"/><path d="M251.33333,160.27083c0,-0.82843 0.67157,-1.5 1.5,-1.5c0.82843,0 1.5,0.67157 1.5,1.5c0,0.82843 -0.67157,1.5 -1.5,1.5c-0.82843,0 -1.5,-0.67157 -1.5,-1.5z" fill="#dcd3b2" stroke="none" stroke-width="0.5" stroke-linecap="butt"/><path d="M243.33333,155.9375c0,-0.82843 0.67157,-1.5 1.5,-1.5c0.82843,0 1.5,0.67157 1.5,1.5c0,0.82843 -0.67157,1.5 -1.5,1.5c-0.82843,0 -1.5,-0.67157 -1.5,-1.5z" fill="#dcd3b2" stroke="none" stroke-width="0.5" stroke-linecap="butt"/><path d="M258.92302,160.07851c-0.47434,1.42302 -1.89737,0.94868 -1.89737,0.94868l-1.99653,-1.46218c-0.11111,-0.55556 -0.22222,-1.11111 -0.33333,-1.66667c0,0 -0.29417,-1.47087 1.1767,-1.76505c1.47087,-0.29417 1.76505,1.1767 1.76505,1.1767c0.11111,0.55556 0.22222,1.11111 0.33333,1.66667l0.00347,-0.79552c0,0 1.42302,0.47434 0.94868,1.89737z" fill="#dcd3b2" stroke="none" stroke-width="0.5" stroke-linecap="butt"/><path d="M246,152.60417c0,-0.82843 0.67157,-1.5 1.5,-1.5c0.82843,0 1.5,0.67157 1.5,1.5c0,0.82843 -0.67157,1.5 -1.5,1.5c-0.82843,0 -1.5,-0.67157 -1.5,-1.5z" fill="#dcd3b2" stroke="none" stroke-width="0.5" stroke-linecap="butt"/><path d="M254.66667,146.9375c0,-0.82843 0.67157,-1.5 1.5,-1.5c0.82843,0 1.5,0.67157 1.5,1.5c0,0.82843 -0.67157,1.5 -1.5,1.5c-0.82843,0 -1.5,-0.67157 -1.5,-1.5z" fill="#dcd3b2" stroke="none" stroke-width="0.5" stroke-linecap="butt"/><path d="M229.66667,152.27083c0,-0.82843 0.67157,-1.5 1.5,-1.5c0.82843,0 1.5,0.67157 1.5,1.5c0,0.82843 -0.67157,1.5 -1.5,1.5c-0.82843,0 -1.5,-0.67157 -1.5,-1.5z" fill="#dcd3b2" stroke="none" stroke-width="0.5" stroke-linecap="butt"/><path d="M226,152.27083c0,-0.82843 0.67157,-1.5 1.5,-1.5c0.82843,0 1.5,0.67157 1.5,1.5c0,0.82843 -0.67157,1.5 -1.5,1.5c-0.82843,0 -1.5,-0.67157 -1.5,-1.5z" fill="#dcd3b2" stroke="none" stroke-width="0.5" stroke-linecap="butt"/><path d="M226.33333,143.27083c0,-0.82843 0.67157,-1.5 1.5,-1.5c0.82843,0 1.5,0.67157 1.5,1.5c0,0.82843 -0.67157,1.5 -1.5,1.5c-0.82843,0 -1.5,-0.67157 -1.5,-1.5z" fill="#dcd3b2" stroke="none" stroke-width="0.5" stroke-linecap="butt"/><path d="M216.33333,147.27083c0,-0.82843 0.67157,-1.5 1.5,-1.5c0.82843,0 1.5,0.67157 1.5,1.5c0,0.82843 -0.67157,1.5 -1.5,1.5c-0.82843,0 -1.5,-0.67157 -1.5,-1.5z" fill="#dcd3b2" stroke="none" stroke-width="0.5" stroke-linecap="butt"/><path d="M241.66667,143.9375c0,-0.82843 0.67157,-1.5 1.5,-1.5c0.82843,0 1.5,0.67157 1.5,1.5c0,0.82843 -0.67157,1.5 -1.5,1.5c-0.82843,0 -1.5,-0.67157 -1.5,-1.5z" fill="#dcd3b2" stroke="none" stroke-width="0.5" stroke-linecap="butt"/><path d="M273.33333,159.9375c0,-0.82843 0.67157,-1.5 1.5,-1.5c0.82843,0 1.5,0.67157 1.5,1.5c0,0.82843 -0.67157,1.5 -1.5,1.5c-0.82843,0 -1.5,-0.67157 -1.5,-1.5z" fill="#dcd3b2" stroke="none" stroke-width="0.5" stroke-linecap="butt"/><path d="M279,160.27083c0,-0.82843 0.67157,-1.5 1.5,-1.5c0.82843,0 1.5,0.67157 1.5,1.5c0,0.82843 -0.67157,1.5 -1.5,1.5c-0.82843,0 -1.5,-0.67157 -1.5,-1.5z" fill="#dcd3b2" stroke="none" stroke-width="0.5" stroke-linecap="butt"/><path d="M280.33333,156.9375c0,-0.82843 0.67157,-1.5 1.5,-1.5c0.82843,0 1.5,0.67157 1.5,1.5c0,0.82843 -0.67157,1.5 -1.5,1.5c-0.82843,0 -1.5,-0.67157 -1.5,-1.5z" fill="#dcd3b2" stroke="none" stroke-width="0.5" stroke-linecap="butt"/><path d="M277,152.60417c0,-0.82843 0.67157,-1.5 1.5,-1.5c0.82843,0 1.5,0.67157 1.5,1.5c0,0.82843 -0.67157,1.5 -1.5,1.5c-0.82843,0 -1.5,-0.67157 -1.5,-1.5z" fill="#dcd3b2" stroke="none" stroke-width="0.5" stroke-linecap="butt"/><path d="M274,149.27083c0,-0.82843 0.67157,-1.5 1.5,-1.5c0.82843,0 1.5,0.67157 1.5,1.5c0,0.82843 -0.67157,1.5 -1.5,1.5c-0.82843,0 -1.5,-0.67157 -1.5,-1.5z" fill="#dcd3b2" stroke="none" stroke-width="0.5" stroke-linecap="butt"/><path d="M271,147.27083c0,-0.82843 0.67157,-1.5 1.5,-1.5c0.82843,0 1.5,0.67157 1.5,1.5c0,0.82843 -0.67157,1.5 -1.5,1.5c-0.82843,0 -1.5,-0.67157 -1.5,-1.5z" fill="#dcd3b2" stroke="none" stroke-width="0.5" stroke-linecap="butt"/><path d="M266.66667,148.27083c0,-0.82843 0.67157,-1.5 1.5,-1.5c0.82843,0 1.5,0.67157 1.5,1.5c0,0.82843 -0.67157,1.5 -1.5,1.5c-0.82843,0 -1.5,-0.67157 -1.5,-1.5z" fill="#dcd3b2" stroke="none" stroke-width="0.5" stroke-linecap="butt"/><path d="M266.33333,151.60417c0,-0.82843 0.67157,-1.5 1.5,-1.5c0.82843,0 1.5,0.67157 1.5,1.5c0,0.82843 -0.67157,1.5 -1.5,1.5c-0.82843,0 -1.5,-0.67157 -1.5,-1.5z" fill="#dcd3b2" stroke="none" stroke-width="0.5" stroke-linecap="butt"/><path d="M272,155.27083c0,-0.82843 0.67157,-1.5 1.5,-1.5c0.82843,0 1.5,0.67157 1.5,1.5c0,0.5415 -0.28693,1.01599 -0.71706,1.2797c0.03287,0.12345 0.05039,0.25316 0.05039,0.38696c0,0.82843 -0.67157,1.5 -1.5,1.5c-0.82843,0 -1.5,-0.67157 -1.5,-1.5c0,-0.5415 0.28693,-1.01599 0.71706,-1.2797c-0.03287,-0.12345 -0.05039,-0.25316 -0.05039,-0.38696z" fill="#dcd3b2" stroke="none" stroke-width="0.5" stroke-linecap="butt"/><path d="M267.33333,158.60417c0,-0.82843 0.67157,-1.5 1.5,-1.5c0.82843,0 1.5,0.67157 1.5,1.5c0,0.82843 -0.67157,1.5 -1.5,1.5c-0.82843,0 -1.5,-0.67157 -1.5,-1.5z" fill="#dcd3b2" stroke="none" stroke-width="0.5" stroke-linecap="butt"/></g></g></svg>