<svg version="1.1" xmlns="http://www.w3.org/2000/svg" xmlns:xlink="http://www.w3.org/1999/xlink" width="101.72101" height="134.12225" viewBox="0,0,101.72101,134.12225"><defs><linearGradient x1="259.68338" y1="90.32338" x2="259.68338" y2="199.83206" gradientUnits="userSpaceOnUse" id="color-1"><stop offset="0" stop-color="#c70000"/><stop offset="1" stop-color="#750000"/></linearGradient><radialGradient cx="240" cy="180" r="43.32063" gradientUnits="userSpaceOnUse" id="color-2"><stop offset="0" stop-color="#ffffff"/><stop offset="1" stop-color="#ca2121"/></radialGradient></defs><g transform="translate(-196.9171,-90.19838)"><g data-paper-data="{&quot;isPaintingLayer&quot;:true}" fill-rule="nonzero" stroke-linejoin="miter" stroke-miterlimit="10" stroke-dasharray="" stroke-dashoffset="0" style="mix-blend-mode: normal"><g><path d="M220.85366,199.83206l1.49388,-37.34691c0,0 14.43774,-16.29845 33.93662,-18.61735c11.52743,-1.3709 14.11614,-1.99481 19.47643,-7.82793c16.90701,-18.39836 2.76893,-32.15708 -1.0762,-41.73083c-2.822,-7.02632 6.69045,-2.79331 9.22398,-1.97586c0.99863,0.32221 6.96154,7.6955 9.36572,12.82035c1.6451,3.50676 3.93554,29.71311 5.15581,39.83976c0.35754,2.9671 0.09517,21.06341 -12.08007,32.51805c-20.22043,19.02367 -65.49617,22.32073 -65.49617,22.32073z" fill="url(#color-1)" stroke="#710000" stroke-width="0.25" stroke-linecap="butt"/><path d="M282.0829,180c0,23.92532 -18.84116,43.32063 -42.0829,43.32063c-23.24174,0 -42.0829,-19.39531 -42.0829,-43.32063c0,-23.92532 18.84116,-43.32063 42.0829,-43.32063c23.24174,0 42.0829,19.39531 42.0829,43.32063z" fill="url(#color-2)" stroke="#ff2727" stroke-width="2" stroke-linecap="butt"/><path d="M261.92853,181.65535c0,12.79216 -9.73519,23.16225 -21.74416,23.16225c-12.00897,0 -21.74416,-10.37009 -21.74416,-23.16225c0,-12.79216 9.73519,-23.16225 21.74416,-23.16225c12.00897,0 21.74416,10.37009 21.74416,23.16225z" fill="#0079ff" stroke="none" stroke-width="0" stroke-linecap="butt"/><path d="M251.18572,182.77755c0,6.36415 -4.91152,11.52331 -10.97019,11.52331c-6.05867,0 -10.97019,-5.15916 -10.97019,-11.52331c0,-6.36415 4.91152,-11.52331 10.97019,-11.52331c6.05867,0 10.97019,5.15916 10.97019,11.52331z" fill="#000000" stroke="none" stroke-width="0" stroke-linecap="butt"/><path d="M257.45441,174.66514c0,5.65137 -4.12733,10.2327 -9.21865,10.2327c-5.09132,0 -9.21865,-4.58134 -9.21865,-10.2327c0,-5.65137 4.12733,-10.2327 9.21865,-10.2327c5.09132,0 9.21865,4.58134 9.21865,10.2327z" fill="#ffffff" stroke="none" stroke-width="0" stroke-linecap="butt"/><path d="M202.15519,199.35314l5.54941,-8.47015l-0.87622,-9.34637l5.54941,4.96526" fill="none" stroke="#710000" stroke-width="1" stroke-linecap="round"/><path d="M242.21322,223.7976l1.10678,-8.57992l-4.06514,-6.86951l5.99916,1.76249" fill="none" stroke="#710000" stroke-width="1" stroke-linecap="round"/><path d="M238.18376,138.0843l0.26827,8.64685l5.10338,6.13767l-6.20278,-0.78852" fill="none" stroke="#710000" stroke-width="1" stroke-linecap="round"/><path d="M281.26461,173.33862l-8.65057,-0.08766l-6.34241,4.84658l1.04302,-6.16509" fill="none" stroke="#710000" stroke-width="1" stroke-linecap="round"/><path d="M217.74256,144.31763l3.33075,10.3159l-2.89805,3.08054l7.66003,-1.82261l-3.80476,4.38781" fill="none" stroke="#710000" stroke-width="1" stroke-linecap="round"/><path d="M268.78471,212.35646l-6.01943,-9.01544l1.94741,-3.75447l-6.87192,3.84378l2.46296,-5.25956" fill="none" stroke="#710000" stroke-width="1" stroke-linecap="round"/><path d="M201.82879,161.98119l4.30189,4.15332l2.02641,5.97436l5.07968,-3.51099l1.5971,6.00822" fill="none" stroke="#710000" stroke-width="1" stroke-linecap="round"/><path d="M271.27355,151.27264l-3.91555,4.51937l-5.85652,2.3453l3.77952,4.88317l-5.91346,1.91843" fill="none" stroke="#710000" stroke-width="1" stroke-linecap="round"/><path d="M212.24388,212.76952l3.81674,-3.87212l5.45098,-1.7861l-3.1443,-4.65153l5.47772,-1.39545" fill="none" stroke="#710000" stroke-width="1" stroke-linecap="round"/></g></g></g></svg>