<svg version="1.1" xmlns="http://www.w3.org/2000/svg" xmlns:xlink="http://www.w3.org/1999/xlink" width="111.50328" height="103.50189" viewBox="0,0,111.50328,103.50189"><defs><radialGradient cx="253.71429" cy="180.83036" r="12.14286" gradientUnits="userSpaceOnUse" id="color-1"><stop offset="0" stop-color="#532e16"/><stop offset="1" stop-color="#422512"/></radialGradient></defs><g transform="translate(-202.99603,-124.59399)"><g data-paper-data="{&quot;isPaintingLayer&quot;:true}" fill-rule="nonzero" stroke-linejoin="miter" stroke-miterlimit="10" stroke-dasharray="" stroke-dashoffset="0" style="mix-blend-mode: normal"><path d="M243.78571,192.97321v-24.28571h19.85714v24.28571z" fill="url(#color-1)" stroke="#532e16" stroke-width="2.5" stroke-linecap="butt"/><path d="M255.29453,211.65388c0,1.57268 0.03045,3.42403 -0.25921,4.9154c-0.30853,1.58849 -0.94909,2.76857 -1.32277,2.76857c-0.33938,0 -0.84534,-0.76691 -1.12326,-1.91604c-0.31541,-1.30413 -0.38156,-3.10056 -0.38156,-4.82704c0,-1.34728 -0.04662,-5.35088 0.13117,-7.0057c0.25079,-2.33429 0.79534,-2.16803 1.21932,-2.16803c0.36783,0 1.07979,0.0303 1.42572,1.72036c0.33546,1.63895 0.31061,4.91352 0.31061,6.51248z" fill="#ffbf68" stroke="#dea75b" stroke-width="1.5" stroke-linecap="butt"/><path d="M260.83441,218.43679c0,1.82342 0.03531,3.96995 -0.30054,5.6991c-0.35772,1.84175 -1.10041,3.20999 -1.53368,3.20999c-0.39349,0 -0.98011,-0.88918 -1.30235,-2.22153c-0.3657,-1.51206 -0.4424,-3.59491 -0.4424,-5.59665c0,-1.56209 -0.05406,-6.20401 0.15208,-8.12267c0.29077,-2.70646 0.92215,-2.51369 1.41372,-2.51369c0.42648,0 1.25195,0.03513 1.65303,1.99465c0.38895,1.90026 0.36013,5.69692 0.36013,7.55081z" fill="#ffbf68" stroke="#dea75b" stroke-width="1.5" stroke-linecap="butt"/><path d="M226.11689,211.11015c0,1.82342 0.03531,3.96995 -0.30054,5.6991c-0.35772,1.84175 -1.10041,3.20999 -1.53368,3.20999c-0.3935,0 -0.98011,-0.88918 -1.30235,-2.22153c-0.36569,-1.51206 -0.4424,-3.59491 -0.4424,-5.59665c0,-1.56209 -0.05406,-6.20401 0.15208,-8.12267c0.29077,-2.70646 0.92215,-2.51369 1.41372,-2.51369c0.42648,0 1.25195,0.03513 1.65303,1.99465c0.38895,1.90026 0.36013,5.69692 0.36013,7.55081z" fill="#ffbf68" stroke="#dea75b" stroke-width="1.5" stroke-linecap="butt"/><path d="M268.42171,190.37245l42.85734,14.72202l-6.36285,12.42668c-0.04436,-0.05765 -0.08941,-0.11414 -0.13517,-0.16941c-0.58421,-0.70573 -1.83553,-0.40711 -2.58483,-0.93427c-0.74931,-0.52716 -0.891,-1.80579 -1.75262,-2.11721c-3.66677,-1.32532 -19.39311,1.93572 -22.93765,5.26086c-0.9052,0.84916 -1.53745,1.79673 -1.99141,2.81151l-12.93729,-22.15311z" fill="#774220" stroke="#532e16" stroke-width="2.5" stroke-linecap="butt"/><path d="M213.93959,209.54901c0,0 -4.89384,-9.84606 -6.65084,-19.03043c2.20849,-0.61715 3.82117,-3.35212 4.53777,-5.42909c0.27957,-0.81028 -1.86398,-3.56002 -1.61458,-3.79213c1.41975,-1.32133 3.11432,-4.58093 1.1972,-6.40711c-0.74404,-0.70874 -2.37964,-0.77419 -2.50706,-1.79383c-0.08542,-0.68352 0.49073,-2.22208 -0.25235,-2.95233c-0.76257,-0.7494 1.38942,-1.68824 1.72752,-2.70254c0.97162,-2.91486 4.45219,-2.54809 4.45219,-6.73242c0,-2.15534 -1.8516,-3.9417 -4.08772,-5.10274c1.22551,-3.2134 2.81986,-6.41653 4.89408,-9.51706c8.9983,-13.45057 12.51892,-11.27759 19.86727,-11.49257c8.91346,-0.26076 22.33112,1.03397 28.61883,10.76561c2.02704,3.1373 3.80485,7.29377 5.28345,11.84776c-2.58929,1.1941 -6.89177,4.00305 -4.51793,7.72147c0.10273,0.16092 0.22038,0.31838 0.35095,0.47083c-0.45697,0.32726 -0.87709,0.90413 -0.71118,1.89959c0.3288,1.97279 2.30159,1.64399 2.30159,1.64399l1.83821,-0.60427c0.24013,-0.21717 0.59544,-0.57747 0.99873,-1.02353c0.80567,-0.07038 1.57485,-0.38931 2.19677,-1.04336c1.5724,7.03063 2.43671,14.06095 2.43671,19.14749c0,8.84089 -7.99646,24.6113 -7.99646,24.6113c0,0 -18.84963,2.66548 -28.1218,2.66548c-8.10568,0 -24.24136,-3.15012 -24.24136,-3.15012zM245.7761,178.40528c0.19546,1.12733 2.08195,0.94964 3.12292,1.42446c3.22412,1.62693 -2.49279,11.9634 4.84534,11.55705c4.31047,-0.23869 1.98241,-3.15022 3.01909,-4.86293c0.6455,-1.06644 2.56171,-0.45791 3.52493,-1.24923c1.41045,-1.15874 2.79595,-4.05892 2.78303,-5.86511c-0.03067,-4.28969 -3.28123,-3.88992 -5.56297,-6.25594c-0.65258,-0.67668 -0.70954,-1.97413 -1.57602,-2.33878c-1.29985,-0.54704 -2.90422,-0.58658 -4.22952,-0.10447c-1.16904,0.42526 -1.77668,1.74168 -2.66501,2.61252c0,0 -0.21249,0.22767 -0.37994,0.58718c-1.73651,0.8662 -3.22422,2.5206 -2.88185,4.49524z" fill="#774220" stroke="#532e16" stroke-width="2.5" stroke-linecap="butt"/><path d="M247.10731,185.965c0,2.00386 -2.80588,3.62832 -6.2671,3.62832c-3.46122,0 -6.2671,-1.62446 -6.2671,-3.62832c0,-2.00386 2.80588,-3.62832 6.2671,-3.62832c3.46122,0 6.2671,1.62446 6.2671,3.62832z" fill="#0a0a0a" stroke="none" stroke-width="0" stroke-linecap="butt"/><path d="M240.65718,187.9531l-0.1367,7.58699c0,0 -2.38558,-0.67586 -3.62494,-0.5757c-1.30604,0.10554 -3.81962,1.16289 -3.81962,1.16289" fill="none" stroke="#0a0a0a" stroke-width="2" stroke-linecap="round"/><path d="M248.32613,195.30975c0,0 -2.27637,-0.28874 -3.46388,-0.27517c-1.1984,0.01369 -3.69414,0.6868 -3.69414,0.6868l0.14876,-6.43134" fill="none" stroke="#0a0a0a" stroke-width="2" stroke-linecap="round"/><path d="M210.16668,170.40775l1.88889,-2.22222l18.88889,-0.77778l-2.66667,3z" data-paper-data="{&quot;index&quot;:null}" fill="#0a0a0a" stroke="none" stroke-width="0" stroke-linecap="butt"/><path d="M222.60267,136.11005c2.18446,1.55174 -1.78794,3.07197 -3.68045,4.06254c-1.1174,0.58486 -2.85602,1.78002 -6.35349,1.75018c-1.84949,-0.01578 -5.48223,-0.81775 -8.00699,-1.40566c1.34469,-2.23414 3.29632,-5.4715 2.87557,-8.12301c-0.04443,-0.27999 -0.19385,-0.51963 -0.38402,-0.74341c3.8569,0.87074 13.68072,3.13193 15.54939,4.45935z" data-paper-data="{&quot;index&quot;:null}" fill="#774220" stroke="#532e16" stroke-width="2" stroke-linecap="butt"/><path d="M269.64133,147.49665c-3.29059,0.28575 -4.59503,-1.55054 -5.24415,-2.51025c-0.74818,-1.1062 -1.97283,-2.41011 1.28639,-4.70571c0.83877,-0.59078 2.2206,-1.32204 3.74288,-2.05925c0.66226,3.24836 2.69179,6.16518 5.42541,8.44706c-1.86771,0.39889 -3.75799,0.70201 -5.21052,0.82815z" data-paper-data="{&quot;index&quot;:null}" fill="#774220" stroke="#532e16" stroke-width="2" stroke-linecap="butt"/><path d="M220.54137,152.67917c-1.80405,0.77316 -5.56896,4.35659 -7.4456,3.25071c-0.77735,-0.45808 -2.58118,-1.72836 -2.72853,-2.61484c-0.54427,-3.27441 2.67195,-10.42782 6.34128,-12.03793c0.16295,-0.71924 0.37511,-1.40216 0.62214,-2.01364c0.09726,-2.76273 1.47788,-5.36632 3.70423,-7.02622c0.55234,-0.41181 2.84886,-0.47621 3.10703,-0.96311c0.62294,-1.17487 0.4883,-1.93663 1.17407,-2.83414c3.48704,-4.56365 10.09485,-0.66863 14.49112,-1.99314c2.58863,-0.7799 3.39524,-2.48805 6.99321,-1.50679c1.15312,0.31449 1.46715,2.20073 2.06295,3.09443h1.97031c1.05307,-0.70205 3.70641,0.88164 4.86928,1.36331c3.61481,1.4973 7.00325,5.47141 6.89403,9.45232c0.96832,0.86889 1.76827,1.89079 2.23149,3.03751c4.14673,2.71684 6.01895,10.83495 1.82845,13.22952c-2.83419,1.61954 -3.84029,-1.62591 -5.2663,-2.4708c-0.99368,-0.58874 -2.31455,0.05858 -3.4578,0.2228c-3.66124,0.52591 -4.19547,2.41617 -7.00065,3.11599c-4.63935,1.15739 -13.74147,0.27519 -15.24679,0.26821c-1.33113,-0.00617 -2.68878,-0.55456 -4.01758,-0.49923c-1.80192,0.07503 -2.23998,2.83274 -4.75533,1.80124c-3.54017,-1.45176 -1.95661,-6.27493 -5.32129,-5.31359z" fill="#8e2626" stroke="none" stroke-width="0.5" stroke-linecap="butt"/><path d="" fill="#8e2626" stroke="none" stroke-width="0.5" stroke-linecap="butt"/><path d="M208.29072,142.92778c-1.05462,0.54769 -2.79465,1.21408 -4.63361,1.63577c0.20292,-1.31023 0.14203,-2.77665 0.75203,-3.79268c1.34333,-2.23749 3.46513,-5.62306 3.02817,-8.37676c-0.14715,-0.92734 -1.44604,-1.41206 -1.5625,-2.34375c-0.12241,-0.9793 0.74415,-1.96991 0.88517,-2.91524c0.01765,0.02556 0.03479,0.05142 0.05143,0.07756c0.17492,-0.01602 0.35212,-0.02421 0.53122,-0.02421c3.17564,0 5.75,2.57436 5.75,5.75c0,0.6025 -0.09267,1.18335 -0.26452,1.72909c-0.14566,0.46255 -0.34821,0.89988 -0.59945,1.30377c-1.27,2.83383 -0.78362,5.31835 -3.93794,6.95646z" fill="#8e2626" stroke="none" stroke-width="0.5" stroke-linecap="butt"/><path d="M313.52764,202.04426c0.15501,0.18985 0.2886,0.40893 0.40274,0.65253c0.18036,0.34028 0.31095,0.71435 0.38056,1.11433c0.01771,0.10174 0.03114,0.20324 0.04042,0.30432c0.48674,2.81028 -0.3266,6.95637 -1.00422,9.01739c-0.98125,2.98454 -3.46939,5.88431 -5.48336,8.26576c-0.31987,0.37825 -0.59773,0.79978 -0.85267,1.2426c-0.47886,-2.05102 -1.1621,-3.99929 -2.23008,-5.28945c-0.58421,-0.70573 -1.83553,-0.40711 -2.58483,-0.93427c-0.74931,-0.52716 -0.891,-1.80579 -1.75262,-2.11721c-3.66677,-1.32532 -19.39311,1.93572 -22.93765,5.26086c-1.80405,1.69238 -2.52398,3.77564 -2.909,6.00273c-0.73796,-1.47979 -1.4618,-2.97307 -1.52348,-4.66505c-0.03429,-0.94056 3.27746,-5.20244 4.21879,-6.0977c0.43951,-0.418 1.87829,-0.20232 1.65113,-0.76472c-0.37822,-0.93642 0.57332,-3.32635 1.32397,-3.94773c2.7537,-2.2795 4.38824,1.29947 5.91011,2.221c1.05199,0.63701 1.92771,-1.58186 3.06071,-2.06017c1.38006,-0.58262 3.41504,-3.56729 4.38415,-4.76589c1.91626,-2.37005 9.24829,-3.68876 11.92291,-4.8745c0.96908,-0.42962 2.77474,-0.25308 3.57364,0.40609c0.268,-0.11646 0.55399,-0.20322 0.85462,-0.25554c1.20229,-0.20925 2.37039,0.17915 3.1998,0.95098c0.12991,0.09458 0.24892,0.20452 0.35435,0.33364z" fill="#8e2626" stroke="none" stroke-width="0.5" stroke-linecap="butt"/><path d="M240.88705,199.4941c-0.08907,0.52952 -0.17965,1.15526 -0.39992,1.63456c-0.23462,0.51051 -0.60178,0.85732 -0.77699,0.82785c-0.15912,-0.02677 -0.3529,-0.32488 -0.41812,-0.73371c-0.07402,-0.46397 -0.00329,-1.07404 0.09449,-1.65534c0.07631,-0.45363 0.2812,-1.8053 0.45828,-2.34845c0.24979,-0.76617 0.49569,-0.66724 0.69447,-0.6338c0.17246,0.02901 0.50454,0.09536 0.57101,0.69168c0.06446,0.57829 -0.13266,1.67886 -0.22322,2.21723z" fill="#ffbf68" stroke="#dea75b" stroke-width="0.5" stroke-linecap="butt"/><path d="M240.18452,198.99258l-0.46667,2.73333" fill="none" stroke="#dea75b" stroke-width="0.5" stroke-linecap="round"/><path d="M227.43452,128.94049c0,-0.55228 0.44772,-1 1,-1c0.55228,0 1,0.44772 1,1c0,0.55228 -0.44772,1 -1,1c-0.55228,0 -1,-0.44772 -1,-1z" fill="#000000" stroke="none" stroke-width="0.5" stroke-linecap="butt"/><path d="M243.76785,145.94049c0,-0.55228 0.44772,-1 1,-1c0.55228,0 1,0.44772 1,1c0,0.55228 -0.44772,1 -1,1c-0.55228,0 -1,-0.44772 -1,-1z" fill="#000000" stroke="none" stroke-width="0.5" stroke-linecap="butt"/><path d="M250.60119,131.10716c0,-0.55228 0.44772,-1 1,-1c0.55228,0 1,0.44772 1,1c0,0.55228 -0.44772,1 -1,1c-0.55228,0 -1,-0.44772 -1,-1z" fill="#000000" stroke="none" stroke-width="0.5" stroke-linecap="butt"/><path d="M232.60119,140.77382c0,-0.55228 0.44772,-1 1,-1c0.55228,0 1,0.44772 1,1c0,0.55228 -0.44772,1 -1,1c-0.55228,0 -1,-0.44772 -1,-1z" fill="#000000" stroke="none" stroke-width="0.5" stroke-linecap="butt"/><path d="M247.60119,138.10716c0,-0.55228 0.44772,-1 1,-1c0.55228,0 1,0.44772 1,1c0,0.55228 -0.44772,1 -1,1c-0.55228,0 -1,-0.44772 -1,-1z" fill="#000000" stroke="none" stroke-width="0.5" stroke-linecap="butt"/><path d="M258.60119,147.94049c0,-0.55228 0.44772,-1 1,-1c0.55228,0 1,0.44772 1,1c0,0.55228 -0.44772,1 -1,1c-0.55228,0 -1,-0.44772 -1,-1z" fill="#000000" stroke="none" stroke-width="0.5" stroke-linecap="butt"/><path d="M233.26785,150.94049c0,-0.55228 0.44772,-1 1,-1c0.55228,0 1,0.44772 1,1c0,0.55228 -0.44772,1 -1,1c-0.55228,0 -1,-0.44772 -1,-1z" fill="#000000" stroke="none" stroke-width="0.5" stroke-linecap="butt"/><path d="M218.26785,143.60716c0,-0.55228 0.44772,-1 1,-1c0.55228,0 1,0.44772 1,1c0,0.55228 -0.44772,1 -1,1c-0.55228,0 -1,-0.44772 -1,-1z" fill="#000000" stroke="none" stroke-width="0.5" stroke-linecap="butt"/><path d="M214.26785,149.44049c0,-0.55228 0.44772,-1 1,-1c0.55228,0 1,0.44772 1,1c0,0.55228 -0.44772,1 -1,1c-0.55228,0 -1,-0.44772 -1,-1z" fill="#000000" stroke="none" stroke-width="0.5" stroke-linecap="butt"/><path d="" fill="#000000" stroke="none" stroke-width="0.5" stroke-linecap="butt"/><path d="" fill="#000000" stroke="none" stroke-width="0.5" stroke-linecap="butt"/><path d="" fill="#000000" stroke="none" stroke-width="0.5" stroke-linecap="butt"/><path d="" fill="#000000" stroke="none" stroke-width="0.5" stroke-linecap="butt"/><path d="M206.76785,130.60716c0,-0.55228 0.44772,-1 1,-1c0.55228,0 1,0.44772 1,1c0,0.55228 -0.44772,1 -1,1c-0.55228,0 -1,-0.44772 -1,-1z" fill="#000000" stroke="none" stroke-width="0.5" stroke-linecap="butt"/><path d="" fill="#000000" stroke="none" stroke-width="0.5" stroke-linecap="butt"/><path d="" fill="#000000" stroke="none" stroke-width="0.5" stroke-linecap="butt"/><path d="" fill="#000000" stroke="none" stroke-width="0.5" stroke-linecap="butt"/><path d="" fill="#000000" stroke="none" stroke-width="0.5" stroke-linecap="butt"/><path d="M308.82899,207.48778c0.5441,-0.0947 1.06196,0.26963 1.15665,0.81373c0.0947,0.5441 -0.26963,1.06196 -0.81373,1.15665c-0.5441,0.0947 -1.06196,-0.26963 -1.15665,-0.81373c-0.0947,-0.5441 0.26963,-1.06196 0.81373,-1.15665z" fill="#000000" stroke="none" stroke-width="0.5" stroke-linecap="butt"/><path d="" fill="#000000" stroke="none" stroke-width="0.5" stroke-linecap="butt"/><path d="" fill="#000000" stroke="none" stroke-width="0.5" stroke-linecap="butt"/><path d="" fill="#000000" stroke="none" stroke-width="0.5" stroke-linecap="butt"/><path d="M294.07244,209.21014c0.5441,-0.0947 1.06196,0.26963 1.15665,0.81373c0.0947,0.5441 -0.26963,1.06196 -0.81373,1.15665c-0.5441,0.0947 -1.06196,-0.26963 -1.15665,-0.81373c-0.0947,-0.5441 0.26963,-1.06196 0.81373,-1.15665z" fill="#000000" stroke="none" stroke-width="0.5" stroke-linecap="butt"/><path d="M240.98922,130.9392c-0.43655,0.29103 -0.79675,0.20033 -1.04055,0.04834c0.03587,0.40787 -0.23328,0.74431 -0.23328,0.74431c-0.32969,0.38022 -0.56617,0.87357 -0.62781,1.37304l0.3711,0.15444c0,0 0.5145,0.85749 -0.343,1.37199c-0.17601,0.10561 -0.33757,0.15341 -0.48319,0.16268c-0.10626,0.20139 -0.29594,0.3984 -0.63453,0.46008l0.08962,0.35534c0,0 0.1644,0.98639 -0.82199,1.15079c-0.98639,0.1644 -1.15079,-0.82199 -1.15079,-0.82199l0.03314,-0.54693c-0.5557,-0.13217 -1.12206,-0.21807 -1.68816,-0.29419c0,0 -0.98995,-0.14142 -0.84853,-1.13137c0.14142,-0.98995 1.13137,-0.84853 1.13137,-0.84853c0.69557,0.10405 1.37276,0.32266 2.02616,0.59724c0.01077,-0.84915 -0.07914,-1.67449 -0.50091,-2.28931v0.18202c0,0 0,1 -1,1c-1,0 -1,-1 -1,-1v-0.33333c0.00116,-0.92749 0.07126,-1.85518 0.17278,-2.7771c0,0 0.11043,-0.99388 1.10432,-0.88345c0.99388,0.11043 0.88345,1.10432 0.88345,1.10432c-0.00996,0.08876 -0.0196,0.17757 -0.02888,0.26644c0.76339,0.45037 1.29772,0.99013 1.66305,1.62163c0.02984,-0.04154 0.06021,-0.08262 0.09108,-0.1232c0,0 0.42811,-0.53514 1.01853,-0.365c-0.81387,-0.77928 -1.16715,-1.57785 -2.2338,-2.14206c0,0 -0.86824,-0.49614 -0.3721,-1.36438c0.49614,-0.86824 1.36438,-0.3721 1.36438,-0.3721c0.73164,0.43963 1.14797,0.89855 1.56094,1.36913c0.13934,0.00277 0.27693,0.00995 0.41303,0.02104c-0.38274,-0.46456 -0.85412,-0.86202 -1.35815,-1.18987c0,0 -0.83205,-0.5547 -0.27735,-1.38675c0.5547,-0.83205 1.38675,-0.27735 1.38675,-0.27735c0.70285,0.47749 1.35562,1.04903 1.89284,1.70736l0.35594,1.04883c0,0 0.05911,0.23644 0.00224,0.50504c0.64777,0.19114 1.29252,0.41617 1.969,0.6093l0.59905,0.42108c0,0 0.70711,0.70711 0,1.41421c-0.20672,0.20672 -0.41344,0.29257 -0.60249,0.31056c0.26466,0.21809 0.35691,0.54095 0.35691,0.54095c0.09649,0.45785 0.39319,0.90601 0.77961,1.18202c0.20389,-0.10389 0.47473,-0.14085 0.81945,0.00689c0.91915,0.39392 0.52523,1.31306 0.52523,1.31306c-0.49797,1.13802 -0.58865,1.8692 -0.58581,3.10608l0.20472,-0.59514c0,0 0.92848,0.37139 0.55709,1.29987c-0.37139,0.92848 -1.29987,0.55709 -1.29987,0.55709l-1.46194,-1.26181c0.00206,-1.01094 0.07882,-1.81083 0.30987,-2.65172l-0.03124,-0.01623c-0.27626,-0.20045 -0.53295,-0.43647 -0.76327,-0.69828l-0.07903,0.21735c0,0 -0.35112,0.93633 -1.28745,0.58521c-0.93633,-0.35112 -0.58521,-1.28745 -0.58521,-1.28745l0.45238,-1.16063c0.04298,-0.43473 -0.22842,-0.84678 -0.56489,-1.18442c-0.06107,0.0674 -0.13676,0.13288 -0.22979,0.1949z" fill="#ffdd66" stroke="none" stroke-width="0.5" stroke-linecap="butt"/><path d="M251.46397,133.08774c-0.98058,0.19612 -1.1767,-0.78446 -1.1767,-0.78446l0.25921,-0.1974c-0.46324,-0.31653 -0.97562,-0.57156 -1.50866,-0.75416c-0.07562,0.17711 -0.22301,0.35 -0.48942,0.4832c-0.89443,0.44721 -1.34164,-0.44721 -1.34164,-0.44721l-0.27224,-0.78055c0.01435,-0.93346 0.34701,-1.77284 -0.80809,-1.67672c0,0 -0.98995,-0.14142 -0.84853,-1.13137c0.14142,-0.98995 1.13137,-0.84853 1.13137,-0.84853c1.69878,0.39652 2.26485,1.03239 2.44609,2.3265c0.20113,-0.00839 0.35388,0.03526 0.35388,0.03526c0.8615,0.25432 1.69488,0.63782 2.44665,1.12947l0.59255,1.46927c0,0 0.19612,0.98058 -0.78446,1.1767z" fill="#ffdd66" stroke="none" stroke-width="0.5" stroke-linecap="butt"/><path d="M249.10345,139.42689l-1.69231,-0.63725c0.30383,-2.10931 0.54648,-2.96286 2.30201,-4.18119c0,0 0.83205,-0.5547 1.38675,0.27735c0.04995,0.07493 0.08866,0.1476 0.11774,0.21783c0.31274,-0.14773 0.65495,-0.28845 1.03242,-0.43279c0,0 0.93633,-0.35112 1.28745,0.58521c0.35112,0.93633 -0.58521,1.28745 -0.58521,1.28745c-1.09703,0.40154 -1.77079,0.64512 -2.27145,1.45285c0.12026,0.21798 0.16955,0.5151 -0.01858,0.89137c-0.3114,0.62279 -0.83962,0.59511 -1.13174,0.52085c-0.2315,0.05093 -0.42709,0.01833 -0.42709,0.01833z" fill="#ffdd66" stroke="none" stroke-width="0.5" stroke-linecap="butt"/><path d="M242.60119,142.10716c-1,0 -1,-1 -1,-1v-0.16667c0,-2.39003 0.52635,-3.19105 -1.94139,-3.87181c0,0 -0.96152,-0.27472 -0.6868,-1.23625c0.27472,-0.96152 1.23625,-0.6868 1.23625,-0.6868c3.45589,1.01454 3.39195,2.60794 3.39195,5.79486v0.16667c0,0 0,1 -1,1z" fill="#ffdd66" stroke="none" stroke-width="0.5" stroke-linecap="butt"/><path d="M232.26785,141.60716c-1,0 -1,-1 -1,-1v-0.16667c0.01091,-1.47321 0.28637,-2.46383 0.93891,-3.78055c0,0 0.44721,-0.89443 1.34164,-0.44721c0.89443,0.44721 0.44721,1.34164 0.44721,1.34164c-0.53023,1.04945 -0.73885,1.7069 -0.72776,2.88612v0.16667c0,0 0,1 -1,1z" fill="#ffdd66" stroke="none" stroke-width="0.5" stroke-linecap="butt"/><path d="M230.76785,130.77382c-0.07901,0 -0.15177,-0.00624 -0.21879,-0.01774c-0.33893,0.48544 -0.54335,1.02428 -0.53516,1.68696c0.22092,0.13672 0.42062,0.3839 0.42062,0.83078c0,1 -1,1 -1,1l-1.31973,-0.8356c-0.2275,-1.56644 0.09839,-2.74395 0.81628,-3.78981c-0.24065,-0.09565 -0.48746,-0.16623 -0.75313,-0.22283c-0.17833,0.44303 -0.26125,0.94206 -0.24343,1.5149l0.13681,0.42413c0,0 0.24254,0.97014 -0.72761,1.21268c-0.97014,0.24254 -1.21268,-0.72761 -1.21268,-0.72761l-0.19652,-0.9092c0.01774,-0.8419 0.15178,-1.57506 0.4093,-2.22953c-0.0655,-0.14627 -0.09711,-0.3302 -0.06824,-0.56117c0.08932,-0.71458 0.62891,-0.85024 0.92394,-0.8702c0.40325,-0.48139 0.90618,-0.92054 1.51364,-1.33782c0,0 0.83205,-0.5547 1.38675,0.27735c0.5547,0.83205 -0.27735,1.38675 -0.27735,1.38675c-0.08668,0.0554 -0.17053,0.11167 -0.25152,0.16891c0.25276,0.09545 0.49947,0.20711 0.74576,0.33946c0.09759,-0.08872 0.19772,-0.17744 0.30027,-0.26634c0,0 0.75926,-0.65079 1.41005,0.10847c0.65079,0.75926 -0.10847,1.41005 -0.10847,1.41005c-0.07902,0.06682 -0.15682,0.13323 -0.23315,0.19947l0.08236,0.20794c0,0 0,1 -1,1z" fill="#ffdd66" stroke="none" stroke-width="0.5" stroke-linecap="butt"/><path d="M231.2242,135.89177c-0.08032,0.29561 -0.30845,0.71539 -0.95635,0.71539c-1,0 -1,-1 -1,-1l0.29289,-0.87377c0.82872,-0.82647 1.50298,-1.66908 2.41575,-2.4071c0,0 0.78087,-0.6247 1.40556,0.15617c0.6247,0.78087 -0.15617,1.40556 -0.15617,1.40556c-0.76124,0.60105 -1.33973,1.30989 -2.00168,2.00374z" fill="#ffdd66" stroke="none" stroke-width="0.5" stroke-linecap="butt"/><path d="M258.08408,135.38918c-0.94868,0.31623 -1.26491,-0.63246 -1.26491,-0.63246l0.28588,0.05202c-1.01179,-0.57987 -1.66814,-1.06479 -2.83719,-1.03491c0,0 -1,0 -1,-1c0,-1 1,-1 1,-1c0.31649,0.00538 0.60804,0.03115 0.88301,0.07524c-0.7455,-0.35484 -1.45795,-0.78462 -2.13092,-1.2615c0,0 -0.81373,-0.58124 -0.2325,-1.39497c0.58124,-0.81373 1.39497,-0.2325 1.39497,-0.2325c0.66855,0.48196 1.38688,0.90705 2.14601,1.22792l0.83384,1.1386c0,0 0.33856,0.67711 -0.16261,1.14763c0.34953,0.17415 0.70722,0.3755 1.09766,0.59801l0.61921,1.05202c0,0 0.31623,0.94868 -0.63246,1.26491z" fill="#ffdd66" stroke="none" stroke-width="0.5" stroke-linecap="butt"/><path d="M225.10119,138.60716c-1,0 -1,-1 -1,-1l0.152,-0.86333c0.60928,-0.96663 1.33588,-1.86621 2.14089,-2.67711c0,0 0.70711,-0.70711 1.41421,0c0.70711,0.70711 0,1.41421 0,1.41421c-0.7042,0.69834 -1.33719,1.47958 -1.85911,2.32289l0.152,-0.19667c0,0 0,1 -1,1z" fill="#ffdd66" stroke="none" stroke-width="0.5" stroke-linecap="butt"/><path d="M246.99313,136.56868c-0.96152,-0.27472 -0.6868,-1.23625 -0.6868,-1.23625l0.39409,-1.32626c0.30679,-0.43786 0.61357,-0.87573 0.92036,-1.31359c0,0 0.58124,-0.81373 1.39497,-0.2325c0.81373,0.58124 0.2325,1.39497 0.2325,1.39497c-0.24877,0.33991 -0.49754,0.67983 -0.7463,1.01974l-0.27257,1.00708c0,0 -0.27472,0.96152 -1.23625,0.6868z" fill="#ffdd66" stroke="none" stroke-width="0.5" stroke-linecap="butt"/><path d="M310.09654,210.87531c-0.68915,-0.72462 0.03547,-1.41377 0.03547,-1.41377l0.68171,-0.58172c0.11658,-0.80194 0.27515,-1.59826 0.46177,-2.38684c0,0 0.23049,-0.97308 1.20356,-0.74259c0.97308,0.23049 0.74259,1.20356 0.74259,1.20356c-0.22722,0.95834 -0.44159,1.91972 -0.65129,2.88203l-1.06005,1.0748c0,0 -0.72462,0.68915 -1.41377,-0.03547z" fill="#ffdd66" stroke="none" stroke-width="0.5" stroke-linecap="butt"/><path d="M301.74568,214.19355c0.10579,-0.99438 1.10018,-0.8886 1.10018,-0.8886l1.35865,0.15657c0.64878,0.28441 1.33136,0.52085 2.03283,0.61958c0,0 0.98885,0.14888 0.83998,1.13773c-0.14888,0.98885 -1.13773,0.83998 -1.13773,0.83998c-0.77273,-0.12224 -1.53598,-0.34713 -2.25086,-0.66495l-1.05444,-0.10015c0,0 -0.99438,-0.10579 -0.8886,-1.10018z" fill="#ffdd66" stroke="none" stroke-width="0.5" stroke-linecap="butt"/><path d="" fill="#ffdd66" stroke="none" stroke-width="0.5" stroke-linecap="butt"/><path d="" fill="#ffdd66" stroke="none" stroke-width="0.5" stroke-linecap="butt"/><path d="" fill="#ffdd66" stroke="none" stroke-width="0.5" stroke-linecap="butt"/><path d="" fill="#ffdd66" stroke="none" stroke-width="0.5" stroke-linecap="butt"/><path d="" fill="#ffdd66" stroke="none" stroke-width="0.5" stroke-linecap="butt"/><path d="M308.43615,220.47523c-0.95786,-0.28723 -0.67063,-1.24509 -0.67063,-1.24509l0.32113,-1.07092c0.24951,-0.81288 0.50286,-1.6541 0.48584,-2.50424c0,0 -0.00716,-0.99997 0.99281,-1.00713c0.99997,-0.00716 1.00713,0.99281 1.00713,0.99281c-0.00251,1.04838 -0.2745,2.08719 -0.57007,3.09303l-0.32113,1.07092c0,0 -0.28723,0.95786 -1.24509,0.67063z" fill="#ffdd66" stroke="none" stroke-width="0.5" stroke-linecap="butt"/><path d="M305.31273,208.90455c0.5754,-0.81788 1.39327,-0.24248 1.39327,-0.24248l1.1809,1.1889c0.08573,0.4926 0.17146,0.98519 0.25719,1.47779c0,0 0.17146,0.98519 -0.81373,1.15665c-0.98519,0.17146 -1.15665,-0.81373 -1.15665,-0.81373c-0.08573,-0.4926 -0.17146,-0.98519 -0.25719,-1.47779l-0.3613,0.10393c0,0 -0.81788,-0.5754 -0.24248,-1.39327z" fill="#ffdd66" stroke="none" stroke-width="0.5" stroke-linecap="butt"/><path d="" fill="#ffdd66" stroke="none" stroke-width="0.5" stroke-linecap="butt"/><path d="" fill="#ffdd66" stroke="none" stroke-width="0.5" stroke-linecap="butt"/><path d="" fill="#ffdd66" stroke="none" stroke-width="0.5" stroke-linecap="butt"/><path d="" fill="#ffdd66" stroke="none" stroke-width="0.5" stroke-linecap="butt"/><path d="" fill="#ffdd66" stroke="none" stroke-width="0.5" stroke-linecap="butt"/><path d="" fill="#ffdd66" stroke="none" stroke-width="0.5" stroke-linecap="butt"/><path d="" fill="#ffdd66" stroke="none" stroke-width="0.5" stroke-linecap="butt"/><path d="" fill="#ffdd66" stroke="none" stroke-width="0.5" stroke-linecap="butt"/><path d="" fill="#ffdd66" stroke="none" stroke-width="0.5" stroke-linecap="butt"/><path d="" fill="#ffdd66" stroke="none" stroke-width="0.5" stroke-linecap="butt"/><path d="M217.0731,199.39951c1.64283,0.79118 3.5921,1.69073 5.00427,2.74359c0.5164,0.38501 8.45714,1.89505 11.65128,2.63358c6.10945,1.41259 4.36546,2.38467 4.24201,2.64101c-0.17074,0.35452 -4.05972,0.33057 -5.39993,0.04279c-1.52098,-0.3266 -14.26417,-3.49457 -16.06766,-4.36311c-1.40738,-0.67779 -5.61304,-2.6432 -7.25224,-3.66142c-2.31226,-1.4363 -1.86462,-1.9215 -1.65133,-2.36439c0.18505,-0.38424 0.57487,-1.11272 2.51435,-0.62385c1.88083,0.47409 5.28897,2.1474 6.95926,2.9518z" fill="#ffbf68" stroke="#dea75b" stroke-width="1.5" stroke-linecap="butt"/><path d="M265.78861,202.35713c0.54281,-1.5955 1.62869,-4.87455 2.5327,-6.35391c0.9322,-1.52549 1.68024,-1.22454 2.0614,-1.05343c0.43933,0.19722 1.06007,0.28464 0.52751,2.73053c-0.37754,1.73395 -1.78498,5.7072 -2.24235,7.05156c-0.5861,1.72275 -6.74092,11.71343 -7.51048,12.86802c-0.6781,1.01737 -3.19587,3.37344 -3.54754,3.21557c-0.25429,-0.11415 -2.04989,0.22015 0.97295,-4.49161c1.5804,-2.4634 5.7304,-8.34794 5.80577,-8.9414c0.20613,-1.62289 0.86618,-3.45607 1.40006,-5.02535z" data-paper-data="{&quot;index&quot;:null}" fill="#ffbf68" stroke="#dea75b" stroke-width="1.5" stroke-linecap="butt"/><path d="M216.75,173.38494l11.83333,5.83333l-9.83333,4.33333" fill="none" stroke="#000000" stroke-width="2" stroke-linecap="round"/></g></g></svg>