<svg version="1.1" xmlns="http://www.w3.org/2000/svg" xmlns:xlink="http://www.w3.org/1999/xlink" width="185.44108" height="200.9153" viewBox="0,0,185.44108,200.9153"><g transform="translate(-102.81481,-42.95937)"><g data-paper-data="{&quot;isPaintingLayer&quot;:true}" fill-rule="nonzero" stroke-linecap="butt" stroke-linejoin="miter" stroke-miterlimit="10" stroke-dasharray="" stroke-dashoffset="0" style="mix-blend-mode: normal"><path d="M106.06481,138.01012v-91.80075h92.74714v91.80075l0.07361,20.10873l-24.77163,-20.10873z" fill="#2e2e2e" stroke="#161616" stroke-width="6.5"/><text transform="translate(111.56279,60.14266) scale(0.29882,0.29882)" font-size="40" xml:space="preserve" fill="#ffffff" fill-rule="nonzero" stroke="none" stroke-width="1" stroke-linecap="butt" stroke-linejoin="miter" stroke-miterlimit="10" stroke-dasharray="" stroke-dashoffset="0" font-family="Sans Serif" font-weight="normal" text-anchor="start" style="mix-blend-mode: normal"><tspan x="0" dy="0">wak? WaaaKK?</tspan><tspan x="0" dy="48px">WakAAAk?</tspan><tspan x="0" dy="48px">WAAAAAAAK!</tspan></text><path d="M266.88842,149.18128c0,20.15482 -12.35366,36.49353 -27.59268,36.49353c-15.23901,0 -27.59268,-16.33871 -27.59268,-36.49353c0,-20.15482 12.35366,-32.0431 27.59268,-32.0431c15.23901,0 27.59268,11.88828 27.59268,32.0431z" fill="#ffffff" stroke="#d2d2d2" stroke-width="2"/><path d="M274.9444,191.47515c0,21.14515 -12.46691,43.31991 -34.62867,43.31991c-22.16176,0 -32.91032,-25.00595 -32.91032,-46.1511c0,-21.14515 11.4359,-22.8724 33.59765,-22.8724c22.16176,0 33.94133,4.55844 33.94133,25.70359z" fill="#00b9ff" stroke="#0095cc" stroke-width="2"/><path d="M239.44137,160.36545l-5.45007,-9.53764h11.07047l-5.45008,9.53764z" fill="#ff9f09" stroke="#c57d08" stroke-width="2"/><path d="M219.51453,157.8661c-2.09914,0 -2.09914,-2.09915 -2.09914,-2.09915l0.05376,-0.20924c-0.17032,-0.73803 -0.34062,-1.47606 -0.51094,-2.21409c0,0 -0.47201,-2.04539 1.57337,-2.51741c2.04538,-0.47201 2.5174,1.57337 2.5174,1.57337c0.17032,0.73803 0.34063,1.47606 0.51095,2.2141l0.05376,1.15327c0,0 -0.00001,2.09915 -2.09915,2.09915z" fill="#000000" stroke="none" stroke-width="0.5"/><path d="M226.2795,151.83932c0.34518,0.30976 0.61396,0.79211 0.61396,1.54322c0,2.09914 -2.09914,2.09914 -2.09914,2.09914l-2.12954,-1.3456c-0.28385,-0.73803 -0.56771,-1.47606 -0.85156,-2.2141c0,0 -0.75355,-1.95922 1.20567,-2.71278c1.95922,-0.75355 2.71278,1.20567 2.71278,1.20567c0.18261,0.4748 0.36524,0.94962 0.54786,1.42442z" fill="#000000" stroke="none" stroke-width="0.5"/><path d="M253.87468,156.25008c-0.76782,-1.15172 -0.26986,-2.05029 0.1584,-2.52877c0,-0.51032 0,-1.02065 0,-1.53097c0,0 0,-2.09914 2.09914,-2.09914c2.09914,0 2.09914,2.09914 2.09914,2.09914c0,0.85157 0,1.70315 0,2.55472l-1.4457,2.08722c0,0 -1.7466,1.1644 -2.91098,-0.5822z" fill="#000000" stroke="none" stroke-width="0.5"/><path d="M261.24167,158.20671c-2.09914,0 -2.09914,-2.09915 -2.09914,-2.09915c0,-0.73803 0,-1.8167 0,-2.55472c0,0 0,-2.09914 2.09914,-2.09914c2.09914,0 2.09915,2.09914 2.09915,2.09914c0,0.73803 0,1.47606 0,2.2141v0.34062c0,0 -0.00001,2.09915 -2.09915,2.09915z" fill="#000000" stroke="none" stroke-width="0.5"/><path d="M222.62516,148.23454c0.20887,2.08873 -1.87985,2.2976 -1.87985,2.2976l-1.76247,0.17539l-2.3628,0.16877c-0.05646,0.00456 -0.11355,0.00687 -0.17117,0.00687c-1.15933,0 -2.09914,-0.93981 -2.09914,-2.09914c0,-0.66119 0.30569,-1.251 0.78347,-1.63576l1.85988,-1.52171c0,0 1.62466,-1.32926 2.95391,0.29539c0.12261,0.14987 0.2201,0.29722 0.29604,0.44123l0.08454,-0.0085c0,0 2.08874,-0.20887 2.2976,1.87985z" fill="#0084ff" stroke="none" stroke-width="0.5"/><path d="M264.82367,150.26128c-0.45537,2.04916 -2.50453,1.59379 -2.50453,1.59379l-1.74127,-0.39837c-1.12914,-0.68633 -2.90303,-0.82963 -3.38741,-2.05901c-0.14334,-0.3638 0.08204,-0.65468 0.43007,-0.92132c-0.5706,-0.23447 -1.20304,-0.75424 -1.20304,-1.90644c0,-2.09914 2.09914,-2.09915 2.09914,-2.09915h2.38441c1.15933,0 2.09915,0.93982 2.09915,2.09915c0,0.39273 -0.10785,0.76027 -0.29556,1.07463l0.52524,0.11219c0,0 2.04916,0.45537 1.59379,2.50453z" fill="#0084ff" stroke="none" stroke-width="0.5"/><path d="M232.67247,233.21614c0,5.47234 -5.18518,9.90854 -11.58141,9.90854c-6.39624,0 -11.58141,-4.4362 -11.58141,-9.90854c0,-5.47234 5.18517,-9.90854 11.58141,-9.90854c6.39624,0 11.58141,4.4362 11.58141,9.90854z" fill="#ff7474" stroke="#bb5454" stroke-width="1.5"/><path d="M274.43079,230.66466c0,5.47234 -5.18518,9.90854 -11.58141,9.90854c-6.39624,0 -11.58141,-4.4362 -11.58141,-9.90854c0,-5.47234 5.18518,-9.90854 11.58141,-9.90854c6.39624,0 11.58141,4.4362 11.58141,9.90854z" fill="#ff7474" stroke="#bb5454" stroke-width="1.5"/><g><path d="M273.78161,170.5204c4.80451,-0.61885 10.45762,12.53031 12.62656,29.36945c2.16894,16.83914 0.03239,30.99162 -4.77213,31.61046c-4.80452,0.61885 -10.45762,-12.53031 -12.62656,-29.36945c-2.16894,-16.83914 -0.03239,-30.99162 4.77214,-31.61045z" fill="#ffffff" stroke="#d2d2d2" stroke-width="2"/><path d="M271.03536,184.71575l0.23613,0.65957c3.31937,1.07056 2.50363,-1.87999 5.60923,-1.5549c0.4106,0.04298 0.7342,0.28863 1.01071,0.61988c-0.00792,-0.39228 0.0044,-0.78911 -0.03048,-1.1753c0,0 -0.14544,-2.09409 1.94866,-2.23953c2.0941,-0.14544 2.23955,1.94866 2.23955,1.94866c0.10821,1.99307 0.97645,6.07456 -2.14267,7.06001c-1.15526,0.36499 -1.84187,-1.7531 -3.02469,-2.01541c-0.4526,-0.10037 -0.32003,0.97063 -0.73251,1.18221c-2.83035,1.4518 -3.28929,0.88259 -5.98421,0.22428l-2.13902,-1.78205c0,0 -1.4637,-1.50466 0.04096,-2.96835c1.50466,-1.4637 2.96836,0.04096 2.96836,0.04096z" fill="#000000" stroke="none" stroke-width="0.5"/><path d="M272.70319,200.38403l1.02464,1.46251c0.61448,0.61013 3.71053,0.81485 4.50985,0.21213c0.58838,-0.44366 -0.12086,-1.71579 0.46637,-2.16096c1.91328,-1.45042 4.28883,0.71445 2.65234,-1.88637c0,0 -0.72944,-1.96834 1.23889,-2.69777c1.96833,-0.72943 2.69777,1.23889 2.69777,1.23889c0.91304,3.23504 2.03753,4.00975 -1.66704,6.62148c-0.58819,0.41468 -1.58662,-0.55853 -2.15576,-0.1181c-0.55327,0.42816 0.22028,1.68062 -0.36281,2.06717c-3.49359,2.31604 -7.27529,1.60811 -10.32182,-0.28161l-1.48107,-1.99262c0,0 -1.23235,-1.69932 0.46696,-2.93169c1.69932,-1.23236 2.93168,0.46696 2.93168,0.46696z" fill="#000000" stroke="none" stroke-width="0.5"/><path d="M275.40076,213.70122l0.23181,0.70967c3.29785,3.41149 5.73168,-0.53021 8.94776,-2.69847c0,0 1.74222,-1.17093 2.91314,0.5713c1.17093,1.74222 -0.5713,2.91315 -0.5713,2.91315c-3.00837,2.01491 -6.84178,6.48803 -11.06693,4.85435c-1.22713,-0.47448 -2.02339,-1.68218 -3.03509,-2.52327l-1.12984,-1.8625c0,0 -0.98211,-1.85522 0.87312,-2.83733c1.85523,-0.98211 2.83733,0.87312 2.83733,0.87312z" fill="#000000" stroke="none" stroke-width="0.5"/><path d="M278.67653,224.15649l-0.15221,0.61754c1.5591,0.38078 3.60049,1.96455 3.95969,0.14324c0,0 1.09119,-1.79325 2.88443,-0.70207c1.79325,1.09118 0.70205,2.88444 0.70205,2.88444c-0.68737,0.89491 -1.00644,2.28609 -2.0621,2.68475c-1.24268,0.46928 -4.94704,-0.55897 -6.47824,-0.93147l-2.23305,-2.20543c0,0 -1.24549,-1.68971 0.44422,-2.93521c1.68971,-1.24549 2.93522,0.44422 2.93522,0.44422z" fill="#000000" stroke="none" stroke-width="0.5"/><path d="M272.80088,175.71794l0.88699,0.5847c1.73106,1.18827 1.90643,0.24978 2.9508,-1.3841c0,0 1.19343,-1.7269 2.92032,-0.53347c1.7269,1.19342 0.53347,2.92031 0.53347,2.92031c-2.49287,3.43698 -4.1666,4.3615 -8.1876,2.79812l-1.35761,-0.84341c0,0 -1.77106,-1.12682 -0.64425,-2.89789c1.12682,-1.77106 2.89789,-0.64425 2.89789,-0.64425z" fill="#000000" stroke="none" stroke-width="0.5"/></g><g><path d="M207.41913,170.74465c4.82779,0.39853 7.60914,14.43854 6.21233,31.35923c-1.39681,16.92069 -6.44285,30.31454 -11.27063,29.91601c-4.8278,-0.39853 -7.60914,-14.43854 -6.21233,-31.35923c1.39681,-16.92069 6.44285,-30.31454 11.27064,-29.916z" fill="#ffffff" stroke="#d2d2d2" stroke-width="2"/><path d="M201.76791,184.05305l0.09313,0.69435c3.02248,1.7404 2.84114,-1.31548 5.8103,-0.34876c0.39256,0.12781 0.6577,0.43565 0.85891,0.81735c0.0742,-0.38527 0.16916,-0.77078 0.21572,-1.15574c0,0 0.29525,-2.07827 2.37353,-1.78302c2.07828,0.29525 1.78303,2.37353 1.78303,2.37353c-0.31055,1.9717 -0.31414,6.14452 -3.57031,6.4566c-1.20602,0.11559 -1.43498,-2.09921 -2.5369,-2.60283c-0.42164,-0.1927 -0.51575,0.88235 -0.96332,1.00309c-3.0712,0.82847 -3.40109,0.17594 -5.89902,-1.03084l-1.71953,-2.1896c0,0 -1.11706,-1.77724 0.66018,-2.8943c1.77724,-1.11706 2.8943,0.66018 2.8943,0.66018z" fill="#000000" stroke="none" stroke-width="0.5"/><path d="M200.12564,199.72403l0.69649,1.6443c0.47345,0.72504 3.45842,1.57203 4.36602,1.14961c0.66808,-0.31095 0.24025,-1.70318 0.90753,-2.01584c2.17407,-1.01871 4.04494,1.59467 2.9879,-1.29065c0,0 -0.30214,-2.0773 1.77514,-2.37943c2.07728,-0.30213 2.37942,1.77514 2.37942,1.77514c0.21705,3.3544 1.15489,4.34694 -3.01356,6.12711c-0.66184,0.28265 -1.43493,-0.87767 -2.08352,-0.56585c-0.63051,0.30313 -0.13568,1.68955 -0.78666,1.94576c-3.90035,1.53508 -7.45071,0.05273 -10.03523,-2.43175l-1.03211,-2.25807c0,0 -0.85015,-1.91927 1.06913,-2.76945c1.91927,-0.85016 2.76944,1.06912 2.76944,1.06912z" fill="#000000" stroke="none" stroke-width="0.5"/><path d="M199.98158,213.31093l0.07843,0.74243c2.51238,4.02518 5.71597,0.67891 9.31406,-0.76964c0,0 1.9484,-0.78112 2.72951,1.16728c0.78112,1.9484 -1.16729,2.72952 -1.16729,2.72952c-3.36293,1.34197 -8.04624,4.91554 -11.83686,2.43522c-1.10093,-0.72037 -1.62731,-2.06778 -2.44098,-3.10166l-0.71581,-2.05744c0,0 -0.57286,-2.01946 1.44661,-2.59231c2.01947,-0.57286 2.59231,1.44661 2.59231,1.44661z" fill="#000000" stroke="none" stroke-width="0.5"/><path d="M201.00083,224.21984l-0.27786,0.57212c1.44515,0.69809 3.11062,2.67339 3.84239,0.96731c0,0 1.44175,-1.52572 2.96745,-0.08399c1.52572,1.44173 0.08397,2.96746 0.08397,2.96746c-0.85916,0.73157 -1.46183,2.02539 -2.57748,2.19472c-1.3133,0.19931 -4.7211,-1.58014 -6.1407,-2.2643l-1.72303,-2.62328c0,0 -0.865,-1.91263 1.04762,-2.77763c1.91263,-0.865 2.77765,1.04762 2.77765,1.04762z" fill="#000000" stroke="none" stroke-width="0.5"/><path d="M205.37422,175.62262l0.74527,0.7571c1.44462,1.52369 1.81218,0.64254 3.17484,-0.73711c0,0 1.52787,-1.43947 2.96733,0.08839c1.43948,1.52786 -0.08839,2.96732 -0.08839,2.96732c-3.15589,2.84035 -4.98583,3.3948 -8.5915,1.02589l-1.15146,-1.10842c0,0 -1.49658,-1.47196 -0.02463,-2.96854c1.47195,-1.49657 2.96854,-0.02463 2.96854,-0.02463z" fill="#000000" stroke="none" stroke-width="0.5"/></g><g><path d="M243.91157,144.52391c2.02783,0 3.67172,1.56916 3.67172,3.50482c0,1.93565 -1.64388,3.50482 -3.67172,3.50482c-2.02783,0 -3.67172,-1.56916 -3.67172,-3.50482c0,-1.93565 1.64388,-3.50482 3.67172,-3.50482z" fill="#deffff" stroke="#9db5b5" stroke-width="1.5"/><path d="M241.81833,149.37219c0,-0.57363 0.46502,-1.03866 1.03866,-1.03866c0.57363,0 1.03866,0.46502 1.03866,1.03866c0,0.57363 -0.46502,1.03866 -1.03866,1.03866c-0.57363,0 -1.03866,-0.46502 -1.03866,-1.03866z" fill="#444e4e" stroke="none" stroke-width="0.5"/></g><g data-paper-data="{&quot;index&quot;:null}"><path d="M240.67972,148.57878c0,1.93565 -1.64388,3.50482 -3.67172,3.50482c-2.02783,0 -3.67172,-1.56916 -3.67172,-3.50482c0,-1.93565 1.64388,-3.50482 3.67172,-3.50482c2.02783,0 3.67172,1.56916 3.67172,3.50482z" fill="#deffff" stroke="#9db5b5" stroke-width="1.5"/><path d="M238.06258,150.9609c-0.57364,0 -1.03866,-0.46502 -1.03866,-1.03866c0,-0.57364 0.46502,-1.03866 1.03866,-1.03866c0.57364,0 1.03866,0.46502 1.03866,1.03866c0,0.57364 -0.46502,1.03866 -1.03866,1.03866z" fill="#444e4e" stroke="none" stroke-width="0.5"/></g><g><path d="M236.23096,136.00508c0,4.63047 -3.78818,8.38421 -8.46113,8.38421c-4.67295,0 -8.46113,-3.75374 -8.46113,-8.38421c0,-4.63047 3.78818,-8.38421 8.46113,-8.38421c4.67295,0 8.46113,3.75374 8.46113,8.38421z" fill="#818181" stroke="#000000" stroke-width="1"/><path d="M235.91119,136.29256c0,3.40526 -2.80433,6.16577 -6.26364,6.16577c-3.45931,0 -6.26364,-2.76051 -6.26364,-6.16577c0,-3.40526 2.80433,-6.16577 6.26364,-6.16577c3.45931,0 6.26364,2.76051 6.26364,6.16577z" fill="#000000" stroke="none" stroke-width="0"/><path d="M229.4906,134.46395c0,-1.20189 0.97433,-2.17622 2.17622,-2.17622c1.20189,0 2.17622,0.97433 2.17622,2.17622c0,1.20189 -0.97433,2.17622 -2.17622,2.17622c-1.20189,0 -2.17622,-0.97433 -2.17622,-2.17622z" fill="#ffffff" stroke="none" stroke-width="0.5"/><path d="M232.07371,137.92235c2.22147,2.22147 0.17215,4.65149 -2.39766,4.08041c-1.7012,-0.37805 -3.69247,-0.47077 -4.44013,-2.12966c-0.14357,-0.29038 -0.22425,-0.61739 -0.22425,-0.96325c0,-1.20189 0.97433,-2.17622 2.17622,-2.17622c0.31937,0 0.62267,0.06879 0.89589,0.19237c1.35285,0.24183 3.54767,0.55408 3.98994,0.99635z" fill="#ffffff" stroke="none" stroke-width="0.5"/></g><g data-paper-data="{&quot;index&quot;:null}"><path d="M259.53776,136.08224c0,4.63047 -3.78818,8.38421 -8.46113,8.38421c-4.67295,0 -8.46113,-3.75374 -8.46113,-8.38421c0,-4.63047 3.78818,-8.38421 8.46113,-8.38421c4.67295,0 8.46113,3.75374 8.46113,8.38421z" fill="#818181" stroke="#000000" stroke-width="1"/><path d="M259.21799,136.36972c0,3.40526 -2.80433,6.16577 -6.26364,6.16577c-3.45931,0 -6.26364,-2.76051 -6.26364,-6.16577c0,-3.40526 2.80433,-6.16577 6.26364,-6.16577c3.45931,0 6.26364,2.76051 6.26364,6.16577z" fill="#000000" stroke="none" stroke-width="0"/><path d="M252.79741,134.5411c0,-1.20189 0.97433,-2.17622 2.17622,-2.17622c1.20189,0 2.17622,0.97433 2.17622,2.17622c0,1.20189 -0.97433,2.17622 -2.17622,2.17622c-1.20189,0 -2.17622,-0.97433 -2.17622,-2.17622z" fill="#ffffff" stroke="none" stroke-width="0.5"/><path d="M255.38052,137.99952c2.22147,2.22147 0.17215,4.65149 -2.39766,4.08041c-1.70121,-0.37804 -3.69247,-0.47077 -4.44013,-2.12966c-0.14357,-0.29038 -0.22424,-0.6174 -0.22424,-0.96326c0,-1.20189 0.97433,-2.17622 2.17622,-2.17622c0.31936,0 0.62266,0.06879 0.89589,0.19237c1.35285,0.24183 3.54767,0.55407 3.98994,0.99634z" fill="#ffffff" stroke="none" stroke-width="0.5"/></g></g></g></svg>