<svg version="1.1" xmlns="http://www.w3.org/2000/svg" xmlns:xlink="http://www.w3.org/1999/xlink" width="93.47809" height="207.46151" viewBox="0,0,93.47809,207.46151"><g transform="translate(-198.21899,-85.19722)"><g data-paper-data="{&quot;isPaintingLayer&quot;:true}" fill-rule="nonzero" stroke-linejoin="miter" stroke-miterlimit="10" stroke-dasharray="" stroke-dashoffset="0" style="mix-blend-mode: normal"><g stroke-width="1"><path d="M288.77429,123.76828l1.92937,6.56013l-0.08531,-0.05503l-6.24653,0.31956z" fill="#ffcf9c" stroke="#d6a066" stroke-linecap="butt"/><path d="M288.68898,123.71324l-4.23737,6.56875l-11.89351,-7.67227c1.47237,-2.15215 2.91814,-4.3232 4.24656,-6.56282z" fill="#ff972b" stroke="#b76e1f" stroke-linecap="butt"/><path d="" fill="#ffcf9c" stroke="#d6a066" stroke-linecap="butt"/><path d="" fill="#202020" stroke="none" stroke-linecap="butt"/><path d="M290.55492,127.93712l1.14216,2.91132l-0.22013,0.34123l-2.9637,-0.46212z" fill="#202020" stroke="none" stroke-linecap="butt"/><path d="M275.54849,118.09504l4.99508,3.26315" fill="none" stroke="#b76e1f" stroke-linecap="round"/><path d="M273.55181,121.14626l10.09888,6.44454" fill="none" stroke="#b76e1f" stroke-linecap="round"/></g><path d="M221.1612,219.63103l0.40365,-61.75868h39.55785l1.61461,62.96964z" fill="#f1ecec" stroke="#a5a5a5" stroke-width="1" stroke-linecap="butt"/><path d="M241.14195,219.83285l-1.81643,-61.75868" fill="none" stroke="#474747" stroke-width="1" stroke-linecap="round"/><path d="M270.6536,161.59998l4.73811,-74.79434l1.35375,-0.33844l2.36905,68.7025z" fill="#ffb935" stroke="#a77923" stroke-width="2" stroke-linecap="butt"/><path d="M206.68921,156.18499l15.22962,-69.7178h53.81132l-4.73811,75.47122z" fill="#ffb935" stroke="#a77923" stroke-width="2" stroke-linecap="butt"/><path d="M275.05327,140.27852l-0.67687,18.27554" fill="none" stroke="#a77923" stroke-width="2" stroke-linecap="round"/><path d="M276.06858,116.92644v16.92179" fill="none" stroke="#a77923" stroke-width="2" stroke-linecap="round"/><path d="M277.42232,140.61694l1.0153,13.87587" fill="none" stroke="#a77923" stroke-width="2" stroke-linecap="round"/><path d="M239.39136,117.93386c-1.07766,5.88333 -6.44731,9.82917 -11.99345,8.81327c-5.54614,-1.0159 -9.16855,-6.60883 -8.09089,-12.49216c1.07766,-5.88333 6.44731,-9.82916 11.99345,-8.81327c5.54614,1.0159 9.16855,6.60883 8.09089,12.49216z" fill="#ffffff" stroke="#000000" stroke-width="1" stroke-linecap="butt"/><path d="M269.61958,118.4937c-1.07766,5.88333 -6.44731,9.82917 -11.99345,8.81327c-5.54614,-1.0159 -9.16855,-6.60883 -8.09089,-12.49216c1.07766,-5.88333 6.44731,-9.82916 11.99345,-8.81327c5.54614,1.0159 9.16855,6.60883 8.09089,12.49216z" fill="#ffffff" stroke="#000000" stroke-width="1" stroke-linecap="butt"/><path d="M251.30302,103.75858l0.24691,-0.61275l19.30116,0.36857l-0.24691,0.61275z" fill="#000000" stroke="none" stroke-width="NaN" stroke-linecap="butt"/><path d="M221.18534,102.71568l0.24691,-0.67237l19.30115,0.40443l-0.2469,0.67237z" fill="#000000" stroke="none" stroke-width="NaN" stroke-linecap="butt"/><path d="M243.73535,212.86987c0,1.39332 -1.17469,2.52282 -2.62373,2.52282c-1.44905,0 -2.62373,-1.12951 -2.62373,-2.52282c0,-1.39332 1.17469,-2.52282 2.62373,-2.52282c1.44905,0 2.62373,1.12951 2.62373,2.52282z" fill="#2f2f2f" stroke="none" stroke-width="0" stroke-linecap="butt"/><path d="M243.12769,202.05338c0,1.39331 -1.17468,2.52282 -2.62373,2.52282c-1.44905,0 -2.62374,-1.12951 -2.62374,-2.52282c0,-1.39331 1.17469,-2.52282 2.62374,-2.52282c1.44905,0 2.62373,1.1295 2.62373,2.52282z" fill="#2f2f2f" stroke="none" stroke-width="0" stroke-linecap="butt"/><path d="M242.52002,189.94282c0,1.39331 -1.17468,2.52282 -2.62373,2.52282c-1.44905,0 -2.62374,-1.12951 -2.62374,-2.52282c0,-1.39331 1.17469,-2.52282 2.62374,-2.52282c1.44905,0 2.62373,1.1295 2.62373,2.52282z" fill="#2f2f2f" stroke="none" stroke-width="0" stroke-linecap="butt"/><path d="M242.63129,178.69497c0,1.39331 -1.17468,2.52282 -2.62373,2.52282c-1.44905,0 -2.62374,-1.12951 -2.62374,-2.52282c0,-1.39331 1.17469,-2.52282 2.62374,-2.52282c1.44905,0 2.62373,1.1295 2.62373,2.52282z" fill="#2f2f2f" stroke="none" stroke-width="0" stroke-linecap="butt"/><path d="M242.02363,168.59742c0,1.39331 -1.17469,2.52282 -2.62374,2.52282c-1.44905,0 -2.62374,-1.12951 -2.62374,-2.52282c0,-1.39331 1.17469,-2.52282 2.62374,-2.52282c1.44905,0 2.62374,1.1295 2.62374,2.52282z" fill="#2f2f2f" stroke="none" stroke-width="0" stroke-linecap="butt"/><g fill="#3c3c3c" stroke="#2c2c2c" stroke-width="0.5" stroke-linecap="butt"><path d="M241.853,161.83515l-0.05379,-2.9247l3.99147,-2.96547l1.4541,7.43775z" data-paper-data="{&quot;index&quot;:null}"/><path d="M231.87526,163.02497l1.67882,-6.74213l3.58498,2.90449l-0.17806,2.67568z"/><path d="M241.82385,158.05927c1.03133,1.33725 0.76666,3.27022 -0.59116,4.31741c-1.35782,1.0472 -3.29461,0.81207 -4.32594,-0.52518c-1.03133,-1.33725 -0.76666,-3.27022 0.59116,-4.31741c1.35782,-1.0472 3.29461,-0.81207 4.32594,0.52518z"/></g><path d="M220.11883,230.19611v-11.93426h44.71752v11.93426l4.02187,54.23513l-16.2437,-0.02773l-1.0065,-54.35119c0,0 -5.58408,-0.86272 -8.62717,-0.86272c-2.99517,0 -8.91475,1.0065 -8.91475,1.0065l1.4511,53.71194l-13.52914,-0.94239z" fill="#333333" stroke="#2c2c2c" stroke-width="1" stroke-linecap="butt"/><path d="M217.81825,222.13544v-3.1633h49.31868v3.1633z" fill="#151515" stroke="#191919" stroke-width="0.5" stroke-linecap="butt"/><path d="M221.55669,223.42952v-5.60766h2.44437v5.60766z" fill="#333333" stroke="#2c2c2c" stroke-width="1" stroke-linecap="butt"/><path d="M239.96133,223.57331v-5.89524h2.58815v5.89524z" fill="#333333" stroke="#2c2c2c" stroke-width="1" stroke-linecap="butt"/><path d="M261.52926,223.28573v-5.60766h2.44437v5.60766z" fill="#333333" stroke="#2c2c2c" stroke-width="1" stroke-linecap="butt"/><path d="M220.73319,287.55818v-3.1633h15.40057v3.1633z" fill="#0a0a0a" stroke="#0c0c0c" stroke-width="1" stroke-linecap="butt"/><path d="M238.37968,284.03542c0,1.94557 -4.34533,3.52276 -9.70557,3.52276c-5.36024,0 -9.70557,-1.57719 -9.70557,-3.52276c0,-1.94557 4.34533,-3.52276 9.70557,-3.52276c5.36024,0 9.70557,1.57719 9.70557,3.52276z" fill="#0a0a0a" stroke="#0c0c0c" stroke-width="1" stroke-linecap="butt"/><path d="M253.34014,288.67595v-3.1633h15.40058v3.1633z" fill="#0a0a0a" stroke="#0c0c0c" stroke-width="1" stroke-linecap="butt"/><path d="M270.98664,285.15319c0,1.94557 -4.34534,3.52276 -9.70557,3.52276c-5.36024,0 -9.70557,-1.57719 -9.70557,-3.52276c0,-1.94557 4.34533,-3.52277 9.70557,-3.52277c5.36024,0 9.70557,1.5772 9.70557,3.52277z" fill="#0a0a0a" stroke="#0c0c0c" stroke-width="1" stroke-linecap="butt"/><g stroke-linecap="butt"><path d="M213.79223,235.68454c0,1.8062 0.91025,6.92313 0.26316,8.26054c-0.35462,0.73294 -2.08239,-2.08369 -2.57531,-1.57917c-0.80236,0.82124 -3.05572,3.74313 -4.08634,3.74313c-2.2627,0 -3.34786,-4.164 -3.68807,-7.97305c-0.08365,-0.93663 -0.12227,-1.58161 -0.12227,-2.45145c0,-4.40731 2.28532,-7.98014 5.10441,-7.98014c2.81909,0 5.10441,3.57283 5.10441,7.98014z" fill="#ffb935" stroke="#a77923" stroke-width="2"/><path d="M202.53654,231.47359c0,0 -0.1849,-19.49924 1.21054,-30.4039c1.71257,-13.38293 8.30968,-43.99212 8.30968,-43.99212l10.97816,1.4349c0,0 -6.81486,30.72389 -8.41851,44.22695c-1.22957,10.35324 -0.38277,29.8815 -0.38277,29.8815z" fill="#f1ecec" stroke="#a5a5a5" stroke-width="1"/><path d="M200.99526,233.31206v-3.45087h14.95377v3.45087z" fill="#f1ecec" stroke="#a5a5a5" stroke-width="1"/></g><g data-paper-data="{&quot;index&quot;:null}" stroke-linecap="butt"><path d="M274.54976,231.84169c2.81909,0 5.10441,3.57283 5.10441,7.98013c0,0.86984 -0.03861,1.51482 -0.12226,2.45145c-0.3402,3.80905 -1.42537,7.97305 -3.68807,7.97305c-1.03062,0 -3.28397,-2.92188 -4.08633,-3.74313c-0.49292,-0.50452 -2.22069,2.31211 -2.57531,1.57917c-0.64709,-1.33742 0.26316,-6.45434 0.26316,-8.26054c0,-4.40731 2.28532,-7.98013 5.10441,-7.98013z" fill="#ffb935" stroke="#a77923" stroke-width="2"/><path d="M269.00395,236.75821c0,0 0.84681,-19.52825 -0.38277,-29.8815c-1.60366,-13.50306 -8.41851,-44.22694 -8.41851,-44.22694l10.97816,-1.4349c0,0 6.59711,30.60919 8.30968,43.99212c1.39544,10.90466 1.21054,30.4039 1.21054,30.4039z" fill="#f1ecec" stroke="#a5a5a5" stroke-width="1"/><path d="M267.28856,237.44935v-3.45087h14.95377v3.45087z" fill="#f1ecec" stroke="#a5a5a5" stroke-width="1"/></g><path d="M249.12335,147.60253c0,1.19615 -4.13302,-6.63717 -9.92082,-6.63717c-5.7878,0 -11.03866,7.83332 -11.03866,6.63717c0,-1.19615 5.39059,-11.10853 11.17839,-11.10853c3.09125,0 5.95005,1.84949 7.6825,4.66651c1.51125,2.45734 2.09859,5.88473 2.09859,6.44202z" fill="none" stroke="#000000" stroke-width="1.5" stroke-linecap="butt"/><text transform="translate(225.92819,122.80047) scale(0.5,0.5)" font-size="40" xml:space="preserve" fill="#000000" fill-rule="nonzero" stroke="none" stroke-width="1" stroke-linecap="butt" stroke-linejoin="miter" stroke-miterlimit="10" stroke-dasharray="" stroke-dashoffset="0" font-family="Sans Serif" font-weight="normal" text-anchor="start" style="mix-blend-mode: normal"><tspan x="0" dy="0">!</tspan></text><text transform="translate(256.80849,123.07993) scale(0.5,0.5)" font-size="40" xml:space="preserve" fill="#000000" fill-rule="nonzero" stroke="none" stroke-width="1" stroke-linecap="butt" stroke-linejoin="miter" stroke-miterlimit="10" stroke-dasharray="" stroke-dashoffset="0" font-family="Sans Serif" font-weight="normal" text-anchor="start" style="mix-blend-mode: normal"><tspan x="0" dy="0">!</tspan></text><g stroke-width="1"><path d="" fill="#ffcf9c" stroke="#d6a066" stroke-linecap="butt"/><path d="M225.18986,93.01331l25.21563,14.71954c-1.22092,1.61228 -2.59714,3.20176 -3.5215,4.65433c-0.35837,0.56316 -0.71452,1.13628 -1.06687,1.71849l-24.56804,-14.34151z" fill="#ff972b" stroke="#b76e1f" stroke-linecap="butt"/><path d="M220.92753,99.81156c-0.75052,-0.43812 -0.44239,-2.36339 0.68822,-4.30021c1.13061,-1.93682 2.65557,-3.15177 3.4061,-2.71366c0.75052,0.43812 0.44239,2.36339 -0.68822,4.30021c-1.13061,1.93682 -2.65557,3.15177 -3.4061,2.71366z" fill="#ffcf9c" stroke="#d6a066" stroke-linecap="butt"/><path d="M222.15583,97.7074c-0.46,-0.26852 -0.44336,-1.1535 0.03715,-1.97665c0.48051,-0.82315 1.24295,-1.27277 1.70294,-1.00425c0.46,0.26852 0.44336,1.1535 -0.03715,1.97665c-0.48051,0.82315 -1.24295,1.27277 -1.70294,1.00425z" fill="#202020" stroke="none" stroke-linecap="butt"/><path d="" fill="#202020" stroke="none" stroke-linecap="butt"/><path d="M225.72972,95.91452l23.18944,13.71657" fill="none" stroke="#b76e1f" stroke-linecap="round"/><path d="M223.64606,99.28261l23.095,13.3299" fill="none" stroke="#b76e1f" stroke-linecap="round"/></g><path d="M251.09704,111.81386c0.988,1.48199 -1.88446,3.16312 -1.84842,4.17446c0.16044,4.50177 4.31453,5.90478 2.86066,9.85304c-0.18996,0.51587 -1.07118,0.36464 -1.4751,0.73755c-3.28982,3.03723 -9.76158,2.01127 -13.38684,-1.44201c-3.48621,-3.32084 2.94031,-6.91859 3.04876,-7.90655c0.14622,-1.33216 -1.02642,-2.52392 -1.28888,-3.95262c-0.46169,-2.51323 2.27885,-3.34012 2.40578,-5.14542c0.1653,-2.35098 -0.25862,-4.29396 1.33015,-6.30453c1.91968,-2.42933 6.4268,-1.26241 8.18915,0.79367c1.76982,2.06479 0.94606,6.79624 0.16474,9.1402z" fill="#b68426" stroke="none" stroke-width="0.5" stroke-linecap="butt"/><path d="M268.34324,162.72804c-5.17334,1.29334 -11.08519,0.46891 -16.41484,0.74058c-0.95357,0.04861 -3.00044,1.67809 -4.07285,1.94619c-6.19232,1.54808 -13.86089,0.70564 -20.24528,0.21901c-3.21204,-0.24483 -3.39662,-5.00912 -4.0153,-5.05213c-4.65497,-0.32363 -17.96362,-1.15673 -18.2686,-6.64635c-0.39117,-7.04104 14.04589,-2.54571 17.88035,-1.51421c2.02473,0.54467 3.59401,-1.71592 5.26751,-2.1343c2.05487,-0.51371 4.23995,-0.25181 6.35336,-0.11092c4.72526,0.31501 9.71152,0.05878 14.44248,0.84117c1.75786,0.29071 2.5701,1.22893 3.68964,2.42034c1.19249,1.26906 3.8631,-0.15893 5.18693,-0.15893c2.32774,0 9.26809,-0.32818 11.64007,1.00608c3.56178,2.00353 2.06012,7.53704 -1.31075,8.21121z" fill="#b68426" stroke="none" stroke-width="0.5" stroke-linecap="butt"/><path d="M283.41026,213.28711c1.76688,1.68306 0.59778,9.37933 0.56482,9.77773c-0.69295,8.37272 -0.42606,17.10202 -3.21645,24.89259c-1.02066,2.8496 -0.7831,6.22675 -4.79229,6.44949c-0.99513,0.05528 -2.95625,-1.18437 -3.5,-2c-0.30192,-0.45289 0.07087,-1.86272 -0.39666,-1.584c-5.37871,3.20657 -7.49284,-8.59408 -7.32067,-12.2043c0.0695,-1.45748 0.96582,-2.09481 1.35886,-3.42137c0.13668,-0.46132 0.96573,-5.10121 1.11307,-5.77705c0.52853,-2.42434 -0.63818,-10.09482 0.72717,-10.87502l3.44727,-1.96986c0.08342,0 0.16623,0.00255 0.24838,0.00759c4.31612,-0.04954 5.09409,-9.65169 11.7665,-3.29578z" fill="#b68426" stroke="none" stroke-width="0.5" stroke-linecap="butt"/><path d="M217.17561,238.84792c0.00682,6.6329 1.26232,8.25181 -7.22544,9.62918c-1.68638,0.27366 -4.13204,0.58125 -5.75132,-0.34405c-2.20046,-1.2574 -1.4993,-3.64839 -2.24058,-5.59884c-0.37895,-0.9971 -2.29682,-1.54422 -2.70521,-2.84848c-2.00041,-6.38854 -0.49579,-12.92874 -0.4223,-19.3947c0.04856,-4.27251 0.00824,-8.54559 0,-12.81837c-0.00162,-0.84187 -0.21886,-3.33488 0.5,-4.05374c2.66666,-2.66666 4.33334,-2.66666 7,0c0.84355,0.84355 1.02488,9.86932 1.60758,11.33335c0.29721,0.74675 1.53087,-0.65225 2.33336,-0.60766c0.70602,0.03922 1.31533,0.55246 2.01246,0.67083c4.26825,0.72469 3.2074,3.94905 3.2074,6.58796c0.45808,0.32584 0.84458,0.74577 1.1313,1.2316c0.56232,0.32132 0.53991,1.18256 0.54937,1.86459c0.00224,0.0549 0.00337,0.11009 0.00337,0.16554c0.13862,4.72557 -0.00486,9.45521 0,14.18281z" fill="#b68426" stroke="none" stroke-width="0.5" stroke-linecap="butt"/><path d="M229.92622,210.38597c0,4.31161 -5.01714,5.22232 -7.5,2.32565c-0.60698,-0.70813 -0.98233,-2.40654 -0.98116,-3.2233c0.00844,-5.87522 -0.4035,-11.77029 0.08109,-17.6255c0.262,-3.16564 0.87115,-6.15488 4.40007,-6.80317c3.06888,-0.56377 4.78423,2.47088 5.64384,4.87777c1.13165,3.16864 0.6232,7.58809 1.96482,10.49971c0.31624,0.68632 1.44371,0.81583 1.6652,1.53832c1.28173,4.18105 -0.46692,8.28635 -5.24902,8.28635z" fill="#b68426" stroke="none" stroke-width="0.5" stroke-linecap="butt"/><path d="M262.38534,173.10616c2.05106,3.64626 2.02355,11.41277 1.58346,14.98775c-0.32214,2.61674 -1.62577,7.49277 -5.30707,6.6747c-5.81014,-1.29114 -4.21556,-7.08836 -4.97928,-11.72845c-0.04035,-0.24512 -1.45676,-1.4273 -1.6652,-1.84419c-1.5336,-3.06721 0.97889,-6.72456 3.42082,-8.11995c0.6958,-1.17897 1.97917,-1.96986 3.44726,-1.96986c1.30172,0 2.4582,0.62179 3.18865,1.58458c0.11921,0.12314 0.22418,0.26045 0.31135,0.41542z" fill="#b68426" stroke="none" stroke-width="0.5" stroke-linecap="butt"/><path d="M220.87409,259.63867c0.028,0 0.05594,0.00028 0.0838,0.00086l0.21129,-0.63385l0.15456,-0.24289l0.06246,-0.28105l0.24058,-0.48116l1.34164,-1.56525l0.1577,-0.00876l0.07837,-0.13714l2,-0.5h3.84924l0.76557,0.1914l0.29509,-0.08048l0.44072,0.26443l0.49862,0.12465l0.15176,0.26557l0.67667,0.406l0.48116,0.48116l0.20498,0.34163l0.29479,0.26799l0.09975,0.14962l0.0759,-0.06507l0.48116,-0.24058l2.01246,-0.44721l0.91476,0.60984l1.0977,0.06098l1.34164,1.56525l0.24058,0.48116l0.06245,0.28105l0.15457,0.2429l0.24057,0.72173l0.04932,0.64111l0.15595,0.6238v1.20289l0.10581,0.42323l0.26443,0.44072l-0.08048,0.29509l0.1914,0.76557v6.56822l0.03531,0.10593l0.04931,0.64111l0.15595,0.6238v4.32156l0.01075,0.04837l0.04811,0.09623l0.19246,0.86608l0.04812,0.09623l0.01202,0.05413l0.03213,0.03748l0.21339,0.18291l0.00393,0.07063l0.11579,0.13509l0.60202,0.51602l0.01107,0.19925l0.21254,0.24796l0.12386,0.24772l0.03901,0.02229l0.02786,0.11146l0.04985,0.09969l0.19938,0.8972l0.22292,0.89165v0.11146l0.02492,0.11215l-0.02492,0.03739v2.12437l0.02492,0.03738l-0.02492,0.11215v0.11146l-0.22292,0.89165l-0.19938,0.89721l-0.04985,0.09968l-0.02786,0.11146l-0.03901,0.02229l-0.05342,0.10683l-0.29534,1.18136l0.01216,0.17633l-0.07758,0.08534l-0.02797,0.11188l-0.15347,0.08769l-1.12773,1.24051l-0.39217,0.26145l-0.20109,0.20109l-0.55137,0.33082l-0.4882,0.41846l-0.24771,0.12386l-0.02229,0.03901l-0.11146,0.02786l-0.09969,0.04985l-0.20494,0.04555l-0.0421,0.02526l-0.03213,-0.00876l-0.61803,0.13734l-0.21983,0.05496l-0.6098,0.20327l-0.64111,0.04931l-0.6238,0.15595h-6.4956l-0.76556,-0.19139l-0.2951,0.08048l-0.44072,-0.26443l-0.49862,-0.12466l-0.15175,-0.26557l-0.03699,-0.0222l-0.35968,-0.08992l-0.64111,-0.04931l-0.57738,-0.19246l-0.6255,-0.04811l-0.10593,-0.03531h-0.07262l-0.89165,-0.22292l-0.0795,-0.01767h-0.23174l-0.47772,-0.11943h-0.49242l-0.48459,-0.12115h-0.69006l-0.03738,0.02492l-0.11215,-0.02492h-0.11146l-0.89165,-0.22292l-0.61803,-0.13734l-0.03214,0.00876l-0.04209,-0.02526l-0.20495,-0.04555l-0.09968,-0.04985l-0.11146,-0.02786l-0.02229,-0.03901l-0.24772,-0.12386l-0.43729,-0.37482l-0.73616,-0.18404l-0.07836,-0.13714l-0.1577,-0.00876l-1.34164,-1.56525l-0.12386,-0.24772l-0.03901,-0.02229l-0.02786,-0.11145l-0.04985,-0.09969l-0.19938,-0.8972l-0.22291,-0.89165v-0.11145l-0.02492,-0.11215l0.02492,-0.03739v-3.08668l-0.02492,-0.03738l0.02492,-0.11215v-0.11145l0.22291,-0.89165l0.19938,-0.8972l0.04985,-0.09969l0.02786,-0.11145l0.03901,-0.02229l0.17198,-0.34395l0.19246,-0.86608l0.04985,-0.09969l0.02786,-0.11145l0.03766,-0.02152l0.11145,-0.33434l0.33204,-1.32818l0.13714,-0.07837l0.00876,-0.1577l0.17675,-0.1515l0.01126,-0.05067l-0.11218,-0.44869v-2.14479l-0.02492,-0.03738l0.02492,-0.11216v-0.11145l0.22292,-0.89165l0.01766,-0.07949v-0.21134l-0.02492,-0.03738l0.02492,-0.11216v-0.11145l0.22291,-0.89165l0.01766,-0.07949v-3.591l-0.01766,-0.07949l-0.22291,-0.89165v-0.11146l-0.02492,-0.11215l0.02492,-0.03738v-2.86652c0,-0.68178 0.17057,-1.32373 0.47137,-1.88549l0.02863,-0.11451l0.05274,-0.03013c0.69581,-1.17897 1.97917,-1.96987 3.44726,-1.96987z" fill="#b68426" stroke="none" stroke-width="0.5" stroke-linecap="butt"/><path d="M227.84399,132.10065c-0.25186,0.71804 -0.52956,1.46199 -0.56412,2.34791c-0.16088,4.12344 0.79257,8.36458 -0.11943,12.42033c-0.59036,2.6254 0.05033,6.49548 -4.36172,6.49548c-5.78465,0 -3.46297,-11.06681 -3.51885,-14.10425c-0.03687,-2.00447 -0.01268,-4.00967 0,-6.01444c0.00387,-0.61115 0.53965,-3.1886 1.10999,-4.36308c-1.17591,-0.88205 -3.46688,-2.60863 -3.14847,-3.77616c-0.08272,-0.32044 -0.12672,-0.65644 -0.12672,-1.00271c0,-2.20914 1.79086,-4 4,-4c0.73318,-0.56766 1.60468,0.05171 2.47852,0.86022c0.19729,0.15595 0.37952,0.33009 0.54418,0.51991c0.78183,0.75941 1.54267,1.50396 2.18349,1.50681c3.35575,0.01491 15.24112,-1.80644 9.6511,6.34727c-1.4083,2.05417 -4.69943,2.64907 -7.95547,2.34868c-0.0499,0.14185 -0.10758,0.28003 -0.17251,0.41405z" fill="#b68426" stroke="none" stroke-width="0.5" stroke-linecap="butt"/><path d="M264.56938,138.53837c-0.05272,1.38436 -2.83897,6.14468 -2.41094,6.91961c0.81783,1.48065 1.64066,2.86948 1.6892,4.62811c0.07779,2.8183 0.73332,7.84924 -4,7.84924c-4.6951,0 -3.94251,-4.57386 -4,-7.35682c-0.03591,-1.73812 -1.94954,-2.9426 -1.94954,-5.08037c0,-3.73074 2.98096,-6.47389 2.67127,-10.40048c-0.08526,-1.08099 -1.12461,-3.72149 -1.56561,-6.03545c-1.56582,-0.79452 -2.76981,-1.91867 -3.25173,-3.36443l-0.23479,-1.35349c0.02001,-0.23916 0.03607,-0.45834 0.05433,-0.66084c0.08634,-0.95748 0.22185,-1.54233 1.0566,-2.10563c0.72812,-0.76018 1.75331,-1.23353 2.88907,-1.23353c0.27615,0 0.54577,0.02798 0.80617,0.08127c0.906,0.1854 1.70042,0.67711 2.27034,1.36219c2.66406,0.12939 10.78716,-1.74446 10.78716,4c0,2.4821 -2.33904,3.9645 -5.32407,4.48497c0.46422,3.01671 0.58454,6.37442 0.51252,8.26564z" fill="#b68426" stroke="none" stroke-width="0.5" stroke-linecap="butt"/></g></g></svg>