<svg version="1.1" xmlns="http://www.w3.org/2000/svg" xmlns:xlink="http://www.w3.org/1999/xlink" width="58" height="50" viewBox="0,0,58,50"><g transform="translate(-211,-155)"><g data-paper-data="{&quot;isPaintingLayer&quot;:true}" fill-rule="nonzero" stroke-linejoin="miter" stroke-miterlimit="10" stroke-dasharray="" stroke-dashoffset="0" style="mix-blend-mode: normal"><path d="M213,203v-46h54v46z" fill="#2e2e2e" stroke="#161616" stroke-width="4" stroke-linecap="butt"/><path d="M230.1875,182.10156c0,0 -0.1529,-4.45371 -1.13763,-5.71287c-0.58541,-0.74856 -1.417,-0.85728 -3.93758,-1.3127c-1.27737,-0.2308 -2.36968,0.51627 -3.56237,1.2443c-2.1008,1.28235 -3.98742,1.78127 -3.98742,1.78127c0,0 3.95013,-4.67517 7.88965,-4.80476c6.93804,-0.22823 28.73535,-0.94524 28.73535,-0.94524v10.375z" fill="#bdbdbd" stroke="#a5a5a5" stroke-width="1" stroke-linecap="butt"/><path d="M253.1875,186.60156v-17.5h8.875v17.5z" fill="#bdbdbd" stroke="#a5a5a5" stroke-width="1" stroke-linecap="butt"/><path d="M234.3125,200.35156v-18.375h7.25v18.375z" fill="#bdbdbd" stroke="#a5a5a5" stroke-width="1" stroke-linecap="butt"/><path d="M225.6875,168.97656l-6,-7.375" fill="none" stroke="#a5a5a5" stroke-width="1" stroke-linecap="round"/><path d="M239.4375,160.97656l-0.375,8.125" fill="none" stroke="#a5a5a5" stroke-width="1" stroke-linecap="round"/><path d="M257.9375,162.35156l-8.375,6.75" fill="none" stroke="#a5a5a5" stroke-width="1" stroke-linecap="round"/></g></g></svg>