<svg version="1.1" xmlns="http://www.w3.org/2000/svg" xmlns:xlink="http://www.w3.org/1999/xlink" width="865.54038" height="572.5" viewBox="0,0,865.54038,572.5"><defs><linearGradient x1="453.98361" y1="123.44295" x2="453.98361" y2="181.64984" gradientUnits="userSpaceOnUse" id="color-1"><stop offset="0" stop-color="#71eaff"/><stop offset="1" stop-color="#71eaff" stop-opacity="0"/></linearGradient><linearGradient x1="403.5823" y1="164.12235" x2="403.5823" y2="208.4472" gradientUnits="userSpaceOnUse" id="color-2"><stop offset="0" stop-color="#71eaff"/><stop offset="1" stop-color="#71eaff" stop-opacity="0"/></linearGradient><linearGradient x1="419.3694" y1="93.78919" x2="366.42383" y2="123.43676" gradientUnits="userSpaceOnUse" id="color-3"><stop offset="0" stop-color="#71eaff"/><stop offset="1" stop-color="#71eaff" stop-opacity="0"/></linearGradient><linearGradient x1="424.58553" y1="88.78731" x2="424.58553" y2="159.84969" gradientUnits="userSpaceOnUse" id="color-4"><stop offset="0" stop-color="#71eaff"/><stop offset="1" stop-color="#71eaff" stop-opacity="0"/></linearGradient><linearGradient x1="414.27218" y1="117.51894" x2="407.26171" y2="177.79386" gradientUnits="userSpaceOnUse" id="color-5"><stop offset="0" stop-color="#71eaff"/><stop offset="1" stop-color="#71eaff" stop-opacity="0"/></linearGradient><linearGradient x1="-1.75119" y1="35.61682" x2="112.56328" y2="8.44237" gradientUnits="userSpaceOnUse" id="color-6"><stop offset="0" stop-color="#742e2e"/><stop offset="1" stop-color="#742e2e" stop-opacity="0"/></linearGradient><linearGradient x1="435.0138" y1="349.61682" x2="320.69933" y2="322.44236" gradientUnits="userSpaceOnUse" id="color-7"><stop offset="0" stop-color="#742e2e"/><stop offset="1" stop-color="#742e2e" stop-opacity="0"/></linearGradient><linearGradient x1="99.7649" y1="210.74864" x2="-14.21841" y2="239.28029" gradientUnits="userSpaceOnUse" id="color-8"><stop offset="0" stop-color="#742e2e"/><stop offset="1" stop-color="#742e2e" stop-opacity="0"/></linearGradient><radialGradient cx="240" cy="180" r="416.5" gradientUnits="userSpaceOnUse" id="color-9"><stop offset="0" stop-color="#000000" stop-opacity="0"/><stop offset="1" stop-color="#000000"/></radialGradient></defs><g transform="translate(179.75,106.25)"><g data-paper-data="{&quot;isPaintingLayer&quot;:true}" fill-rule="nonzero" stroke-linejoin="miter" stroke-miterlimit="10" stroke-dasharray="" stroke-dashoffset="0" style="mix-blend-mode: normal"><path d="M-158.45962,388.05345v-392h841v392z" fill="#4d4d4d" stroke="#2a2a2a" stroke-width="6.5" stroke-linecap="butt"/><path d="M458.24722,140.95862c0,12.16432 18.23365,35.53087 12.40897,45.22327c-11.14303,18.54229 -52.91735,0.94922 -75.97111,0.94922c-15.29048,0 -55.70422,40.12284 -66.67024,31.04224c-9.77761,-8.09652 -46.60328,-38.1351 -42.43951,-58.86166c1.88758,-9.39605 4.7719,-39.69784 4.7719,-45.93664c0,-18.41268 22.07486,-32.6153 34.38182,-44.31621c11.37803,-10.81773 51.89294,18.53157 68.75674,18.53157c17.08537,0 52.06895,-29.33214 63.78248,-20.88596c12.35363,8.90773 0.97894,56.06515 0.97894,74.25417z" fill="#283633" stroke="none" stroke-width="0" stroke-linecap="butt"/><path d="M420.55072,181.64984c0,0 5.05101,-21.24076 5.05101,-30.38123c0,-5.43211 -9.1421,-13.97696 -10.48647,-19.85511c-1.16882,-5.11057 10.96752,-0.99535 10.96752,-0.99535c0,0 5.88386,-7.07652 14.26537,-8.02972c4.34566,-0.49421 6.85173,16.62969 15.07094,16.87245c7.09699,0.20962 11.40625,-12.45676 18.00948,-16.79712c5.49786,-3.61379 6.77218,10.84068 6.77218,10.84068c0,0 6.68458,-2.23581 7.25219,1.56717c0.63674,4.26619 -9.96957,2.66876 -10.14471,13.49894c-0.08401,5.19472 6.29968,1.98772 8.85185,9.01801c2.54401,7.00782 -4.7567,9.82982 -4.7567,9.82982c0,0 -5.7119,10.07381 -12.75441,10.2681c-5.94068,0.1639 -12.8282,-9.54653 -18.03271,-9.54653c-10.89349,0 -30.06554,13.70989 -30.06554,13.70989z" data-paper-data="{&quot;index&quot;:null}" fill="url(#color-1)" stroke="#3d7f8a" stroke-width="2.5" stroke-linecap="butt"/><g fill="#ab8d74" stroke-width="2"><g stroke="#9d816a"><path d="M359.6667,112.2378l44.79866,19.62442c0,0 0.59869,4.89648 -0.04449,6.36473c-0.44913,1.02526 -3.41233,0.56293 -3.41233,0.56293l-44.83236,-18.58394c0,0 -9.84086,1.03786 -19.19137,0.41504c-4.20628,-0.28017 -16.72316,4.52479 -16.72316,4.52479c0,0 -2.12327,-7.23675 -2.00158,-7.51456c0.22084,-0.50414 7.61623,-3.01248 14.27693,-3.87611c11.07538,-1.43602 27.1297,-1.5173 27.1297,-1.5173z" stroke-linecap="butt"/><path d="M314.50789,126.94735c-0.46758,-1.04567 -1.40598,-1.27964 -1.79653,-2.00883c-1.21665,-2.27151 -0.63406,-5.27279 0.98573,-7.0497c2.13975,-2.34733 6.08107,-2.23866 8.80319,0.24273c2.72212,2.48139 3.19423,6.39585 1.05448,8.74318c-0.76018,0.83392 -2.96546,4.15496 -4.20551,4.52812c-0.32119,0.09665 -0.94408,-0.16348 -1.03781,-0.69734c-0.11589,-0.66004 0.30789,-1.63329 -0.10195,-1.61253c-0.88708,0.04493 -1.87965,0.24161 -2.55453,-0.19322c-0.52812,-0.34028 -0.8573,-1.30444 -1.14703,-1.9524z" stroke-linecap="butt"/><path d="M316.42684,120.41596l-2.9679,2.92086" stroke-linecap="round"/><path d="M315.00203,125.59564l2.67957,-1.78087" stroke-linecap="round"/><path d="M320.8191,125.08366l-2.91815,3.04818" stroke-linecap="round"/></g><path d="M331.25474,118.39007c-3.28995,0.55469 -6.00375,0.72698 -6.06144,0.38483c-0.05769,-0.34216 2.56259,-1.06919 5.85254,-1.62389c3.28995,-0.55469 6.00375,-0.72699 6.06144,-0.38484c0.05769,0.34216 -2.56258,1.0692 -5.85253,1.6239z" stroke="#6b0000" stroke-linecap="butt"/></g><g fill="#ab8d74" stroke-width="2" stroke-linecap="butt"><path d="M456.26691,221.64145c0,0 -7.06888,-13.49551 -13.28661,-26.87713c-3.77614,-8.12689 -6.55194,-16.27757 -9.21553,-21.14836c-3.50552,-6.41041 -9.84719,-14.23605 -14.13759,-20.55863c-5.28943,-7.7948 -8.23507,-13.47685 -8.23507,-13.47685l10.06883,-5.50611c0,0 3.65686,3.232 8.37331,10.43268c5.1649,7.88533 11.59772,20.10801 15.82419,27.83682c2.38536,4.36203 7.66744,10.33112 11.01787,17.4679c5.84009,12.44003 9.65941,26.32357 9.65941,26.32357c0,0 17.04647,-2.4549 15.22502,-1.45885c-0.21498,0.11757 1.33596,0.6823 0.44257,2.74274c-0.0516,0.11901 -1.48904,0.73694 -1.89027,1.57714c-0.35077,0.73452 0.47537,1.6211 0.17741,1.89078c-0.79807,0.72233 -0.54339,-0.6746 -0.94526,0.12793c-0.47249,0.94355 0.2283,1.67134 -0.23578,2.21096c-0.80413,0.93505 -1.4031,-0.37647 -1.63229,0.18506c-0.21877,0.53598 0.63198,0.50796 0.64556,0.89216c0.02914,0.82394 -0.62102,1.80965 -1.61507,2.118c-0.30422,0.09438 -4.55052,-0.47749 -4.8601,-0.47065c-3.543,0.07824 -9.06809,2.66439 -12.03722,1.47636c-3.13511,-1.25445 -3.3434,-5.78554 -3.3434,-5.78554z" stroke="#9d816a"/><path d="M445.80929,185.55124c1.70896,3.35008 2.81191,6.20992 2.4635,6.38766c-0.34841,0.17773 -2.01623,-2.39397 -3.72519,-5.74404c-1.70896,-3.35008 -2.81191,-6.20992 -2.4635,-6.38766c0.34841,-0.17773 2.01623,2.39397 3.72519,5.74403z" stroke="#6b0000"/></g><path d="M408.10431,215.62688c-3.96326,0 -6.92409,-17.40374 -11.44795,-17.52855c-5.36291,-0.14795 -14.28065,3.60105 -14.28065,3.60105c0,0 -0.01255,-6.39078 1.92473,-11.72727c1.94349,-5.3536 -2.33151,-3.89033 -2.39548,-7.84614c-0.13337,-8.24723 6.47306,-1.8101 6.95794,-5.05882c0.43224,-2.89599 9.76439,-1.84599 9.76439,-1.84599c0,0 -14.03908,-14.59638 -9.85243,-11.84446c5.0284,3.30521 9.2888,7.07745 14.69319,6.91782c6.25898,-0.18486 7.18848,-7.35153 10.49772,-6.97518c6.38257,0.72586 10.86316,6.11467 10.86316,6.11467c0,0 9.24188,-3.13377 8.35182,0.75796c-1.02374,4.47624 -29.52085,19.14052 -29.52085,23.2771c0,2.99216 14.47919,-3.28283 19.82739,-0.62085c7.09304,3.53044 5.55433,15.59899 5.55433,15.59899c0,0 -12.64185,7.17968 -20.9373,7.17968z" data-paper-data="{&quot;index&quot;:null}" fill="url(#color-2)" stroke="#3d7f8a" stroke-width="2.5" stroke-linecap="butt"/><path d="M360.87241,133.64053c-2.65091,-4.73408 -5.73099,-26.16539 -8.60778,-31.65257c-3.41036,-6.50491 8.03494,-8.39567 8.03494,-8.39567c0,0 11.19892,7.77129 18.86909,6.51592c7.69477,-1.25939 -0.48611,-17.44797 4.19627,-20.17031c9.76203,-5.67564 6.49177,6.52128 10.69667,4.92749c3.74834,-1.42074 8.73613,10.42874 8.73613,10.42874c0,0 6.25811,-13.57834 5.77129,-6.73676c-0.58469,8.21712 16.52043,-3.8255 20.32594,2.52322c4.40726,7.35263 1.52861,9.47643 3.29252,13.68102c3.40208,8.10942 -1.37797,15.27906 -1.37797,15.27906c0,0 6.35128,11.62345 1.10732,13.16334c-6.03158,1.77118 -26.0809,-13.97255 -31.022,-11.20571c-3.57411,2.00137 -2.92186,6.61217 -2.52431,14.78106c0.52725,10.83397 -14.91771,17.06829 -14.91771,17.06829c0,0 -2.64762,-15.30311 -9.80135,-22.48687c-2.2796,-2.28917 -11.43821,4.67426 -12.77904,2.27975z" data-paper-data="{&quot;index&quot;:null}" fill="url(#color-3)" stroke="#3d7f8a" stroke-width="2.5" stroke-linecap="butt"/><path d="M383.76871,159.84969c0,0 6.16657,-25.93196 6.16657,-37.09118c0,-6.63183 -11.16122,-17.06389 -12.8025,-24.24027c-1.42696,-6.23928 13.38979,-1.21518 13.38979,-1.21518c0,0 7.18335,-8.63944 17.416,-9.80315c5.30544,-0.60336 8.36499,20.3025 18.39949,20.59888c8.66442,0.25591 13.92541,-15.20794 21.98703,-20.50691c6.71211,-4.41193 8.26787,13.23494 8.26787,13.23494c0,0 8.16093,-2.72961 8.8539,1.91329c0.77738,5.20841 -12.17143,3.25818 -12.38526,16.48029c-0.10256,6.34202 7.69101,2.42672 10.80685,11.00971c3.10588,8.55556 -5.80726,12.00082 -5.80726,12.00082c0,0 -6.97342,12.2987 -15.57133,12.5359c-7.25274,0.20009 -15.66141,-11.65496 -22.01538,-11.65496c-13.29942,0 -36.70577,16.73783 -36.70577,16.73783z" data-paper-data="{&quot;index&quot;:null}" fill="url(#color-4)" stroke="#3d7f8a" stroke-width="2.5" stroke-linecap="butt"/><path d="M412.27539,188.27232c-5.38943,-0.62684 -24.55902,-10.69234 -30.69103,-11.57756c-7.26933,-1.0494 -2.09309,-11.43095 -2.09309,-11.43095c0,0 12.86034,-4.5189 16.33876,-11.4693c3.48958,-6.97268 -14.42182,-9.83255 -13.88315,-15.22196c1.12303,-11.23605 9.08864,-1.43766 10.26183,-5.77874c1.04581,-3.86973 13.57002,-0.96591 13.57002,-0.96591c0,0 -7.33368,-13.02891 -2.07573,-8.62456c6.31508,5.28987 6.58323,-15.62754 13.95762,-14.98984c8.54047,0.73854 8.57404,4.31569 13.01457,5.35086c8.5645,1.99653 11.57194,10.07167 11.57194,10.07167c0,0 13.14023,1.6666 11.31437,6.81797c-2.1001,5.92508 -26.60726,12.94215 -27.26151,18.56725c-0.47324,4.06888 3.64486,6.24284 10.49657,10.70859c9.08706,5.92269 5.08587,22.09069 5.08587,22.09069c0,0 -13.95087,-6.82411 -23.96424,-5.23839c-3.19085,0.5053 -2.9168,12.00723 -5.64279,11.69017z" data-paper-data="{&quot;index&quot;:null}" fill="url(#color-5)" stroke="#3d7f8a" stroke-width="2.5" stroke-linecap="butt"/><g fill="#ab8d74" stroke-width="2"><g stroke="#9d816a"><path d="M357.33473,202.90907l-0.362,-48.90712c0,0 4.22609,-2.54443 5.82899,-2.5563c1.11929,-0.00828 1.90622,2.88568 1.90622,2.88568l1.32568,48.51335c0,0 4.96277,8.56099 8.20932,17.35189c1.46045,3.95454 10.95434,13.42164 10.95434,13.42164c0,0 -5.74063,4.8912 -6.04392,4.89345c-0.55038,0.00408 -5.85787,-5.72428 -9.36401,-11.45295c-5.82999,-9.52562 -12.45463,-24.14964 -12.45463,-24.14964z" stroke-linecap="butt"/><path d="M389.18972,238.13618c-0.76389,0.85353 -0.59462,1.80573 -1.101,2.45982c-1.57742,2.03759 -4.55522,2.73026 -6.8384,1.97645c-3.01611,-0.99578 -4.52502,-4.63845 -3.37025,-8.13613c1.15477,-3.49768 4.53595,-5.52586 7.55206,-4.53008c1.07152,0.35376 5.00333,1.0121 5.84998,1.99198c0.2193,0.2538 0.23594,0.92863 -0.21321,1.23202c-0.55532,0.37511 -1.61678,0.38532 -1.4306,0.75102c0.40296,0.79155 0.98751,1.6175 0.86589,2.41106c-0.09518,0.621 -0.84113,1.31493 -1.31449,1.84383z" stroke-linecap="butt"/><path d="M386.32139,240.56699l-3.87763,-1.51785" stroke-linecap="round"/><path d="M387.75403,238.23655l-2.7192,-1.71975" stroke-linecap="round"/><path d="M388.88671,234.5551l-3.97356,-1.42049" stroke-linecap="round"/></g><path d="M374.54415,226.33823c1.84878,2.77732 3.11335,5.18465 2.82451,5.37693c-0.28885,0.19228 -2.02172,-1.90333 -3.87051,-4.68065c-1.84878,-2.77732 -3.11335,-5.18465 -2.82451,-5.37693c0.28885,-0.19228 2.02172,1.90332 3.87051,4.68064z" stroke="#6b0000" stroke-linecap="butt"/></g><g fill="#ab8d74" stroke-width="2" stroke-linecap="butt"><path d="M409.60001,62.66122c0,0 4.33939,12.79996 7.94848,25.38305c2.19186,7.64194 3.50374,15.16713 5.16833,19.80233c2.19074,6.10034 6.67254,13.83107 9.56325,19.96239c3.56382,7.55899 5.36405,12.94399 5.36405,12.94399l-9.58181,3.441c0,0 -2.7605,-3.33551 -5.90385,-10.29501c-3.44223,-7.62121 -7.39922,-19.21816 -10.04051,-26.57313c-1.4907,-4.15104 -5.29917,-10.10893 -7.2541,-16.82456c-3.40761,-11.70592 -4.84564,-24.39907 -4.84564,-24.39907c0,0 -15.27759,-0.19275 -13.54424,-0.81523c0.20458,-0.07347 -1.07704,-0.78172 -0.01069,-2.46468c0.06159,-0.09721 1.40638,-0.44109 1.87358,-1.12229c0.40844,-0.59551 -0.19369,-1.48615 0.10454,-1.68153c0.79879,-0.52331 0.38347,0.66596 0.84605,0.01788c0.54386,-0.76197 0.02976,-1.4962 0.5107,-1.90532c0.83336,-0.70892 1.17794,0.52291 1.45603,0.06229c0.26544,-0.43966 -0.48403,-0.5321 -0.44309,-0.87069c0.08777,-0.72613 0.79315,-1.50062 1.70677,-1.63416c0.27961,-0.04088 3.92253,1.04429 4.19479,1.08087c3.11594,0.41868 8.31394,-1.08807 10.75278,0.36148c2.57518,1.53058 2.13459,5.5304 2.13459,5.5304z" stroke="#9d816a"/><path d="M413.80207,95.72981c-1.03706,-3.17112 -1.61041,-5.82925 -1.28061,-5.93711c0.32979,-0.10785 1.43785,2.37541 2.47492,5.54653c1.03706,3.17112 1.61041,5.82925 1.28061,5.93711c-0.32979,0.10785 -1.43785,-2.37542 -2.47492,-5.54652z" stroke="#6b0000"/></g><path d="M-3.14331,50.70823z" fill="#d6b091" stroke="#9d816a" stroke-width="2" stroke-linecap="butt"/><path d="M90.08245,-29.94777c21.81272,-3.72312 61.68041,-2.62469 61.68041,-2.62469c0,0 9.30843,-5.96798 12.53541,-2.03537c4.32835,5.27483 3.21492,22.12627 6.49968,35.58096c5.38551,22.05951 -2.17228,28.74322 -2.17228,28.74322c0,0 -39.37309,24.2637 -66.20813,30.64283c-26.67288,6.34058 -98.53315,4.92137 -98.53315,4.92137l-9.89302,-56.75058c0,0 66.59053,-33.44242 96.09107,-38.47774z" data-paper-data="{&quot;index&quot;:null}" fill="#9a713e" stroke="#74552e" stroke-width="3.5" stroke-linecap="butt"/><path d="M49.66714,-20.20817c8.42166,-3.42991 36.03514,-12.14237 62.81653,-15.32393c19.28441,-2.29094 41.0921,0.30554 41.0921,0.30554c0,0 19.1286,54.46095 14.07813,64.5429c-8.62651,17.2206 -61.13076,29.38552 -61.13076,29.38552c0,0 -21.79561,4.87469 -36.47377,6.02984c-18.77632,1.47767 -66.94771,2.1093 -66.94771,2.1093l-11.07328,-59.55361c0,0 40.30668,-20.43669 57.63877,-27.49557z" data-paper-data="{&quot;index&quot;:null}" fill="url(#color-6)" stroke="none" stroke-width="0" stroke-linecap="butt"/><path d="M436.40592,364.70823z" data-paper-data="{&quot;index&quot;:null}" fill="#d6b091" stroke="#9d816a" stroke-width="2" stroke-linecap="butt"/><path d="M343.18017,284.05222c29.50054,5.03533 96.09107,38.47774 96.09107,38.47774l-9.89302,56.75058c0,0 -71.86026,1.41922 -98.53314,-4.92137c-26.83503,-6.37912 -66.20813,-30.64283 -66.20813,-30.64283c0,0 -7.55778,-6.68371 -2.17228,-28.74322c3.28476,-13.45469 2.17133,-30.30614 6.49969,-35.58096c3.22698,-3.93261 12.5354,2.03537 12.5354,2.03537c0,0 39.8677,-1.09843 61.68041,2.62469z" data-paper-data="{&quot;index&quot;:null}" fill="#9a713e" stroke="#74552e" stroke-width="3.5" stroke-linecap="butt"/><path d="M383.59547,293.79181c17.33209,7.05889 57.63876,27.49558 57.63876,27.49558l-11.07328,59.55361c0,0 -48.17139,-0.63163 -66.94771,-2.10931c-14.67817,-1.15515 -36.47378,-6.02984 -36.47378,-6.02984c0,0 -52.50425,-12.16493 -61.13076,-29.38553c-5.05046,-10.08195 14.07813,-64.5429 14.07813,-64.5429c0,0 21.8077,-2.59648 41.09211,-0.30554c26.78139,3.18157 54.39487,11.89402 62.81653,15.32393z" data-paper-data="{&quot;index&quot;:null}" fill="url(#color-7)" stroke="none" stroke-width="0" stroke-linecap="butt"/><path d="M100.9775,195.64174z" fill="#d6b091" stroke="#9d816a" stroke-width="2" stroke-linecap="butt"/><path d="M8.71728,277.40043c-21.76691,3.98219 -61.64484,3.35784 -61.64484,3.35784c0,0 -9.23682,6.07823 -12.51032,2.18427c-4.39076,-5.22299 -3.47776,-22.08649 -6.92226,-35.50117c-5.6474,-21.99392 1.83038,-28.76702 1.83038,-28.76702c0,0 39.08183,-24.73011 65.83913,-31.42783c26.59561,-6.65726 98.46767,-6.09251 98.46767,-6.09251l10.56705,56.62895c0,0 -66.18822,34.23177 -95.6268,39.61748z" data-paper-data="{&quot;index&quot;:null}" fill="#9a713e" stroke="#74552e" stroke-width="3.5" stroke-linecap="butt"/><path d="M49.01393,267.18102c-8.38029,3.5298 -35.88823,12.56994 -62.6299,16.06969c-19.25581,2.52006 -41.09283,0.18304 -41.09283,0.18304c0,0 -19.77474,-54.22967 -14.84451,-64.37096c8.42116,-17.32194 60.77707,-30.11025 60.77707,-30.11025c0,0 21.73611,-5.13348 36.39951,-6.46306c18.75742,-1.70081 66.9179,-2.90512 66.9179,-2.90512l11.78055,59.41775c0,0 -40.06085,20.91446 -57.30779,28.17892z" data-paper-data="{&quot;index&quot;:null}" fill="url(#color-8)" stroke="none" stroke-width="0" stroke-linecap="butt"/><g fill="#cecece" stroke="#000000" stroke-width="1.5" stroke-linecap="butt"><path d="M391.78989,396.76106l-6.76493,-2.69152l25.56948,-64.26688l6.76494,2.69153z"/><path d="M392.30759,386.23051c4.03162,2.24049 5.30664,4.85617 3.97468,11.04159c-1.33196,6.18542 -6.11507,10.61384 -10.57597,9.4416c-7.17389,-1.88518 -7.47691,-4.92898 -6.63046,-9.0939c0.24302,-1.19582 0.58081,-2.48407 0.87793,-3.86385c0.26375,-1.22483 -3.46099,6.59662 -5.69601,6.05628c-2.10494,-0.50891 -1.20699,-6.17886 1.8511,-9.42695c3.57906,-3.80141 11.05061,-7.01572 16.19873,-4.15476z"/></g><path d="M417.92306,328.49576l-9.52718,-8.93645l6.88546,-7.34061l9.52718,8.93645z" fill="#cecece" stroke="#000000" stroke-width="1.5" stroke-linecap="butt"/><path d="M413.00983,280.58133c10.99785,10.31594 11.64903,27.48927 1.45446,38.35774c-10.19457,10.86846 -27.37442,11.31638 -38.37226,1.00045c-10.99785,-10.31594 -11.64903,-27.48927 -1.45446,-38.35774c10.19457,-10.86846 27.37443,-11.31637 38.37227,-1.00045z" fill="#cecece" stroke="#000000" stroke-width="1.5" stroke-linecap="butt"/><path d="M393.44265,300.54206c4.7873,4.49047 5.12631,11.90669 0.75722,16.5646c-4.3691,4.65791 -11.79183,4.79366 -16.57913,0.30319c-4.7873,-4.49047 -5.12631,-11.90669 -0.75722,-16.5646c4.3691,-4.65791 11.79183,-4.79366 16.57913,-0.30319z" fill="#cecece" stroke="#000000" stroke-width="1.5" stroke-linecap="butt"/><path d="M411.01287,281.49739c4.7873,4.49047 5.12631,11.90669 0.75722,16.5646c-4.3691,4.65791 -11.79183,4.79366 -16.57913,0.30319c-4.7873,-4.49047 -5.12631,-11.90669 -0.75722,-16.5646c4.3691,-4.65791 11.79183,-4.79366 16.57913,-0.30319z" fill="#cecece" stroke="#000000" stroke-width="1.5" stroke-linecap="butt"/><path d="M391.12772,303.94904c2.88963,2.71046 3.03487,7.25024 0.32442,10.13986c-2.71046,2.88963 -7.25024,3.03487 -10.13986,0.32442c-2.88963,-2.71046 -3.03487,-7.25024 -0.32442,-10.13986c2.71046,-2.88963 7.25024,-3.03487 10.13986,-0.32442z" fill="#cecece" stroke="#000000" stroke-width="1.5" stroke-linecap="butt"/><path d="M408.09257,284.92373c2.88963,2.71046 3.03487,7.25024 0.32442,10.13986c-2.71046,2.88963 -7.25024,3.03487 -10.13986,0.32442c-2.88963,-2.71046 -3.03487,-7.25024 -0.32442,-10.13986c2.71046,-2.88963 7.25024,-3.03487 10.13986,-0.32442z" fill="#cecece" stroke="#000000" stroke-width="1.5" stroke-linecap="butt"/><path d="M412.11995,304.26214l-10.40144,11.08901" fill="none" stroke="#000000" stroke-width="1.5" stroke-linecap="round"/><path d="M450.77718,370.46953l-39.51436,-37.0643l20.94939,-22.33421l39.51436,37.0643z" fill="#cecece" stroke="#000000" stroke-width="1.5" stroke-linecap="butt"/><g data-paper-data="{&quot;index&quot;:null}" fill="#cecece" stroke="#000000" stroke-width="1.5" stroke-linecap="butt"><path d="M439.50744,313.24893l-7.06519,1.75836l-16.70439,-67.11925l7.06518,-1.75836z"/><path d="M406.40767,250.34118c-2.59405,-3.62946 -2.72217,-9.36866 -0.56795,-9.59017c2.28735,-0.2352 4.92764,8.01572 4.83081,6.76656c-0.10907,-1.40719 -0.27074,-2.72912 -0.35092,-3.94676c-0.27927,-4.24088 0.42989,-7.21638 7.792,-8.12077c4.57794,-0.56236 8.7228,4.46847 9.21176,10.77675c0.48896,6.30828 -1.12589,8.72897 -5.42193,10.40756c-5.4858,2.14345 -12.45782,-2.0454 -15.49377,-6.29317z"/></g><path d="M495.15259,412.68066l-43.8875,-41.16628l7.61796,-8.12153l43.8875,41.16628z" fill="#cecece" stroke="#000000" stroke-width="1.5" stroke-linecap="butt"/><path d="M506.82287,403.36901c2.58773,2.42727 1.99631,7.26193 -1.32097,10.79849c-3.31728,3.53656 -8.10424,4.43581 -10.69196,2.00854c-2.58773,-2.42727 -1.99631,-7.26192 1.32097,-10.79849c3.31728,-3.53656 8.10424,-4.43581 10.69197,-2.00854z" fill="#cecece" stroke="#000000" stroke-width="1.5" stroke-linecap="butt"/><path d="M508.61114,397.70644l-43.8875,-41.16628l7.61796,-8.12153l43.8875,41.16628z" fill="#cecece" stroke="#000000" stroke-width="1.5" stroke-linecap="butt"/><path d="M520.28142,388.3948c2.58773,2.42727 1.99631,7.26192 -1.32097,10.79849c-3.31728,3.53656 -8.10424,4.43581 -10.69196,2.00854c-2.58773,-2.42727 -1.99631,-7.26192 1.32097,-10.79849c3.31728,-3.53656 8.10424,-4.43581 10.69196,-2.00854z" fill="#cecece" stroke="#000000" stroke-width="1.5" stroke-linecap="butt"/><path d="M508.65968,367.83656l-15.39232,18.5319l-5.43603,-4.51508l15.39232,-18.5319z" fill="#515151" stroke="#404040" stroke-width="1.5" stroke-linecap="butt"/><path d="M500.41857,397.2266l-20.18767,13.14583l-3.85612,-5.92172l20.18767,-13.14583z" fill="#515151" stroke="#404040" stroke-width="1.5" stroke-linecap="butt"/><path d="M378.27124,155.74022l1.80756,-17.01254l17.58924,1.86883l-1.80756,17.01254z" fill="#675546" stroke="#3f342b" stroke-width="2" stroke-linecap="butt"/><path d="M413.24113,123.01746c-0.80552,7.58151 -7.08145,15.23881 -14.06112,19.86401c-4.67571,3.09845 -11.09211,4.6312 -11.09211,4.6312c0,0 -7.70932,-2.67919 -12.63877,-8.30226c-5.03914,-5.74818 -7.29359,-14.51112 -6.61361,-20.91097c1.34515,-12.6604 12.96486,-23.74898 25.22713,-22.44613c12.26227,1.30285 20.52364,14.50376 19.1785,27.16416z" fill="#ab8d74" stroke="#8e7561" stroke-width="2" stroke-linecap="butt"/><path d="M387.06601,119.85063c-0.45261,4.25994 -4.01469,7.37383 -7.95615,6.95506c-3.94145,-0.41877 -6.76971,-4.21162 -6.31709,-8.47157c0.45261,-4.25994 4.01469,-7.37383 7.95615,-6.95506c3.94145,0.41877 6.76971,4.21162 6.31709,8.47157z" fill="#b5957b" stroke="#9d816a" stroke-width="2" stroke-linecap="butt"/><path d="M373.86192,119.24962l11.38975,1.21014" fill="none" stroke="#9d816a" stroke-width="2" stroke-linecap="round"/><path d="M408.56327,121.98888c-0.45261,4.25994 -4.0147,7.37383 -7.95615,6.95506c-3.94145,-0.41877 -6.76971,-4.21162 -6.31709,-8.47157c0.45261,-4.25994 4.01469,-7.37383 7.95615,-6.95506c3.94145,0.41877 6.76971,4.21162 6.31709,8.47157z" fill="#b5957b" stroke="#9d816a" stroke-width="2" stroke-linecap="butt"/><path d="M406.74893,122.59802l-11.38975,-1.21014" fill="none" stroke="#9d816a" stroke-width="2" stroke-linecap="round"/><path d="M383.94325,134.37542c0,0 3.01707,-0.50114 4.50471,-0.41943c1.65193,0.09074 4.96573,0.93964 4.96573,0.93964" fill="none" stroke="#9d816a" stroke-width="2" stroke-linecap="round"/><path d="M377.7149,108.83019l7.89173,0.74128l2.57892,1.34322l0.65299,4.83224l1.25012,4.70127l-0.55567,4.31501l-1.76433,3.79779" fill="none" stroke="#9d816a" stroke-width="1" stroke-linecap="round"/><path d="M393.42928,113.70746l0.45774,-2.47859l2.66662,-0.39708l4.3865,-0.11715l3.7281,0.5905" fill="none" stroke="#9d816a" stroke-width="1" stroke-linecap="round"/><path d="M393.32716,114.66862l-0.97497,3.68725" fill="none" stroke="#9d816a" stroke-width="1" stroke-linecap="round"/><path d="M392.24226,122.13503l-0.04325,-2.33742" fill="none" stroke="#9d816a" stroke-width="1" stroke-linecap="round"/><path d="M392.48795,124.39676l-1.2447,5.31101" fill="none" stroke="#9d816a" stroke-width="1" stroke-linecap="round"/><path d="M392.28204,226.77281v-43.06929c0,0 2.60195,-0.98218 3.85291,-1.00064c2.4739,-0.03652 7.04572,0.12856 14.24076,0.28188c3.12711,0.06664 8.65034,-1.19601 11.70056,-1.15133c2.5251,0.037 2.89983,1.38752 2.89983,1.38752v43.55186z" fill="#ab8d74" stroke="#9d816a" stroke-width="2" stroke-linecap="butt"/><path d="M398.91736,194.52503c0,4.16431 -0.4051,7.54015 -0.90482,7.54015c-0.49972,0 -0.90482,-3.37584 -0.90482,-7.54015c0,-4.16431 0.4051,-7.54015 0.90482,-7.54015c0.49972,0 0.90482,3.37584 0.90482,7.54015z" fill="#bd0000" stroke="#6b0000" stroke-width="2" stroke-linecap="butt"/><path d="M416.50096,215.75808c0,4.1643 -0.33759,7.54015 -0.75402,7.54015c-0.41643,0 -0.75402,-3.37584 -0.75402,-7.54015c0,-4.1643 0.33759,-7.54015 0.75402,-7.54015c0.41643,0 0.75402,3.37584 0.75402,7.54015z" fill="#bd0000" stroke="#6b0000" stroke-width="2" stroke-linecap="butt"/><path d="M416.53113,193.07732c0,4.1643 -0.35109,7.54015 -0.78417,7.54015c-0.43309,0 -0.78417,-3.37584 -0.78417,-7.54015c0,-4.1643 0.35109,-7.54014 0.78417,-7.54014c0.43309,0 0.78417,3.37584 0.78417,7.54014z" fill="#bd0000" stroke="#6b0000" stroke-width="2" stroke-linecap="butt"/><path d="M-176.5,463v-566h833v566z" fill="url(#color-9)" stroke="#2a2a2a" stroke-width="6.5" stroke-linecap="butt"/></g></g></svg>