<svg version="1.1" xmlns="http://www.w3.org/2000/svg" xmlns:xlink="http://www.w3.org/1999/xlink" width="21.33343" height="60.20228" viewBox="0,0,21.33343,60.20228"><defs><radialGradient cx="235.58441" cy="179.52245" r="1.70044" gradientUnits="userSpaceOnUse" id="color-1"><stop offset="0" stop-color="#67d9ff"/><stop offset="1" stop-color="#befffa"/></radialGradient><radialGradient cx="245.13495" cy="191.78826" r="2.91762" gradientUnits="userSpaceOnUse" id="color-2"><stop offset="0" stop-color="#67d9ff"/><stop offset="1" stop-color="#befffa"/></radialGradient><radialGradient cx="243.77572" cy="183.42951" r="2.60007" gradientUnits="userSpaceOnUse" id="color-3"><stop offset="0" stop-color="#67d9ff"/><stop offset="1" stop-color="#befffa"/></radialGradient><radialGradient cx="235.86108" cy="187.85582" r="1.40894" gradientUnits="userSpaceOnUse" id="color-4"><stop offset="0" stop-color="#67d9ff"/><stop offset="1" stop-color="#befffa"/></radialGradient></defs><g transform="translate(-229.99995,-149.96358)"><g data-paper-data="{&quot;isPaintingLayer&quot;:true}" fill-rule="nonzero" stroke-linecap="butt" stroke-linejoin="miter" stroke-miterlimit="10" stroke-dasharray="" stroke-dashoffset="0" style="mix-blend-mode: normal"><path d="M237.29308,156.55832v-4.82956h7.1023v4.82956z" fill="#00c1ff" stroke="#0094c5" stroke-width="0.5"/><path d="M249.56823,198.13789c0,4.66761 -0.27659,8.27448 -2.23963,10.12826c-1.54249,1.45665 -4.48854,1.64972 -6.70928,1.64972c-1.8309,0 -5.36021,-0.169 -6.82164,-1.14436c-2.56707,-1.71328 -2.50605,-5.32215 -2.50605,-10.63363c0,-8.33529 4.09137,-15.0924 9.13831,-15.0924c5.04694,0 9.13831,6.75711 9.13831,15.0924z" fill="#00bfff" stroke="#0094c5" stroke-width="0.5"/><path d="M251.08338,169.44457c0,8.33529 -4.66373,15.0924 -10.41672,15.0924c-5.75299,0 -10.41671,-6.75709 -10.41671,-15.0924c0,-8.33529 4.66371,-15.0924 10.41671,-15.0924c5.75299,0 10.41672,6.75711 10.41672,15.0924z" fill="#00c1ff" stroke="#0094c5" stroke-width="0.5"/><path d="M231.81246,192.56257c0,0 0.87446,-0.77173 0.9064,-1.81063c0.08244,-2.68062 0.22998,-7.77058 0.22998,-9.85638c0,-1.73757 -1.32576,-4.17112 -1.32576,-4.17112l17.96885,0.1894c0,0 -1.70455,2.57507 -1.70455,4.45521c0,1.96738 0.21696,6.35693 0.35715,8.98794c0.06692,1.25574 0.77923,2.11089 0.77923,2.11089z" fill="#b9eeff" stroke="#96c0ce" stroke-width="1"/><g><path d="M237.28484,179.52245c0,0.91525 -0.7613,1.6572 -1.70044,1.6572c-0.93913,0 -1.70044,-0.74196 -1.70044,-1.6572c0,-0.91525 0.7613,-1.6572 1.70044,-1.6572c0.93913,0 1.70044,0.74196 1.70044,1.6572z" fill="url(#color-1)" stroke="#56b8d8" stroke-width="0.25"/><path d="M236.96781,178.97486c0,0.3104 -0.25161,0.562 -0.562,0.562c-0.3104,0 -0.56202,-0.2516 -0.56202,-0.562c0,-0.3104 0.25161,-0.56202 0.56202,-0.56202c0.3104,0 0.562,0.25161 0.562,0.56202z" fill="#ffffff" stroke="none" stroke-width="0"/><path d="M235.18091,180.30062c0,0.19896 -0.1484,0.36025 -0.33144,0.36025c-0.18304,0 -0.33144,-0.16129 -0.33144,-0.36025c0,-0.19896 0.1484,-0.36027 0.33144,-0.36027c0.18304,0 0.33144,0.16131 0.33144,0.36027z" fill="#ffffff" stroke="none" stroke-width="0"/></g><g><path d="M248.05257,191.78826c0,0.03963 -0.00085,0.07908 -0.00248,0.11833c-1.46269,-0.00469 -2.9256,0.01175 -4.38827,0.02138c-0.60336,0.00396 -1.06436,-0.02788 -1.44184,-0.01781c-0.00175,-0.04042 -0.00263,-0.08106 -0.00263,-0.1219c0,-1.5704 1.30624,-2.84343 2.9176,-2.84343c1.61136,0 2.91762,1.27303 2.91762,2.84343z" fill="url(#color-2)" stroke="#56b8d8" stroke-width="0.25"/><path d="M247.50859,190.84869c0,0.53257 -0.43171,0.96428 -0.96428,0.96428c-0.53257,0 -0.9643,-0.43173 -0.9643,-0.96428c0,-0.53257 0.43173,-0.9643 0.9643,-0.9643c0.53257,0 0.96428,0.43173 0.96428,0.9643z" fill="#ffffff" stroke="none" stroke-width="0"/><path d="" fill="#ffffff" stroke="none" stroke-width="0"/></g><g><path d="M246.37579,183.42951c0,1.39946 -1.16409,2.53395 -2.60007,2.53395c-1.43597,0 -2.60007,-1.1345 -2.60007,-2.53395c0,-1.39946 1.16407,-2.53397 2.60007,-2.53397c1.43597,0 2.60007,1.1345 2.60007,2.53397z" fill="url(#color-3)" stroke="#56b8d8" stroke-width="0.25"/><path d="M245.89104,182.59221c0,0.47459 -0.38473,0.85932 -0.85934,0.85932c-0.47459,0 -0.85934,-0.38473 -0.85934,-0.85932c0,-0.47459 0.38475,-0.85936 0.85934,-0.85936c0.47459,0 0.85934,0.38475 0.85934,0.85936z" fill="#ffffff" stroke="none" stroke-width="0"/><path d="M243.15876,184.61937c0,0.30425 -0.2269,0.55086 -0.50679,0.55086c-0.27988,0 -0.50679,-0.24661 -0.50679,-0.55086c0,-0.30425 0.2269,-0.55086 0.50679,-0.55086c0.27988,0 0.50679,0.24661 0.50679,0.55086z" fill="#ffffff" stroke="none" stroke-width="0"/></g><g><path d="M237.27002,187.85582c0,0.75834 -0.6308,1.37311 -1.40894,1.37311c-0.77813,0 -1.40894,-0.61477 -1.40894,-1.37311c0,-0.75834 0.6308,-1.37311 1.40894,-1.37311c0.77813,0 1.40894,0.61477 1.40894,1.37311z" fill="url(#color-4)" stroke="#56b8d8" stroke-width="0.25"/><path d="M237.00733,187.40209c0,0.25719 -0.20848,0.46567 -0.46565,0.46567c-0.25719,0 -0.46567,-0.20848 -0.46567,-0.46567c0,-0.25719 0.2085,-0.46567 0.46567,-0.46567c0.25719,0 0.46565,0.20848 0.46565,0.46567z" fill="#ffffff" stroke="none" stroke-width="0"/><path d="M235.52676,188.50058c0,0.16485 -0.12294,0.2985 -0.27461,0.2985c-0.15167,0 -0.27463,-0.13365 -0.27463,-0.2985c0,-0.16485 0.12296,-0.2985 0.27463,-0.2985c0.15167,0 0.27461,0.13365 0.27461,0.2985z" fill="#ffffff" stroke="none" stroke-width="0"/></g><text transform="translate(234.29222,184.85177) rotate(-4.4465) scale(0.09287,0.09287)" font-size="40" xml:space="preserve" fill="#009dd2" fill-rule="nonzero" stroke="none" stroke-width="1" stroke-linecap="butt" stroke-linejoin="miter" stroke-miterlimit="10" stroke-dasharray="" stroke-dashoffset="0" font-family="Marker" font-weight="normal" text-anchor="start" style="mix-blend-mode: normal"><tspan x="0" dy="0">Yummy</tspan><tspan x="0" dy="46.15px"> soda</tspan></text><path d="M245.05825,151.49201c0,0.70604 -1.86549,1.2784 -4.16669,1.2784c-2.3012,0 -4.16669,-0.57236 -4.16669,-1.2784c0,-0.70604 1.86549,-1.27842 4.16669,-1.27842c2.3012,0 4.16669,0.57238 4.16669,1.27842z" fill="#ffc700" stroke="#cea100" stroke-width="0.5"/><path d="M236.72489,152.77041l0.09471,-1.51515c0,0 2.18784,1.42046 3.8826,1.42046c0.67265,0 1.84065,0.05437 2.64335,-0.21385c1.12559,-0.37608 1.80742,-1.11192 1.80742,-1.11192l0.28409,1.32576c0,0 -0.71577,0.51302 -1.74103,0.82842c-0.97438,0.29975 -2.23745,0.40263 -3.08854,0.40263c-1.54226,0 -3.8826,-1.13636 -3.8826,-1.13636z" fill="#ffc700" stroke="#cea100" stroke-width="0.5"/></g></g></svg>