<svg version="1.1" xmlns="http://www.w3.org/2000/svg" xmlns:xlink="http://www.w3.org/1999/xlink" width="92.13862" height="225.21023" viewBox="0,0,92.13862,225.21023"><g transform="translate(-270.50517,-95.05337)"><g stroke-miterlimit="10"><path d="M326.58322,277.36251c0,-10.50689 0.57143,-33.57143 0.57143,-33.57143h12.85715c0,0 -0.71428,24.31403 -0.71428,35c0,5.01876 0.22404,12.21261 0.42117,17.57106c-3.41633,-1.69166 -7.75865,-1.71699 -11.09312,0.15868c-0.38743,0.21794 -0.73069,0.48034 -1.03856,0.77838c-0.21089,0.16 -0.41524,0.32818 -0.61257,0.50406c-0.16748,-5.79395 -0.39122,-14.62315 -0.39122,-20.44076z" fill="#ffb8c1" stroke="#d17b86" stroke-width="2" stroke-linecap="butt"/><path d="M307.04287,279.45776c0,-10.68597 -0.71429,-35 -0.71429,-35h12.85714c0,0 0.57143,23.06454 0.57143,33.57143c0,9.29714 -0.57143,26.28571 -0.57143,26.28571c0,0 -0.10957,1.60309 -0.47207,3.73908c-0.00086,-0.00185 -0.00172,-0.00371 -0.00258,-0.00556c-0.77462,-1.66214 -1.75365,-3.08589 -2.86002,-4.25147c-0.67801,-4.58981 -4.47447,-8.16399 -9.16708,-8.50023c0.17915,-5.10341 0.3589,-11.34369 0.3589,-15.83897z" fill="#ffb8c1" stroke="#d17b86" stroke-width="2" stroke-linecap="butt"/><path d="M358.31245,150.50645c0,10.22728 3.59422,34.99158 3.61809,61.51806c0.01908,21.20721 -5.67397,13.66746 -5.67397,13.66746c0,0 0.00234,12.78309 -4.73885,16.84041c-5.65428,4.83871 -9.34903,-7.87909 -17.67725,-0.68367c-7.95875,6.87618 -16.06514,-6.48453 -22.19144,-5.02755c-9.56739,2.27537 -7.76055,-19.93104 -16.54783,-16.30068c-8.95571,3.69994 -5.76504,23.09729 -9.20884,23.18029c-5.12327,0.12348 -8.5188,16.4734 -8.5188,16.4734c0,0 -7.24818,17.52721 -6.20058,-1.63729c1.22733,-22.45266 10.77901,-83.20211 10.77901,-100.51737c0,-32.09472 21.5337,-58.11264 39.64792,-58.11264c18.11422,0 36.71255,18.50487 36.71255,50.5996z" fill="#ff8acf" stroke="#a94f88" stroke-width="1" stroke-linecap="butt"/><path d="M322.70916,178.16947c-21.50574,0 -38.93959,-17.18655 -38.93959,-38.38725c0,-21.20069 17.43385,-38.38725 38.93959,-38.38725c4.39623,0 8.6223,0.7182 12.56408,2.04206c-0.50139,0.71702 -0.87045,1.48569 -1.07342,2.29755c-0.93111,3.72445 -1.33122,5.90393 -1.05573,9.82484c0.08946,1.27327 0.37268,3.78526 1.25,5c0.42333,0.58615 1.38555,1.05835 1.25464,1.76943c-1.15482,6.27299 0.96719,10.58893 5.41501,14.6324c1.69509,1.54099 5.2,0.93505 7.43304,1.4933h1.43273c3.64682,2.32071 7.73008,3.85068 11.64838,3.66242c-1.22406,20.1135 -18.15824,36.0525 -38.86874,36.0525z" fill="#ffbb66" stroke="#c18d4d" stroke-width="2" stroke-linecap="butt"/><path d="M302.50057,251.78647l10.5,-74.75l20.5,-2l5.25,77.25z" fill="#a97b43" stroke="#d17b86" stroke-width="0" stroke-linecap="butt"/><path d="M331.07556,120.7418c3.82355,3.27733 2.52713,6.83856 0.81841,10.83072c-0.61077,1.42698 -0.96339,5.02888 -3.50882,4.51979c-3.20506,-0.64101 -5.01828,-4.86168 -5.28724,-8.79122c-0.29461,-0.51278 -0.46308,-1.10725 -0.46308,-1.74106c0,-0.83346 0.29132,-1.59887 0.77769,-2.19997c0.21082,-0.79 0.51778,-1.4789 0.92317,-2.00964c1.50781,-1.97404 4.65868,-3.80281 6.38155,-0.78779z" fill="#a97b43" stroke="none" stroke-width="0.5" stroke-linecap="butt"/><path d="M294.82559,142.30272c0.97828,0.65219 1.88584,1.76122 1.95656,2.93484c0.07377,1.22425 -0.74309,3.53691 -0.72503,4.82802c0.02167,1.55021 1.52528,2.48566 1.31824,5.09032c-0.15455,1.9443 -4.41055,2.14287 -5.72436,1.35661c-2.79951,-1.67539 -3.26162,-4.04608 -3.84282,-6.95207c-0.53607,-0.61494 -0.86073,-1.41897 -0.86073,-2.29883c0,-1.74685 1.27973,-3.19479 2.9528,-3.45747c1.52774,-1.46544 3.34255,-2.55661 4.92535,-1.50141z" fill="#a97b43" stroke="none" stroke-width="0.5" stroke-linecap="butt"/><path d="M315.96011,148.25138c0,2.64563 -1.9947,3.6799 -3.80307,6.45954c-1.56964,2.4127 -2.78755,6.20305 -5.06276,6.20305c-1.87423,0 -3.89833,-3.78633 -5.33028,-5.56322c-2.30905,-2.86528 -3.53554,-4.04902 -3.53554,-7.09937c0,-4.94201 3.96936,-8.9483 8.86582,-8.9483c4.89646,0 8.86583,4.00628 8.86583,8.9483z" fill="#ff77cd" stroke="#a94f88" stroke-width="1" stroke-linecap="butt"/><path d="M318.20437,142.35054c0,8.36832 -5.2813,7.86589 -11.59184,7.86589c-6.31054,0 -11.26064,0.50243 -11.26064,-7.86589c0,-8.36832 5.11571,-15.15219 11.42624,-15.15219c6.31054,0 11.42624,6.78386 11.42624,15.15219z" fill="#ff7b7b" stroke="#000000" stroke-width="1" stroke-linecap="butt"/><path d="M300.63638,150.20532l-3.11463,3.11463" fill="none" stroke="#000000" stroke-width="1" stroke-linecap="round"/><path d="M305.12512,150.38856l-2.93142,3.29784" fill="none" stroke="#000000" stroke-width="1" stroke-linecap="round"/><path d="M295.74626,138.35896l-4.144,2.16516" fill="none" stroke="#000000" stroke-width="1" stroke-linecap="round"/><path d="M291.90711,138.336l4.26716,-2.27766" fill="none" stroke="#000000" stroke-width="1" stroke-linecap="round"/><path d="M312.79633,140.31948c0,4.50278 -2.39931,8.15301 -5.359,8.15301c-2.9597,0 -5.359,-3.65022 -5.359,-8.15301c0,-4.50278 2.3993,-8.15301 5.359,-8.15301c2.9597,0 5.359,3.65023 5.359,8.15301z" fill="#000000" stroke="#000000" stroke-width="1" stroke-linecap="butt"/><path d="M309.29606,135.30167c0.12987,-0.25055 0.21652,-0.74596 0.55198,-0.88662c2.32098,-0.97324 0.43371,5.57638 -1.14054,2.64148c-0.18303,-0.11454 -0.32835,-0.31181 -0.39185,-0.56369c-0.1257,-0.49862 0.11681,-1.02241 0.54167,-1.16994c0.14598,-0.05069 0.29451,-0.05036 0.43168,-0.00786c0.00238,-0.00443 0.00473,-0.00888 0.00705,-0.01337z" fill="#ffffff" stroke="none" stroke-width="0.5" stroke-linecap="butt"/><path d="M316.09841,165.35119c0,0 4.82164,-4.12363 6.7308,-4.69505c1.9969,-0.59769 6.63653,-0.66718 6.63653,-0.66718" fill="none" stroke="#000000" stroke-width="1" stroke-linecap="round"/><path d="M294.02884,160.59544c0,-0.78047 -1.07384,-2.79719 -0.70448,-3.42431c0.73365,-1.24561 3.37434,-0.79576 4.92453,-0.79576c1.47118,0 2.76654,-0.5329 3.52186,0.60853c0.44127,0.66684 0.69822,2.75204 0.69822,3.61154c0,0.57247 1.02887,3.11831 0.82235,3.61608c-0.63428,1.52877 -2.85564,-0.25315 -4.61385,-0.25315c-0.96346,0 -0.70866,3.10571 -1.419,2.56226c-1.00802,-0.77118 -3.22962,-4.55797 -3.22962,-5.92518z" fill="#fea8ff" stroke="none" stroke-width="0.5" stroke-linecap="butt"/><path d="M343.76301,158.39477c0,-2.33068 1.88939,-4.22007 4.22006,-4.22007c2.33068,0 4.22007,1.88939 4.22007,4.22007c0,1.22083 0.33874,3.66202 -0.48995,5.02986c-0.75335,1.24348 -2.62027,1.47593 -3.73012,1.47593c-1.18638,0 -3.11557,0.91818 -3.88227,-0.45149c-0.7395,-1.3211 -0.33779,-4.91 -0.33779,-6.05429z" fill="#fea8ff" stroke="none" stroke-width="0.5" stroke-linecap="butt"/><path d="M350.55159,120.8236c-3.87714,6.56632 0.2833,13.31587 -11.68067,6.46868c-11.96397,-6.84718 -16.38895,-20.76531 -12.51182,-27.33163c3.87714,-6.56632 11.21855,2.97676 23.18252,9.82396c11.96397,6.8472 4.88711,4.47267 1.00997,11.03899z" fill="#ff8acf" stroke="#a94f88" stroke-width="1" stroke-linecap="butt"/><path d="M292.69024,152.9088c-5.28335,-7.30118 -4.3798,-7.73534 3.20552,-19.14934c8.09832,-12.18591 24.36715,-42.24098 29.6505,-34.9398c5.28336,7.30119 -1.01686,25.43599 -10.53827,35.6553c-9.3422,10.02696 -5.87235,13.283 -11.1557,5.98182z" fill="#ff8acf" stroke="#a94f88" stroke-width="1" stroke-linecap="butt"/><path d="M340.64061,169.65798c-1.90915,2.71544 -8.7746,4.32936 -11.21566,1.78216c-1.6877,-1.76108 0.6447,-3.63981 1.01038,-4.89556c1.75158,-6.01502 10.77363,-11.52485 11.45225,-2.70272c0.16737,0.29979 0.29194,0.62672 0.36543,0.97254c0.97179,1.08613 -0.96161,3.91795 -1.61239,4.84358z" fill="#a97b43" stroke="none" stroke-width="0.5" stroke-linecap="butt"/><path d="M352.91403,147.12596c-0.81985,3.2794 -0.79737,4.5976 -4.39839,5.98765c-2.08322,0.80416 -5.77242,-0.72794 -5.45067,-3.17974c0.32688,-2.49089 4.12898,-8.70389 6.45355,-8.70389c3.17487,0 3.96758,3.17678 3.3955,5.46511z" fill="#a97b43" stroke="none" stroke-width="0.5" stroke-linecap="butt"/><path d="M317.02943,182.70427v-4.50066h8.29808v4.50066z" fill="#ffbb66" stroke="#c18d4d" stroke-width="2" stroke-linecap="butt"/><path d="M288.03537,251.85606c0,0 3.3869,-4.88724 7.4536,-11.46715c1.26132,0.21388 2.51376,0.43209 3.91042,0.65873c2.38108,0.38639 4.83034,0.67063 7.22617,0.38987c2.09711,-0.24576 4.10984,-1.30525 5.7741,-2.60467c9.14069,-7.13684 4.3412,-19.066 -3.65292,-25.239c0.10305,-0.41941 0.19111,-0.82597 0.26313,-1.2184c1.03198,-5.62324 0.4385,-14.26333 1.17544,-20.67544c0.90131,-7.84233 2.32237,-15.51122 2.32237,-15.51122c0,0 6.80342,-0.1402 10.12099,-0.22212c2.08228,-0.05141 5.30798,-0.1382 7.98258,-0.21128c-2.47676,7.96326 -0.28381,18.30082 7.52052,21.8241c0.14001,5.88255 0.05307,11.92182 0.67843,15.95531c1.85093,11.93852 15.89113,36.91481 15.89113,36.91481c0,0 3.22184,5.98075 -38.97646,5.77337c-18.07712,-0.08884 -27.6895,-4.36691 -27.6895,-4.36691z" fill="#ff6478" stroke="#d24457" stroke-width="2" stroke-linecap="butt"/><path d="M311.36827,177.04803l-1.13137,14.79276l-13.28377,33.5804c-0.60674,-0.32022 -1.25041,-0.57986 -1.92295,-0.77089c-1.48686,-0.87658 -3.22034,-1.37945 -5.07127,-1.37945c-0.26703,0 -0.53162,0.01046 -0.79338,0.03101z" fill="#ffbb66" stroke="#c18d4d" stroke-width="2" stroke-linecap="butt"/><path d="M286.59717,226.38761c0.08233,-0.40808 0.13864,-0.81144 0.17077,-1.1994c0,0 0.16143,-1.61425 1.36349,-2.53483c0.21306,-0.57226 0.54913,-1.03463 1.10683,-1.28748c2.46312,-1.11673 6.09651,-0.91576 8.05801,0.94612c1.36212,1.29294 -0.88031,3.65177 -1.28118,5.48654c-0.27373,1.25286 -0.46962,3.48432 -1.15048,5.05752c-0.0876,2.06742 -0.30746,4.17685 -0.35492,6.01106c0.13,1.84438 -0.03956,3.77172 -0.29109,5.64129c-0.11935,0.88709 -1.17925,6.54048 -1.47474,6.84192c-1.63196,1.66482 -3.85243,3.65487 -6.15871,3.31429c-1.49801,-0.22122 -2.37388,-1.10585 -2.91679,-2.30314c-0.09627,0.05195 -0.19667,0.09756 -0.30169,0.136c-2.06267,0.75512 -4.78071,1.49833 -6.58506,0.24567c-2.01684,-1.40019 -1.76127,-5.6624 -1.04296,-8.94109c-0.63822,-0.24679 -1.18599,-0.67529 -1.57986,-1.22205c-4.59458,-2.39137 -4.9014,-4.48028 -0.66147,-8.91357c1.09107,-1.14082 2.7619,-1.41463 4.45853,-1.50255c-1.20429,-1.64867 -3.65487,-3.48399 -2.82828,-5.3117c2.98041,-6.59013 7.71907,-2.83544 10.90024,-1.22359c0.1938,0.24883 0.38381,0.5019 0.56937,0.75899z" fill="#a97b43" stroke="none" stroke-width="0.5" stroke-linecap="butt"/><path d="M317.30314,297.03788c0.72472,0.16465 3.28063,6.2493 3.60982,7.72038c2.00185,8.94583 -4.55038,13.57311 -12.23475,15.50199c-4.15361,0.0372 -8.00117,-0.237 -12.11103,-0.75072c-1.75581,-0.21947 -5.91118,-0.25901 -7.25887,-1.15936c-3.65059,-2.43885 -5.7264,-6.50907 -2.0267,-10.5204c1.08141,-1.1725 3.13282,-0.62483 4.71896,-0.7933c2.78116,-0.29539 6.00508,-0.12663 8.68475,0.36951c1.15439,0.21373 -0.10637,-2.42323 0.35095,-3.50451c0.45722,-1.08103 1.39186,-1.89039 2.07707,-2.84335c0.75398,-1.0486 0.95795,-2.48205 0.88723,-3.77164c0,0 0,-3.5 3.5,-3.5c2.11604,0 2.95276,1.27933 3.28361,2.29106c0.60355,-0.49439 1.37532,-0.79106 2.21639,-0.79106c1.21552,0 2.28632,0.61962 2.91376,1.56025c0.43838,0.01815 0.90086,0.0803 1.38881,0.19116z" fill="#a97b43" stroke="none" stroke-width="0.5" stroke-linecap="butt"/><path d="M335.48366,291.9457l-0.03785,-0.04325l1.98724,-1.73883c0.6173,-0.54584 1.42872,-0.87715 2.31752,-0.87715c1.933,0 3.5,1.567 3.5,3.5v2.36806c0.26547,2.57572 0.80137,5.08124 1.10472,7.63401c0.05383,0.45294 -0.49635,1.10044 -0.12324,1.36284c0.36537,0.25696 0.79525,-0.40704 1.19287,-0.61057c2.33218,0.24237 6.05114,0.30897 7.63368,2.4064c1.21695,1.61289 0.81911,7.61064 -0.52655,9.21373c-1.15004,1.37005 -2.99827,1.98899 -4.6456,2.68608c-3.31705,1.40366 -7.86778,0.69214 -11.38587,0.68944c-1.40433,-0.00108 -5.03574,0.10631 -6.29563,-0.40984c-1.51614,-0.62113 -3.17514,-1.33482 -4.12876,-2.66715c-0.55929,-0.78139 -0.74885,-2.33553 -0.80868,-3.86082c-0.44672,-0.51508 -0.76694,-1.25353 -0.76694,-2.31218c0,-1.04452 0.31172,-1.77732 0.74911,-2.29143c-0.00119,-2.91762 0.00023,-5.83526 0.00073,-8.75289c-0.01119,-0.20475 -0.0109,-0.4047 0.00009,-0.60003c0.00005,-0.36855 0.00007,-0.7371 0.00007,-1.10565c0,0 0,-2.7786 2.47574,-3.38432l1.44982,-1.93309c0.63689,-0.86862 1.6648,-1.43259 2.82444,-1.43259c1.50853,0 2.79416,0.95436 3.28604,2.29226c0.06507,-0.04542 0.13077,-0.08974 0.19705,-0.13302z" fill="#a97b43" stroke="none" stroke-width="0.5" stroke-linecap="butt"/><path d="M281.81055,135.22759c-2.65739,-6.80053 -1.8605,-6.95712 6.41036,-14.36423c8.83021,-7.90804 27.70373,-28.1661 30.36112,-21.36557c2.6574,6.80054 -5.97331,19.73946 -15.5193,25.81575c-9.36632,5.96191 -7.3079,9.2213 -9.9653,2.42077z" fill="#ff8acf" stroke="#a94f88" stroke-width="1" stroke-linecap="butt"/><path d="M277.90464,126.22093c-1.45631,-7.15458 -0.64438,-7.17271 8.7705,-13.05765c10.0516,-6.28292 32.10904,-23.01815 33.56535,-15.86357c1.45632,7.1546 -9.25834,18.42851 -19.7022,22.78432c-10.24728,4.27382 -8.77607,7.83698 -10.23238,0.6824z" fill="#ff8acf" stroke="#a94f88" stroke-width="1" stroke-linecap="butt"/></g></g></svg>