<svg version="1.1" xmlns="http://www.w3.org/2000/svg" xmlns:xlink="http://www.w3.org/1999/xlink" width="97.23664" height="106.94984" viewBox="0,0,97.23664,106.94984"><g transform="translate(-205.25773,-130.67959)"><g data-paper-data="{&quot;isPaintingLayer&quot;:true}" fill-rule="nonzero" stroke-linecap="butt" stroke-linejoin="miter" stroke-miterlimit="10" stroke-dasharray="" stroke-dashoffset="0" style="mix-blend-mode: normal"><path d="M284.05735,219.55873c-14.32818,12.45486 -39.88255,6.35092 -57.55649,5.747c-8.10362,-0.2769 -13.41146,-6.53683 -14.92308,-14.0136c-5.08451,-25.14906 -10.3358,-44.19929 10.53833,-62.34425c13.82543,-12.01784 37.83944,-23.42508 45.26933,-11.4182c5.80441,9.38008 1.57074,31.34885 1.57074,31.34885c0,0 22.3161,0.42907 28.45079,5.54885c8.45209,7.05377 -0.30524,33.79245 -13.34963,45.13136z" fill="#b60000" stroke="#560000" stroke-width="3.5"/><g><path d="M289.74133,203.92473c-6.65887,5.78827 -16.45291,5.42342 -21.8756,-0.81489c-5.42268,-6.23831 -4.42056,-15.98779 2.2383,-21.77604c6.65887,-5.78827 16.45292,-5.42343 21.87561,0.81488c5.42268,6.23831 4.42056,15.98779 -2.2383,21.77605z" fill="#000000" stroke="#000000" stroke-width="0"/><path d="M286.68866,191.27063c1.7511,-1.52216 4.40462,-1.33656 5.92677,0.41454c1.52216,1.7511 1.33656,4.40462 -0.41454,5.92677c-1.7511,1.52216 -4.40462,1.33656 -5.92677,-0.41454c-1.52216,-1.7511 -1.33656,-4.40462 0.41454,-5.92677z" fill="#ffffff" stroke="none" stroke-width="0.5"/><path d="M268.87825,194.71503c-2.01964,-3.00848 -3.79893,-7.90057 2.39132,-9.17586c0.25619,-0.05279 0.51107,-0.06549 0.76508,-0.04836c0.87708,-0.01233 1.7537,0.24861 2.49209,0.7732c0.46432,0.18879 0.93029,0.36474 1.40045,0.4644c2.35599,0.49937 2.58358,3.75844 2.82431,5.28615c0.23196,1.47198 4.05652,3.25737 5.2162,4.80644c0.20321,0.27142 -0.02636,1.55596 -0.04169,1.67736c-0.09169,0.7268 1.05478,1.22433 1.00367,1.95508c-0.29432,4.20796 -3.29218,5.10512 -6.75204,4.80616c-2.72393,-0.23539 -7.30007,-8.27168 -8.37408,-10.38297z" fill="#ffffff" stroke="none" stroke-width="0.5"/></g><g><path d="M252.1745,163.66132c-5.8239,5.06246 -14.38986,4.74338 -19.13258,-0.7127c-4.74273,-5.45607 -3.86626,-13.98304 1.95764,-19.04551c5.8239,-5.06246 14.38986,-4.74338 19.13258,0.7127c4.74273,5.45607 3.86626,13.98304 -1.95764,19.04551z" fill="#000000" stroke="#000000" stroke-width="0"/><path d="M249.50463,152.59393c1.53153,-1.33129 3.85231,-1.16897 5.18361,0.36256c1.33129,1.53153 1.16896,3.8523 -0.36258,5.18359c-1.53153,1.33129 -3.85231,1.16898 -5.1836,-0.36255c-1.33129,-1.53153 -1.16897,-3.85231 0.36256,-5.18361z" fill="#ffffff" stroke="none" stroke-width="0.5"/><path d="M233.9275,155.60643c-1.76639,-2.63125 -3.32259,-6.90991 2.09147,-8.02527c0.22406,-0.04617 0.44698,-0.05727 0.66915,-0.0423c0.7671,-0.01079 1.53379,0.21743 2.1796,0.67624c0.40611,0.16511 0.81364,0.319 1.22485,0.40616c2.06057,0.43675 2.25961,3.28716 2.47016,4.62331c0.20287,1.28741 3.54787,2.84892 4.56213,4.20376c0.17772,0.23739 -0.02306,1.36086 -0.03646,1.46703c-0.0802,0.63566 0.92252,1.0708 0.87782,1.70993c-0.25742,3.68032 -2.87937,4.46497 -5.90538,4.2035c-2.38237,-0.20586 -6.38469,-7.23448 -7.32404,-9.08103z" fill="#ffffff" stroke="none" stroke-width="0.5"/></g><path d="M244.88156,183.534c-0.33953,-0.23548 -0.65913,-0.41733 -0.93852,-0.52733l-0.92371,0.3355c-0.48607,0.18948 -1.05933,0.06561 -1.42122,-0.35072c-0.46057,-0.52984 -0.40441,-1.33273 0.12544,-1.7933c0.02832,-0.02462 0.05743,-0.04778 0.08723,-0.06945l1.05326,-0.78223l0.15865,0.21361l0.31051,-0.43104c0.47878,0.07995 0.98676,0.07017 1.46672,0.14647c0.38778,-0.05506 0.7936,0.06995 1.08487,0.36576l1.00333,1.00037l-0.00036,0.00035c0.33146,0.4389 0.68048,0.52393 1.03102,0.4013c0.18901,-0.23957 0.38626,-0.4853 0.623,-0.57011c0.02726,-0.00977 0.0546,-0.0193 0.08197,-0.02862l-0.01322,-0.02006l0.35606,-0.23482c0.41435,-0.48236 0.8067,-1.05589 1.14737,-1.44987c-0.88319,-1.92568 -1.33858,-3.89214 -1.13934,-5.24148c0.2578,-1.7459 2.82718,-3.85889 4.62475,-3.17143c0.25531,0.03077 0.50775,0.08724 0.75313,0.16911c0.80338,-0.15985 3.01586,2.09797 3.30876,2.38317c2.56833,2.50085 6.11519,10.82033 0.02205,12.03279c-2.22814,0.44337 -4.41953,-1.23964 -6.05257,-3.53605c-0.05706,0.08001 -0.12437,0.1546 -0.20179,0.2219l-0.99774,0.86729l-0.02488,-0.02862c-0.1198,0.04244 -0.26379,0.06994 -0.39167,0.1074l-0.00449,0.00296l-0.0009,-0.00136c-0.0615,0.01821 -0.11909,0.03882 -0.1683,0.06461c-0.0405,0.03441 -0.08105,0.06817 -0.12167,0.10127c-0.01279,0.01907 -0.02255,0.04 -0.02878,0.06312c0.05606,0.06471 0.11396,0.13186 0.17335,0.20125c0.19819,0.02163 0.50398,-0.03277 0.62721,0.10194c0.41888,0.4579 0.83449,1.01017 0.90564,1.62668c0.00706,0.0612 0.01215,0.12238 0.01543,0.18353l0.03661,-0.00804l0.05686,0.25892c1.13366,1.77975 1.79792,3.83104 -0.1761,5.0291c-0.10442,0.06338 -0.21236,0.11767 -0.32322,0.16443l0.03145,0.05694l-1.25316,0.6919c-0.51658,0.29913 -1.18906,0.20028 -1.59525,-0.26701c-0.4219,-0.48535 -0.4102,-1.19983 0.002,-1.67042l0.71558,-0.84512c0.18504,-0.77902 -0.40006,-1.95173 -1.26921,-3.08204c-0.46462,-0.42181 -0.87683,-0.82382 -1.2459,-1.23687c-0.07406,-0.01568 -0.14787,-0.03361 -0.22122,-0.05384c-0.72504,-0.19997 -0.98285,-0.83074 -1.28904,-1.39184z" fill="#000000" stroke="none" stroke-width="0.5"/><path d="M220.62011,164.30983c3.32449,-2.88984 8.36219,-2.53748 11.25202,0.78702c2.88984,3.32449 2.53748,8.36219 -0.78702,11.25202c-3.32449,2.88984 -8.36219,2.53748 -11.25202,-0.78702c-2.88984,-3.32449 -2.53748,-8.36219 0.78702,-11.25202z" fill="#e24d4d" stroke="none" stroke-width="0.5"/><path d="M253.14953,207.98229c3.40272,-2.95784 8.55895,-2.59719 11.51678,0.80553c2.95784,3.40272 2.59719,8.55895 -0.80553,11.51678c-3.40272,2.95784 -8.55895,2.59719 -11.51678,-0.80553c-2.95784,-3.40272 -2.59719,-8.55895 0.80553,-11.51678z" fill="#e24d4d" stroke="none" stroke-width="0.5"/><path d="M237.03538,203.17056c-1.54882,1.34632 -4.65649,0.30707 -6.94116,-2.32123c-2.28467,-2.6283 -2.88119,-5.85038 -1.33237,-7.1967c1.54882,-1.34632 4.65649,-0.30707 6.94116,2.32123c2.28467,2.6283 2.88119,5.85038 1.33237,7.1967z" fill="#000000" stroke="none" stroke-width="0"/><path d="M224.18501,233.66381c-1.09477,-0.61341 -1.87835,-1.94626 -2.36406,-3.53789c-0.3292,-0.8357 -0.54575,-1.8151 -0.59011,-2.90978c-0.01743,-0.4301 -0.0204,-0.81916 -0.01061,-1.17166c-0.03482,-3.37055 1.04481,-6.31537 3.13672,-5.3131c1.11843,-4.60052 1.85456,-9.6541 2.7599,-14.50435c0.29007,-1.55406 0.60172,-9.76427 1.59845,-9.85692l1.5914,-0.1479c0.57091,1.66077 0.78326,3.44895 0.77921,5.27589c-0.00571,2.58315 -0.44402,5.24375 -0.91294,7.73113c-0.99683,5.28767 -2.25872,10.71563 -2.41598,16.53727c1.2959,4.55892 0.35275,10.03524 -3.27883,8.21089z" fill="#000000" stroke="none" stroke-width="0.5"/><path d="M232.81351,237.49556c-3.921,1.06884 -3.76069,-4.48579 -1.5874,-8.69768c0.99903,-5.73743 0.83735,-11.30778 0.90768,-16.68815c0.03309,-2.53098 0.13049,-5.22568 0.63658,-7.75878c0.35792,-1.79154 0.92028,-3.50222 1.80885,-5.01699l1.53057,0.4602c0.95864,0.28825 -0.36221,8.3975 -0.38573,9.97823c-0.07336,4.93348 -0.35286,10.03274 -0.16789,14.76364c2.24899,-0.56802 2.7239,2.5323 2.02211,5.82917c-0.06023,0.34745 -0.14022,0.72822 -0.24249,1.14634c-0.26032,1.0642 -0.6666,1.9813 -1.15481,2.73523c-0.79138,1.46388 -1.82344,2.6151 -3.01802,2.9995z" data-paper-data="{&quot;index&quot;:null}" fill="#000000" stroke="none" stroke-width="0.5"/></g></g></svg>