<svg version="1.1" xmlns="http://www.w3.org/2000/svg" xmlns:xlink="http://www.w3.org/1999/xlink" width="104.38789" height="227.01498" viewBox="0,0,104.38789,227.01498"><g transform="translate(-189.73783,-90.85301)"><g data-paper-data="{&quot;isPaintingLayer&quot;:true}" fill-rule="nonzero" stroke-linejoin="miter" stroke-miterlimit="10" stroke-dasharray="" stroke-dashoffset="0" style="mix-blend-mode: normal"><path d="M216.19806,307.94876v-84.14333l42.44653,-0.62794l1.97425,85.39921l-12.58977,0.88782c0,0 -7.94431,-66.79176 -10.90733,-66.83365c-2.4238,-0.03427 -7.09582,67.21363 -7.09582,67.21363z" fill="#383838" stroke="#272727" stroke-width="0.5" stroke-linecap="butt"/><path d="M241.51307,157.09551l-4.50967,-1.2099" fill="none" stroke="#d5da73" stroke-width="1" stroke-linecap="round"/><path d="M226.08395,157.45206v-15.58218h8.27501v15.58218c0,0 5.60071,0.52772 10.75748,3.59241c5.4848,3.25964 10.50957,9.08849 9.21727,9.80675c-5.64236,3.13601 -44.20864,2.27468 -45.20148,2.27468c-0.68345,0 2.72681,-6.35005 7.31279,-10.42034c4.22941,-3.7538 9.63893,-5.2535 9.63893,-5.2535z" fill="#ff33fd" stroke="#a220a0" stroke-width="1" stroke-linecap="butt"/><path d="M293.62573,236.42734c0,1.65841 -19.73216,3.04643 -22.89477,3.94579c-1.20556,0.34283 -6.19762,-18.5059 -11.98256,-34.33115c-6.03321,-16.50442 -12.85838,-30.0096 -13.65025,-29.40153c-1.99479,1.53178 0.88561,5.04692 2.41189,20.03297c1.26439,12.41462 13.53324,23.93576 11.90694,24.61171c-4.8516,2.01652 -35.72939,4.91389 -43.50682,1.17957c-0.34393,-0.16514 5.98353,-14.46704 5.25316,-25.77488c-1.0704,-16.57246 -1.3288,-19.28903 -3.15315,-18.66703c-1.90692,0.65014 -2.99553,57.51962 -5.00572,59.00127c-4.6343,3.41577 -18.11921,0.39773 -20.26996,0.18198c-3.62713,-0.36384 14.92752,-65.53707 14.92752,-66.59047c0,-0.98572 3.02379,-5.64726 7.37783,-9.14723c3.85639,-3.09995 9.15942,-4.39738 10.59852,-4.48331c2.1004,-0.12542 -2.37889,1.16182 -4.91638,3.95423c-1.44788,1.59333 1.06589,2.83261 2.43994,3.0068c2.85432,0.36184 7.12283,1.16992 9.80716,1.16992c2.64836,0 10.75516,1.06644 10.08078,-2.21009c-0.31145,-1.51323 -0.50619,-2.09152 -2.83366,-3.83354c-1.46819,-1.09888 -4.36891,-0.63098 -5.56621,-1.23036c-1.02835,-0.51479 -1.10038,-1.63243 -0.53711,-1.56979c0.90771,0.10093 7.26176,0.0731 12.22646,3.20265c1.25395,0.79044 4.16691,3.462 7.93955,9.4313c4.80896,7.60903 10.85247,18.53392 17.20624,29.38576c11.091,18.94275 22.14059,37.66293 22.14059,38.13544z" fill="#e5ff99" stroke="#d5da73" stroke-width="1" stroke-linecap="butt"/><path d="M239.15526,158.60352l2.1531,-0.1604l3.05292,1.83319l2.24952,2.93312v2.74979l-0.96408,2.38316l-3.21359,0.54996l-2.24952,-0.18332l-4.17768,-0.18331h-4.33835l-3.85632,-0.36664l-4.8204,-0.73328l-3.69563,-2.38316l-0.96408,-3.48307l2.70873,-2.17477l2.31379,-1.20991" fill="none" stroke="#d5da73" stroke-width="1" stroke-linecap="round"/><path d="M224.01921,165.31304l-1.34971,1.3199" fill="none" stroke="#d5da73" stroke-width="1" stroke-linecap="round"/><path d="M220.45212,164.32311h-0.86767" fill="none" stroke="#d5da73" stroke-width="1" stroke-linecap="round"/><path d="M222.77521,158.83484l-2.80513,3.39843l-0.77126,-0.87993" fill="none" stroke="#d5da73" stroke-width="1" stroke-linecap="round"/><path d="M235.21183,156.52503l7.60693,2.18851l-1.54253,1.75987l1.2533,1.86986l2.98865,0.10998" fill="none" stroke="#d5da73" stroke-width="1" stroke-linecap="round"/><path d="M242.33672,165.20305l2.98864,1.31991" fill="none" stroke="#d5da73" stroke-width="1" stroke-linecap="round"/><path d="M228.83961,165.31304l-0.57844,1.97985" fill="none" stroke="#d5da73" stroke-width="1" stroke-linecap="round"/><path d="M231.73185,165.97299l0.38563,1.97986" fill="none" stroke="#d5da73" stroke-width="1" stroke-linecap="round"/><path d="M237.80555,167.73286l-0.28922,-1.3199" fill="none" stroke="#d5da73" stroke-width="1" stroke-linecap="round"/><path d="M240.69779,165.97299l1.63893,2.08984" fill="none" stroke="#d5da73" stroke-width="1" stroke-linecap="round"/><path d="M210.0689,151.16561v-47.0676l43.19408,-0.70425l2.42974,47.4831z" fill="#ffacfe" stroke="#ff64fc" stroke-width="1" stroke-linecap="butt"/><path d="M235.80628,110.47456c0,0 -5.23833,-6.02856 -8.62791,-7.99111c-3.5417,-2.05065 -12.186,-4.0601 -12.186,-4.0601l3.07151,-1.21489l-1.74034,-4.18972c0,0 8.10562,3.20053 11.71861,5.22802c3.24264,1.81965 8.96867,6.38097 8.96867,6.38097z" fill="#c12cbf" stroke="#732d72" stroke-width="1" stroke-linecap="butt"/><path d="M237.31602,109.09582c0,0 -4.80626,-5.38121 -7.50857,-7.51616c-2.54634,-2.01173 -8.26519,-4.94586 -8.26519,-4.94586l3.05428,-0.87145l-0.54655,-3.92341c0,0 6.07275,3.7616 8.80481,5.84992c2.50378,1.91383 6.96253,6.20225 6.96253,6.20225z" fill="#ff4efc" stroke="#ff64fc" stroke-width="1" stroke-linecap="butt"/><path d="M210.4003,150.55162v-46.20133h35.80603v46.20133z" fill="#ff33fd" stroke="#a220a0" stroke-width="1" stroke-linecap="butt"/><path d="M249.6288,150.87685l-0.86627,-29.74211" fill="none" stroke="#ff64fc" stroke-width="1" stroke-linecap="round"/><path d="M251.93886,104.96428v19.92433" fill="none" stroke="#ff64fc" stroke-width="1" stroke-linecap="round"/><path d="M252.22763,130.95252l2.31007,19.63557" fill="none" stroke="#ff64fc" stroke-width="1" stroke-linecap="round"/><path d="M243.95764,130.73501c3.89919,7.79839 -5.74239,17.70964 -11.07293,9.94231c-1.72302,-2.51068 -0.39575,-10.99097 2.95524,-12.18775c1.58477,-0.56599 7.69771,-1.06578 7.86531,1.95099z" fill="#731772" stroke="none" stroke-width="0.5" stroke-linecap="butt"/><path d="M245.46927,126.20623c0,4.47289 -3.31069,8.09889 -7.39464,8.09889c-4.08394,0 -7.39464,-3.626 -7.39464,-8.09889c0,-4.47289 3.3107,-8.09889 7.39464,-8.09889c4.08395,0 7.39464,3.626 7.39464,8.09889z" fill="#000000" stroke="#000000" stroke-width="1" stroke-linecap="butt"/><path d="M235.89288,134.19685l-0.43997,2.85979" fill="none" stroke="#000000" stroke-width="1" stroke-linecap="round"/><path d="M239.96258,137.05664l0.76994,-2.96978" fill="none" stroke="#000000" stroke-width="1" stroke-linecap="round"/><path d="M235.91782,111.93909c0,0 3.27348,-0.5297 4.45537,-0.19495c1.07659,0.30492 2.34962,2.12233 2.34962,2.12233" fill="none" stroke="#000000" stroke-width="1" stroke-linecap="round"/><path d="M209.56483,129.0862l-0.03468,-4.57154l12.59874,-2.45069l1.13459,4.57154z" fill="#e7ff17" stroke="#c0c300" stroke-width="1" stroke-linecap="butt"/><path d="M226.93653,123.20384c0,3.37476 -5.41504,6.11054 -5.41504,6.11054c0,0 -5.21632,-2.73578 -5.21632,-6.11054c0,-1.0935 1.32359,-3.646 1.70444,-4.11303c2.25251,-2.76219 4.10802,2.77169 4.10802,2.77169c0,0 3.07269,-3.77081 3.62624,-3.20215c1.43411,1.47329 1.19265,2.55657 1.19265,4.54349z" fill="#e7ff17" stroke="#c0c300" stroke-width="1" stroke-linecap="butt"/><g fill="#330000" stroke="none" stroke-width="1" stroke-linecap="butt"><path d="M222.74929,123.84603c0,0.74092 -0.56726,1.34154 -1.26701,1.34154c-0.69975,0 -1.267,-0.60063 -1.267,-1.34154c0,-0.74092 0.56726,-1.34153 1.267,-1.34153c0.69975,0 1.26701,0.60063 1.26701,1.34153z"/><path d="M219.8799,126.82722l1.34153,-2.45948l0.63351,0.07453l1.04342,2.27316z"/></g><path d="M214.86976,226.6657l1.44612,-3.48307l44.02628,-0.73328l3.05292,3.84972z" fill="#e5ff99" stroke="#d5da73" stroke-width="1" stroke-linecap="butt"/><path d="M220.33287,226.48238l0.8034,-3.29975" fill="none" stroke="#d5da73" stroke-width="1" stroke-linecap="round"/><path d="M228.36687,223.54927l0.64273,2.56648" fill="none" stroke="#d5da73" stroke-width="1" stroke-linecap="round"/><path d="M237.36494,225.7491l-1.6068,-2.56647" fill="none" stroke="#d5da73" stroke-width="1" stroke-linecap="round"/><path d="M244.75622,222.81598l2.73156,2.93312" fill="none" stroke="#d5da73" stroke-width="1" stroke-linecap="round"/><path d="M256.16448,225.56578l-3.37427,-3.11643" fill="none" stroke="#d5da73" stroke-width="1" stroke-linecap="round"/><path d="M214.78935,312.97157v-4.05998h16.46261v4.05998z" fill="#141414" stroke="#272727" stroke-width="0.5" stroke-linecap="butt"/><path d="M232.54211,307.25496c0,2.84954 -4.35278,5.15956 -9.72221,5.15956c-5.36943,0 -9.72221,-2.31002 -9.72221,-5.15956c0,-2.84954 4.35278,-5.15956 9.72221,-5.15956c5.36943,0 9.72221,2.31002 9.72221,5.15956z" fill="#282828" stroke="#272727" stroke-width="0.5" stroke-linecap="butt"/><path d="M246.09295,313.80879v-4.05998h17.83641v4.05998z" fill="#141414" stroke="#272727" stroke-width="0.5" stroke-linecap="butt"/><path d="M264.60893,308.70275c0,2.84954 -4.35278,5.15956 -9.72221,5.15956c-5.36943,0 -9.72221,-2.31002 -9.72221,-5.15956c0,-2.84954 4.35278,-5.15956 9.72221,-5.15956c5.36943,0 9.72221,2.31002 9.72221,5.15956z" fill="#282828" stroke="#272727" stroke-width="0.5" stroke-linecap="butt"/><path d="M221.35715,144.57365l-0.42857,-0.11158c0,0 2.40779,-5.41336 5.35249,-5.41336c3.37688,0 9.07608,5.98478 9.07608,5.98478l-0.71429,0.25444c0,0 -3.60423,-2.83686 -6.66272,-2.83686c-3.30355,0 -6.62299,2.12257 -6.62299,2.12257z" fill="#000000" stroke="#000000" stroke-width="1" stroke-linecap="butt"/><path d="M234.84887,171.98996c0,1.32162 -1.08364,2.39299 -2.42038,2.39299c-1.33674,0 -2.42037,-1.07137 -2.42037,-2.39299c0,-1.32162 1.08363,-2.39299 2.42037,-2.39299c1.33674,0 2.42038,1.07138 2.42038,2.39299z" fill="#fffe3d" stroke="#ffde00" stroke-width="0.5" stroke-linecap="butt"/><path d="M233.71125,169.02935c0,1.32162 -1.08363,2.39299 -2.42037,2.39299c-1.33674,0 -2.42037,-1.07137 -2.42037,-2.39299c0,-1.32162 1.08363,-2.39299 2.42037,-2.39299c1.33674,0 2.42037,1.07138 2.42037,2.39299z" fill="#fffe3d" stroke="#ffde00" stroke-width="0.5" stroke-linecap="butt"/><path d="M233.02567,164.52731c0,1.32162 -1.08364,2.39299 -2.42038,2.39299c-1.33674,0 -2.42037,-1.07137 -2.42037,-2.39299c0,-1.32162 1.08363,-2.39299 2.42037,-2.39299c1.33674,0 2.42038,1.07138 2.42038,2.39299z" fill="#fffe3d" stroke="#ffde00" stroke-width="0.5" stroke-linecap="butt"/><path d="M236.505,163.07435c0,1.32162 -1.08364,2.39299 -2.42037,2.39299c-1.33674,0 -2.42037,-1.07137 -2.42037,-2.39299c0,-1.32162 1.08363,-2.393 2.42037,-2.393c1.33674,0 2.42037,1.07138 2.42037,2.393z" fill="#fffe3d" stroke="#ffde00" stroke-width="0.5" stroke-linecap="butt"/><path d="M238.63133,160.26248c0,1.32162 -1.08364,2.39299 -2.42038,2.39299c-1.33674,0 -2.42037,-1.07137 -2.42037,-2.39299c0,-1.32162 1.08363,-2.393 2.42037,-2.393c1.33674,0 2.42038,1.07138 2.42038,2.393z" fill="#fffe3d" stroke="#ffde00" stroke-width="0.5" stroke-linecap="butt"/><path d="M238.32291,157.17156c0,1.32162 -1.08363,2.39299 -2.42037,2.39299c-1.33674,0 -2.42037,-1.07137 -2.42037,-2.39299c0,-1.32162 1.08364,-2.39299 2.42037,-2.39299c1.33674,0 2.42037,1.07137 2.42037,2.39299z" fill="#fffe3d" stroke="#ffde00" stroke-width="0.5" stroke-linecap="butt"/><path d="M226.95113,156.72478c0,1.32162 -1.08364,2.39299 -2.42038,2.39299c-1.33674,0 -2.42036,-1.07137 -2.42036,-2.39299c0,-1.32162 1.08363,-2.393 2.42036,-2.393c1.33674,0 2.42038,1.07138 2.42038,2.393z" fill="#fffe3d" stroke="#ffde00" stroke-width="0.5" stroke-linecap="butt"/><path d="M225.19143,140.33011c0,-0.41422 0.33578,-0.75 0.75,-0.75c0.41422,0 0.75,0.33578 0.75,0.75c0,0.41422 -0.33578,0.75 -0.75,0.75c-0.41422,0 -0.75,-0.33578 -0.75,-0.75z" fill="#ffffff" stroke="none" stroke-width="0.5" stroke-linecap="butt"/><path d="M227.5394,140.33011c0,-0.41422 0.33578,-0.75 0.75,-0.75c0.41422,0 0.75,0.33578 0.75,0.75c0,0.41422 -0.33578,0.75 -0.75,0.75c-0.41422,0 -0.75,-0.33578 -0.75,-0.75z" fill="#ffffff" stroke="none" stroke-width="0.5" stroke-linecap="butt"/><path d="M222.84345,141.93101c0,-0.41422 0.33578,-0.75 0.75,-0.75c0.41422,0 0.75,0.33578 0.75,0.75c0,0.41422 -0.33578,0.75 -0.75,0.75c-0.41422,0 -0.75,-0.33578 -0.75,-0.75z" fill="#ffffff" stroke="none" stroke-width="0.5" stroke-linecap="butt"/><path d="M229.78066,141.93101c0,-0.41422 0.33578,-0.75 0.75,-0.75c0.41422,0 0.75,0.33578 0.75,0.75c0,0.41422 -0.33578,0.75 -0.75,0.75c-0.41422,0 -0.75,-0.33578 -0.75,-0.75z" fill="#ffffff" stroke="none" stroke-width="0.5" stroke-linecap="butt"/><path d="M224.97797,142.46463c0,-0.41422 0.33578,-0.75 0.75,-0.75c0.41422,0 0.75,0.33578 0.75,0.75c0,0.41422 -0.33578,0.75 -0.75,0.75c-0.41422,0 -0.75,-0.33578 -0.75,-0.75z" fill="#ffffff" stroke="none" stroke-width="0.5" stroke-linecap="butt"/><path d="M227.5394,142.03773c0,-0.41422 0.33578,-0.75 0.75,-0.75c0.41422,0 0.75,0.33578 0.75,0.75c0,0.41422 -0.33578,0.75 -0.75,0.75c-0.41422,0 -0.75,-0.33578 -0.75,-0.75z" fill="#ffffff" stroke="none" stroke-width="0.5" stroke-linecap="butt"/><text transform="translate(230.85083,128.2949) scale(0.22013,0.22013)" font-size="40" xml:space="preserve" fill="#ffffff" fill-rule="nonzero" stroke="none" stroke-width="1" stroke-linecap="butt" stroke-linejoin="miter" stroke-miterlimit="10" stroke-dasharray="" stroke-dashoffset="0" font-family="Sans Serif" font-weight="normal" text-anchor="start" style="mix-blend-mode: normal"><tspan x="0" dy="0">0</tspan></text><path d="M224.55398,129.94403c-0.5,0 -0.5,-0.5 -0.5,-0.5l0.00971,-0.00867c-0.09285,-0.47463 -0.65753,-1.13033 -1.04362,-1.66777c-0.01658,0.6547 -0.07811,1.18303 -0.30655,1.7566l0.0895,0.0179l-0.10491,0.52455c-0.04197,0.23369 -0.24633,0.41102 -0.49211,0.41102c-0.24578,0 -0.45013,-0.17733 -0.49211,-0.41102l-0.09834,-0.49171c-0.11654,-0.30521 -0.23894,-0.7906 -0.29062,-1.28661c-0.00409,0.01843 -0.0079,0.03594 -0.0114,0.05244c-0.1124,0.53055 -0.2172,2.13466 -1.522,0.99337c-0.62383,-0.54565 0.94722,-2.44724 0.60012,-2.16497c0,0 -0.5,0 -0.5,-0.5c0,-0.5 0.5,-0.5 0.5,-0.5c0.14531,0.02399 0.27304,0.06823 0.3843,0.12848c0.30873,-0.53663 0.78486,-0.79804 1.42988,-0.22585c0.08676,-0.07247 0.19846,-0.11608 0.32034,-0.11608c0.16566,0 0.31251,0.08057 0.40349,0.20466l0.31669,0.42225l-0.01237,0.00927c0.87978,0.67881 1.56871,1.46145 1.81028,2.64737l0.00971,0.20478c0,0 0,0.5 -0.5,0.5z" fill="#330000" stroke="none" stroke-width="0.5" stroke-linecap="butt"/><path d="M202.07985,230.3484c0.48601,0.12448 2.47972,1.75723 2.69325,1.61832c1.27008,-0.82628 4.39544,-1.99624 5.8658,-1.89484c2.84604,0.19628 6.88833,4.78923 3.91312,7.82624c-3.23499,3.30219 -8.20409,4.77521 -12.87614,4.29688c-1.22235,-0.12515 -1.99701,-1.23919 -3.00211,-1.52129c-1.27438,-0.35767 -2.83729,0.24277 -4.14855,-0.29306c-2.9851,-1.21983 -6.90457,-8.38358 -3.41658,-10.37672c0.86976,-1.47371 2.47396,-2.46233 4.30908,-2.46233c1.59689,0 3.01893,0.74861 3.93432,1.91403c0.89187,0.35323 1.80206,0.65567 2.72781,0.89277z" fill="#330000" stroke="none" stroke-width="0.5" stroke-linecap="butt"/><path d="M274.82205,229.14249c0.59749,-0.09349 5.99211,1.25169 6.06046,1.18014c2.22748,-2.33167 3.58902,-4.91622 7.62701,-3.87527c5.81848,1.49994 7.32745,9.53891 2.59712,13.59348c-4.84499,4.15285 -13.56957,3.37222 -19.21049,1.49191c-1.36254,-0.45418 -5.23394,-2.77857 -5.20256,-4.25348c-0.38703,-0.70998 -0.60696,-1.52415 -0.60696,-2.3897c0,-2.76142 2.23858,-5 5,-5c0.37266,0 0.7358,0.04077 1.08521,0.11809c0.8421,-0.41571 1.72385,-0.72022 2.65021,-0.86518z" fill="#330000" stroke="none" stroke-width="0.5" stroke-linecap="butt"/><path d="M251.21941,214.29141c-2.81757,11.27028 -16.23656,4.00425 -18.13817,-3.60218c-0.75221,-3.00884 1.58126,-4.63139 3.69794,-6.04914c0.53778,-0.66526 1.24273,-1.1898 2.05098,-1.50975c0.05843,-0.05435 0.11481,-0.10903 0.16895,-0.16409c0.7099,-0.72196 0.61063,-2.00955 1.5124,-2.78249c1.64906,-1.41348 5.7785,-2.12205 7.30361,-1.25056c4.78784,2.73591 1.87245,4.77835 1.38309,8.06416c-0.06331,0.42507 1.83332,4.62149 2.02119,5.37298z" fill="#330000" stroke="none" stroke-width="0.5" stroke-linecap="butt"/><path d="M230.42315,193.64794c0.75317,3.01268 3.26439,9.4199 0.74708,11.93721c-2.35868,2.35868 -8.22177,4.82895 -10.38197,0.50854c-1.33242,-2.66485 0.79595,-4.46331 0.36662,-6.43186c-0.02194,-0.10062 -0.04522,-0.2017 -0.06972,-0.30322c-0.62642,-0.83518 -0.99754,-1.87286 -0.99754,-2.99721c0,-0.04621 0.00063,-0.09226 0.00187,-0.13817c-1.18498,-3.28636 -2.59902,-6.82585 -1.5114,-10.15285c0.30175,-0.92304 5.09238,-4.28243 5.93078,-4.28243c1.67964,0 3.67368,0.13814 4.86136,1.32583c4.35738,4.35738 0.64755,4.72944 -0.36247,7.43354c-0.22138,0.5927 1.21747,2.53392 1.40425,3.09426z" fill="#330000" stroke="none" stroke-width="0.5" stroke-linecap="butt"/><path d="M221.02064,300.8046c0.06127,0.15802 0.10433,0.3315 0.13391,0.51644c0.11829,0.42638 0.18151,0.87567 0.18151,1.33972c0,0.45511 -0.0608,0.89601 -0.17473,1.31504c-0.00315,1.21863 0.2073,2.25462 1.54571,2.32979c0.32226,0.0181 2.06661,-3.95543 3.57774,-4.33322c10.33896,-2.58474 13.41894,13.98686 1.68444,14.43994c-4.95802,0.19143 -16.26789,-0.43893 -16.73989,-6.92107c-0.15573,-2.13871 -0.06473,-4.29355 0.08728,-6.43253c0.00714,-0.1005 0.01345,-0.21015 0.01994,-0.32663c-0.00033,-0.02373 -0.0005,-0.04751 -0.0005,-0.07132c0,-0.24893 0.01819,-0.49362 0.05332,-0.7328c0.35453,-2.41403 2.43419,-4.2672 4.94668,-4.2672c1.88514,0 3.52662,1.04327 4.37857,2.58394c0.12323,0.16966 0.22664,0.35518 0.30602,0.55991z" fill="#330000" stroke="none" stroke-width="0.5" stroke-linecap="butt"/><path d="M253.7219,301.67254c0.07663,0.40165 0.08831,0.79885 0.05489,1.19129c-0.025,0.62578 -0.16501,1.22197 -0.39947,1.76801c-0.10456,0.31544 -0.21942,0.6272 -0.33296,0.93511c-0.05336,0.14471 -0.98042,2.18166 -0.59156,2.2328c0.68302,0.08982 4.22206,-0.14968 4.66882,-0.53943c0.61752,-0.53872 -1.07663,-1.28746 -1.33262,-2.06593c-1.02969,-3.13132 1.82597,-6.92715 5.25,-7c6.8203,-0.14511 6.4723,11.0663 5.02112,14.81363c-2.73809,7.07049 -20.85396,6.28701 -24.10899,-1.44369c-1.46415,-3.47735 0.75991,-6.9219 2.00883,-10.25235l0.041,-0.12299c0.54015,-1.75633 2.02172,-3.10031 3.85578,-3.44302c2.35536,-1.13335 4.96272,-0.80372 5.86515,3.92656z" fill="#330000" stroke="none" stroke-width="0.5" stroke-linecap="butt"/></g></g></svg>