<svg version="1.1" xmlns="http://www.w3.org/2000/svg" xmlns:xlink="http://www.w3.org/1999/xlink" width="277.24993" height="224.62451" viewBox="0,0,277.24993,224.62451"><g transform="translate(-103.91525,-76.9386)"><g data-paper-data="{&quot;isPaintingLayer&quot;:true}" fill-rule="nonzero" stroke-linecap="butt" stroke-linejoin="miter" stroke-miterlimit="10" stroke-dasharray="" stroke-dashoffset="0" style="mix-blend-mode: normal"><path d="" fill="#ffffff" stroke="#000000" stroke-width="1.5"/><path d="" fill="#000000" stroke="#000000" stroke-width="1.5"/><path d="" fill="#ff7575" stroke="#000000" stroke-width="1.5"/><path d="M282.45351,123.08253c0,24.52082 -15.02974,44.39887 -33.56989,44.39887c-18.54013,0 -33.56989,-19.87805 -33.56989,-44.39887c0,-24.52082 15.02974,-38.98438 33.56989,-38.98438c18.54013,0 33.56989,14.46355 33.56989,38.98438z" fill="#ff7474" stroke="#bb5454" stroke-width="2"/><path d="M285.79638,163.2152c0,24.26333 -13.09429,49.70811 -36.3713,49.70811c-23.27702,0 -34.56647,-28.69348 -34.56647,-52.95681c0,-24.26333 12.01139,-26.2453 35.2884,-26.2453c23.27702,0 35.64937,5.23066 35.64937,29.49399z" fill="#c85b5b" stroke="#bb5454" stroke-width="2"/><g data-paper-data="{&quot;index&quot;:null}"><path d="M252.41813,118.30823c2.46711,0 4.46709,1.90908 4.46709,4.26404c0,2.35496 -1.99999,4.26404 -4.46709,4.26404c-2.46711,0 -4.46709,-1.90908 -4.46709,-4.26404c0,-2.35496 1.99999,-4.26404 4.46709,-4.26404z" fill="#00a9ff" stroke="#0081c1" stroke-width="1.5"/><path d="M250.83373,125.57188c-0.84706,0 -1.53376,-0.68668 -1.53376,-1.53376c0,-0.84706 0.68668,-1.53376 1.53376,-1.53376c0.84706,0 1.53376,0.68668 1.53376,1.53376c0,0.84706 -0.68668,1.53376 -1.53376,1.53376z" fill="#003e5d" stroke="none" stroke-width="0.5"/></g><g><path d="M248.51832,122.53488c0,2.35496 -1.99999,4.26404 -4.46709,4.26404c-2.46711,0 -4.46709,-1.90908 -4.46709,-4.26404c0,-2.35496 1.99999,-4.26404 4.46709,-4.26404c2.46711,0 4.46709,1.90908 4.46709,4.26404z" fill="#00a9ff" stroke="#0081c1" stroke-width="1.5"/><path d="M244.10184,124.00074c0,-0.84706 0.68668,-1.53376 1.53376,-1.53376c0.84706,0 1.53376,0.68668 1.53376,1.53376c0,0.84706 -0.68668,1.53376 -1.53376,1.53376c-0.84706,0 -1.53376,-0.68668 -1.53376,-1.53376z" fill="#003e5d" stroke="none" stroke-width="0.5"/></g><path d="M224.81735,133.64869c-2.55387,0 -2.55387,-2.55387 -2.55387,-2.55387l0.06541,-0.25457c-0.20721,-0.89791 -0.41441,-1.7958 -0.62162,-2.69371c0,0 -0.57425,-2.48846 1.9142,-3.06273c2.48846,-0.57425 3.06273,1.9142 3.06273,1.9142c0.20721,0.89791 0.41441,1.7958 0.62162,2.69371l0.06541,1.4031c0,0 0,2.55387 -2.55387,2.55387z" fill="#000000" stroke="none" stroke-width="0.5"/><path d="M233.04777,126.31637c0.41996,0.37686 0.74696,0.9637 0.74696,1.87751c0,2.55387 -2.55387,2.55387 -2.55387,2.55387l-2.59085,-1.63709c-0.34534,-0.89791 -0.6907,-1.7958 -1.03604,-2.69371c0,0 -0.91678,-2.38363 1.46686,-3.30042c2.38363,-0.91678 3.30042,1.46686 3.30042,1.46686c0.22217,0.57766 0.44436,1.15533 0.66653,1.73298z" fill="#000000" stroke="none" stroke-width="0.5"/><path d="M266.62071,131.6826c-0.93415,-1.40122 -0.32833,-2.49443 0.19271,-3.07656c0,-0.62087 0,-1.24175 0,-1.86262c0,0 0,-2.55387 2.55387,-2.55387c2.55387,0 2.55387,2.55387 2.55387,2.55387c0,1.03604 0,2.07209 0,3.10813l-1.75887,2.53936c0,0 -2.12494,1.41664 -3.54157,-0.70831z" fill="#000000" stroke="none" stroke-width="0.5"/><path d="M275.58356,134.06309c-2.55387,0 -2.55387,-2.55387 -2.55387,-2.55387c0,-0.89791 0,-2.21023 0,-3.10813c0,0 0,-2.55387 2.55387,-2.55387c2.55387,0 2.55387,2.55387 2.55387,2.55387c0,0.89791 0,1.7958 0,2.69371v0.41441c0,0 0,2.55387 -2.55387,2.55387z" fill="#000000" stroke="none" stroke-width="0.5"/><path d="M228.60182,121.93071c0.25412,2.5412 -2.28706,2.79532 -2.28706,2.79532l-2.14426,0.21339l-2.87463,0.20533c-0.06869,0.00555 -0.13814,0.00836 -0.20825,0.00836c-1.41046,0 -2.55387,-1.14341 -2.55387,-2.55387c0,-0.80443 0.37191,-1.52199 0.95319,-1.9901l2.26277,-1.85135c0,0 1.97659,-1.61721 3.59378,0.35938c0.14917,0.18233 0.26777,0.3616 0.36017,0.53681l0.10286,-0.01033c0,0 2.5412,-0.25412 2.79532,2.28706z" fill="#0084ff" stroke="none" stroke-width="0.5"/><path d="M279.9415,124.3965c-0.55402,2.49306 -3.04707,1.93904 -3.04707,1.93904l-2.11847,-0.48467c-1.37373,-0.83501 -3.5319,-1.00934 -4.1212,-2.50504c-0.1744,-0.44261 0.09982,-0.7965 0.52324,-1.1209c-0.6942,-0.28526 -1.46364,-0.91763 -1.46364,-2.31942c0,-2.55387 2.55387,-2.55387 2.55387,-2.55387h2.90093c1.41046,0 2.55387,1.14341 2.55387,2.55387c0,0.47781 -0.13121,0.92496 -0.35958,1.30742l0.63903,0.13649c0,0 2.49306,0.55402 1.93904,3.04707z" fill="#0084ff" stroke="none" stroke-width="0.5"/><path d="M251.54732,208.42058c0,6.65777 -6.3084,12.05496 -14.09022,12.05496c-7.78181,0 -14.09022,-5.39719 -14.09022,-12.05496c0,-6.65777 6.3084,-12.05496 14.09022,-12.05496c7.78181,0 14.09022,5.39719 14.09022,12.05496z" fill="#ff7474" stroke="#bb5454" stroke-width="1.5"/><path d="M283.50193,208.67224c0,6.65777 -6.3084,12.05496 -14.09022,12.05496c-7.78181,0 -14.09022,-5.39719 -14.09022,-12.05496c0,-6.65777 6.3084,-12.05496 14.09022,-12.05496c7.78181,0 14.09022,5.39719 14.09022,12.05496z" fill="#ff7474" stroke="#bb5454" stroke-width="1.5"/><path d="M193.90359,114.50187c-13.13405,-8.37116 -31.23967,10.95499 -29.35386,7.99622c1.8858,-2.95876 20.25982,-23.98302 33.39386,-15.61186c13.13405,8.37116 25.35155,35.84 23.46573,38.79876c-1.8858,2.95876 -14.37171,-22.81198 -27.50575,-31.18313z" fill="#c85b5b" stroke="#bb5454" stroke-width="2"/><path d="M280.67873,145.85404c-1.88582,-2.95878 10.3317,-30.42761 23.46575,-38.79876c13.13405,-8.37116 31.50804,12.65308 33.39386,15.61186c1.8858,2.95878 -16.21982,-16.36737 -29.35386,-7.99623c-13.13405,8.37116 -25.61993,34.14189 -27.50575,31.18311z" data-paper-data="{&quot;index&quot;:null}" fill="#c85b5b" stroke="#bb5454" stroke-width="2"/><g><path d="M272.72234,109.59239c0,4.5133 -3.89868,8.17205 -8.70791,8.17205c-4.80926,0 -8.70791,-3.65876 -8.70791,-8.17205c0,-4.5133 3.89868,-8.17205 8.70791,-8.17205c4.80926,0 8.70791,3.65876 8.70791,8.17205z" fill="#960000" stroke="#000000" stroke-width="0.5"/><path d="M267.82352,110.08634c0,2.41077 -1.98534,4.36507 -4.43436,4.36507c-2.44902,0 -4.43436,-1.95431 -4.43436,-4.36507c0,-2.41077 1.98534,-4.36507 4.43436,-4.36507c2.44902,0 4.43436,1.95431 4.43436,4.36507z" fill="#000000" stroke="none" stroke-width="0"/></g><g data-paper-data="{&quot;index&quot;:null}"><path d="M234.20785,99.63058c4.80926,0 8.70791,3.65876 8.70791,8.17205c0,4.5133 -3.89866,8.17204 -8.70791,8.17204c-4.80926,0 -8.70793,-3.65874 -8.70793,-8.17204c0,-4.5133 3.89868,-8.17205 8.70793,-8.17205z" fill="#960000" stroke="#000000" stroke-width="0.5"/><path d="M234.8331,103.93152c2.44902,0 4.43435,1.95431 4.43435,4.36507c0,2.41077 -1.98532,4.36507 -4.43435,4.36507c-2.44902,0 -4.43436,-1.95431 -4.43436,-4.36507c0,-2.41077 1.98534,-4.36507 4.43436,-4.36507z" fill="#000000" stroke="none" stroke-width="0"/></g><path d="M216.58549,161.29591c-3.95238,1.21163 -12.93125,-2.24185 -12.59691,-7.51142c0.35513,-5.59737 11.52063,-9.53352 13.77397,-5.59019c1.61299,0.95197 2.69506,2.70778 2.69506,4.71635c0,0.83919 -0.18889,1.63424 -0.52646,2.34499c-0.53429,2.46394 -1.32168,5.41979 -3.34565,6.04026z" fill="#5cc600" stroke="none" stroke-width="0.5"/><path d="M285.02786,165.77092c0.48398,0.03666 0.97518,0.15716 1.46516,0.34818c0.42864,0.15344 0.83256,0.35881 1.20417,0.60857c4.09574,2.53326 7.59966,9.36385 5.32616,12.33717c-5.48769,7.17682 -19.44029,0.71352 -13.84634,-7.6774c-0.00077,-0.03804 -0.00116,-0.07619 -0.00116,-0.11443c0,-2.91983 2.28663,-5.30558 5.16684,-5.46418c0.21827,-0.04196 0.4462,-0.05601 0.68519,-0.03792z" fill="#5cc600" stroke="none" stroke-width="0.5"/><path d="M245.18319,152.53866c2.05376,2.33817 2.55517,4.37098 0.934,6.9462c-1.93789,3.07833 -6.48655,10.63523 -11.34143,5.21849c-1.6141,-1.80088 -4.72256,-9.1359 -0.84425,-11.35207c0.95197,-1.61299 2.70778,-2.69506 4.71635,-2.69506c0.64806,0 1.2698,0.11264 1.84672,0.31942c1.8414,0.18617 3.40585,0.10259 4.68862,1.56301z" fill="#5cc600" stroke="none" stroke-width="0.5"/><path d="M267.20481,159.361c3.96559,4.55506 6.24782,14.4035 -3.19041,12.84132c-3.97569,-0.65803 -11.88011,-9.9424 -10.61784,-13.72922c0.90776,-2.72329 4.94884,-8.50291 8.84153,-3.96143c1.73935,0.27915 3.20477,1.37795 3.98755,2.88771c0.13472,0.25983 0.24922,0.53183 0.34142,0.81392c0.19474,0.45346 0.39683,0.87095 0.63775,1.14769z" fill="#5cc600" stroke="none" stroke-width="0.5"/><path d="M271.60774,142.1117c5.31537,-1.44764 13.93342,3.86222 13.65035,8.95727c-0.37714,6.78843 -14.52025,5.49951 -15.9961,0.2521c-1.00839,-0.99265 -1.63363,-2.37342 -1.63363,-3.90021c0,-2.26597 1.37717,-4.21028 3.34019,-5.04158c0.19623,-0.11401 0.40825,-0.2047 0.63917,-0.2676z" fill="#5cc600" stroke="none" stroke-width="0.5"/><path d="M259.84976,133.4297c1.05301,0.36437 2.21542,0.70823 3.34605,1.14177c1.36786,0.52451 2.68922,1.18026 3.71408,2.16242c4.68803,4.49269 -4.16577,12.09812 -8.31258,12.029c-5.09983,-0.08499 -5.98114,-11.19973 -3.46391,-12.63814z" fill="#5cc600" stroke="none" stroke-width="0.5"/><path d="M231.77844,184.44348c1.624,5.95464 0.74369,7.44648 -4.60149,10.49515c-1.19364,0.68082 -2.94248,2.46782 -4.61981,2.63025c-7.77181,0.75258 -5.80777,-14.22067 -2.21864,-14.42006c0.8566,-0.55607 1.87851,-0.87904 2.97584,-0.87904c0.39442,0 0.7791,0.04172 1.14985,0.12101c2.40381,0.11821 6.74338,-0.04042 7.31424,2.0527z" fill="#5cc600" stroke="none" stroke-width="0.5"/><path d="M258.12883,190.20327c-0.49523,1.98095 0.44364,6.16393 -1.06267,7.84745c-6.97602,7.79674 -12.96422,-4.11736 -12.1541,-10.687c0.12827,-1.04024 0.41951,-2.01599 0.8331,-2.90384c2.66645,-5.72392 10.4191,-7.79399 12.38368,0.0643z" fill="#5cc600" stroke="none" stroke-width="0.5"/><path d="M244.44718,91.5453c-7.26791,-4.84527 -2.36083,-19.23921 6.39968,-13.11422c8.15672,5.70285 5.81243,22.89322 -4.67981,13.89987z" fill="#cbcb00" stroke="none" stroke-width="0.5"/><path d="M269.60745,86.97741c4.25598,-2.39404 15.43677,-0.37431 12.97899,6.05033c-1.17135,3.06188 -5.62633,5.85894 -8.7261,6.12968c-2.76464,0.24146 -7.47589,-0.99731 -6.38255,-4.8847c-0.3877,-0.75102 -0.60662,-1.60335 -0.60662,-2.50681c0,-1.78094 0.8507,-3.36318 2.16792,-4.36253c0.16848,-0.16311 0.35633,-0.30671 0.56836,-0.42597z" fill="#cbcb00" stroke="none" stroke-width="0.5"/><path d="M250.13203,97.99255c3.09822,1.65239 5.98536,4.19092 5.34655,8.16037c-0.37521,2.33153 -2.26781,7.30387 -5.93628,5.2076c-0.6697,0.2922 -1.40918,0.45428 -2.18654,0.45428c-3.02242,0 -5.47258,-2.45015 -5.47258,-5.47258c-0.47958,-4.17061 2.97077,-11.16464 8.24883,-8.34968z" fill="#cbcb00" stroke="none" stroke-width="0.5"/><path d="M224.05435,100.85245c-0.65509,1.22259 -1.09781,2.6315 -1.66693,3.93271c-0.5322,1.21681 -1.17491,2.33943 -2.20517,3.12743c-0.88425,0.67632 -3.8794,0.83822 -5.00791,0.68407c-1.32471,-0.18095 -2.53714,-1.04462 -3.48254,-1.99003c-3.93322,-3.93322 -1.75704,-10.38227 3.77547,-11.06335c1.1452,-0.14097 5.15036,-0.7051 5.89203,0.59283z" fill="#cbcb00" stroke="none" stroke-width="0.5"/><path d="M214.60425,124.33467c-5.57872,-1.04656 -6.06076,-11.1089 -0.51273,-11.41713c0.8566,-0.55607 1.87851,-0.87904 2.97584,-0.87904c1.46891,0 2.80266,0.57873 3.78565,1.52062c6.43739,4.05111 1.48284,12.22599 -6.24876,10.77555z" fill="#cbcb00" stroke="none" stroke-width="0.5"/><path d="M326.48428,110.14548c0.86239,0.22407 1.63974,0.3759 2.3725,0.53961c1.35964,0.30376 2.56577,0.64839 3.87687,1.57112c9.10696,6.40939 -9.40312,21.35431 -11.50857,8.37996c-0.11873,-0.73166 -1.00546,-6.91087 0.54286,-7.79563z" fill="#cbcb00" stroke="none" stroke-width="0.5"/><path d="M210.79333,125.4753c3.72208,4.53444 -6.38359,12.62424 -10.22215,10.8573c-2.3848,-1.09777 -5.51368,-11.09503 -2.03926,-13.08043c0.95197,-1.61299 2.70778,-2.69506 4.71635,-2.69506c2.063,0 3.85939,1.14152 4.79197,2.82738c1.22854,0.78605 2.32117,1.56464 2.75308,2.09081z" fill="#cbcb00" stroke="none" stroke-width="0.5"/><path d="M253.25861,128.99832c0,3.0842 -2.15959,5.58443 -4.82356,5.58443c-2.66399,0 -4.82356,-2.50024 -4.82356,-5.58443c0,-3.0842 2.15959,-5.58443 4.82356,-5.58443c2.66399,0 4.82356,2.50024 4.82356,5.58443z" fill="#000000" stroke="none" stroke-width="0"/><path d="M253.57837,127.28699c0,0.61493 -1.17224,-3.18685 -2.1313,-2.80834c-0.82073,0.3239 -2.09054,1.65644 -3.27443,1.65644c-0.81541,0 -1.39249,-1.41845 -2.05872,-1.58236c-1.43138,-0.35218 -3.9149,3.51297 -3.9149,2.73427c0,-1.14116 3.59563,-6.42021 6.16293,-6.42021c0.5638,0 1.13154,0.2546 1.67431,0.66405c1.92877,1.45503 3.54211,4.86562 3.54211,5.75615z" fill="#ff9f09" stroke="#c57d08" stroke-width="1.5"/><path d="M253.30302,126.63302c0,1.14116 -1.8919,10.39557 -4.4592,10.39557c-2.5673,0 -5.59503,-8.4972 -5.59503,-9.63835c0,-0.85718 1.32972,3.09241 3.26803,4.64011c0.64214,0.51274 1.68813,-0.08076 2.327,-0.08076c0.89097,0 2.07919,-0.58846 2.75661,-1.55644c1.27457,-1.82126 1.70259,-4.50524 1.70259,-3.76011z" fill="#ff9f09" stroke="#c57d08" stroke-width="1.5"/><path d="M233.4706,174.33492c-0.22436,0.46582 -0.65155,0.85928 -1.21282,1.17514c-0.27115,1.45285 -1.08046,2.71633 -2.21319,3.57572c-0.17971,0.17398 -0.38009,0.32715 -0.60625,0.45437c-5.83713,3.28344 -13.09248,-4.14742 -9.70211,-9.86967c0.35164,-0.59351 1.02576,-1.09887 1.86806,-1.48363c0.28463,-0.3971 0.61784,-0.75703 0.99095,-1.07107c1.03562,-1.62903 2.85648,-2.70993 4.9298,-2.70993c3.03422,-2.87027 7.84928,5.97649 5.94557,9.92908z" fill="#7c0000" stroke="none" stroke-width="0.5"/><path d="M214.56135,167.41591c1.29562,-2.59124 4.33703,-2.68216 6.28891,-1.37453l0.31041,-0.46562l0.01506,-0.03013l0.28441,-0.71102l0.08158,-0.11296l0.03023,-0.13602l0.5027,-1.0054l0.34351,-0.40076l0.0784,-0.13067c-2.53947,-2.04072 -4.14548,-4.64086 0.82333,-5.99599c1.17648,-0.32086 3.61136,1.01476 5.28407,2.64847c0.16082,0.11582 0.31074,0.24583 0.44793,0.38819h0.65151l0.51207,0.12802l0.52627,0.04048l0.4999,0.16664h0.30498l0.39216,0.09804h0.40422l0.67026,0.16757l0.01647,0.00878l0.05784,-0.01577l0.69932,0.41959l0.71959,0.38378l0.01623,0.05771l0.016,0.0096l0.33514,0.33514l0.16827,0.28044l0.24199,0.21999l0.33514,0.5027l0.14751,0.41303l0.23546,0.37001l0.07462,0.22386l0.13982,0.09321l0.21999,0.24199l0.28044,0.16827l0.33514,0.33514l0.16827,0.28044l0.24199,0.21999l0.67026,1.0054l0.189,0.52919l0.26443,0.49581l0.16757,0.67026v0.40422l0.09804,0.39216v3.0162l-0.12802,0.51207l-0.00161,0.02101c0.69523,0.60208 1.13503,1.49124 1.13503,2.48312c0,0.24557 -0.02696,0.48485 -0.07808,0.71503c1.33797,2.64495 1.58644,5.58471 -2.70276,5.58471c-0.36524,0 -0.97597,-0.44784 -1.62141,-1.13611l-0.00324,0.00909l-0.25681,0.38521l0.01,0.12996l0.12802,0.51207v2.68106l-0.35037,1.40149l0.00372,0.06696l-0.02455,0.01636l-0.03924,0.15696l-1.3734,0.7848l-1.31615,0.87743l-0.15794,-0.0351l-0.02562,0.01464l-0.05822,-0.03327l-1.41022,-0.31338l-0.33514,-0.16757l-1.28489,-1.10133l-0.0072,-0.12946l-0.11257,-0.06432l-0.22991,-0.91965l-0.01203,-0.0189l-0.07469,-0.22407l-0.27165,-0.14488l-0.353,-0.07845l-0.31209,-0.15604h-0.08874l-0.21672,0.09851l-0.78448,0.52298l-0.12441,0.04443l-0.05519,0.09659l-0.71755,0.17939l-0.69655,0.24877l-0.09951,-0.04975l-0.12817,0.03205h-0.5027l-0.39216,-0.09804h-0.40422l-0.27812,-0.06953h-0.93631l-0.26009,-0.06502l-0.12071,0.0522l-0.15579,0.27264l-1.64177,0.41044h-0.5027l-1.64177,-0.41044l-0.44775,-0.78357l-0.78357,-0.44775l-0.41044,-1.64177v-1.17296l0.15711,-0.62844l-0.04931,-0.1808l-0.28681,-0.15296l-0.1387,-0.49318l-0.44482,-0.25418l-0.41044,-1.64177v-0.33514l0.08416,-0.33663l-0.06974,-0.17617l0.25031,-0.54614l0.14571,-0.58283l0.16451,-0.094l0.14457,-0.31544l0.65621,-0.82027l0.65478,-0.84187c0.03423,-0.31215 0.11222,-0.61114 0.2277,-0.89071c-2.042,-1.20204 -3.42103,-3.69589 -2.72222,-5.0935zM228.57752,175.93864l0.39071,-0.06302l0.36294,-0.1578l1.00129,-0.16688l0.93117,-1.86236l0.74136,-1.631l0.2797,-0.8391v-1.90809l-0.05614,-0.08421l-0.15736,-0.10491l-0.21999,-0.24199l-0.28044,-0.16827l-0.33514,-0.33514l-0.16827,-0.28044l-0.24199,-0.21999l-0.33514,-0.5027l-0.06978,-0.1954l-0.13503,-0.15754l-0.07656,-0.15312l-0.01212,-0.00303l-0.52627,-0.04048l-0.4999,-0.16664h-0.10056l-1.07121,0.1339l-0.10246,0.01708l-0.18618,0.18618l-0.20332,0.40665l-0.28441,0.71102l-0.08158,0.11296l-0.03023,0.13602l-0.16757,0.33514l-0.13503,0.15754l-0.06978,0.1954l-0.35478,0.53217l-0.09915,0.3966v0.43361l-0.09804,0.39216v0.40422l-0.06953,0.27812v0.0518l0.02046,0.03068l-0.02046,0.09206v0.0915l-0.18298,0.73195l-0.16367,0.73651l-0.04092,0.08184l-0.02287,0.0915l-0.00395,0.00226l0.00056,0.00452l-0.05947,0.0732l-0.04092,0.08184l-0.491,0.57284l-0.47576,0.58555l-0.0732,0.0549l-0.06138,0.0716l-0.03682,0.00204l-0.31219,0.23414l-0.1862,0.1862l-0.00599,0.02992l0.60833,0.34762l0.87775,0.32915l1.2832,0.28515l0.36155,0.18078l0.21665,0.04815z" fill="#a40000" stroke="none" stroke-width="0.5"/><path d="M273.88364,161.66893c0.6853,0.72721 0.7555,1.33146 0.57397,1.85738c-0.10992,0.50014 -0.43031,0.96075 -0.90634,1.34908c-0.29512,0.3742 -0.50892,0.72001 -0.37681,1.06989c0.43723,1.15802 1.04352,1.87175 -0.02259,3.17923c-0.72459,0.88863 -2.71529,1.21095 -4.31265,1.47099c-1.34277,0.21859 -2.45515,-0.78672 -3.6253,-1.23654c-3.98066,-1.53022 -1.53912,-4.47046 -0.55971,-6.42557c0.01938,-0.16682 0.06207,-0.32982 0.12612,-0.48785c0.24105,-0.59462 0.78474,-1.11871 1.52826,-1.5109c-2.46987,-1.27237 -3.73596,-3.41007 -1.90825,-5.25138c0.35164,-0.35427 1.02576,-0.65592 1.86806,-0.88558c0.28462,-0.23703 0.61784,-0.45187 0.99095,-0.63932c1.03562,-0.97237 2.85648,-1.61756 4.9298,-1.61756c3.03422,-1.71327 7.84928,3.56737 5.94557,5.92669h-0.00001c-0.22436,0.27805 -0.65155,0.5129 -1.21282,0.70144c-0.27115,0.86721 -1.08045,1.62139 -2.21318,2.13435c-0.17971,0.10384 -0.38009,0.19528 -0.60625,0.27122c-0.07866,0.02641 -0.15759,0.05166 -0.23673,0.07577c0.00604,0.00619 0.01202,0.01243 0.01793,0.0187z" fill="#7c0000" stroke="none" stroke-width="0.5"/><path d="M257.71733,154.6047c1.29562,-2.59123 4.33704,-2.68216 6.28891,-1.37453l0.31041,-0.46562l0.01506,-0.03014l0.28442,-0.71102l0.08158,-0.11296l0.03023,-0.13602l0.5027,-1.0054l0.34351,-0.40076l0.07839,-0.13067c-2.53947,-2.04072 -4.14548,-4.64086 0.82333,-5.99599c1.17648,-0.32086 3.61137,1.01476 5.28407,2.64847c0.16083,0.11582 0.31074,0.24582 0.44793,0.38819h0.65151l0.51207,0.12801l0.52628,0.04048l0.49989,0.16664h0.30498l0.39216,0.09804h0.40423l0.67026,0.16756l0.01647,0.00878l0.05785,-0.01577l0.69932,0.41959l0.71959,0.38378l0.01623,0.05771l0.016,0.00961l0.33514,0.33514l0.16827,0.28045l0.242,0.21999l0.33514,0.50271l0.14751,0.41303l0.23546,0.37001l0.07461,0.22386l0.13982,0.09321l0.21999,0.242l0.28045,0.16827l0.33514,0.33514l0.16827,0.28044l0.24199,0.21999l0.67026,1.0054l0.189,0.52919l0.26443,0.49581l0.16756,0.67026v0.40423l0.09804,0.39215v3.0162l-0.12801,0.51207l-0.00162,0.021c0.69523,0.60208 1.13504,1.49124 1.13504,2.48312c0,0.24557 -0.02696,0.48485 -0.07807,0.71504c1.33797,2.64495 1.58644,5.58471 -2.70276,5.58471c-0.36523,0 -0.97598,-0.44784 -1.62141,-1.13611l-0.00324,0.00909l-0.25681,0.38521l0.01,0.12997l0.12802,0.51207v2.68107l-0.35038,1.40149l0.00372,0.06696l-0.02455,0.01636l-0.03924,0.15696l-1.3734,0.7848l-1.31615,0.87743l-0.15794,-0.0351l-0.02562,0.01463l-0.05822,-0.03327l-1.41022,-0.31338l-0.33514,-0.16756l-1.28489,-1.10133l-0.0072,-0.12946l-0.11257,-0.06432l-0.22991,-0.91965l-0.01204,-0.0189l-0.07468,-0.22407l-0.27165,-0.14488l-0.35301,-0.07844l-0.31209,-0.15604h-0.08874l-0.21672,0.09851l-0.78448,0.52298l-0.12442,0.04444l-0.05519,0.09659l-0.71755,0.17939l-0.69655,0.24877l-0.09951,-0.04975l-0.12816,0.03204h-0.50271l-0.39215,-0.09803h-0.40423l-0.27811,-0.06953h-0.93631l-0.26008,-0.06502l-0.12072,0.0522l-0.15579,0.27264l-1.64177,0.41044h-0.50271l-1.64177,-0.41044l-0.44775,-0.78357l-0.78358,-0.44775l-0.41044,-1.64177v-1.17297l0.15711,-0.62844l-0.04931,-0.1808l-0.28681,-0.15296l-0.13871,-0.49318l-0.44482,-0.25417l-0.41044,-1.64177v-0.33514l0.08417,-0.33662l-0.06974,-0.17617l0.25031,-0.54614l0.14571,-0.58283l0.1645,-0.094l0.14457,-0.31544l0.65622,-0.82027l0.65478,-0.84187c0.03423,-0.31215 0.11221,-0.61114 0.2277,-0.89071c-2.04199,-1.20204 -3.42103,-3.69589 -2.72222,-5.0935zM271.7335,163.12744l0.39071,-0.06302l0.36294,-0.1578l1.00128,-0.16689l0.93118,-1.86235l0.74136,-1.631l0.2797,-0.8391v-1.90809l-0.05613,-0.0842l-0.15737,-0.10491l-0.21999,-0.24199l-0.28045,-0.16827l-0.33514,-0.33514l-0.16827,-0.28045l-0.24199,-0.21999l-0.33514,-0.50271l-0.06978,-0.1954l-0.13503,-0.15754l-0.07656,-0.15312l-0.01212,-0.00303l-0.52627,-0.04048l-0.4999,-0.16663h-0.10056l-1.07122,0.1339l-0.10246,0.01707l-0.18618,0.18618l-0.20332,0.40665l-0.28441,0.71103l-0.08158,0.11296l-0.03023,0.13602l-0.16756,0.33514l-0.13503,0.15754l-0.06978,0.1954l-0.35478,0.53217l-0.09915,0.3966v0.43361l-0.09804,0.39216v0.40422l-0.06953,0.27812v0.0518l0.02046,0.03068l-0.02046,0.09206v0.0915l-0.18298,0.73195l-0.16367,0.7365l-0.04091,0.08184l-0.02288,0.0915l-0.00395,0.00226l0.00057,0.00452l-0.05948,0.0732l-0.04091,0.08184l-0.491,0.57284l-0.47577,0.58555l-0.0732,0.0549l-0.06138,0.07161l-0.03682,0.00204l-0.3122,0.23414l-0.1862,0.1862l-0.00599,0.02992l0.60833,0.34762l0.87774,0.32916l1.2832,0.28515l0.36155,0.18078l0.21666,0.04814z" fill="#a40000" stroke="none" stroke-width="0.5"/><path d="M246.61681,193.77554c0.15332,-0.16004 3.6409,-0.99016 4.09086,-1.11479c4.95687,-1.37297 9.46669,-2.65283 14.71656,-2.42842c3.23635,0.13835 6.26068,1.81543 8.77743,3.47172c5.97325,3.93105 14.6519,7.09798 14.93363,16.0926c0.056,1.78792 0.1403,3.58309 0,5.36638c-0.20262,2.57534 -1.64625,6.85966 -3.32419,8.82414c-0.7823,0.91589 -2.97445,0.53848 -3.01789,2.34035c-0.34219,14.19706 1.31615,29.06193 4.14674,42.91906c0.19021,0.93121 0.65994,6.41666 1.49195,6.91512c4.60544,2.75915 7.21615,6.72383 9.81585,11.24534c0.64655,1.12452 2.86345,3.41904 2.13884,4.86824c-2.0395,4.079 -2.62738,4.42016 -7.18081,4.16718c-0.94912,-0.05273 -2.4385,-2.41081 -3.09924,-3.17229c-0.40288,-0.46431 -0.93782,-2.18149 -0.97126,-1.56767c-0.1896,3.47986 1.23137,9.86061 -4.92875,9.86061c-5.91003,0 -4.64526,-6.04373 -5.4166,-9.56335c-0.10934,-0.49891 -0.02555,-4.22605 -1.06612,-4.19399c-0.99545,0.03067 -1.9915,2.39847 -2.49051,3.00038c-3.0024,3.6216 -8.07634,10.21293 -12.41426,4.38976c-2.68117,-3.59917 4.73282,-12.82765 7.4409,-15.28953c1.43504,-1.30458 3.86868,-1.50675 4.4513,-3.54615c1.83934,-6.43852 -0.28545,-15.16484 -0.5559,-22.05011c-0.36557,-9.30686 -7.06881,-18.81511 -10.70026,-26.94191c-0.443,-0.99137 -1.81797,-3.38936 -2.4551,-5.58233c-3.28289,-1.10734 -6.32391,-2.66112 -7.79621,-4.6601c-0.14281,0.1404 -0.29639,0.28211 -0.45957,0.42461l-0.23032,1.03647l-0.40034,0.80068l-0.11266,0.67599l-0.23582,1.65075l-0.16903,0.41489l-0.03436,0.44669l-0.33352,1.00056l-0.18339,1.46714l-0.13878,0.35849l-0.01281,0.3842l-0.39537,1.38377l-0.13992,0.97945l0.01973,0.03946l-0.04228,0.11838l-0.03385,0.2369l-0.41146,1.00994l-0.28247,0.79093l-0.08402,0.42012l-0.13333,0.28147l-0.02389,0.31053l-0.24393,0.73178l-0.17623,0.27694l-0.08332,0.33327l-0.00786,0.03539l-0.00196,0.00393l-0.11271,0.45082l-0.09095,0.17053l-0.01482,0.19269l-0.24393,0.73178l-0.42537,0.66843l-0.30746,0.73021l-0.42883,0.57177l-0.11604,0.69623l-0.15588,0.35853l-0.02998,0.3898l-0.73178,2.19534l-0.29141,0.45793l-0.15804,0.51927l-0.45342,0.75569l-0.07284,0.2185l-0.35344,0.5554l-0.147,0.41161l-0.00916,0.03662l-0.24568,1.10553l-0.06142,0.12283l-0.03433,0.13733l-0.04807,0.02747l-0.18738,0.37477l-0.03146,0.09439l0.01456,0.05341l-0.07283,0.12139l-0.04343,0.13029l-0.60801,0.95544l-0.11477,0.19128v0.22178l-0.14716,0.58864v0.60676l-0.09676,0.38707v2.80821l-0.11906,0.47625l0.02335,0.49036l-0.14821,0.74107v1.95122l-0.14716,0.58864v0.60676l-0.09676,0.38707v1.58858l-0.0481,0.19238l0.07468,0.14937l-0.37341,1.04555l-0.26927,1.07707l-0.14499,0.08285l-0.0667,0.18675l-0.00543,0.00815l1.05203,0.26301l0.49378,0.86411l0.47217,0.40472l0.36957,0.07391l0.21253,0.33398l0.30023,0.17156l0.05627,0.22506l0.25181,0.21584l0.0103,0.18541l0.24064,0.37815l0.48084,0.41215l0.02091,0.37631l0.52204,0.82034l0.83168,2.49504l0.02479,0.01416l0.03433,0.13733l0.06142,0.12283l0.24568,1.10553l0.18448,0.73791l0.30163,0.3519l0.24393,0.48786l0.06229,0.28033l0.07745,0.12909l-0.02688,0.09853l0.00487,0.02192l0.25543,0.47894l0.04649,0.18597l0.52444,0.44951l0.00813,0.14636l0.16255,0.13933l0.0091,0.0052l0.00082,0.00331l0.79511,0.68152l0.00419,0.07544l0.18103,0.27155l0.14275,0.14275l0.21021,0.35034l0.01433,0.00955l0.33023,0.36324l0.42095,0.25257l0.73178,0.73178l0.1951,0.32515l0.05071,0.00281l1.65316,1.92868l0.48786,0.9757l0.07696,0.3463l0.19046,0.29929l0.0999,0.2997l0.02479,0.01416l0.03433,0.13733l0.06142,0.12283l0.24568,1.10553l0.27467,1.09868v0.13733l0.03071,0.13819l-0.03071,0.04606v0.29129l0.09676,0.38707v0.60676l0.14716,0.58864v1.95122l0.14821,0.74107l-0.02335,0.49036l0.11906,0.47625v0.9757l-0.61609,2.46437l-4.31265,2.46437l-4.31265,-2.46437l-0.61609,-2.46437v-0.48766l-0.14821,-0.74107l0.02335,-0.49036l-0.11906,-0.47625v-1.83251l-0.09676,-0.38707v-0.60676l-0.14716,-0.58864v-0.11034l-0.94322,-1.10042l-0.08544,-0.17088l-0.13739,-0.09159l-0.07544,-0.00419l-0.82978,-0.96808l-0.23462,-0.25808l-0.39728,-0.39728l-0.0701,-0.11685l-0.15568,-0.17124l0.00295,-0.04276l-1.88845,-1.61867l-0.0108,-0.19432l-0.16898,-0.09656l-0.05627,-0.22506l-0.25181,-0.21584l-0.01364,-0.24551l-0.26189,-0.30554l-0.17597,-0.35193v6.41217l0.21378,1.92402l-0.03717,0.27504l0.06731,0.26925v0.38126l0.10919,0.49132l0.23151,0.22187v0.81994l0.17787,0.80041l-0.17787,0.26681v0.65307l-0.24393,0.9757l-0.28554,0.53537l-0.1834,0.7336l-0.29897,0.17084l-0.42749,0.80155l-1.92044,0.54012l-1.66576,0.95186l-0.56688,-0.32394l-0.62851,0.17677l-1.38516,-1.32745l-1.7321,-0.98977l-0.22032,-0.8813l-0.24861,-0.23825v-0.75618l-0.14716,-0.58864v-0.40088l-0.39214,-0.82785l-0.18374,-0.91874l-0.03612,-0.10837l-0.18738,-0.37477l-0.04807,-0.02747l-0.03433,-0.13733l-0.06142,-0.12283l-0.24568,-1.10553l-0.27467,-1.09868v-0.13733l-0.03071,-0.13819l0.03071,-0.04606v-5.77656l0.1784,-0.71359l-0.2296,0.0574l-0.39936,0.23962l-0.22212,0.19038l-0.2134,0.10669l-0.07038,0.04692l-0.14275,0.14275l-0.3042,0.18252l-0.2237,0.27533l-0.9757,0.73178l-0.37087,0.15616l-0.122,0.2135l-0.94783,0.23696l-0.52315,0.22027l-0.25275,0.12637l-0.10036,0.0223l-0.0242,0.01019l-0.00735,-0.00318l-0.39797,0.08844l-0.47894,0.25543l-0.9757,0.24393h-0.28721l-0.0534,0.03857l-1.02928,0.41171l-0.47456,0.23728l-0.62469,0.78086l-0.69503,0.52954l-0.61786,0.61786l-0.20251,0.12151l-0.06779,0.11298l-0.48786,0.48786l-0.21619,0.12972l-0.02585,0.03016l-0.02691,0.0015l-0.35009,0.21005l-0.64475,0.58614l-0.2979,-0.02055l-0.61652,0.36992l-2.02409,-0.55203l-2.01682,-0.13909l-0.23792,-0.47584l-0.51325,-0.13998l-0.53192,-1.95037l-0.93826,-1.87653l0.24182,-0.67709l-0.07857,-0.28809l0.44831,-0.74718l0.24281,-0.67987l0.25767,-0.38651l-0.00088,-0.04145l0.08555,-0.08555l0.14551,-0.21827l0.80033,-0.72757l0.03362,-0.03362l0.75569,-0.88164l0.07544,-0.00419l0.15014,-0.10009l0.13619,-0.20429l0.36324,-0.33023l0.25257,-0.42095l0.26045,-0.26045l0.01086,-0.05429l0.11943,-0.076l0.09711,-0.09711l0.76253,-0.45752l0.01341,-0.01219l0.00619,0.00043l0.00799,-0.00479l0.48718,-0.56838l0.71414,-0.87894l0.10987,-0.0824l0.09212,-0.10748l0.05527,-0.00307l0.36826,-0.2762l0.18216,-0.27324l0.3467,-0.31518l0.05258,-0.26288l0.78864,-0.50186l0.69169,-0.62881l0.26745,0.01844l0.39529,-0.25155l0.1056,-0.0352l1.24006,-0.82671l0.14275,-0.14275l0.42095,-0.25257l0.33023,-0.36324l0.73178,-0.48786l0.46621,-0.1665l0.10247,-0.09316l0.65094,-0.71604l0.73178,-0.48786l0.79433,-0.28369l0.62825,-0.33507l0.75146,-0.87671l0.19432,-0.0108l0.09656,-0.16898l2.08874,-0.52219l0.12283,-0.06142l0.3463,-0.07696l0.29929,-0.19046l0.08815,-0.02938l-0.04333,-0.17331v-1.99033l-0.2269,-2.72281l0.0337,-0.20641l-0.05072,-0.2029v-3.35204l-0.44979,-3.59834l0.03748,-0.30918l-0.07554,-0.30215v-3.48309l-0.2314,-3.23961l0.03103,-0.17691l-0.04356,-0.17424v-13.90379l0.07554,-0.30215l-0.03748,-0.30918l0.24393,-1.95141l0.0059,-0.01523l-0.61419,-1.07483l-0.03792,-0.13481l-0.09114,-0.10633l-0.07311,-0.14622l-0.19823,-0.11894l-0.02691,-0.0015l-0.02585,-0.03016l-0.21619,-0.12972l-0.48786,-0.48786l-0.12972,-0.21619l-0.03016,-0.02585l-0.0015,-0.02691l-0.24626,-0.41044l-0.51562,-0.60156l-0.30534,-0.61069l-0.08926,-0.10987l0.00686,-0.05493l-0.34404,-0.68807l-0.48394,-2.17772c-1.59794,-1.12613 -2.68248,-2.80841 -2.76315,-5.44838c-0.05334,-1.74542 -0.11585,-3.50615 -0.00928,-5.24982l-0.06285,-0.03592l-0.26927,-1.07707l-0.37341,-1.04555l0.07468,-0.14937l-0.0481,-0.19238v-0.75374l-0.00582,-0.07568l-0.09095,-0.17053l-0.02452,-0.09807l-0.1126,-0.09149l-0.0824,-0.10987l-0.48785,-0.41815l-0.67939,-0.40763l-0.48786,-0.48786l-0.12972,-0.21619l-0.03016,-0.02585l-0.0015,-0.02691l-0.0912,-0.15199l-0.36324,-0.33023l-0.0385,-0.05775c-0.17606,-0.11404 -0.34439,-0.239 -0.50402,-0.37393l-0.0613,-0.03678l-0.24393,-0.24393v0l-0.24393,-0.24393l-0.03678,-0.0613c-0.08941,-0.10577 -0.17443,-0.21536 -0.25481,-0.32849l-0.11221,-0.09618l-0.00418,-0.07513c-0.12359,-0.19038 -0.23439,-0.38983 -0.33119,-0.59713l-0.18408,-0.12272l0.01311,-0.23596l-0.39678,-0.66131l0.13827,-0.50701c-0.02049,-0.18251 -0.03102,-0.36803 -0.03102,-0.556c0,-0.78208 0.18215,-1.5216 0.50634,-2.17848l0.0456,-0.8207l0.58554,-0.5019l0.06218,-0.22799l0.29893,-0.08153l0.98201,-0.84173l2.43926,-1.21963l0.77343,-0.17187l0.73374,-0.29893l1.70748,-0.24393l0.35287,0.0365l0.34416,-0.08604h7.65266c3.66342,-2.25159 8.15543,-0.34856 10.95369,2.49764l0.05248,-0.02032l1.95141,-0.24393l0.08462,0.01026l0.08048,-0.02808l0.33365,-0.03033c0.11118,-0.11889 0.22207,-0.23541 0.33139,-0.34952z" fill="#7c0000" stroke="none" stroke-width="0.5"/><path d="M349.34369,121.23372c8.27015,5.4073 15.08711,13.5251 21.10537,21.15473c1.71835,2.17843 4.13658,4.78665 5.24511,7.26278c2.06917,4.62189 4.29687,5.79623 4.6695,12.00075c0.07367,1.22675 1.08756,2.48835 0.72247,3.94869c-0.90182,3.60729 -4.89961,4.97981 -8.0084,3.20336c-3.09551,-1.76886 -2.60019,-7.77543 -4.53257,-10.39524c-5.14373,-6.9736 -10.00164,-13.52154 -16.63348,-19.07274c-3.56161,-2.98127 -8.20019,-4.71434 -11.57115,-7.91226c-0.98729,-0.93661 -3.86216,-1.32906 -3.73682,-3.14642c-0.11601,-0.23931 -0.21324,-0.48942 -0.28977,-0.74842c-0.45224,-0.0768 -0.8901,-0.17331 -1.29381,-0.28424c-2.0795,-0.57138 -3.8454,-2.18422 -5.83091,-3.00664c-3.30844,-1.3704 -8.62334,-1.75089 -11.29344,-4.14043c-0.12257,-0.1097 -0.29598,-0.14989 -0.45563,-0.18954c-2.14668,-0.53318 -4.28785,-0.99153 -6.44045,-1.51076c-0.20955,-0.05054 -0.53021,-0.28747 -0.63871,-0.10121c-2.43303,4.17659 -5.42807,7.16791 -8.24892,10.98009c-1.02125,1.38015 -1.6536,3.92228 -2.80836,4.9974c-0.70003,0.65175 -2.89399,2.02252 -3.09137,2.8614c-0.70103,2.97931 -3.33875,6.97102 -5.7113,8.51491c-1.73008,1.12582 -8.44624,2.31457 -10.3495,0.61165c-2.43023,-2.17442 -3.84251,-7.03506 -0.65067,-9.06623l0.13581,-0.30557c1.19431,-4.77724 4.08422,-9.1626 6.15232,-13.62163c0.99235,-2.13961 1.08623,-5.12234 1.77141,-7.43493c1.20494,-4.06687 5.265,-8.49747 8.67648,-10.96132c3.27383,-2.36443 8.83379,-4.5306 12.9204,-4.80625c7.34564,-0.49547 23.22789,5.39625 28.57201,10.93816c1.41525,1.46763 4.64897,4.1369 6.32413,6.69967c1.94529,1.21081 3.77714,2.54091 5.29026,3.53024z" fill="#7c0000" stroke="none" stroke-width="0.5"/><path d="M110.80368,152.4117c-5.87424,0.45187 -9.57199,-4.96441 -4.48432,-9.16026c3.4843,-2.87353 8.17047,-3.39497 12.6002,-4.20566c1.22265,-1.09631 3.71223,-1.89682 4.82189,-2.22797c4.10613,-1.22536 8.71142,-5.02774 11.87735,-7.93154c2.52741,-2.31814 4.89885,-4.7802 7.46585,-7.06428c4.85278,-4.31793 13.28324,-6.34058 19.17893,-9.18644c4.02347,-1.94213 8.17616,-4.2138 11.77839,-6.85502c1.62466,-1.19122 3.31355,-3.11768 5.1188,-4.02031c7.23393,-3.61697 18.60244,-0.25032 23.61214,5.59269c0.92447,1.07825 4.74118,2.21057 6.07641,3.35506c4.85509,4.1615 4.8448,11.79211 8.35092,16.62334c3.15288,4.34449 7.25309,8.40952 7.66338,14.07517c0.03059,0.42243 0.01833,0.86236 -0.03284,1.3106c0.02171,0.20444 0.03284,0.41203 0.03284,0.62223c0,1.91764 -0.92666,3.61884 -2.35662,4.68025c-2.12492,2.52456 -5.35878,3.60941 -8.3553,0.11347l-0.13398,-0.067c-6.21608,-5.32808 -4.78111,-6.04854 -6.37914,-14.01898c-0.49791,-2.48341 -5.1255,-6.96029 -6.62801,-9.30813c-1.50984,-2.35928 -2.7974,-4.69245 -4.93582,-6.51497c-0.21492,-0.18317 -0.30076,-0.71368 -0.56957,-0.62713c-5.12911,1.65137 -11.04959,3.25751 -15.81435,5.79373c-4.99338,2.6579 -8.89137,6.57361 -13.85783,9.21279c-3.11255,1.65401 -6.35954,3.10851 -9.66336,4.46928c-1.31626,2.86684 -5.90435,5.81858 -7.76409,7.03225c-0.44617,0.29117 0.13267,1.13031 -0.13166,1.59288c-1.01861,1.78257 -4.56044,2.89943 -6.14687,3.57051c-3.06819,1.2979 -5.70642,-0.27903 -6.82573,0.00716c-5.91038,1.51119 -11.28455,3.48501 -17.31064,4.65507c-2.31778,0.45003 -6.2882,1.31235 -7.07088,-1.55748z" fill="#7c0000" stroke="none" stroke-width="0.5"/><path d="M180.34264,110.33477c0.96279,0.29095 1.81495,0.46842 2.60137,0.65662c1.28078,0.3065 2.38718,0.64137 3.5131,1.54102c3.79547,3.03276 2.86741,7.19227 -0.94156,10.07285c-1.15718,0.87513 -4.61422,3.50269 -6.04674,2.68412c-1.5251,-0.87148 -3.02105,-1.79604 -4.48258,-2.77038c-1.25767,-0.83844 -0.65218,-8.75073 0.64006,-9.48917z" fill="#cbcb00" stroke="none" stroke-width="0.5"/><path d="M198.49849,103.69198c-0.60003,6.68362 -13.43199,6.79879 -13.43199,0.95403c-0.10674,-0.42657 -0.1634,-0.87299 -0.1634,-1.33263c0,-0.78545 0.16548,-1.53226 0.46346,-2.20746c2.79593,-9.43396 13.99614,-7.04041 13.13193,2.58606z" fill="#cbcb00" stroke="none" stroke-width="0.5"/><path d="M308.12192,112.60641c6.90932,-1.43044 7.75298,14.72519 3.41398,17.61786c-4.08392,2.72261 -14.56767,-2.11649 -13.44575,-6.23017c-0.11317,-0.43841 -0.17338,-0.8981 -0.17338,-1.37185c0,-2.5113 1.69154,-4.62752 3.99738,-5.27145c1.70389,-2.23523 3.59335,-4.20313 6.20775,-4.74439z" fill="#cbcb00" stroke="none" stroke-width="0.5"/><path d="M301.02306,102.65451c1.9734,-2.75427 1.00767,-4.36103 4.884,-5.43471c0.90551,-0.25082 1.90087,-1.20288 2.71949,-0.74167c3.24736,1.82956 7.14754,6.97772 6.09344,11.19417c-0.90029,3.60116 -4.35881,5.90883 -7.57474,4.07117c-0.5275,0.16924 -1.08986,0.26062 -1.67356,0.26062c-2.81541,0 -5.13425,-2.12601 -5.4387,-4.8602c-0.45852,-1.26809 -0.26612,-2.73614 0.99007,-4.48939z" fill="#cbcb00" stroke="none" stroke-width="0.5"/><path d="M280.86234,142.86043c-4.71936,-1.04875 -13.56873,-12.63102 -3.00341,-12.85581c0.98055,-0.92781 2.30414,-1.49679 3.76062,-1.49679c3.02242,0 5.47258,2.45015 5.47258,5.47258c0,0.22061 -0.01305,0.43816 -0.03843,0.65194c1.24966,4.49326 -0.50034,9.49275 -6.19135,8.22808z" fill="#cbcb00" stroke="none" stroke-width="0.5"/></g></g></svg>