<svg version="1.1" xmlns="http://www.w3.org/2000/svg" xmlns:xlink="http://www.w3.org/1999/xlink" width="488.38556" height="367.26262" viewBox="0,0,488.38556,367.26262"><g transform="translate(-25.84793,5.68805)"><g data-paper-data="{&quot;isPaintingLayer&quot;:true}" fill-rule="nonzero" stroke-linejoin="miter" stroke-miterlimit="10" stroke-dasharray="" stroke-dashoffset="0" style="mix-blend-mode: normal"><path d="M67.11565,243.55092c0,0 57.84783,-6.94041 84.26528,-28.10349c24.56304,-19.67751 47.10459,-44.27658 56.78175,-54.3587c21.93495,-22.85287 65.83553,-72.71611 65.83553,-72.71611l12.87198,9.95355c0,0 -38.47827,38.74119 -58.68702,59.79561c-11.74348,12.23491 -44.1204,53.27013 -81.11218,76.27536c-31.82461,19.79177 -81.75006,21.10732 -81.75006,21.10732z" data-paper-data="{&quot;index&quot;:null}" fill="#ce0000" stroke="#950000" stroke-width="3.5" stroke-linecap="butt"/><path d="M211.16517,330.70294v-239.52369h16.33333v239.52369z" data-paper-data="{&quot;index&quot;:null}" fill="#ce0000" stroke="#950000" stroke-width="3.5" stroke-linecap="butt"/><g data-paper-data="{&quot;index&quot;:null}" fill="#820000" stroke="none" stroke-width="0" stroke-linecap="butt"><path d="M221.16882,257.96653c1.4017,0 2.53801,2.52299 2.53801,5.63528c0,3.11228 -1.1363,5.63528 -2.53801,5.63528c-1.4017,0 -2.53802,-2.523 -2.53802,-5.63528c0,-3.11228 1.13631,-5.63528 2.53802,-5.63528z"/><path d="M217.52414,268.84844c1.06336,0 1.92539,1.91402 1.92539,4.27504c0,2.36104 -0.86203,4.27504 -1.92539,4.27504c-1.06336,0 -1.92539,-1.914 -1.92539,-4.27504c0,-2.36104 0.86203,-4.27504 1.92539,-4.27504z"/><path d="M216.74776,255.24604c0.76867,0 1.39182,1.20958 1.39182,2.70168c0,1.49209 -0.62314,2.70168 -1.39182,2.70168c-0.76867,0 -1.39181,-1.20959 -1.39181,-2.70168c0,-1.4921 0.62313,-2.70168 1.39181,-2.70168z"/></g><path d="M209.70677,346.58033l0.49144,-26.32875l20.32979,0.37947l-0.49144,26.32874z" data-paper-data="{&quot;index&quot;:null}" fill="#d3d3d3" stroke="#a0a0a0" stroke-width="3.5" stroke-linecap="butt"/><path d="M225.55112,337.20773l0.29238,-15.66394" data-paper-data="{&quot;index&quot;:null}" fill="none" stroke="#a0a0a0" stroke-width="3.5" stroke-linecap="round"/><path d="M219.99118,331.43629l0.19285,-10.33153" data-paper-data="{&quot;index&quot;:null}" fill="none" stroke="#a0a0a0" stroke-width="3.5" stroke-linecap="round"/><path d="M214.25086,335.32984l-0.072,-14.00378" data-paper-data="{&quot;index&quot;:null}" fill="none" stroke="#a0a0a0" stroke-width="3.5" stroke-linecap="round"/><path d="M208.47055,359.22613l0.30482,-16.33049l30.32806,0.5661l-0.30482,16.33048z" data-paper-data="{&quot;index&quot;:null}" fill="#393939" stroke="#2b2b2b" stroke-width="3.5" stroke-linecap="butt"/><g fill="#820000" stroke="none" stroke-width="0" stroke-linecap="butt"><path d="M217.46669,142.62369c0,4.44894 -1.00023,8.05555 -2.23408,8.05555c-1.23385,0 -2.2341,-3.60658 -2.2341,-8.05555c0,-4.44894 1.00024,-8.05556 2.2341,-8.05556c1.23385,0 2.23408,3.60662 2.23408,8.05556z"/><path d="M220.13567,156.23479c0,3.37509 -0.75881,6.11111 -1.69483,6.11111c-0.93602,0 -1.69483,-2.73606 -1.69483,-6.11111c0,-3.37509 0.7588,-6.11112 1.69483,-6.11112c0.93602,0 1.69483,2.73606 1.69483,6.11112z"/><path d="M220.34938,134.54124c0,2.13293 -0.54852,3.86202 -1.22514,3.86202c-0.67663,0 -1.22515,-1.72909 -1.22515,-3.86202c0,-2.13293 0.54852,-3.86199 1.22515,-3.86199c0.67663,0 1.22514,1.72909 1.22514,3.86199z"/></g><g data-paper-data="{&quot;index&quot;:null}" fill="#820000" stroke="none" stroke-width="0" stroke-linecap="butt"><path d="M197.75718,180.52698c-1.06183,1.1248 -2.65607,1.43303 -3.56083,0.68843c-0.90477,-0.7446 -0.77744,-2.26004 0.28438,-3.38485c1.06183,-1.1248 2.65607,-1.43304 3.56083,-0.68845c0.90476,0.74461 0.77744,2.26006 -0.28438,3.38486z"/><path d="M196.46576,185.57885c-0.80552,0.8533 -2.01495,1.08713 -2.70132,0.52226c-0.68637,-0.56486 -0.58978,-1.71452 0.21575,-2.56783c0.80552,-0.8533 2.01494,-1.08713 2.70132,-0.52226c0.68637,0.56486 0.58979,1.71453 -0.21574,2.56783z"/><path d="M201.80004,180.22315c-0.50906,0.53925 -1.32396,0.64542 -1.82011,0.23708c-0.49617,-0.40832 -0.4857,-1.1765 0.02336,-1.71575c0.50906,-0.53925 1.32396,-0.6454 1.82013,-0.23708c0.49616,0.40832 0.4857,1.17649 -0.02336,1.71574z"/></g><g data-paper-data="{&quot;index&quot;:null}" fill="#820000" stroke="none" stroke-width="0" stroke-linecap="butt"><path d="M285.59027,122.64038c0.25047,1.42037 -0.47008,2.79086 -1.60941,3.06107c-1.13933,0.27021 -2.26597,-0.66218 -2.51644,-2.08255c-0.25047,-1.42038 0.47009,-2.79088 1.6094,-3.06108c1.13933,-0.27021 2.26597,0.66218 2.51644,2.08256z"/><path d="M288.82105,126.40138c0.19001,1.07752 -0.35662,2.11722 -1.22093,2.32219c-0.86431,0.20499 -1.71901,-0.50235 -1.90902,-1.57988c-0.19002,-1.07753 0.35662,-2.11722 1.22093,-2.3222c0.86431,-0.20498 1.71902,0.50236 1.90902,1.57988z"/><path d="M287.79708,119.42868c0.12009,0.68096 -0.28907,1.35312 -0.91385,1.50129c-0.62479,0.14817 -1.22862,-0.28372 -1.34871,-0.96469c-0.12009,-0.68096 0.28907,-1.35311 0.91385,-1.50129c0.62478,-0.14818 1.22863,0.28372 1.34871,0.96468z"/></g><path d="M258.16517,326.70293v-239.52369h16.33333v239.52369z" data-paper-data="{&quot;index&quot;:null}" fill="#ce0000" stroke="#950000" stroke-width="3.5" stroke-linecap="butt"/><g fill="#820000" stroke="none" stroke-width="0" stroke-linecap="butt"><path d="M264.46669,138.62369c0,4.44894 -1.00023,8.05556 -2.23409,8.05556c-1.23385,0 -2.2341,-3.60659 -2.2341,-8.05556c0,-4.44894 1.00024,-8.05556 2.2341,-8.05556c1.23385,0 2.23409,3.60662 2.23409,8.05556z"/><path d="M267.13566,152.23479c0,3.37508 -0.7588,6.11112 -1.69483,6.11112c-0.93602,0 -1.69483,-2.73606 -1.69483,-6.11112c0,-3.37508 0.7588,-6.11112 1.69483,-6.11112c0.93602,0 1.69483,2.73606 1.69483,6.11112z"/><path d="M267.34938,130.54123c0,2.13293 -0.54851,3.86202 -1.22514,3.86202c-0.67663,0 -1.22515,-1.72909 -1.22515,-3.86202c0,-2.13293 0.54852,-3.86199 1.22515,-3.86199c0.67663,0 1.22514,1.72909 1.22514,3.86199z"/></g><g data-paper-data="{&quot;index&quot;:null}" fill="#820000" stroke="none" stroke-width="0" stroke-linecap="butt"><path d="M268.16882,253.96653c1.4017,0 2.53801,2.52299 2.53801,5.63528c0,3.11229 -1.1363,5.63528 -2.53801,5.63528c-1.4017,0 -2.53802,-2.52299 -2.53802,-5.63528c0,-3.11229 1.13631,-5.63528 2.53802,-5.63528z"/><path d="M264.52414,264.84844c1.06336,0 1.92539,1.91402 1.92539,4.27504c0,2.36105 -0.86203,4.27504 -1.92539,4.27504c-1.06336,0 -1.92539,-1.914 -1.92539,-4.27504c0,-2.36105 0.86203,-4.27504 1.92539,-4.27504z"/><path d="M263.74776,251.24603c0.76867,0 1.39182,1.20959 1.39182,2.70168c0,1.49209 -0.62314,2.70168 -1.39182,2.70168c-0.76867,0 -1.39181,-1.20959 -1.39181,-2.70168c0,-1.49209 0.62313,-2.70168 1.39181,-2.70168z"/></g><g data-paper-data="{&quot;index&quot;:null}" fill="#820000" stroke="none" stroke-width="0" stroke-linecap="butt"><path d="M242.79382,131.48918c1.4017,0 2.53801,1.21486 2.53801,2.71345c0,1.49859 -1.13631,2.71345 -2.53801,2.71345c-1.4017,0 -2.53801,-1.21485 -2.53801,-2.71345c0,-1.49859 1.13631,-2.71345 2.53801,-2.71345z"/><path d="M239.14913,136.72894c1.06336,0 1.92539,0.92162 1.92539,2.05848c0,1.13687 -0.86203,2.05848 -1.92539,2.05848c-1.06336,0 -1.92539,-0.92162 -1.92539,-2.05848c0,-1.13687 0.86203,-2.05848 1.92539,-2.05848z"/><path d="M238.37276,130.17924c0.76868,0 1.39182,0.58243 1.39182,1.30088c0,0.71846 -0.62313,1.30089 -1.39182,1.30089c-0.76868,0 -1.39182,-0.58243 -1.39182,-1.30089c0,-0.71846 0.62313,-1.30088 1.39182,-1.30088z"/></g><path d="M256.70677,342.58033l0.49144,-26.32874l20.3298,0.37947l-0.49144,26.32874z" data-paper-data="{&quot;index&quot;:null}" fill="#d3d3d3" stroke="#a0a0a0" stroke-width="3.5" stroke-linecap="butt"/><path d="M272.84349,317.54379l-0.29238,15.66394" data-paper-data="{&quot;index&quot;:null}" fill="none" stroke="#a0a0a0" stroke-width="3.5" stroke-linecap="round"/><path d="M267.18404,317.10476l-0.19285,10.33153" data-paper-data="{&quot;index&quot;:null}" fill="none" stroke="#a0a0a0" stroke-width="3.5" stroke-linecap="round"/><path d="M261.17885,317.32606l0.07201,14.00378" data-paper-data="{&quot;index&quot;:null}" fill="none" stroke="#a0a0a0" stroke-width="3.5" stroke-linecap="round"/><path d="M255.47055,355.22613l0.30482,-16.33049l30.32806,0.56609l-0.30482,16.33049z" data-paper-data="{&quot;index&quot;:null}" fill="#393939" stroke="#2b2b2b" stroke-width="3.5" stroke-linecap="butt"/><path d="M292.4985,81.9084c0,20.71068 -28.6619,39 -56,39c-27.3381,0 -52,-17.78932 -52,-38.5c0,-20.71068 25.6619,-38.5 53,-38.5c27.3381,0 55,17.28932 55,38z" fill="#ce0000" stroke="#950000" stroke-width="3.5" stroke-linecap="butt"/><path d="M197.07936,268.3358c0,0 7.05835,-56.1373 7.05835,-82.00845c0,-26.54324 -7.05835,-75.28644 -7.05835,-75.28644h82.04156c0,0 -1.0782,47.77655 -1.0782,74.39017c0,25.79225 5.81277,82.90471 5.81277,82.90471z" fill="#f3f3f3" stroke="#c1c1c1" stroke-width="3.5" stroke-linecap="butt"/><g data-paper-data="{&quot;index&quot;:null}" fill="#820000" stroke="none" stroke-width="0" stroke-linecap="butt"><path d="M209.10221,98.26902c0,1.83371 -1.40367,3.32024 -3.13519,3.32024c-1.73151,0 -3.13519,-1.48652 -3.13519,-3.32024c0,-1.83371 1.40367,-3.32024 3.13519,-3.32024c1.73152,0 3.13519,1.48652 3.13519,3.32024z"/><path d="M212.8477,103.87909c0,1.3911 -1.06486,2.51881 -2.37842,2.51881c-1.31356,0 -2.37842,-1.12771 -2.37842,-2.51881c0,-1.3911 1.06486,-2.51881 2.37842,-2.51881c1.31356,0 2.37842,1.12771 2.37842,2.51881z"/><path d="M213.14762,94.93769c0,0.87912 -0.76975,1.5918 -1.7193,1.5918c-0.94955,0 -1.7193,-0.71268 -1.7193,-1.5918c0,-0.87912 0.76975,-1.59179 1.7193,-1.59179c0.94955,0 1.7193,0.71267 1.7193,1.59179z"/></g><g data-paper-data="{&quot;index&quot;:null}" fill="#820000" stroke="none" stroke-width="0" stroke-linecap="butt"><path d="M277.96703,77.61545c1.73152,0 3.13519,1.48652 3.13519,3.32024c0,1.83372 -1.40367,3.32024 -3.13519,3.32024c-1.73152,0 -3.1352,-1.48652 -3.1352,-3.32024c0,-1.83372 1.40368,-3.32025 3.1352,-3.32025z"/><path d="M284.8477,86.54576c0,1.39109 -1.06486,2.5188 -2.37842,2.5188c-1.31356,0 -2.37842,-1.1277 -2.37842,-2.5188c0,-1.3911 1.06486,-2.51881 2.37842,-2.51881c1.31356,0 2.37842,1.12771 2.37842,2.51881z"/><path d="M285.14762,77.60436c0,0.87912 -0.76975,1.5918 -1.7193,1.5918c-0.94954,0 -1.7193,-0.71268 -1.7193,-1.5918c0,-0.87912 0.76976,-1.59179 1.7193,-1.59179c0.94955,0 1.7193,0.71267 1.7193,1.59179z"/></g><text transform="translate(214.17038,163.38686) scale(0.30057,0.35303)" font-size="40" xml:space="preserve" fill="#000000" fill-rule="nonzero" stroke="#000000" stroke-width="1" stroke-linecap="butt" stroke-linejoin="miter" stroke-miterlimit="10" stroke-dasharray="" stroke-dashoffset="0" font-family="Handwriting" font-weight="normal" text-anchor="start" style="mix-blend-mode: normal"><tspan x="0" dy="0">Your opinion </tspan><tspan x="0" dy="46.15px">is not on </tspan><tspan x="0" dy="46.15px">the recipe</tspan></text><path d="M228.55119,71.95007c0,8.00813 -6.21265,14.5 -13.87634,14.5c-7.66369,0 -13.87634,-6.49187 -13.87634,-14.5c0,-8.00813 6.21265,-14.5 13.87634,-14.5c7.66369,0 13.87634,6.49187 13.87634,14.5z" fill="#ffffff" stroke="#000000" stroke-width="1.5" stroke-linecap="butt"/><path d="M221.65897,71.20275c0,0 5.96256,3.55081 5.13756,4.90802c-1.43014,2.35276 -3.71371,4.09088 -6.51806,4.09088c-4.42206,0 -8.00685,-3.86413 -8.00685,-8.63077c0,-4.76664 3.58479,-8.63077 8.00685,-8.63077c2.76212,0 5.19758,1.50761 6.63681,3.80107c0.86493,1.3783 -5.25632,4.46157 -5.25632,4.46157z" fill="#000000" stroke="none" stroke-width="0" stroke-linecap="butt"/><path d="M269.75119,72.35006c0,8.00813 -6.21265,14.5 -13.87634,14.5c-7.66369,0 -13.87634,-6.49187 -13.87634,-14.5c0,-8.00813 6.21265,-14.5 13.87634,-14.5c7.6637,0 13.87634,6.49187 13.87634,14.5z" fill="#ffffff" stroke="#000000" stroke-width="1.5" stroke-linecap="butt"/><path d="M261.21917,70.58646c0,0 6.19133,3.68706 5.3347,5.09634c-1.48503,2.44304 -3.8562,4.24786 -6.76817,4.24786c-4.59174,0 -8.31408,-4.0124 -8.31408,-8.96195c0,-4.94955 3.72234,-8.96194 8.31408,-8.96194c2.86811,0 5.39702,1.56545 6.89147,3.94692c0.89812,1.43118 -5.45801,4.63276 -5.45801,4.63276z" fill="#000000" stroke="none" stroke-width="0" stroke-linecap="butt"/><path d="M242.70826,88.99886c0,0 -3.28338,4.02306 -5.46518,5.08084c-2.00395,0.97156 -7.13751,1.02917 -7.13751,1.02917" fill="none" stroke="#000000" stroke-width="1.5" stroke-linecap="round"/><path d="M259.0027,86.33633c0,0 -8.47739,0.13768 -10.54648,-1.03121c-2.78756,-1.57478 -3.84606,-4.61782 -3.84606,-4.61782l23.34204,-6.41733c0,0 1.77918,1.94296 0.36451,4.63083c-1.24522,2.36591 -9.31401,7.43553 -9.31401,7.43553z" fill="#4e4e4e" stroke="#000000" stroke-width="1.5" stroke-linecap="butt"/><path d="M253.38269,57.69973c0,0 9.49991,0.74705 11.70073,2.26511c2.50031,1.72463 1.82575,4.27131 1.82575,4.27131l-23.6549,5.1457c0,0 -0.47427,-3.18678 1.26439,-5.87518c1.29053,-1.99549 8.86403,-5.80693 8.86403,-5.80693z" data-paper-data="{&quot;index&quot;:null}" fill="#4e4e4e" stroke="#000000" stroke-width="1.5" stroke-linecap="butt"/><path d="M218.27451,57.74658c0,0 7.9471,5.25834 9.13622,7.65293c1.35094,2.72045 -0.47353,4.62095 -0.47353,4.62095l-23.18434,-6.96555c0,0 1.12991,-3.01725 3.9538,-4.52591c2.09606,-1.11982 10.56785,-0.78242 10.56785,-0.78242z" data-paper-data="{&quot;index&quot;:null}" fill="#4e4e4e" stroke="#000000" stroke-width="1.5" stroke-linecap="butt"/><path d="M207.33449,84.25674c0,0 -5.56888,-6.39318 -6.00864,-8.72857c-0.59247,-3.14633 1.05208,-5.91689 1.05208,-5.91689l19.95051,13.71166c0,0 -0.33895,2.61261 -3.30586,3.26324c-2.61153,0.5727 -11.68809,-2.32945 -11.68809,-2.32945z" fill="#4e4e4e" stroke="#000000" stroke-width="1.5" stroke-linecap="butt"/><path d="M485.85144,36.8256c0,0 -74.56441,39.33503 -148.27487,72.97333c-60.94569,27.81301 -121.7826,51.25648 -135.17993,49.57663c-20.07403,-2.51703 -17.56606,-71.07198 -17.56606,-71.07198l0.63539,-9.02249l3.48804,-7.70811c0,0 15.82664,70.06136 20.21561,71.19474c15.5478,4.01497 91.28022,-28.02596 157.4825,-63.79235c26.08304,-14.0916 51.7996,-26.06026 69.40014,-36.76957c19.02284,-11.57473 32.90125,-20.34203 32.90125,-20.34203z" data-paper-data="{&quot;index&quot;:null}" fill="#ce0000" stroke="#950000" stroke-width="3.5" stroke-linecap="butt"/><g data-paper-data="{&quot;index&quot;:null}" fill="#820000" stroke="none" stroke-width="0" stroke-linecap="butt"><path d="M293.25424,122.93741c0.81402,-0.90201 1.99259,-1.09686 2.63241,-0.43521c0.63981,0.66166 0.49857,1.92926 -0.31545,2.83128c-0.81403,0.90201 -1.99259,1.09688 -2.6324,0.43521c-0.63981,-0.66165 -0.49858,-1.92926 0.31544,-2.83128z"/><path d="M289.37981,124.26579c0.61753,-0.68429 1.51162,-0.8321 1.997,-0.33016c0.48538,0.50195 0.37824,1.46358 -0.23929,2.14786c-0.61753,0.68429 -1.51162,0.8321 -1.997,0.33016c-0.48537,-0.50194 -0.37824,-1.46358 0.23929,-2.14786z"/><path d="M294.58019,119.62684c0.35086,0.36285 0.31893,1.00756 -0.07133,1.44c-0.39025,0.43244 -0.99108,0.48887 -1.34193,0.12602c-0.35087,-0.36284 -0.31892,-1.00755 0.07134,-1.44c0.39027,-0.43245 0.99106,-0.48886 1.34192,-0.12603z"/></g><g data-paper-data="{&quot;index&quot;:null}" fill="#820000" stroke="none" stroke-width="0" stroke-linecap="butt"><path d="M193.1458,120.14639c1.13498,-0.28788 2.4081,0.59339 2.84359,1.96837c0.43548,1.37497 -0.13159,2.72298 -1.26657,3.01086c-1.13498,0.28788 -2.4081,-0.59338 -2.84357,-1.96836c-0.43548,-1.37498 0.13158,-2.723 1.26656,-3.01088z"/><path d="M190.75642,127.98658c-0.33037,-1.04307 0.09982,-2.06572 0.96084,-2.28411c0.86102,-0.21839 1.82684,0.45016 2.1572,1.49324c0.33038,1.04308 -0.09981,2.06572 -0.96083,2.28411c-0.86102,0.2184 -1.82685,-0.45016 -2.1572,-1.49324z"/><path d="M188.43639,121.33192c-0.20879,-0.65919 0.12655,-1.32157 0.74895,-1.47942c0.62241,-0.15786 1.29622,0.24855 1.505,0.90773c0.20877,0.6592 -0.12655,1.32156 -0.74895,1.47943c-0.6224,0.15787 -1.29623,-0.24853 -1.505,-0.90773z"/></g><g stroke="#c1c1c1" stroke-width="2.5"><path d="M211.22094,48.36849l-0.0516,-29.05858l50.59075,-1.27172l1.08576,29.74802c0,0 -21.42322,-5.13297 -29.49473,-4.93007c-8.73898,0.21967 -22.13018,5.51235 -22.13018,5.51235z" fill="#f3f3f3" stroke-linecap="butt"/><path d="M199.35513,20.7588l-0.46226,-12.37148c0,0 3.61561,-6.7144 30.197,-7.0946c13.21219,-0.18898 20.18488,1.78158 28.35686,2.57449c8.91827,0.86533 18.3675,-1.44519 18.3675,-1.44519l1.008,16.38947z" fill="#f3f3f3" stroke-linecap="butt"/><path d="M211.23133,10.381l0.35475,9.49439" fill="none" stroke-linecap="round"/><path d="M234.12301,8.94163l0.35476,9.49439" fill="none" stroke-linecap="round"/><path d="M260.98037,18.34577l-0.32251,-8.63126" fill="none" stroke-linecap="round"/></g><path d="M268.12381,114.03619l27.50443,-33.43276l4.65151,3.82671l-27.50444,33.43275z" data-paper-data="{&quot;index&quot;:null}" fill="#f3f3f3" stroke="#c1c1c1" stroke-width="3.5" stroke-linecap="butt"/><path d="M72.15751,236.4065c2.3461,12.50943 -6.37919,24.27688 -19.4885,26.28335c-9.58506,1.46706 -18.85993,-2.69031 -24.07108,-9.92134c-1.21308,-1.68326 26.93268,-6.20508 32.48976,-10.73234c3.22032,-2.62354 -14.81186,-5.77608 -15.04326,-7.00991c-0.72107,-3.84475 -21.75624,1.02691 -20.57978,-2.41581c2.65129,-7.75865 9.62817,-13.83143 18.70836,-15.2212c13.10931,-2.00647 25.6384,6.50785 27.98451,19.01727z" data-paper-data="{&quot;index&quot;:null}" fill="#f3f3f3" stroke="#c1c1c1" stroke-width="5.5" stroke-linecap="butt"/><path d="M465.85386,27.9923c-4.6162,-11.86088 1.52423,-25.70887 13.71505,-30.93035c8.44399,-3.61669 17.57594,-2.14601 23.9257,3.04114c2.81757,2.30167 -17.61652,9.2773 -16.19774,12.92272c0.45531,1.16986 -13.19012,13.37233 -9.06989,13.89876c7.10999,0.90842 33.39675,-10.1205 33.25595,-8.05045c-0.60482,8.89259 -6.28376,17.32209 -15.19726,21.13985c-12.19082,5.22148 -25.81559,-0.16081 -30.43181,-12.02169z" data-paper-data="{&quot;index&quot;:null}" fill="#f3f3f3" stroke="#c1c1c1" stroke-width="5.5" stroke-linecap="butt"/><path d="M76.50248,239.11089l29.32131,-6.63132l-0.23513,22.02305l-35.66021,3.49345z" fill="#f3f3f3" stroke="#c1c1c1" stroke-width="3.5" stroke-linecap="butt"/><path d="M481.9485,39.13916l-36.26848,21.94252l-13.90463,-23.06809l32.1563,-14.07599z" data-paper-data="{&quot;index&quot;:null}" fill="#f3f3f3" stroke="#c1c1c1" stroke-width="3.5" stroke-linecap="butt"/><path d="M196.78855,189.87052v-17.58068h13.78877v17.58068z" fill="#f3f3f3" stroke="#c1c1c1" stroke-width="3.5" stroke-linecap="butt"/><path d="M271.22896,190.13595v-17.58068h13.78877v17.58068z" fill="#f3f3f3" stroke="#c1c1c1" stroke-width="3.5" stroke-linecap="butt"/></g></g></svg>