<svg version="1.1" xmlns="http://www.w3.org/2000/svg" xmlns:xlink="http://www.w3.org/1999/xlink" width="58" height="50" viewBox="0,0,58,50"><g transform="translate(-211,-155)"><g data-paper-data="{&quot;isPaintingLayer&quot;:true}" fill-rule="nonzero" stroke-linecap="butt" stroke-linejoin="miter" stroke-miterlimit="10" stroke-dasharray="" stroke-dashoffset="0" style="mix-blend-mode: normal"><path d="M213,203v-46h54v46z" fill="#2e2e2e" stroke="#161616" stroke-width="4"/><g fill="#ffffff" stroke="#ffffff"><path d="M245.9511,174.42965c0,5.12265 -3.13987,9.27538 -7.01309,9.27538c-3.87322,0 -7.01309,-4.15273 -7.01309,-9.27538c0,-5.12265 3.13987,-8.14423 7.01309,-8.14423c3.87322,0 7.01309,3.02158 7.01309,8.14423z" stroke-width="2"/><path d="M246.64946,182.81378c0,5.06886 -2.73553,10.38453 -7.59834,10.38453c-4.86281,0 -7.22129,-5.99436 -7.22129,-11.06322c0,-5.06886 2.5093,-5.48291 7.37211,-5.48291c4.86281,0 7.44752,1.09274 7.44752,6.16159z" stroke-width="2"/><path d="M237.88228,171.37557c0,1.3119 -1.08038,2.3754 -2.41311,2.3754c-1.33272,0 -2.41311,-1.0635 -2.41311,-2.3754c0,-1.3119 1.08038,-2.3754 2.41311,-2.3754c1.33272,0 2.41311,1.0635 2.41311,2.3754z" stroke-width="0"/><path d="M245.28859,171.29298c0,1.3119 -1.08038,2.3754 -2.41311,2.3754c-1.33272,0 -2.41311,-1.0635 -2.41311,-2.3754c0,-1.3119 1.08038,-2.3754 2.41311,-2.3754c1.33272,0 2.41311,1.0635 2.41311,2.3754z" stroke-width="0"/><path d="M235.58897,170.31671c0,-0.46304 0.37537,-0.8384 0.8384,-0.8384c0.46304,0 0.8384,0.37537 0.8384,0.8384c0,0.46304 -0.37537,0.8384 -0.8384,0.8384c-0.46304,0 -0.8384,-0.37537 -0.8384,-0.8384z" stroke-width="0.5"/><path d="M236.44296,171.55072c0.85584,0.85584 0.06632,1.79201 -0.92372,1.572c-0.6554,-0.14564 -1.42255,-0.18137 -1.71059,-0.82047c-0.05531,-0.11187 -0.08639,-0.23785 -0.08639,-0.3711c0,-0.46304 0.37537,-0.8384 0.8384,-0.8384c0.12304,0 0.23989,0.0265 0.34515,0.07411c0.52119,0.09317 1.36676,0.21346 1.53715,0.38385z" stroke-width="0.5"/><path d="M243.1567,170.41761c0,-0.46304 0.37537,-0.8384 0.8384,-0.8384c0.46304,0 0.8384,0.37537 0.8384,0.8384c0,0.46304 -0.37537,0.8384 -0.8384,0.8384c-0.46304,0 -0.8384,-0.37537 -0.8384,-0.8384z" stroke-width="0.5"/><path d="M240.98729,171.72936c0.12124,-0.21218 0.16288,-0.5045 0.33213,-0.66834c0.02581,-0.02499 0.05459,-0.04699 0.08707,-0.06526c0.81825,-0.46028 3.25319,0.483 2.92993,1.45279c-0.08906,0.26719 -0.37777,0.43744 -0.62967,0.56339c-0.11674,0.05837 -2.17897,-0.33674 -2.30657,-0.56003z" stroke-width="0.5"/><path d="M238.97503,177.27228l-1.38522,-2.42413h2.81372l-1.38522,2.42413z" stroke-width="2"/><g data-paper-data="{&quot;index&quot;:null}"><path d="M239.6764,173.43225c0.5154,0 0.93322,0.39883 0.93322,0.8908c0,0.49197 -0.41782,0.8908 -0.93322,0.8908c-0.5154,0 -0.93322,-0.39883 -0.93322,-0.8908c0,-0.49197 0.41782,-0.8908 0.93322,-0.8908z" stroke-width="1.5"/><path d="M239.34541,174.94971c-0.17696,0 -0.32042,-0.14346 -0.32042,-0.32042c0,-0.17696 0.14346,-0.32042 0.32042,-0.32042c0.17696,0 0.32042,0.14346 0.32042,0.32042c0,0.17696 -0.14346,0.32042 -0.32042,0.32042z" stroke-width="0.5"/></g><g><path d="M238.86169,174.31525c0,0.49197 -0.41782,0.8908 -0.93322,0.8908c-0.5154,0 -0.93322,-0.39883 -0.93322,-0.8908c0,-0.49197 0.41782,-0.8908 0.93322,-0.8908c0.5154,0 0.93322,0.39883 0.93322,0.8908z" stroke-width="1.5"/><path d="M237.93905,174.62148c0,-0.17696 0.14346,-0.32042 0.32042,-0.32042c0.17696,0 0.32042,0.14346 0.32042,0.32042c0,0.17696 -0.14346,0.32042 -0.32042,0.32042c-0.17696,0 -0.32042,-0.14346 -0.32042,-0.32042z" stroke-width="0.5"/></g><path d="M233.91032,176.63703c-0.53353,0 -0.53353,-0.53353 -0.53353,-0.53353l0.01366,-0.05318c-0.04329,-0.18758 -0.08657,-0.37516 -0.12986,-0.56274c0,0 -0.11997,-0.51986 0.3999,-0.63984c0.51986,-0.11997 0.63984,0.3999 0.63984,0.3999c0.04329,0.18758 0.08657,0.37516 0.12986,0.56274l0.01366,0.29312c0,0 0,0.53353 -0.53353,0.53353z" stroke-width="0.5"/><path d="M235.62974,175.10524c0.08773,0.07873 0.15605,0.20133 0.15605,0.39223c0,0.53353 -0.53353,0.53353 -0.53353,0.53353l-0.54125,-0.342c-0.07215,-0.18758 -0.14429,-0.37516 -0.21644,-0.56274c0,0 -0.19152,-0.49797 0.30644,-0.68949c0.49797,-0.19152 0.68949,0.30644 0.68949,0.30644c0.04641,0.12068 0.09283,0.24136 0.13924,0.36204z" stroke-width="0.5"/><path d="M242.64347,176.2263c-0.19515,-0.29273 -0.06859,-0.52111 0.04026,-0.64273c0,-0.12971 0,-0.25941 0,-0.38912c0,0 0,-0.53353 0.53353,-0.53353c0.53353,0 0.53353,0.53353 0.53353,0.53353c0,0.21644 0,0.43288 0,0.64932l-0.36745,0.5305c0,0 -0.44392,0.29595 -0.73987,-0.14797z" stroke-width="0.5"/><path d="M244.5159,176.7236c-0.53353,0 -0.53353,-0.53353 -0.53353,-0.53353c0,-0.18758 0,-0.46174 0,-0.64932c0,0 0,-0.53353 0.53353,-0.53353c0.53353,0 0.53353,0.53353 0.53353,0.53353c0,0.18758 0,0.37516 0,0.56274v0.08657c0,0 0,0.53353 -0.53353,0.53353z" stroke-width="0.5"/><path d="M234.70093,174.18903c0.05309,0.53088 -0.47779,0.58397 -0.47779,0.58397l-0.44796,0.04458l-0.60054,0.0429c-0.01435,0.00116 -0.02886,0.00175 -0.04351,0.00175c-0.29466,0 -0.53353,-0.23887 -0.53353,-0.53353c0,-0.16805 0.0777,-0.31796 0.19913,-0.41575l0.47272,-0.38677c0,0 0.41293,-0.33785 0.75078,0.07508c0.03116,0.03809 0.05594,0.07554 0.07524,0.11214l0.02149,-0.00216c0,0 0.53088,-0.05309 0.58397,0.47779z" stroke-width="0.5"/><path d="M245.42632,174.70416c-0.11574,0.52082 -0.63656,0.40509 -0.63656,0.40509l-0.44257,-0.10125c-0.28699,-0.17444 -0.73785,-0.21086 -0.86096,-0.52333c-0.03643,-0.09247 0.02085,-0.1664 0.10931,-0.23417c-0.14503,-0.05959 -0.30577,-0.1917 -0.30577,-0.48455c0,-0.53353 0.53353,-0.53353 0.53353,-0.53353h0.60603c0.29466,0 0.53353,0.23887 0.53353,0.53353c0,0.09982 -0.02741,0.19324 -0.07512,0.27313l0.1335,0.02851c0,0 0.52082,0.11574 0.40509,0.63656z" stroke-width="0.5"/><g><path d="M226.89886,174.26276c-1.71978,-3.95777 -2.19852,-7.56396 -1.06929,-8.05464c1.12922,-0.49069 3.4388,2.31995 5.15858,6.27771c1.71978,3.95777 2.19852,7.56396 1.06929,8.05464c-1.12922,0.49069 -3.4388,-2.31995 -5.15858,-6.27771z" stroke-width="2"/><path d="M228.96667,178.19545c-0.51904,-0.1235 -0.39555,-0.64253 -0.39555,-0.64253l0.23476,-0.66754c0.50245,-0.49468 0.52848,-0.67869 1.33532,-0.73045c0.11759,-0.00755 0.22814,0.24348 0.31385,0.16262c0.224,-0.2113 0.09799,-0.76302 0.39767,-0.83382c0.80912,-0.19116 1.15121,0.81274 1.38717,1.26184c0,0 0.241,0.476 -0.235,0.717c-0.476,0.241 -0.717,-0.235 -0.717,-0.235c-0.04268,-0.08884 -0.09706,-0.17384 -0.14642,-0.26049c-0.01721,0.10831 -0.05584,0.20407 -0.13986,0.26693c-0.63549,0.47543 -0.84173,-0.27479 -1.42678,0.39119l0.03437,0.17471c0,0 -0.1235,0.51904 -0.64253,0.39555z" stroke-width="0.5"/><path d="M227.35351,174.64669c-0.53139,-0.04765 -0.48375,-0.57905 -0.48375,-0.57905l0.06373,-0.62781c0.41881,-0.80924 1.152,-1.45628 2.21615,-1.4058c0.17761,0.00842 0.1719,0.38253 0.34842,0.40392c0.18159,0.02201 0.27275,-0.32044 0.45513,-0.30655c1.14872,0.08754 1.00418,0.40308 1.22624,1.22807c0,0 0.09715,0.52461 -0.42746,0.62176c-0.52461,0.09715 -0.62176,-0.42746 -0.62176,-0.42746c0.01844,-0.78079 -0.21808,0.0011 -0.82458,-0.06628c-0.18615,-0.02068 -0.19703,-0.39071 -0.38324,-0.41091c-0.25296,-0.02744 -0.90204,0.42048 -0.95669,0.63367l-0.03315,0.45266c0,0 -0.04765,0.53139 -0.57905,0.48375z" stroke-width="0.5"/><path d="M226.2813,171.46513c-0.53283,0.02728 -0.56011,-0.50556 -0.56011,-0.50556l0.00402,-0.55366c0.11127,-0.31534 0.12776,-0.68264 0.3338,-0.94603c0.7094,-0.90686 2.12866,-0.42984 3.04769,-0.38188c0,0 0.53276,0.02865 0.50411,0.56141c-0.02865,0.53276 -0.56141,0.50411 -0.56141,0.50411c-0.98434,-0.05437 -2.02892,-0.5977 -2.30438,0.57641l0.04183,0.18508c0,0 0.02728,0.53283 -0.50556,0.56011z" stroke-width="0.5"/><path d="M225.55732,168.67567c-0.53101,-0.05177 -0.47925,-0.58278 -0.47925,-0.58278l0.20014,-0.77219c0.28568,-0.28073 0.96027,-0.98762 1.29262,-1.04704c0.28233,-0.05048 0.53316,0.2116 0.79974,0.31739c0,0 0.47172,0.24927 0.22244,0.72099c-0.24927,0.47172 -0.72099,0.22244 -0.72099,0.22244c-0.31561,-0.35074 -0.55489,0.26081 -0.84558,0.54698l0.11365,0.11496c0,0 -0.05177,0.53101 -0.58278,0.47925z" stroke-width="0.5"/><path d="M230.45005,179.77061c-0.47661,-0.23979 -0.23681,-0.7164 -0.23681,-0.7164l0.18646,-0.3609c0.674,-0.86493 1.15972,-0.88114 2.15144,-0.45566c0,0 0.48539,0.22147 0.26392,0.70686c-0.22147,0.48539 -0.70686,0.26392 -0.70686,0.26392c-0.44074,-0.22059 -0.60125,-0.40258 -0.82431,0.08223l-0.11744,0.24314c0,0 -0.23979,0.47661 -0.7164,0.23681z" stroke-width="0.5"/></g><g data-paper-data="{&quot;index&quot;:null}"><path d="M245.24119,179.95729c-1.04304,-0.65421 -0.0298,-4.14808 2.26312,-7.80378c2.29292,-3.65569 4.99725,-6.08887 6.04029,-5.43466c1.04304,0.65421 0.0298,4.14808 -2.26312,7.80378c-2.29292,3.65569 -4.99725,6.08887 -6.04029,5.43466z" stroke-width="2"/><path d="M248.07213,177.61412l0.06014,-0.1676c-0.47875,-0.74607 -0.79499,-0.03517 -1.35213,-0.60039c-0.07366,-0.07473 -0.09752,-0.1752 -0.09832,-0.28486c-0.06178,0.07828 -0.12827,0.15419 -0.18377,0.23563c0,0 -0.30954,0.43455 -0.7441,0.12501c-0.43455,-0.30954 -0.12501,-0.7441 -0.12501,-0.7441c0.30054,-0.40871 0.78906,-1.35008 1.56045,-1.03994c0.28571,0.11487 0.07852,0.6415 0.26836,0.88396c0.07264,0.09277 0.21953,-0.13886 0.33466,-0.1138c0.78999,0.17197 0.78818,0.35781 1.21091,0.92213l0.13217,0.69516c0,0 0.0444,0.53168 -0.48728,0.57607c-0.53168,0.0444 -0.57607,-0.48728 -0.57607,-0.48728z" stroke-width="0.5"/><path d="M250.27439,174.26918l0.03499,-0.45252c-0.02212,-0.21898 -0.59682,-0.75902 -0.85103,-0.76976c-0.18713,-0.0079 -0.25329,0.35632 -0.44044,0.3489c-0.60975,-0.02418 -0.72655,-0.83268 -0.82521,-0.05793c0,0 -0.1746,0.50415 -0.67875,0.32955c-0.50415,-0.1746 -0.32955,-0.67875 -0.32955,-0.67875c0.34307,-0.78245 0.24741,-1.11607 1.39628,-1.03065c0.18241,0.01356 0.22128,0.3658 0.40411,0.37123c0.17773,0.00528 0.22809,-0.36547 0.40496,-0.34721c1.05972,0.1094 1.68777,0.85893 1.9807,1.72174l-0.03098,0.63027c0,0 -0.03244,0.53254 -0.56499,0.5001c-0.53254,-0.03244 -0.5001,-0.56499 -0.5001,-0.56499z" stroke-width="0.5"/><path d="M251.89492,171.21949l0.06907,-0.17673c-0.09658,-1.20211 -1.21073,-0.8213 -2.19211,-0.91491c0,0 -0.53104,-0.05143 -0.47961,-0.58248c0.05143,-0.53104 0.58248,-0.47961 0.58248,-0.47961c0.91585,0.09018 2.39054,-0.16899 2.95617,0.83385c0.16428,0.29126 0.1256,0.65689 0.1884,0.98533l-0.07892,0.54802c0,0 -0.10674,0.52274 -0.62948,0.416c-0.52274,-0.10674 -0.416,-0.62948 -0.416,-0.62948z" stroke-width="0.5"/><path d="M252.9399,168.63825l0.12958,-0.09665c-0.24457,-0.32646 -0.3896,-0.96694 -0.75416,-0.66741c0,0 -0.50372,0.17584 -0.67956,-0.32788c-0.17584,-0.50372 0.32788,-0.67956 0.32788,-0.67956c0.27941,-0.06469 0.56665,-0.28627 0.83824,-0.19409c0.3197,0.10851 0.88086,0.90843 1.12129,1.22876l0.08228,0.79345c0,0 -0.02832,0.53278 -0.56109,0.50446c-0.53278,-0.02832 -0.50446,-0.56109 -0.50446,-0.56109z" stroke-width="0.5"/><path d="M246.27286,179.09535l-0.07972,-0.25798c-0.14796,-0.51274 -0.3339,-0.35683 -0.8027,-0.20471c0,0 -0.51308,0.14631 -0.65938,-0.36677c-0.14631,-0.51307 0.36677,-0.65938 0.36677,-0.65938c1.04425,-0.2722 1.52207,-0.18346 2.05898,0.77262l0.13033,0.38475c0,0 0.16573,0.50713 -0.3414,0.67287c-0.50713,0.16573 -0.67287,-0.3414 -0.67287,-0.3414z" stroke-width="0.5"/></g><path d="M237.16379,187.46678c0,1.39088 -1.31789,2.5184 -2.94359,2.5184c-1.6257,0 -2.94359,-1.12753 -2.94359,-2.5184c0,-1.39088 1.31789,-2.5184 2.94359,-2.5184c1.6257,0 2.94359,1.12753 2.94359,2.5184z" stroke-width="1.5"/><path d="M246.33727,194.58608c-0.18823,1.37808 -1.64659,2.31688 -3.25733,2.09687c-1.61074,-0.22001 -2.76392,-1.51551 -2.57569,-2.8936c0.18823,-1.37808 1.64659,-2.31688 3.25733,-2.09687c1.61074,0.22001 2.76392,1.51551 2.57569,2.8936z" stroke-width="1.5"/></g></g></g></svg>