<svg version="1.1" xmlns="http://www.w3.org/2000/svg" xmlns:xlink="http://www.w3.org/1999/xlink" width="102.25062" height="199.7833" viewBox="0,0,102.25062,199.7833"><g transform="translate(-203.33334,-118.35765)"><g data-paper-data="{&quot;isPaintingLayer&quot;:true}" fill-rule="nonzero" stroke-linejoin="miter" stroke-miterlimit="10" stroke-dasharray="" stroke-dashoffset="0" style="mix-blend-mode: normal"><path d="M303.83396,156.85122c0,24.56313 -50.63168,52.13932 -50.63168,52.13932c0,0 -48.11894,-27.19928 -48.11894,-51.76241c0,-16.26875 7.51187,-39.01082 22.16364,-36.99521c11.44632,1.57465 25.95785,17.2121 25.95785,17.2121c0,0 15.73257,-14.70777 24.02627,-15.8367c11.42665,-1.55539 26.60286,19.89324 26.60286,35.24291z" fill="#000000" stroke="#ffffff" stroke-width="3.5" stroke-linecap="butt"/><path d="M249.57252,235.8385v-20.72401h21.31612v20.72401z" fill="#bd0000" stroke="none" stroke-width="0" stroke-linecap="butt"/><path d="M279.57282,308.01813c0,3.9162 0.12342,6.99774 -12.40909,7.09091c-15.81105,0.11755 -13.95454,-3.35652 -13.95454,-7.27272c0,-3.9162 6.14724,-6.9091 13.95454,-6.9091c7.8073,0 12.40909,3.17471 12.40909,7.09091z" fill="#ffffff" stroke="#e5e5e5" stroke-width="1.5" stroke-linecap="butt"/><path d="M254.20919,306.74541c0,3.9162 0.12342,6.99774 -12.40909,7.09091c-15.81105,0.11755 -13.95454,-3.35653 -13.95454,-7.27273c0,-3.9162 6.14724,-6.90909 13.95454,-6.90909c7.8073,0 12.40909,3.17471 12.40909,7.09091z" fill="#ffffff" stroke="#e5e5e5" stroke-width="1.5" stroke-linecap="butt"/><path d="M240.15002,252.83261v-42.8h29.9v11.09837c-1.13575,-2.72695 -4.2099,-3.96912 -6.64522,-2.78139c-1.21404,-0.22342 -2.52829,-0.1566 -3.81236,0.23704c-1.70804,0.52361 -2.1859,4.61949 -2.35137,5.56169c-1.01703,5.79114 4.28059,10.02341 8.64748,6.69173c1.61749,-0.527 3.19088,-1.99473 4.16147,-4.54478v26.53733z" fill="#000000" stroke="#000000" stroke-width="3.5" stroke-linecap="butt"/><path d="M249.48948,227.71746c-1.00191,0.22265 -1.85975,0.02517 -2.51204,-0.40283c-0.40382,-0.19305 -0.73712,-0.49158 -0.94617,-0.90967c-0.08213,-0.16427 -0.14585,-0.31833 -0.19326,-0.46324c-0.55952,-1.33078 -0.13041,-2.96754 1.75731,-3.4608c0.20049,-2.31435 0.0135,-4.64631 -0.00155,-6.96936c-0.00483,-0.74432 -1.03989,-4.15524 -0.23022,-4.61791l1.29272,-0.73869c0.73362,0.41922 1.19079,1.04244 1.47511,1.77355c0.40202,1.03373 0.4585,2.28313 0.46239,3.47645c0.00826,2.53676 -0.18057,5.24272 0.60605,7.6341c1.78949,1.26665 1.87185,3.8558 -1.41855,4.6784z" fill="#ffffff" stroke="none" stroke-width="0.5" stroke-linecap="butt"/><path d="M262.3293,211.68062c0.38053,2.14616 0.63544,4.38141 0.59504,6.59637c-1.07632,-0.1278 -2.21552,-0.03259 -3.3319,0.30964c-0.03114,0.00955 -0.06187,0.02028 -0.09219,0.03216c-0.03702,-2.15937 -0.09397,-4.1124 -0.09397,-6.22147c-0.04066,-0.13617 -0.0625,-0.28046 -0.0625,-0.42985c0,-0.82843 0.67157,-1.5 1.5,-1.5c0.33883,0 0.65141,0.11234 0.90255,0.3018c0.28788,0.18382 0.50731,0.48459 0.58298,0.91135z" fill="#ffffff" stroke="none" stroke-width="0.5" stroke-linecap="butt"/><path d="M282.62502,185.57288c0,14.77071 -12.14427,26.74474 -27.125,26.74474c-14.98073,0 -27.125,-11.97403 -27.125,-26.74474c0,-14.77071 12.14427,-26.74474 27.125,-26.74474c14.98073,0 27.125,11.97403 27.125,26.74474z" fill="#000000" stroke="#ffffff" stroke-width="3.5" stroke-linecap="butt"/><path d="M212.15002,236.07612l26.7,-28.41986l0.7,16.95771l-14.4,16.01561l4.43853,45.13527c0,0 -7.00117,1.25453 -10.13857,1.25377c-2.99341,-0.00073 -8.27417,-1.25826 -8.27417,-1.25826z" fill="#000000" stroke="#ffffff" stroke-width="3" stroke-linecap="butt"/><path d="M234.55002,303.35625c0,0 3.02684,-14.92268 3.85584,-23.02498c0.92675,-9.05766 1.44416,-28.77502 1.44416,-28.77502h11.7l18.25118,-0.09938c0,0 2.29283,21.53305 3.51494,30.95565c1.02684,7.91702 3.3344,21.85353 3.3344,21.85353l-14.55163,-0.0935c0,0 -0.34334,-10.65396 -0.78272,-20.81917c-0.27689,-6.40589 -0.86991,-12.07509 -2.06752,-16.46952c-2.3089,-8.47207 -7.34543,-5.59155 -7.76219,-1.39079c-0.23062,2.32447 0.2014,10.10864 1.07999,19.72513c0.70918,7.76231 1.88356,17.93804 1.88356,17.93804z" fill="#000000" stroke="#ffffff" stroke-width="3.5" stroke-linecap="butt"/><path d="M254.37502,260.19272l-0.5,-7.41667" fill="none" stroke="#ffffff" stroke-width="3.5" stroke-linecap="round"/><path d="M248.35866,232.29072c-0.42374,1.55374 0.96866,4.29751 0.13,5.76516c-0.94659,1.65653 -5.65121,-2.44305 -5.25423,-5.10617c0.42459,-2.84824 5.03119,-3.50213 5.03119,-0.81406z" fill="#ffffff" stroke="none" stroke-width="0.5" stroke-linecap="butt"/><path d="M253.83323,231.51428c0.28066,1.12264 -1.2983,7.30355 -3.03775,6.81433c-1.33173,-0.37455 -2.23238,-5.89619 -1.16165,-7.34347c0.11185,-0.15118 0.39691,-0.39315 0.54734,-0.35213c0.08011,-0.02068 0.16411,-0.03168 0.25068,-0.03168c0.03275,0 0.06512,0.00158 0.09706,0.00465c0.66397,0.01687 3.04878,-0.11389 3.30433,0.9083z" fill="#ffffff" stroke="none" stroke-width="0.5" stroke-linecap="butt"/><path d="M262.02436,232.27758c1.39813,0.79894 1.16825,6.58836 -0.85791,6.08182c-1.82006,-0.45502 -3.84856,-4.63831 -3.43415,-6.29595c0.20215,-0.80858 1.0462,-1.09203 1.92726,-1.06145c0.65909,0.48953 1.4086,0.81902 2.20192,0.94982z" fill="#ffffff" stroke="none" stroke-width="0.5" stroke-linecap="butt"/><path d="M267.84093,233.6767c-0.02654,1.72239 -2.85887,6.38663 -4.52529,5.43438c-1.09876,-0.62787 0.38893,-5.19831 0.38893,-6.4753c-0.16907,-0.17909 -0.27273,-0.42062 -0.27273,-0.68635c0,-0.00056 0,-0.00112 0,-0.00168c0.82036,-0.13866 1.65425,-0.49547 2.45671,-1.10769c0.1415,-0.0461 0.28266,-0.09941 0.42311,-0.16c0.85559,0.47163 1.55205,1.51825 1.52927,2.99666z" fill="#ffffff" stroke="none" stroke-width="0.5" stroke-linecap="butt"/><path d="M247.66003,242.14285c1.31694,0.52677 3.67001,6.82212 1.22636,6.82212c-1.39422,0 -4.89134,-4.27773 -4.57624,-5.53812c0.22328,-0.89311 2.48159,-2.6957 3.26363,-1.32712z" fill="#ffffff" stroke="none" stroke-width="0.5" stroke-linecap="butt"/><path d="M251.20457,240.99907c5.77594,-1.44398 3.39697,6.95257 0.13637,7.60227c-0.8895,0.17724 -1.50288,-3.49117 -1.11164,-5.80038c-0.12954,-0.1686 -0.20655,-0.37966 -0.20655,-0.60871c0,-0.51279 0.38597,-0.93543 0.88324,-0.99326c0.08606,-0.07641 0.17987,-0.13412 0.28177,-0.17051z" fill="#ffffff" stroke="none" stroke-width="0.5" stroke-linecap="butt"/><path d="M263.55354,248.09401c-0.86425,1.29637 -1.81488,0.72289 -2.61243,-0.47538c-0.99245,-0.66329 -1.89276,-1.83624 -1.91836,-2.74456c-0.01732,-0.61443 0.05849,-1.147 0.20047,-1.59848c-0.07825,-0.40287 -0.10816,-0.72586 -0.0797,-0.91679c0.30948,-2.07614 3.36265,-2.4147 3.87923,-0.34838v0.71101c0.0587,0.22275 0.09091,0.47286 0.09091,0.75017l0.06106,0.11447c0.41561,1.66245 0.47177,2.7849 0.30148,3.49895c0.2422,0.31303 0.321,0.64351 0.07735,1.00898z" fill="#ffffff" stroke="none" stroke-width="0.5" stroke-linecap="butt"/><path d="M268.07651,242.41778c1.34958,0.77119 -2.2729,6.57084 -3.27909,5.99588c-0.82926,-0.47386 -1.2047,-3.6673 -0.84526,-5.74708c-0.01333,-0.06512 -0.02033,-0.13254 -0.02033,-0.20161c0,-0.24234 0.08621,-0.46454 0.22962,-0.63762c0.16349,-0.46651 0.38792,-0.801 0.67947,-0.91919c1.02268,-0.41458 3.22727,0.13995 3.22727,1.49656z" fill="#ffffff" stroke="none" stroke-width="0.5" stroke-linecap="butt"/><path d="M248.64288,183.62997c0,5.32122 -4.12537,9.63492 -9.21428,9.63492c-5.08891,0 -9.21429,-4.3137 -9.21429,-9.63492c0,-5.32122 3.60277,-12.83305 9.21429,-8.97315c7.83977,5.39261 9.21428,3.65193 9.21428,8.97315z" fill="#ff4c4c" stroke="#000000" stroke-width="1.5" stroke-linecap="butt"/><path d="M243.61994,187.46106c-1.84285,2.24263 -5.21703,2.51556 -7.53646,0.6096c-2.31943,-1.90596 -2.70578,-5.26905 -0.86293,-7.51167c1.84285,-2.24263 5.21704,-2.51556 7.53647,-0.6096c1.27221,1.04541 -2.59262,4.42657 -2.59262,4.42657c0,0 4.2876,2.07256 3.45556,3.0851z" fill="#000000" stroke="#000000" stroke-width="1.5" stroke-linecap="butt"/><path d="M299.61666,288.78665c0,0 -5.28076,1.25753 -8.27417,1.25826c-3.1374,0.00076 -10.13857,-1.25377 -10.13857,-1.25377l4.43853,-45.13527l-14.4,-16.01561l0.7,-16.95771l26.7,28.41986z" data-paper-data="{&quot;index&quot;:null}" fill="#000000" stroke="#ffffff" stroke-width="3" stroke-linecap="butt"/><path d="M246.25023,201.71492l-4.44574,-3.08827h28.89731l-2.85798,2.09561c0,0 -8.8212,4.23111 -11.27747,4.25007c-2.29623,0.01773 -10.31612,-3.25741 -10.31612,-3.25741z" fill="#ffffff" stroke="#000000" stroke-width="1.5" stroke-linecap="butt"/><path d="M268.3856,199.28843l-7.05889,2.2059l-5.29416,-0.99265l-3.75003,0.88236l-8.60301,-1.87502" fill="none" stroke="#000000" stroke-width="1.5" stroke-linecap="round"/><path d="M267.41431,233.1093c0.26316,0.92107 0.52632,1.84213 0.78949,2.7632c0,0 0.25388,0.88857 -0.04781,1.78268c0.14964,2.24142 -0.04375,4.54193 -0.04375,6.07818v0.59211c0,0 0,2.3261 -2.13932,2.69965l0.4199,1.36467c0.09111,0.27342 0.14045,0.56593 0.14045,0.86997c0,1.51878 -1.23122,2.75 -2.75,2.75c-1.1934,0 -2.20925,-0.76018 -2.58975,-1.82273l-0.96381,-2.50591l0.17042,-0.06555l-0.03474,-0.11291l0.25434,-0.07826c-0.08095,-0.11277 -0.16024,-0.226 -0.23786,-0.33978l-0.10751,0.01821c-0.00062,-0.06003 -0.00184,-0.12112 -0.00361,-0.18319c-1.63042,-2.45214 -2.48795,-5.17054 -2.39538,-8.9241c0.03035,-1.23079 0.11031,-2.87905 0.62615,-4.29513c-0.901,-0.39745 -1.74239,-0.9825 -2.48053,-1.73991c-2.41738,-2.48047 -1.69834,-6.49236 -1.69834,-9.54328c0,0 0,-2.75 2.75,-2.75c0.19363,0 0.37362,0.01363 0.54094,0.03898c1.89803,-2.88787 4.85262,-3.61966 8.62166,-1.99321c1.29441,0.55858 2.87818,0.91185 3.69212,2.06293c2.85197,4.03326 -0.18497,7.95657 -2.685,10.75899c-0.13979,0.1567 -0.26937,0.32551 -0.39337,0.50079zM261.81066,228.42935c1.23549,-0.80495 2.63451,-2.62691 3.00414,-3.1405c0.45143,-0.62725 1.3408,-1.74482 0.71923,-2.20403c-0.78356,-0.57889 -1.74901,-0.95067 -2.71399,-1.08442c-1.2156,-0.16849 -1.83126,4.79282 -1.57849,5.41347c0.14583,0.35807 0.34262,0.69359 0.56911,1.01548z" fill="#8b0000" stroke="none" stroke-width="0.5" stroke-linecap="butt"/><path d="M227.07217,277.29971c2.75,0 2.75,2.75 2.75,2.75l-0.3287,2.09326c-0.71155,1.14941 -1.08431,2.59721 -2.13464,3.44824c-0.91434,0.74084 -2.26864,0.63258 -3.37988,1.0199c-3.67109,1.27955 -5.63717,1.3339 -9.44383,0.28805c-1.40038,-0.38474 -3.25175,-0.17205 -4.15559,-1.30878c-0.9952,-1.25163 -0.4419,-3.16745 -0.66284,-4.75118c0,0 0,-2.75 2.75,-2.75c2.75,0 2.75,2.75 2.75,2.75c-0.22095,0.38999 -0.85726,0.76609 -0.66284,1.16996c0.15985,0.33206 0.6076,-0.52647 0.97607,-0.51929c3.26963,0.06368 7.62846,2.04279 9.12097,-1.95445l-0.3287,0.51429c0,0 0,-2.75 2.75,-2.75z" fill="#8b0000" stroke="none" stroke-width="0.5" stroke-linecap="butt"/><path d="M297.25627,278.03294c2.60888,-0.86963 3.47851,1.73925 3.47851,1.73925l0.33849,1.46174c-0.01603,2.41151 0.29166,6.14004 -1.71569,7.97936c-1.40933,1.29136 -5.97423,1.09032 -7.94232,1.08653c-4.46312,-0.00861 -8.15308,-0.1576 -10.45606,-4.90656c-0.54824,-1.13052 -0.12587,-2.50972 -0.1888,-3.76459c0,0 0,-2.75 2.75,-2.75c2.75,0 2.75,2.75 2.75,2.75c-0.38937,3.63339 2.24478,3.17773 5.14486,3.17114c0.9299,-0.00211 1.86201,-0.05885 2.78969,0.00531c0.50979,0.03526 1.11058,0.61661 1.50502,0.29173c0.37061,-0.30526 -0.09913,-0.95589 -0.11611,-1.43573c-0.02862,-0.80859 -0.01374,-1.61813 -0.0206,-2.4272l-0.05625,0.27751c0,0 -0.86963,-2.60888 1.73925,-3.47851z" fill="#8b0000" stroke="none" stroke-width="0.5" stroke-linecap="butt"/><path d="M278.2977,301.98796c2.73318,0.30369 2.42949,3.03687 2.42949,3.03687l-0.18055,1.47266c-0.00104,1.5806 0.17677,5.96996 -0.74193,7.16912c-1.15466,1.50716 -4.85592,2.12374 -6.6449,2.73577c-4.78222,1.63605 -11.70441,2.80561 -16.54791,0.24197c-1.72994,-0.91565 -2.53748,-1.86275 -3.20661,-3.05137c-2.59494,1.83979 -4.45899,1.85135 -8.08912,1.96906c-6.41595,0.20804 -11.54607,0.88747 -17.50011,-2.06533l-2.14408,-3.69097c0,0 -0.93979,-2.58443 1.64464,-3.52423c2.58443,-0.93979 3.52423,1.64464 3.52423,1.64464l-0.56511,0.6512c4.99912,2.52379 9.43896,1.6616 14.86881,1.48736c2.84568,-0.09132 3.77761,0.53722 5.74628,-1.46648c0,0 0.60313,-0.54282 1.44902,-0.71112c0.22693,-0.25283 0.53198,-0.48878 0.93714,-0.69135c2.45967,-1.22984 3.68951,1.22984 3.68951,1.22984c0.38175,0.80045 1.00928,2.82246 2.14587,3.32001c3.77779,1.65375 8.6517,0.71034 12.26833,-0.54752c0.91053,-0.31668 1.83591,-0.60306 2.78057,-0.79536c0.40267,-0.08197 0.96736,0.29231 1.23259,-0.02156c0.23343,-0.27625 -0.31296,-0.66841 -0.34516,-1.02864c-0.08474,-0.9479 -0.00135,-1.90336 -0.00203,-2.85504l0.21419,-2.08003c0,0 0.30369,-2.73318 3.03687,-2.42949z" fill="#8b0000" stroke="none" stroke-width="0.5" stroke-linecap="butt"/><path d="M245.18923,201.30241c0.13229,1.49051 1.06189,3.27825 0.17788,4.48558c-4.71689,6.44202 -6.63525,2.81903 -8.51817,-1.41431c-1.0001,-2.24852 -0.93185,-6.01802 -1.42056,-8.45702c0,0 -0.06301,-0.31503 -0.03827,-0.75127c-0.12498,0.00199 -0.25001,-0.00407 -0.37514,-0.02058c-1.08937,-0.14372 -2.0529,-0.78429 -3.07935,-1.17644l-1.97878,-1.19332c0,0 -2.332,-1.4575 -0.8745,-3.78949c1.4575,-2.332 3.78949,-0.8745 3.78949,-0.8745l1.17917,0.78039c2.48483,1.19518 4.55083,0.25417 7.3538,1.067c0.65631,0.19032 1.98452,1.49064 1.88099,0.81519c-0.06025,-0.39307 -0.27381,-0.74671 -0.41071,-1.12007c0,0 0,-2.75 2.75,-2.75c2.75,0 2.75,2.75 2.75,2.75c-0.1369,1.3372 0.3983,2.93812 -0.41071,4.01159c-1.53182,2.03256 -2.83527,2.56118 -4.13143,2.4869c0.53168,1.66805 1.18695,3.24243 1.35628,5.15035z" fill="#8b0000" stroke="none" stroke-width="0.5" stroke-linecap="butt"/></g></g></svg>