<svg version="1.1" xmlns="http://www.w3.org/2000/svg" xmlns:xlink="http://www.w3.org/1999/xlink" width="185.94665" height="282.46793" viewBox="0,0,185.94665,282.46793"><g transform="translate(-97.13411,-7.38489)"><g data-paper-data="{&quot;isPaintingLayer&quot;:true}" fill-rule="nonzero" stroke-linejoin="miter" stroke-miterlimit="10" stroke-dasharray="" stroke-dashoffset="0" style="mix-blend-mode: normal"><path d="M100.38411,102.43564v-91.80075h92.74714v91.80075l0.07361,20.10873l-24.77163,-20.10873z" fill="#2e2e2e" stroke="#161616" stroke-width="6.5" stroke-linecap="butt"/><text transform="translate(105.88209,24.56818) scale(0.29882,0.29882)" font-size="40" xml:space="preserve" fill="#ffffff" fill-rule="nonzero" stroke="none" stroke-width="1" stroke-linecap="butt" stroke-linejoin="miter" stroke-miterlimit="10" stroke-dasharray="" stroke-dashoffset="0" font-family="Sans Serif" font-weight="normal" text-anchor="start" style="mix-blend-mode: normal"><tspan x="0" dy="0">Let's take </tspan><tspan x="0" dy="48px">notes!</tspan></text><g><path d="M221.49964,220.3079l0.40365,-61.75868h39.55785l1.61461,62.96964z" fill="#f1ecec" stroke="#a5a5a5" stroke-width="1" stroke-linecap="butt"/><path d="M241.48039,220.50972l-1.81643,-61.75868" fill="none" stroke="#474747" stroke-width="1" stroke-linecap="round"/><path d="M270.99204,162.27685l4.73811,-74.79434l1.35375,-0.33844l2.36905,68.7025z" fill="#ffb935" stroke="#a77923" stroke-width="2" stroke-linecap="butt"/><path d="M207.02765,156.86187l15.22962,-69.7178h53.81132l-4.73811,75.47122z" fill="#ffb935" stroke="#a77923" stroke-width="2" stroke-linecap="butt"/><path d="M275.39171,140.95539l-0.67687,18.27554" fill="none" stroke="#a77923" stroke-width="2" stroke-linecap="round"/><path d="M276.40702,117.60331v16.92179" fill="none" stroke="#a77923" stroke-width="2" stroke-linecap="round"/><path d="M277.76076,141.29382l1.0153,13.87587" fill="none" stroke="#a77923" stroke-width="2" stroke-linecap="round"/><path d="M246.00439,140.21365c0,0 -4.9149,1.19922 -7.52874,1.07789c-1.82088,-0.08453 -6.65426,-1.73628 -6.65426,-1.73628" fill="none" stroke="#000000" stroke-width="1.5" stroke-linecap="round"/><path d="M246.32421,137.35751l1.00913,4.84382" fill="none" stroke="#000000" stroke-width="1.5" stroke-linecap="round"/><path d="M231.79275,137.96299l-1.21096,3.83469" fill="none" stroke="#000000" stroke-width="1.5" stroke-linecap="round"/><g stroke="#000000" stroke-linecap="butt"><path d="M239.7298,118.61073c-1.07766,5.88333 -6.44731,9.82917 -11.99345,8.81327c-5.54614,-1.0159 -9.16855,-6.60883 -8.09089,-12.49216c1.07766,-5.88333 6.44731,-9.82916 11.99345,-8.81327c5.54614,1.0159 9.16855,6.60883 8.09089,12.49216z" fill="#ffffff" stroke-width="1"/><path d="M235.32893,112.21945c2.54021,0.90294 2.22593,4.52938 1.03305,6.66392c-1.61382,2.88776 -8.55027,5.25086 -8.55027,5.25086c0,0 -6.16769,-5.53438 -5.42903,-9.56695c0.37461,-2.04513 2.97797,-4.44583 4.24191,-3.50356c1.22828,0.91569 3.38338,5.56106 3.38338,5.56106c0,0 2.78076,-5.30827 5.32097,-4.40533z" fill="#000000" stroke-width="0"/></g><path d="M269.95802,119.17057c-1.07766,5.88333 -6.44731,9.82917 -11.99345,8.81327c-5.54614,-1.0159 -9.16855,-6.60883 -8.09089,-12.49216c1.07766,-5.88333 6.44731,-9.82916 11.99345,-8.81327c5.54614,1.0159 9.16855,6.60883 8.09089,12.49216z" fill="#ffffff" stroke="#000000" stroke-width="1" stroke-linecap="butt"/><path d="M251.64146,104.43545l0.24691,-0.61275l19.30116,0.36857l-0.24691,0.61275z" fill="#000000" stroke="none" stroke-width="NaN" stroke-linecap="butt"/><path d="M221.52378,103.39255l0.24691,-0.67237l19.30115,0.40443l-0.2469,0.67237z" fill="#000000" stroke="none" stroke-width="NaN" stroke-linecap="butt"/><g fill="#000000" stroke="#000000" stroke-width="0.5" stroke-linecap="butt"><path d="M253.38811,121.28557l6.36854,-10.56906l0.1355,0.1355l6.23303,10.43356z"/><path d="M266.17022,114.00212l-6.24931,10.63999l-0.13702,-0.13397l-6.34994,-10.36283z"/></g><path d="M244.07379,213.54674c0,1.39332 -1.17469,2.52282 -2.62373,2.52282c-1.44905,0 -2.62373,-1.12951 -2.62373,-2.52282c0,-1.39332 1.17469,-2.52282 2.62373,-2.52282c1.44905,0 2.62373,1.12951 2.62373,2.52282z" fill="#2f2f2f" stroke="none" stroke-width="0" stroke-linecap="butt"/><path d="M243.46613,202.73025c0,1.39331 -1.17468,2.52282 -2.62373,2.52282c-1.44905,0 -2.62374,-1.12951 -2.62374,-2.52282c0,-1.39331 1.17469,-2.52282 2.62374,-2.52282c1.44905,0 2.62373,1.1295 2.62373,2.52282z" fill="#2f2f2f" stroke="none" stroke-width="0" stroke-linecap="butt"/><path d="M242.85846,190.61969c0,1.39331 -1.17468,2.52282 -2.62373,2.52282c-1.44905,0 -2.62374,-1.12951 -2.62374,-2.52282c0,-1.39331 1.17469,-2.52282 2.62374,-2.52282c1.44905,0 2.62373,1.1295 2.62373,2.52282z" fill="#2f2f2f" stroke="none" stroke-width="0" stroke-linecap="butt"/><path d="M242.96973,179.37184c0,1.39331 -1.17468,2.52282 -2.62373,2.52282c-1.44905,0 -2.62374,-1.12951 -2.62374,-2.52282c0,-1.39331 1.17469,-2.52282 2.62374,-2.52282c1.44905,0 2.62373,1.1295 2.62373,2.52282z" fill="#2f2f2f" stroke="none" stroke-width="0" stroke-linecap="butt"/><path d="M242.36207,169.27429c0,1.39331 -1.17469,2.52282 -2.62374,2.52282c-1.44905,0 -2.62374,-1.12951 -2.62374,-2.52282c0,-1.39331 1.17469,-2.52282 2.62374,-2.52282c1.44905,0 2.62374,1.1295 2.62374,2.52282z" fill="#2f2f2f" stroke="none" stroke-width="0" stroke-linecap="butt"/><g fill="#3c3c3c" stroke="#2c2c2c" stroke-width="0.5" stroke-linecap="butt"><path d="M242.19144,162.51203l-0.05379,-2.9247l3.99147,-2.96547l1.4541,7.43775z" data-paper-data="{&quot;index&quot;:null}"/><path d="M232.2137,163.70184l1.67882,-6.74213l3.58498,2.90449l-0.17806,2.67568z"/><path d="M242.16229,158.73614c1.03133,1.33725 0.76666,3.27022 -0.59116,4.31741c-1.35782,1.0472 -3.29461,0.81207 -4.32594,-0.52518c-1.03133,-1.33725 -0.76666,-3.27022 0.59116,-4.31741c1.35782,-1.0472 3.29461,-0.81207 4.32594,0.52518z"/></g><path d="M220.45727,230.87298v-11.93426h44.71752v11.93426l4.02187,54.23513l-16.2437,-0.02773l-1.0065,-54.35119c0,0 -5.58408,-0.86272 -8.62717,-0.86272c-2.99517,0 -8.91475,1.0065 -8.91475,1.0065l1.4511,53.71194l-13.52914,-0.94239z" fill="#333333" stroke="#2c2c2c" stroke-width="1" stroke-linecap="butt"/><path d="M218.15669,222.81231v-3.1633h49.31868v3.1633z" fill="#151515" stroke="#191919" stroke-width="0.5" stroke-linecap="butt"/><path d="M221.89513,224.10639v-5.60766h2.44437v5.60766z" fill="#333333" stroke="#2c2c2c" stroke-width="1" stroke-linecap="butt"/><path d="M240.29977,224.25018v-5.89524h2.58815v5.89524z" fill="#333333" stroke="#2c2c2c" stroke-width="1" stroke-linecap="butt"/><path d="M261.8677,223.9626v-5.60766h2.44437v5.60766z" fill="#333333" stroke="#2c2c2c" stroke-width="1" stroke-linecap="butt"/><path d="M221.07163,288.23505v-3.1633h15.40057v3.1633z" fill="#0a0a0a" stroke="#0c0c0c" stroke-width="1" stroke-linecap="butt"/><path d="M238.71812,284.71229c0,1.94557 -4.34533,3.52276 -9.70557,3.52276c-5.36024,0 -9.70557,-1.57719 -9.70557,-3.52276c0,-1.94557 4.34533,-3.52276 9.70557,-3.52276c5.36024,0 9.70557,1.57719 9.70557,3.52276z" fill="#0a0a0a" stroke="#0c0c0c" stroke-width="1" stroke-linecap="butt"/><path d="M253.67858,289.35282v-3.1633h15.40058v3.1633z" fill="#0a0a0a" stroke="#0c0c0c" stroke-width="1" stroke-linecap="butt"/><path d="M271.32508,285.83006c0,1.94557 -4.34534,3.52276 -9.70557,3.52276c-5.36024,0 -9.70557,-1.57719 -9.70557,-3.52276c0,-1.94557 4.34533,-3.52277 9.70557,-3.52277c5.36024,0 9.70557,1.5772 9.70557,3.52277z" fill="#0a0a0a" stroke="#0c0c0c" stroke-width="1" stroke-linecap="butt"/><g stroke-linecap="butt"><path d="M214.13067,236.36141c0,1.8062 0.91025,6.92313 0.26316,8.26054c-0.35462,0.73294 -2.08239,-2.08369 -2.57531,-1.57917c-0.80236,0.82124 -3.05572,3.74313 -4.08634,3.74313c-2.2627,0 -3.34786,-4.164 -3.68807,-7.97305c-0.08365,-0.93663 -0.12227,-1.58161 -0.12227,-2.45145c0,-4.40731 2.28532,-7.98014 5.10441,-7.98014c2.81909,0 5.10441,3.57283 5.10441,7.98014z" fill="#ffb935" stroke="#a77923" stroke-width="2"/><path d="M202.87498,232.15046c0,0 -0.1849,-19.49924 1.21054,-30.4039c1.71257,-13.38293 8.30968,-43.99212 8.30968,-43.99212l10.97816,1.4349c0,0 -6.81486,30.72389 -8.41851,44.22695c-1.22957,10.35324 -0.38277,29.8815 -0.38277,29.8815z" fill="#f1ecec" stroke="#a5a5a5" stroke-width="1"/><path d="M201.3337,233.98893v-3.45087h14.95377v3.45087z" fill="#f1ecec" stroke="#a5a5a5" stroke-width="1"/></g><g data-paper-data="{&quot;index&quot;:null}" stroke-linecap="butt"><path d="M274.8882,232.51856c2.81909,0 5.10441,3.57283 5.10441,7.98013c0,0.86984 -0.03861,1.51482 -0.12226,2.45145c-0.3402,3.80905 -1.42537,7.97305 -3.68807,7.97305c-1.03062,0 -3.28397,-2.92188 -4.08633,-3.74313c-0.49292,-0.50452 -2.22069,2.31211 -2.57531,1.57917c-0.64709,-1.33742 0.26316,-6.45434 0.26316,-8.26054c0,-4.40731 2.28532,-7.98013 5.10441,-7.98013z" fill="#ffb935" stroke="#a77923" stroke-width="2"/><path d="M269.34239,237.43508c0,0 0.84681,-19.52825 -0.38277,-29.8815c-1.60366,-13.50306 -8.41851,-44.22694 -8.41851,-44.22694l10.97816,-1.4349c0,0 6.59711,30.60919 8.30968,43.99212c1.39544,10.90466 1.21054,30.4039 1.21054,30.4039z" fill="#f1ecec" stroke="#a5a5a5" stroke-width="1"/><path d="M267.627,238.12622v-3.45087h14.95377v3.45087z" fill="#f1ecec" stroke="#a5a5a5" stroke-width="1"/></g></g></g></g></svg>