<svg version="1.1" xmlns="http://www.w3.org/2000/svg" xmlns:xlink="http://www.w3.org/1999/xlink" width="168.39784" height="152.30224" viewBox="0,0,168.39784,152.30224"><g transform="translate(-201.98711,-211.44577)"><g data-paper-data="{&quot;isPaintingLayer&quot;:true}" fill-rule="nonzero" stroke-linejoin="miter" stroke-miterlimit="10" stroke-dasharray="" stroke-dashoffset="0" style="mix-blend-mode: normal"><path d="M231.32374,260.7155l-21.92634,75.50779l-5.66029,0.77683" fill="none" stroke="#000000" stroke-width="3.5" stroke-linecap="round"/><path d="M253.55202,345.46319l-6.85714,-2.71429c0,0 13.59163,-1.93288 13.6385,-12.38499c0.04832,-10.77609 -14.35279,-17.3293 -14.35279,-17.3293" fill="none" stroke="#000000" stroke-width="3.5" stroke-linecap="round"/><path d="M362.77112,290.66908c3.00675,0.84099 9.4319,6.49234 4.64843,10.74885c-10.02433,8.92 -36.43224,21.88062 -46.93863,17.69418c-15.5199,-6.18416 -24.5032,-20.13811 -20.92559,-29.11656c3.57761,-8.97845 16.70635,2.95893 32.22624,9.14309c15.5199,6.18416 19.91581,-11.56685 30.98955,-8.46955z" fill="#c00000" stroke="#a30000" stroke-width="2.5" stroke-linecap="butt"/><path d="M340.14797,305.50886c-14.7784,2.85035 -23.24583,0.76848 -37.90455,-7.31161c-3.14267,-1.73229 -57.84151,22.82769 -60.40625,11.92556c-2.3601,-10.03223 -4.27915,-17.81947 -5.47279,-25.057c-1.66501,-10.09558 -2.43588,-19.51409 -3.89261,-27.06689c-1.61986,-8.39858 47.83142,-8.82587 54.65975,-16.70597c10.63389,-12.27184 17.95445,-24.48699 35.26416,-27.82557c25.85226,-4.9862 36.39527,14.86022 41.29743,40.27676c4.90216,25.41655 2.30713,46.7785 -23.54513,51.7647z" fill="#c00000" stroke="#a30000" stroke-width="2.5" stroke-linecap="butt"/><path d="M230.83396,257.95534c0,0 1.12176,-4.52645 4.93966,-5.94117c7.97374,-2.95467 22.84442,-4.23773 29.70439,-5.84638c7.07844,-1.65987 18.62059,-5.10556 18.62059,-5.10556l12.78846,58.38465c0,0 -4.40011,1.66364 -10.05641,4.02389c-5.61021,2.34101 -12.44673,5.37376 -19.75611,6.58886c-7.30421,1.21424 -16.92062,3.30988 -20.06711,3.54945c-3.94102,0.30006 -7.21279,-3.91443 -7.21279,-3.91443c0,0 -3.79549,-14.8259 -5.65079,-25.40634c-1.03402,-5.89686 -3.30989,-26.33297 -3.30989,-26.33297z" fill="#ededed" stroke="#e0e0e0" stroke-width="2.5" stroke-linecap="butt"/><path d="M310.5257,266.48022l36.91803,-32.28879l8.99567,46.64041l-46.22883,-14.29084z" fill="#ffffff" stroke="none" stroke-width="0" stroke-linecap="butt"/><text transform="translate(326.13542,254.59611) rotate(79.08309) scale(0.62386,0.62386)" font-size="40" xml:space="preserve" fill="#c00000" fill-rule="nonzero" stroke="none" stroke-width="1" stroke-linecap="butt" stroke-linejoin="miter" stroke-miterlimit="10" stroke-dasharray="" stroke-dashoffset="0" font-family="Sans Serif" font-weight="normal" text-anchor="start" style="mix-blend-mode: normal"><tspan x="0" dy="0">B</tspan></text><g stroke-linecap="butt"><path d="M316.07123,253.14077c-8.13021,1.91764 -16.35271,-3.44546 -18.36544,-11.97883c-2.01274,-8.53337 2.94646,-17.00558 11.07667,-18.92322c8.13021,-1.91764 16.3527,3.44546 18.36543,11.97882c2.01274,8.53337 -2.94646,17.00558 -11.07667,18.92323z" fill="#ffffff" stroke="#000000" stroke-width="2"/><path d="M319.51624,246.12837c-5.46919,1.29 -10.98102,-2.23538 -12.31102,-7.87415c-1.00079,-4.24304 0.10973,-8.02177 3.31921,-10.40581c1.05574,-0.78422 6.42067,7.37916 6.42067,7.37916c0,0 1.82882,-9.46751 3.25008,-9.15115c3.75258,0.83531 5.85106,3.41649 6.81571,7.50629c1.32999,5.63878 -2.02547,11.25567 -7.49466,12.54566z" fill="#000000" stroke="none" stroke-width="0"/></g><path d="M320.10393,221.45449c0,0 3.01477,0.8865 4.15685,2.64384c1.31487,2.02321 3.39562,9.62161 3.39562,9.62161l0.13518,0.28616c0,0 0.42405,7.93797 -0.18365,11.1406c-0.56529,2.97909 -3.96062,7.19606 -3.96062,7.19606z" fill="#c00000" stroke="#a30000" stroke-width="2.5" stroke-linecap="butt"/><g stroke-linecap="butt"><path d="M327.83386,306.20676c-8.13021,1.91765 -16.3527,-3.44545 -18.36544,-11.97881c-2.01274,-8.53337 2.94646,-17.00558 11.07667,-18.92323c8.13021,-1.91764 16.3527,3.44546 18.36543,11.97882c2.01273,8.53336 -2.94646,17.00558 -11.07667,18.92323z" fill="#ffffff" stroke="#000000" stroke-width="2"/><path d="M331.52888,300.19436c-5.46919,1.29 -10.98102,-2.23538 -12.31101,-7.87416c-1.00079,-4.24304 0.10972,-8.02177 3.31921,-10.4058c1.05574,-0.78422 6.42068,7.37916 6.42068,7.37916c0,0 1.82882,-9.46752 3.25008,-9.15115c3.75258,0.83531 5.85107,3.41649 6.81571,7.50629c1.32999,5.63878 -2.02547,11.25566 -7.49466,12.54566z" fill="#000000" stroke="none" stroke-width="0"/></g><path d="M329.86657,274.52049c0,0 3.78467,0.8865 5.21842,2.64384c1.65066,2.02321 4.26278,9.62161 4.26278,9.62161l0.1697,0.28618c0,0 0.53235,7.93796 -0.23055,11.1406c-0.70965,2.97909 -4.97207,7.19606 -4.97207,7.19606z" fill="#c00000" stroke="#a30000" stroke-width="2.5" stroke-linecap="butt"/><path d="M303.47091,277.34165c0,0 -4.48235,-3.14365 -5.58564,-5.42975c-0.9457,-1.95956 -0.63446,-7.45884 -0.63446,-7.45884" fill="none" stroke="#000000" stroke-width="2.5" stroke-linecap="round"/><path d="M301.62752,279.22483l5.12222,-3.36427" fill="none" stroke="#000000" stroke-width="2.5" stroke-linecap="round"/><path d="M328.52381,218.02362c0,0 5.8924,7.21839 6.65539,11.31087c0.86383,4.63332 -1.73727,15.06844 -1.73727,15.06844" fill="none" stroke="#000000" stroke-width="3" stroke-linecap="round"/><path d="M344.67863,302.66252c0,0 2.3029,-10.94368 1.43255,-15.61195c-0.75152,-4.03094 -6.35067,-10.76735 -6.35067,-10.76735" fill="none" stroke="#000000" stroke-width="3" stroke-linecap="round"/><g stroke="#000000" stroke-width="3"><path d="M286.4572,241.4949l-11.89308,51.8277" fill="none" stroke-linecap="round"/><path d="M278.40195,298.40874c-0.13218,1.51164 -0.85524,4.28887 -1.51848,5.36538c-0.50664,0.82233 -0.13182,-3.0217 -1.71535,-3.08934c-1.46326,-0.06249 -2.47329,4.03654 -3.19213,3.97368c-2.51513,-0.21992 -3.00858,-3.31273 -2.68214,-7.04613c0.32644,-3.7334 2.63,-6.58163 5.14513,-6.36171c2.51513,0.21992 4.28942,3.42472 3.96298,7.15812z" fill="#000000" stroke-linecap="butt"/></g><g data-paper-data="{&quot;index&quot;:null}" stroke="#000000" stroke-width="3"><path d="M298.17405,301.69222l-19.6562,49.4084" fill="none" stroke-linecap="round"/><path d="M279.79794,349.46657c2.19478,1.24788 2.47239,4.90051 0.62008,8.15839c-1.85233,3.25788 -4.01545,5.52278 -6.21024,4.2749c-0.62728,-0.35664 0.87019,-4.30378 -0.3695,-5.08363c-1.3416,-0.84396 -3.21695,2.53245 -3.16672,1.56788c0.06576,-1.26271 1.04847,-3.95902 1.79847,-5.27812c1.85233,-3.25788 5.13314,-4.8873 7.32793,-3.63943z" fill="#000000" stroke-linecap="butt"/></g></g></g></svg>