<svg version="1.1" xmlns="http://www.w3.org/2000/svg" xmlns:xlink="http://www.w3.org/1999/xlink" width="136.93989" height="230.96512" viewBox="0,0,136.93989,230.96512"><defs><linearGradient x1="302.20086" y1="152.78663" x2="272.04776" y2="220.39649" gradientUnits="userSpaceOnUse" id="color-1"><stop offset="0" stop-color="#b87e5c"/><stop offset="1" stop-color="#b38d76"/></linearGradient><linearGradient x1="335.32803" y1="152.44304" x2="377.07374" y2="213.57895" gradientUnits="userSpaceOnUse" id="color-2"><stop offset="0" stop-color="#b87e5c"/><stop offset="1" stop-color="#b38d76"/></linearGradient><linearGradient x1="304.02008" y1="208.10806" x2="304.02008" y2="282.13713" gradientUnits="userSpaceOnUse" id="color-3"><stop offset="0" stop-color="#b87e5c"/><stop offset="1" stop-color="#b38d76"/></linearGradient><linearGradient x1="319.76812" y1="113.80186" x2="319.76812" y2="138.75045" gradientUnits="userSpaceOnUse" id="color-4"><stop offset="0" stop-color="#97674b"/><stop offset="1" stop-color="#d8bdad"/></linearGradient><linearGradient x1="321.43105" y1="209.4025" x2="336.93022" y2="281.79089" gradientUnits="userSpaceOnUse" id="color-5"><stop offset="0" stop-color="#b87e5c"/><stop offset="1" stop-color="#b38d76"/></linearGradient></defs><g transform="translate(-255.47034,-56.1926)"><g stroke-miterlimit="10"><g stroke="#7e563f" stroke-width="1.5" stroke-linecap="butt"><path d="M272.44474,220.12432c0,0 -12.03808,-3.90406 -11.16001,-5.87287c0.74919,-1.67985 14.34467,-1.26782 15.24144,-3.27859c1.48668,-3.33347 6.79057,-10.12443 9.97152,-18.15688c3.02539,-7.63963 3.88477,-16.42638 7.0459,-23.51434c4.48571,-10.05795 8.88714,-16.4125 8.88714,-16.4125c0,0 3.24967,0.10583 6.67946,1.63547c3.39637,1.51474 4.354,3.2853 4.354,3.2853c0,0 1.43409,-1.70935 -3.43063,19.74169c-2.59208,5.03045 -8.02229,7.08488 -13.4561,17.7426c-6.90252,13.5384 -13.09926,29.75088 -13.09926,29.75088z" fill="url(#color-1)"/><path d="M256.4608,214.56308l0.16659,-0.37353c0,0 3.18761,-3.01063 7.23667,-3.98126c2.76167,-0.66202 8.73348,-1.31445 10.54206,-1.03181c5.40474,0.84464 14.69606,4.49425 14.69606,4.49425l-6.20705,12.68171z" fill="#9a8172"/></g><g stroke="#7e563f" stroke-width="1.5" stroke-linecap="butt"><path d="M366.65757,220.19467c0,0 -8.99322,-14.84473 -18.20316,-26.93233c-7.25026,-9.51561 -12.96013,-10.56696 -16.40914,-15.05346c-8.61841,-20.23698 -6.90204,-18.8113 -6.90204,-18.8113c0,0 0.62594,-1.91316 3.69709,-4.01025c3.10137,-2.11772 6.27986,-2.80236 6.27986,-2.80236c0,0 5.46579,5.46607 11.67607,14.56093c4.37646,6.40925 6.79165,14.90114 11.1331,21.87745c4.56467,7.33501 10.99636,13.06927 13.05461,16.08354c1.24155,1.81822 14.54474,-1.01583 15.58196,0.50317c1.21564,1.78028 -9.93139,7.77199 -9.93139,7.77199z" fill="url(#color-2)"/><path d="M367.4648,221.37684l-8.37263,-11.36892c0,0 8.48991,-5.25068 13.65683,-7.04721c1.729,-0.60117 7.7213,-1.02602 10.55682,-0.86799c4.15733,0.2317 7.83147,2.62449 7.83147,2.62449l0.23064,0.33776z" fill="#9a8172"/></g><g fill="none" stroke="none" stroke-width="1" stroke-linecap="butt" font-family="sans-serif" font-weight="normal" font-size="12" text-anchor="start"/><path d="M304.27177,281.72686c0,0 -12.58441,1.33775 -12.58441,-0.81799c0,-1.83934 12.58441,-7.00067 12.58441,-9.20235c0,-3.64997 2.07792,-12.01242 1.71131,-20.644c-0.34868,-8.20947 -3.14279,-16.58434 -3.14279,-24.34526c0,-11.0129 1.43148,-18.6092 1.43148,-18.6092h12.08103c0,0 6.95289,-1.94076 5.72591,19.83618c-0.31834,5.65005 -5.25888,9.32914 -5.88047,21.27597c-0.7896,15.17595 0.15456,32.50664 0.15456,32.50664z" fill="url(#color-3)" stroke="#7e563f" stroke-width="1.5" stroke-linecap="butt"/><path d="M287.40866,283.15834v-0.409c0,0 1.68493,-4.04793 4.98755,-6.58364c2.25255,-1.72948 7.44079,-4.75774 9.20767,-5.23627c5.28012,-1.43003 15.25231,-1.88137 15.25231,-1.88137l-0.50338,14.11027z" fill="#9a8172" stroke="#7e563f" stroke-width="1.5" stroke-linecap="butt"/><path d="M330.3253,145.65371c0.76941,-0.40198 1.8828,-0.59801 3.12872,0.39873c2.3426,1.87409 0.46852,4.21669 0.46852,4.21669l-4.31444,1.91763c-1.16582,-0.58309 -2.61792,-0.78722 -3.49747,-1.74926c-1.2963,-1.41787 -2.44279,-7.21287 -2.07581,-8.73003c0.26945,-1.11395 1.76135,-1.52251 2.36165,-2.49879c1.03769,-1.68762 0.33093,-3.95876 1.25101,-5.65336c0.02932,-0.054 0.05899,-0.1078 0.08898,-0.16138l-0.03976,-0.01255l1.20639,-3.82024c0.3627,-1.24893 1.51541,-2.1618 2.88133,-2.1618c0.37829,0 0.74022,0.07002 1.07355,0.1978c0.25065,-0.87979 0.55494,-1.65544 0.79012,-2.1079c0.54282,-1.04432 1.65084,-1.6808 2.41387,-2.57691c0.73582,-0.86416 1.19428,-1.98489 2.07745,-2.69779c0.71536,-0.57743 2.12837,-0.22595 2.55408,-1.04077c0.3641,-0.69688 -1.08533,-1.44074 -0.86349,-2.19506c0.58465,-1.98799 1.34723,-4.07179 2.65564,-5.67517c-0.00014,-1.32249 -0.00025,-4.90662 0.00291,-5.27136l-0.03317,-0.34831c-0.19005,-0.34047 -0.31569,-0.72179 -0.36044,-1.12747l-0.39819,-3.18552c-0.01914,-0.13694 -0.02903,-0.27684 -0.02903,-0.41905c0,-1.65685 1.34314,-3 3,-3c0.07635,0 0.15202,0.00285 0.22694,0.00845l-1.85232,-1.23488c-0.82711,-0.53416 -1.37462,-1.46412 -1.37462,-2.52196c0,-1.06085 0.55063,-1.99309 1.38168,-2.52651c-1.76475,-1.40242 -3.37192,-3.0845 -3.41319,-4.14258c-0.00765,-0.19608 0.04566,-0.35531 0.14484,-0.48679c-1.39738,-2.4727 1.06491,-3.98795 1.06491,-3.98795l2.61806,-1.61111c0.46573,-0.29748 1.01907,-0.46989 1.61269,-0.46989c1.65686,0 3,1.34315 3,3c0,0.68629 -0.23044,1.31876 -0.61818,1.82425l-0.80953,1.07937c0.0043,0.00169 0.00853,0.0035 0.01268,0.00543c1.46303,0.68045 3.04537,1.31802 4.14671,2.49721c1.31793,1.4111 3.60555,3.23671 2.87975,5.02594c-0.33605,0.82842 -1.03983,1.31337 -1.89443,1.65744c1.77215,3.21952 1.27687,8.82581 -1.71479,10.32957c-0.57574,0.28939 -1.19363,0.37338 -1.83391,0.34824c0.20312,1.29997 0.24071,2.79214 0.24071,5.04409v3.68094c0,1.42311 -0.9909,2.61478 -2.32038,2.92269c0.38682,0.91935 0.57396,2.06579 0.02267,3.19047c-0.73674,1.50299 -2.77038,1.90254 -3.98982,3.04915c-1.20488,1.13293 -2.44543,2.29505 -3.27956,3.72315c-1.86138,3.18686 2.03706,10.74148 -5.74792,10.55379c-0.16955,-0.00409 -0.32959,-0.02865 -0.48132,-0.07112c-0.52832,1.74093 -1.13953,3.43318 -1.2429,3.60944c-0.35307,0.60208 -1.47801,0.5306 -1.72827,1.18215c-0.28024,0.72961 0.07393,1.46067 0.60709,2.0229z" fill="#463124" stroke="none" stroke-width="0.5" stroke-linecap="butt"/><path d="M327.67324,195.48244l7.32654,-2.22553c0,0 19.66006,8.53528 25.80956,14.55169c5.49557,5.37663 10.05309,19.74722 10.05309,19.74722c0,0 0.91473,2.23635 1.75282,5.23468c0.86489,3.09422 1.88847,8.22042 1.50054,11.31724c-0.18748,1.49668 -1.8972,-1.40002 -3.09422,-0.87103c-0.54991,0.24302 -0.99985,2.40287 -1.31725,2.96489c-0.49105,0.86951 -1.03619,-0.81086 -1.51233,-1.13807c-0.82044,-0.56384 -1.43298,2.99348 -2.07545,1.00143c-1.0966,-3.40016 -1.98272,-12.79878 -1.98272,-12.79878c0,0 -7.43475,-14.25806 -13.16145,-20.25611c-6.30397,-6.60267 -23.29913,-17.52763 -23.29913,-17.52763z" fill="#463124" stroke="#302219" stroke-width="1.5" stroke-linecap="butt"/><path d="M310.24924,150.50778v-23.19375h18.37757v23.19375z" fill="#b87e5c" stroke="#7e563f" stroke-width="1.5" stroke-linecap="butt"/><path d="M347.2517,101.93643c0,15.89227 -12.4324,32.90192 -27.51627,32.90192c-15.08387,0 -27.10728,-17.00965 -27.10728,-32.90192c0,-15.89227 12.2279,-31.71228 27.31178,-31.71228c15.08387,0 27.31178,15.82001 27.31178,31.71228z" fill="#b87e5c" stroke="#7e563f" stroke-width="1.5" stroke-linecap="butt"/><path d="M333.67389,126.27615c0,6.88936 -6.22582,12.4743 -13.90577,12.4743c-7.67994,0 -13.90578,-5.58493 -13.90578,-12.4743c0,-6.88936 7.11302,-20.20554 14.79296,-20.20554c7.67994,0 13.01858,13.31618 13.01858,20.20555z" fill="url(#color-4)" stroke="#7e563f" stroke-width="1.5" stroke-linecap="butt"/><path d="M330.34797,131.43756c0,3.27527 -6.90869,6.54389 -11.14257,6.54389c-4.23388,0 -9.71109,-3.47312 -9.71109,-6.74839c0,-3.27527 5.47721,-1.63597 9.7111,-1.63597c4.23388,0 11.14257,-1.4348 11.14257,1.84047z" fill="#463124" stroke="#302219" stroke-width="1.5" stroke-linecap="butt"/><path d="M314.17824,133.90461l2.4081,2.02786" fill="none" stroke="#302219" stroke-width="1.5" stroke-linecap="round"/><path d="M322.92343,135.4255l3.0418,-1.64764" fill="none" stroke="#302219" stroke-width="1.5" stroke-linecap="round"/><path d="M300.1099,91.69958l10.26609,-0.25348" fill="none" stroke="#302219" stroke-width="1.5" stroke-linecap="round"/><path d="M330.40119,91.69958l10.39283,-0.38022" fill="none" stroke="#302219" stroke-width="1.5" stroke-linecap="round"/><g stroke="#000000" stroke-width="1" stroke-linecap="butt"><path d="M343.00571,101.04215c0,6.34399 -3.48978,10.25608 -7.79462,10.25608c-4.30485,0 -7.79462,-3.91209 -7.79462,-10.25608c0,-6.34399 3.48977,-7.38438 7.79462,-7.38438c4.30485,0 7.79462,1.04039 7.79462,7.38438z" fill="#ffffff"/><path d="M340.54425,105.00784c0,2.8699 -2.08161,5.19642 -4.64943,5.19642c-2.56781,0 -4.64943,-2.32652 -4.64943,-5.19642c0,-2.8699 2.08161,-5.19642 4.64943,-5.19642c2.56781,0 4.64943,2.32652 4.64943,5.19642z" fill="#000000"/></g><g stroke="#000000" stroke-width="1" stroke-linecap="butt"><path d="M313.02497,101.09922c0,6.34399 -3.48978,10.25608 -7.79462,10.25608c-4.30485,0 -7.79462,-3.91209 -7.79462,-10.25608c0,-6.34399 3.48977,-7.38438 7.79462,-7.38438c4.30485,0 7.79462,1.04039 7.79462,7.38438z" fill="#ffffff"/><path d="M310.56351,105.06491c0,2.8699 -2.08161,5.19642 -4.64943,5.19642c-2.56781,0 -4.64943,-2.32652 -4.64943,-5.19642c0,-2.8699 2.08161,-5.19642 4.64943,-5.19642c2.56781,0 4.64943,2.32652 4.64943,5.19642z" fill="#000000"/></g><g stroke-linecap="butt"><path d="M296.08051,85.794c0,0 -5.61253,-3.49492 -6.85246,-7.49533c-1.08994,-3.51646 -0.19536,-15.243 -0.19536,-15.243l2.01367,-5.01812c0,0 7.55476,8.1896 9.4061,11.74713c1.97607,3.79719 2.10056,10.36395 2.10056,10.36395z" fill="#997764" stroke="#4e3527" stroke-width="1.5"/><path d="M293.72554,67.77815c0.29309,-0.06574 0.58619,-0.13148 0.87929,-0.19722c0,0 0.97618,-0.21693 1.19311,0.75925c0.21693,0.97619 -0.75925,1.19312 -0.75925,1.19312c-0.06959,0.0153 -0.13918,0.0306 -0.20877,0.04591l0.31872,0.31873l-0.13915,0.13915c0.11723,0.34857 0.19896,0.72747 0.25659,1.12028c0.39661,0.13273 0.68243,0.50724 0.68243,0.94852c0,0.33133 -0.16114,0.62501 -0.40931,0.80698l-0.1365,0.10238c0.01267,0.48134 0.01579,0.94586 0.02975,1.36422c0.02566,0.76859 1.51371,0.70038 1.8341,1.39948c0.15859,0.34604 -0.08761,0.77114 -0.40883,1.18987c0.05072,0.40688 -0.02744,0.74072 -0.13533,0.99634l0.05358,0.01065c-0.11685,0.21202 -0.22458,0.44824 -0.30595,0.69373l0.01451,0.02572c0.4797,0.05313 1.08448,-0.04612 1.15395,0.35956c0.24244,1.41576 -0.40037,1.99127 -1.25312,2.26188l0.02429,0.04858l-0.99594,0.49797c-0.13896,0.07317 -0.29725,0.11457 -0.46521,0.11457c-0.55228,0 -1,-0.44772 -1,-1c0,-0.18686 0.05125,-0.36176 0.14047,-0.51139l0.3369,-0.58957c-0.00828,-0.04493 -0.01441,-0.09175 -0.01836,-0.13974c-0.21974,-0.14529 -0.38916,-0.32137 -0.43572,-0.57264c-0.02814,-0.15189 0.02456,-0.3162 0.12095,-0.48391l-0.51353,0.01529c0.13871,-0.65779 0.22928,-1.21059 0.26612,-1.73054c-0.98026,-0.89904 -0.60389,-1.57498 -0.37737,-2.24842c-0.0062,-0.0228 -0.01198,-0.04559 -0.01733,-0.0684c-0.0516,-0.21986 -0.08427,-0.54351 -0.10868,-0.91815c-0.17932,-0.31239 -0.42674,-0.61471 -0.41073,-0.93014c-0.36178,-0.59569 -0.51918,-1.1265 -0.5631,-1.7066c-0.1964,-0.07564 -0.3416,-0.1692 -0.30783,-0.34844c0.03754,-0.19921 0.15343,-0.35148 0.30945,-0.47968c0.00239,-0.0387 0.00505,-0.07775 0.00794,-0.1172c-0.15408,-0.04652 -0.29246,-0.12922 -0.40528,-0.23821l-0.76576,-0.27846c-0.39544,-0.13339 -0.68016,-0.50732 -0.68016,-0.94776c0,-0.52752 0.40847,-0.95964 0.92638,-0.99733l1.51148,-0.12596l0.01238,0.14863c0.22125,-0.02455 0.44241,-0.01564 0.66343,0.04254c0.02953,0.00778 0.05799,0.01659 0.0854,0.02641z" fill="#49392f" stroke="none" stroke-width="0.5"/></g><g stroke-linecap="butt"><path d="M339.11808,80.07975c0,0 1.23909,-6.45 3.83195,-9.85596c2.42921,-3.191 11.26629,-9.97699 11.26629,-9.97699l1.13122,5.28741c0,0 -1.11207,11.70792 -2.78397,14.98789c-1.902,3.73137 -8.02699,6.22123 -8.02699,6.22123z" fill="#997764" stroke="#4e3527" stroke-width="1.5"/><path d="M350.00878,69.37861c0.2277,-0.01976 0.44716,0.00906 0.661,0.07087l0.03748,-0.14436l1.46805,0.38109c0.50396,0.12519 0.83302,0.62046 0.74334,1.1403c-0.07488,0.43403 -0.41904,0.75411 -0.83139,0.81833l-0.80195,0.14422c-0.12971,0.08823 -0.28013,0.14619 -0.43988,0.16584c-0.00386,0.03936 -0.00789,0.0783 -0.01211,0.11685c0.13196,0.15287 0.22027,0.32261 0.2234,0.5253c0.00281,0.18237 -0.15619,0.24988 -0.36259,0.29104c-0.14191,0.56419 -0.38725,1.06051 -0.84504,1.58602c-0.03785,0.31356 -0.33306,0.56942 -0.56288,0.84678c-0.08774,0.36503 -0.17496,0.67841 -0.26319,0.8863c-0.00915,0.02156 -0.01873,0.04305 -0.02871,0.06446c0.10873,0.70214 0.36471,1.43222 -0.75412,2.15152c-0.0521,0.51864 -0.05683,1.07879 -0.03197,1.75059l-0.50346,-0.10237c0.06648,0.18165 0.09048,0.35252 0.03692,0.49742c-0.08859,0.23971 -0.28549,0.38442 -0.52673,0.49023c-0.01205,0.04663 -0.02606,0.09171 -0.04185,0.13458l0.23176,0.63827c0.06248,0.16262 0.08326,0.34368 0.05149,0.52782c-0.09389,0.54425 -0.61121,0.90933 -1.15545,0.81543c-0.16551,-0.02855 -0.31446,-0.09627 -0.43896,-0.19199l-0.89678,-0.66004l0.0322,-0.04375c-0.79433,-0.41164 -1.32995,-1.08808 -0.85034,-2.442c0.13743,-0.38796 0.71654,-0.18733 1.19828,-0.15814l0.01866,-0.02287c-0.03844,-0.25575 -0.10445,-0.50684 -0.18355,-0.73564l0.05462,-0.00138c-0.06286,-0.27025 -0.08313,-0.61252 0.03602,-1.00485c-0.24536,-0.46725 -0.4157,-0.92801 -0.20059,-1.24205c0.43457,-0.63445 1.88936,-0.31425 2.04532,-1.06728c0.08489,-0.4099 0.16694,-0.86713 0.26126,-1.33931l-0.11711,-0.12409c-0.21362,-0.22151 -0.32249,-0.53832 -0.26616,-0.86482c0.07502,-0.43485 0.42035,-0.75532 0.83375,-0.81869c0.12358,-0.3773 0.26853,-0.73678 0.44331,-1.06036l-0.11347,-0.16078l0.36827,-0.2599c-0.06597,-0.02691 -0.13195,-0.05382 -0.19792,-0.08073c0,0 -0.92509,-0.37974 -0.54536,-1.30483c0.37973,-0.92509 1.30482,-0.54537 1.30482,-0.54537c0.27765,0.11461 0.55531,0.22924 0.83296,0.34385c0.02868,-0.00502 0.05822,-0.00887 0.08864,-0.01151z" fill="#49392f" stroke="none" stroke-width="0.5"/></g><path d="M337.47374,181.11802c0,17.95752 14.72491,30.60997 -20.65416,29.85651c-27.94753,3.29398 -13.70128,-11.89899 -13.70128,-29.85651c0,-17.95752 -4.15767,-31.68016 17.17772,-32.51496c20.32358,-0.79522 17.17772,14.55745 17.17772,32.51496z" fill="#b87e5c" stroke="#7e563f" stroke-width="1.5" stroke-linecap="butt"/><path d="M329.62226,184.46459c0.53728,9.67104 1.85699,17.97516 -10.31212,19.71361c-2.14105,0.30587 -5.48883,0.85227 -6.94587,-0.85358c-1.51829,-1.77757 -4.15304,-7.22052 -4.05253,-9.53132c0.08927,-2.05236 1.42246,-4.6628 1.22698,-6.4677c-0.24388,-2.25177 -1.50694,-4.31115 -1.84047,-6.41558c-0.45758,-2.88714 1.0288,-9.57552 2.14842,-11.31233c0.85478,-1.32597 -0.52443,-5.77389 1.03224,-8.36834c1.0631,-1.77184 2.6293,-2.02272 4.28375,-2.21422c0.51888,-0.22567 1.09159,-0.35081 1.69351,-0.35081c0.15066,0 0.29949,0.00783 0.4461,0.02313c2.78577,-0.68758 4.16794,-4.61031 7.55126,-3.85847c4.48111,0.9958 4.32379,6.6396 5.29388,10.26237c0.68723,2.56642 2.59195,4.70604 3.25147,7.34413c0.44399,1.77598 0.13748,4.85421 -0.94646,6.48011c-0.2427,0.36405 -2.13594,1.59043 -2.14391,1.91437c-0.03044,1.23791 -0.21937,2.4106 -0.84237,3.50084z" fill="#b38d76" stroke="none" stroke-width="0.5" stroke-linecap="butt"/><path d="M324.7655,77.25019l0.09283,-0.01833l0.51205,2.59307c0.13718,0.63812 0.05823,1.28475 -0.19584,1.85233c0.07919,0.26327 0.14175,0.54339 0.18624,0.8414c0.00992,0.06645 -0.11358,0.31398 -0.33729,0.67249c0.78524,2.79005 0.2754,5.55795 -2.89451,7.83924c-2.8222,2.03105 -8.39943,4.00714 -10.02298,-2.23733c-0.08462,-0.32545 -0.00854,-0.7362 0.1865,-1.1951c-0.06103,-0.11717 -0.11502,-0.23974 -0.16126,-0.36735c-0.24822,-0.68509 -0.23153,-1.40164 -0.00241,-2.03747l0.45783,-1.30204l-2.61408,-0.05115c-1.23122,0.0046 -2.38841,-0.75482 -2.8319,-1.97885c-0.47179,-1.30212 0.01345,-2.71786 1.09524,-3.47709c-0.00233,-0.03284 -0.00166,-0.06811 0.0022,-0.10597c0.43014,-4.22654 6.09137,-9.49371 10.79195,-7.79631c0.92846,0.33527 1.42299,0.94741 1.63244,1.6277c1.0732,-0.15583 1.82604,0.28591 2.32062,0.79243c0.72076,0.18992 1.46599,0.69694 1.89471,1.88018c0.37813,1.04363 0.2302,1.84102 -0.10627,2.43151z" fill="#463124" stroke="none" stroke-width="0.5" stroke-linecap="butt"/><g stroke="#7e563f" stroke-width="1.5" stroke-linecap="butt"><path d="M337.09044,281.33701c0,0 -12.02542,3.94285 -12.47676,1.83489c-0.38509,-1.79858 10.83981,-9.48027 10.37885,-11.63315c-0.76418,-3.56907 -0.48312,-12.18123 -2.64877,-20.54476c-2.05973,-7.95452 -6.54534,-15.5588 -8.17021,-23.14772c-2.30573,-10.76883 -2.49638,-18.49647 -2.49638,-18.49647l11.81328,-2.52936c0,0 6.39247,-3.35345 9.75203,18.19775c0.87165,5.59148 -3.18912,10.22342 -1.29568,22.03561c2.40523,15.00493 6.95691,31.75385 6.95691,31.75385z" fill="url(#color-5)"/><path d="M320.90076,286.26733l-0.08563,-0.39993c0,0 0.80009,-4.31099 3.49862,-7.48194c1.84054,-2.16276 6.27977,-6.21015 7.9073,-7.048c4.8637,-2.50381 14.52038,-5.03298 14.52038,-5.03298l2.46198,13.90294z" fill="#9a8172"/></g><g stroke="#373737" stroke-width="1.5" stroke-linecap="butt"><path d="M339.96429,74.26338c0,4.80389 -8.3774,8.69821 -18.71144,8.69821c-10.33404,0 -18.71144,-3.89432 -18.71144,-8.69821c0,-4.80389 8.3774,-8.69821 18.71144,-8.69821c10.33404,0 18.71144,3.89432 18.71144,8.69821z" fill="#505050"/><path d="M309.2898,75.6835v-18.28399l12.0653,5.85798l11.86081,-5.85798v18.28399z" fill="#505050"/><path d="M310.10778,72.48824v-3.01775h22.49463v3.01775z" fill="#fefefe"/></g><g stroke-width="1.5"><path d="M301.51892,110.15965v-8.17987h13.08779v8.17987z" fill-opacity="0.60392" fill="#6d6d6d" stroke="#3e3e3e" stroke-linecap="butt"/><path d="M315.0131,106.39293c0,0 3.98706,-1.09778 5.72405,-1.13654c1.80662,-0.04032 4.91499,0.8991 4.91499,0.8991" fill="none" stroke="#3e3e3e" stroke-linecap="round"/><path d="M325.94611,110.45622v-8.17987h13.08778v8.17987z" fill-opacity="0.60392" fill="#6d6d6d" stroke="#3e3e3e" stroke-linecap="butt"/></g><path d="M326.67201,150.95673c0,3.10586 -3.29603,5.62366 -7.36188,5.62366c-4.06585,0 -7.36188,-2.5178 -7.36188,-5.62366c0,-3.10586 3.29603,-5.62366 7.36188,-5.62366c4.06585,0 7.36188,2.5178 7.36188,5.62366z" fill="#616161" stroke="#3e3e3e" stroke-width="1.5" stroke-linecap="butt"/><g stroke="#3e3e3e" stroke-width="1.5"><path d="M298.7891,157.29593v-11.04282l12.88329,3.06745l-0.2045,2.65846z" fill="#616161" stroke-linecap="butt"/><path d="M299.03243,148.92789l4.13221,0.73462" fill="none" stroke-linecap="round"/><path d="M299.67522,151.86635l1.74471,-0.36731" fill="none" stroke-linecap="round"/><path d="M299.67522,153.88654l3.67308,-1.0101" fill="none" stroke-linecap="round"/></g><g stroke="#3e3e3e" stroke-width="1.5"><path d="M327.77676,152.38768l-0.2045,-2.65846l12.88329,-3.06745v11.04282z" fill="#616161" stroke-linecap="butt"/><path d="M340.21223,149.33655l-4.13221,0.73462" fill="none" stroke-linecap="round"/><path d="M337.82473,151.9077l1.74471,0.36731" fill="none" stroke-linecap="round"/><path d="M335.89636,153.2851l3.67307,1.0101" fill="none" stroke-linecap="round"/></g></g></g></svg>