<svg version="1.1" xmlns="http://www.w3.org/2000/svg" xmlns:xlink="http://www.w3.org/1999/xlink" width="168.80178" height="337.42196" viewBox="0,0,168.80178,337.42196"><g transform="translate(-136.73963,-15.69127)"><g data-paper-data="{&quot;isPaintingLayer&quot;:true}" fill-rule="nonzero" stroke-linejoin="miter" stroke-miterlimit="10" stroke-dasharray="" stroke-dashoffset="0" style="mix-blend-mode: normal"><path d="M251.83947,131.73227c-1.89724,7.64604 -11.30694,4.2704 -16.19074,3.81941c-1.55389,0.29587 -3.16742,0.25181 -4.70422,-0.13838c-2.68012,-0.0871 -5.48577,-0.39523 -7.16664,-1.83598c-1.15293,-0.98823 -2.8557,-3.73898 -3.74882,-6.51292c-1.46823,-0.58026 -3.28917,-1.41132 -4.8383,-2.28149c-0.54268,-0.25448 -1.05209,-0.56812 -1.51994,-0.93261c-1.87898,-1.46389 -3.08748,-3.74807 -3.08748,-6.31451c0,-3.92883 2.83212,-7.19618 6.56618,-7.87187c0.31006,-0.10019 0.63794,-0.16165 0.98661,-0.17798c0.50742,-0.02376 1.01142,0.02344 1.51007,0.11983c0.06832,0.00907 0.13638,0.019 0.20415,0.02979c0.0042,-0.03943 0.00852,-0.0788 0.01297,-0.11813c0.17476,-1.82292 0.59087,-3.60849 1.3605,-5.23164c0.83736,-1.76598 1.61998,-2.78533 2.46362,-3.56584c1.02948,-1.13128 2.22146,-2.04355 3.52755,-2.67731c0.47976,-0.39058 0.67955,-2.20433 1.00041,-3.09216c1.25666,-3.47724 4.37805,-9.51075 7.86478,-9.67212c2.27328,-0.10521 4.92425,-0.69621 7.04917,0.50152c1.10472,0.62269 1.8114,1.88018 3.086,2.12274c1.57605,0.29993 4.58128,-0.83434 6.4676,-0.59446c1.8599,0.23653 3.31357,-2.23967 5.12756,-2.79738c2.44959,-0.75313 7.44074,0.79456 9.00626,2.45729c7.20618,7.6537 5.46143,15.67769 3.07262,24.13939c0.61202,0.15786 1.19028,0.39836 1.69395,0.76165c0.18818,0.13573 4.01194,6.78515 4,7c-0.08435,1.51833 -1.56987,2.60762 -2.2634,3.96094c-3.08396,6.01794 -10.49289,5.62804 -16.54055,6.03906c-1.53698,0.10446 -3.13619,0.40246 -4.77904,0.49944c0.06949,0.7983 0.0306,1.59203 -0.16088,2.36371z" fill="#0b0b0b" stroke="none" stroke-width="0.5" stroke-linecap="butt"/><path d="M256.875,338.56636v-34.75h16.75v34.75z" fill="#575757" stroke="#383838" stroke-width="2" stroke-linecap="butt"/><path d="M216.375,339.31636v-34.75h16.75v34.75z" fill="#575757" stroke="#383838" stroke-width="2" stroke-linecap="butt"/><path d="" fill="#ffffff" stroke="#000000" stroke-width="1.5" stroke-linecap="butt"/><path d="" fill="#000000" stroke="#000000" stroke-width="1.5" stroke-linecap="butt"/><path d="" fill="#ff7575" stroke="#000000" stroke-width="1.5" stroke-linecap="butt"/><path d="M214.649,201.36359v-87.96104h59.9932v87.96104z" fill="#d0d0d0" stroke="#1b1b1b" stroke-width="2.5" stroke-linecap="butt"/><path d="M214.21427,212.81157v-14.20129h61.15249v14.20129z" fill="#222222" stroke="#1b1b1b" stroke-width="2.5" stroke-linecap="butt"/><path d="M214.21427,212.49359h21.01211v104.51913c-0.16964,-0.07824 -0.30003,-0.17314 -0.37482,-0.29011c-0.62098,-0.9713 -0.32693,-2.71284 -0.93918,-3.67494c-0.8068,-1.26783 -2.36277,-1.92568 -3.75115,-2.50077c-0.70652,-0.29265 -1.15901,-1.12262 -1.9089,-1.2726c-2.94521,-0.58904 -5.93495,2.57326 -7.84034,4.20912c-1.98945,1.70803 -4.06987,3.04701 -6.19773,4.26801z" fill="#222222" stroke="#1b1b1b" stroke-width="2.5" stroke-linecap="butt"/><path d="M215.44601,218.27618v-15.61311h19.12827v15.61311z" fill="#222222" stroke="none" stroke-width="0" stroke-linecap="butt"/><path d="M205.4322,350.80904v-14.3462h30.43133v14.3462z" fill="#151515" stroke="#131313" stroke-width="2.5" stroke-linecap="butt"/><path d="M254.20973,213.79778h21.01211v95.35778c-0.90192,-0.51242 -1.65069,-0.88465 -1.84684,-0.8392c-0.52557,0.12178 -5.40294,3.26742 -5.57986,3.18849c-1.98399,-0.88512 -2.27847,-4.88808 -4.39678,-6.09854c-3.45122,-1.97212 -7.13457,-0.52334 -9.18863,2.32457z" fill="#222222" stroke="#1b1b1b" stroke-width="2.5" stroke-linecap="butt"/><path d="M255.44148,219.58038v-15.61311h19.12827v15.61311z" fill="#222222" stroke="none" stroke-width="0" stroke-linecap="butt"/><path d="M255.17767,351.86323v-14.3462h30.43133v14.3462z" fill="#151515" stroke="#131313" stroke-width="2.5" stroke-linecap="butt"/><path d="M218.3658,261.50816c0,4.75159 3.83659,21.26113 -3.43785,21.77333c-1.23835,0.08719 -1.25084,-12.70693 -2.60274,-11.14206c-2.60169,3.01154 0.65837,12.01837 -9.39245,12.62696c-17.64192,1.06824 -15.43303,-10.41307 -15.43303,-23.25823c0,-12.84517 6.9096,-23.25823 15.43303,-23.25823c8.52343,0 15.43303,10.41307 15.43303,23.25823z" fill="#575757" stroke="#383838" stroke-width="2" stroke-linecap="butt"/><path d="M190.35814,147.20765c0,0 4.08838,-11.97304 7.67016,-15.3541c3.92258,-3.70277 17.54438,-5.98524 17.54438,-5.98524h0.43473v123.81335c-1.21662,-1.9686 -2.44388,-4.09767 -3.11372,-4.43259c-2.1911,-1.09555 -4.84869,0.71747 -7.28691,0.95467c-0.81876,0.07965 -3.293,-1.26976 -4.08708,-1.46827c-1.38606,-0.34651 -4.54256,1.20064 -5.1447,1.11349c-2.2504,-0.32572 -4.21923,-0.13906 -6.01686,0.50167z" fill="#2f2f2f" stroke="#1b1b1b" stroke-width="2.5" stroke-linecap="butt"/><path d="M303.5304,260.04022c0,4.75159 3.83659,21.26113 -3.43784,21.77333c-1.23835,0.08719 -1.25084,-12.70692 -2.60274,-11.14206c-2.6017,3.01154 0.65837,12.01837 -9.39245,12.62696c-17.64192,1.06824 -15.43303,-10.41307 -15.43303,-23.25823c0,-12.84517 6.9096,-23.25823 15.43303,-23.25823c8.52343,0 15.43303,10.41307 15.43303,23.25823z" fill="#575757" stroke="#383838" stroke-width="2" stroke-linecap="butt"/><path d="M277.32693,128.46451l-0.43473,-15.21567c0,0 23.4756,16.22006 23.4756,25.68667c0,17.87479 0,79.44143 0,106.13533c-1.09011,0.01097 -2.3491,0.24551 -3.83895,0.73484c-0.94976,0.31195 -1.77724,1.07165 -2.77471,1.13805c-5.17861,0.34475 -12.23069,-3.66536 -17.48723,-1.78802c-0.47818,0.17078 -0.91282,0.37915 -1.3099,0.62005z" fill="#2f2f2f" stroke="#1b1b1b" stroke-width="2.5" stroke-linecap="butt"/><path d="M165.96627,135.03938l-27.91986,-67.32726l122.29427,-50.71407l27.91986,67.32726z" fill="#575757" stroke="#383838" stroke-width="2" stroke-linecap="butt"/><path d="M270.88574,52.69554c5.7022,13.75055 -0.91217,29.5574 -14.77361,35.30558c-13.86144,5.74819 -29.7209,-0.73902 -35.4231,-14.48957c-5.7022,-13.75055 0.91217,-29.5574 14.77361,-35.30558c13.86144,-5.74819 29.7209,0.73902 35.4231,14.48957z" fill="#2b2b2b" stroke="none" stroke-width="0" stroke-linecap="butt"/><path d="M262.87291,57.77343c3.52555,8.50168 -0.80805,18.37595 -9.67937,22.05479c-8.87132,3.67884 -18.92097,-0.23085 -22.44653,-8.73254c-3.52555,-8.50168 0.80805,-18.37595 9.67937,-22.05479c8.87132,-3.67884 18.92097,0.23085 22.44653,8.73254z" fill="#ff6b6b" stroke="#000000" stroke-width="2" stroke-linecap="butt"/><path d="M249.82813,55.84088c0.52081,1.25591 7.92775,-0.07858 7.81368,1.19905c-0.27557,3.08643 -2.28203,5.95708 -5.43157,7.26316c-4.45329,1.84673 -9.50553,-0.13382 -11.2845,-4.42369c-1.77896,-4.28987 0.38901,-9.26457 4.84231,-11.1113c3.45398,-1.43233 7.26826,-0.56233 9.63618,1.90177c0.6851,0.71292 -5.9753,4.20837 -5.57611,5.17102z" fill="#000000" stroke="none" stroke-width="0" stroke-linecap="butt"/><path d="M255.68834,34.39541c0.86071,2.07555 -0.29939,4.52855 -2.59114,5.47891c-2.29176,0.95037 -4.84734,0.03822 -5.70804,-2.03734c-0.86071,-2.07555 0.29939,-4.52855 2.59114,-5.47891c2.29176,-0.95037 4.84734,-0.03822 5.70804,2.03734z" fill="#715e43" stroke="#473b2a" stroke-width="1" stroke-linecap="butt"/><path d="M151.05452,62.58639l-1.33223,-3.21259l23.69285,-9.82516l1.33223,3.21259z" fill="#343434" stroke="#252525" stroke-width="2" stroke-linecap="butt"/><path d="M203.14874,97.46274c0,0 4.29289,-5.83463 8.41391,-7.5984c1.61183,-0.68985 5.8734,4.49344 8.84945,4.54338c3.84159,0.06446 6.31848,-5.53785 6.31848,-5.53785" fill="none" stroke="#000000" stroke-width="2.5" stroke-linecap="round"/><path d="M213.16667,118.86912c0.83152,-1.45516 1.11708,-3.45997 2.27783,-4.58368c0.17702,-0.17137 0.3744,-0.32225 0.59717,-0.44757c0.22227,-0.12503 0.45718,-0.21891 0.69995,-0.29314c0.67096,-0.27438 1.40534,-0.42561 2.17505,-0.42561c2.16709,-0.48917 4.92417,2.0273 7.05531,1.15667c6.38594,-2.60885 13.29599,-9.13636 20.62011,-7.50878c1.23967,0.27548 3.39408,1.93118 3.68917,2.89377c0.28953,0.94445 0.54918,1.90184 0.71875,2.875c0.07152,0.41048 -0.4066,1.15897 0,1.25c4.39065,0.98298 15.63415,0.99738 19.95786,1.33333c3.30475,0.25678 6.70881,0.76197 6.70881,5.75c0,4.50445 -2.72203,5.2708 -5.75,5.75c-4.46,0.70583 -11.61424,-1.28026 -16.04119,-1.33333c-4.65505,-0.05581 -6.933,0.49554 -10.62548,-0.33333c-1.98825,-0.44632 -3.83577,-1.21555 -5.03125,-2.875c-0.34467,-0.47844 0.15651,-1.78569 -0.42904,-1.71616c-3.59276,0.4266 -6.446,3.30093 -9.77479,4.71838c-3.05458,1.30069 -6.27579,0.75222 -9.3601,0.06762c-0.8685,-0.19278 -4.37353,-0.82756 -4.65648,-1.32273z" fill="#141414" stroke="none" stroke-width="0.5" stroke-linecap="butt"/><path d="M154.59523,100.08329c3.6591,-0.17132 12.71732,4.18434 15.47629,6.90481c2.00097,1.97305 1.2996,7.38322 1.91566,9.82973c0.37329,1.4824 3.39022,-0.06091 4.47115,1.02003c1.36584,1.36584 2.875,3.09967 2.875,5.03125c0,7.99362 -9.02864,5.90924 -13.2,3.93333c-5.74853,-2.72299 -5.81064,-6.8016 -5.96667,-12.61946c-0.00196,-0.07306 -2.31116,-1.02104 -2.36667,-1.04721c-1.58801,-0.74851 -7.58033,-1.81095 -7.70972,-4.13997c-0.58426,-0.90002 -0.92361,-1.97373 -0.92361,-3.1267c0,-2.82384 2.03559,-5.17225 4.71944,-5.65791c0.22285,-0.07201 0.45852,-0.11619 0.70912,-0.12792z" fill="#141414" stroke="none" stroke-width="0.5" stroke-linecap="butt"/><path d="M267.69358,85.5143c1.34162,1.20926 4.14698,2.80257 4.14698,4.83012c0,1.93158 -0.15886,4.22473 -1.5247,5.59056c-5.16054,5.16054 -12.14113,-3.0453 -14.59272,-6.99019c-0.16134,-0.25962 -0.45845,-0.54832 -0.77372,-0.8406c0.91768,3.78391 0.2826,7.94306 -3.54778,9.21985c-4.41189,1.47063 -5.79023,-0.9392 -7.27324,-3.63662c-0.6623,-1.20464 -1.17345,-3.85367 -1.62422,-5.206c-0.17004,-0.47296 -0.27985,-0.97465 -0.32018,-1.49582c-0.94452,-0.01089 -1.80566,-0.16272 -2.18566,-0.82771l-2.83168,-4.95544c0.83152,-1.45516 1.11708,-3.45997 2.27783,-4.58368c0.17702,-0.17137 0.3744,-0.32225 0.59717,-0.44757c0.26252,-0.14767 0.54486,-0.26219 0.84195,-0.349c0.63208,-0.23897 1.31729,-0.36975 2.03305,-0.36975c0.64156,0 1.25857,0.10507 1.83478,0.29894c1.91911,0.2691 3.6667,0.74847 4.28164,0.41047c1.18822,-0.65309 1.92882,-3.18421 2.85233,-3.83441c1.50849,-1.06205 3.11218,-2.02305 4.70982,-2.91083c0.36262,-0.2015 8.76112,3.20809 8.99752,3.60209c0.99379,1.65632 2.03738,3.70441 1.5689,5.57832c-0.32459,1.29837 -1.32902,2.32892 -2.46631,3.17003c0.94476,1.31705 1.84447,2.7073 2.99824,3.74724z" fill="#141414" stroke="none" stroke-width="0.5" stroke-linecap="butt"/><path d="M163.83333,70.53578c1.10238,-1.60527 1.56369,-4.0432 3.09069,-5.09942c0.19775,-0.13678 0.41336,-0.25039 0.65056,-0.33602c5.395,-1.94762 11.60786,2.90484 17.01112,2.24009c6.22853,-0.76628 11.14326,-10.31054 17.65672,-3.79707c0.67448,0.67448 3.12082,3.96285 2.93147,5.46773c-0.24114,1.91647 -0.15886,4.22473 -1.5247,5.59056c-1.36584,1.36584 -3.65898,1.5247 -5.59056,1.5247c-1.0006,0 -1.73496,-2.10528 -2.56908,-1.55262c-8.25148,5.46714 -14.29367,4.19538 -23.29653,2.22632c-0.67134,-0.14683 -5.83677,-0.59452 -6.30352,-1.85748z" fill="#141414" stroke="none" stroke-width="0.5" stroke-linecap="butt"/><path d="M197.05532,220.45245c5.69078,0.70448 9.10228,-0.46745 10.94468,6.08333c0.44027,1.56542 -1.93851,2.5873 -2.33333,4.08333c-0.43041,1.63085 1.12147,2.28478 -0.71875,4.125c-1.36584,1.36584 -3.09967,2.875 -5.03125,2.875c-1.93158,0 -3.66541,-1.50916 -5.03125,-2.875c-0.76311,-0.76311 0.29804,-2.79512 -0.71875,-3.15681c-1.41074,-0.50183 -9.80437,-2.32619 -8.81784,-5.94345c-0.1189,-0.46063 -0.18216,-0.94363 -0.18216,-1.4414c0,-3.17564 2.57436,-5.75 5.75,-5.75c0.86824,-0.67222 5.65424,1.94003 6.13865,2z" fill="#141414" stroke="none" stroke-width="0.5" stroke-linecap="butt"/><path d="M294.28125,217.66078c0.57484,1.02192 0.7099,1.71486 0.69289,2.32613c0.01711,0.18065 0.02586,0.36374 0.02586,0.54887c0,0.58372 -0.08698,1.14712 -0.24868,1.67795c0.01314,0.41198 0.0809,0.88524 0.24868,1.45879c0.90063,3.07883 6.21865,8.80086 2.28125,12.73826c-1.36584,1.36584 -3.09967,2.875 -5.03125,2.875c-1.93158,0 -3.66541,-1.50916 -5.03125,-2.875c-0.96245,-0.96245 0.05684,-2.90106 -0.71875,-4.01957c-1.08408,-1.5634 -2.86189,-2.95796 -3,-4.85543c-0.07928,-1.08923 -0.24135,-4.74866 0.00857,-7.31668c0.01383,-0.25472 0.04423,-0.50503 0.09015,-0.74987c0.50005,-2.66604 2.84007,-4.68345 5.65127,-4.68345c1.87122,0 3.53367,0.89383 4.58368,2.27783c0.17137,0.17702 0.32225,0.3744 0.44757,0.59717z" fill="#141414" stroke="none" stroke-width="0.5" stroke-linecap="butt"/><path d="M221.5,182.20245c1.48182,-1.72594 2.2769,-4.73277 4.24963,-5.55229c0.21797,-0.09055 0.45032,-0.1544 0.69956,-0.18686c0.39775,-0.05181 0.77281,-0.04691 1.1317,-0.00149c1.1538,0.06546 2.21659,0.47111 3.08964,1.11823c0.44145,0.19284 0.89086,0.36667 1.36512,0.47959c4.81568,1.14663 8.78799,2.32034 12.9414,4.4048c1.90707,0.9571 4.80806,0.21333 6.5111,1.59506c1.31919,1.0703 3.89273,5.40224 2.57148,7.71443c-3.82029,6.68551 -18.46239,-0.76204 -23.70135,-2.33523c-1.43238,-0.43013 -7.40614,-1.91218 -7.65845,-3.72034z" fill="#141414" stroke="none" stroke-width="0.5" stroke-linecap="butt"/></g></g></svg>