<svg version="1.1" xmlns="http://www.w3.org/2000/svg" xmlns:xlink="http://www.w3.org/1999/xlink" width="511.42413" height="775.26918" viewBox="0,0,511.42413,775.26918"><g transform="translate(2.77603,194.11475)"><g data-paper-data="{&quot;isPaintingLayer&quot;:true}" fill-rule="nonzero" stroke-linejoin="miter" stroke-miterlimit="10" stroke-dasharray="" stroke-dashoffset="0" style="mix-blend-mode: normal"><path d="M175.68604,97.90625v-59.5h138.5v59.5z" fill="#ffffff" stroke="#000000" stroke-width="3.5" stroke-linecap="butt"/><path d="M333.58108,466.49236c2.43894,10.801 0.98505,22.0485 2.63076,32.93653c0.54396,3.59884 3.12462,7.19662 3.50275,10.97789c1.58636,15.86355 1.1117,35.82758 -6.63673,50.56523c-1.27005,2.41566 -2.78621,4.72205 -3.77146,7.26718c-0.27328,0.70593 -0.10111,1.61648 -0.59251,2.19228c-8.75408,10.25775 -21.83067,12.48848 -34.50257,9.49706c-4.09963,-0.96779 -9.63364,-1.28425 -12.68884,-3.92283c-2.17915,-1.88199 -4.97487,-5.46595 -6.8052,-7.42884c-2.30615,-2.47318 -5.08195,-4.47897 -7.38711,-6.95308c-5.81047,-6.23638 -7.76818,-14.17594 -9.78401,-22.23925c-0.96031,-3.84126 -2.4418,-7.23379 -2.46509,-11.26164c-0.12476,-21.57172 -2.28,-43.25108 -0.1335,-64.7161c0.25116,-2.51163 2.10184,-4.92245 2.1335,-7.42088c0.50219,-39.62686 -0.32786,-78.68053 5.38672,-117.7302c0.81948,-5.59976 3.20276,-10.50638 4.90151,-15.77041c1.19526,-0.16467 2.16582,-1.03346 2.47962,-2.17429l0.73064,-2.43544l-0.06367,-0.0191l0.10102,-0.11695c0.15951,-0.79269 0.32072,-1.58389 0.48571,-2.37273c0.05228,-0.10149 0.10672,-0.1996 0.1651,-0.29186c1.76342,-2.78672 3.26114,-5.5574 4.64774,-8.52328c2.03368,-4.34994 4.91649,-8.38758 7.00689,-12.76459c1.65115,-3.45729 3.39765,-6.90198 5.32072,-10.24409c2.34057,-2.49615 3.28469,-6.59161 6.27942,-8.30288c19.41496,-11.09427 37.03625,0.6594 39.05859,20.88281z" fill="#650000" stroke="none" stroke-width="0.5" stroke-linecap="butt"/><path d="M275.93944,151.98118c-2.87775,-11.68026 -4.80115,-27.58079 0.6803,-38.54368c1.36329,-2.7266 3.56432,-4.61256 5.46116,-6.92576c0.72978,-0.88998 0.95649,-2.23079 1.90869,-2.87729c1.76526,-1.1985 3.94762,-1.62066 5.91887,-2.43718c1.97125,-0.81652 3.81292,-2.06118 5.90861,-2.46193c1.13045,-0.21617 2.23885,0.57162 3.3842,0.6849c4.38246,0.43342 8.86381,0.65569 12.97472,2.49851c6.64237,2.97762 11.88123,9.63431 15.23707,15.82522c1.02638,1.89348 2.09705,5.68218 3.34021,7.51806c1.10967,1.63874 3.33112,3.50616 4.48467,5.05755c3.63997,4.89534 5.96072,11.57504 8.1711,17.19375c4.10735,10.44074 12.01647,22.65697 15.34686,33.47254c1.93832,6.29478 2.20545,12.74739 3.72152,19.12498c0.69937,2.942 2.37717,5.93649 2.68207,8.98555c0.32011,3.20112 -1.81072,8.35345 0.39511,10.95647c1.72709,2.03807 4.79393,4.87709 6.37764,7.38464c2.3311,3.69091 2.58736,9.25367 5.20788,12.70102c5.53332,7.27921 7.80071,16.45542 13.3697,23.90601c1.70317,2.27862 7.80661,11.4928 9.25567,12.69759c6.44792,5.36099 12.61805,10.66413 18.9512,15.87158c4.11233,3.38138 7.49044,5.29092 11.10718,9.26431c1.05306,1.1569 3.5139,1.83857 4.80663,2.87277c3.01657,2.41325 6.16006,4.68518 9.13842,7.09976c0.3007,0.24378 5.02511,4.38371 5.51609,4.41438c2.7631,0.17261 7.89664,-2.35663 11.37455,-2.35663c5.79835,0 12.36604,-0.35798 18.05311,1.38356c5.86611,1.79637 11.68445,6.54465 16.97354,8.12475c3.84442,1.14851 7.937,5.31195 9.24603,9.02089c1.21083,3.43068 2.72554,6.77471 3.57416,10.31244c0.47287,1.97127 -0.38088,4.03782 -0.48041,6.06256c-0.22355,4.54787 -3.04751,16.00459 -5.86719,19.3086c-1.1996,1.40565 -6.05837,6.32705 -8.50781,7.34765c-1.41745,0.5906 -7.01683,1.9162 -7.57603,2.86255c-1.89531,3.20752 -0.93058,7.63736 -2.91616,10.7898c-1.99705,3.17065 -5.28179,5.44136 -8.50781,7.34765c-8.17043,4.82797 -19.36686,3.56556 -27.95588,0.78827c-9.6843,-3.13146 -18.24722,-7.94395 -26.77363,-13.3828c-4.00737,-2.55623 -9.1439,-6.2546 -13.13842,-9.09976c-0.0569,-0.04053 -3.35101,-3.16898 -4.31077,-3.69246c-13.21573,-7.20825 -29.18647,-9.12585 -40.78457,-19.63789c-7.83263,-7.09918 -14.0009,-14.69647 -19.27328,-24.012c-2.17381,-3.8408 -5.7953,-6.90699 -8.72672,-9.988c-2.06588,-2.17128 -3.12551,-5.51495 -4.75263,-7.97071c-0.86571,-1.30659 -2.60619,-2.1819 -3.54192,-3.35229c-0.97128,-1.21486 -1.03064,-2.98901 -2.33483,-4.4012c-0.66924,-0.72466 -5.14148,-5.45718 -6.53586,-7.07173c-1.27338,-1.47444 -1.48783,-3.67084 -2.26554,-5.4373c-3.1535,-7.16273 -7.88849,-12.10566 -10.05811,-19.93945c-0.61513,-2.22105 -1.57869,-12.14889 -1.67284,-14.48441c-0.21927,-5.43849 -2.1542,-10.88153 -2.1542,-16.35807c0,-4.0574 0.43952,-7.49745 -0.61546,-11.31308c-3.7139,-13.43243 -10.3498,-26.34192 -14.96025,-39.47672c-1.9687,-5.60868 -2.17953,-9.54214 -3.27009,-14.98396c-0.39252,-1.95864 -1.73856,-3.87109 -2.26103,-5.83992c-1.32333,-4.98675 -2.26887,-9.20152 -3.25834,-14.14888z" data-paper-data="{&quot;index&quot;:null}" fill="#650000" stroke="none" stroke-width="0.5" stroke-linecap="butt"/><path d="M182.81374,296.34452c-1.30419,1.41219 -1.36355,3.18634 -2.33483,4.4012c-0.93573,1.17039 -2.67621,2.0457 -3.54192,3.35229c-1.62713,2.45577 -2.68676,5.79944 -4.75263,7.97072c-2.93143,3.081 -6.55292,6.14719 -8.72672,9.98799c-5.27237,9.31553 -11.44065,16.91283 -19.27328,24.01201c-11.59809,10.51205 -27.56884,12.42964 -40.78456,19.63789c-0.95976,0.52348 -4.25387,3.65194 -4.31077,3.69246c-3.99451,2.84517 -9.13105,6.54353 -13.13842,9.09976c-8.52641,5.43885 -17.08933,10.25134 -26.77362,13.3828c-8.58902,2.77729 -19.78546,4.0397 -27.95588,-0.78827c-3.22603,-1.90629 -6.51076,-4.177 -8.50781,-7.34765c-1.98558,-3.15244 -1.02085,-7.58228 -2.91616,-10.7898c-0.55919,-0.94635 -6.15857,-2.27194 -7.57602,-2.86255c-2.44944,-1.0206 -7.30821,-5.942 -8.50781,-7.34765c-2.81968,-3.30401 -5.64363,-14.76073 -5.86719,-19.3086c-0.09953,-2.02474 -0.95328,-4.09129 -0.48041,-6.06256c0.84862,-3.53773 2.36333,-6.88176 3.57416,-10.31244c1.30903,-3.70893 5.40162,-7.87237 9.24603,-9.02088c5.28909,-1.58011 11.10743,-6.32838 16.97355,-8.12475c5.68706,-1.74154 12.25476,-1.38357 18.05311,-1.38357c3.47792,0 8.61145,2.52925 11.37455,2.35663c0.49098,-0.03067 5.21539,-4.1706 5.51609,-4.41438c2.97836,-2.41458 6.12186,-4.68652 9.13842,-7.09977c1.29273,-1.03419 3.75357,-1.71586 4.80663,-2.87276c3.61674,-3.97339 6.99484,-5.88293 11.10718,-9.26431c6.33315,-5.20745 12.50328,-10.5106 18.9512,-15.87159c1.44906,-1.20479 7.55251,-10.41897 9.25567,-12.69759c5.56898,-7.45059 7.83637,-16.62681 13.36969,-23.90602c2.62052,-3.44735 2.87678,-9.0101 5.20788,-12.70101c1.58372,-2.50754 4.65055,-5.34656 6.37764,-7.38464c2.20583,-2.60301 0.075,-7.75535 0.39511,-10.95647c0.3049,-3.04906 1.98271,-6.04355 2.68207,-8.98555c1.51606,-6.37759 1.7832,-12.8302 3.72152,-19.12498c3.33039,-10.81557 11.23951,-23.0318 15.34686,-33.47254c2.21038,-5.61871 4.53113,-12.29841 8.1711,-17.19375c1.15355,-1.55139 3.37499,-3.41881 4.48467,-5.05755c1.24317,-1.83588 2.31384,-5.62458 3.34022,-7.51806c3.35584,-6.19091 8.5947,-12.8476 15.23707,-15.82521c4.11091,-1.84282 8.59226,-2.06508 12.97472,-2.4985c1.14535,-0.11328 2.25375,-0.90107 3.3842,-0.6849c2.0957,0.40075 3.93737,1.6454 5.90861,2.46192c1.97125,0.81652 4.15361,1.23868 5.91887,2.43718c0.9522,0.6465 1.17891,1.98731 1.90869,2.87729c1.89684,2.31321 4.09786,4.19917 5.46115,6.92576c5.48145,10.96289 3.55805,26.86341 0.6803,38.54367l-0.06718,0.6852c-0.98947,4.94736 -1.93502,9.16213 -3.25834,14.14888c-0.52247,1.96884 -1.86851,3.88129 -2.26103,5.83993c-1.09056,5.44182 -1.30138,9.37527 -3.27008,14.98395c-4.61045,13.1348 -11.24635,26.04429 -14.96025,39.47672c-1.05498,3.81563 -0.61545,7.25568 -0.61545,11.31308c0,5.47654 -1.93494,10.91958 -2.15421,16.35807c-0.09416,2.33552 -1.05772,12.26337 -1.67284,14.48441c-0.2372,0.85645 -0.50507,1.67836 -0.79817,2.47238c-0.6539,1.04526 -1.29164,2.09556 -1.9127,3.14671c-1.21318,0.04188 -2.1126,0.9413 -2.1126,0.9413c-6.8613,6.86909 -10.26292,15.29648 -12.54744,24.29789c-0.72132,0.76972 -1.28351,1.36814 -1.4886,1.5902z" fill="#650000" stroke="none" stroke-width="0.5" stroke-linecap="butt"/><path d="M247.5,458.48936c2.43893,10.801 0.98505,22.0485 2.63075,32.93653c0.54396,3.59884 3.12463,7.19662 3.50275,10.97789c1.58635,15.86355 1.11171,35.82758 -6.63673,50.56523c-1.27005,2.41566 -2.78621,4.72205 -3.77146,7.26718c-0.27328,0.70593 -0.10111,1.61648 -0.59251,2.19229c-8.75408,10.25775 -21.83068,12.48848 -34.50257,9.49705c-4.09963,-0.96779 -9.63364,-1.28425 -12.68884,-3.92283c-2.17916,-1.88199 -4.97487,-5.46595 -6.80519,-7.42884c-2.30615,-2.47318 -5.08196,-4.47897 -7.38711,-6.95308c-5.81046,-6.23638 -7.76818,-14.17594 -9.78401,-22.23925c-0.96032,-3.84126 -2.4418,-7.23379 -2.46509,-11.26164c-0.12476,-21.57172 -2.28001,-43.25108 -0.13351,-64.7161c0.25116,-2.51163 2.10184,-4.92245 2.13351,-7.42088c0.5022,-39.62686 -0.32787,-78.68052 5.38672,-117.7302c0.81948,-5.59976 3.20276,-10.50638 4.90151,-15.77042c1.19526,-0.16467 2.16582,-1.03346 2.47961,-2.17429l0.73064,-2.43544l-0.06367,-0.0191l0.10102,-0.11694c0.15951,-0.79269 0.32072,-1.58389 0.48571,-2.37273c0.05229,-0.10149 0.10672,-0.19961 0.1651,-0.29187c1.76342,-2.78672 3.26113,-5.5574 4.64773,-8.52328c2.03367,-4.34994 4.91649,-8.38758 7.00689,-12.76459c1.65115,-3.45729 3.39766,-6.90198 5.32073,-10.24409c2.34057,-2.49615 3.28468,-6.59161 6.27942,-8.30288c19.41496,-11.09427 37.03626,0.6594 39.05859,20.88281z" fill="#650000" stroke="none" stroke-width="0.5" stroke-linecap="butt"/><path d="M323.9403,-144.8388c-0.1442,0.35604 -0.29097,0.70905 -0.44007,1.05911c0.19433,2.58936 -0.20386,3.07098 -0.80229,6.48784c-0.03231,0.18448 0.15462,-0.70832 0.15015,-0.51545c-0.05773,2.48974 -0.04838,5.00677 -0.31105,7.45541c-0.06318,0.58902 -0.17787,1.18351 -0.34503,1.71997c-0.0063,0.60065 -0.12859,1.26298 -0.12859,1.86028c0,1.83928 0,3.67856 0,5.51784c0,5.15874 -0.35036,9.27683 -0.84126,14.42938c-0.26731,2.80572 0.37051,9.68951 -1.35044,12.71481c-0.0618,2.86186 -0.84786,6.27134 -1.0341,8.46043c-0.17809,2.09321 -0.14929,4.22484 -0.22393,6.33726c-0.26155,0.91964 -0.66997,1.7507 -0.78467,2.75892c-0.15389,1.35267 0.15389,2.7857 0,4.13837c-0.1147,1.00822 -0.68852,1.74472 -0.78467,2.75892c-0.172,1.81426 0.172,3.70358 0,5.51783c-0.09615,1.0142 -0.68852,1.74472 -0.78467,2.75892c-0.172,1.81426 0.20221,3.71323 0,5.51783c-0.204,1.82061 -0.84152,3.40662 -1.19587,5.15453c-0.56876,2.80555 -0.82471,5.82397 -1.57169,8.49723c-0.07609,0.27231 -0.30658,0.55191 -0.52204,0.67658c-0.17994,0.71649 -0.38687,1.42607 -0.47285,2.18249c-0.15569,1.36979 0.07686,2.84819 -0.16091,4.18105c-0.35004,1.96214 -1.28564,3.52286 -1.56934,5.51784c-0.25374,1.78436 0.28424,3.74773 0,5.51783c-0.54492,3.39353 -1.50819,6.54061 -2.40913,9.69394c-0.34498,3.44286 -0.65049,6.90945 -1.37041,10.15089c-0.09442,0.42513 -0.33258,0.60167 -0.6045,0.73c-1.67741,7.66425 -5.90535,13.10314 -10.85588,13.10314c-3.21088,0 -6.11779,-2.28799 -8.22197,-5.98718l-0.1197,-0.21043c0.14671,1.44588 -0.39464,0.14773 -3.82897,-2.77827c-1.09514,-0.93305 -2.03332,-2.35509 -3.08161,-3.44177c-1.88725,-1.95635 -3.95946,-3.65032 -5.76947,-5.80932c-0.85694,-1.02218 -1.53306,-2.48675 -2.42213,-3.42029c-0.41442,-0.43515 -0.96828,-0.24764 -1.40725,-0.60063c-1.34681,-1.08301 -2.71325,-2.16868 -3.91843,-3.68194c-0.68498,-0.86008 -1.00299,-2.42606 -1.66822,-3.3328c-0.1828,-0.24917 -0.47025,0.24055 -0.69071,0.11745c-1.08049,-0.60335 -2.07261,-1.63501 -3.15062,-2.25189c-2.52979,-1.44762 -6.19065,-3.56259 -8.08893,-5.90644c-1.02191,-1.26177 -1.68249,-3.22823 -2.39076,-5.0664c-1.32504,-0.94629 -2.58763,-2.15465 -3.88659,-3.21035c-0.91114,-1.97635 -1.69971,-4.14881 -2.73342,-5.92905c-0.84222,-1.45047 -2.16178,-2.00081 -2.84901,-3.685c-1.43992,-3.52876 -2.93754,-7.31945 -3.38427,-11.59067c-1.38975,-13.28744 0.18646,-14.54446 3.89379,-23.17402c0.94012,-2.18833 1.77449,-4.54458 2.86628,-6.50324c0.25244,-0.45288 0.74806,-0.14316 1.04256,-0.50924c0.12262,-0.15242 -0.50946,-0.03724 -0.42618,-0.25695c0.41024,-1.08228 1.10248,-1.75002 1.56933,-2.75891c0.92629,-2.00176 1.47693,-4.58566 2.59905,-6.24918c1.09525,-1.62369 2.59868,-2.12912 3.85944,-3.32543c0.16097,-0.15274 -0.64459,0.4387 -0.53963,0.17534c1.11948,-2.80883 3.09026,-4.53573 4.28184,-7.15424c0.74897,-1.64589 1.1726,-3.72801 1.99552,-5.26089c0.40143,-0.74775 1.15224,-0.65871 1.56934,-1.37946c0.25723,-0.44449 0.03205,-1.38903 0.28967,-1.83283c1.45495,-2.50649 3.6081,-3.76775 4.77684,-6.70087c1.0217,-2.56408 1.85345,-5.34654 2.78019,-8.01981c0.9975,-1.16938 2.03337,-2.24348 2.99252,-3.50814c1.18367,-1.56068 1.97284,-3.91621 3.13868,-5.51783c0.46084,-0.63309 1.09228,-0.78467 1.56934,-1.37946c1.23827,-1.54384 2.30302,-3.53792 3.52065,-5.11887c0.18056,-0.3479 0.36361,-0.69101 0.54886,-1.0292c0.91733,-1.67466 2.17833,-2.64568 3.2042,-4.11286c0.75961,-1.08638 1.35196,-2.51739 2.14234,-3.53365c1.75486,-2.25641 4.03122,-3.60225 5.70436,-6.12256c0.76132,-1.14681 1.34233,-2.63355 2.10735,-3.77271c2.32873,-3.46759 4.22152,-5.6153 6.66128,-8.46304c3.90727,-4.56065 6.62668,-8.36543 11.10657,-10.88181c0.48361,-0.97758 1.00079,-1.87989 1.62673,-2.54771c1.28572,-1.37174 2.93335,-1.17708 4.38445,-1.87192c0.3114,-0.14911 -1.22863,0.54417 -0.95921,0.23177c1.54902,-1.79612 5.74093,-4.65807 7.23657,-5.74961l0.59411,0.47867c0.66773,-0.38739 1.36224,-0.6713 2.07737,-0.84091v-0.18459h1.56934c6.42176,0 11.62763,9.15197 11.62763,20.44151c0,5.64477 -1.30147,10.75515 -3.40566,14.45433l-2.35401,4.13837l-0.34253,-0.60218c-0.37141,0.3533 -0.755,0.67208 -1.14937,0.95391c-0.31669,1.00992 -0.64938,2.00492 -1.00115,2.98215c-0.71913,1.9978 -2.48496,1.59059 -3.84211,2.13279c0.00187,0.00505 -0.00037,0.01338 -0.00771,0.02566c-0.9058,1.51753 -1.74749,3.23037 -2.82812,4.33922c-0.17867,0.18333 -0.32948,0.31818 -0.45519,0.41017z" fill="#650000" stroke="none" stroke-width="0.5" stroke-linecap="butt"/><path d="M220.02267,148.8647v-47.0755h51.78306v47.0755z" fill="#0077ff" stroke="#000000" stroke-width="2" stroke-linecap="butt"/><path d="M200.1837,201.32027l-2.14876,-20.65588c7.16729,-4.96856 13.69091,-15.51947 14.96507,-23.16439c2.10245,-12.61469 3.6936,-35.47602 -5.35937,-47.11719c-4.29005,-5.51655 -11.00797,-8.65265 -17.86411,-9.10583l-0.01667,-0.16031h31.94408v47.07551l52.11931,1.00876l-1.76075,-46.1407l-0.31537,-0.09092l25.34551,0.57475c-6.23419,4.74792 -11.41208,11.26005 -14.10706,18.22184c-1.38515,3.57818 -3.94656,8.34916 -3.11953,12.24848c0.67537,3.18428 1.42489,6.36042 2.40377,9.46486c0.16409,0.52039 1.67982,1.75924 1.73019,2.31621c0.19606,2.1679 0.40663,4.39183 0,6.53026c-0.36981,1.94478 -2.3137,3.50265 -2.2842,5.48207c0.19086,12.80507 7.1288,23.69457 20.58231,24.63868c0.26925,0.01889 0.53751,0.0327 0.80475,0.04152l-0.09902,16.42991l31.6141,100.39632c-0.03951,-0.00065 -0.07882,-0.00122 -0.11795,-0.00171c-6.90275,-0.08551 -17.05847,-0.11647 -23.96175,-0.11647c-2.21783,0 -8.86703,1.5148 -10.41957,1.0645c-1.65792,-0.48087 -3.35967,-1.82504 -5.03512,-2.49029c-7.81419,-3.10269 -17.3956,-6.15684 -25.92006,-3.65353c-4.0127,-15.86385 -6.86074,-31.7911 -13.83537,-31.72554c-5.52767,0.05199 -3.86409,15.21773 -4.83339,29.64121c-0.56932,8.47163 -1.81917,16.76312 -2.85418,22.6236c-3.15902,-4.60862 -8.35743,-7.4016 -14.78118,-9.00754c-0.422,-0.1055 -4.33671,0.018 -5.30695,-0.61907c-3.09753,-2.03388 -7.76047,-3.68672 -11.54318,-2.83284c-0.89633,0.20233 -8.65499,2.09699 -10.93893,3.47535c-0.62708,0.37844 -0.78193,1.66055 -1.51141,1.5949c-3.37456,-0.30369 -7.23652,-2.84124 -11.05891,-2.95428c-3.79983,-0.11237 -7.9849,0.02839 -12.13546,0.6336z" fill="#ff77e7" stroke="#000000" stroke-width="2" stroke-linecap="butt"/><path d="M237.84414,210.39909l-1.68127,18.83021l-25.89155,-2.0175l4.70754,-22.86524" fill="none" stroke="#000000" stroke-width="2" stroke-linecap="round"/><path d="M295.63538,205.98348l4.70757,22.86528l-25.89155,2.0175l-1.68127,-18.83021" data-paper-data="{&quot;index&quot;:null}" fill="none" stroke="#000000" stroke-width="2" stroke-linecap="round"/><path d="M170.47168,102.81705c0,0 4.94088,-5.29194 4.60527,-12.25196c-0.79551,-16.49767 -6.63558,-46.19275 -5.7989,-55.06156c2.0343,-21.56345 8.06069,-51.96018 8.06069,-51.96018c0,0 10.49427,-21.97392 22.70556,-33.34164c11.51837,-10.72268 24.72771,-13.64141 35.54475,-14.24351c0.64439,2.97301 1.63832,5.86155 3.12666,8.46615c1.93511,3.38645 5.51683,5.63182 8.85563,7.64804c1.91192,1.15456 4.92109,0.04579 6.50039,1.6251c3.41075,3.41075 0.23378,5.96987 2.43016,8.51304c2.10845,2.44137 4.40161,4.73453 6.84298,6.84298c3.89207,3.36133 9.83603,3.0935 14.89355,4.02529c6.32907,1.16606 14.85797,-0.37553 22.45097,-3.43098c4.65088,7.79914 6.48866,13.89552 6.48866,13.89552c0,0 10.88875,31.10687 10.88875,53.84679c0,5.90764 -1.05905,18.12003 -2.2515,30.09394c-1.91868,-6.65067 -6.13134,-12.43875 -12.19719,-16.48265c-6.76258,-4.50838 -18.28667,-1.89378 -25.73164,-1.97866c-3.13452,-0.03574 -5.45322,-2.72279 -8.2217,-3.67736c-2.87599,-0.99164 -7.99518,-1.65245 -10.6947,-2.25136c-8.31941,-1.84575 -17.04384,0.0855 -25.56511,0c-16.69225,-0.16748 -36.95805,-14.2985 -51.75321,6.42172c-1.21448,1.70085 -1.88504,3.65911 -2.34326,5.71786c-1.0868,2.85046 -1.68203,5.94355 -1.68203,9.17568c0,4.7386 1.27939,9.17839 3.51157,12.99278c1.56781,5.80089 6.19268,8.80882 11.76569,10.54603c3.20285,1.42875 6.75095,2.22301 10.48456,2.22301c0.35492,0 0.70817,-0.00718 1.0596,-0.02139c3.82524,0.4702 7.47083,0.82457 10.36549,1.47548c13.47269,3.02956 24.58232,2.82497 39.0201,2.99246c2.36946,0.02748 6.35799,3.39659 8.84745,3.86562c19.4679,3.66787 33.12124,5.11118 48.43793,-8.90704c1.01556,-0.92946 1.87685,-1.55708 2.60212,-2.17512c-0.10285,0.9416 -0.20139,1.84063 -0.29465,2.69033c-0.30356,2.76567 1.45684,5.26126 3.60475,7.2275c-0.1765,-0.00428 -0.35352,-0.00643 -0.53105,-0.00643c-0.17203,0 -0.34359,0.00202 -0.51466,0.00604c-0.8243,-0.10304 -1.83571,0.0161 -2.91579,0.26614c-3.20535,0.51397 -6.17399,1.73647 -8.74019,3.50179c-0.53598,0.25723 -1.06866,0.52836 -1.59737,0.81273z" fill="#0077ff" stroke="#000000" stroke-width="2" stroke-linecap="butt"/><path d="M188.86698,18.5628c0,-1.99831 1.61993,-3.61824 3.61824,-3.61824c1.99831,0 3.61825,1.61993 3.61825,3.61824c0,1.99831 -1.61993,3.61824 -3.61825,3.61824c-1.99831,0 -3.61824,-1.61993 -3.61824,-3.61824z" fill="#000000" stroke="none" stroke-width="0.5" stroke-linecap="butt"/><path d="M184.8213,36.47932c0,-1.99831 1.61993,-3.61824 3.61824,-3.61824c1.99831,0 3.61825,1.61993 3.61825,3.61824c0,0.90145 -0.32965,1.7259 -0.87498,2.35938c-0.67666,0.35242 -1.34728,0.74625 -2.01125,1.18478c-0.2364,0.04857 -0.48123,0.07409 -0.73201,0.07409c-1.99831,0 -3.61824,-1.61993 -3.61824,-3.61825z" fill="#000000" stroke="none" stroke-width="0.5" stroke-linecap="butt"/><path d="M201.58193,28.96594c0,-1.99831 1.61993,-3.61824 3.61824,-3.61824c1.99831,0 3.61824,1.61993 3.61824,3.61824c0,1.99831 -1.61993,3.61825 -3.61824,3.61825c-1.99831,0 -3.61824,-1.61994 -3.61824,-3.61825z" fill="#000000" stroke="none" stroke-width="0.5" stroke-linecap="butt"/><path d="M285.96297,15.09508c0,-1.99831 1.61996,-3.61824 3.61825,-3.61824c1.99828,0 3.61824,1.61993 3.61824,3.61824c0,1.99831 -1.61996,3.61825 -3.61824,3.61825c-1.99828,0 -3.61825,-1.61994 -3.61825,-3.61824z" fill="#000000" stroke="none" stroke-width="0.5" stroke-linecap="butt"/><path d="M272.09211,29.54389c0,-1.99831 1.61993,-3.61824 3.61824,-3.61824c1.99831,0 3.61825,1.61993 3.61825,3.61824c0,1.99831 -1.61993,3.61824 -3.61825,3.61824c-1.99831,0 -3.61824,-1.61993 -3.61824,-3.61824z" fill="#000000" stroke="none" stroke-width="0.5" stroke-linecap="butt"/><path d="M292.8984,30.69979c0,-1.99831 1.61996,-3.61825 3.61824,-3.61825c1.99828,0 3.61825,1.61994 3.61825,3.61825c0,1.99831 -1.61996,3.61824 -3.61825,3.61824c-1.99828,0 -3.61824,-1.61993 -3.61824,-3.61824z" fill="#000000" stroke="none" stroke-width="0.5" stroke-linecap="butt"/><path d="M257.51624,29.6989c-1.2733,2.73279 -3.75157,4.92457 -7.3462,5.82322h-13.25694c-2.21707,1.47805 -6.03829,-2.62107 -7.07185,-3.23774c-0.84061,-0.50154 -1.48695,-1.28288 -1.9491,-2.23895c-2.26116,1.66071 -2.28804,4.50124 -2.28804,9.51184v3.16897c-2.77119,-0.51708 -5.59721,-1.1976 -8.44255,-1.84997v-1.319c0,-1.60339 -0.07926,-9.97903 0.32133,-10.86265c1.99468,-4.39983 6.05356,-6.59441 10.3634,-7.80125c0.90848,-2.45237 2.53023,-4.46151 4.76922,-5.02125c4.77674,-1.19419 18.85843,-3.08929 22.20574,0.42469c1.47685,1.55037 2.50078,3.29923 3.0893,5.09846c4.53301,0.93295 9.13666,3.2097 11.21941,7.70225c1.62973,3.51541 0.39854,11.68717 0.39854,15.66133v0.57796c0,0 0,0.17373 -0.03524,0.4507c-2.24104,-0.74052 -5.71385,-1.29469 -8.39905,-1.77898c0.11651,-5.59094 1.35459,-12.56081 -3.57796,-14.30961z" fill="#000000" stroke="none" stroke-width="0.5" stroke-linecap="butt"/><path d="M218.10447,-9.73907c-2.2848,0.77341 -3.05823,-1.5114 -3.05823,-1.5114l0.14799,0.21256c-0.34897,-0.54455 -0.80606,-1.08474 -1.28385,-1.6209c-7.36377,1.95594 -12.29847,0.34772 -15.72335,-5.2408c-0.84939,-0.94813 -1.4194,-2.01263 -1.55676,-3.048c-0.38157,-0.88962 -0.7405,-1.84662 -1.07877,-2.87191l0.10869,-0.34019l-0.14809,0.00711l-0.11513,-2.39188c-0.07581,-1.06823 0.57163,-2.09462 1.63339,-2.45403c1.18598,-0.40145 2.46677,0.17215 2.97115,1.2902l1.27649,2.73232l-0.0885,0.04134c0.08128,0.11811 0.15962,0.23847 0.23463,0.36132c0.50743,0.83085 0.19237,2.38298 0.45325,3.58402c0.24826,0.46265 0.50354,0.88538 0.76783,1.26978c0.21133,0.14579 0.47366,0.25639 0.79963,0.32212c0.94808,0.19114 2.86755,-0.17625 4.66189,-0.56644c0.04274,-0.01722 0.08622,-0.03332 0.1304,-0.0483c0.21741,-0.0736 0.43798,-0.11441 0.65637,-0.12515c1.18642,-0.26369 2.23794,-0.50081 2.80276,-0.53951l0.18252,1.09654c1.60498,-0.01451 2.82941,0.49452 4.00863,1.56708c0.66271,0.09737 1.41512,0.47927 1.79768,1.60946c0.07943,0.23464 0.12659,0.45335 0.14731,0.6569c0.44943,0.62115 0.91726,1.32047 1.41983,2.09991l0.36361,0.84955c0,0 0.7734,2.2848 -1.5114,3.05821z" fill="#000000" stroke="none" stroke-width="0.5" stroke-linecap="butt"/><path d="M264.68546,-13.85037l0.36361,-0.84956c0.5026,-0.77947 0.97041,-1.47878 1.41984,-2.09991c0.02071,-0.20356 0.06788,-0.42226 0.14731,-0.6569c0.38257,-1.13019 1.13493,-1.51209 1.79766,-1.60946c1.17924,-1.07257 2.40368,-1.58162 4.00863,-1.56708l0.18255,-1.09654c0.5648,0.0387 1.61632,0.27582 2.80277,0.5395c0.2184,0.01074 0.43897,0.05156 0.65637,0.12512c0.04419,0.01495 0.08767,0.03106 0.1304,0.0483c1.79431,0.39019 3.71377,0.75756 4.66188,0.56645c0.32598,-0.06571 0.58833,-0.1763 0.79964,-0.32209c0.26428,-0.3844 0.51955,-0.80716 0.76783,-1.26978c0.26085,-1.20104 -0.05419,-2.75316 0.45324,-3.58401c0.07504,-0.12285 0.15336,-0.2432 0.23464,-0.36133l-0.0885,-0.04134l1.18246,-2.53104c1.41643,-0.05795 2.88101,-0.20388 4.37122,-0.42923c0.24313,0.41394 0.36239,0.8984 0.32738,1.39179l-0.11513,2.39185l-0.14809,-0.00711l0.10872,0.34019c-0.33828,1.02529 -0.69721,1.98229 -1.07879,2.87191c-0.13736,1.0354 -0.70736,2.09991 -1.55676,3.04801c-3.42489,5.58849 -8.35958,7.19673 -15.72335,5.24078c-0.4778,0.53613 -0.93488,1.07634 -1.28385,1.6209l0.14799,-0.21253c0,0 -0.77341,2.28479 -3.05824,1.51141c-2.28479,-0.77341 -1.51141,-3.0582 -1.51141,-3.0582z" fill="#000000" stroke="none" stroke-width="0.5" stroke-linecap="butt"/><path d="M186.2458,93.22768c-5.32083,-1.73136 -8.30868,-8.2803 -7.55898,-13.33459c0.37634,-2.53727 0.36642,-5.54417 0.50793,-8.61223c0.52754,1.4382 1.17966,2.8163 1.94328,4.12119c1.56781,5.80089 6.19268,8.80882 11.76569,10.54603c3.20285,1.42875 6.75095,2.22301 10.48456,2.22301c0.23472,0 0.46871,-0.00314 0.70192,-0.00938c-1.46838,7.43755 -11.39216,7.16545 -17.8444,5.06597z" fill="#002ccd" stroke="none" stroke-width="0.5" stroke-linecap="butt"/><path d="M288.84813,41.06717c2.50534,-0.62635 5.47579,2.02966 7.26021,1.71401c2.95031,-0.5219 3.752,-4.37182 7.30523,-4.17443c9.52346,0.52907 11.17778,10.30157 9.53781,20.20594c-2.25412,-3.84227 -5.40511,-7.1925 -9.33328,-9.81128c-6.76258,-4.50838 -18.28667,-1.89378 -25.73164,-1.97866c-0.22337,-0.00254 -0.44259,-0.01855 -0.65813,-0.04644c0.31306,-0.5497 0.72237,-1.01113 1.28933,-1.32695c1.05478,-0.95401 2.33554,-1.66283 3.75238,-2.03654c2.09313,-1.06952 4.12655,-1.93277 6.57808,-2.54566z" fill="#002ccd" stroke="none" stroke-width="0.5" stroke-linecap="butt"/><path d="M203.72043,-34.38325c-3.46261,0.19237 -6.12909,-9.70161 -3.89348,-12.79819c6.32676,-8.76348 25.55781,-18.72165 37.19646,-13.98673c0.47631,1.24128 1.03628,2.44449 1.69231,3.59253c1.27678,2.23438 3.27038,3.972 5.43808,5.4748c0.02511,3.00637 -1.35751,6.13634 -3.25745,8.36073c-4.58491,5.36785 -12.8042,3.3351 -16.10409,5.33992c-7.97217,4.84337 -7.36061,10.75507 -17.6593,4.87008z" fill="#002ccd" stroke="none" stroke-width="0.5" stroke-linecap="butt"/><path d="M268.64851,-30.38532c9.63664,0 17.44866,9.78979 17.44866,21.86607c0,12.07628 -7.81204,21.86607 -17.44866,21.86607c-9.63664,0 -17.4487,-9.78979 -17.4487,-21.86606c0,-12.07628 7.81205,-21.86607 17.4487,-21.86607z" fill="#750000" stroke="none" stroke-width="0" stroke-linecap="butt"/><path d="M235.10153,-6.67079c0,12.88373 -8.33439,23.32814 -18.61536,23.32814c-10.28098,0 -18.61533,-10.44437 -18.61533,-23.32814c0,-12.88373 8.33437,-23.32809 18.61533,-23.32809c10.28098,0 18.61536,10.44432 18.61536,23.32809z" fill="#750000" stroke="none" stroke-width="0" stroke-linecap="butt"/><path d="M182.93604,254.90625c0,-4.60783 2.35209,-8.66631 5.92114,-11.04029c-0.48478,-2.05139 -0.6593,-4.31094 -0.52552,-6.6733c0.13734,-2.42504 0.82556,-5.00039 1.91914,-7.37996c-3.25367,-3.42138 -4.57417,-8.68017 -3.81476,-13.90644c0,-2.46741 0.67444,-4.7773 1.84903,-6.75537c0.21759,-0.47324 0.45738,-0.93178 0.72163,-1.36605c-2.33642,-3.35453 -3.22454,-7.87861 -2.57066,-12.37858c0,-2.46741 0.67444,-4.7773 1.84903,-6.75537c1.01402,-2.20538 2.51001,-4.09167 4.71844,-4.68854c0.01322,-0.00773 0.02646,-0.01545 0.03971,-0.02314c-3.30233,-4.01081 -4.37926,-9.51763 -1.80056,-14.50464c1.29562,-2.50564 2.77208,-2.82644 4.13922,-4.55315c0.53207,-1.04038 1.19765,-2.00116 1.97413,-2.85974c-0.13939,-2.05367 -1.03146,-3.70828 -0.41997,-6.27167c0.909,-3.81055 2.30346,-6.06832 5,-8.98437c1.17991,-1.27597 -0.74914,-3.39446 -1.08255,-5.10008c-0.34595,-1.7697 1.27707,-3.09288 1.23007,-4.8434c-0.08944,-3.33121 -9.25709,-7.14917 -11.34881,-9.01211c-2.00417,-1.78496 -3.53626,-5.48377 -3.38126,-8.16309c0.1055,-1.82363 2.45454,-4.19885 1.05845,-5.37685c-2.41629,-0.93364 -4.49031,-2.5552 -5.98188,-4.62452c-1.5514,-1.54036 -2.63265,-3.38127 -2.35109,-5.78632c-0.09416,-0.63735 -0.14293,-1.28949 -0.14293,-1.95302c0,-3.50175 1.35841,-6.68623 3.57702,-9.05522c0.55945,-0.8752 1.2469,-1.63462 2.13782,-2.20909c1.95084,-1.2579 3.86219,-1.79021 5.75211,-1.86675c0.58318,-0.07845 1.17839,-0.11894 1.78306,-0.11894c2.68813,0 5.18929,0.80049 7.27811,2.17611c1.34315,0.49739 2.69033,1.00522 4.04825,1.42312c2.11163,0.64986 5.39481,1.54201 6.91275,3.50999c3.10266,4.02255 4.45173,7.14782 5.0109,12.14079c0.18404,1.64333 -0.87413,3.34095 -0.45314,4.94006c0.16799,0.63811 2.69297,2.42412 3.04966,2.78274c3.21752,3.23489 5.8047,7.31395 8.24723,11.15221c1.1468,1.80211 1.54114,4.60478 1.65625,6.625c0.17685,3.10385 -0.99408,6.23641 -0.53543,9.31128c0.35881,2.40554 0.52381,7.28731 0.13552,8.97276c-1.03047,4.47299 -2.3324,6.65346 -4.71433,10.25904c-0.59816,0.90545 -0.12651,5.04581 -0.28138,6.17051c-0.86705,6.29683 -5.64994,17.0202 -12.12265,18.31474c-0.52144,0.10429 -1.05198,0.18193 -1.58728,0.23262c0.48574,0.58765 0.96459,1.28283 1.44929,2.11405c3.36349,5.76806 2.72177,13.66726 -1.0537,18.8906c0.3514,0.47176 0.701,1.00456 1.0537,1.6094c2.52197,4.32494 2.79217,9.84804 1.17794,14.54289c1.58506,1.02429 2.74863,2.33227 3.17222,3.89957c1.14807,1.96185 1.80609,4.24535 1.80609,6.68254c0,2.83595 -0.89095,5.4638 -2.40822,7.61892c-1.41636,3.65598 -3.35501,7.3131 -6.03817,9.45801c0.29119,1.09194 0.4464,2.23938 0.4464,3.42307c0,7.31777 -5.93222,13.25 -13.25,13.25c-7.31778,0 -13.25,-5.93223 -13.25,-13.25z" fill="#3d0000" stroke="none" stroke-width="0.5" stroke-linecap="butt"/><path d="M308.93604,108.40625c-0.40965,1.5157 -0.52086,3.17265 -0.8651,4.71931c-0.23568,1.05888 -0.58057,2.06606 -1.20521,2.94085c-0.25198,0.35288 -0.68052,0.69262 -1.17463,1.02701c-0.92793,1.0678 -2.02398,1.98559 -3.24694,2.71218c-0.00418,0.02872 -0.00691,0.05754 -0.00812,0.08645c-0.08823,2.11314 0.62874,10.09252 -0.86739,13.02764c-2.93925,5.76623 -6.28939,11.79101 -6.13261,18.35867c0.02228,0.93325 1.63989,7.29184 2.09217,7.86544c1.79338,2.2744 4.71808,3.07047 6.25158,6.13746c0.61085,1.2217 0.31426,3.91737 1.16804,4.67215c0.35387,0.31284 2.17215,0.07465 2.73821,0.20285c4.29472,0.97267 8.67099,1.19962 11.17969,5.58984c5.85817,10.25179 -1.47159,22.05258 -13.17969,20.91016c-8.38772,-0.81843 -17.07167,-3.55222 -22.61046,-10.34303c-1.36163,-1.66941 -1.25858,-5.30385 -2.77442,-6.63313c-1.8779,-1.64679 -4.02667,-2.88481 -5.72558,-4.86687c-2.90312,-3.38697 -2.35578,-8.5013 -3.24392,-12.48785c-1.52711,-6.85468 -4.40783,-12.0749 -2.46708,-19.83785c0.86073,-3.44291 2.33726,-5.63138 3.71137,-8.65114c0.68379,-1.50269 0.38907,-3.08024 1.04005,-4.62016c0.47838,-1.13161 2.25039,-3.76991 2.32005,-4.57437c0.44653,-5.15667 -1.88265,-17.3667 2.63954,-22.64258c3.99637,-4.66242 8.84072,-6.42562 14.13354,-6.50728c2.95742,-0.04563 6.05485,0.43374 9.2226,1.22568c1.86744,0.46686 4.67492,3.06981 5.19823,5.00604z" fill="#3d0000" stroke="none" stroke-width="0.5" stroke-linecap="butt"/><path d="M168.43604,309.40625c0.40965,-1.51571 0.52087,-3.17265 0.86511,-4.71931c0.23567,-1.05888 0.58057,-2.06606 1.20521,-2.94085c1.07475,-1.50516 2.3421,-2.52758 3.7259,-3.29602c1.67397,-1.14105 3.62295,-1.90849 5.727,-2.18233c1.16338,-0.36836 2.33735,-0.75841 3.49018,-1.26554c6.13444,-2.69855 12.02488,-5.96385 18.61739,-7.44854c4.34045,-0.97751 8.60967,1.79871 12.52665,3.02166c4.30361,1.34366 9.90087,1.95818 14.37288,2.401c9.74911,0.96535 26.94351,4.84071 25.55225,18.17062c-0.82,7.85649 -7.08787,13.13424 -15.1843,12.68444c-2.34759,-0.13042 -4.12851,-2.26926 -6.29642,-3.1794c-5.91183,-2.48192 -15.4922,-2.92783 -21.95038,-3.75305c-2.07744,-0.26545 -4.84568,-1.78408 -6.85835,-1.84494c-0.92055,-0.02783 -2.9554,1.58086 -3.85309,1.9223c-2.07942,0.79091 -4.26781,1.2801 -6.33174,2.11058c-3.51028,1.41246 -6.11825,2.86021 -10.01915,3.67151c-4.00489,0.83293 -12.5263,-2.01966 -13.78304,-6.6696z" fill="#3d0000" stroke="none" stroke-width="0.5" stroke-linecap="butt"/><path d="M263.00636,289.2461c1.22738,-1.71891 2.62011,-2.82331 4.15642,-3.57742c2.03612,-1.27522 4.4436,-2.01243 7.02326,-2.01243c0.36696,0 0.73044,0.01492 1.08986,0.04418c0.09274,-0.01458 0.18574,-0.02929 0.279,-0.04418c9.85606,-1.57323 18.9221,-3.51239 28.98995,-4.38698c9.96677,-0.86581 18.77601,-2.23386 22.8287,8.38698c0.84759,2.22127 4.81101,0.59301 6.9375,1.65625c4.58932,2.29467 6.625,6.43743 6.625,11.59375c0,16.83988 -21.62122,14.50018 -32.375,11.59375c-1.53238,-0.41415 -3.5226,-2.73854 -4.55469,-3.9336c-0.27699,-0.32072 -0.6568,-2.56173 -0.7975,-2.5689c-3.20549,-0.16352 -6.39951,0.5532 -9.57418,1.0258c-3.222,0.47965 -6.40993,1.16879 -9.59993,1.82855c-1.9155,0.39618 -4.51603,0.8632 -7.2501,1.04967c-0.8403,0.1671 -1.70922,0.25472 -2.59861,0.25472c-1.15253,0 -2.27068,-0.14715 -3.3367,-0.42368c-3.80764,-0.58224 -7.06244,-2.27816 -8.1072,-6.14378c-1.14807,-1.96184 -1.8061,-4.24535 -1.8061,-6.68254c0,-1.66237 0.30614,-3.25324 0.86511,-4.71931c0.23568,-1.05888 0.58056,-2.06606 1.2052,-2.94085z" fill="#3d0000" stroke="none" stroke-width="0.5" stroke-linecap="butt"/><path d="M273.68604,241.90625c0,-6.90356 5.59644,-12.5 12.5,-12.5c5.505,0 10.17885,3.55861 11.84662,8.50092c0.05106,-0.00062 0.10218,-0.00092 0.15338,-0.00092c2.49977,0 4.82815,0.73378 6.78151,1.99769c1.53667,0.77084 2.8229,1.96619 4.15599,4.25231c5.79688,9.94108 -1.86831,29.71378 -15.458,26.04089c-8.24287,-2.2278 -10.80313,-9.05488 -9.65454,-15.97945c-5.86672,-1.02936 -10.32497,-6.14976 -10.32497,-12.31143z" fill="#3d0000" stroke="none" stroke-width="0.5" stroke-linecap="butt"/><path d="M188.41261,8.35938c1.56481,1.11734 2.72263,2.58474 3.57933,4.2593c0.79092,1.35634 1.33377,2.87508 1.56639,4.49402c0.85377,3.79882 0.87034,7.94661 0.87034,11.33526c0,2.55582 -2.34647,4.60178 -2.89667,6.88836c-0.62396,2.59311 -0.47583,5.48079 -1.79909,7.79651c-2.4367,4.26423 -9.44297,5.52772 -14.04687,5.77343c-14.11968,0.75359 -21.10665,-6.67636 -16.4375,-19.75c1.37754,-3.85712 8.37426,-6.71279 9.4375,-8.77171c0.02409,-0.04665 0.04764,-0.09374 0.07067,-0.14125c-0.04671,-0.43929 -0.07067,-0.88536 -0.07067,-1.33704c0,-2.50363 0.73606,-4.83535 2.00357,-6.79057c0.64626,-1.83487 1.78977,-3.35627 4.19216,-4.00557c1.8508,-1.08309 4.00504,-1.70386 6.30428,-1.70386c1.56828,0 3.0691,0.2888 4.45218,0.81614c0.99893,0.22234 1.94911,0.5477 2.77439,1.13699z" fill="#3d0000" stroke="none" stroke-width="0.5" stroke-linecap="butt"/><path d="M315.41261,12.85938c1.38387,0.98814 2.90472,2.91428 3.71094,4.29688c2.02777,3.47743 9.53993,16.61039 8.22773,20.49693c-2.91483,8.63329 -12.53931,14.99909 -22.07588,12.87985c-4.72532,-1.05007 -7.53632,-4.37587 -8.71613,-9.09508c-0.74284,-2.97137 0.56919,-6.11955 1.27886,-9.09902c0.15852,-0.66552 -1.88387,-4.12728 -2.09718,-4.98051c-1.09209,-4.36837 1.0164,-13.36333 6.14081,-14.74831c1.8508,-1.08309 4.00504,-1.70386 6.30428,-1.70386c1.56828,0 3.0691,0.2888 4.45218,0.81614c0.99894,0.22233 1.94911,0.5477 2.77438,1.13698z" fill="#3d0000" stroke="none" stroke-width="0.5" stroke-linecap="butt"/><path d="M237.47693,-46.07324c-0.29137,0.95389 -0.82347,1.91466 -1.53801,2.85713c-1.34369,2.26062 -3.38,4.06141 -5.81636,5.10978c-4.19704,2.70448 -9.2322,4.59046 -12.63529,4.59046c-4.84059,0 -8.30611,-2.63681 -10.48156,-6.98771c-2.52248,-5.04496 -0.39856,-14.7288 4.95378,-18.13704c2.52457,-1.60759 6.22682,-1.79604 8.99691,-2.7194c1.32101,-0.47494 2.7451,-0.73372 4.22965,-0.73372c3.63706,0 6.91132,1.55335 9.19556,4.03281c3.01109,2.8495 4.61158,7.02386 3.09533,11.9877z" fill="#3d0000" stroke="none" stroke-width="0.5" stroke-linecap="butt"/><path d="M189.18604,44.40625l39,27l15.5,-16.5l22,19l38.5,-18" fill="none" stroke="#000000" stroke-width="4.5" stroke-linecap="round"/></g></g></svg>