<svg version="1.1" xmlns="http://www.w3.org/2000/svg" xmlns:xlink="http://www.w3.org/1999/xlink" width="192.365" height="158.7149" viewBox="0,0,192.365,158.7149"><g transform="translate(-147.40163,-85.4416)"><g data-paper-data="{&quot;isPaintingLayer&quot;:true}" fill-rule="nonzero" stroke-linejoin="miter" stroke-miterlimit="10" stroke-dasharray="" stroke-dashoffset="0" style="mix-blend-mode: normal"><g><path d="M151.70311,239.98301c-4.7248,-3.93933 -4.28537,-8.87862 -4.28537,-8.87862v-120.59964c0,0 -0.67394,-13.03631 6.69589,-19.08773c8.90594,-7.31271 16.6836,-5.64959 16.6836,-5.64959h149.09782c0,0 9.73171,-1.95624 15.11488,3.71779c5.38317,5.67403 4.71391,17.18239 4.71391,17.18239v108.90951c0,0 0.97893,12.93479 -6.42806,21.12548c-7.40699,8.19069 -19.40025,7.43559 -19.40025,7.43559h-150.84512c0,0 -6.6225,-0.21586 -11.3473,-4.15518z" fill="#000000" stroke="none" stroke-width="none" stroke-linecap="butt"/><path d="M158.75,234.43958c-4.41017,-3.60259 -4,-8.11969 -4,-8.11969v-110.29086c0,0 -0.62907,-11.92197 6.25,-17.45612c8.31287,-6.68763 15.5726,-5.16667 15.5726,-5.16667h139.16905c0,0 9.08365,-1.78902 14.10834,3.4c5.02469,5.18902 4.4,15.71365 4.4,15.71365v99.6c0,0 0.91375,11.82913 -6,19.31969c-6.91375,7.49056 -18.10834,6.8 -18.10834,6.8h-140.8c0,0 -6.18149,-0.19741 -10.59166,-3.8z" fill="#4fb6ff" stroke="none" stroke-width="none" stroke-linecap="butt"/><path d="M267.33078,169.37032l-9.28242,-10.12923l4.53153,-50.94914l4.11193,20.8655l19.06486,-1.25318l4.62202,19.29446l19.14104,3.13062z" data-paper-data="{&quot;index&quot;:null}" fill="#31a1dc" stroke="#23729d" stroke-width="3.5" stroke-linecap="butt"/><path d="M164.45837,161.67537l17.95068,-7.34529l0.17527,-19.83957l18.85999,-3.05617l-0.67429,-21.25611l15.84697,48.63356l-6.77317,11.95361z" fill="#31a1dc" stroke="#23729d" stroke-width="3.5" stroke-linecap="butt"/><path d="M274.9851,185.89528c0,19.37511 -15.66336,35.08175 -34.9851,35.08175c-19.32174,0 -34.98511,-15.70664 -34.98511,-35.08175c0,-19.37511 15.66337,-35.08175 34.98511,-35.08175c19.32174,0 34.9851,15.70664 34.9851,35.08175z" fill="#31a1dc" stroke="#23729d" stroke-width="3.5" stroke-linecap="butt"/><path d="M214.50512,200.83885c0,-2.07107 1.67893,-3.75 3.75,-3.75c2.07107,0 3.75,1.67893 3.75,3.75c0,2.07107 -1.67893,3.75 -3.75,3.75c-2.07107,0 -3.75,-1.67893 -3.75,-3.75z" fill="#216e97" stroke="none" stroke-width="0.5" stroke-linecap="butt"/><path d="M222.44033,209.5368c0,-1.10457 0.89543,-2 2,-2c1.10457,0 2,0.89543 2,2c0,1.10457 -0.89543,2 -2,2c-1.10457,0 -2,-0.89543 -2,-2z" fill="#216e97" stroke="none" stroke-width="0.5" stroke-linecap="butt"/><path d="M223.62321,198.71268c0,-1.51879 1.23121,-2.75 2.75,-2.75c1.51879,0 2.75,1.23121 2.75,2.75c0,1.51879 -1.23121,2.75 -2.75,2.75c-1.51879,0 -2.75,-1.23121 -2.75,-2.75z" fill="#216e97" stroke="none" stroke-width="0.5" stroke-linecap="butt"/><path d="M253.55968,163.14772c0,-1.10457 0.89543,-2 2,-2c1.10457,0 2,0.89543 2,2c0,1.10457 -0.89543,2 -2,2c-1.10457,0 -2,-0.89543 -2,-2z" fill="#216e97" stroke="none" stroke-width="0.5" stroke-linecap="butt"/><path d="M246.0446,164.30744c0,-1.51879 1.23121,-2.75 2.75,-2.75c1.51879,0 2.75,1.23121 2.75,2.75c0,1.51879 -1.23121,2.75 -2.75,2.75c-1.51879,0 -2.75,-1.23121 -2.75,-2.75z" fill="#216e97" stroke="none" stroke-width="0.5" stroke-linecap="butt"/><path d="M253.86639,167.20676c0,-0.82843 0.67157,-1.5 1.5,-1.5c0.82843,0 1.5,0.67157 1.5,1.5c0,0.82843 -0.67157,1.5 -1.5,1.5c-0.82843,0 -1.5,-0.67157 -1.5,-1.5z" fill="#216e97" stroke="none" stroke-width="0.5" stroke-linecap="butt"/><path d="M200.83977,135.06061c0.95479,-1.35408 2.8265,-1.67777 4.18059,-0.72298c1.35408,0.95479 1.67777,2.8265 0.72298,4.18059c-0.95479,1.35408 -2.8265,1.67777 -4.18058,0.72298c-1.35408,-0.95479 -1.67778,-2.8265 -0.72299,-4.18058z" fill="#216e97" stroke="none" stroke-width="0.5" stroke-linecap="butt"/><path d="M286.93902,155.01096c-0.07304,-0.06541 -0.14212,-0.13358 -0.20723,-0.20423c-1.14371,-0.9228 -1.66941,-2.36849 -0.14288,-3.89363c0.03728,-0.04696 0.07618,-0.0931 0.1167,-0.13835c0.22733,-0.25384 0.48812,-0.45989 0.76973,-0.61746c1.14854,-0.75884 2.12464,-0.66138 2.81637,-0.06041c0.2301,0.11623 0.44891,0.26427 0.65011,0.44446c1.23425,1.10534 1.33875,3.00196 0.23341,4.23621c-0.24619,0.90093 -1.21012,1.16927 -2.26601,0.99848c-0.70258,-0.00703 -1.40568,-0.2595 -1.97021,-0.76507z" fill="#216e97" stroke="none" stroke-width="0.5" stroke-linecap="butt"/><path d="M195.30556,140.14558c0.4774,-0.67704 1.41325,-0.83889 2.09029,-0.3615c0.67704,0.4774 0.83889,1.41325 0.36149,2.09029c-0.4774,0.67704 -1.41325,0.83889 -2.09029,0.36149c-0.67704,-0.4774 -0.83889,-1.41325 -0.36149,-2.09029z" fill="#216e97" stroke="none" stroke-width="0.5" stroke-linecap="butt"/><path d="M202.72864,142.06864c0.71609,-1.01556 2.11988,-1.25833 3.13544,-0.54224c1.01556,0.71609 1.25833,2.11988 0.54224,3.13544c-0.71609,1.01556 -2.11988,1.25833 -3.13544,0.54224c-1.01556,-0.71609 -1.25833,-2.11988 -0.54224,-3.13544z" fill="#216e97" stroke="none" stroke-width="0.5" stroke-linecap="butt"/><path d="M281.47947,155.89209c-0.61712,-0.55267 -0.66937,-1.50099 -0.1167,-2.11811c0.55267,-0.61712 1.50098,-0.66938 2.11811,-0.1167c0.61712,0.55267 0.66937,1.50099 0.1167,2.11811c-0.55267,0.61712 -1.50099,0.66938 -2.11811,0.1167z" fill="#216e97" stroke="none" stroke-width="0.5" stroke-linecap="butt"/><path d="M281.93777,149.00632c-0.92569,-0.82901 -1.00406,-2.25147 -0.17505,-3.17716c0.82901,-0.92569 2.25147,-1.00406 3.17716,-0.17505c0.92569,0.82901 1.00406,2.25147 0.17505,3.17716c-0.82901,0.92569 -2.25148,1.00407 -3.17717,0.17506z" fill="#216e97" stroke="none" stroke-width="0.5" stroke-linecap="butt"/><path d="M235.65103,179.86712c0,7.41912 -6.01439,13.4335 -13.43351,13.4335c-7.41912,0 -13.4335,-6.01439 -13.4335,-13.4335c0,-7.41912 6.01439,-13.43351 13.4335,-13.43351c7.41912,0 13.43351,6.01439 13.43351,13.43351z" fill="#ffffff" stroke="#000000" stroke-width="2.5" stroke-linecap="butt"/><path d="M263.87105,170.10608l-12.37042,10.43755l15.46303,7.34494" fill="none" stroke="#000000" stroke-width="3.5" stroke-linecap="round"/><path d="M232.54213,180.46176c0,4.81176 -3.58864,8.71247 -8.01546,8.71247c-4.42682,0 -8.01547,-3.90071 -8.01547,-8.71247c0,-4.81176 3.58865,-8.71247 8.01547,-8.71247c4.42682,0 8.01546,3.90071 8.01546,8.71247z" fill="none" stroke="#000000" stroke-width="3.5" stroke-linecap="butt"/><path d="M223.48117,174.53729c0,2.38664 -1.74751,4.32138 -3.90318,4.32138c-2.15567,0 -3.90319,-1.93474 -3.90319,-4.32138c0,-2.38664 1.74752,-4.32138 3.90319,-4.32138c2.15567,0 3.90318,1.93475 3.90318,4.32138z" fill="#ffffff" stroke="#000000" stroke-width="0" stroke-linecap="butt"/><path d="M235.24909,198.48579c0,0 5.74187,1.08759 8.60198,1.15272c2.49466,0.05681 7.61268,-0.78346 7.61268,-0.78346" fill="none" stroke="#000000" stroke-width="2" stroke-linecap="round"/><path d="M247.31922,203.63675l-1.61094,-3.49036h4.11684l-2.4164,3.49036z" fill="#ffffff" stroke="#000000" stroke-width="1" stroke-linecap="butt"/><path d="M230.25362,219.07022c-1.25466,4.35994 -6.18042,6.76957 -11.002,5.38206c-4.82157,-1.38751 -7.71314,-6.04672 -6.45848,-10.40666c0.61656,-2.14254 2.69798,-10.21953 4.64111,-9.24114c0.93682,0.4717 1.89364,3.2078 3.09622,3.58092c2.12125,0.65814 4.64025,-1.26291 6.16399,-0.68828c6.75446,2.54723 4.81382,7.01316 3.55916,11.3731z" fill="#31a1dc" stroke="#23729d" stroke-width="3.5" stroke-linecap="butt"/><path d="M278.71608,189.00848l-1.89876,-6.65818c0,0 8.55537,13.37365 11.08493,21.83593c2.07053,6.92666 2.99295,25.25955 2.99295,25.25955l-9.42417,-16.58915l-9.43438,13.91487l-0.96578,-10.09385l-11.11124,8.1733z" data-paper-data="{&quot;index&quot;:null}" fill="#22719c" stroke="#1b5879" stroke-width="3.5" stroke-linecap="butt"/><path d="M255.96685,207.35356c1.3287,-0.94155 4.25188,0.27947 6.13752,-0.89409c1.06899,-0.66531 1.30223,-3.5545 2.08917,-4.24793c1.63227,-1.4383 5.69003,5.84899 6.82875,7.76574c2.31722,3.90047 0.69893,9.13981 -3.61453,11.70238c-4.31347,2.56257 -9.68869,1.47798 -12.00591,-2.42249c-2.31722,-3.90047 -5.32491,-7.72989 0.56501,-11.9036z" data-paper-data="{&quot;index&quot;:null}" fill="#31a1dc" stroke="#23729d" stroke-width="3.5" stroke-linecap="butt"/></g></g></g></svg>