<svg version="1.1" xmlns="http://www.w3.org/2000/svg" xmlns:xlink="http://www.w3.org/1999/xlink" width="113.42878" height="107.52534" viewBox="0,0,113.42878,107.52534"><g transform="translate(-193.75866,-124.59399)"><g data-paper-data="{&quot;isPaintingLayer&quot;:true}" fill-rule="nonzero" stroke-linejoin="miter" stroke-miterlimit="10" stroke-dasharray="" stroke-dashoffset="0" style="mix-blend-mode: normal"><g stroke-linecap="butt"><path d="M259.9384,183.29575l43.905,11.21787l-11.63875,28.11472l-13.00507,5.7629l-24.29251,-34.80918z" fill="#774220" stroke="#532e16" stroke-width="2.5"/><path d="M305.83867,191.29202c0.16982,0.17673 0.32063,0.38433 0.45404,0.61792c0.20722,0.32463 0.36755,0.68695 0.46919,1.08001c0.02586,0.09999 0.04742,0.20007 0.06482,0.30007c0.71178,2.76188 0.23545,6.96005 -0.27375,9.069c-0.73736,3.05395 -2.98355,6.14494 -4.79891,8.68104c-0.96884,1.35349 -1.42538,3.15599 -2.15914,4.63306c-2.38575,4.80252 -6.47162,8.59481 -10.62665,11.71511c-3.01617,2.26505 -6.44181,6.0402 -10.4961,4.27555c-4.32402,-1.88205 -6.53951,-8.24181 -8.50886,-12.00637c-1.07128,-2.04784 -2.64597,-3.92619 -2.92656,-6.30987c-0.11003,-0.93473 2.84725,-5.44981 3.71331,-6.41806c0.40437,-0.45208 1.85586,-0.35314 1.58409,-0.89539c-0.4525,-0.90286 0.3032,-3.36175 1.00129,-4.04164c2.56091,-2.49415 4.47875,0.94135 6.06998,1.73714c1.09994,0.55009 1.79386,-1.73216 2.88459,-2.30029c1.32858,-0.69202 3.11624,-3.83107 3.98553,-5.10391c1.71889,-2.51686 8.92069,-4.42257 11.49097,-5.82014c0.93127,-0.50637 2.7453,-0.47602 3.59476,0.11658c0.25774,-0.13769 0.5358,-0.24724 0.83123,-0.32363c1.1815,-0.30552 2.37711,-0.01258 3.26607,0.68984c0.13711,0.08379 0.26461,0.18378 0.3801,0.30398z" fill="#8e2626" stroke="none" stroke-width="0.5"/><path d="M301.59431,197.09672c0.5347,-0.13827 1.08024,0.1831 1.21851,0.7178c0.13827,0.5347 -0.1831,1.08024 -0.7178,1.21851c-0.5347,0.13827 -1.08024,-0.1831 -1.21851,-0.7178c-0.13827,-0.5347 0.1831,-1.08024 0.7178,-1.21851z" fill="#000000" stroke="none" stroke-width="0.5"/><path d="M277.6907,210.50818c0.5347,-0.13827 1.08024,0.1831 1.21851,0.7178c0.13827,0.5347 -0.1831,1.08024 -0.7178,1.21851c-0.5347,0.13827 -1.08024,-0.1831 -1.21851,-0.7178c-0.13827,-0.5347 0.1831,-1.08024 0.7178,-1.21851z" fill="#000000" stroke="none" stroke-width="0.5"/><path d="M293.50943,207.10623c0.5347,-0.13827 1.08024,0.1831 1.21851,0.7178c0.13827,0.5347 -0.1831,1.08024 -0.7178,1.21851c-0.5347,0.13827 -1.08024,-0.1831 -1.21851,-0.7178c-0.13827,-0.5347 0.1831,-1.08024 0.7178,-1.21851z" fill="#000000" stroke="none" stroke-width="0.5"/><path d="M282.46697,226.31582c0.5347,-0.13827 1.08024,0.1831 1.21851,0.7178c0.13827,0.5347 -0.1831,1.08024 -0.7178,1.21851c-0.5347,0.13827 -1.08024,-0.1831 -1.21851,-0.7178c-0.13827,-0.5347 0.1831,-1.08024 0.7178,-1.21851z" fill="#000000" stroke="none" stroke-width="0.5"/><path d="M287.02472,200.00351c0.5347,-0.13827 1.08024,0.1831 1.21851,0.7178c0.13827,0.5347 -0.1831,1.08024 -0.7178,1.21851c-0.5347,0.13827 -1.08024,-0.1831 -1.21851,-0.7178c-0.13827,-0.5347 0.1831,-1.08024 0.7178,-1.21851z" fill="#000000" stroke="none" stroke-width="0.5"/><path d="M303.13092,200.371c-0.74534,-0.66668 -0.07866,-1.41202 -0.07866,-1.41202l0.63259,-0.6348c0.05153,-0.80873 0.14537,-1.61524 0.26779,-2.41631c0,0 0.15126,-0.98849 1.13976,-0.83723c0.98849,0.15126 0.83723,1.13976 0.83723,1.13976c-0.14919,0.97354 -0.28534,1.94908 -0.41675,2.92517l-0.96992,1.15678c0,0 -0.66669,0.74534 -1.41203,0.07866z" fill="#ffdd66" stroke="none" stroke-width="0.5"/><path d="M295.07486,204.35188c0.02525,-0.99968 1.02493,-0.97443 1.02493,-0.97443l1.36685,0.04649c0.66961,0.23116 1.36903,0.41178 2.07618,0.45363c0,0 0.99764,0.06865 0.92899,1.0663c-0.06865,0.99764 -1.06629,0.92899 -1.06629,0.92899c-0.78007,-0.05953 -1.55897,-0.22214 -2.29714,-0.48126l-1.05908,-0.01479c0,0 -0.99968,-0.02525 -0.97443,-1.02493z" fill="#ffdd66" stroke="none" stroke-width="0.5"/><path d="M296.17817,215.42436c-0.74534,-0.66668 -0.07866,-1.41202 -0.07866,-1.41202l0.24194,-0.20869c0.5792,-1.1455 0.51452,-1.77847 0.18915,-3.0028c0,0 -0.25035,-0.96815 0.7178,-1.21851c0.96815,-0.25035 1.21851,0.7178 1.21851,0.7178c0.42969,1.69937 0.40323,2.75919 -0.3174,4.35844l-0.55931,0.68711c0,0 -0.66669,0.74534 -1.41203,0.07866z" fill="#ffdd66" stroke="none" stroke-width="0.5"/><path d="M290.54156,219.5268c-0.99764,-0.06865 -0.92899,-1.06629 -0.92899,-1.06629l0.08746,-1.16899c0.28918,-0.92985 0.58616,-1.85756 0.90619,-2.77725c0,0 0.32873,-0.94442 1.27315,-0.6157c0.94442,0.32873 0.6157,1.27315 0.6157,1.27315c-0.28787,0.8268 -0.56259,1.65821 -0.82995,2.49187l-0.05727,0.93422c0,0 -0.06865,0.99764 -1.06629,0.92899z" fill="#ffdd66" stroke="none" stroke-width="0.5"/><path d="M289.91551,225.8234c-0.74534,-0.66668 -0.07866,-1.41202 -0.07866,-1.41202l0.73918,-0.8191c0.43487,-0.74021 0.80041,-1.52362 1.10659,-2.32567c0,0 0.359,-0.93334 1.29234,-0.57433c0.93334,0.35901 0.57433,1.29234 0.57433,1.29234c-0.37326,0.96392 -0.83298,1.89749 -1.35845,2.78764l-0.86332,0.97248c0,0 -0.66668,0.74534 -1.41202,0.07866z" fill="#ffdd66" stroke="none" stroke-width="0.5"/><path d="M282.84228,224.27095c-0.9124,-0.40931 -0.50309,-1.3217 -0.50309,-1.3217l0.70416,-1.32854c0.45428,-0.15145 0.90856,-0.3029 1.36284,-0.45436c0,0 0.96815,-0.25035 1.21851,0.7178c0.25035,0.96815 -0.7178,1.21851 -0.7178,1.21851c-0.19115,0.01545 -0.38231,0.0309 -0.57347,0.04635l-0.16945,0.61885c0,0 -0.40931,0.9124 -1.3217,0.50309z" fill="#ffdd66" stroke="none" stroke-width="0.5"/><path d="M283.33566,229.83669c0.44759,-0.75981 1.1705,-0.45488 1.33509,-0.37221c0.57503,-0.10124 0.43626,-0.73947 0.54116,-1.51096c0,0 0.15126,-0.9885 1.13976,-0.83723c0.98849,0.15126 0.83723,1.13976 0.83723,1.13976c-0.33058,1.99492 -0.62716,2.86279 -2.70075,3.20399l-0.79843,-0.25416c0,0 -0.86161,-0.50757 -0.35405,-1.36918zM284.55592,229.47699l-0.24335,-0.00924c0.09087,0.00992 0.17159,0.01284 0.24335,0.00924z" fill="#ffdd66" stroke="none" stroke-width="0.5"/><path d="M302.25011,210.07355c-0.9779,-0.20905 -0.76885,-1.18695 -0.76885,-1.18695l0.23372,-1.09333c0.18314,-0.83035 0.36783,-1.68926 0.28231,-2.53526c0,0 -0.08778,-0.99614 0.90836,-1.08392c0.99614,-0.08778 1.08392,0.90835 1.08392,0.90835c0.08204,1.04516 -0.10528,2.10253 -0.31878,3.12893l-0.23372,1.09333c0,0 -0.20906,0.9779 -1.18696,0.76885z" fill="#ffdd66" stroke="none" stroke-width="0.5"/><path d="M298.20376,198.79245c0.50756,-0.86161 1.36918,-0.35405 1.36918,-0.35405l1.27293,1.08979c0.12518,0.48408 0.25035,0.96815 0.37553,1.45223c0,0 0.25035,0.96815 -0.7178,1.21851c-0.96815,0.25035 -1.21851,-0.7178 -1.21851,-0.7178c-0.12518,-0.48408 -0.25035,-0.96815 -0.37553,-1.45223l-0.35175,0.13273c0,0 -0.86161,-0.50756 -0.35405,-1.36917z" fill="#ffdd66" stroke="none" stroke-width="0.5"/></g><path d="M255.29453,211.65389c0,1.57268 0.03046,3.42403 -0.25921,4.9154c-0.30853,1.58848 -0.94908,2.76857 -1.32278,2.76857c-0.33938,0 -0.84533,-0.76691 -1.12326,-1.91604c-0.3154,-1.30413 -0.38156,-3.10057 -0.38156,-4.82704c0,-1.34728 -0.04663,-5.35088 0.13116,-7.0057c0.25079,-2.33428 0.79534,-2.16802 1.21932,-2.16802c0.36783,0 1.07979,0.0303 1.42572,1.72036c0.33546,1.63895 0.31061,4.91353 0.31061,6.51248z" fill="#ffbf68" stroke="#dea75b" stroke-width="1.5" stroke-linecap="butt"/><path d="M260.83441,218.4368c0,1.82342 0.03531,3.96995 -0.30054,5.6991c-0.35772,1.84175 -1.10041,3.20999 -1.53368,3.20999c-0.39349,0 -0.98012,-0.88918 -1.30235,-2.22153c-0.3657,-1.51206 -0.4424,-3.59491 -0.4424,-5.59665c0,-1.56209 -0.05406,-6.20401 0.15208,-8.12267c0.29077,-2.70646 0.92215,-2.51369 1.41372,-2.51369c0.42647,0 1.25195,0.03513 1.65303,1.99465c0.38895,1.90026 0.36014,5.69692 0.36014,7.55081z" fill="#ffbf68" stroke="#dea75b" stroke-width="1.5" stroke-linecap="butt"/><path d="M226.1169,211.11016c0,1.82342 0.03531,3.96995 -0.30054,5.6991c-0.35772,1.84175 -1.1004,3.20999 -1.53367,3.20999c-0.3935,0 -0.98011,-0.88918 -1.30235,-2.22153c-0.36569,-1.51206 -0.4424,-3.59491 -0.4424,-5.59665c0,-1.56209 -0.05405,-6.20401 0.15208,-8.12267c0.29077,-2.70646 0.92215,-2.51369 1.41372,-2.51369c0.42648,0 1.25195,0.03513 1.65303,1.99465c0.38895,1.90026 0.36013,5.69692 0.36013,7.55081z" fill="#ffbf68" stroke="#dea75b" stroke-width="1.5" stroke-linecap="butt"/><path d="M220.79963,218.69516c0,1.82342 0.03531,3.96995 -0.30054,5.6991c-0.35772,1.84175 -1.10041,3.20999 -1.53368,3.20999c-0.3935,0 -0.98011,-0.88918 -1.30235,-2.22153c-0.36569,-1.51206 -0.4424,-3.59491 -0.4424,-5.59665c0,-1.56209 -0.05406,-6.20401 0.15208,-8.12267c0.29077,-2.70646 0.92215,-2.51369 1.41372,-2.51369c0.42648,0 1.25195,0.03513 1.65303,1.99465c0.38895,1.90026 0.36013,5.69692 0.36013,7.55081z" fill="#ffbf68" stroke="#dea75b" stroke-width="1.5" stroke-linecap="butt"/><path d="M213.93959,209.54902c0,0 -7.26951,-14.62574 -7.26951,-24.85362c0,-9.77392 -0.03257,-25.1555 8.96573,-38.60606c8.9983,-13.45057 12.51892,-11.27759 19.86727,-11.49257c8.91346,-0.26076 22.33112,1.03397 28.61883,10.76561c6.28771,9.73164 10.17731,29.26952 10.17731,40.05997c0,8.84089 -7.99646,24.6113 -7.99646,24.6113c0,0 -18.84963,2.66548 -28.1218,2.66548c-8.10568,0 -24.24136,-3.15012 -24.24136,-3.15012z" fill="#774220" stroke="#532e16" stroke-width="2.5" stroke-linecap="butt"/><path d="M247.10731,185.96501c0,2.00386 -2.80588,3.62832 -6.2671,3.62832c-3.46122,0 -6.2671,-1.62446 -6.2671,-3.62832c0,-2.00386 2.80588,-3.62832 6.2671,-3.62832c3.46122,0 6.2671,1.62446 6.2671,3.62832z" fill="#0a0a0a" stroke="none" stroke-width="0" stroke-linecap="butt"/><path d="M240.65718,188.05312l-0.1367,7.58699c0,0 -2.18558,0.62414 -3.42494,0.7243c-1.30604,0.10554 -4.51962,-1.13711 -4.51962,-1.13711" fill="none" stroke="#0a0a0a" stroke-width="2" stroke-linecap="round"/><path d="M248.32613,195.30976c0,0 -2.27637,1.51126 -3.46388,1.52483c-1.1984,0.01369 -3.69414,-1.1132 -3.69414,-1.1132l0.14876,-6.43134" fill="none" stroke="#0a0a0a" stroke-width="2" stroke-linecap="round"/><path d="M210.94558,173.12997l1.2262,-2.64624l17.99378,-5.79819l-1.7678,3.60361z" data-paper-data="{&quot;index&quot;:null}" fill="#0a0a0a" stroke="none" stroke-width="0" stroke-linecap="butt"/><path d="M204.26714,144.73226c1.9347,-1.31745 12.32287,-8.50946 14.86764,-9.03503c2.62413,-0.54196 1.03073,3.40166 0.46657,5.46189c-0.33311,1.21642 -0.64267,3.30338 -3.04721,5.84332c-1.70463,1.80063 -6.62696,4.98473 -8.25716,6.09482c-2.089,1.42252 -4.37342,2.74001 -6.47948,3.03904c-1.85577,0.26348 -3.63084,-0.34865 -4.19907,-1.18311c-0.62568,-0.91882 -0.27028,-3.46614 1.13517,-5.53357c1.31953,-1.94103 3.61063,-3.39156 5.51354,-4.68736z" data-paper-data="{&quot;index&quot;:null}" fill="#774220" stroke="#532e16" stroke-width="2" stroke-linecap="butt"/><path d="M267.15501,156.02975c-1.94307,-1.97941 -4.86483,-6.5482 -6.24486,-9.43875c-1.42306,-2.98069 -0.16177,-4.84689 0.50888,-5.79168c0.77303,-1.08898 1.56386,-2.69352 4.85776,-0.44797c2.33511,1.59191 7.11533,6.66785 8.75255,8.33571c2.09803,2.13727 4.16045,4.53105 5.17017,6.95561c0.88972,2.1364 0.89917,4.38533 0.28039,5.25704c-0.68134,0.95983 -3.58173,2.07516 -6.0746,0.90118c-2.34047,-1.1022 -5.33917,-3.82424 -7.25031,-5.77112z" data-paper-data="{&quot;index&quot;:null}" fill="#774220" stroke="#532e16" stroke-width="2" stroke-linecap="butt"/><path d="M220.54137,152.67919c-1.80405,0.77317 -5.56897,4.35658 -7.4456,3.25071c-0.77735,-0.45808 -2.58118,-1.72835 -2.72852,-2.61483c-0.54427,-3.27441 2.67195,-10.42782 6.34128,-12.03793c0.16296,-0.71924 0.37511,-1.40216 0.62214,-2.01364c0.09726,-2.76272 1.47788,-5.36632 3.70423,-7.02622c0.55235,-0.41181 2.84887,-0.47621 3.10703,-0.96311c0.62294,-1.17487 0.48829,-1.93663 1.17407,-2.83414c3.48704,-4.56365 10.09485,-0.66863 14.49112,-1.99314c2.58863,-0.7799 3.39524,-2.48805 6.99321,-1.50679c1.15312,0.31449 1.46715,2.20073 2.06295,3.09443h1.97031c1.05308,-0.70205 3.70641,0.88164 4.86928,1.36332c3.61482,1.49731 7.00325,5.47141 6.89403,9.45231c0.96832,0.8689 1.76827,1.8908 2.23149,3.03751c4.14673,2.71684 6.01894,10.83495 1.82845,13.22952c-2.83418,1.61954 -3.84028,-1.62592 -5.26629,-2.47081c-0.99367,-0.58874 -2.31455,0.05858 -3.45781,0.2228c-3.66124,0.52591 -4.19547,2.41617 -7.00065,3.11598c-4.63935,1.1574 -13.74147,0.27519 -15.24679,0.26821c-1.33112,-0.00618 -2.68877,-0.55455 -4.01757,-0.49923c-1.80193,0.07503 -2.23998,2.83275 -4.75534,1.80124c-3.54017,-1.45176 -1.95661,-6.27494 -5.32129,-5.3136z" fill="#8e2626" stroke="none" stroke-width="0.5" stroke-linecap="butt"/><path d="M283.84177,164.11378c-2.41803,4.62096 -12.38153,1.31742 -15.0792,-0.82674c-1.27289,-1.01172 -1.99073,-3.15922 -2.53165,-4.60151c-1.59281,-4.24704 0.29874,-9.79854 5.11717,-10.6625c0.38336,-0.06873 0.95377,-0.22234 1.60878,-0.3772c0.59228,-0.21611 1.19749,-0.32871 1.79565,-0.3469c1.53558,-0.20391 3.05886,-0.09351 3.59538,1.12652c0.8631,0.63754 1.55788,1.52371 1.96275,2.60325c0.05012,0.13365 0.09495,0.26799 0.1346,0.4028c1.47181,3.96207 6.6949,6.3789 3.39652,12.68228z" fill="#8e2626" stroke="none" stroke-width="0.5" stroke-linecap="butt"/><path d="M214.37537,150.81878c-0.75104,2.70843 -3.62805,8.67599 -6.8646,8.94684c-1.08707,0.09097 -4.34077,-0.2906 -5.20982,0.08046c-0.47269,0.20182 -0.83149,0.77058 -1.34519,0.75365c-1.22184,-0.04027 -2.37009,-0.60678 -3.57065,-0.83734c-0.24689,-0.04741 -1.90574,-0.18279 -2.07104,-0.48567c-1.82374,-3.34184 -2.02387,-8.88531 -0.70472,-12.52781c0.72568,-2.00376 4.53509,-6.05593 7.25417,-5.55338c0.10745,-0.13897 0.22216,-0.27426 0.34418,-0.40537c2.16345,-2.32469 5.8018,-2.45539 8.12649,-0.29194c0.44105,0.41046 0.80312,0.87401 1.08554,1.37161c0.23937,0.42175 0.42152,0.86796 0.54602,1.32703c1.20926,2.86028 3.35937,4.19684 2.4096,7.62191z" fill="#8e2626" stroke="none" stroke-width="0.5" stroke-linecap="butt"/><path d="M240.88705,199.49411c-0.08907,0.52952 -0.17965,1.15526 -0.39992,1.63456c-0.23462,0.5105 -0.60178,0.85732 -0.77698,0.82785c-0.15912,-0.02677 -0.3529,-0.32488 -0.41812,-0.73371c-0.07402,-0.46398 -0.00329,-1.07404 0.09449,-1.65534c0.0763,-0.45362 0.28119,-1.80531 0.45827,-2.34846c0.24979,-0.76617 0.49569,-0.66724 0.69447,-0.6338c0.17246,0.02901 0.50455,0.09536 0.57101,0.69168c0.06446,0.57828 -0.13265,1.67886 -0.22322,2.21723z" fill="#ffbf68" stroke="#dea75b" stroke-width="0.5" stroke-linecap="butt"/><path d="M239.71785,201.72593l0.46667,-2.73334" fill="none" stroke="#dea75b" stroke-width="0.5" stroke-linecap="round"/><path d="M227.43452,128.9405c0,-0.55229 0.44771,-1 1,-1c0.55229,0 1,0.44771 1,1c0,0.55229 -0.44771,1 -1,1c-0.55229,0 -1,-0.44771 -1,-1z" fill="#000000" stroke="none" stroke-width="0.5" stroke-linecap="butt"/><path d="M243.76785,145.9405c0,-0.55229 0.44771,-1 1,-1c0.55229,0 1,0.44771 1,1c0,0.55229 -0.44771,1 -1,1c-0.55229,0 -1,-0.44771 -1,-1z" fill="#000000" stroke="none" stroke-width="0.5" stroke-linecap="butt"/><path d="M250.60119,131.10717c0,-0.55229 0.44771,-1 1,-1c0.55229,0 1,0.44771 1,1c0,0.55229 -0.44771,1 -1,1c-0.55229,0 -1,-0.44771 -1,-1z" fill="#000000" stroke="none" stroke-width="0.5" stroke-linecap="butt"/><path d="M232.60119,140.77382c0,-0.55229 0.44771,-1 1,-1c0.55229,0 1,0.44771 1,1c0,0.55229 -0.44771,1 -1,1c-0.55229,0 -1,-0.44771 -1,-1z" fill="#000000" stroke="none" stroke-width="0.5" stroke-linecap="butt"/><path d="M247.60119,138.10717c0,-0.55229 0.44771,-1 1,-1c0.55229,0 1,0.44771 1,1c0,0.55229 -0.44771,1 -1,1c-0.55229,0 -1,-0.44771 -1,-1z" fill="#000000" stroke="none" stroke-width="0.5" stroke-linecap="butt"/><path d="M258.60119,147.9405c0,-0.55229 0.44772,-1 1,-1c0.55228,0 1,0.44771 1,1c0,0.55229 -0.44772,1 -1,1c-0.55228,0 -1,-0.44771 -1,-1z" fill="#000000" stroke="none" stroke-width="0.5" stroke-linecap="butt"/><path d="M233.26785,150.9405c0,-0.55229 0.44771,-1 1,-1c0.55229,0 1,0.44771 1,1c0,0.55229 -0.44771,1 -1,1c-0.55229,0 -1,-0.44771 -1,-1z" fill="#000000" stroke="none" stroke-width="0.5" stroke-linecap="butt"/><path d="M218.26785,143.60717c0,-0.55229 0.44771,-1 1,-1c0.55229,0 1,0.44771 1,1c0,0.55229 -0.44771,1 -1,1c-0.55229,0 -1,-0.44771 -1,-1z" fill="#000000" stroke="none" stroke-width="0.5" stroke-linecap="butt"/><path d="M214.26785,149.4405c0,-0.55229 0.44771,-1 1,-1c0.55229,0 1,0.44771 1,1c0,0.55229 -0.44771,1 -1,1c-0.55229,0 -1,-0.44771 -1,-1z" fill="#000000" stroke="none" stroke-width="0.5" stroke-linecap="butt"/><path d="M196.10972,151.38221c-0.4043,-0.37626 -0.42703,-1.00901 -0.05077,-1.4133c0.37626,-0.4043 1.00901,-0.42703 1.4133,-0.05077c0.4043,0.37626 0.42703,1.00901 0.05077,1.4133c-0.37626,0.4043 -1.00901,0.42703 -1.4133,0.05077z" fill="#000000" stroke="none" stroke-width="0.5" stroke-linecap="butt"/><path d="M200.3884,155.59181c-0.4043,-0.37626 -0.42703,-1.00901 -0.05077,-1.4133c0.37626,-0.4043 1.00901,-0.42703 1.4133,-0.05077c0.4043,0.37626 0.42703,1.00901 0.05077,1.4133c-0.37626,0.4043 -1.00901,0.42703 -1.4133,0.05077z" fill="#000000" stroke="none" stroke-width="0.5" stroke-linecap="butt"/><path d="M200.31577,150.28768c-0.4043,-0.37626 -0.42703,-1.00901 -0.05077,-1.4133c0.37626,-0.4043 1.00901,-0.42703 1.4133,-0.05077c0.4043,0.37626 0.42703,1.00901 0.05077,1.4133c-0.37626,0.4043 -1.00901,0.42703 -1.4133,0.05077z" fill="#000000" stroke="none" stroke-width="0.5" stroke-linecap="butt"/><path d="M208.30402,152.71304c-0.4043,-0.37626 -0.42703,-1.00901 -0.05077,-1.4133c0.37626,-0.4043 1.00901,-0.42703 1.4133,-0.05077c0.4043,0.37626 0.42703,1.00901 0.05077,1.4133c-0.37626,0.4043 -1.00901,0.42703 -1.4133,0.05077z" fill="#000000" stroke="none" stroke-width="0.5" stroke-linecap="butt"/><path d="M204.31874,143.53997c-0.4043,-0.37626 -0.42703,-1.00901 -0.05077,-1.4133c0.37626,-0.4043 1.00901,-0.42703 1.4133,-0.05077c0.4043,0.37626 0.42703,1.00901 0.05077,1.4133c-0.37626,0.4043 -1.00901,0.42703 -1.4133,0.05077z" fill="#000000" stroke="none" stroke-width="0.5" stroke-linecap="butt"/><path d="M274.72058,149.55679c0.51712,-0.19394 1.09354,0.06805 1.28747,0.58516c0.19394,0.51711 -0.06804,1.09353 -0.58516,1.28747c-0.51712,0.19394 -1.09354,-0.06805 -1.28747,-0.58516c-0.19394,-0.51711 0.06804,-1.09353 0.58516,-1.28747z" fill="#000000" stroke="none" stroke-width="0.5" stroke-linecap="butt"/><path d="M268.38103,154.96042c0.51712,-0.19394 1.09354,0.06805 1.28747,0.58516c0.19394,0.51711 -0.06804,1.09353 -0.58516,1.28747c-0.51712,0.19394 -1.09354,-0.06805 -1.28747,-0.58516c-0.19394,-0.51711 0.06804,-1.09353 0.58516,-1.28747z" fill="#000000" stroke="none" stroke-width="0.5" stroke-linecap="butt"/><path d="M280.37787,158.47124c0.51712,-0.19394 1.09354,0.06805 1.28747,0.58516c0.19394,0.51711 -0.06804,1.09353 -0.58516,1.28747c-0.51712,0.19394 -1.09354,-0.06805 -1.28747,-0.58516c-0.19394,-0.51711 0.06804,-1.09353 0.58516,-1.28747z" fill="#000000" stroke="none" stroke-width="0.5" stroke-linecap="butt"/><path d="M272.75072,159.01769c0.51712,-0.19394 1.09354,0.06805 1.28747,0.58516c0.19394,0.51711 -0.06804,1.09353 -0.58516,1.28747c-0.51712,0.19394 -1.09354,-0.06805 -1.28747,-0.58516c-0.19394,-0.51711 0.06804,-1.09353 0.58516,-1.28747z" fill="#000000" stroke="none" stroke-width="0.5" stroke-linecap="butt"/><path d="M240.98922,130.93921c-0.43655,0.29103 -0.79675,0.20033 -1.04055,0.04834c0.03587,0.40787 -0.23328,0.7443 -0.23328,0.7443c-0.32969,0.38022 -0.56617,0.87358 -0.62781,1.37304l0.3711,0.15444c0,0 0.5145,0.85749 -0.343,1.37199c-0.17601,0.1056 -0.33757,0.15341 -0.48319,0.16269c-0.10627,0.20139 -0.29594,0.3984 -0.63452,0.46008l0.08962,0.35534c0,0 0.1644,0.98639 -0.822,1.15079c-0.98639,0.1644 -1.15079,-0.822 -1.15079,-0.822l0.03313,-0.54692c-0.5557,-0.13216 -1.12205,-0.21808 -1.68816,-0.29419c0,0 -0.98995,-0.14142 -0.84853,-1.13137c0.14142,-0.98995 1.13137,-0.84853 1.13137,-0.84853c0.69557,0.10405 1.37277,0.32266 2.02616,0.59724c0.01077,-0.84915 -0.07914,-1.67449 -0.50091,-2.28931v0.18202c0,0 0,1 -1,1c-1,0 -1,-1 -1,-1v-0.33334c0.00116,-0.92749 0.07126,-1.85518 0.17278,-2.77709c0,0 0.11043,-0.99389 1.10432,-0.88346c0.99389,0.11043 0.88345,1.10431 0.88345,1.10431c-0.00995,0.08875 -0.0196,0.17758 -0.02889,0.26645c0.76339,0.45038 1.29771,0.99013 1.66305,1.62163c0.02984,-0.04155 0.06021,-0.08262 0.09108,-0.1232c0,0 0.42811,-0.53513 1.01853,-0.36499c-0.81387,-0.77928 -1.16715,-1.57784 -2.2338,-2.14207c0,0 -0.86825,-0.49614 -0.37211,-1.36438c0.49614,-0.86825 1.36438,-0.3721 1.36438,-0.3721c0.73164,0.43963 1.14797,0.89854 1.56094,1.36913c0.13934,0.00277 0.27693,0.00995 0.41304,0.02104c-0.38273,-0.46456 -0.85413,-0.86202 -1.35815,-1.18988c0,0 -0.83205,-0.5547 -0.27735,-1.38675c0.5547,-0.83205 1.38675,-0.27735 1.38675,-0.27735c0.70285,0.47749 1.35563,1.04903 1.89283,1.70736l0.35594,1.04882c0,0 0.05911,0.23644 0.00224,0.50505c0.64777,0.19114 1.29252,0.41616 1.969,0.6093l0.59906,0.42109c0,0 0.70711,0.70711 0,1.41421c-0.20672,0.20672 -0.41344,0.29257 -0.60249,0.31056c0.26467,0.2181 0.35691,0.54094 0.35691,0.54094c0.09649,0.45785 0.39318,0.90602 0.77961,1.18202c0.20389,-0.10389 0.47474,-0.14085 0.81946,0.00689c0.91914,0.39392 0.52523,1.31306 0.52523,1.31306c-0.49797,1.13801 -0.58865,1.8692 -0.58581,3.10608l0.20472,-0.59515c0,0 0.92847,0.3714 0.55709,1.29987c-0.37139,0.92847 -1.29987,0.55709 -1.29987,0.55709l-1.46194,-1.26181c0.00206,-1.01094 0.07882,-1.81084 0.30987,-2.65172l-0.03124,-0.01623c-0.27626,-0.20045 -0.53295,-0.43647 -0.76327,-0.69827l-0.07904,0.21735c0,0 -0.35112,0.93633 -1.28745,0.58521c-0.93633,-0.35112 -0.58521,-1.28745 -0.58521,-1.28745l0.45237,-1.16064c0.04298,-0.43473 -0.22842,-0.84677 -0.56489,-1.18442c-0.06107,0.0674 -0.13676,0.13288 -0.22979,0.1949z" fill="#ffdd66" stroke="none" stroke-width="0.5" stroke-linecap="butt"/><path d="M251.46397,133.08774c-0.98058,0.19611 -1.1767,-0.78446 -1.1767,-0.78446l0.25921,-0.1974c-0.46323,-0.31653 -0.97562,-0.57156 -1.50866,-0.75417c-0.07563,0.17711 -0.22301,0.35 -0.48943,0.4832c-0.89443,0.44721 -1.34164,-0.44721 -1.34164,-0.44721l-0.27224,-0.78055c0.01435,-0.93346 0.347,-1.77284 -0.80809,-1.67672c0,0 -0.98995,-0.14142 -0.84852,-1.13137c0.14142,-0.98995 1.13137,-0.84853 1.13137,-0.84853c1.69878,0.39651 2.26485,1.03238 2.44609,2.3265c0.20113,-0.00839 0.35387,0.03526 0.35387,0.03526c0.8615,0.25431 1.69489,0.63782 2.44665,1.12947l0.59255,1.46927c0,0 0.19611,0.98058 -0.78447,1.17669z" fill="#ffdd66" stroke="none" stroke-width="0.5" stroke-linecap="butt"/><path d="M249.10346,139.4269l-1.69231,-0.63725c0.30383,-2.10932 0.54648,-2.96286 2.30201,-4.18119c0,0 0.83205,-0.5547 1.38675,0.27735c0.04995,0.07493 0.08865,0.1476 0.11773,0.21783c0.31274,-0.14773 0.65495,-0.28845 1.03242,-0.43279c0,0 0.93633,-0.35112 1.28746,0.58521c0.35112,0.93633 -0.58521,1.28745 -0.58521,1.28745c-1.09703,0.40154 -1.77079,0.64512 -2.27146,1.45285c0.12026,0.21798 0.16956,0.51511 -0.01857,0.89137c-0.3114,0.62279 -0.83962,0.5951 -1.13174,0.52085c-0.2315,0.05093 -0.42709,0.01833 -0.42709,0.01833z" fill="#ffdd66" stroke="none" stroke-width="0.5" stroke-linecap="butt"/><path d="M242.60119,142.10717c-1,0 -1,-1 -1,-1v-0.16666c0,-2.39003 0.52635,-3.19106 -1.94138,-3.87181c0,0 -0.96152,-0.27472 -0.6868,-1.23624c0.27472,-0.96152 1.23624,-0.6868 1.23624,-0.6868c3.45588,1.01454 3.39194,2.60794 3.39194,5.79486v0.16666c0,0 0,1 -1,1z" fill="#ffdd66" stroke="none" stroke-width="0.5" stroke-linecap="butt"/><path d="M232.26785,141.60717c-1,0 -1,-1 -1,-1v-0.16666c0.01091,-1.47321 0.28637,-2.46383 0.93891,-3.78055c0,0 0.44721,-0.89442 1.34164,-0.44721c0.89443,0.44721 0.44721,1.34164 0.44721,1.34164c-0.53023,1.04945 -0.73885,1.7069 -0.72776,2.88612v0.16666c0,0 0,1 -1,1z" fill="#ffdd66" stroke="none" stroke-width="0.5" stroke-linecap="butt"/><path d="M230.76785,130.77382c-0.07901,0 -0.15177,-0.00624 -0.21878,-0.01774c-0.33893,0.48543 -0.54335,1.02428 -0.53517,1.68696c0.22092,0.13672 0.42062,0.38389 0.42062,0.83077c0,1 -1,1 -1,1l-1.31973,-0.8356c-0.22751,-1.56644 0.09839,-2.74394 0.81628,-3.78981c-0.24066,-0.09565 -0.48746,-0.16622 -0.75313,-0.22283c-0.17834,0.44303 -0.26125,0.94207 -0.24343,1.5149l0.13681,0.42413c0,0 0.24254,0.97015 -0.72761,1.21268c-0.97015,0.24254 -1.21267,-0.72761 -1.21267,-0.72761l-0.19653,-0.9092c0.01774,-0.84189 0.15179,-1.57506 0.4093,-2.22953c-0.0655,-0.14627 -0.09711,-0.33019 -0.06824,-0.56116c0.08932,-0.71457 0.62891,-0.85024 0.92394,-0.8702c0.40326,-0.48139 0.90618,-0.92054 1.51364,-1.33782c0,0 0.83205,-0.5547 1.38675,0.27735c0.5547,0.83205 -0.27735,1.38675 -0.27735,1.38675c-0.08668,0.0554 -0.17053,0.11167 -0.25152,0.16891c0.25276,0.09546 0.49947,0.20711 0.74576,0.33946c0.09759,-0.08872 0.19772,-0.17744 0.30027,-0.26634c0,0 0.75926,-0.65079 1.41005,0.10847c0.65079,0.75926 -0.10846,1.41004 -0.10846,1.41004c-0.07902,0.06681 -0.15682,0.13323 -0.23316,0.19948l0.08236,0.20793c0,0 0,1 -1,1z" fill="#ffdd66" stroke="none" stroke-width="0.5" stroke-linecap="butt"/><path d="M231.22421,135.89179c-0.08032,0.2956 -0.30845,0.71538 -0.95636,0.71538c-1,0 -1,-1 -1,-1l0.29289,-0.87377c0.82872,-0.82647 1.50298,-1.66907 2.41575,-2.40709c0,0 0.78087,-0.6247 1.40556,0.15617c0.6247,0.78087 -0.15618,1.40556 -0.15618,1.40556c-0.76124,0.60105 -1.33972,1.30989 -2.00167,2.00375z" fill="#ffdd66" stroke="none" stroke-width="0.5" stroke-linecap="butt"/><path d="M258.08408,135.38919c-0.94869,0.31623 -1.26491,-0.63245 -1.26491,-0.63245l0.28588,0.05202c-1.01178,-0.57987 -1.66814,-1.0648 -2.8372,-1.03491c0,0 -1,0 -1,-1c0,-1 1,-1 1,-1c0.31649,0.00538 0.60804,0.03115 0.88302,0.07524c-0.7455,-0.35485 -1.45795,-0.78463 -2.13092,-1.2615c0,0 -0.81374,-0.58123 -0.2325,-1.39497c0.58124,-0.81374 1.39497,-0.2325 1.39497,-0.2325c0.66855,0.48196 1.38689,0.90705 2.14602,1.22792l0.83384,1.1386c0,0 0.33855,0.67711 -0.16262,1.14763c0.34953,0.17415 0.70722,0.3755 1.09766,0.59801l0.61921,1.05202c0,0 0.31623,0.94868 -0.63246,1.26491z" fill="#ffdd66" stroke="none" stroke-width="0.5" stroke-linecap="butt"/><path d="M225.10119,138.60717c-1,0 -1,-1 -1,-1l0.152,-0.86333c0.60928,-0.96663 1.33588,-1.86622 2.1409,-2.67711c0,0 0.7071,-0.70711 1.41421,0c0.70711,0.70711 0,1.41421 0,1.41421c-0.7042,0.69833 -1.33719,1.47958 -1.8591,2.32289l0.152,-0.19666c0,0 0,1 -1,1z" fill="#ffdd66" stroke="none" stroke-width="0.5" stroke-linecap="butt"/><path d="M246.99313,136.56869c-0.96152,-0.27472 -0.6868,-1.23624 -0.6868,-1.23624l0.39409,-1.32626c0.30678,-0.43786 0.61358,-0.87573 0.92036,-1.31359c0,0 0.58123,-0.81374 1.39497,-0.2325c0.81374,0.58124 0.2325,1.39497 0.2325,1.39497c-0.24877,0.33991 -0.49753,0.67983 -0.7463,1.01974l-0.27257,1.00707c0,0 -0.27472,0.96152 -1.23624,0.6868z" fill="#ffdd66" stroke="none" stroke-width="0.5" stroke-linecap="butt"/><path d="M278.25181,163.71865c-0.01349,-0.03598 -0.02509,-0.07109 -0.03491,-0.10535c-0.05237,0.13557 -0.10796,0.2697 -0.16661,0.40213l-0.69079,0.69508c0,0 -0.77722,0.62923 -1.40645,-0.14799c-0.62923,-0.77723 0.14799,-1.40645 0.14799,-1.40645l0.12848,0.03182c0.27594,-0.58724 0.46131,-1.22952 0.52051,-1.87567c0,0 0.10465,-0.99451 1.09916,-0.88985c0.99451,0.10466 0.88985,1.09916 0.88985,1.09916c-0.04214,0.36502 -0.11001,0.72858 -0.20104,1.08665c0.15428,-0.12273 0.29895,-0.17698 0.29895,-0.17698l0.19009,-0.01648c0.51674,-0.3913 0.86847,-0.9913 1.12327,-1.58728c0,0 0.41377,-0.91038 1.32415,-0.49661c0.91038,0.41377 0.49661,1.32415 0.49661,1.32415c-0.40896,0.86226 -0.95653,1.69838 -1.68558,2.31419l-0.74622,0.33466c0,0 -0.93632,0.35116 -1.28747,-0.58516z" fill="#ffdd66" stroke="none" stroke-width="0.5" stroke-linecap="butt"/><path d="M280.47526,153.98466c0.93632,-0.35116 1.28747,0.58516 1.28747,0.58516l0.15337,0.43095c0.22642,0.96808 0.3351,1.96902 0.33956,2.96322c0,0 0.00004,1.00001 -0.99996,1.00004c-1,0.00003 -1.00004,-0.99997 -1.00004,-0.99997c0.00438,-0.83827 -0.08555,-1.68442 -0.28484,-2.49867l-0.08073,-0.19326c0,0 -0.35116,-0.93632 0.58516,-1.28747z" fill="#ffdd66" stroke="none" stroke-width="0.5" stroke-linecap="butt"/><path d="M279.38425,168.15843c-0.81155,-0.58428 -0.22728,-1.39583 -0.22728,-1.39583l0.30354,-0.41518c0.65023,-1.08944 1.36042,-2.09362 1.97275,-3.20881c0,0 0.48237,-0.87596 1.35833,-0.39358c0.87596,0.48237 0.39359,1.35833 0.39359,1.35833c-0.62657,1.13476 -1.34667,2.15776 -2.00643,3.26761l-0.39868,0.56018c0,0 -0.58428,0.81154 -1.39583,0.22728z" fill="#ffdd66" stroke="none" stroke-width="0.5" stroke-linecap="butt"/><path d="M284.55937,155.05775c0.9945,0.10466 0.88985,1.09916 0.88985,1.09916l-0.0342,0.22894c0.02827,0.86065 -0.05301,1.726 -0.18762,2.57654c0,0 -0.15965,0.98718 -1.14682,0.82752c-0.98718,-0.15965 -0.82751,-1.14683 -0.82751,-1.14683c0.11932,-0.71993 0.19409,-1.45404 0.16334,-2.18314l0.0438,-0.51233c0,0 0.10465,-0.99451 1.09916,-0.88986z" fill="#ffdd66" stroke="none" stroke-width="0.5" stroke-linecap="butt"/><path d="M196.41512,143.47012c0.73204,0.68127 0.05077,1.4133 0.05077,1.4133l0.0003,-0.15529c-0.42864,1.45289 -1.02234,2.50185 0.24017,3.56653c0,0 0.73204,0.68127 0.05077,1.4133c-0.68127,0.73204 -1.4133,0.05077 -1.4133,0.05077c-1.81424,-1.79096 -1.4726,-3.28571 -0.79649,-5.59454l0.45447,-0.64332c0,0 0.68127,-0.73204 1.4133,-0.05077z" fill="#ffdd66" stroke="none" stroke-width="0.5" stroke-linecap="butt"/><path d="M198.32768,157.31681c-0.68127,0.73204 -1.4133,0.05077 -1.4133,0.05077l-0.35508,-0.34905c-0.87693,-1.14758 -1.65872,-1.91684 -2.42251,-3.20422c0,0 -0.5054,-0.86288 0.35749,-1.36829c0.86289,-0.50541 1.36828,0.35747 1.36828,0.35747c0.6951,1.20504 1.4483,1.91977 2.28143,2.99487l0.13294,0.10514c0,0 0.73204,0.68127 0.05077,1.4133z" fill="#ffdd66" stroke="none" stroke-width="0.5" stroke-linecap="butt"/><path d="M208.52595,153.67269c0.47904,0.8778 -0.39876,1.35683 -0.39876,1.35683l-0.33159,0.16702c-1.72491,1.1353 -2.52631,0.78694 -4.02133,-0.55187c0,0 -0.73204,-0.68127 -0.05077,-1.4133c0.68127,-0.73204 1.4133,-0.05077 1.4133,-0.05077c0.63912,0.62978 0.80745,1.14715 1.43864,0.43126l0.59368,-0.33793c0,0 0.87779,-0.47903 1.35683,0.39876z" fill="#ffdd66" stroke="none" stroke-width="0.5" stroke-linecap="butt"/><path d="M202.68681,144.0703c0.73204,0.68127 0.05077,1.4133 0.05077,1.4133l0.0003,-0.15529c-0.22231,0.74535 -0.40864,1.5112 -0.46225,2.28715c0,0 -0.07468,0.99721 -1.07188,0.92253c-0.99721,-0.07468 -0.92253,-1.07188 -0.92253,-1.07188c0.07292,-0.91534 0.28197,-1.81983 0.53781,-2.70172l0.45447,-0.64332c0,0 0.68127,-0.73204 1.4133,-0.05077z" fill="#ffdd66" stroke="none" stroke-width="0.5" stroke-linecap="butt"/><path d="M206.71751,157.35448c0.10401,-0.10159 0.72994,-0.65742 1.3982,-0.03551c0.73204,0.68127 0.05077,1.4133 0.05077,1.4133l-0.81308,0.55203c-2.3517,0.34389 -3.26808,-0.03009 -5.00444,-1.64023c0,0 -0.73204,-0.68127 -0.05077,-1.4133c0.68127,-0.73204 1.4133,-0.05077 1.4133,-0.05077c1.26116,1.17839 1.51556,1.37183 3.00602,1.1745z" fill="#ffdd66" stroke="none" stroke-width="0.5" stroke-linecap="butt"/><path d="M201.44552,162.03982c-0.68127,0.73204 -1.4133,0.05077 -1.4133,0.05077l-0.31853,-0.36654c-1.16899,-2.1448 -2.0169,-3.52385 -0.58356,-5.744c0,0 0.57089,-0.82102 1.39191,-0.25014c0.82102,0.57089 0.25014,1.39191 0.25014,1.39191c-1.0309,1.30919 -0.02764,2.31789 0.6971,3.64415l-0.07452,-0.13946c0,0 0.73204,0.68127 0.05077,1.4133z" fill="#ffdd66" stroke="none" stroke-width="0.5" stroke-linecap="butt"/><path d="M217.0731,199.39953c1.64283,0.79118 3.5921,1.69073 5.00427,2.74359c0.5164,0.38501 8.45714,1.89505 11.65128,2.63358c6.10945,1.41259 4.36547,2.38467 4.24202,2.64101c-0.17074,0.35452 -4.05972,0.33057 -5.39993,0.04279c-1.52098,-0.3266 -14.26417,-3.49456 -16.06767,-4.36311c-1.40739,-0.67779 -5.61304,-2.64319 -7.25224,-3.66142c-2.31225,-1.4363 -1.86462,-1.92151 -1.65133,-2.36439c0.18505,-0.38424 0.57487,-1.11271 2.51435,-0.62384c1.88083,0.47409 5.28897,2.1474 6.95926,2.9518z" fill="#ffbf68" stroke="#dea75b" stroke-width="1.5" stroke-linecap="butt"/><path d="M263.3994,198.89953c1.48095,-0.80439 4.50275,-2.47772 6.17038,-2.9518c1.71963,-0.48887 2.06526,0.23961 2.22933,0.62385c0.18911,0.44288 0.586,0.9281 -1.46414,2.36439c-1.45339,1.01822 -5.1823,2.98363 -6.43015,3.66142c-1.59906,0.86855 -12.89771,4.03651 -14.24628,4.36311c-1.18829,0.28778 -4.63644,0.31173 -4.78782,-0.04279c-0.10945,-0.25634 -1.65574,-1.22843 3.76116,-2.64101c2.83206,-0.73853 9.87266,-2.24857 10.33053,-2.63358c1.25209,-1.05286 2.98039,-1.95241 4.437,-2.74359z" data-paper-data="{&quot;index&quot;:null}" fill="#ffbf68" stroke="#dea75b" stroke-width="1.5" stroke-linecap="butt"/><path d="M243.29348,202.79073c6.29372,2.0979 2.53435,10.23785 -3.46188,8.58389c-3.55334,-0.98012 -3.88824,-4.03262 -2.49372,-6.26084c0.095,-0.7367 0.64812,-1.32986 1.36441,-1.48453c1.13745,-0.8513 2.64549,-1.2764 4.31071,-0.86009z" fill="#8e2626" stroke="none" stroke-width="0.5" stroke-linecap="butt"/><path d="M238.4623,204.89537c0,-0.27614 0.22386,-0.5 0.5,-0.5c0.27614,0 0.5,0.22386 0.5,0.5c0,0.27614 -0.22386,0.5 -0.5,0.5c-0.27614,0 -0.5,-0.22386 -0.5,-0.5z" fill="#000000" stroke="none" stroke-width="0.5" stroke-linecap="butt"/><path d="M244.35119,204.78425c0,-0.27614 0.22386,-0.5 0.5,-0.5c0.27614,0 0.5,0.22386 0.5,0.5c0,0.27614 -0.22386,0.5 -0.5,0.5c-0.27614,0 -0.5,-0.22386 -0.5,-0.5z" fill="#000000" stroke="none" stroke-width="0.5" stroke-linecap="butt"/><path d="M240.12897,209.45092c0,-0.27614 0.22386,-0.5 0.5,-0.5c0.27614,0 0.5,0.22386 0.5,0.5c0,0.27614 -0.22386,0.5 -0.5,0.5c-0.27614,0 -0.5,-0.22386 -0.5,-0.5z" fill="#000000" stroke="none" stroke-width="0.5" stroke-linecap="butt"/><path d="M242.4623,207.00648c0,-0.27614 0.22386,-0.5 0.5,-0.5c0.27614,0 0.5,0.22386 0.5,0.5c0,0.27614 -0.22386,0.5 -0.5,0.5c-0.27614,0 -0.5,-0.22386 -0.5,-0.5z" fill="#000000" stroke="none" stroke-width="0.5" stroke-linecap="butt"/><path d="M244.01785,210.33981c0,-0.27614 0.22386,-0.5 0.5,-0.5c0.27614,0 0.5,0.22386 0.5,0.5c0,0.27614 -0.22386,0.5 -0.5,0.5c-0.27614,0 -0.5,-0.22386 -0.5,-0.5z" fill="#000000" stroke="none" stroke-width="0.5" stroke-linecap="butt"/><path d="M237.24008,208.45092c0,-0.27614 0.22386,-0.5 0.5,-0.5c0.27614,0 0.5,0.22386 0.5,0.5c0,0.27614 -0.22386,0.5 -0.5,0.5c-0.27614,0 -0.5,-0.22386 -0.5,-0.5z" fill="#000000" stroke="none" stroke-width="0.5" stroke-linecap="butt"/><path d="M251.02867,167.92569l-1.90559,-3.53268l18.2042,5.09924l1.32744,2.59693z" data-paper-data="{&quot;index&quot;:null}" fill="#0a0a0a" stroke="none" stroke-width="0" stroke-linecap="butt"/><path d="M216.75,173.38494l11.83333,5.83333l-9.83333,4.33333" fill="none" stroke="#000000" stroke-width="2" stroke-linecap="round"/><path d="M263.41667,182.71827l-11.83333,-5.83334l9.83333,-4.33334" data-paper-data="{&quot;index&quot;:null}" fill="none" stroke="#000000" stroke-width="2" stroke-linecap="round"/></g></g></svg>