<svg version="1.1" xmlns="http://www.w3.org/2000/svg" xmlns:xlink="http://www.w3.org/1999/xlink" width="416.49994" height="463.07997" viewBox="0,0,416.49994,463.07997"><g transform="translate(-45.75008,58.10032)"><g data-paper-data="{&quot;isPaintingLayer&quot;:true}" fill="#230800" fill-rule="nonzero" stroke="#130400" stroke-linecap="butt" stroke-linejoin="miter" stroke-miterlimit="10" stroke-dasharray="" stroke-dashoffset="0" style="mix-blend-mode: normal"><path d="M289.83038,13.05585l14.33555,0.9557h3.33407l1.1016,0.11016l1.10703,0.01217l9,1l0.53424,0.11405l0.54511,0.03574l6,1l2.5752,0.69836l0.14626,0.02294l0.15233,0.05803l0.15732,0.04266l0.13178,0.06747l2.49341,0.94987l4.7287,2.36435l0.47033,0.15678l3.77903,0.75581l1.86015,0.56943l0.22696,0.0356l0.4527,0.17246l0.46322,0.1418l0.20101,0.11124l1.81792,0.69254l2.03633,1.01817l1.87011,0.46753l2.9559,1.06109l0.7138,0.44062l0.79209,0.27614l2.6875,1.625l1.85925,1.39444l0.03959,0.02444l2.52897,1.01159l0.73842,0.3846l0.77803,0.29639l4,2l0.65016,0.41063l0.69548,0.32806l5,3l1.07708,0.80208l1.12691,0.73041l4.75604,3.80483l3.75006,2.81255l1.04438,0.9597l1.09775,0.89816l7,7l0.57474,0.70247l0.64755,0.63598l3.14306,3.77167l1.81448,1.20965l0.21802,0.0674l0.42655,0.36231l1.12748,0.75165l2.42681,1.99345l0.68372,0.85465l0.83418,0.70855l1.92125,2.48437l0.71818,1.14909l0.34961,0.43701l0.06096,0.21991l2.06556,3.3049l2.33962,1.87169l2.245,2.19619l0.06564,0.09845l1.13974,0.43419l4,2l1.51866,0.95916l1.53706,0.92939l4,3l2.3125,2.125l0.14286,0.20043l0.19219,0.15376l1.99345,2.42681l0.90148,1.35222l1.59965,1.59965l1.98874,2.43068l0.03202,0.0619l0.0486,0.04995l1.67705,2.65533l0.1935,0.38699l1.06515,1.4202l1.99495,1.99495l1.98874,2.43068l0.03202,0.0619l0.0486,0.04995l1.67705,2.65533l3.28057,6.56114l0.33089,0.38313l0.24381,0.76626l0.14473,0.28947l1.11803,2.93484l0.23031,1.46822l0.45061,1.41621l0.3125,3.125v0.32363l0.12461,0.7944l-0.12461,0.49066v3.37961l0.7742,2.83874l3.11434,6.22869l0.69254,1.81792l0.11124,0.20101l0.1418,0.46322l0.17246,0.4527l0.0356,0.22696l0.56943,1.86015l1,5l0.19229,1.96135l0.1961,1.96097v38l-0.12375,1.23745l-0.0307,1.24324l-0.98301,7.86408l-0.98487,8.86386l-0.3246,1.52049l-0.2578,1.53323l-3,11l-0.40896,1.06729l-0.31678,1.09818l-3.86078,9.65194l-4.87392,13.64697l-0.26561,0.56027l-0.18633,0.59139l-3,7l-0.52065,0.94279l-0.02551,0.07903l-0.49296,0.85981l-0.47912,0.8676l-0.05432,0.06282l-0.53568,0.93433l-3.59981,5.03973l-0.9834,2.45851l-0.19146,0.87699l-0.84849,1.19042l-0.53272,1.02283l-1.46663,1.78223l-1.33966,1.87953l-0.84916,0.78031l-0.9289,1.12879l-0.53444,0.27683v12.33037l0.12461,0.49066l-0.12461,0.7944v0.32363l-0.3125,3.125l-0.45061,1.41621l-0.23031,1.46822l-1.11803,2.93484l-0.14473,0.28947l-0.24381,0.76626l-0.33089,0.38313l-0.29874,0.59748l-0.3605,1.44199l-0.06444,0.8807l-0.67015,1.29562l-0.43353,1.20769l-1.17936,1.91057l-1.03152,1.99427l-0.81254,0.9931l-0.7662,1.24124l-0.72204,0.50837l-2.68796,2.68796l-1.27691,1.04475l-1.24046,1.08779l-7,5l-0.87779,0.50326l-0.8242,0.58693l-7,4l-1.46342,0.65261l-1.43689,0.70911l-5.01662,1.88123l-2.51195,2.00956l-0.84972,0.55075l-0.04457,0.04337l-0.87384,0.5519l-0.86729,0.56213l-0.05806,0.0223l-0.85614,0.54072l-0.42999,0.215l-0.24081,0.46558l-0.77346,2.43088l-1.20644,1.39693l-0.16268,0.31452l-1.98874,2.43068l-1.60919,1.60919l-0.97045,1.12368l-0.20998,0.05675l-0.37188,0.37188l-1.00698,3.02093l-0.2653,0.59183l-0.02086,0.20861l-0.05945,0.18684l-0.2252,1.53887l-0.89297,3.57189l-0.06444,0.8807l-0.67015,1.29562l-0.43353,1.20769l-1.17936,1.91057l-1.03152,1.99427l-0.72655,0.888l-0.15674,0.51202l-0.27392,1.21308l-2,6l-0.52508,1.17134l-0.42083,1.51799l-2.36153,2.95192l-2.22654,3.05502l-1.35377,0.80541l-0.23476,0.19284l-0.9626,1.9252l-0.54761,0.86705l-0.57043,1.36902l-2.83337,2.7568l-2.7568,2.83337l-1.36902,0.57043l-0.86705,0.54761l-2,1l-1.05379,0.40144l-0.08386,0.05177l-0.9018,0.32372l-0.89538,0.3411l-0.09737,0.01527l-1.06135,0.381l-1.87011,0.46753l-2.03633,1.01817l-0.77803,0.29639l-0.73842,0.3846l-5,2l-1.30185,0.37553l-1.27525,0.45778l-4,1l-1.53887,0.2252l-0.18684,0.05945l-0.69283,0.06928l-0.68895,0.10082l-0.19568,-0.01236l-1.54754,0.15475h-26.39131l-0.49066,0.12461l-0.7944,-0.12461h-0.32363l-3.125,-0.3125l-1.41621,-0.45061l-1.46822,-0.23031l-2.64227,-1.00658h-2.3483l-1.96097,-0.1961l-1.96135,-0.19229l-5,-1l-1.86015,-0.56943l-0.22696,-0.0356l-0.01727,-0.00658h-2.9733l-3.125,-0.3125l-0.06641,-0.02113l-0.06969,-0.00095l-2.94683,-0.66541h-16.79207l-1.23745,-0.12375l-1.24324,-0.0307l-6.76446,-0.84556h-4.75485l-1.96097,-0.1961l-1.96135,-0.19229l-3.05807,-0.61161h-1.01961l-1.54754,-0.15475l-0.19568,0.01236l-0.68895,-0.10082l-0.69283,-0.06928l-0.18684,-0.05945l-1.53887,-0.2252l-1.6114,-0.40285h-0.53789l-1.96097,-0.1961l-1.96135,-0.19229l-3.05807,-0.61161h-2.01961l-3.125,-0.3125l-0.06641,-0.02113l-0.06969,-0.00095l-3.06346,-0.69175l-4.5113,-1.50377l-8.81939,-1.4699h-4.34475l-1.54754,-0.15475l-0.19568,0.01236l-0.68895,-0.10082l-0.69283,-0.06928l-0.18684,-0.05945l-1.53887,-0.2252l-9.6114,-2.40285h-0.53789l-0.29094,-0.02909l-1.09581,0.13698l-1.31497,-0.37805l-0.42328,-0.04233l-2.5867,-0.82304l-2.6088,-0.75003l-0.21539,-0.11443h-10.4641l-3.125,-0.3125l-0.06641,-0.02113l-0.06969,-0.00095l-2.94683,-0.66541h-0.79207l-1.54754,-0.15475l-0.19568,0.01236l-0.68895,-0.10082l-0.69283,-0.06928l-0.18684,-0.05945l-1.53887,-0.2252l-1.6114,-0.40285h-4.53789l-1.54754,-0.15475l-0.19568,0.01236l-0.68895,-0.10082l-0.69283,-0.06928l-0.18684,-0.05945l-1.53887,-0.2252l-4,-1l-0.72375,-0.25981l-0.75009,-0.16937l-2.27132,-0.75711l-3.25484,-0.81371l-0.72375,-0.25981l-0.75009,-0.16937l-3,-1l-1.17134,-0.52508l-1.51799,-0.42083l-2.95192,-2.36153l-3.05502,-2.22654l-0.80541,-1.35377l-0.81478,-0.9919l-2,-3l-0.13718,-0.25822l-0.72182,-0.83579l-0.41485,-1.30383l-0.19957,-0.37567l-0.75003,-2.6088l-0.82304,-2.5867l-0.04233,-0.42328l-0.37805,-1.31497l0.13698,-1.09581l-0.02909,-0.29094v-4l0.3125,-3.125l0.02113,-0.06641l0.00095,-0.06969l0.66541,-2.94683v-24.42173l-0.18427,-0.12285l-1.37823,-0.37249l-1.8392,-2.12961l-0.11911,-0.09784l-0.43513,-0.54391l-3.54406,-4.10365l-0.17245,-0.54199l-0.3553,-0.44413l-1.44855,-5.22513l-0.21119,-0.66375l-0.01534,-0.15338l-0.75173,-2.7116l0.29088,-0.86603l-1.52552,-3.05105l-1.63534,-0.36927l-3,-1l-2.86581,-1.28468l-0.37701,-0.27477l-1.99512,-0.53922l-2.13211,-2.46876l-1.3262,-0.96656l-1.08814,-1.829l-1.39104,-1.61068l-0.49757,-1.5638l-1.66784,-2.80339l0.11936,-2.06326l-0.14145,-0.44455l-0.17329,-1.73287l-0.14579,-0.3827l-0.23031,-1.46822l-0.45061,-1.41621l-0.30888,-3.0888l-0.0102,-0.02677l-0.23031,-1.46822l-0.405,-1.27284l-1.29525,-1.33123l-2.83337,-2.7568l-0.57043,-1.36902l-0.54761,-0.86705l-0.28057,-0.56114l-0.33089,-0.38313l-0.24381,-0.76626l-0.14473,-0.28947l-1.11803,-2.93484l-0.14985,-0.9553l-0.10794,-0.25905l0.03791,-0.18734l-0.01044,-0.06653l-0.45061,-1.41621l-0.3125,-3.125v-0.32363l-0.12461,-0.7944l0.12461,-0.49066v-10.36781l-0.79587,-2.18864l-0.17406,-0.68424l-0.26055,-0.6562l-2,-7l-0.38949,-2.15719l-0.06753,-0.21223l-0.03626,-0.36259l-0.06475,-0.3586l0.00663,-0.22262l-0.21812,-2.18119v-16l0.15475,-1.54754l-0.01236,-0.19568l0.10082,-0.68895l0.06928,-0.69283l0.05945,-0.18684l0.2252,-1.53887l0.47987,-1.91948l0.02263,-0.22626l-0.36401,-1.79864l1.99647,-4.79153l0.7679,-2.41339l0.45925,-0.53176l0.27024,-0.64858l1.81518,-1.76613l0.95533,-1.10617v-18.94737l0.3125,-3.125l0.02113,-0.06641l0.00095,-0.06969l0.69175,-3.06346l0.1198,-0.35941l-0.00374,-0.05926l0.10082,-0.68895l0.06928,-0.69283l0.05945,-0.18684l0.2252,-1.53887l1,-4l1.06109,-2.9559l0.14897,-0.24133l0.07836,-0.27256l1.47342,-2.7735l2,-3l1.25091,-1.52285l0.64735,-0.7912l0.00189,-0.0102l0.35719,-0.53579l0.49511,-0.99023l0.42883,-0.67898l0.05687,-0.22746l0.45778,-1.27525l0.37553,-1.30185l1.91927,-4.79818l2.92368,-7.79647l1.22534,-2.48292l0.04231,-0.11484l0.06674,-0.10612l0.05548,-0.11242l0.07569,-0.09617l1.47398,-2.34387l6.55137,-8.4232l5.59466,-8.392l0.46444,-0.56541l0.38952,-0.6194l6.44889,-8.29143l8.51458,-13.24491l0.35812,-0.45109l0.29073,-0.49719l8,-11l0.79723,-0.8936l0.06138,-0.10149l0.62411,-0.66686l0.60804,-0.68154l0.09556,-0.07026l0.8183,-0.87435l4.97089,-4.34953l0.58017,-0.77356l2.46918,-4.1153l0.92891,-1.24739l0.09008,-0.17415l0.44091,-0.53889l0.41587,-0.55845l0.14711,-0.12963l0.98485,-1.20371l1.02752,-1.02752l0.90313,-1.42995l1.41928,-1.4587l1.2714,-1.58925l1.3692,-1.1247l0.97128,-0.99826l0.27638,-0.11516l1.28659,-1.60823l2.19619,-2.245l0.61855,-0.41237l0.5098,-0.54107l2.57998,-1.79081l3.12894,-1.7383l0.58391,-0.77855l1.56485,-1.70293l0.12265,-0.17207l0.22799,-0.20951l0.20951,-0.22799l0.17207,-0.12265l1.70293,-1.56485l2.59265,-1.94449l0.32507,-0.48761l0.31177,-0.74825l0.99826,-0.97128l1.1247,-1.3692l1.58925,-1.2714l1.4587,-1.41928l1.49813,-0.94619l1.0876,-0.87008l0.78114,-0.21655l3.28847,-1.64423l1.05379,-0.40144l0.08386,-0.05177l0.9018,-0.32372l0.89538,-0.3411l0.09737,-0.01527l1.06135,-0.381l4,-1l1.53887,-0.2252l0.18684,-0.05945l0.69283,-0.06928l0.68895,-0.10082l0.19568,0.01236l1.54754,-0.15475h0.32363l0.7944,-0.12461l0.49066,0.12461h5.78261l0.49066,-0.12461l0.27259,0.04276l2.58434,-0.58356l0.06969,-0.00095l0.06641,-0.02113l3.125,-0.3125h2.92511l0.58047,-0.23048l7,-2l1.34195,-0.2423l1.32405,-0.32622l5.21473,-0.74496l4.28915,-1.42972l3.06346,-0.69175l0.06969,-0.00095l0.06641,-0.02113l3.125,-0.3125h26l1.41133,0.14113l1.4171,0.05988l5.59293,0.79899h7.57864l2.18119,0.21812l0.22262,-0.00663l0.3586,0.06475l0.36259,0.03626l0.21223,0.06753l2.15719,0.38949l4.30668,1.23048h16.1989l0.66372,0.06637zM187.5,75.01155l-0.3125,3.125l-0.02113,0.06641l-0.00095,0.06969l-0.69175,3.06346l-0.60625,1.81874l-0.75581,3.77903l-0.13967,0.45626l-0.06909,0.47213l-1,4l-0.45778,1.27525l-0.37553,1.30185l-1.19708,2.99269l-0.37246,2.23475v2.34475l-0.15475,1.54754l0.01236,0.19568l-0.10082,0.68895l-0.06928,0.69283l-0.05945,0.18684l-0.2252,1.53887l-1,4l-0.25981,0.72375l-0.04543,0.20119l0.027,0.10631l-0.12461,0.7944v0.32363l-0.3125,3.125l-0.45061,1.41621l-0.23031,1.46822l-1.11803,2.93484l-0.14473,0.28947l-0.24381,0.76626l-0.28154,0.326l-0.1907,0.68788l-0.87008,1.0876l-0.94619,1.49813l-1.41928,1.4587l-1.2714,1.58925l-1.3692,1.1247l-0.97128,0.99826l-0.74825,0.31177l-3.69031,2.4602l-1.59965,1.59965l-0.2263,0.18515l-0.678,0.87171l-1.19715,0.6625l-0.32923,0.26937l-2.41105,1.24709l-2.37506,1.31435l-0.40676,0.12452l-1.21529,0.6286l-1.10139,0.08059l-0.27959,0.08559l-5,1l-0.82188,0.08058l-1.69187,4.51165l-0.68069,4.08414l-0.69836,2.5752l-0.02294,0.14626l-0.05803,0.15233l-0.04266,0.15732l-0.06747,0.13178l-0.94987,2.49341l-2.73716,5.47432l-2.76848,6.45979l-0.2847,0.51554l-0.20966,0.55035l-2,4l-0.41063,0.65016l-0.32806,0.69548l-3,5l-0.28499,0.3827l-0.22386,0.42139l-4,6l-1.25091,1.52285l-1.24796,1.52528l-11.14214,11.14214v0.71573l-0.09031,0.90312l0.00818,0.90759l-0.91786,10.09651v44.74113l0.79614,1.99034l0.84487,1.26731l1.47342,2.7735l0.20996,0.73029l0.36793,0.66486l0.91929,3.00303l0.75581,3.77903l0.37488,1.12464l0.09709,0.07767l3.36081,1.68041l2.02324,0.8093l0.07985,0.00584l0.2226,0.11514l1.90192,0.76077l2.78543,1.45074l0.69675,0.57336l0.80147,0.41455l2.43068,1.98874l0.70505,0.70505l3.13342,1.56671l1.87011,0.46753l1.11285,0.39948l1.95876,0.39175l1.18915,0.36403l1.21308,0.27392l4.81874,1.60625l3.77903,0.75581l3.00303,0.91929l0.66486,0.36793l0.73029,0.20996l0.80343,0.42682l0.00107,0.00011l0.06641,0.02113l0.06969,0.00095l3.06346,0.69175l3,1l0.30471,0.13659l1.49574,0.14957l1.41621,0.45061l1.46822,0.23031l2.93484,1.11803l0.28947,0.14473l0.76626,0.24381l0.38313,0.33089l2.56114,1.28057l2.65533,1.67705l0.04995,0.0486l0.0619,0.03202l1.16904,0.95648l2.11951,0.67439l1.12245,0.96939l0.87755,0.53061l4,3l0.23083,0.21212l0.26307,0.17051l5,4l0.79139,0.77419l0.85684,0.70105l3,3l0.70105,0.85684l0.77419,0.79139l2.56933,3.21166l0.38776,0.1392l0.75009,0.16937l2.27132,0.75711l3.25484,0.81371l1.06135,0.381l0.09737,0.01527l0.89538,0.3411l0.9018,0.32372l0.08386,0.05177l1.05379,0.40144l1.31014,0.65507l2.63112,0.43852l7.45924,0.9324l8.86386,0.98487l1.63777,0.34964l1.64802,0.29756l5.68642,1.62469l4.24051,0.60579h4.57864l1.64166,0.16417l1.64632,0.10796l4.36727,0.72788h4.34475l1.1016,0.11016l1.10703,0.01217l7.89907,0.87767h22.47094l2.9743,-0.4249l4.56867,-1.958l2.44125,-0.76916l0.15713,-0.06992l0.20101,-0.04291l0.19604,-0.06177l0.17118,-0.01663l2.50315,-0.53438l5.91881,-0.65765l3.62401,-1.61067l3.86212,-3.21843l0.42542,-0.28798l0.37827,-0.3476l4,-3l1.61071,-0.97392l0.17605,-0.14487l0.45843,-0.23877l0.44231,-0.26745l0.19025,-0.06633l0.06151,-0.06322l1.36467,-1.81106l2.79115,-3.02374l0.11711,-0.29278l0.81414,-2.44243l0.79576,-1.77516l0.06348,-0.22079l0.22728,-0.42781l0.19816,-0.44205l0.13531,-0.18566l0.91268,-1.71798l1.80533,-2.70799l0.22407,-1.12033l0.56943,-1.86015l0.0356,-0.22696l0.17246,-0.4527l0.1418,-0.46322l0.11124,-0.20101l0.69254,-1.81792l2,-4l0.66409,-1.05147l0.58345,-1.09826l1.80533,-2.70799l0.22407,-1.12033l0.91929,-3.00303l0.36793,-0.66486l0.20996,-0.73029l1.47342,-2.7735l2,-3l0.55126,-0.6711l0.47237,-0.72879l2.14855,-2.68569l0.89929,-2.24822l1.44182,-2.76829l0.00278,-0.00683l0.00337,-0.00498l0.00278,-0.00533l0.00469,-0.0057l1.74967,-2.58475l3.51397,-4.21677l1.96191,-3.92381l0.54072,-0.85614l0.0223,-0.05806l0.56213,-0.86729l0.5519,-0.87384l0.04337,-0.04457l0.55075,-0.84972l3.45781,-4.32226l0.82787,-1.24181l2.44315,-4.8863l1.67705,-2.65533l0.0486,-0.04995l0.03202,-0.0619l1.98874,-2.43068l2,-2l0.81959,-0.67057l1.32255,-2.18729l3,-4l0.9597,-1.04438l0.89816,-1.09775l0.29785,-0.29785l-0.00143,-0.08103l0.17232,-0.4232l0.44292,-1.55021l1.15898,-2.91891l0.56291,-0.8474l0.38365,-0.94221l1.76051,-2.60075l0.36443,-0.43731v-4.759l0.1961,-1.96097l0.19229,-1.96135l0.61161,-3.05807v-0.01961l0.3125,-3.125l0.45061,-1.41621l0.23031,-1.46822l0.14579,-0.3827l0.17329,-1.73287l0.45061,-1.41621l0.23031,-1.46822l1.11803,-2.93484l0.14473,-0.28947l0.24381,-0.76626l0.13813,-0.15994l1.38821,-4.16462l0.79576,-1.77516l0.06348,-0.22079l0.22728,-0.42781l0.19816,-0.44205l0.13531,-0.18566l0.91268,-1.71798l0.84487,-1.26731l1.2266,-3.0665l0.44299,-0.85053l0.01212,-0.04216l0.50168,-0.94434l0.49396,-0.9484l0.02787,-0.03387l0.44991,-0.84689l1.30931,-1.96397l0.06019,-0.12037l-0.76075,-0.6086l-0.18098,-0.09426l-2.20472,-1.8143l-2.22958,-1.78367l-0.12953,-0.15768l-1.00703,-0.8287l-0.55702,-1.07536l-0.29988,-0.36507l-2,-3l-0.58345,-1.09826l-0.2549,-0.40359l-0.96032,-0.57133l-1.53346,-2.10405l-2.1277,-1.74085l-0.02364,-0.00045l-1.89771,-1.33614l-2.57741,-1.62784l-0.69496,-0.67618l-2.25757,-1.58952l-0.9382,-1.51989l-1.28017,-1.24557l-1.06193,-2.54863l-0.50932,-0.82509l-1.02995,-2.86916l-0.89266,-2.14237l0.15551,-0.7684l-0.1077,-0.43081l-1.75711,-5.27132l-0.16937,-0.75009l-0.25981,-0.72375l-1,-4l-0.06909,-0.47213l-0.13967,-0.45626l-0.75581,-3.77903l-1.60625,-4.81874l-0.16937,-0.75009l-0.25981,-0.72375l-0.81371,-3.25484l-1.30763,-3.9229l-2.36435,-4.7287l-0.29639,-0.77803l-0.3846,-0.73842l-0.47538,-1.18846l-0.09722,-0.09722l-0.70105,-0.85684l-0.77419,-0.79139l-1.64728,-2.05911l-0.90288,-0.36115l-2.25506,-0.56377l-0.8807,-0.06444l-1.29562,-0.67015l-1.20769,-0.43353l-1.91057,-1.17936l-1.99427,-1.03152l-0.9931,-0.81254l-1.24124,-0.7662l-0.50837,-0.72204l-2.78518,-2.78518l-1.18846,-0.47538l-2.78543,-1.45074l-0.69675,-0.57336l-0.80147,-0.41455l-2.09191,-1.71156l-4.62445,-1.84978l-0.73842,-0.3846l-0.77803,-0.29639l-4,-2l-0.65016,-0.41063l-0.69548,-0.32806l-0.46666,-0.27999l-4.64872,-1.3282l-4.88269,-0.81378l-0.77164,-0.20926l-0.79109,-0.11577l-1.6114,-0.40285h-2.53789l-1.02041,-0.10204l-1.47959,0.10204l-3.73288,-1.30137l-3.76712,-1.19863l-0.91667,-0.79167l-0.20833,-0.02083l-0.18684,-0.05945l-1.53887,-0.2252l-1.6114,-0.40285h-1.53789l-1.54754,-0.15475l-0.19568,0.01236l-0.68895,-0.10082l-0.69283,-0.06928l-0.18684,-0.05945l-1.53887,-0.2252l-1.6114,-0.40285h-14.53789l-1.96097,-0.1961l-1.96135,-0.19229l-3.05807,-0.61161h-9.01961l-1.54754,-0.15475l-0.19568,0.01236l-0.68895,-0.10082l-0.69283,-0.06928l-0.18684,-0.05945l-1.53887,-0.2252l-1.6114,-0.40285h-28.53789l-1.41133,-0.14113l-1.4171,-0.05988l-3.93629,-0.56233l-8.9473,1.49122l-0.23291,0.01527l-0.22664,0.05584l-6.45045,0.92149l-3.23468,0.64694l-7.81874,2.60625l-1.00622,0.22721l-0.31834,0.10491z" stroke-width="9.5"/><path d="M86.25,141.40625l13.55491,-94l0.19364,1l19.75145,93z" stroke-width="4.5"/><path d="M72.25,271.40625l13.95954,-94l0.19942,1l20.34104,93z" stroke-width="4.5"/><path d="M145.25,371.40625l8.19926,-112h-0.84998l12.15072,54z" stroke-width="4.5"/><path d="M248.25,387.40625l3.57403,-112h-0.37051l5.29646,54z" stroke-width="4.5"/><path d="M314.75001,325.40625l6.54269,-54h-0.45768l4.41498,112z" stroke-width="4.5"/><path d="M394.25,270.40625l11.12717,-94l0.15896,1l16.21387,93z" stroke-width="4.5"/><path d="M422.25,156.40625l10.72254,-94l0.15318,1l15.62428,93z" stroke-width="4.5"/><path d="M360.01326,80.53219l2.22021,-99.69652l0.14672,0.84793l14.52314,77.76048z" stroke-width="4.5"/><path d="M245.25,46.40625l17.60116,-94l0.25145,1l25.6474,93z" stroke-width="4.5"/><path d="M140.69037,66.60312l14.53859,-88.86082l0.11576,1.05487l12.16094,98.66812z" stroke-width="4.5"/></g></g></svg>