<svg version="1.1" xmlns="http://www.w3.org/2000/svg" xmlns:xlink="http://www.w3.org/1999/xlink" width="105.64077" height="248.18237" viewBox="0,0,105.64077,248.18237"><g transform="translate(-182.90027,-78.46003)"><g data-paper-data="{&quot;isPaintingLayer&quot;:true}" fill-rule="nonzero" stroke-linejoin="miter" stroke-miterlimit="10" stroke-dasharray="" stroke-dashoffset="0" style="mix-blend-mode: normal"><path d="M249.91233,313.22447v-74.33334h14v74.33334z" fill="#000000" stroke="#000000" stroke-width="1.5" stroke-linecap="butt"/><path d="M228.479,313.0578l0,-11.34699c2.48921,-1.50204 4.6942,-3.30911 5.22257,-4.26689c0.34405,-0.39773 0.64557,-0.83327 0.89748,-1.29954c2.3222,-1.65133 3.83433,-4.67312 3.66234,-8.34654c-0.01479,-0.31598 -0.0705,-0.61312 -0.16129,-0.89411c-0.03495,-0.19314 -0.07755,-0.38361 -0.12747,-0.5711c0.6558,-1.8471 0.40169,-4.09806 -0.41266,-6.7545c-0.4834,-1.57688 -1.62384,-2.82348 -3.06204,-3.65175c-0.36204,-2.10084 -1.15634,-4.26428 -2.18796,-6.09825c-0.11378,-0.20228 -0.24429,-0.38795 -0.38912,-0.55939c0.02997,-0.26773 0.04537,-0.53987 0.04537,-0.81561c0,-2.62625 -1.3964,-4.92635 -3.48722,-6.19833l0,-15.197h14.83334v66z" fill="#ffffff" stroke="#000000" stroke-width="1.5" stroke-linecap="butt"/><path d="M256.27898,169.78559c0,3.54049 -3.08858,7.68877 -5.20204,15.88419c-1.75165,6.79244 -0.6836,6.4085 -0.6836,6.4085c0,0 24.91608,41.76837 23.19071,43.39234c-5.37123,5.05556 -37.08438,5.35387 -57.42878,4.06328c-0.8909,-0.05651 14.64222,-46.90658 14.64222,-46.90658c0,0 1.25263,1.7521 -2.2377,-5.61712c-3.57671,-7.55158 -8.544,-15.1493 -8.544,-17.22461c0,-6.4749 8.1178,-11.72384 18.1316,-11.72384c10.0138,0 18.1316,5.24894 18.1316,11.72384z" fill="#bd0000" stroke="#000000" stroke-width="1.5" stroke-linecap="butt"/><path d="M233.1161,159.86542v-19.36569h9.8727v19.36569z" fill="#ffffff" stroke="#000000" stroke-width="1.5" stroke-linecap="butt"/><path d="M236.49425,143.80263c-5.19237,0 -10.05686,-1.38959 -14.23463,-3.81358c0.30793,-0.78461 0.53432,-1.57509 0.66236,-2.35192c1.92373,-0.85996 3.40413,-2.53356 4.00362,-4.58324c0.10427,-0.35651 0.1819,-0.7244 0.23056,-1.10136c0.84236,-2.09789 1.30425,-4.67674 0.7269,-6.88552c0.5706,-1.65111 -0.16108,-3.66172 -1.37431,-5.53103c-0.6132,-2.50618 -2.5293,-4.50114 -4.9896,-5.22619c-0.08964,-0.06176 -0.17652,-0.1194 -0.26029,-0.17271l-0.2612,-0.08707c-2.04986,-1.02493 -4.27067,-2.13914 -6.43756,-2.13559c-0.31202,-0.03903 -0.6374,-0.07181 -0.97653,-0.09804c-0.28439,-0.03391 -0.57384,-0.05135 -0.86736,-0.05135l-3.00323,0.64933c-0.44117,0.18907 -0.86195,0.39526 -1.26166,0.61659c1.45036,-14.06388 13.4521,-25.03662 28.04292,-25.03662c4.47032,0 8.6976,1.02999 12.45287,2.8633c0.41089,1.15341 1.3362,2.06272 2.49977,2.4518c0.60566,0.418 1.33224,0.67329 2.11661,0.70274c0.20876,0.07818 0.4258,0.13942 0.64944,0.18204c1.58896,1.2726 3.03538,2.7127 4.31184,4.29317c-0.42442,0.36057 -0.80677,0.76914 -1.13868,1.21733c-2.76133,0.06937 -5.49665,0.59568 -7.04488,1.46657c-0.28089,0.158 -0.52976,0.34824 -0.75296,0.56432c-1.51922,1.15261 -2.57001,2.8905 -2.81653,4.87782c-0.14606,0.05911 -0.28875,0.12733 -0.4274,0.20656c-0.89531,0.51161 -1.16825,1.70008 -1.72187,2.57005c-2.18513,3.43378 -0.80338,7.44262 1.97719,9.749c0.39961,0.3621 0.8398,0.68025 1.31292,0.94682c-0.03737,2.7888 2.78539,4.92894 5.95368,5.97368c1.0607,0.60795 2.28974,0.9555 3.59996,0.9555c0.12216,0 0.24362,-0.00302 0.3643,-0.00899c0.42771,0.56207 0.89814,0.99543 1.3934,1.24359c0.72393,0.36274 1.47006,0.57526 2.21596,0.65747c-4.72418,8.85809 -14.12263,14.89552 -24.94563,14.89552z" fill="#ffffff" stroke="#000000" stroke-width="1.5" stroke-linecap="butt"/><path d="" fill="#ffffff" stroke="#000000" stroke-width="1.5" stroke-linecap="butt"/><path d="M253.78005,138.24786c-5.20261,4.33736 -13.20221,5.46173 -17.21483,5.46173c-2.20514,0 6.34812,-10.15262 6.34812,-10.15262l-8.34468,-9.60398l5.42488,-9.40154l-7.06096,-9.62703l7.77483,-6.96985c0,0 -7.0379,-6.99576 -6.27572,-9.70578c0.30147,-1.07192 3.91732,-0.49453 6.47499,-0.04784c2.4496,0.42781 5.24053,1.23157 8.02023,2.59852c0.40017,1.18096 1.33692,2.11437 2.51998,2.50996c0.60566,0.418 1.33224,0.67329 2.11661,0.70274c0.20059,0.07512 0.40883,0.1346 0.62322,0.17695c1.11931,0.92717 2.19513,1.9792 3.19994,3.1707c0.33984,0.40299 0.67125,0.82164 0.99353,1.2537c-0.36701,0.32881 -0.70031,0.69448 -0.99409,1.09118c-2.76133,0.06937 -5.49665,0.59568 -7.04488,1.46657c-0.28089,0.158 -0.52976,0.34824 -0.75296,0.56432c-1.51922,1.15261 -2.57001,2.8905 -2.81653,4.87782c-0.14606,0.05911 -0.28875,0.12733 -0.4274,0.20656c-0.89531,0.51161 -1.16825,1.70008 -1.72187,2.57005c-2.18513,3.43378 -0.80338,7.44262 1.97719,9.749c0.39961,0.3621 0.8398,0.68025 1.31292,0.94682c-0.03737,2.7888 2.78539,4.92894 5.95368,5.97368c1.0607,0.60795 2.28974,0.9555 3.59996,0.9555c0.12216,0 0.24362,-0.00302 0.3643,-0.00899c0.42771,0.56207 0.89814,0.99543 1.3934,1.24359c0.66562,0.33352 1.35002,0.54006 2.03575,0.63506c-1.85508,3.47574 -4.38476,6.78302 -7.47962,9.36317z" fill="#000000" stroke="#000000" stroke-width="1.5" stroke-linecap="butt"/><path d="M225.57867,113.77903c0,1.10256 -0.09756,2.16908 -0.27977,3.17913c-0.9268,-1.25305 -2.24776,-2.1969 -3.77973,-2.64837c-0.08964,-0.06176 -0.17652,-0.1194 -0.26029,-0.17271l-0.2612,-0.08707c-2.04986,-1.02493 -4.27067,-2.13914 -6.43756,-2.13559c-0.31202,-0.03903 -0.6374,-0.07181 -0.97653,-0.09804c-0.28439,-0.03391 -0.57384,-0.05135 -0.86736,-0.05135l-1.68287,0.36386c0.50624,-5.60412 3.55292,-9.91231 7.23572,-9.91231c4.03698,0 7.3096,5.17667 7.3096,11.56244z" fill="#ff1d1d" stroke="#000000" stroke-width="1.5" stroke-linecap="butt"/><path d="M218.03567,102.57249c0,0 -1.64909,-1.35901 -2.01146,-2.14683c-0.3163,-0.68767 -0.04339,-2.32062 -0.04339,-2.32062" fill="none" stroke="#000000" stroke-width="1.5" stroke-linecap="round"/><path d="M220.35789,102.39778c0,0 -1.86466,-1.78164 -2.04844,-2.64097c-0.16042,-0.75008 1.00629,-2.23198 1.00629,-2.23198" fill="none" stroke="#000000" stroke-width="1.5" stroke-linecap="round"/><path d="M218.66778,112.11809c0,0.27405 -0.00797,0.54447 -0.02348,0.81045c-1.34564,-0.57912 -2.72552,-1.01634 -4.08419,-1.01411c-0.31202,-0.03903 -0.6374,-0.07181 -0.97653,-0.09804c-0.28439,-0.03391 -0.57384,-0.05135 -0.86736,-0.05135l-1.35791,0.2936c0.01642,-3.89951 1.64638,-7.05078 3.65467,-7.05078c2.01849,0 3.6548,3.18336 3.6548,7.11024z" fill="#000000" stroke="#000000" stroke-width="1.5" stroke-linecap="butt"/><g stroke="#000000" stroke-width="1.5"><path d="M246.34434,106.81999c-0.89531,0.51161 -1.16825,1.70008 -1.72187,2.57005c-0.02081,0.0327 -0.0413,0.06546 -0.06146,0.09826c0.64133,-2.63148 1.87357,-4.79852 3.43948,-6.0942c-0.64832,0.93678 -1.08168,2.03366 -1.22876,3.21933c-0.14606,0.05911 -0.28875,0.12733 -0.4274,0.20656z" fill="#ffffff" stroke-linecap="butt"/><path d="M251.38376,125.20858c-3.50883,0 -6.44022,-3.91078 -7.14717,-9.12711c0.53719,1.16971 1.35891,2.22466 2.36308,3.05757c0.39961,0.3621 0.8398,0.68025 1.31292,0.94682c-0.02894,2.15938 1.65691,3.92986 3.89019,5.10404c-0.13867,0.0124 -0.27838,0.01868 -0.41901,0.01868z" fill="#ffffff" stroke-linecap="butt"/><path d="M244.73868,108.46295c0,0 -1.92378,0.93031 -2.79094,0.93031c-0.75692,0 -2.12642,-0.93031 -2.12642,-0.93031" fill="none" stroke-linecap="round"/><path d="M243.58752,112.2732c-0.62873,0.27518 -1.71253,0.70841 -2.30429,0.70841c-0.75692,0 -2.12642,-0.93031 -2.12642,-0.93031" fill="none" stroke-linecap="round"/><path d="M246.34434,106.81999c-0.80519,0.46011 -1.10699,1.46767 -1.56229,2.29866c0.43256,-1.90798 1.2837,-3.37608 2.32706,-3.96392c-0.16055,0.46653 -0.27484,0.95459 -0.33737,1.4587c-0.14606,0.05911 -0.28875,0.12733 -0.4274,0.20656z" fill="#000000" stroke-linecap="butt"/></g><path d="M250.24302,128.64635c0,0 -1.48964,-1.67296 -1.52019,-2.22286c-0.04046,-0.72831 0.85568,-2.20719 0.85568,-2.20719" fill="none" stroke="#ffffff" stroke-width="1.5" stroke-linecap="round"/><path d="M253.78707,128.09259c0,0 -1.48964,-1.67296 -1.52019,-2.22286c-0.00685,-0.12338 0.01317,-0.26829 0.05116,-0.4239" fill="none" stroke="#ffffff" stroke-width="1.5" stroke-linecap="round"/><path d="" fill="#000000" stroke="#000000" stroke-width="1.5" stroke-linecap="butt"/><path d="M256.55586,133.07642c0,1.65149 -1.3388,2.99029 -2.99029,2.99029c-1.65149,0 -2.99029,-1.3388 -2.99029,-2.99029c0,-1.65149 1.3388,-2.99029 2.99029,-2.99029c1.65149,0 2.99029,1.3388 2.99029,2.99029z" fill="#ffffff" stroke="none" stroke-width="1.5" stroke-linecap="butt"/><path d="M241.95869,130.79531v6.31283c0,0 -3.35233,-0.73918 -5.38745,-0.00205c-2.54039,0.92014 -8.67799,5.09662 -8.67799,5.09662c0,0 2.85995,-6.5969 4.9056,-8.8213c1.68742,-1.83486 6.5018,-3.58286 6.5018,-3.58286z" data-paper-data="{&quot;index&quot;:null}" fill="#000000" stroke="none" stroke-width="1.5" stroke-linecap="butt"/><path d="M239.38939,129.64313c0,0 3.88597,1.90068 5.30448,2.96942c1.25683,0.94693 3.44488,3.23266 3.44488,3.23266v0.55375l-8.30636,-0.55375l1.55052,-2.87954l-1.99353,-3.32254z" data-paper-data="{&quot;index&quot;:null}" fill="#ffffff" stroke="none" stroke-width="1.5" stroke-linecap="butt"/><g stroke="#740000" stroke-width="1.5"><path d="M217.64254,95.31314c0,0 -1.92622,-2.91992 -1.8859,-5.12424c0.01922,-1.05028 -0.65213,-3.30292 -0.75396,-5.30346c0.95495,0.85965 1.94295,1.52787 3.43619,1.90118c3.48489,0.87122 6.66559,-0.11993 7.81195,-2.16267l2.68836,1.57593l0.28479,4.65156z" fill="#af0000" stroke-linecap="butt"/><path d="M228.6544,86.95931l-5.50593,0.28479" fill="none" stroke-linecap="round"/><path d="M228.36961,88.38326l-4.36677,1.80367" fill="none" stroke-linecap="round"/></g><g data-paper-data="{&quot;index&quot;:null}" stroke="#740000" stroke-width="1.5"><path d="M241.19045,91.23116l0.28478,-4.65157l9.25943,-5.42794c0.04911,0.51207 0.19477,0.99595 0.41855,1.43321c-0.10356,0.23801 -0.18912,0.48432 -0.25543,0.73514c-0.11798,0.37737 -0.18156,0.77878 -0.18156,1.19503c0,0.26517 0.0258,0.5243 0.07503,0.77504c0.03618,0.21623 0.08935,0.42847 0.16035,0.63424c-1.32421,0.652 -2.23538,2.01495 -2.23538,3.59072c0,1.76545 1.14374,3.26376 2.73067,3.7944c0.60566,0.418 1.33224,0.67329 2.11661,0.70274c0.03964,0.01485 0.07959,0.02908 0.11982,0.0427c-0.46079,0.95485 -0.91143,1.63798 -0.91143,1.63798z" fill="#af0000" stroke-linecap="butt"/><path d="M241.76003,87.33903l5.50593,0.28478" fill="none" stroke-linecap="round"/><path d="M246.41158,90.56664l-4.36677,-1.80366" fill="none" stroke-linecap="round"/></g><path d="M242.51415,87.12382c0,4.29912 -3.50637,7.78424 -7.83171,7.78424c-4.32533,0 -7.83171,-3.48512 -7.83171,-7.78424c0,-3.08814 1.80923,-5.75628 4.43163,-7.01437c-0.79276,1.52289 -1.0863,3.34927 -0.1053,5.06602c0.84806,1.4841 5.99512,1.88362 7.03916,0.83957c0.23029,-0.23029 1.64826,-2.65007 2.15877,-4.23736c1.32608,1.39444 2.13916,3.27591 2.13916,5.34614z" fill="#af0000" stroke="#740000" stroke-width="1.5" stroke-linecap="butt"/><path d="M221.94602,174.19982c0,0 -2.77289,-4.65082 -3.09717,-7.09683c-0.39862,-3.00668 4.86919,-9.38932 4.86919,-9.38932c0,0 12.11625,-2.28372 14.41883,-2.33995c4.78557,-0.11685 12.79439,1.67543 12.79439,1.67543c0,0 7.73415,7.19763 7.22643,10.14354c-0.44338,2.57256 -3.90388,7.00712 -3.90388,7.00712c0,0 -0.56594,-12.11855 -5.92936,-12.13138c-4.10353,-0.00981 -8.65819,11.18209 -8.65819,11.18209c0,0 -7.43435,-11.56105 -11.56279,-11.81308c-2.44274,-0.14913 -5.14784,2.23521 -6.10208,5.69385c-0.81756,2.96324 -0.05536,7.06852 -0.05536,7.06852z" fill="#ffffff" stroke="#000000" stroke-width="1.5" stroke-linecap="butt"/><path d="M233.91233,162.39114v-9h8.33333v9z" fill="#ffffff" stroke="none" stroke-width="1.5" stroke-linecap="butt"/><path d="M237.579,165.0578v-22.5h5.16666l0.70621,12.66177c0,0 6.43749,0.62769 8.60699,2.25409c0.33515,0.25125 4.61514,5.52992 5.33295,8.62752c0.91149,3.93336 -1.77726,5.88096 -2.1043,6.32105c-0.39684,0.53401 -4.57074,-10.25278 -4.37699,-10.07664c1.1621,1.05648 -0.15204,-0.19198 -1.42593,-0.5469c-1.60254,-0.44648 -3.43267,-0.15851 -3.47132,0.25294c-0.31794,3.38506 -6.10094,10.67284 -6.10094,10.67284z" fill="#000000" stroke="#000000" stroke-width="1.5" stroke-linecap="butt"/><path d="M247.91233,172.39114c1.24508,0.71148 2.0145,1.96257 2.3638,3.31601c0.70169,2.71884 -0.29195,5.85066 -2.53047,5.85066c-3.02545,0 -2.9596,-7.38022 -1.98787,-7.9355z" fill="#ffffff" stroke="none" stroke-width="0.5" stroke-linecap="butt"/><path d="M241.34812,189.48745c-1.15126,-0.58325 -2.27218,-4.85647 -1.09033,-5.53181c0.43488,-0.73685 1.23699,-1.23117 2.15454,-1.23117c1.38071,0 2.5,1.11929 2.5,2.5c0,0.21572 -0.02733,0.42506 -0.0787,0.62474c0.66815,2.50437 -0.73302,5.03269 -3.48551,3.63824z" fill="#ffffff" stroke="none" stroke-width="0.5" stroke-linecap="butt"/><path d="M232.41035,214.07846c-0.95423,2.60498 -1.99445,6.31242 -5.38477,5.05947c-3.86902,-1.42986 1.05612,-15.07541 4.17315,-9.62061c0.57857,0.19157 1.06348,0.58875 1.36814,1.10497c0.8992,0.51383 0.05781,2.87106 -0.15652,3.45616z" fill="#ffffff" stroke="none" stroke-width="0.5" stroke-linecap="butt"/><path d="M234.91233,235.72447c0,0.5727 9.48324,-4.35861 12.04806,-0.02846c0.54045,0.91243 7.2986,-3.14952 9.38944,-0.81772c1.08706,1.21233 9.53718,0.11656 8.92944,3.0272c-0.12935,0.61953 5.50284,-5.46076 6.80849,-2.66288c0.39368,0.84362 3.62689,-0.05643 5.5671,2.8252c1.55043,2.30273 1.974,8.34555 1.67909,9.87257c-0.71979,3.72689 -9.36951,3.12552 -10.1332,3.73274c-1.94358,1.54536 -13.92313,-4.67963 -13.99063,-4.35984c-0.23615,1.11882 5.71212,3.55634 4.55076,4.34553c-3.1261,2.1243 -15.08748,1.67387 -14.95041,2.29189c0.71495,3.22357 -6.8935,-3.71042 -7.39173,-3.00628c-0.72724,1.02778 -4.85418,-2.79961 -9.00607,-2.70475c-3.5263,0.08056 -7.11702,4.15148 -8.16702,4.15148c-4.05009,0 -7.33333,-3.80558 -7.33333,-8.5c0,-4.69442 3.28324,-8.5 7.33333,-8.5c4.05009,0 14.66667,-4.36109 14.66667,0.33334z" fill="#ff4e4e" stroke="#e22828" stroke-width="1.5" stroke-linecap="butt"/><path d="M251.03593,162.79047l1.49001,-5.01533c0,0 2.08908,0.58407 5.12533,4.96365c1.07721,1.55381 3.04399,4.42701 5.55747,8.11244c-0.63084,1.0751 -0.99252,2.32721 -0.99252,3.66379c0,4.00406 3.24594,7.25 7.25,7.25c0.37883,0 0.75088,-0.02906 1.11403,-0.08506c4.28324,6.30015 9.02622,13.28664 13.40255,19.73695c-3.0602,0.63628 -5.41328,3.20169 -5.73019,6.36716c-0.59036,0.16572 -1.15024,0.40431 -1.66931,0.70545z" fill="#000000" stroke="#000000" stroke-width="1.5" stroke-linecap="butt"/><path d="M274.91233,209.22446l-8.16667,-11.33333l10.33333,-8.5l7.92558,11.88837c-3.54609,0.22283 -6.40058,2.99487 -6.75196,6.5046c-1.19112,0.33435 -2.25814,0.96535 -3.11634,1.80826z" fill="#9e0000" stroke="#000000" stroke-width="1.5" stroke-linecap="round"/><path d="M272.09434,205.67925l-5.92805,-7.5654l11.11165,-9.14477l7.0709,8.5654z" fill="#ff7575" stroke="#000000" stroke-width="1.5" stroke-linecap="butt"/><path d="" fill="#ff7575" stroke="#000000" stroke-width="1.5" stroke-linecap="butt"/><g stroke="#000000" stroke-width="1.5"><path d="M193.96726,245.65272c-1.87099,0.23513 -1.04463,-4.92483 -2.83312,-3.73681c-1.26512,0.84037 -2.44205,2.40755 -3.73356,1.88591c-6.5388,-2.64106 -1.91814,-11.80198 -1.91814,-11.80198c0,0 27.12579,-57.10336 31.88505,-66.85024c2.33828,-4.78874 4.31486,-5.68233 4.31486,-5.68233l2.23207,4.73197l-27.10179,72.48809c0,0 -1.80778,8.83499 -2.84537,8.96538z" data-paper-data="{&quot;index&quot;:null}" fill="#ffffff" stroke-linecap="butt"/><path d="M202.10222,227.49802l-3.9243,12.90951l-5.09376,-0.23157l-1.95322,2.65966l-7.34525,-6.12532l3.32614,-9.10849l15.48187,-33.22659l11.50099,6.83777l-6.3569,12.439l-5.17844,12.42714l-4.35621,14.49314" data-paper-data="{&quot;index&quot;:null}" fill="#9e0000" stroke-linecap="round"/><path d="M196.67068,203.72294l5.69277,-9.53709l12.36794,7.35728l-4.71447,8.37561z" data-paper-data="{&quot;index&quot;:null}" fill="#ff7575" stroke-linecap="butt"/><path d="M188.37937,223.47379l4.94455,-9.94561l12.89579,6.38703l-4.0582,8.71252z" data-paper-data="{&quot;index&quot;:null}" fill="#ff7575" stroke-linecap="butt"/></g><path d="M221.04844,161.55669c-0.3436,-0.35153 0.00595,-0.70108 0.00595,-0.70108l0.28746,-0.28589c0.00722,-0.00631 0.01489,-0.01315 0.023,-0.02051c0.052,-0.12946 0.1566,-0.23213 0.28734,-0.28157c0.59211,-0.59887 1.6821,-1.74887 1.98768,-1.76192c0.98479,-0.04207 1.15976,0.60756 0.979,1.25877c0.01717,-0.00178 0.03459,-0.0027 0.05223,-0.0027c0.27614,0 0.5,0.22386 0.5,0.5c0,0.10652 -0.03331,0.20526 -0.09008,0.28637l-0.34278,0.50465l-0.01216,-0.00826l-0.01092,0.03955c-0.06366,0.06822 -0.12553,0.13409 -0.18594,0.19779c0.0401,0.07195 0.06294,0.15483 0.06294,0.24305c0,0.11732 -0.04041,0.2252 -0.10806,0.31049l-0.35733,0.45943c-0.3579,0.53686 -0.9855,2.16714 -1.8069,2.09725c-1.09161,-0.09288 -0.56696,-1.1979 -0.97134,-1.69458c-0.16669,-0.20473 -0.5769,-0.26082 -0.59364,-0.52429c-0.00661,-0.10408 0.10767,-0.32991 0.29355,-0.61656z" fill="#ffffff" stroke="none" stroke-width="0.5" stroke-linecap="butt"/><path d="M248.6415,315.40155c0,0 -0.31206,-6.38312 -0.04443,-11.48923c0.21375,-4.07804 1.0236,-6.66252 0.99706,-9.5115c-0.06481,-6.95672 -1.32763,-19.24928 -1.32763,-19.24928h18.625c0,0 -2.625,13.24821 -2.625,20.125c0,2.25403 1.26851,4.41096 1.75082,7.58691c0.76337,5.02678 0.87418,10.91309 0.87418,10.91309c0,0 5.47753,-0.59903 12.8806,2.56286c0.38284,0.16351 3.39562,5.07008 -0.30984,6.38632c-2.67653,0.95075 -10.81781,-0.21167 -13.85501,-0.13288c-3.8802,0.10065 -9.65794,-0.63466 -13.41947,-1.03596c-4.1807,-0.44601 -3.54627,-6.15534 -3.54627,-6.15534z" fill="#ffffff" stroke="#000000" stroke-width="1.5" stroke-linecap="butt"/><path d="M262.329,290.77655c3.4863,0 1.6875,0.96447 1.6875,2c0,1.03553 1.7988,1.75 -1.6875,1.75c-3.4863,0 -6.3125,-0.83947 -6.3125,-1.875c0,-1.03553 2.8262,-1.875 6.3125,-1.875z" fill="#ffffff" stroke="#151515" stroke-width="1.5" stroke-linecap="butt"/><path d="M259.2665,292.46405c0,1.48427 -0.86745,2.6875 -1.9375,2.6875c-1.07005,0 -1.9375,-1.20323 -1.9375,-2.6875c0,-1.48427 0.86745,-2.6875 1.9375,-2.6875c1.07005,0 1.9375,1.20323 1.9375,2.6875z" fill="none" stroke="#cc0000" stroke-width="1.5" stroke-linecap="butt"/><path d="M227.47483,318.56823c0,0 -0.31206,-6.38312 -0.04442,-11.48923c0.10377,-1.97986 0.34805,-3.60768 0.56891,-5.08464c2.68062,-1.55148 5.14016,-3.53153 5.70225,-4.55043c0.34405,-0.39773 0.64557,-0.83327 0.89748,-1.29954c2.3222,-1.65133 3.83433,-4.67312 3.66234,-8.34654c-0.01479,-0.31598 -0.0705,-0.61312 -0.16129,-0.89411c-0.03495,-0.19314 -0.07755,-0.38361 -0.12747,-0.5711c0.6558,-1.8471 0.40169,-4.09806 -0.41266,-6.7545c-0.13709,-0.4472 -0.32703,-0.86784 -0.56161,-1.2599h8.72647c0,0 -2.625,13.2482 -2.625,20.125c0,2.25403 1.26851,4.41096 1.75082,7.58691c0.76337,5.02679 0.87418,10.91309 0.87418,10.91309c0,0 5.47752,-0.59903 12.88059,2.56286c0.38284,0.16351 3.39562,5.07007 -0.30984,6.38632c-2.67653,0.95075 -10.81781,-0.21167 -13.85501,-0.13289c-3.8802,0.10065 -9.65794,-0.63466 -13.41947,-1.03596c-4.1807,-0.44601 -3.54627,-6.15533 -3.54627,-6.15533z" fill="#000000" stroke="#000000" stroke-width="1.5" stroke-linecap="butt"/><path d="M241.16233,293.94323c3.48629,0 1.6875,0.96447 1.6875,2c0,1.03553 1.79879,1.75 -1.6875,1.75c-3.34064,0 -6.07521,-0.77079 -6.29786,-1.74629c0.4733,-0.36805 0.90953,-0.79508 1.30066,-1.27447c1.15448,-0.44359 2.96354,-0.72924 4.9972,-0.72924z" fill="#000000" stroke="#151515" stroke-width="1.5" stroke-linecap="butt"/><path d="M237.09543,293.27486c0.59872,0.45724 1.0044,1.34084 1.0044,2.35587c0,1.48426 -0.86745,2.6875 -1.9375,2.6875c-0.83078,0 -1.53943,-0.72529 -1.81481,-1.74428" fill="none" stroke="#cc0000" stroke-width="1.5" stroke-linecap="butt"/><path d="M262.16597,95.39357c3.05955,1.69975 1.3598,4.7593 1.3598,4.7593l-2.14991,3.30451c-1.58616,0.49749 -3.10859,1.28937 -4.75849,1.49247c-1.63759,0.20159 -4.75407,-1.29136 -6.50843,-0.53577c-1.66437,0.71684 -3.02833,3.71265 -2.48635,5.4849c0.34343,1.12302 1.29808,2.02064 1.53583,3.17068c0.21716,1.05045 -0.99183,5.53463 -0.43435,6.59381c0.15216,0.28909 0.64873,0.11241 0.95139,0.23539c0.99335,0.4036 1.94062,0.91326 2.9245,1.33941c3.06226,1.32634 6.33313,2.75015 9.53716,3.58817c0,0 2.80273,0.76438 2.60489,3.4538c0.60338,0.62885 0.97419,1.48256 0.97419,2.42288c0,0.80067 -0.26886,1.53855 -0.72121,2.12828l-1.44512,1.92683c-0.29814,1.02679 -3.88769,5.03924 -4.45466,5.4729c-2.60922,1.99571 -6.1792,2.9765 -9.09467,4.36775c-4.11837,1.96527 -7.84657,4.74796 -12.77419,4.06979c-2.17146,-0.29885 -4.12662,-1.48776 -6.23054,-2.10275c-1.578,-0.3106 -3.14831,-0.71222 -4.66892,-1.13996c-1.17885,-0.26207 -2.35813,-0.5275 -3.5316,-0.84617l-0.34967,-0.3028c-0.24784,-0.07492 -0.49296,-0.14887 -0.73513,-0.22148c0,0 -2.97875,-0.89362 -2.4782,-3.80401l-0.0997,-3.86469c2.41915,-3.17852 2.29187,-3.61071 2.87071,-7.19194c0.32074,-1.98439 1.60479,-3.7137 2.03087,-5.67816c0.16354,-0.754 -0.07607,-1.54211 -0.06797,-2.31359c0.00746,-0.71112 0.97336,-2.04665 0.26568,-2.11687c-3.10483,-0.30806 -5.46364,-1.29277 -8.5437,-1.92319c-1.88121,-0.38504 -3.83724,0.16263 -5.75365,0.28324c0,0 -3.49318,0.21832 -3.71151,-3.27486c-0.21832,-3.49318 3.27486,-3.71151 3.27486,-3.71151c1.02524,-0.06365 5.88247,-0.46718 7.24635,-0.21676c2.23995,0.41128 4.48499,1.49042 6.72442,2.04178c1.56777,0.38599 3.41927,0.09483 4.73187,1.03503c3.23354,2.31613 3.40033,8.10119 2.69771,11.56954c-0.37555,1.85383 -1.71504,3.4475 -1.96913,5.32184c-0.41835,3.08609 -0.435,5.6211 -2.71425,7.91556c0.43224,0.13572 0.87371,0.2733 1.32216,0.40972c1.80555,0.40736 3.61324,0.78296 5.40443,1.30509c0.13317,0.03882 0.26465,0.07859 0.39458,0.11909c1.872,0.29714 3.7046,0.37293 5.35216,0.03236c4.25377,-0.87932 9.4402,-2.62586 13.31969,-4.59482c1.54522,-0.78425 3.09755,-2.34947 4.49648,-3.74004c0.2306,-0.44562 0.49846,-0.79991 0.86716,-0.94478c-3.81073,-1.19194 -7.99292,-2.76713 -11.11456,-4.70616c-1.27374,-0.7912 -2.77717,-1.47881 -3.54861,-2.76461c-1.88163,-3.13622 0.30905,-6.01032 -0.43435,-8.90619c-0.26404,-1.02856 -1.22713,-1.7942 -1.46417,-2.82932c-1.16668,-5.09473 1.6477,-11.33152 6.51365,-13.5151c3.20604,-1.4387 6.54358,-0.01091 9.73308,-0.04329l0.35009,-1.19549c0,0 1.69975,-3.05955 4.7593,-1.3598z" fill="#6a6a6a" stroke="none" stroke-width="0.5" stroke-linecap="butt"/><path d="M279.52424,210.97909c0.08549,0.80759 -0.13749,1.75325 -1.08315,2.69891c-2.47487,2.47487 -4.94975,0 -4.94975,0l-0.89244,-4.98199c0.90098,-1.14098 1.53978,-2.55077 2.70294,-3.42293c0.72745,-0.54546 1.84832,-0.19157 2.66109,-0.59915c1.25769,-0.63068 3.45868,-4.61441 4.52841,-5.69568c0,0 2.47487,-2.47487 4.94975,0c2.47487,2.47487 0,4.94975 0,4.94975c-2.05997,2.0319 -3.52793,5.22652 -5.97159,6.80432c-0.54386,0.35116 -1.31602,0.11337 -1.94526,0.24677z" fill="#6a6a6a" stroke="none" stroke-width="0.5" stroke-linecap="butt"/><path d="M263.96622,165.70313c3.5,0 3.5,3.5 3.5,3.5l-0.01437,0.93312c0.01593,1.41574 1.13545,2.59406 1.70954,3.88828c0.31837,0.71772 0.03442,1.59346 0.28211,2.33854c0.29301,0.88141 1.79098,0.49443 2.69363,0.71339c0,0 3.37667,0.92091 2.45576,4.29758c-0.92091,3.37667 -4.29758,2.45576 -4.29758,2.45576c-2.92492,-0.85361 -4.81652,-0.93138 -6.80637,-3.78661c-0.61787,-0.88659 -0.27024,-2.17789 -0.71789,-3.16146c-0.41444,-0.9106 -1.45942,-1.45702 -1.81051,-2.39387c-0.43851,-1.1701 -0.31996,-2.47857 -0.47994,-3.71785l-0.01437,-1.56688c0,0 0,-3.5 3.5,-3.5z" fill="#6a6a6a" stroke="none" stroke-width="0.5" stroke-linecap="butt"/><path d="M222.90667,303.90288c-1.69975,-3.05955 1.3598,-4.7593 1.3598,-4.7593l2.12766,-1.17876c0.75,-0.5 1.44955,-1.08555 2.25,-1.5c0.37396,-0.19363 1.00769,0.05906 1.22713,-0.30037c0.29168,-0.47775 -0.16485,-1.13887 -0.01856,-1.67917c0.31762,-1.1731 0.75847,-2.33156 1.38624,-3.37221c1.12753,-1.86908 3.29481,-3.22907 3.48531,-5.67295c0.09662,-1.23948 -1.94776,-1.63911 -2.53723,-2.73371c-0.61095,-1.13449 -0.79707,-2.46975 -0.93457,-3.75092c-0.04376,-0.40774 0.6875,-0.8613 0.40742,-1.16084c-0.67701,-0.72405 -2.23584,-0.393 -2.68604,-1.27612c-1.44115,-2.82701 0.58063,-5.98109 0.15652,-8.66389c-0.03463,-0.21904 -0.44929,0.06082 -0.66521,0.01027c-0.93983,-0.22006 -1.85215,-0.54436 -2.77823,-0.81654c0,0 -3.34523,-1.0293 -2.31593,-4.37453c1.0293,-3.34523 4.37453,-2.31593 4.37453,-2.31593c2.55537,0.81256 6.08703,1.45736 7.55656,4.19372c0.07772,0.14473 0.66537,6.66723 0.40979,7.82585c-0.06533,0.29616 -0.99116,0.32215 -0.75327,0.51026c0.63393,0.50129 1.88012,0.04201 2.31396,0.72388c1.01498,1.59524 -0.10447,4.03442 0.97285,5.58824c0.44661,0.64415 1.42348,0.80841 1.82701,1.48039c0.78724,1.31093 1.51773,2.76131 1.63576,4.2859c0.32701,4.2241 -2.45225,6.77116 -4.51469,9.82705c-1.06064,1.57153 -0.53183,3.90474 -1.63232,5.44862c-0.02957,0.04148 -4.91631,3.29526 -5.52287,3.69963l-2.37234,1.32124c0,0 -3.05955,1.69975 -4.7593,-1.3598z" fill="#6a6a6a" stroke="none" stroke-width="0.5" stroke-linecap="butt"/></g></g></svg>